ply
format ascii 1.0
element vertex 1037
property float x
property float y
property float z
element face 1340
property list uchar int vertex_index
end_header
9.06921 -52.275688 -2.067638
9.123188 -100.854187 42.884499
3.62484 -98.800415 1.014847
13.334026 -74.56987 -2.105564
9.012888 -81.193024 -10.802362
16.179115 -53.338146 -12.451799
6.478184 -116.194283 21.28437
2.159775 -99.487511 19.652565
11.692596 -80.275421 13.229957
12.677906 -62.003616 -3.394693
12.822594 -64.293381 -8.120504
13.753746 -53.225376 -6.852617
6.600822 -108.632172 33.725662
0.994892 -109.714188 22.150612
4.906343 -101.004333 31.823755
13.272579 -103.693504 42.415958
13.566376 -110.135033 29.541466
2.215578 -110.527573 -0.653854
2.458542 -106.336746 -8.564226
18.888882 -66.531219 -16.307661
18.014568 -81.919662 -16.008543
7.471224 -92.748863 38.200718
8.464184 -86.885422 0.577958
3.275688 -92.553642 -5.13854
7.99288 -78.167175 -5.72003
12.382881 -65.674911 -12.314407
19.591356 -52.853291 -17.691515
0.504147 -110.498337 9.934438
3.166445 -99.522499 9.137257
7.34086 -90.860718 27.094389
7.849922 -89.148964 16.277082
9.259214 -89.393875 7.417199
13.704596 -79.669525 4.778914
11.892181 -68.605652 2.658763
7.430115 -96.397644 -12.941547
10.740429 -56.459698 -2.904028
12.899403 -57.651875 -5.500502
11.504934 -52.823639 -4.218313
8.1049 -104.870918 38.885803
5.018684 -105.385651 33.477936
7.142529 -101.362465 37.642426
10.213884 -99.300095 47.527596
10.803829 -103.17907 43.560825
10.239025 -106.868782 38.406265
2.450436 -104.762596 0.245845
2.265038 -109.154083 -5.053541
2.148937 -102.971313 -3.50868
23.179457 -58.589863 -19.194124
23.553223 -65.88163 -18.373224
11.309196 -80.837891 -0.692741
7.766632 -83.216057 -2.506655
10.676249 -76.54631 -3.876448
13.901382 -58.575817 -10.567568
11.957544 -64.965622 -10.221846
14.279205 -58.842766 -12.950336
15.907524 -59.106659 -15.174166
17.446957 -53.187786 -15.179287
0.767963 -104.826469 21.184561
0.100344 -110.056145 15.915972
0.465427 -104.749847 15.134365
1.209015 -105.015068 9.603779
2.320681 -99.273369 14.078753
7.459536 -91.969917 32.741745
10.255133 -80.572342 18.037167
9.419134 -84.970367 19.708715
10.444981 -84.566612 14.727353
8.627937 -89.176605 11.560843
11.447102 -84.665405 10.18141
12.06287 -84.619576 6.140661
12.929182 -80.21273 8.780594
9.778276 -113.639854 25.798429
5.247677 -87.382431 -7.959028
4.13665 -94.900162 -9.099644
7.883289 -88.987793 -11.360723
13.797455 -68.181259 -3.121788
12.796566 -69.857094 -5.229876
13.505239 -63.422733 -5.883423
13.799772 -58.257832 -8.07918
15.196817 -53.373043 -9.634317
5.85519 -112.323677 27.648003
2.95381 -113.649841 22.209942
3.281422 -109.381973 28.233801
2.372601 -105.179817 27.452108
3.080078 -100.20063 25.692106
13.369143 -107.007042 36.16909
9.587294 -110.288971 32.283272
13.88089 -74.1707 -13.585127
13.011673 -82.076019 -13.529577
18.553921 -74.303482 -15.77622
8.522881 -96.725136 45.851013
8.140327 -97.17942 40.841885
7.101486 -93.031792 43.308334
8.033134 -95.461853 50.44236
5.703695 -92.829529 1.206652
3.048992 -96.448593 -2.237713
4.998421 -89.834267 -1.836802
5.270361 -85.354935 -4.85932
7.178905 -79.742355 -8.052641
10.7612 -71.066315 -7.102386
9.58009 -72.174294 -9.078432
10.584953 -73.303596 -11.301058
14.811499 -66.325272 -14.361176
19.052685 -59.143604 -17.196535
22.677483 -52.117405 -20.03034
1.360279 -114.69828 16.249866
1.181688 -115.557693 10.157408
1.990078 -116.045143 4.227386
1.524126 -110.806213 4.392855
2.1555 -105.243256 4.646094
3.805567 -99.642326 4.796871
7.110027 -96.877975 35.336426
5.898642 -96.004669 29.476341
4.991602 -94.928749 23.559498
8.493141 -85.9263 24.966795
7.399645 -89.768486 21.516331
4.765823 -94.155258 17.936649
5.279943 -94.019669 12.869998
6.043673 -94.297218 8.432982
6.277014 -94.188919 4.572034
9.201134 -88.884415 3.800022
11.973747 -83.532745 2.568504
13.802053 -77.900253 1.193374
12.661724 -75.525307 7.450027
13.661898 -74.336029 3.553209
14.008818 -71.924179 0.042767
12.495409 -65.775375 -0.614498
9.951553 -59.751122 -0.679556
2.328968 -99.64048 -6.568405
12.396406 -89.651436 -14.42737
9.795219 -54.097164 -2.477957
11.10635 -54.691467 -3.676815
10.204737 -52.544216 -3.028381
8.760494 -102.892929 41.02803
7.482359 -103.274223 38.44783
8.208998 -101.234459 40.343281
9.808517 -100.207718 45.27169
10.703533 -101.247589 45.690628
9.861813 -102.219765 43.435875
9.556488 -104.188423 41.30954
2.920362 -101.792244 0.675177
2.322983 -104.055443 -1.719412
2.696606 -100.960114 -1.137346
24.8776 -54.62587 -20.785112
25.310581 -57.992954 -20.312925
12.481852 -77.731682 -1.417446
10.942091 -78.872086 -2.281313
12.145452 -75.627533 -3.016037
14.897846 -55.867599 -11.576712
13.983379 -58.70631 -11.773909
15.240336 -55.904636 -12.867964
15.782816 -55.935265 -14.121168
16.730812 -53.277546 -13.836147
5.188503 -117.244675 18.728922
1.279316 -102.182587 20.463631
0.45499 -104.739136 18.107199
1.105423 -102.030746 17.481457
1.223516 -102.004745 14.631403
2.11401 -99.306725 16.790951
10.988001 -80.365158 15.598252
10.652824 -82.492058 16.381166
11.275173 -82.399796 13.976517
10.967567 -84.581116 12.393229
11.866972 -82.412079 11.671248
12.392609 -82.45166 9.479191
12.349901 -80.252419 10.952389
8.02845 -115.007576 23.64539
10.318031 -115.350548 22.64049
6.937391 -84.40271 -9.381268
6.266479 -88.270233 -9.666407
8.37771 -85.119949 -10.937084
13.401791 -65.040329 -3.361145
13.620647 -65.895744 -4.562107
13.331127 -62.801777 -4.671482
13.214285 -55.413311 -6.262758
13.498686 -58.008335 -6.798725
13.895266 -55.615704 -7.595232
14.344521 -55.742958 -8.931162
14.570232 -53.328255 -8.232784
6.076414 -110.466797 30.767588
4.372355 -111.037689 28.118172
4.84873 -109.09623 31.07518
4.792475 -103.304543 32.78656
3.596111 -105.336388 30.523329
3.572163 -103.067986 29.758026
2.542353 -102.756027 26.656956
3.905777 -100.625229 28.773388
13.365129 -105.378044 39.383762
8.436607 -107.911659 36.167221
9.854553 -108.604324 35.43502
7.939188 -109.680885 33.206596
7.65992 -111.430992 30.072166
2.446497 -113.267746 -1.039286
2.62483 -112.803551 -3.490126
2.264393 -107.936264 -6.931314
16.426846 -70.410843 -14.944212
16.124401 -74.356552 -14.687838
18.758633 -70.407768 -15.961729
25.742992 -65.151382 -19.589293
23.519411 -69.621437 -18.151075
7.529099 -94.698624 47.03157
7.796413 -94.981133 44.643402
7.084715 -94.229172 49.341896
8.384699 -96.193939 48.185173
7.026041 -89.859726 0.993984
5.297098 -91.536224 -0.337931
6.605696 -88.395615 -0.535057
7.722197 -80.83728 -4.087997
6.27158 -84.297592 -3.586653
6.576427 -81.756538 -5.174473
6.011263 -82.669464 -6.434849
7.270607 -78.953979 -6.816069
12.702389 -67.139664 -6.716135
11.790594 -70.495834 -6.17457
11.916557 -67.6147 -7.710262
11.939085 -65.312637 -11.267498
10.802307 -68.49913 -9.696398
10.855837 -68.960403 -10.732397
9.772612 -72.745567 -10.165201
11.466238 -69.427353 -11.795397
12.647247 -69.862221 -12.864479
13.345701 -66.027527 -13.350517
17.761473 -55.921703 -16.461657
17.307846 -59.175648 -16.206743
19.231808 -55.81583 -17.545038
20.969246 -55.590271 -18.595945
21.035839 -52.552109 -18.869101
1.761536 -111.831192 22.30661
1.976881 -114.194725 19.270283
0.959902 -112.164482 19.243093
0.168879 -110.27285 12.876438
0.445107 -112.81414 13.076459
0.666769 -113.110565 10.061674
1.512682 -115.864647 7.159228
1.098518 -113.348816 7.129273
1.618189 -113.487213 4.293205
0.999264 -110.693771 7.105012
2.046038 -102.248528 9.393064
1.721817 -105.172585 7.055979
2.517368 -102.394333 7.001493
2.86224 -102.43277 4.751196
3.568848 -99.651375 6.896229
7.794975 -95.021973 39.551689
7.67944 -97.115387 38.146988
7.578369 -94.803078 36.840881
7.395464 -91.44001 29.926849
6.936024 -93.973526 31.166027
6.61009 -93.424889 28.261686
5.379431 -95.461411 26.502832
6.345728 -92.850952 25.362753
8.860514 -86.978836 17.986059
8.513998 -87.316498 20.585672
7.570206 -89.376381 18.839775
6.168472 -91.880081 19.74235
6.306145 -91.599365 17.092562
4.947517 -94.005539 15.324634
6.586668 -91.494522 14.583439
9.001888 -89.314407 9.418742
7.348808 -91.686234 10.021674
7.653753 -91.812317 7.964351
6.265377 -94.351784 6.434971
7.790993 -91.799446 6.04579
7.714254 -91.526779 4.255749
9.334444 -89.288788 5.548388
13.069986 -82.183792 5.456623
12.111958 -84.255013 4.30302
13.15303 -81.658539 3.617907
13.056374 -80.761322 1.87487
13.841389 -78.971962 2.941034
11.975588 -75.811897 9.552557
11.378366 -69.628883 4.449506
12.496719 -72.398895 4.905633
12.971453 -71.514709 3.054538
13.920546 -73.300568 1.753277
13.286192 -70.337738 1.300183
13.441221 -68.854202 -0.358341
12.263201 -67.321304 0.968516
15.418444 -107.907051 31.224426
2.9849 -94.680077 -3.713945
2.402369 -98.115334 -4.320337
2.665468 -96.12516 -5.735722
5.519045 -95.789124 -11.087992
3.940617 -98.533386 -10.043165
5.480019 -99.362823 -12.098253
15.466092 -82.150627 -14.792923
12.652016 -85.925926 -13.864693
15.185039 -85.902084 -15.178774
11.74577 -59.124146 -3.230864
12.746386 -59.870876 -4.543257
11.971775 -57.151608 -4.197304
12.273933 -55.113293 -4.948732
12.721933 -53.056622 -5.507378
7.326538 -106.778572 36.447128
5.619446 -107.18222 33.810593
6.555428 -105.252968 36.273701
6.126266 -103.394638 35.694691
6.01218 -101.269981 34.79351
10.324335 -98.153961 49.689651
11.234041 -99.994675 47.828323
11.761805 -101.846939 45.6744
11.94833 -103.680382 43.218086
11.886843 -105.463562 40.472618
10.604719 -105.060257 41.128571
9.027622 -106.087257 38.882538
2.215895 -107.683807 -0.213852
2.294422 -110.005745 -2.950329
2.19133 -107.080986 -2.344959
2.085176 -106.123116 -4.286915
2.051821 -104.783485 -6.02103
21.16596 -62.574894 -17.711512
21.224075 -66.333542 -17.299154
23.429892 -62.178516 -18.739153
25.619953 -61.529205 -19.89316
27.624092 -60.611336 -21.223925
9.92923 -83.885117 -0.003981
8.050226 -85.24826 -0.961967
9.535164 -82.078217 -1.568441
9.261568 -79.890427 -3.145144
9.202028 -77.376053 -4.755344
13.211567 -61.409458 -9.412479
12.311895 -64.633682 -9.177404
13.000383 -61.637829 -10.540804
12.989708 -61.871696 -11.649067
13.323002 -62.120834 -12.737236
14.091251 -62.37291 -13.797039
14.899818 -58.983231 -14.087383
16.609543 -55.949375 -15.322001
18.391281 -53.054623 -16.465841
0.665716 -107.358223 21.763477
0.366674 -109.869789 19.022907
0.201334 -107.373253 18.633293
0.083733 -107.454002 15.569869
0.273554 -107.598816 12.612359
0.688482 -107.781342 9.781874
0.748123 -104.853409 12.295929
1.571676 -102.092834 11.934004
2.708195 -99.365578 11.528292
7.496826 -92.413979 35.508057
7.376453 -90.00457 34.199245
7.592466 -89.502556 31.49177
7.792007 -88.939346 28.748539
9.388737 -83.106056 21.409657
10.021233 -82.72757 18.866278
9.921095 -84.688408 17.171816
9.269831 -86.808395 15.49091
8.219166 -89.09446 13.8475
9.718979 -86.797546 13.117979
10.160742 -86.893951 10.877611
10.530489 -87.004349 8.773277
10.761808 -87.009613 6.802726
11.82971 -84.717972 8.097502
12.807673 -82.413666 7.40766
13.392836 -80.053421 6.72268
11.653576 -112.034042 27.752274
12.084692 -113.642143 24.561745
4.018446 -90.109077 -6.546137
3.372395 -93.79866 -7.079109
4.576393 -91.170601 -8.382732
5.786589 -92.077751 -10.250731
7.558622 -92.760239 -12.048914
13.78348 -71.373878 -2.69133
13.034046 -72.359116 -3.68811
13.533152 -69.099518 -4.222702
13.3388 -66.58255 -5.676107
13.28521 -63.905117 -7.029369
13.334946 -60.431179 -5.823385
13.538826 -60.846622 -7.061924
13.449326 -61.158653 -8.256298
13.890337 -58.435661 -9.335798
14.640989 -55.819256 -10.261021
15.701649 -53.372261 -11.045338
5.987562 -114.231911 24.457912
4.541676 -115.118088 21.861588
4.263161 -113.041481 25.017429
2.912912 -111.470589 25.283159
1.977856 -109.566505 25.240952
4.017124 -107.366707 30.983761
2.612831 -107.409439 27.999077
1.478706 -107.385483 24.905861
1.414503 -104.988823 24.319002
1.763971 -102.439789 23.539516
2.485424 -99.800407 22.634258
11.667635 -78.156342 12.485521
13.402561 -108.585823 32.856789
11.702871 -107.178734 37.478149
11.529446 -108.829285 34.300835
11.484236 -110.437538 31.027264
9.541203 -111.957001 29.039656
7.678627 -113.199249 26.854393
11.368021 -77.77449 -12.206642
10.807255 -81.738159 -12.194639
13.432476 -78.14299 -13.440819
15.794797 -78.286957 -14.628498
18.290649 -78.157974 -15.788382
21.17284 -70.155449 -17.011362
21.008743 -73.970932 -16.894323
9.063496 -98.785606 44.481102
8.564241 -99.149055 41.986423
8.435499 -97.052574 43.409096
7.8794 -95.085442 42.153618
7.348665 -92.959129 40.802914
9.055279 -96.338867 51.286652
9.308653 -97.367554 49.098419
9.317394 -98.189156 46.842842
4.558155 -95.809082 1.206823
3.318495 -97.826485 -0.671345
4.189539 -94.680305 -0.38895
3.897465 -93.142715 -1.90234
3.841341 -91.221489 -3.372385
6.31192 -86.527443 -2.048807
4.952444 -87.758453 -3.332134
4.152798 -88.957108 -4.839354
4.9091 -86.39257 -6.330673
6.127539 -83.565285 -7.855024
7.770422 -80.506004 -9.400389
11.888533 -73.192871 -4.602966
10.595169 -73.921288 -5.487051
9.422367 -74.596474 -6.400364
11.211327 -68.055603 -8.69368
9.955336 -71.61573 -8.059738
8.613678 -75.261353 -7.393587
8.350473 -75.935822 -8.491791
8.729515 -76.609055 -9.686598
9.758505 -77.241516 -10.941397
11.98686 -73.799133 -12.451828
14.339464 -70.210251 -13.917055
16.70108 -66.512054 -15.3416
15.321262 -62.594326 -14.817795
16.976421 -62.736992 -15.796865
18.966911 -62.747322 -16.749128
21.050074 -58.962517 -18.175417
22.887154 -55.204849 -19.657393
9.150753 -50.68652 -2.202934
3.397961 -115.904007 19.096224
2.595142 -116.612816 16.203505
2.150434 -117.243568 13.228168
0.525629 -112.492302 16.149469
1.106327 -115.158875 13.19822
2.05094 -117.776649 10.211599
2.099564 -113.477669 1.56463
1.95612 -110.773079 1.802267
1.210091 -107.952667 7.084181
1.705326 -108.045578 4.516973
2.060305 -107.982246 2.080703
2.410133 -105.135513 2.373048
2.999653 -102.261917 2.640475
3.818533 -99.387688 2.83629
7.867287 -99.283676 39.347656
7.040302 -99.20649 36.569775
6.159559 -98.947586 33.672684
7.275431 -94.445335 34.036995
6.495386 -96.494522 32.434727
5.300972 -98.55024 30.688915
4.534891 -98.070297 27.660778
3.923494 -97.573311 24.636816
3.517496 -97.128143 21.667215
8.053608 -86.504288 27.636936
7.997351 -88.352051 25.99651
8.944983 -85.397148 22.315462
8.230999 -87.791672 23.265406
7.331318 -90.28318 24.279009
6.186977 -92.314491 22.509996
4.778793 -94.474037 20.691086
3.349241 -96.796242 18.797987
3.421959 -96.618233 16.064873
3.699539 -96.60096 13.489043
4.102879 -96.709244 11.07645
6.961134 -91.545532 12.226169
5.680735 -94.147324 10.574906
4.520969 -96.866875 8.82156
4.835949 -96.967171 6.714516
4.956825 -96.891808 4.747017
4.850515 -96.532417 2.913518
6.06971 -93.704552 2.834467
7.43511 -90.898857 2.579584
8.885311 -88.097176 2.152826
10.806782 -86.78669 4.958284
10.653673 -86.230957 3.22552
10.336044 -85.272896 1.581878
11.683119 -82.398308 0.913405
12.81213 -79.45282 0.205173
13.614492 -76.429573 -0.482485
12.384439 -78.063843 10.242024
13.020103 -77.913193 8.098582
13.540014 -77.607903 6.063081
11.882341 -73.029541 6.85565
13.234896 -75.058914 5.450236
13.9104 -77.055977 4.135717
14.108797 -76.184433 2.308861
14.13282 -74.949181 0.569772
14.007088 -73.33902 -1.093899
13.950823 -70.20816 -1.582958
13.462547 -67.076385 -1.916433
12.616789 -63.989433 -2.076269
10.953352 -64.280991 0.769003
11.283947 -62.72736 -0.718756
11.533964 -60.995472 -2.061695
10.361128 -58.144783 -1.893421
9.252663 -55.494312 -1.619255
16.341927 -51.192516 -10.226526
17.039124 -51.1287 -11.723143
17.697672 -51.012829 -13.225504
18.398287 -50.844749 -14.711592
19.211853 -50.617737 -16.160036
2.466993 -99.734489 -2.797476
2.094252 -101.496254 -5.119896
2.26232 -103.059074 -7.545086
2.985874 -97.431099 -7.883081
2.862503 -100.966614 -8.875204
10.331547 -85.648613 -12.447878
9.974274 -89.467224 -12.962536
9.771103 -93.154549 -13.699902
15.007009 -89.498642 -15.756468
12.290279 -93.211815 -15.169601
9.75655 -96.670006 -14.592075
26.533031 -52.279688 -22.266138
25.853207 -54.227566 -21.410206
25.557423 -52.677992 -21.641044
5.833343 -116.719479 20.006646
6.243294 -117.712288 18.459834
6.888134 -117.187092 19.737558
7.590166 -116.522049 20.901547
8.365299 -115.928696 22.082057
7.253317 -115.60093 22.46488
6.888134 -117.187092 19.737558
7.590166 -116.522049 20.901547
13.796975 -102.646114 43.35755
13.124121 -102.830421 43.808472
14.007193 -103.456516 41.815935
13.796975 -102.646114 43.35755
13.318854 -104.535774 40.89986
14.053468 -104.298786 40.299837
14.007193 -103.456516 41.815935
2.684597 -107.884949 -9.049601
2.587522 -108.684708 -8.233144
2.361467 -107.136505 -7.74777
2.929326 -106.952247 -9.788919
2.684597 -107.884949 -9.049601
25.712363 -66.969059 -19.513295
26.721778 -64.64188 -20.290101
7.12183 -93.825565 46.377212
6.86001 -93.701721 47.548153
6.637818 -93.466995 48.703316
6.319572 -93.250519 49.85212
6.86001 -93.701721 47.548153
7.306907 -94.463898 48.186733
6.637818 -93.466995 48.703316
14.671532 -109.779293 28.744343
15.597566 -108.665302 29.585823
14.49241 -109.021042 30.382946
7.47575 -98.127872 -13.447
6.500702 -99.610462 -13.025353
6.455067 -97.880234 -12.5199
26.472086 -59.340208 -20.740026
25.465267 -59.761079 -20.103043
26.3174 -57.572083 -20.949909
27.474156 -58.881274 -21.405409
26.622022 -61.07027 -20.558543
26.472086 -59.340208 -20.740026
28.378166 -58.334289 -22.137171
27.474156 -58.881274 -21.405409
7.045374 -89.046459 34.8638
7.249054 -90.213242 35.523923
7.604484 -88.291641 30.896558
7.38277 -88.55981 32.214869
7.704254 -88.010036 29.524943
7.692236 -89.220951 30.120154
7.604484 -88.291641 30.896558
10.138183 -81.649956 18.451723
9.762094 -81.819241 19.695222
9.879044 -80.741627 19.280667
11.551796 -115.30719 22.077848
10.730753 -116.211586 21.128369
14.277778 -106.691754 35.379421
14.182194 -105.911407 37.060361
13.385852 -107.796433 34.51294
14.294487 -107.481144 33.72327
14.277778 -106.691754 35.379421
2.471776 -110.594296 -5.401387
2.486467 -111.020127 -4.349781
2.27973 -109.579914 -4.001935
22.180712 -73.651336 -17.497537
22.264077 -71.796185 -17.522699
23.436045 -71.476589 -18.125913
20.889559 -75.846077 -16.931165
22.180712 -73.651336 -17.497537
7.771753 -94.999443 51.552006
7.003286 -94.05188 52.134766
7.264667 -94.51429 51.02512
8.544207 -95.90036 50.864506
8.282826 -95.43795 51.974152
7.771753 -94.999443 51.552006
23.559408 -51.817831 -20.62622
23.664244 -53.361553 -20.439747
22.782318 -53.661127 -19.843866
1.713336 -116.87009 8.673831
2.147962 -117.979568 8.700926
1.616314 -116.667171 10.184503
2.315765 -117.237331 4.211823
2.077068 -117.147084 5.677744
1.75138 -115.954895 5.693307
2.55706 -117.267036 2.743928
2.315765 -117.237331 4.211823
2.23982 -116.053967 2.804901
2.55706 -117.267036 2.743928
8.273374 -86.215294 26.301865
8.088044 -85.328797 27.108425
8.30781 -85.039803 25.773354
11.797581 -77.034096 10.996357
12.026037 -78.110093 11.363772
11.43918 -77.080345 12.118105
11.310237 -71.721779 6.596829
10.941505 -72.016655 7.58861
9.958426 -63.441971 1.496151
10.734468 -64.954384 1.574284
10.61775 -61.239241 -0.699156
10.38775 -61.987871 -0.008392
9.721554 -60.499752 0.011207
8.398079 -54.835755 -0.96433
8.953757 -56.191282 -1.072275
8.809029 -54.302381 -1.472315
8.398079 -54.835755 -0.96433
9.862419 -50.718249 -2.774974
9.282872 -49.734473 -2.28026
17.034939 -50.202604 -10.494597
16.540147 -50.225032 -9.722415
17.383538 -50.170696 -11.242905
16.690525 -51.160608 -10.974835
17.034939 -50.202604 -10.494597
18.541637 -49.950209 -13.585591
18.144204 -50.051562 -12.785346
18.891944 -49.866169 -14.328636
18.04798 -50.928789 -13.968548
18.541637 -49.950209 -13.585591
20.114166 -49.419443 -16.633856
19.693663 -49.60906 -15.850168
19.699895 -50.467621 -16.858431
20.114166 -49.419443 -16.633856
3.428956 -101.496456 -9.996552
3.40156 -99.75 -9.459184
3.968013 -100.279843 -10.580533
2.931843 -102.663334 -9.413926
3.428956 -101.496456 -9.996552
16.343457 -89.240563 -16.374655
16.397828 -87.520363 -16.089327
12.333115 -94.889889 -15.595467
13.638482 -93.05597 -15.821485
11.06625 -96.618985 -15.306704
11.023415 -94.940911 -14.880838
12.333115 -94.889889 -15.595467
9.859036 -98.322159 -15.072716
11.06625 -96.618985 -15.306704
26.069698 -55.911108 -21.174112
25.094091 -56.309412 -20.549019
25.853207 -54.227566 -21.410206
26.3174 -57.572083 -20.949909
26.069698 -55.911108 -21.174112
5.673903 -118.304474 17.199431
6.243294 -117.712288 18.459834
4.697915 -117.713692 17.368311
5.673903 -118.304474 17.199431
9.510089 -116.100182 21.579607
9.17324 -115.179062 23.14294
8.365299 -115.928696 22.082057
10.730753 -116.211586 21.128369
9.510089 -116.100182 21.579607
14.180187 -105.096908 38.667698
14.053468 -104.298786 40.299837
13.367136 -106.192543 37.776426
14.182194 -105.911407 37.060361
14.180187 -105.096908 38.667698
2.810033 -114.360703 -2.489419
2.674911 -114.573506 -1.195197
2.899199 -114.128605 -3.714839
2.810033 -114.360703 -2.489419
2.535664 -113.035649 -2.264706
2.969796 -113.773495 -4.915062
2.899199 -114.128605 -3.714839
2.493207 -109.427936 -7.353266
2.49353 -110.036846 -6.414379
2.264716 -108.545174 -5.992427
2.493207 -109.427936 -7.353266
2.587522 -108.684708 -8.233144
24.600572 -69.204087 -18.794185
24.631202 -67.386409 -18.870184
25.712363 -66.969059 -19.513295
23.436045 -71.476589 -18.125913
24.600572 -69.204087 -18.794185
7.255486 -93.96682 45.183129
7.662756 -94.839878 45.837486
7.12183 -93.825565 46.377212
6.908023 -92.992149 44.515595
7.44895 -94.006462 43.975868
7.255486 -93.96682 45.183129
6.790458 -93.89795 50.474888
6.319572 -93.250519 49.85212
7.558924 -94.845513 49.892128
7.264667 -94.51429 51.02512
6.790458 -93.89795 50.474888
8.624643 -84.761605 24.477496
8.30781 -85.039803 25.773354
11.170577 -74.796856 10.298386
11.593156 -75.908123 10.651623
11.568058 -74.639248 9.228235
11.170577 -74.796856 10.298386
11.911126 -74.495953 8.17697
12.318656 -75.668602 8.501292
11.568058 -74.639248 9.228235
11.937542 -71.013889 4.67757
11.617425 -71.406456 5.621821
11.058249 -70.02145 5.393757
8.989893 -59.003439 0.037078
9.721554 -60.499752 0.011207
9.303202 -58.319687 -0.602426
8.989893 -59.003439 0.037078
16.475428 -107.385719 30.382511
16.264928 -106.627887 32.050488
16.475428 -107.385719 30.382511
15.597566 -108.665302 29.585823
4.737714 -100.694561 -11.608077
3.968013 -100.279843 -10.580533
4.710318 -98.948104 -11.070709
5.581795 -101.058926 -12.640057
4.737714 -100.694561 -11.608077
5.581795 -101.058926 -12.640057
6.500702 -99.610462 -13.025353
10.883878 -98.327839 49.793304
10.244695 -97.47974 50.747116
11.338731 -99.248196 48.86264
10.883878 -98.327839 49.793304
10.779188 -99.074318 48.758987
11.808159 -100.110928 47.763759
11.338731 -99.248196 48.86264
12.072041 -101.037059 46.686798
11.808159 -100.110928 47.763759
11.497923 -100.920807 46.751362
12.368734 -101.907139 45.437692
12.072041 -101.037059 46.686798
12.461996 -102.82386 44.209536
12.368734 -101.907139 45.437692
11.855068 -102.763661 44.446243
12.610454 -103.686943 42.817022
13.124121 -102.830421 43.808472
12.461996 -102.82386 44.209536
27.662329 -62.371857 -21.107416
26.721778 -64.64188 -20.290101
26.683542 -62.881359 -20.406609
28.499735 -60.017235 -21.989506
27.662329 -62.371857 -21.107416
28.499735 -60.017235 -21.989506
28.378166 -58.334289 -22.137171
7.309241 -91.417946 36.17833
7.484025 -92.581421 36.854388
7.29644 -91.585388 37.52466
7.43664 -91.209274 34.853651
7.309241 -91.417946 36.17833
7.249054 -90.213242 35.523923
7.274763 -88.810817 33.568607
7.045374 -89.046459 34.8638
7.484459 -89.753563 32.845507
7.274763 -88.810817 33.568607
7.38277 -88.55981 32.214869
9.445847 -82.008484 20.966912
9.062348 -82.234493 22.223425
9.704985 -82.916813 20.137968
9.445847 -82.008484 20.966912
9.762094 -81.819241 19.695222
10.343341 -68.651169 5.183919
11.058249 -70.02145 5.393757
10.670939 -68.19247 4.274155
10.343341 -68.651169 5.183919
10.927846 -67.680855 3.378784
11.635274 -69.117267 3.554134
10.670939 -68.19247 4.274155
11.203882 -67.116715 2.519164
10.927846 -67.680855 3.378784
12.792476 -111.856392 27.032336
13.748876 -110.906887 27.926932
12.609976 -111.084538 28.64687
13.008035 -112.660442 25.437072
12.792476 -111.856392 27.032336
11.869134 -112.838093 26.15701
13.308182 -113.435825 23.899273
13.008035 -112.660442 25.437072
12.435126 -114.452988 23.038475
11.201362 -114.496346 23.601118
11.551796 -115.30719 22.077848
13.308182 -113.435825 23.899273
12.435126 -114.452988 23.038475
17.901608 -83.730873 -16.215364
19.269516 -81.637177 -16.618847
9.758211 -79.6819 18.838532
9.879044 -80.741627 19.280667
10.17391 -79.525158 17.621648
9.758211 -79.6819 18.838532
10.540344 -79.421566 16.40219
10.621567 -80.46875 16.817709
10.17391 -79.525158 17.621648
10.942927 -79.320022 15.206002
10.540344 -79.421566 16.40219
11.295224 -79.275154 14.021854
11.340298 -80.32029 14.414105
10.942927 -79.320022 15.206002
11.282744 -78.215615 13.649636
11.680115 -79.215881 12.857739
11.295224 -79.275154 14.021854
11.031254 -77.169559 13.257784
11.282744 -78.215615 13.649636
11.43918 -77.080345 12.118105
11.031254 -77.169559 13.257784
15.302428 -107.141758 32.907089
16.264928 -106.627887 32.050488
14.410502 -108.246437 32.040608
15.302428 -107.141758 32.907089
14.294487 -107.481144 33.72327
2.651671 -112.419029 -4.61968
2.459626 -111.404648 -3.220228
2.486467 -111.020127 -4.349781
2.969796 -113.773495 -4.915062
2.651671 -112.419029 -4.61968
2.471776 -110.594296 -5.401387
2.49353 -110.036846 -6.414379
19.530513 -77.939598 -16.378195
19.649696 -76.064453 -16.341352
20.889559 -75.846077 -16.931165
19.392472 -79.820442 -16.488276
18.152608 -80.038818 -15.898463
19.530513 -77.939598 -16.378195
19.269516 -81.637177 -16.618847
19.392472 -79.820442 -16.488276
6.510563 -92.027683 43.821222
6.908023 -92.992149 44.515595
6.755469 -91.988663 42.613237
6.510563 -92.027683 43.821222
6.879058 -91.952331 41.360527
7.225075 -92.995461 42.055624
6.755469 -91.988663 42.613237
7.077283 -91.849464 40.113455
6.879058 -91.952331 41.360527
7.138563 -91.744331 38.812357
7.409944 -92.853996 39.501816
7.077283 -91.849464 40.113455
7.29644 -91.585388 37.52466
7.138563 -91.744331 38.812357
8.832078 -95.733448 52.369221
8.282826 -95.43795 51.974152
9.610167 -96.572193 51.545616
8.832078 -95.733448 52.369221
9.689807 -97.246414 50.488152
10.244695 -97.47974 50.747116
9.610167 -96.572193 51.545616
24.659467 -53.072063 -21.003607
23.882377 -54.91536 -20.221252
23.664244 -53.361553 -20.439747
25.557423 -52.677992 -21.641044
24.659467 -53.072063 -21.003607
8.517144 -50.822851 -1.683854
9.109981 -51.481104 -2.135286
8.476373 -51.617435 -1.616206
8.479288 -49.777222 -1.686987
8.517144 -50.822851 -1.683854
9.282872 -49.734473 -2.28026
8.479288 -49.777222 -1.686987
8.476373 -51.617435 -1.616206
8.717302 -52.69307 -1.696506
3.802644 -117.043358 17.551962
4.697915 -117.713692 17.368311
4.293232 -116.574341 18.912573
3.401235 -117.397762 16.105602
3.802644 -117.043358 17.551962
2.996551 -116.258411 17.649864
3.080615 -117.811008 14.680089
3.401235 -117.397762 16.105602
2.858261 -118.126385 13.192421
3.080615 -117.811008 14.680089
2.372788 -116.928192 14.715836
2.711158 -118.474297 11.720705
2.858261 -118.126385 13.192421
2.661411 -118.740837 10.212421
2.711158 -118.474297 11.720705
2.100687 -117.510109 11.719883
2.674146 -119.008358 8.712613
2.661411 -118.740837 10.212421
2.674146 -119.008358 8.712613
2.147962 -117.979568 8.700926
1.878833 -117.023567 7.174741
1.713336 -116.87009 8.673831
1.347185 -115.71117 8.658318
1.878833 -117.023567 7.174741
2.077068 -117.147084 5.677744
2.053875 -114.775002 2.83781
2.23982 -116.053967 2.804901
1.804134 -114.766178 4.260295
2.294563 -114.770229 1.473523
2.053875 -114.775002 2.83781
1.858877 -113.482441 2.928918
2.501444 -114.678467 0.106761
2.294563 -114.770229 1.473523
2.27303 -113.372708 0.262672
2.674911 -114.573506 -1.195197
2.501444 -114.678467 0.106761
7.771185 -85.615555 28.401027
8.088044 -85.328797 27.108425
7.835055 -86.792507 28.969141
7.771185 -85.615555 28.401027
7.922808 -87.721817 28.192737
7.704254 -88.010036 29.524943
7.835055 -86.792507 28.969141
9.072441 -83.351483 22.698927
8.746052 -82.479919 23.512695
9.062348 -82.234493 22.223425
8.850564 -84.497028 23.151829
9.072441 -83.351483 22.698927
9.16686 -84.251602 21.862559
8.719062 -85.661724 23.641129
8.624643 -84.761605 24.477496
8.850564 -84.497028 23.151829
12.180014 -76.93787 9.897291
11.797581 -77.034096 10.996357
11.593156 -75.908123 10.651623
11.521434 -73.24807 7.879781
10.941505 -72.016655 7.58861
12.272032 -74.277424 7.152838
11.911126 -74.495953 8.17697
11.521434 -73.24807 7.879781
12.18953 -72.714218 5.880641
11.310237 -71.721779 6.596829
11.617425 -71.406456 5.621821
11.389392 -66.47454 1.674041
12.077691 -67.963478 1.81364
11.203882 -67.116715 2.519164
11.608277 -65.801147 0.86876
11.389392 -66.47454 1.674041
10.734468 -64.954384 1.574284
10.222453 -62.764687 0.735487
9.958426 -63.441971 1.496151
11.11865 -63.504176 0.025124
10.222453 -62.764687 0.735487
10.38775 -61.987871 -0.008392
9.507989 -57.516517 -1.209358
10.156341 -58.947952 -1.286488
9.303202 -58.319687 -0.602426
9.806895 -56.819547 -1.756338
9.507989 -57.516517 -1.209358
8.953757 -56.191282 -1.072275
9.080307 -53.603808 -1.901666
9.523941 -54.795738 -2.048606
8.809029 -54.302381 -1.472315
8.717302 -52.69307 -1.696506
9.432215 -53.186426 -2.272798
9.080307 -53.603808 -1.901666
14.671532 -109.779293 28.744343
13.748876 -110.906887 27.926932
10.389411 -51.647097 -3.187698
9.677745 -51.615368 -2.615658
9.862419 -50.718249 -2.774974
11.03951 -51.786808 -3.782664
10.854836 -52.683927 -3.623347
10.389411 -51.647097 -3.187698
11.763822 -51.861489 -4.408938
11.03951 -51.786808 -3.782664
12.372321 -51.97798 -5.05347
12.113433 -52.94013 -4.862846
11.763822 -51.861489 -4.408938
13.046479 -52.051029 -5.71845
12.372321 -51.97798 -5.05347
13.562385 -52.135407 -6.39107
13.237839 -53.140999 -6.179998
13.046479 -52.051029 -5.71845
14.150479 -52.188114 -7.085358
13.562385 -52.135407 -6.39107
14.558722 -52.239553 -7.775441
14.161989 -53.276815 -7.542701
14.150479 -52.188114 -7.085358
15.050116 -52.264544 -8.493296
14.558722 -52.239553 -7.775441
15.363408 -52.286938 -9.194062
14.883525 -53.350649 -8.93355
15.050116 -52.264544 -8.493296
15.935963 -51.196674 -9.490167
16.540147 -50.225032 -9.722415
15.769372 -52.28278 -9.930421
15.363408 -52.286938 -9.194062
15.935963 -51.196674 -9.490167
17.81493 -50.109497 -12.034166
17.383538 -50.170696 -11.242905
17.368398 -51.070765 -12.474324
17.81493 -50.109497 -12.034166
18.144204 -50.051562 -12.785346
19.286879 -49.722566 -15.125946
18.891944 -49.866169 -14.328636
18.80507 -50.731243 -15.435814
19.286879 -49.722566 -15.125946
19.693663 -49.60906 -15.850168
19.289609 -51.686064 -17.011333
18.801567 -51.83618 -16.312939
19.699895 -50.467621 -16.858431
19.889647 -51.585398 -17.62417
18.991318 -52.953957 -17.078678
19.289609 -51.686064 -17.011333
20.469496 -51.388336 -18.296746
19.889647 -51.585398 -17.62417
21.191738 -51.237746 -18.885539
20.313598 -52.7027 -18.280308
20.469496 -51.388336 -18.296746
21.858736 -50.981663 -19.541125
21.191738 -51.237746 -18.885539
22.679558 -50.764311 -20.121744
21.856661 -52.334757 -19.44972
21.858736 -50.981663 -19.541125
23.415091 -50.437105 -20.77734
22.679558 -50.764311 -20.121744
23.559408 -51.817831 -20.62622
23.415091 -50.437105 -20.77734
2.631752 -103.709564 -8.748867
2.562411 -102.012844 -8.210145
2.931843 -102.663334 -9.413926
2.729863 -105.3484 -9.258437
2.360431 -104.69791 -8.054656
2.631752 -103.709564 -8.748867
2.929326 -106.952247 -9.788919
2.729863 -105.3484 -9.258437
16.486843 -85.722084 -15.80048
16.599804 -83.910873 -15.593659
17.901608 -83.730873 -16.215364
15.096024 -87.700363 -15.467621
16.486843 -85.722084 -15.80048
16.397828 -87.520363 -16.089327
14.996847 -91.199383 -16.114918
16.343457 -89.240563 -16.374655
13.648644 -91.355229 -15.463034
14.996847 -91.199383 -16.114918
13.638482 -93.05597 -15.821485
8.638967 -98.264054 -14.272263
7.47575 -98.127872 -13.447
8.593333 -96.533825 -13.766811
8.638967 -98.264054 -14.272263
9.859036 -98.322159 -15.072716
3 0 131 129
3 1 134 132
3 1 137 135
3 1 132 137
3 2 141 139
3 516 515 142
3 514 515 516
3 3 146 144
3 5 149 147
3 5 151 149
3 6 517 519
3 517 152 518
3 517 518 519
3 7 155 153
3 7 157 155
3 8 160 158
3 8 162 160
3 8 164 162
3 6 520 522
3 522 521 165
3 520 521 522
3 6 523 524
3 4 169 167
3 9 172 170
3 11 175 173
3 11 177 175
3 12 180 178
3 14 183 181
3 14 185 183
3 15 525 526
3 15 527 528
3 15 529 531
3 529 186 530
3 529 530 531
3 12 189 187
3 12 178 189
3 17 192 191
3 18 532 534
3 534 533 193
3 532 533 534
3 18 535 536
3 19 196 194
3 538 537 197
3 540 539 199
3 541 201 542
3 543 199 544
3 545 544 201
3 543 544 545
3 22 205 203
3 24 208 206
3 24 210 208
3 10 213 211
3 25 216 214
3 25 218 216
3 25 220 218
3 26 223 221
3 26 225 223
3 13 228 226
3 27 231 229
3 27 233 231
3 27 235 233
3 28 238 236
3 28 240 238
3 21 243 241
3 29 246 244
3 29 248 246
3 30 251 249
3 30 253 251
3 30 255 253
3 31 258 256
3 31 260 258
3 31 262 260
3 32 265 263
3 32 267 265
3 33 271 269
3 33 273 271
3 33 275 273
3 16 546 548
3 548 547 276
3 546 547 548
3 23 279 277
3 34 282 280
3 34 549 551
3 551 550 282
3 549 550 551
3 20 285 283
3 35 288 286
3 37 289 130
3 37 290 289
3 38 293 291
3 40 294 133
3 40 295 294
3 41 297 296
3 42 298 136
3 42 299 298
3 42 301 299
3 38 302 138
3 38 291 302
3 44 305 303
3 46 306 140
3 46 307 306
3 47 310 308
3 552 311 553
3 554 553 143
3 552 553 554
3 555 312 556
3 557 556 311
3 555 556 557
3 559 558 312
3 49 315 313
3 51 316 145
3 51 317 316
3 52 320 318
3 54 321 148
3 54 322 321
3 54 324 322
3 56 325 150
3 56 326 325
3 57 329 327
3 59 330 154
3 59 331 330
3 59 333 331
3 61 334 156
3 61 335 334
3 560 337 561
3 562 338 563
3 564 339 565
3 566 565 338
3 564 565 566
3 63 567 569
3 567 341 568
3 567 568 569
3 65 342 159
3 65 343 342
3 65 345 343
3 67 346 161
3 67 347 346
3 67 349 347
3 69 350 163
3 69 351 350
3 70 353 352
3 571 570 166
3 71 356 354
3 73 357 168
3 73 358 357
3 74 361 359
3 76 362 171
3 76 363 362
3 36 364 287
3 77 365 174
3 77 366 365
3 77 367 366
3 78 368 176
3 78 369 368
3 79 372 370
3 81 373 179
3 81 374 373
3 39 375 292
3 82 376 182
3 82 377 376
3 82 378 377
3 83 379 184
3 83 380 379
3 84 572 573
3 84 574 576
3 574 382 575
3 574 575 576
3 43 383 300
3 85 384 188
3 85 385 384
3 85 386 385
3 79 387 190
3 79 370 387
3 45 577 579
3 579 578 304
3 577 578 579
3 86 390 388
3 88 391 195
3 88 392 391
3 48 393 309
3 580 394 581
3 582 581 198
3 580 581 582
3 584 583 394
3 89 397 395
3 91 398 200
3 91 399 398
3 92 585 587
3 585 586 587
3 92 588 590
3 588 400 589
3 588 589 590
3 92 401 400
3 89 402 202
3 89 395 402
3 93 405 403
3 95 406 204
3 95 407 406
3 50 408 314
3 96 409 207
3 96 410 409
3 96 411 410
3 97 412 209
3 97 413 412
3 75 414 360
3 98 415 212
3 98 416 415
3 53 417 319
3 99 418 215
3 99 419 418
3 99 420 419
3 100 421 217
3 100 422 421
3 100 423 422
3 101 424 219
3 101 425 424
3 55 426 323
3 102 427 222
3 102 428 427
3 102 429 428
3 103 430 224
3 103 591 593
3 593 592 430
3 591 592 593
3 80 432 371
3 104 433 227
3 104 434 433
3 58 435 328
3 105 436 230
3 105 437 436
3 105 594 596
3 596 595 437
3 594 595 596
3 106 597 599
3 599 598 232
3 597 598 599
3 106 600 601
3 106 602 603
3 107 438 234
3 107 439 438
3 60 440 332
3 108 441 237
3 108 442 441
3 108 443 442
3 109 444 239
3 109 445 444
3 90 446 396
3 110 447 242
3 110 448 447
3 62 449 336
3 111 450 245
3 111 451 450
3 111 452 451
3 112 453 247
3 112 454 453
3 113 604 606
3 604 455 605
3 604 605 606
3 113 456 455
3 64 457 340
3 114 458 250
3 114 459 458
3 114 460 459
3 115 461 252
3 115 462 461
3 115 463 462
3 116 464 254
3 116 465 464
3 66 466 344
3 117 467 257
3 117 468 467
3 117 469 468
3 118 470 259
3 118 471 470
3 118 472 471
3 119 473 261
3 119 474 473
3 68 475 348
3 120 476 264
3 120 477 476
3 120 478 477
3 121 479 266
3 121 480 479
3 607 481 608
3 609 608 381
3 607 608 609
3 122 482 268
3 122 483 482
3 610 484 611
3 123 485 270
3 123 486 485
3 123 487 486
3 124 488 272
3 124 489 488
3 124 490 489
3 125 491 274
3 125 492 491
3 612 493 613
3 126 614 616
3 614 494 615
3 614 615 616
3 126 495 494
3 126 496 495
3 617 497 618
3 620 619 497
3 622 621 431
3 623 498 624
3 625 499 626
3 627 626 498
3 625 626 627
3 628 500 629
3 630 501 631
3 632 631 500
3 630 631 632
3 633 502 634
3 636 635 502
3 94 503 404
3 127 504 278
3 127 505 504
3 72 506 355
3 637 507 638
3 639 638 281
3 637 638 639
3 641 640 507
3 87 508 389
3 128 509 284
3 128 510 509
3 642 511 643
3 644 512 645
3 646 513 647
3 648 647 512
3 646 647 648
3 650 649 513
3 129 130 35
3 131 130 129
3 131 37 130
3 132 133 38
3 134 133 132
3 134 40 133
3 135 136 41
3 137 136 135
3 137 42 136
3 137 138 42
3 132 138 137
3 132 38 138
3 139 140 44
3 141 140 139
3 141 46 140
3 142 143 47
3 651 143 652
3 653 652 142
3 651 652 653
3 655 654 143
3 144 145 49
3 146 145 144
3 146 51 145
3 147 148 52
3 149 148 147
3 149 54 148
3 149 150 54
3 151 150 149
3 151 56 150
3 152 656 657
3 152 658 659
3 153 154 57
3 155 154 153
3 155 59 154
3 155 156 59
3 157 156 155
3 157 61 156
3 158 159 63
3 160 159 158
3 160 65 159
3 160 161 65
3 162 161 160
3 162 67 161
3 162 163 67
3 164 163 162
3 164 69 163
3 165 166 70
3 660 166 661
3 662 661 165
3 660 661 662
3 664 663 166
3 167 168 71
3 169 168 167
3 169 73 168
3 170 171 74
3 172 171 170
3 172 76 171
3 173 174 36
3 175 174 173
3 175 77 174
3 175 176 77
3 177 176 175
3 177 78 176
3 178 179 79
3 180 179 178
3 180 81 179
3 181 182 39
3 183 182 181
3 183 82 182
3 183 184 82
3 185 184 183
3 185 83 184
3 186 665 666
3 186 667 669
3 667 84 668
3 667 668 669
3 187 188 43
3 189 188 187
3 189 85 188
3 189 190 85
3 178 190 189
3 178 79 190
3 191 670 671
3 192 672 674
3 674 673 191
3 672 673 674
3 192 675 676
3 193 677 679
3 679 678 45
3 677 678 679
3 681 680 193
3 194 195 86
3 196 195 194
3 196 88 195
3 197 198 48
3 682 198 683
3 684 683 197
3 682 683 684
3 686 685 198
3 199 200 89
3 687 200 688
3 689 688 199
3 687 688 689
3 690 91 691
3 692 691 200
3 690 691 692
3 201 693 694
3 201 695 697
3 695 92 696
3 695 696 697
3 201 202 92
3 199 202 201
3 199 89 202
3 203 204 93
3 205 204 203
3 205 95 204
3 206 207 50
3 208 207 206
3 208 96 207
3 208 209 96
3 210 209 208
3 210 97 209
3 211 212 75
3 213 212 211
3 213 98 212
3 214 215 53
3 216 215 214
3 216 99 215
3 216 217 99
3 218 217 216
3 218 100 217
3 218 219 100
3 220 219 218
3 220 101 219
3 221 222 55
3 223 222 221
3 223 102 222
3 223 224 102
3 225 224 223
3 225 103 224
3 226 227 80
3 228 227 226
3 228 104 227
3 229 230 58
3 231 230 229
3 231 105 230
3 231 232 105
3 233 232 231
3 233 106 232
3 233 234 106
3 235 234 233
3 235 107 234
3 236 237 60
3 238 237 236
3 238 108 237
3 238 239 108
3 240 239 238
3 240 109 239
3 241 242 90
3 243 242 241
3 243 110 242
3 244 245 62
3 246 245 244
3 246 111 245
3 246 247 111
3 248 247 246
3 248 112 247
3 698 113 699
3 249 250 64
3 251 250 249
3 251 114 250
3 251 252 114
3 253 252 251
3 253 115 252
3 253 254 115
3 255 254 253
3 255 116 254
3 256 257 66
3 258 257 256
3 258 117 257
3 258 259 117
3 260 259 258
3 260 118 259
3 260 261 118
3 262 261 260
3 262 119 261
3 263 264 68
3 265 264 263
3 265 120 264
3 265 266 120
3 267 266 265
3 267 121 266
3 700 268 701
3 702 268 703
3 704 122 705
3 706 705 268
3 704 705 706
3 269 707 709
3 707 270 708
3 707 708 709
3 271 270 269
3 271 123 270
3 271 272 123
3 273 272 271
3 273 124 272
3 273 274 124
3 275 274 273
3 275 125 274
3 710 126 711
3 713 712 126
3 276 714 715
3 717 716 276
3 277 278 94
3 279 278 277
3 279 127 278
3 280 281 72
3 282 281 280
3 282 718 720
3 720 719 281
3 718 719 720
3 282 721 722
3 724 723 282
3 283 284 87
3 285 284 283
3 285 128 284
3 286 287 9
3 288 287 286
3 288 36 287
3 130 288 35
3 289 288 130
3 289 36 288
3 289 173 36
3 290 173 289
3 290 11 173
3 291 292 12
3 293 292 291
3 293 39 292
3 133 293 38
3 294 293 133
3 294 39 293
3 294 181 39
3 295 181 294
3 295 14 181
3 296 725 726
3 297 727 729
3 729 728 296
3 727 728 729
3 297 730 731
3 136 297 41
3 298 297 136
3 298 732 734
3 734 733 297
3 732 733 734
3 298 735 736
3 299 737 739
3 739 738 298
3 737 738 739
3 299 740 742
3 740 15 741
3 740 741 742
3 299 300 15
3 301 300 299
3 301 43 300
3 138 301 42
3 302 301 138
3 302 43 301
3 302 187 43
3 291 187 302
3 291 12 187
3 303 304 17
3 305 304 303
3 305 45 304
3 140 305 44
3 306 305 140
3 306 45 305
3 306 193 45
3 307 193 306
3 307 18 193
3 308 309 19
3 310 309 308
3 310 48 309
3 143 310 47
3 311 310 143
3 311 48 310
3 311 197 48
3 312 197 311
3 312 743 745
3 745 744 197
3 743 744 745
3 312 746 747
3 749 748 312
3 313 314 22
3 315 314 313
3 315 50 314
3 145 315 49
3 316 315 145
3 316 50 315
3 316 206 50
3 317 206 316
3 317 24 206
3 318 319 10
3 320 319 318
3 320 53 319
3 148 320 52
3 321 320 148
3 321 53 320
3 321 214 53
3 322 214 321
3 322 25 214
3 322 323 25
3 324 323 322
3 324 55 323
3 150 324 54
3 325 324 150
3 325 55 324
3 325 221 55
3 326 221 325
3 326 26 221
3 327 328 13
3 329 328 327
3 329 58 328
3 154 329 57
3 330 329 154
3 330 58 329
3 330 229 58
3 331 229 330
3 331 27 229
3 331 332 27
3 333 332 331
3 333 60 332
3 156 333 59
3 334 333 156
3 334 60 333
3 334 236 60
3 335 236 334
3 335 28 236
3 750 336 751
3 752 751 21
3 750 751 752
3 337 753 755
3 753 336 754
3 753 754 755
3 337 62 336
3 756 337 757
3 338 758 760
3 758 337 759
3 758 759 760
3 338 62 337
3 338 244 62
3 339 244 338
3 339 29 244
3 761 340 762
3 341 763 765
3 763 340 764
3 763 764 765
3 341 64 340
3 159 341 63
3 342 341 159
3 342 64 341
3 342 249 64
3 343 249 342
3 343 30 249
3 343 344 30
3 345 344 343
3 345 66 344
3 161 345 65
3 346 345 161
3 346 66 345
3 346 256 66
3 347 256 346
3 347 31 256
3 347 348 31
3 349 348 347
3 349 68 348
3 163 349 67
3 350 349 163
3 350 68 349
3 350 263 68
3 351 263 350
3 351 32 263
3 766 269 767
3 768 269 769
3 770 33 771
3 772 771 269
3 770 771 772
3 774 773 33
3 352 775 777
3 777 776 16
3 775 776 777
3 353 778 780
3 780 779 352
3 778 779 780
3 353 781 782
3 166 353 70
3 783 353 784
3 785 784 166
3 783 784 785
3 787 786 353
3 354 355 23
3 356 355 354
3 356 72 355
3 168 356 71
3 357 356 168
3 357 72 356
3 357 280 72
3 358 280 357
3 358 34 280
3 789 788 20
3 359 360 3
3 361 360 359
3 361 75 360
3 171 361 74
3 362 361 171
3 362 75 361
3 362 211 75
3 363 211 362
3 363 10 211
3 287 172 9
3 364 172 287
3 364 76 172
3 174 364 36
3 365 364 174
3 365 76 364
3 365 363 76
3 366 363 365
3 366 10 363
3 366 318 10
3 367 318 366
3 367 52 318
3 176 367 77
3 368 367 176
3 368 52 367
3 368 147 52
3 369 147 368
3 369 5 147
3 370 371 6
3 372 371 370
3 372 80 371
3 179 372 79
3 373 372 179
3 373 80 372
3 373 226 80
3 374 226 373
3 374 13 226
3 292 180 12
3 375 180 292
3 375 81 180
3 182 375 39
3 376 375 182
3 376 81 375
3 376 374 81
3 377 374 376
3 377 13 374
3 377 327 13
3 378 327 377
3 378 57 327
3 184 378 82
3 379 378 184
3 379 57 378
3 379 153 57
3 380 153 379
3 380 7 153
3 790 63 791
3 792 63 793
3 794 158 795
3 796 795 63
3 794 795 796
3 797 158 798
3 799 8 800
3 801 800 158
3 799 800 801
3 802 381 803
3 804 803 8
3 802 803 804
3 805 381 806
3 808 807 381
3 809 276 810
3 382 811 813
3 811 276 812
3 811 812 813
3 382 16 276
3 300 186 15
3 383 186 300
3 383 84 186
3 188 383 43
3 384 383 188
3 384 84 383
3 384 382 84
3 385 382 384
3 385 16 382
3 385 352 16
3 386 352 385
3 386 70 352
3 190 386 85
3 387 386 190
3 387 70 386
3 387 165 70
3 370 165 387
3 370 6 165
3 304 192 17
3 814 192 815
3 816 815 304
3 814 815 816
3 818 817 192
3 820 819 45
3 388 389 4
3 390 389 388
3 390 87 389
3 195 390 86
3 391 390 195
3 391 87 390
3 391 283 87
3 392 283 391
3 392 20 283
3 309 196 19
3 393 196 309
3 393 88 196
3 198 393 48
3 394 393 198
3 394 88 393
3 394 392 88
3 821 392 822
3 823 822 394
3 821 822 823
3 824 20 825
3 826 825 392
3 824 825 826
3 828 827 20
3 395 396 1
3 397 396 395
3 397 90 396
3 200 397 89
3 398 397 200
3 398 90 397
3 398 241 90
3 399 241 398
3 399 21 241
3 829 91 830
3 831 91 832
3 833 399 834
3 835 834 91
3 833 834 835
3 836 399 837
3 838 21 839
3 840 839 399
3 838 839 840
3 842 841 21
3 400 843 844
3 400 845 846
3 400 847 849
3 847 296 848
3 847 848 849
3 401 296 400
3 401 41 296
3 202 401 92
3 402 401 202
3 402 41 401
3 402 135 41
3 395 135 402
3 395 1 135
3 403 404 2
3 405 404 403
3 405 94 404
3 204 405 93
3 406 405 204
3 406 94 405
3 406 277 94
3 407 277 406
3 407 23 277
3 314 205 22
3 408 205 314
3 408 95 205
3 207 408 50
3 409 408 207
3 409 95 408
3 409 407 95
3 410 407 409
3 410 23 407
3 410 354 23
3 411 354 410
3 411 71 354
3 209 411 96
3 412 411 209
3 412 71 411
3 412 167 71
3 413 167 412
3 413 4 167
3 360 146 3
3 414 146 360
3 414 51 146
3 212 414 75
3 415 414 212
3 415 51 414
3 415 317 51
3 416 317 415
3 416 24 317
3 319 213 10
3 417 213 319
3 417 98 213
3 215 417 53
3 418 417 215
3 418 98 417
3 418 416 98
3 419 416 418
3 419 24 416
3 419 210 24
3 420 210 419
3 420 97 210
3 217 420 99
3 421 420 217
3 421 97 420
3 421 413 97
3 422 413 421
3 422 4 413
3 422 388 4
3 423 388 422
3 423 86 388
3 219 423 100
3 424 423 219
3 424 86 423
3 424 194 86
3 425 194 424
3 425 19 194
3 323 220 25
3 426 220 323
3 426 101 220
3 222 426 55
3 427 426 222
3 427 101 426
3 427 425 101
3 428 425 427
3 428 19 425
3 428 308 19
3 429 308 428
3 429 47 308
3 224 429 102
3 430 429 224
3 430 47 429
3 430 142 47
3 850 142 851
3 852 851 430
3 850 851 852
3 854 853 142
3 855 431 856
3 857 856 0
3 855 856 857
3 858 431 859
3 861 860 431
3 862 0 863
3 371 152 6
3 432 152 371
3 432 864 866
3 866 865 152
3 864 865 866
3 227 432 80
3 433 432 227
3 433 867 869
3 869 868 432
3 867 868 869
3 433 870 871
3 434 872 874
3 874 873 433
3 872 873 874
3 434 875 876
3 328 228 13
3 435 228 328
3 435 104 228
3 230 435 58
3 436 435 230
3 436 104 435
3 436 434 104
3 437 434 436
3 437 877 879
3 879 878 434
3 877 878 879
3 437 880 881
3 883 882 437
3 232 884 886
3 886 885 105
3 884 885 886
3 888 887 232
3 234 889 891
3 891 890 106
3 889 890 891
3 438 892 894
3 894 893 234
3 892 893 894
3 438 895 896
3 438 897 899
3 897 191 898
3 897 898 899
3 439 191 438
3 439 17 191
3 332 235 27
3 440 235 332
3 440 107 235
3 237 440 60
3 441 440 237
3 441 107 440
3 441 439 107
3 442 439 441
3 442 17 439
3 442 303 17
3 443 303 442
3 443 44 303
3 239 443 108
3 444 443 239
3 444 44 443
3 444 139 44
3 445 139 444
3 445 2 139
3 396 134 1
3 446 134 396
3 446 40 134
3 242 446 90
3 447 446 242
3 447 40 446
3 447 295 40
3 448 295 447
3 448 14 295
3 336 243 21
3 449 243 336
3 449 110 243
3 245 449 62
3 450 449 245
3 450 110 449
3 450 448 110
3 451 448 450
3 451 14 448
3 451 185 14
3 452 185 451
3 452 83 185
3 247 452 111
3 453 452 247
3 453 83 452
3 453 380 83
3 454 380 453
3 454 7 380
3 455 900 901
3 455 902 903
3 455 904 906
3 904 339 905
3 904 905 906
3 456 339 455
3 456 29 339
3 340 907 909
3 907 908 909
3 457 910 912
3 912 911 340
3 910 911 912
3 457 913 915
3 913 113 914
3 913 914 915
3 250 457 64
3 458 457 250
3 458 113 457
3 458 456 113
3 459 456 458
3 459 29 456
3 459 248 29
3 460 248 459
3 460 112 248
3 252 460 114
3 461 460 252
3 461 112 460
3 461 454 112
3 462 454 461
3 462 7 454
3 462 157 7
3 463 157 462
3 463 61 157
3 254 463 115
3 464 463 254
3 464 61 463
3 464 335 61
3 465 335 464
3 465 28 335
3 344 255 30
3 466 255 344
3 466 116 255
3 257 466 66
3 467 466 257
3 467 116 466
3 467 465 116
3 468 465 467
3 468 28 465
3 468 240 28
3 469 240 468
3 469 109 240
3 259 469 117
3 470 469 259
3 470 109 469
3 470 445 109
3 471 445 470
3 471 2 445
3 471 403 2
3 472 403 471
3 472 93 403
3 261 472 118
3 473 472 261
3 473 93 472
3 473 203 93
3 474 203 473
3 474 22 203
3 348 262 31
3 475 262 348
3 475 119 262
3 264 475 68
3 476 475 264
3 476 119 475
3 476 474 119
3 477 474 476
3 477 22 474
3 477 313 22
3 478 313 477
3 478 49 313
3 266 478 120
3 479 478 266
3 479 49 478
3 479 144 49
3 480 144 479
3 480 3 144
3 381 164 8
3 481 164 381
3 481 69 164
3 268 916 918
3 916 481 917
3 916 917 918
3 482 481 268
3 482 69 481
3 482 351 69
3 483 351 482
3 483 32 351
3 484 919 920
3 484 921 923
3 921 122 922
3 921 922 923
3 270 924 926
3 924 484 925
3 924 925 926
3 485 484 270
3 485 122 484
3 485 483 122
3 486 483 485
3 486 32 483
3 486 267 32
3 487 267 486
3 487 121 267
3 272 487 123
3 488 487 272
3 488 121 487
3 488 480 121
3 489 480 488
3 489 3 480
3 489 359 3
3 490 359 489
3 490 74 359
3 274 490 124
3 491 490 274
3 491 74 490
3 491 170 74
3 492 170 491
3 492 9 170
3 927 275 928
3 929 928 33
3 927 928 929
3 493 930 932
3 930 275 931
3 930 931 932
3 493 125 275
3 933 493 934
3 494 935 937
3 935 493 936
3 935 936 937
3 494 125 493
3 494 492 125
3 495 492 494
3 495 9 492
3 495 286 9
3 496 286 495
3 496 35 286
3 938 496 939
3 940 939 126
3 938 939 940
3 497 941 943
3 941 496 942
3 941 942 943
3 497 35 496
3 497 129 35
3 944 129 945
3 946 945 497
3 944 945 946
3 947 0 948
3 949 948 129
3 947 948 949
3 951 950 16
3 431 131 0
3 952 131 953
3 954 953 431
3 952 953 954
3 955 37 956
3 957 956 131
3 955 956 957
3 958 37 959
3 960 290 961
3 962 961 37
3 960 961 962
3 963 290 964
3 965 11 966
3 967 966 290
3 965 966 967
3 968 11 969
3 970 177 971
3 972 971 11
3 970 971 972
3 973 177 974
3 975 78 976
3 977 976 177
3 975 976 977
3 498 978 979
3 498 980 982
3 980 78 981
3 980 981 982
3 498 369 78
3 499 369 498
3 499 5 369
3 983 499 984
3 500 985 987
3 985 499 986
3 985 986 987
3 500 5 499
3 500 151 5
3 501 151 500
3 501 56 151
3 988 501 989
3 502 990 992
3 990 501 991
3 990 991 992
3 502 56 501
3 502 326 56
3 993 326 994
3 995 994 502
3 993 994 995
3 996 26 997
3 998 997 326
3 996 997 998
3 999 26 1000
3 1001 225 1002
3 1003 1002 26
3 1001 1002 1003
3 1004 225 1005
3 1006 103 1007
3 1008 1007 225
3 1006 1007 1008
3 1009 103 1010
3 1012 1011 103
3 404 141 2
3 503 141 404
3 503 46 141
3 278 503 94
3 504 503 278
3 504 46 503
3 504 307 46
3 505 307 504
3 505 18 307
3 355 279 23
3 506 279 355
3 506 127 279
3 281 506 72
3 507 506 281
3 507 127 506
3 507 505 127
3 1013 505 1014
3 1015 1014 507
3 1013 1014 1015
3 1016 18 1017
3 1018 1017 505
3 1016 1017 1018
3 1020 1019 18
3 389 169 4
3 508 169 389
3 508 73 169
3 284 508 87
3 509 508 284
3 509 73 508
3 509 358 73
3 510 358 509
3 510 34 358
3 1021 285 1022
3 1023 1022 20
3 1021 1022 1023
3 511 1024 1026
3 1024 285 1025
3 1024 1025 1026
3 511 128 285
3 1027 511 1028
3 512 1029 1031
3 1029 511 1030
3 1029 1030 1031
3 512 128 511
3 512 510 128
3 513 510 512
3 513 34 510
3 513 1032 1034
3 1034 1033 34
3 1032 1033 1034
3 1036 1035 513
