ply
format ascii 1.0
element vertex 981
property float x
property float y
property float z
element face 981
property list uchar int vertex_index
end_header
-64.629013 -24.938894 -12.7575
-66.69062 -57.017818 17.005142
-63.997284 -7.854095 -14.48527
-68.232971 -40.90509 -0.132874
-59.763653 -60.233524 2.75519
-55.146751 -65.406128 12.439248
-62.703194 -57.422855 9.48945
-64.020142 -50.350029 0.683265
-68.119522 -49.338448 7.818119
-62.006313 -0.024712 -25.732609
-58.03035 7.181208 -27.989849
-65.449791 -16.288424 -13.854515
-64.958023 -54.874928 25.195692
-66.594696 -32.439659 -7.178049
-55.746391 -70.417358 6.047113
-63.033287 -64.740814 -2.882072
-64.36425 -60.343681 18.044706
-61.655403 -60.658489 14.354416
-65.268852 -57.135265 13.156497
-66.016922 -53.412476 8.533728
-67.489502 -53.41687 12.256681
-57.4058 -62.97015 7.425006
-54.636269 -67.641525 9.122419
-57.845207 -65.35498 4.348722
-59.583824 -67.957321 1.521924
-60.956787 -62.531532 -0.140606
-63.492458 -59.046001 -4.493874
-61.785309 -57.082909 -1.631521
-66.365227 -45.563507 0.203606
-63.969345 -46.635719 -3.34318
-65.803757 -41.584175 -3.626156
-64.877808 -37.447643 -7.307131
-67.593544 -36.688213 -3.758776
-65.098427 -11.78661 -14.134365
-63.924774 -8.336883 -19.134686
-52.793762 13.101376 -35.176197
-2.578178 14.970043 79.915504
-48.500832 -81.537582 14.096596
-58.879417 -61.374638 10.802597
-60.42762 -58.409515 5.986139
-61.765038 -55.224854 1.504417
-63.562416 -53.941788 4.930567
-66.428078 -49.500683 4.227912
-68.404808 -45.119583 3.705335
-63.043018 -3.777421 -19.855343
-61.482666 -0.122099 -20.802311
-60.378292 4.234814 -26.791424
-49.187042 2.793705 55.669102
-46.065807 5.848356 57.927944
-65.873596 -59.72765 21.981937
-0.53882 15.855846 77.029831
0.338535 16.038887 72.850494
-66.607544 -23.921135 -10.081797
-65.158791 -20.961359 -13.381517
-66.83609 -19.627863 -10.07749
-65.975426 -58.233406 26.163055
-66.392212 -56.443417 21.081524
-64.8601 -52.978268 20.146708
-67.001472 -53.472652 16.138891
-67.737213 -49.653091 11.456398
-68.889 -36.536247 -0.521688
-68.535706 -32.106461 -3.90193
-67.758636 -27.79546 -7.049839
-65.474945 -28.293432 -10.306019
-50.029831 -76.956619 12.538469
-52.144722 -72.333199 10.87472
-53.400764 -75.237106 7.615459
-57.368248 -73.080658 3.059527
-61.29612 -70.229485 -1.352654
-64.583862 -66.56311 -5.799797
-65.649857 -60.727791 -7.315315
-62.634563 -51.786823 -2.71624
-63.889328 -33.079502 -10.765882
-54.97654 8.619848 -29.304134
-56.024059 11.427406 -34.122818
-63.963879 -26.489389 -13.245298
-63.953655 -24.438416 -14.156855
-65.751213 -58.71685 17.489567
-64.825638 -58.826801 15.573444
-66.186523 -57.095181 15.052882
-66.597641 -55.296871 12.67911
-67.099838 -55.303692 14.5961
-58.601761 -61.647137 5.048193
-57.397583 -64.093231 5.845468
-58.81176 -62.787861 3.521657
-59.447296 -64.021271 2.077032
-60.16626 -61.359676 1.270284
-61.405998 -59.794201 -0.925827
-60.838959 -58.715836 0.534358
-67.405701 -43.210373 0.031425
-66.14254 -43.585415 -1.730598
-67.136047 -41.166885 -1.85487
-66.754402 -39.108292 -3.698912
-67.967911 -38.800186 -1.970167
-64.642044 -9.727495 -14.278168
-64.495361 -10.020497 -16.54393
-64.106644 -7.8087 -16.789417
-62.187878 -59.084755 11.888387
-60.183712 -60.926041 12.563566
-60.813377 -59.398655 10.100142
-59.659378 -59.92017 8.352586
-61.43029 -57.807846 7.712549
-61.998371 -56.168858 5.408463
-63.171162 -55.701263 7.168692
-67.262405 -51.375427 8.158724
-66.275146 -51.465302 6.341395
-67.471085 -49.34008 6.019982
-67.571732 -47.294106 3.958569
-68.314423 -47.232906 5.723035
-58.695877 4.800201 -25.007034
-59.938717 3.631758 -24.348358
-59.298615 5.892847 -27.368229
-59.639042 6.225399 -29.878307
-58.480156 8.006933 -30.446926
-47.743225 4.352827 56.870594
-1.422209 15.506302 78.651962
-0.723097 12.019156 78.483772
0.368328 12.365236 74.510956
-39.786118 47.556332 -9.360279
-67.443512 -23.612722 -8.511353
-66.836182 -21.763218 -10.080647
-67.383743 -21.527878 -8.456919
-65.142014 -55.355576 27.717484
-65.694489 -57.045113 28.245602
-65.696167 -56.585705 25.702656
-66.16375 -57.496689 23.612656
-65.744522 -55.81049 23.160635
-64.978577 -51.592381 17.653204
-66.069702 -53.333782 18.139055
-66.349739 -51.693802 15.694047
-67.364304 -51.642185 13.758503
-68.7659 -34.316307 -2.244364
-68.276077 -27.770737 -5.509691
-67.925247 -25.630838 -7.005487
-67.224831 -25.772343 -8.567019
-53.447662 -67.489914 13.337902
-55.044937 -69.003448 7.557925
-53.353127 -69.992348 10.003668
-53.875179 -71.424278 8.41255
-52.718739 -73.800919 9.235721
-54.594193 -72.862534 6.856526
-55.348064 -74.232193 5.305466
-56.576202 -71.797699 4.560619
-61.391144 -66.450104 -0.684446
-60.526272 -69.153564 0.112303
-62.336491 -67.531746 -2.089077
-63.050102 -68.499359 -3.564051
-63.950119 -65.700874 -4.301165
-65.325424 -63.667297 -6.536991
-64.461731 -62.830357 -5.08832
-63.389526 -56.218769 -5.231443
-62.861214 -52.77404 1.042043
-62.268284 -53.542358 -0.63028
-63.110767 -51.013786 -1.042498
-63.767471 -44.694778 -5.307777
-63.21669 -47.306683 -5.094265
-65.750198 -34.90641 -7.252819
-64.367096 -35.291458 -9.074648
-65.199203 -32.764156 -8.940071
-64.677582 -30.619356 -10.536432
-66.029892 -30.332703 -8.788824
-65.368828 -18.635441 -13.649317
-64.435677 -19.786037 -15.301596
-64.652466 -17.300026 -15.712763
-62.528736 -1.856922 -22.752865
-63.05426 -4.204913 -22.304028
-62.586819 -2.517942 -25.210865
-54.46138 12.482849 -34.672409
-63.105804 -60.494694 16.176878
-63.588177 -58.920475 13.710917
-64.050308 -57.219097 11.304655
-64.467239 -55.430088 8.97067
-65.673721 -55.315266 10.806807
-66.963928 -53.374043 10.37888
-67.837311 -51.412212 9.995836
-44.267307 47.394566 -3.992226
-56.234276 -64.21788 9.88992
-54.648994 -66.419495 10.752056
-55.987473 -65.295761 8.253811
-56.217155 -66.552551 6.692543
-56.83033 -67.907745 5.202038
-57.676689 -69.272491 3.758038
-58.629753 -66.670509 2.919054
-60.367126 -65.265366 0.688745
-61.975315 -63.676357 -1.510025
-63.401192 -61.897854 -3.697321
-62.31834 -60.874416 -2.324324
-62.488819 -58.082329 -3.086594
-62.574295 -55.325336 -3.762297
-65.208557 -47.946468 0.411654
-64.058685 -48.514252 -1.35009
-65.088348 -46.037811 -1.571356
-64.846542 -44.097122 -3.516249
-64.503342 -42.10495 -5.430664
-64.091324 -40.041447 -7.314442
-65.371078 -39.543018 -5.486494
-66.282066 -37.023254 -5.500645
-67.127243 -34.565872 -5.497042
-65.365707 -13.988445 -14.006876
-64.756157 -14.809889 -16.040709
-64.709778 -12.368549 -16.307261
-64.124985 -10.83491 -18.784184
-56.112804 -64.633232 14.164188
-59.576347 -62.370483 15.088678
-58.13102 -62.766594 13.326048
-56.971657 -63.37125 11.587613
-57.913734 -62.052963 9.083189
-58.889153 -60.674362 6.662245
-59.846519 -59.22937 4.328435
-60.737831 -57.710304 2.07709
-61.141911 -56.845085 3.705462
-62.484386 -54.490456 3.187652
-63.851601 -52.157101 2.77204
-64.812897 -53.58836 6.716512
-65.063278 -51.71957 4.543263
-65.199203 -49.837997 2.445314
-66.460709 -47.532715 2.185753
-67.551773 -45.250408 1.965954
-68.379288 -43.009865 1.756482
-63.542088 -5.778037 -17.084343
-62.799671 -3.974585 -17.464874
-62.352333 -1.812502 -20.288361
-61.844105 0.265778 -23.229988
-60.422729 1.255121 -21.408974
-60.985615 2.110407 -23.756981
-61.275826 2.245157 -26.252125
-60.627342 4.105623 -29.321011
-50.138901 3.775919 53.940609
-66.278946 -58.506386 19.47168
-0.361357 19.649582 75.286865
-0.036352 12.262129 76.634193
0.046724 16.029083 75.079506
0.105345 19.718555 73.216354
-65.546501 -24.414515 -11.568121
-64.879158 -23.154484 -13.064585
-65.91098 -22.313971 -11.657475
-66.126045 -20.108778 -11.776525
-66.170334 -17.885715 -11.866533
-66.606796 -17.561737 -10.04479
-66.022713 -15.713946 -11.916056
-65.672501 -13.646954 -11.943205
-65.802917 -58.661163 28.719522
-66.07309 -59.116806 24.055218
-66.396606 -58.120522 21.519844
-66.744705 -56.824593 19.018354
-64.855438 -54.080704 22.667042
-65.865791 -54.719177 20.633848
-66.672363 -55.089806 18.584934
-67.117264 -55.259956 16.565498
-67.502815 -53.474194 14.175362
-67.88121 -51.522808 11.859791
-68.22773 -49.460136 9.627041
-68.517464 -47.332306 7.4808
-68.728668 -45.173378 5.419901
-68.844711 -43.004726 3.439063
-68.854553 -40.836693 1.530687
-68.907974 -38.758816 1.270571
-68.752579 -38.671745 -0.31278
-68.538231 -36.508499 -2.096827
-68.216118 -34.34668 -3.823967
-67.796486 -32.192719 -5.494188
-68.499008 -29.987309 -3.985582
-68.198517 -29.922867 -5.500408
-67.295853 -30.066042 -7.10598
-66.737061 -28.006254 -8.656792
-66.147232 -26.083206 -10.142834
-64.981766 -26.416012 -11.679747
-49.180336 -79.246735 13.329049
-50.578674 -78.428383 10.763401
-53.176552 -68.654434 11.646139
-51.831436 -70.913696 12.550101
-51.027992 -74.65477 11.7212
-51.605312 -76.13179 10.018587
-52.217346 -77.552643 8.323195
-58.581093 -70.570312 2.321259
-59.378029 -71.753204 0.848582
-64.610497 -59.932594 -5.89003
-61.522564 -56.108246 -0.104029
-62.171333 -54.413128 -2.2325
-62.669235 -52.613251 -4.327616
-63.226707 -49.197289 -3.082842
-62.861275 -49.943352 -4.77129
-64.242111 -28.512901 -11.997948
-64.169083 -22.197065 -14.792124
-63.565071 -5.968853 -19.480698
-63.430752 -6.725113 -21.858566
-56.581802 8.084572 -28.646366
-54.025505 10.97381 -32.2243
-55.654434 10.390615 -31.639843
-57.148098 9.403891 -31.036713
-57.453259 9.938442 -33.559509
-0.806806 10.100505 79.085949
-1.201917 11.82051 79.249786
-39.486237 47.504948 -10.348981
-40.47765 48.455196 -10.66365
-38.781826 46.563656 -9.056849
-39.486237 47.504948 -10.348981
-67.581085 -22.552513 -7.704327
-67.413627 -22.5703 -8.484136
-67.610969 -23.594935 -7.731544
-65.089455 -50.776961 16.430005
-64.222793 -50.745184 17.382248
-65.775036 -50.827671 15.450426
-65.664158 -51.643091 16.673625
-65.089455 -50.776961 16.430005
-66.518177 -50.771152 14.504972
-65.775036 -50.827671 15.450426
-67.851837 -24.603993 -6.978611
-67.968361 -25.689478 -6.253717
-67.610969 -23.594935 -7.731544
-67.68438 -24.62178 -7.75842
-67.851837 -24.603993 -6.978611
-54.297207 -66.448021 12.888575
-53.822792 -67.019645 14.199866
-54.672337 -65.977753 13.750539
-63.74633 -55.209236 -6.303416
-63.292244 -54.826428 -5.55395
-63.43551 -45.007641 -6.196956
-63.624817 -43.682045 -6.27817
-63.735027 -60.419187 17.110792
-62.86484 -61.199385 17.432032
-63.494062 -61.123879 18.365946
-45.28648 48.040466 -4.156583
-44.760368 46.801868 -3.053148
-63.793495 -8.853189 -20.262783
-63.8936 -10.102203 -20.087533
-64.024879 -9.585897 -18.959435
-48.727536 -82.268951 13.132743
-48.245632 -82.689346 14.467403
-49.092719 -81.124168 12.787431
-48.727536 -82.268951 13.132743
-56.783319 -64.360134 15.03546
-55.746381 -65.236935 15.480031
-60.615875 -61.514486 14.721547
-60.354803 -62.24189 15.980289
-61.394331 -61.385893 15.613157
-62.475718 -4.400601 -16.358525
-62.983164 -5.091398 -16.132123
-61.9175 -0.967301 -20.545336
-62.113518 -2.126713 -19.122576
-61.678684 -1.281511 -19.379551
-59.794849 1.776731 -21.757397
-59.940752 0.482671 -20.354271
-59.749359 6.023098 -31.142471
-59.185999 7.138402 -31.434551
-49.773056 1.999631 54.978445
-49.198932 1.487533 55.821452
-49.662971 3.284812 54.804856
-50.248986 2.490738 54.114199
-49.773056 1.999631 54.978445
-48.951978 4.106451 55.470255
-49.427908 4.597558 54.606009
-49.662971 3.284812 54.804856
-46.589742 6.446147 57.203167
-47.428452 5.698382 56.674492
-46.904516 5.100592 57.399269
-45.719263 7.23129 57.761791
-46.589742 6.446147 57.203167
-65.590217 -59.921242 20.978982
-65.367226 -60.491588 22.240212
-66.076271 -59.117018 20.726808
-65.792892 -59.31061 19.723853
-65.590217 -59.921242 20.978982
-2.404268 16.936094 79.154331
-3.078363 16.589762 79.646785
-0.84106 17.618326 77.027164
-1.282755 17.443554 77.83823
-0.980514 15.681074 77.840896
-0.450089 17.752714 76.158348
-0.752329 19.515194 76.155682
-0.84106 17.618326 77.027164
0.166556 10.442152 76.254002
-0.083334 10.361618 77.273357
0.30821 17.820743 71.861419
0.191615 19.660577 72.044349
0.22194 17.878721 73.033424
-66.379089 -16.586583 -10.016503
-66.542065 -17.623578 -9.153307
-66.087047 -15.662688 -10.952136
-66.314754 -16.637842 -10.980423
-66.379089 -16.586583 -10.016503
-65.911941 -14.629191 -10.965711
-65.847607 -14.68045 -11.929631
-66.087047 -15.662688 -10.952136
-65.86911 -59.019179 26.386869
-65.782855 -59.233057 27.665103
-65.889172 -58.447285 27.441288
-66.024258 -58.675106 25.109136
-65.917942 -59.460878 25.332951
-65.86911 -59.019179 26.386869
-64.213856 -52.656347 21.12699
-64.153 -52.115084 19.872993
-64.857769 -53.529486 21.406875
-64.211525 -53.207566 22.387158
-64.213856 -52.656347 21.12699
-68.462311 -46.36298 7.299159
-68.305405 -47.444325 8.361085
-68.567913 -45.283516 6.268709
-68.623066 -46.252842 6.450351
-68.462311 -46.36298 7.299159
-68.836433 -41.992437 3.288158
-68.751068 -43.099973 4.261646
-68.841354 -40.90842 2.33397
-68.849632 -41.92071 2.484875
-68.836433 -41.992437 3.288158
-68.898487 -37.647531 0.374441
-68.705177 -37.780306 1.121457
-68.69569 -36.669021 0.225327
-68.295681 -28.996284 -4.019502
-68.270203 -30.150954 -3.274499
-49.605083 -78.101677 12.933759
-48.952488 -78.499283 14.258392
-49.377235 -77.354225 13.863102
-51.386799 -72.760124 12.160867
-51.230156 -72.050373 12.998557
-51.988079 -71.623447 11.712411
-51.586357 -73.493984 11.29796
-50.828434 -73.92091 12.584107
-51.386799 -72.760124 12.160867
-53.722618 -75.91021 6.801199
-53.130909 -77.067978 7.155067
-52.809055 -76.394875 7.969327
-56.6805 -74.283951 3.392447
-55.670408 -74.859718 4.515416
-56.358156 -73.656425 4.182497
-57.676613 -73.658501 2.283571
-56.6805 -74.283951 3.392447
-60.61788 -71.519093 -1.023266
-59.658834 -72.280952 0.077352
-60.337074 -70.991344 -0.252036
-61.536915 -70.709462 -2.126787
-60.61788 -71.519093 -1.023266
-64.007345 -67.967422 -5.464507
-63.240465 -68.935547 -4.346634
-63.816982 -67.531234 -4.681924
-64.716877 -66.960319 -6.594354
-64.007345 -67.967422 -5.464507
-65.224063 -65.496689 -6.934026
-64.716877 -66.960319 -6.594354
-66.047619 -61.086231 -8.059259
-65.885402 -62.555984 -7.670097
-65.48764 -62.197544 -6.926153
-66.122932 -59.58703 -8.441552
-66.047619 -61.086231 -8.059259
-62.911751 -48.968443 -5.790072
-63.038983 -48.625017 -4.932778
-63.089458 -47.650109 -5.95156
-62.939936 -50.319042 -5.588596
-62.911751 -48.968443 -5.790072
-64.265806 -37.669412 -8.232617
-63.872564 -38.966314 -8.236273
-64.484566 -38.744545 -7.310786
-63.565274 -34.363484 -10.854273
-63.804158 -35.469461 -10.008655
-64.128212 -34.18548 -9.920265
-63.397509 -33.196745 -11.703112
-63.565274 -34.363484 -10.854273
-63.694079 -31.95388 -11.5561
-63.397509 -33.196745 -11.703112
-64.010914 -20.550565 -16.022883
-64.147594 -19.245297 -16.35025
-64.413837 -15.433909 -16.991743
-64.462941 -14.115645 -17.218633
-63.2305 -5.952143 -23.261902
-63.242506 -5.465013 -22.081297
-63.042254 -4.692043 -23.484633
-63.386274 -7.342322 -22.967666
-63.2305 -5.952143 -23.261902
-55.319561 7.355623 -27.874468
-54.45171 7.460058 -28.216396
-55.779171 8.35221 -28.97525
-56.122192 7.087985 -27.545583
-55.319561 7.355623 -27.874468
-53.409633 12.037593 -33.700249
-53.161099 11.086095 -32.478842
-52.545227 12.149878 -33.95479
-63.578806 -26.366267 -14.11039
-63.607225 -27.522218 -13.506599
-63.573694 -25.340781 -14.566168
-63.578806 -26.366267 -14.11039
-63.958767 -25.463902 -13.701076
-63.642069 -24.138395 -15.054796
-63.573694 -25.340781 -14.566168
-48.033772 -81.94205 15.471577
-48.245632 -82.689346 14.467403
-47.778572 -83.093815 15.842384
-61.12209 -0.665458 -19.686655
-61.678684 -1.281511 -19.379551
-59.317297 4.21598 -24.677696
-59.552843 2.96505 -23.227089
-58.931423 3.549272 -23.556427
-58.606556 8.029169 -31.71886
-59.185999 7.138402 -31.434551
-59.059599 7.116166 -30.162616
-48.608629 2.248692 56.446169
-49.198932 1.487533 55.821452
-47.886721 3.028252 57.046915
-48.465134 3.573266 56.269848
-48.608629 2.248692 56.446169
-47.138363 3.753711 57.570329
-47.886721 3.028252 57.046915
-46.299654 4.501476 58.099004
-46.904516 5.100592 57.399269
-47.138363 3.753711 57.570329
-65.673668 -60.193151 23.252069
-65.367226 -60.491588 22.240212
-1.551474 13.564083 79.333881
-2.000193 15.238173 79.283733
-2.129458 13.295953 79.965652
-1.072653 13.762729 78.567867
-1.551474 13.564083 79.333881
-1.201917 11.82051 79.249786
0.487497 10.523158 74.06823
0.368896 10.493706 75.192383
0.436132 12.353316 73.341801
0.487497 10.523158 74.06823
0.421236 14.190141 72.51157
0.353432 14.202061 73.680725
0.436132 12.353316 73.341801
0.352498 15.968759 71.630379
0.421236 14.190141 72.51157
-40.821463 48.449185 -9.674394
-40.47765 48.455196 -10.66365
-40.110224 47.444939 -8.360021
-40.821463 48.449185 -9.674394
-39.057671 46.503357 -8.054879
-40.110224 47.444939 -8.360021
-39.057671 46.503357 -8.054879
-38.781826 46.563656 -9.056849
-65.418251 -56.200344 27.981543
-65.529336 -56.291967 29.233407
-65.253098 -55.447199 28.969348
-64.212238 -51.42214 18.626241
-64.222793 -50.745184 17.382248
-64.919339 -52.285325 18.899956
-64.153 -52.115084 19.872993
-64.212238 -51.42214 18.626241
-67.02546 -50.745344 13.5372
-66.857022 -51.667993 14.726275
-66.518177 -50.771152 14.504972
-67.211914 -49.750797 12.386147
-67.550759 -50.647638 12.60745
-67.02546 -50.745344 13.5372
-68.744225 -35.529258 -0.639755
-68.69569 -36.669021 0.225327
-68.682675 -34.419289 -1.501093
-68.82745 -35.426277 -1.383026
-68.744225 -35.529258 -0.639755
-68.684319 -33.281019 -2.325739
-68.682675 -34.419289 -1.501093
-68.569221 -32.176096 -3.154522
-68.650803 -33.211384 -3.073147
-68.684319 -33.281019 -2.325739
-68.143776 -26.759428 -5.505819
-68.184215 -27.887998 -4.781556
-68.100662 -26.700788 -6.257589
-68.143776 -26.759428 -5.505819
-67.968361 -25.689478 -6.253717
-49.80845 -76.211899 13.432845
-49.377235 -77.354225 13.863102
-52.943817 -68.010208 14.669638
-53.822792 -67.019645 14.199866
-52.676827 -68.55735 13.80078
-52.943817 -68.010208 14.669638
-63.924568 -56.632988 -5.948494
-63.976034 -58.046604 -5.57971
-63.440992 -57.632385 -4.862659
-63.924568 -56.632988 -5.948494
-63.74633 -55.209236 -6.303416
-63.16012 -46.313593 -6.0902
-63.492081 -46.000731 -5.201021
-63.43551 -45.007641 -6.196956
-63.089458 -47.650109 -5.95156
-63.16012 -46.313593 -6.0902
-64.255989 -18.002291 -16.555833
-64.147594 -19.245297 -16.35025
-64.544072 -18.543031 -15.507179
-62.808533 -3.848557 -24.938051
-63.042254 -4.692043 -23.484633
-62.820539 -3.361428 -23.757447
-54.113007 8.729452 -29.605201
-54.45171 7.460058 -28.216396
-53.725724 13.397598 -36.189137
-53.627571 12.792112 -34.924303
-52.891914 13.706862 -36.44103
-54.549278 12.845459 -35.943248
-53.725724 13.397598 -36.189137
-55.330618 12.317737 -35.668453
-55.242719 11.955127 -34.397614
-54.549278 12.845459 -35.943248
-56.105657 11.537824 -35.399088
-55.330618 12.317737 -35.668453
-62.119532 -61.303995 16.524389
-62.86484 -61.199385 17.432032
-62.380603 -60.576592 15.265647
-61.394331 -61.385893 15.613157
-62.119532 -61.303995 16.524389
-58.208523 3.906891 -23.939064
-58.931423 3.549272 -23.556427
-57.979717 5.205689 -25.362611
-58.208523 3.906891 -23.939064
-57.646953 6.396192 -26.854019
-58.363113 5.990704 -26.498441
-57.979717 5.205689 -25.362611
-43.632679 46.124145 -2.828784
-44.760368 46.801868 -3.053148
-43.145376 46.673077 -3.730633
-43.632679 46.124145 -2.828784
-64.898224 -54.576148 28.64311
-65.253098 -55.447199 28.969348
-64.674061 -54.480607 27.411425
-64.898224 -54.576148 28.64311
-64.582065 -54.240282 26.150529
-65.050018 -55.115252 26.456588
-64.674061 -54.480607 27.411425
-62.884628 -54.379711 -4.819377
-63.292244 -54.826428 -5.55395
-62.98191 -55.772053 -4.49687
-63.992752 -42.387131 -6.339614
-63.624817 -43.682045 -6.27817
-64.135407 -43.399864 -5.36922
-64.297333 -41.073199 -6.372553
-63.786743 -41.355379 -7.281503
-63.992752 -42.387131 -6.339614
-64.439751 -12.894975 -17.351909
-64.462941 -14.115645 -17.218633
-64.732968 -13.589219 -16.173985
-64.147355 -12.128156 -18.59037
-64.439751 -12.894975 -17.351909
-64.417382 -11.60173 -17.545723
-63.9373 -11.466173 -19.830323
-64.147355 -12.128156 -18.59037
-63.9373 -11.466173 -19.830323
-63.8936 -10.102203 -20.087533
-62.076328 -0.47055 -26.945013
-61.731947 0.840112 -27.243782
-51.925087 13.211275 -35.376759
-52.545227 12.149878 -33.95479
-52.034858 14.024868 -36.646662
-51.925087 13.211275 -35.376759
-52.891914 13.706862 -36.44103
-52.034858 14.024868 -36.646662
-3.26541 14.60524 80.360321
-3.078363 16.589762 79.646785
-2.725582 13.013281 80.557827
-3.26541 14.60524 80.360321
-2.129458 13.295953 79.965652
-2.725582 13.013281 80.557827
-55.155363 -65.591305 14.61301
-55.746381 -65.236935 15.480031
-55.629778 -65.01968 13.301718
-54.672337 -65.977753 13.750539
-55.155363 -65.591305 14.61301
-59.298788 -63.041029 16.373085
-60.354803 -62.24189 15.980289
-58.515091 -63.228759 15.497705
-59.298788 -63.041029 16.373085
-57.792428 -63.426815 14.61639
-58.515091 -63.228759 15.497705
-58.853684 -62.568539 14.207363
-57.121912 -63.699913 13.745118
-56.783319 -64.360134 15.03546
-57.792428 -63.426815 14.61639
-63.354372 -5.993125 -15.941858
-63.769686 -6.816066 -15.784807
-63.58197 -7.031154 -14.642321
-63.170879 -4.876311 -17.274608
-63.354372 -5.993125 -15.941858
-62.983164 -5.091398 -16.132123
-62.337187 -3.207755 -17.710832
-62.475718 -4.400601 -16.358525
-62.576002 -2.893543 -18.876617
-62.337187 -3.207755 -17.710832
-62.113518 -2.126713 -19.122576
-60.592121 0.023151 -19.989987
-59.940752 0.482671 -20.354271
-60.952697 0.566511 -21.105643
-61.12209 -0.665458 -19.686655
-60.592121 0.023151 -19.989987
-60.180723 2.44344 -22.878666
-59.794849 1.776731 -21.757397
-59.552843 2.96505 -23.227089
-61.366703 1.975046 -27.50354
-61.731947 0.840112 -27.243782
-61.64107 1.110222 -25.992367
-61.042462 2.905279 -29.037983
-61.366703 1.975046 -27.50354
-60.951584 3.17539 -27.786568
-60.733841 3.707668 -30.55372
-61.042462 2.905279 -29.037983
-60.243509 4.96321 -30.863823
-60.133192 5.165511 -29.599659
-59.749359 6.023098 -31.142471
-60.733841 3.707668 -30.55372
-60.243509 4.96321 -30.863823
-50.73879 2.96479 53.197756
-50.248986 2.490738 54.114199
-50.517868 4.208249 52.981842
-50.73879 2.96479 53.197756
-49.798576 5.054813 53.694847
-50.517868 4.208249 52.981842
-49.798576 5.054813 53.694847
-49.427908 4.597558 54.606009
-48.23007 4.886012 56.071001
-48.951978 4.106451 55.470255
-48.465134 3.573266 56.269848
-48.23007 4.886012 56.071001
-47.428452 5.698382 56.674492
-45.413246 5.178686 58.541902
-46.299654 4.501476 58.099004
-45.134359 6.552829 58.40415
-45.413246 5.178686 58.541902
-45.719263 7.23129 57.761791
-45.134359 6.552829 58.40415
-64.131619 -60.995414 19.300289
-63.494062 -61.123879 18.365946
-64.835544 -60.229258 19.010366
-64.131619 -60.995414 19.300289
-65.529026 -59.415842 18.732797
-65.057732 -59.530265 17.767136
-64.835544 -60.229258 19.010366
-66.01508 -58.611618 18.480624
-65.529026 -59.415842 18.732797
-65.792892 -59.31061 19.723853
-1.826283 17.204224 78.52256
-2.404268 16.936094 79.154331
-2.000193 15.238173 79.283733
-1.826283 17.204224 78.52256
-1.282755 17.443554 77.83823
-0.614734 21.427713 75.199501
-0.752329 19.515194 76.155682
-0.283416 21.505169 74.263676
-0.614734 21.427713 75.199501
-0.426706 10.240132 78.198147
-0.806806 10.100505 79.085949
-0.379725 12.140643 77.558982
-0.426706 10.240132 78.198147
-0.083334 10.361618 77.273357
0.165988 12.313682 75.572575
0.166556 10.442152 76.254002
0.368896 10.493706 75.192383
-0.050065 21.539655 73.22842
-0.283416 21.505169 74.263676
-0.128006 19.684068 74.25161
0.120295 21.506589 72.128983
-0.050065 21.539655 73.22842
0.120295 21.506589 72.128983
0.191615 19.660577 72.044349
0.30821 17.820743 71.861419
0.352498 15.968759 71.630379
-44.842167 48.563175 -5.182455
-45.28648 48.040466 -4.156583
-43.82259 47.866169 -4.974419
-44.842167 48.563175 -5.182455
-43.145376 46.673077 -3.730633
-43.82259 47.866169 -4.974419
-67.357475 -21.588183 -7.660275
-67.581085 -22.552513 -7.704327
-67.219795 -20.534408 -8.41601
-67.357475 -21.588183 -7.660275
-66.945968 -19.5844 -9.226295
-67.109916 -20.577871 -9.267204
-67.219795 -20.534408 -8.41601
-66.831322 -18.551337 -9.209945
-66.542065 -17.623578 -9.153307
-66.721443 -18.5948 -10.06114
-66.945968 -19.5844 -9.226295
-66.831322 -18.551337 -9.209945
-65.575173 -13.732691 -10.942088
-65.911941 -14.629191 -10.965711
-65.395485 -12.688247 -11.965186
-65.575173 -13.732691 -10.942088
-65.108448 -11.758075 -13.060766
-65.385464 -12.716782 -13.038785
-65.395485 -12.688247 -11.965186
-64.880257 -10.728517 -13.132668
-64.870236 -10.757053 -14.206267
-65.108448 -11.758075 -13.060766
-64.503715 -9.864901 -13.188588
-64.880257 -10.728517 -13.132668
-64.181336 -8.928201 -13.292139
-64.319664 -8.790795 -14.381719
-64.503715 -9.864901 -13.188588
-63.709027 -8.178318 -13.40776
-64.181336 -8.928201 -13.292139
-63.58197 -7.031154 -14.642321
-63.709027 -8.178318 -13.40776
-65.697319 -57.12842 29.51192
-65.529336 -56.291967 29.233407
-65.751533 -57.936445 29.74888
-65.697319 -57.12842 29.51192
-65.748703 -57.853138 28.482562
-65.70816 -58.735464 29.995463
-65.751533 -57.936445 29.74888
-65.624233 -59.430603 28.947069
-65.70816 -58.735464 29.995463
-65.624233 -59.430603 28.947069
-65.782855 -59.233057 27.665103
-65.773415 -59.887729 24.28871
-65.917942 -59.460878 25.332951
-65.973343 -59.422228 23.018577
-65.673668 -60.193151 23.252069
-65.773415 -59.887729 24.28871
-64.393497 -53.998335 24.905166
-64.582065 -54.240282 26.150529
-64.342205 -53.601223 23.64084
-64.211525 -53.207566 22.387158
-64.906731 -54.477816 23.931367
-64.393497 -53.998335 24.905166
-64.342205 -53.601223 23.64084
-67.395531 -48.750844 11.237799
-67.211914 -49.750797 12.386147
-67.915279 -48.604717 10.348885
-67.395531 -48.750844 11.237799
-68.160538 -48.50824 9.434206
-67.982472 -49.556613 10.541719
-67.915279 -48.604717 10.348885
-68.372597 -48.396221 8.553921
-68.160538 -48.50824 9.434206
-68.305405 -47.444325 8.361085
-68.693047 -44.184299 5.252066
-68.567913 -45.283516 6.268709
-68.786689 -44.089052 4.429482
-68.693047 -44.184299 5.252066
-68.751068 -43.099973 4.261646
-68.616008 -38.916472 2.030308
-68.705177 -37.780306 1.121457
-68.868065 -39.869482 2.203912
-68.616008 -38.916472 2.030308
-68.881263 -39.797754 1.400629
-68.841354 -40.90842 2.33397
-68.868065 -39.869482 2.203912
-68.550872 -31.11652 -3.196348
-68.270203 -30.150954 -3.274499
-68.517357 -31.046885 -3.943756
-68.569221 -32.176096 -3.154522
-68.550872 -31.11652 -3.196348
-68.387542 -28.879023 -4.747637
-68.295681 -28.996284 -4.019502
-68.184215 -27.887998 -4.781556
-48.276968 -80.790493 15.062562
-48.033772 -81.94205 15.471577
-47.809907 -81.194962 16.437543
-48.61672 -79.64507 14.678788
-48.952488 -78.499283 14.258392
-48.840584 -80.392158 13.712822
-48.276968 -80.790493 15.062562
-48.61672 -79.64507 14.678788
-49.43247 -79.978745 12.403657
-49.092719 -81.124168 12.787431
-48.840584 -80.392158 13.712822
-50.131639 -79.569569 11.120833
-49.43247 -79.978745 12.403657
-49.879505 -78.837559 12.046225
-50.843731 -79.131546 9.876409
-50.131639 -79.569569 11.120833
-52.541272 -69.13961 12.954898
-52.676827 -68.55735 13.80078
-53.312107 -68.072174 12.49202
-51.868713 -70.269241 13.406879
-52.541272 -69.13961 12.954898
-52.503994 -69.784065 12.09812
-51.188505 -71.359955 13.874693
-51.868713 -70.269241 13.406879
-51.188505 -71.359955 13.874693
-51.230156 -72.050373 12.998557
-50.307531 -75.060974 13.02421
-50.828434 -73.92091 12.584107
-50.528911 -75.805695 12.129834
-49.80845 -76.211899 13.432845
-50.307531 -75.060974 13.02421
-51.663067 -78.693676 8.656306
-50.843731 -79.131546 9.876409
-51.39801 -77.990513 9.543298
-52.479755 -78.215462 7.468333
-51.663067 -78.693676 8.656306
-52.479755 -78.215462 7.468333
-53.130909 -77.067978 7.155067
-54.696268 -75.407753 5.646202
-53.722618 -75.91021 6.801199
-54.374414 -74.734649 6.460463
-54.696268 -75.407753 5.646202
-55.670408 -74.859718 4.515416
-58.681503 -72.994774 1.178099
-57.676613 -73.658501 2.283571
-58.373138 -72.416931 1.954055
-58.681503 -72.994774 1.178099
-59.658834 -72.280952 0.077352
-62.413906 -69.844398 -3.232485
-61.536915 -70.709462 -2.126787
-62.173111 -69.364422 -2.458353
-62.413906 -69.844398 -3.232485
-63.240465 -68.935547 -4.346634
-65.594844 -64.048782 -7.302624
-65.224063 -65.496689 -6.934026
-64.954643 -65.115203 -6.168394
-65.594844 -64.048782 -7.302624
-65.885402 -62.555984 -7.670097
-64.535054 -58.489901 -6.277788
-64.051478 -59.489297 -5.191952
-63.976034 -58.046604 -5.57971
-65.101101 -58.860375 -6.994615
-64.535054 -58.489901 -6.277788
-65.620781 -59.257973 -7.707257
-65.130177 -60.330193 -6.602673
-65.101101 -58.860375 -6.994615
-66.122932 -59.58703 -8.441552
-65.620781 -59.257973 -7.707257
-62.932098 -53.023668 -5.102037
-62.884628 -54.379711 -4.819377
-62.621765 -53.969293 -4.044956
-62.843916 -51.653992 -5.366758
-62.765255 -51.278301 -4.549453
-62.939936 -50.319042 -5.588596
-62.932098 -53.023668 -5.102037
-62.843916 -51.653992 -5.366758
-63.62302 -40.290165 -8.237638
-63.786743 -41.355379 -7.281503
-63.62302 -40.290165 -8.237638
-63.872564 -38.966314 -8.236273
-64.010451 -36.59132 -9.116376
-64.265806 -37.669412 -8.232617
-64.622452 -36.369551 -8.19089
-64.010451 -36.59132 -9.116376
-63.804158 -35.469461 -10.008655
-64.088206 -30.723807 -11.441375
-63.694079 -31.95388 -11.5561
-64.283455 -31.849429 -10.651157
-63.87047 -29.67058 -12.172133
-64.088206 -30.723807 -11.441375
-64.459846 -29.566128 -11.26719
-63.746341 -28.533974 -12.882924
-63.87047 -29.67058 -12.172133
-64.102995 -27.501145 -12.621623
-63.607225 -27.522218 -13.506599
-63.746341 -28.533974 -12.882924
-63.749783 -23.017719 -15.37243
-63.642069 -24.138395 -15.054796
-64.061369 -23.31774 -14.47449
-63.877617 -21.756079 -15.768148
-64.30238 -20.991551 -15.04686
-64.010914 -20.550565 -16.022883
-63.749783 -23.017719 -15.37243
-63.877617 -21.756079 -15.768148
-64.361992 -16.678977 -16.827769
-64.704312 -16.054958 -15.876736
-64.413837 -15.433909 -16.991743
-64.255989 -18.002291 -16.555833
-64.361992 -16.678977 -16.827769
-63.546484 -8.047304 -21.624724
-63.793495 -8.853189 -20.262783
-63.677763 -7.530998 -20.496626
-63.546484 -8.047304 -21.624724
-63.386274 -7.342322 -22.967666
-62.366581 -1.717165 -26.684141
-62.296566 -1.271327 -25.471737
-62.076328 -0.47055 -26.945013
-62.647213 -3.109757 -26.359834
-62.366581 -1.717165 -26.684141
-62.808533 -3.848557 -24.938051
-62.647213 -3.109757 -26.359834
-56.92268 6.847874 -27.182277
-56.122192 7.087985 -27.545583
-57.306076 7.63289 -28.318107
-57.646953 6.396192 -26.854019
-56.92268 6.847874 -27.182277
-53.63749 9.906433 -31.065285
-53.161099 11.086095 -32.478842
-54.501023 9.796829 -30.764217
-54.113007 8.729452 -29.605201
-53.63749 9.906433 -31.065285
-58.093108 8.994924 -33.275152
-58.606556 8.029169 -31.71886
-57.966707 8.972687 -32.003217
-56.820257 10.793343 -35.117434
-56.738659 10.682924 -33.841164
-56.105657 11.537824 -35.399088
-57.536286 9.807958 -34.829954
-56.820257 10.793343 -35.117434
-58.093108 8.994924 -33.275152
-57.536286 9.807958 -34.829954
3 0 76 75
3 1 79 77
3 1 81 79
3 4 84 82
3 4 86 84
3 4 88 86
3 3 91 89
3 3 93 91
3 2 96 94
3 6 99 97
3 6 101 99
3 6 103 101
3 8 106 104
3 8 108 106
3 10 111 109
3 10 113 111
3 291 116 292
3 293 118 294
3 296 295 118
3 297 121 298
3 299 298 119
3 297 298 299
3 12 124 122
3 12 126 124
3 300 127 301
3 302 129 303
3 304 303 127
3 302 303 304
3 306 305 129
3 307 133 308
3 309 119 310
3 311 310 133
3 309 310 311
3 5 312 314
3 312 135 313
3 312 313 314
3 14 138 136
3 14 140 138
3 14 142 140
3 15 145 143
3 15 147 145
3 15 149 147
3 316 315 150
3 7 153 151
3 318 317 154
3 13 158 156
3 13 160 158
3 11 163 161
3 9 166 164
3 16 319 321
3 319 168 320
3 319 320 321
3 18 169 78
3 18 170 169
3 18 172 170
3 20 173 80
3 20 174 173
3 322 175 323
3 21 178 176
3 23 179 83
3 23 180 179
3 23 182 180
3 25 183 85
3 25 184 183
3 25 186 184
3 27 187 87
3 27 188 187
3 28 191 189
3 30 192 90
3 30 193 192
3 30 195 193
3 32 196 92
3 32 197 196
3 33 200 198
3 34 201 95
3 34 324 326
3 326 325 201
3 324 325 326
3 37 327 328
3 37 329 330
3 331 202 332
3 17 333 335
3 333 203 334
3 333 334 335
3 38 204 98
3 38 205 204
3 38 206 205
3 39 207 100
3 39 208 207
3 39 210 208
3 41 211 102
3 41 212 211
3 19 213 171
3 42 214 105
3 42 215 214
3 42 216 215
3 43 217 107
3 43 218 217
3 336 220 337
3 45 338 340
3 338 221 339
3 338 339 340
3 45 222 221
3 341 223 342
3 46 224 110
3 46 225 224
3 46 226 225
3 344 343 112
3 47 345 346
3 47 347 349
3 347 227 348
3 347 348 349
3 47 350 352
3 352 351 227
3 350 351 352
3 48 353 355
3 355 354 114
3 353 354 355
3 48 356 357
3 49 358 359
3 49 360 362
3 360 228 361
3 360 361 362
3 36 363 364
3 50 365 367
3 367 366 115
3 365 366 367
3 50 368 370
3 368 229 369
3 368 369 370
3 371 230 372
3 51 231 117
3 51 232 231
3 51 373 375
3 375 374 232
3 373 374 375
3 52 235 233
3 54 236 120
3 54 237 236
3 376 238 377
3 378 239 379
3 380 379 238
3 378 379 380
3 381 240 382
3 383 382 239
3 381 382 383
3 55 241 123
3 55 384 386
3 386 385 241
3 384 385 386
3 55 387 389
3 387 242 388
3 387 388 389
3 56 243 125
3 56 244 243
3 57 390 391
3 57 392 394
3 392 245 393
3 392 393 394
3 57 246 245
3 58 247 128
3 58 248 247
3 58 249 248
3 59 250 130
3 59 251 250
3 395 252 396
3 397 253 398
3 399 398 252
3 397 398 399
3 400 254 401
3 402 255 403
3 404 403 254
3 402 403 404
3 60 405 407
3 405 256 406
3 405 406 407
3 60 257 256
3 60 258 257
3 61 259 131
3 61 260 259
3 408 261 409
3 62 262 132
3 62 263 262
3 62 264 263
3 52 265 134
3 52 233 265
3 64 410 412
3 410 267 411
3 410 411 412
3 64 268 267
3 22 269 177
3 65 270 137
3 65 413 415
3 415 414 270
3 413 414 415
3 65 416 418
3 416 271 417
3 416 417 418
3 66 272 139
3 66 273 272
3 66 419 421
3 421 420 273
3 419 420 421
3 67 422 424
3 424 423 141
3 422 423 424
3 67 425 426
3 24 274 181
3 68 275 144
3 68 427 429
3 429 428 275
3 427 428 429
3 68 430 431
3 69 432 434
3 434 433 146
3 432 433 434
3 69 435 436
3 69 437 438
3 70 439 441
3 441 440 148
3 439 440 441
3 70 442 443
3 26 276 185
3 40 277 209
3 71 278 152
3 71 279 278
3 29 280 190
3 444 281 445
3 446 445 155
3 444 445 446
3 448 447 281
3 31 449 451
3 451 450 194
3 449 450 451
3 72 452 454
3 454 453 157
3 452 453 454
3 72 455 456
3 72 457 458
3 63 282 159
3 63 266 282
3 53 283 234
3 460 459 162
3 462 461 199
3 44 284 219
3 463 285 464
3 465 464 165
3 463 464 465
3 467 466 285
3 73 468 469
3 73 470 472
3 470 286 471
3 470 471 472
3 35 473 475
3 473 287 474
3 473 474 475
3 74 288 167
3 74 289 288
3 74 290 289
3 75 476 477
3 76 478 480
3 480 479 75
3 478 479 480
3 76 481 482
3 77 78 16
3 79 78 77
3 79 18 78
3 79 80 18
3 81 80 79
3 81 20 80
3 82 83 21
3 84 83 82
3 84 23 83
3 84 85 23
3 86 85 84
3 86 25 85
3 86 87 25
3 88 87 86
3 88 27 87
3 89 90 28
3 91 90 89
3 91 30 90
3 91 92 30
3 93 92 91
3 93 32 92
3 94 95 33
3 96 95 94
3 96 34 95
3 483 37 484
3 483 484 485
3 97 98 17
3 99 98 97
3 99 38 98
3 99 100 38
3 101 100 99
3 101 39 100
3 101 102 39
3 103 102 101
3 103 41 102
3 104 105 19
3 106 105 104
3 106 42 105
3 106 107 42
3 108 107 106
3 108 43 107
3 486 45 487
3 109 488 490
3 488 110 489
3 488 489 490
3 111 110 109
3 111 46 110
3 111 112 46
3 113 112 111
3 113 491 493
3 493 492 112
3 491 492 493
3 494 47 495
3 496 114 497
3 498 497 47
3 496 497 498
3 499 114 500
3 501 48 502
3 503 502 114
3 501 502 503
3 504 49 505
3 506 115 507
3 508 507 36
3 506 507 508
3 116 509 511
3 509 115 510
3 509 510 511
3 116 50 115
3 512 117 513
3 514 117 515
3 516 51 517
3 518 517 117
3 516 517 518
3 520 519 51
3 118 521 522
3 118 523 524
3 118 525 526
3 528 527 118
3 119 120 52
3 121 120 119
3 121 54 120
3 122 529 531
3 529 123 530
3 529 530 531
3 124 123 122
3 124 55 123
3 124 125 55
3 126 125 124
3 126 56 125
3 127 532 533
3 127 534 536
3 534 57 535
3 534 535 536
3 127 128 57
3 129 128 127
3 129 58 128
3 129 130 58
3 537 130 538
3 539 538 129
3 537 538 539
3 540 59 541
3 542 541 130
3 540 541 542
3 543 60 544
3 545 131 546
3 547 546 60
3 545 546 547
3 548 131 549
3 550 61 551
3 552 551 131
3 550 551 552
3 553 132 554
3 133 555 557
3 555 132 556
3 555 556 557
3 133 62 132
3 133 134 62
3 119 134 133
3 119 52 134
3 558 64 559
3 135 560 561
3 135 562 563
3 136 137 22
3 138 137 136
3 138 65 137
3 138 139 65
3 140 139 138
3 140 66 139
3 140 141 66
3 142 141 140
3 142 67 141
3 143 144 24
3 145 144 143
3 145 68 144
3 145 146 68
3 147 146 145
3 147 69 146
3 147 148 69
3 149 148 147
3 149 70 148
3 150 564 566
3 566 565 26
3 564 565 566
3 568 567 150
3 151 152 40
3 153 152 151
3 153 71 152
3 154 155 29
3 569 155 570
3 571 570 154
3 569 570 571
3 573 572 155
3 156 157 31
3 158 157 156
3 158 72 157
3 158 159 72
3 160 159 158
3 160 63 159
3 161 162 53
3 163 162 161
3 163 574 576
3 576 575 162
3 574 575 576
3 164 165 44
3 166 165 164
3 166 577 579
3 579 578 165
3 577 578 579
3 580 73 581
3 582 167 583
3 584 583 35
3 582 583 584
3 585 167 586
3 587 74 588
3 589 588 167
3 587 588 589
3 591 590 74
3 168 592 593
3 168 594 596
3 594 17 595
3 594 595 596
3 78 168 16
3 169 168 78
3 169 17 168
3 169 97 17
3 170 97 169
3 170 6 97
3 170 171 6
3 172 171 170
3 172 19 171
3 80 172 18
3 173 172 80
3 173 19 172
3 173 104 19
3 174 104 173
3 174 8 104
3 597 109 598
3 599 109 600
3 601 10 602
3 603 602 109
3 601 602 603
3 175 604 605
3 175 606 607
3 608 122 609
3 610 122 611
3 612 12 613
3 614 613 122
3 612 613 614
3 176 177 5
3 178 177 176
3 178 22 177
3 83 178 21
3 179 178 83
3 179 22 178
3 179 136 22
3 180 136 179
3 180 14 136
3 180 181 14
3 182 181 180
3 182 24 181
3 85 182 23
3 183 182 85
3 183 24 182
3 183 143 24
3 184 143 183
3 184 15 143
3 184 185 15
3 186 185 184
3 186 26 185
3 87 186 25
3 187 186 87
3 187 26 186
3 187 150 26
3 188 150 187
3 188 615 617
3 617 616 150
3 615 616 617
3 189 190 7
3 191 190 189
3 191 29 190
3 90 191 28
3 192 191 90
3 192 29 191
3 192 154 29
3 193 154 192
3 193 618 620
3 620 619 154
3 618 619 620
3 193 621 623
3 621 194 622
3 621 622 623
3 195 194 193
3 195 31 194
3 92 195 30
3 196 195 92
3 196 31 195
3 196 156 31
3 197 156 196
3 197 13 156
3 198 199 11
3 200 199 198
3 200 624 626
3 626 625 199
3 624 625 626
3 95 200 33
3 201 200 95
3 201 627 629
3 629 628 200
3 627 628 629
3 201 630 631
3 633 632 201
3 635 634 9
3 636 35 637
3 638 35 639
3 641 640 35
3 642 36 643
3 644 36 645
3 647 646 36
3 202 648 649
3 202 650 652
3 650 5 651
3 650 651 652
3 203 653 654
3 203 655 656
3 98 203 17
3 204 203 98
3 204 657 659
3 659 658 203
3 657 658 659
3 204 660 662
3 660 202 661
3 660 661 662
3 205 202 204
3 205 5 202
3 205 176 5
3 206 176 205
3 206 21 176
3 100 206 38
3 207 206 100
3 207 21 206
3 207 82 21
3 208 82 207
3 208 4 82
3 208 209 4
3 210 209 208
3 210 40 209
3 102 210 39
3 211 210 102
3 211 40 210
3 211 151 40
3 212 151 211
3 212 7 151
3 171 103 6
3 213 103 171
3 213 41 103
3 105 213 19
3 214 213 105
3 214 41 213
3 214 212 41
3 215 212 214
3 215 7 212
3 215 189 7
3 216 189 215
3 216 28 189
3 107 216 42
3 217 216 107
3 217 28 216
3 217 89 28
3 218 89 217
3 218 3 89
3 663 219 664
3 665 664 2
3 663 664 665
3 220 666 668
3 666 219 667
3 666 667 668
3 220 44 219
3 669 220 670
3 221 671 673
3 671 220 672
3 671 672 673
3 221 44 220
3 221 164 44
3 222 164 221
3 222 9 164
3 223 674 675
3 223 676 678
3 676 45 677
3 676 677 678
3 110 679 681
3 679 223 680
3 679 680 681
3 224 223 110
3 224 45 223
3 224 222 45
3 225 222 224
3 225 9 222
3 225 682 684
3 684 683 9
3 682 683 684
3 226 685 687
3 687 686 225
3 685 686 687
3 226 688 689
3 112 226 46
3 690 226 691
3 692 691 112
3 690 691 692
3 694 693 226
3 227 695 696
3 227 697 698
3 227 699 700
3 702 701 227
3 114 703 705
3 705 704 47
3 703 704 705
3 707 706 114
3 708 48 709
3 710 48 711
3 713 712 48
3 714 16 715
3 716 16 717
3 718 77 719
3 720 719 16
3 718 719 720
3 228 721 723
3 721 77 722
3 721 722 723
3 228 1 77
3 115 724 726
3 726 725 36
3 724 725 726
3 728 727 115
3 229 729 730
3 229 731 732
3 733 116 734
3 230 735 737
3 735 116 736
3 735 736 737
3 230 50 116
3 117 738 740
3 738 230 739
3 738 739 740
3 231 230 117
3 231 50 230
3 231 229 50
3 232 229 231
3 232 741 743
3 743 742 229
3 741 742 743
3 232 744 745
3 747 746 232
3 749 748 51
3 750 175 751
3 752 175 753
3 755 754 175
3 233 234 0
3 235 234 233
3 235 53 234
3 120 235 52
3 236 235 120
3 236 53 235
3 236 161 53
3 237 161 236
3 237 11 161
3 756 121 757
3 758 121 759
3 760 54 761
3 762 761 121
3 760 761 762
3 238 763 764
3 238 765 767
3 765 54 766
3 765 766 767
3 238 237 54
3 239 237 238
3 239 11 237
3 239 198 11
3 240 198 239
3 240 33 198
3 768 240 769
3 770 240 771
3 772 33 773
3 774 773 240
3 772 773 774
3 775 94 776
3 777 776 33
3 775 776 777
3 778 94 779
3 780 2 781
3 782 781 94
3 780 781 782
3 783 2 784
3 786 785 2
3 123 787 788
3 241 789 791
3 791 790 123
3 789 790 791
3 241 792 793
3 241 794 795
3 797 796 241
3 242 798 799
3 242 800 802
3 800 49 801
3 800 801 802
3 125 242 55
3 243 242 125
3 243 49 242
3 243 228 49
3 244 228 243
3 244 1 228
3 803 12 804
3 245 805 806
3 245 807 809
3 807 12 808
3 807 808 809
3 245 126 12
3 246 126 245
3 246 56 126
3 128 246 57
3 247 246 128
3 247 56 246
3 247 244 56
3 248 244 247
3 248 1 244
3 248 81 1
3 249 81 248
3 249 20 81
3 130 249 58
3 250 249 130
3 250 20 249
3 250 174 20
3 251 174 250
3 251 8 174
3 810 59 811
3 812 59 813
3 814 251 815
3 816 815 59
3 814 815 816
3 252 817 819
3 817 251 818
3 817 818 819
3 252 8 251
3 252 108 8
3 253 108 252
3 253 43 108
3 820 253 821
3 254 822 824
3 822 253 823
3 822 823 824
3 254 43 253
3 254 218 43
3 255 218 254
3 255 3 218
3 256 825 826
3 256 827 828
3 256 829 831
3 829 255 830
3 829 830 831
3 257 255 256
3 257 3 255
3 257 93 3
3 258 93 257
3 258 32 93
3 131 258 60
3 259 258 131
3 259 32 258
3 259 197 32
3 260 197 259
3 260 13 197
3 261 832 833
3 261 834 836
3 834 61 835
3 834 835 836
3 132 837 839
3 837 261 838
3 837 838 839
3 262 261 132
3 262 61 261
3 262 260 61
3 263 260 262
3 263 13 260
3 263 160 13
3 264 160 263
3 264 63 160
3 134 264 62
3 265 264 134
3 265 63 264
3 265 266 63
3 233 266 265
3 233 0 266
3 840 37 841
3 840 841 842
3 267 843 844
3 267 845 847
3 845 37 846
3 845 846 847
3 267 848 850
3 850 849 37
3 848 849 850
3 268 851 853
3 853 852 267
3 851 852 853
3 268 854 855
3 177 135 5
3 269 135 177
3 269 856 858
3 858 857 135
3 856 857 858
3 137 269 22
3 270 269 137
3 270 859 861
3 861 860 269
3 859 860 861
3 270 862 863
3 865 864 270
3 271 866 867
3 271 868 870
3 868 64 869
3 868 869 870
3 139 271 65
3 272 271 139
3 272 64 271
3 272 268 64
3 273 268 272
3 273 871 873
3 873 872 268
3 871 872 873
3 273 874 875
3 877 876 273
3 141 878 880
3 880 879 66
3 878 879 880
3 882 881 141
3 181 142 14
3 274 142 181
3 274 67 142
3 144 274 24
3 275 274 144
3 275 67 274
3 275 883 885
3 885 884 67
3 883 884 885
3 887 886 275
3 146 888 890
3 890 889 68
3 888 889 890
3 892 891 146
3 148 893 895
3 895 894 69
3 893 894 895
3 897 896 148
3 185 149 15
3 276 149 185
3 276 70 149
3 898 276 899
3 900 899 26
3 898 899 900
3 901 276 902
3 903 70 904
3 905 904 276
3 903 904 905
3 907 906 70
3 209 88 4
3 277 88 209
3 277 27 88
3 152 277 40
3 278 277 152
3 278 27 277
3 278 188 27
3 279 188 278
3 279 908 910
3 910 909 188
3 908 909 910
3 190 153 7
3 280 153 190
3 280 71 153
3 155 280 29
3 281 280 155
3 281 71 280
3 281 279 71
3 911 279 912
3 913 912 281
3 911 912 913
3 915 914 279
3 194 916 917
3 919 918 194
3 157 920 922
3 922 921 31
3 920 921 922
3 924 923 157
3 159 925 927
3 927 926 72
3 925 926 927
3 282 928 930
3 930 929 159
3 928 929 930
3 282 931 932
3 282 933 935
3 933 75 934
3 933 934 935
3 266 75 282
3 266 0 75
3 234 76 0
3 283 76 234
3 283 936 938
3 938 937 76
3 936 937 938
3 162 283 53
3 939 283 940
3 941 940 162
3 939 940 941
3 943 942 283
3 199 163 11
3 944 163 945
3 946 945 199
3 944 945 946
3 948 947 163
3 219 96 2
3 284 96 219
3 284 34 96
3 165 284 44
3 285 284 165
3 285 34 284
3 285 949 951
3 951 950 34
3 949 950 951
3 953 952 285
3 954 166 955
3 956 955 9
3 954 955 956
3 957 166 958
3 960 959 166
3 286 961 962
3 286 963 965
3 963 10 964
3 963 964 965
3 287 966 967
3 287 968 970
3 968 73 969
3 968 969 970
3 167 287 35
3 288 287 167
3 288 73 287
3 288 286 73
3 289 286 288
3 289 10 286
3 289 113 10
3 290 113 289
3 290 971 973
3 973 972 113
3 971 972 973
3 974 290 975
3 976 975 74
3 974 975 976
3 977 290 978
3 980 979 290
