ply
format ascii 1.0
element vertex 948
property float x
property float y
property float z
element face 905
property list uchar int vertex_index
end_header
-2.725733 -58.574894 3.758702
-7.012196 -82.973381 20.524376
-26.266478 -25.451096 -37.110443
-29.23613 -49.417393 -26.074108
-8.017303 -70.113129 4.636198
-45.876541 -92.557465 22.219387
-18.331291 -53.325268 -18.17971
-24.0476 -45.186226 -24.320877
-7.204556 -55.622253 -2.746944
-9.163219 -80.607254 12.313556
-4.517588 -71.774597 11.751742
-29.491798 -25.088177 -40.247883
-33.298153 -52.288334 -29.894562
-32.927296 -37.273296 -34.490082
-27.184557 -35.627064 -32.199673
-44.522537 -94.182297 27.81094
-4.916077 -57.096714 0.354098
-37.606953 -97.715546 36.450439
-34.612648 -98.629761 33.536285
-7.996157 -81.633194 16.261808
-4.609783 -80.214409 24.703579
-5.284277 -78.648438 20.319653
-6.052387 -77.329361 16.070841
-26.379051 -15.631702 -42.871262
-26.212318 -20.168671 -41.322517
-26.832462 -25.024038 -39.1106
-35.80761 -44.795197 -33.880188
-26.461775 -47.283997 -25.052055
-25.909779 -40.582932 -28.095852
-28.442459 -42.042072 -29.083435
-29.955265 -36.499519 -33.30394
-31.219561 -43.45713 -30.338249
-5.352266 -64.487366 4.040823
-7.077211 -63.194149 0.656917
-45.867462 -95.605682 17.087057
-46.984528 -90.869705 16.664846
-47.616196 -86.164597 15.537721
-40.237991 -98.930817 32.045212
-42.584373 -98.549118 27.245358
-44.436371 -97.229477 22.218061
-17.815468 -50.525764 -16.837193
-20.670231 -47.244858 -19.886322
-23.068661 -43.569176 -23.20113
-21.465721 -49.434757 -21.030926
-23.712944 -52.167694 -21.566341
-26.561584 -54.994633 -22.23035
-10.491348 -79.628021 8.881107
-3.372252 -72.864807 15.780493
-7.148821 -76.267342 12.099067
-8.605165 -75.423981 8.595432
-0.862133 -60.026714 7.517542
-3.516859 -65.675293 7.662637
-6.169491 -70.868896 8.05946
-31.476929 -51.181538 -27.748413
-33.568478 -44.456329 -32.024487
-35.594307 -37.577194 -35.863068
-34.565426 -31.2523 -38.089081
-24.766016 -39.499645 -26.851711
-25.756668 -35.029621 -30.813423
-26.293842 -30.178829 -34.965237
-28.23621 -30.395111 -36.351528
-31.388723 -30.86953 -37.289059
-3.79657 -57.835354 2.013212
-37.473003 -99.571671 33.059036
-36.131634 -98.353088 35.083794
-7.490238 -82.255569 18.362106
-8.372475 -83.817657 16.275677
-7.814356 -84.443375 18.37953
-5.90172 -81.590637 22.639942
-4.95163 -79.408401 22.498245
-6.311924 -80.809776 20.445192
-6.729755 -80.104393 18.292196
-26.564693 -23.247139 -37.931919
-26.323151 -20.593979 -40.070599
-26.18224 -22.844746 -39.22897
-26.41423 -22.5457 -40.294254
-26.24371 -25.179245 -38.221741
-27.878237 -48.374573 -25.49157
-27.534513 -44.70689 -27.017998
-28.945772 -45.620956 -27.535698
-29.865578 -42.780922 -29.655472
-30.287498 -46.479366 -28.186333
-6.711256 -67.359131 4.299847
-7.567223 -66.839043 2.609109
-8.842218 -69.73381 2.987334
-45.939575 -94.07486 19.671549
-46.533714 -93.238617 16.990099
-46.439247 -91.711929 19.425671
-47.990433 -83.84111 14.83821
-41.537983 -97.25116 32.826096
-41.465897 -98.90303 29.682407
-42.668053 -96.96489 30.296089
-45.251148 -93.393921 25.022064
-44.541882 -95.70845 25.042904
-45.287769 -94.907791 22.362566
-45.19136 -96.427826 19.657553
-16.384926 -53.481354 -16.24036
-17.913414 -51.837337 -17.634754
-19.276432 -48.935349 -18.335686
-19.429087 -50.092888 -19.070477
-20.869617 -48.252434 -20.571789
-19.945568 -51.426849 -19.561611
-22.036377 -54.475639 -20.073593
-25.135208 -53.598869 -21.837177
-7.80743 -62.486889 -0.946453
-40.891636 -102.101547 23.253872
-9.823429 -80.131233 10.515786
-7.70142 -78.931221 14.164153
-6.550791 -76.771194 14.037382
-8.293793 -78.432648 12.234839
-8.952969 -77.963326 10.434298
-2.177269 -62.89238 7.560797
-3.200033 -69.362534 11.613988
-3.977255 -68.843826 9.68573
-5.292229 -71.298187 9.863708
-7.432306 -73.227585 8.329041
-6.595566 -73.611145 10.076262
-26.291742 -15.099251 -44.262024
-26.33606 -12.820488 -44.961838
-31.222336 -55.254005 -26.632294
-32.393677 -51.831467 -28.790314
-32.54155 -47.856796 -29.913258
-33.523186 -48.308437 -30.922356
-37.086765 -40.995979 -35.655682
-35.794231 -41.092903 -34.846588
-36.910015 -37.472137 -36.584545
-36.543926 -34.187744 -37.550312
-23.339371 -44.296188 -23.849865
-24.011345 -41.584229 -24.983604
-24.314404 -42.18092 -25.645554
-26.601688 -38.146751 -30.122448
-25.737682 -37.668777 -29.523487
-26.235281 -35.273445 -31.568748
-26.0567 -32.648663 -32.876522
-26.648682 -32.79277 -33.649387
-27.034994 -30.239014 -35.733418
-27.710625 -33.036381 -34.289303
-31.471258 -36.92276 -33.873032
-30.661238 -33.673691 -35.350605
-32.243969 -33.978241 -35.854404
-33.027229 -31.104134 -37.686432
-33.758121 -34.204723 -36.378807
-9.212864 -72.694366 5.041702
-6.056721 -56.360298 -1.227999
-36.286861 -96.40538 38.437176
-34.813934 -96.68071 37.004272
-8.550533 -81.094063 14.238337
-8.976858 -83.289551 14.255445
-3.80335 -77.18222 22.334908
-4.054247 -76.44339 20.169189
-4.353689 -75.759766 18.025833
-5.639685 -77.953278 18.172453
-7.184326 -79.481339 16.192024
-27.015409 -16.235132 -41.234402
-26.620432 -18.398113 -40.742607
-26.212324 -17.869963 -42.185314
-27.963383 -24.994308 -39.780502
-34.538403 -48.570377 -31.953106
-25.131758 -46.200996 -24.690945
-25.06715 -42.929733 -26.153412
-26.188074 -43.790321 -26.582561
-27.071383 -41.290943 -28.584663
-27.818356 -38.707375 -30.658855
-28.477577 -36.051445 -32.760136
-29.232002 -39.299644 -31.197086
-30.690784 -39.871773 -31.788422
-32.08633 -40.375763 -32.460194
-4.001715 -61.545902 3.861216
-4.967661 -60.842754 2.121093
-6.25021 -63.85812 2.319322
-8.299751 -66.27475 0.965056
-46.760231 -89.351212 18.966503
-47.311565 -88.509003 16.162409
-38.937145 -98.552643 34.310501
-38.80442 -100.315948 30.940235
-40.084549 -100.609604 28.740517
-41.274937 -100.512634 26.472202
-42.350601 -100.109131 24.145823
-43.672703 -96.42038 27.69384
-43.573944 -97.961319 24.752228
-43.306198 -99.492966 21.771116
-7.288706 -85.179306 20.557373
-6.781679 -86.014023 22.804144
-15.006043 -51.941681 -12.783915
-16.447014 -50.709579 -14.269747
-16.34609 -52.015327 -15.375389
-17.928112 -49.379993 -15.787994
-19.395203 -47.947449 -17.345436
-20.794205 -46.409142 -18.949848
-22.076759 -44.763977 -20.609241
-23.203819 -43.011429 -22.330662
-21.946938 -45.455872 -21.504185
-22.184818 -46.319717 -22.160149
-22.843277 -47.354095 -22.612976
-20.836308 -52.906456 -19.866398
-22.443695 -50.758595 -21.331089
-23.883179 -48.523224 -22.936771
-25.191936 -49.770599 -23.226711
-26.617447 -51.034191 -23.578701
-28.00927 -52.257355 -24.06995
-5.922642 -60.120296 0.454003
-6.842569 -59.376099 -1.143776
-3.874166 -72.296738 13.727604
-4.738047 -75.137413 15.921577
-5.234676 -74.573929 13.880189
-5.855732 -74.06456 11.926208
-7.840992 -75.812424 10.280883
-9.646317 -77.519623 8.793617
-10.329185 -77.153549 7.335767
-1.737247 -59.308796 5.594224
-3.059376 -62.229729 5.674938
-4.425089 -65.090454 5.821389
-5.786175 -67.854553 6.038215
-2.673273 -66.248787 9.567846
-4.855007 -68.344368 7.830195
-7.100527 -70.480774 6.323037
-8.326427 -72.927032 6.66153
-9.417482 -75.156067 7.020934
-26.664787 -13.440847 -43.361515
-29.257133 -53.393211 -24.744797
-30.317642 -54.403286 -25.608822
-30.442282 -50.365929 -26.829315
-31.48571 -47.23708 -28.985535
-32.448341 -44.027489 -31.136524
-33.376755 -40.768913 -33.211941
-34.654388 -44.717007 -32.956154
-34.587906 -41.015709 -34.019726
-34.291172 -37.504601 -35.157726
-35.178143 -34.291786 -36.941277
-26.392595 -27.971813 -34.987808
-24.147671 -41.150841 -24.119114
-24.893261 -39.181442 -25.976849
-25.439568 -37.102962 -27.902828
-25.108433 -39.972038 -27.541668
-25.339823 -37.314499 -28.799118
-25.801058 -34.916367 -29.892227
-26.008743 -32.624413 -31.935707
-26.109852 -30.231995 -34.018787
-26.165195 -27.746616 -36.12191
-26.530899 -27.631655 -37.052624
-27.454502 -27.630867 -37.787476
-28.814854 -27.732748 -38.348331
-29.102396 -33.344173 -34.841316
-29.743519 -30.617588 -36.856846
-30.443535 -27.916645 -38.76643
-32.164188 -28.154472 -39.07869
-33.822006 -28.401058 -39.328117
-3.261151 -58.205124 2.885957
-2.693303 -56.720286 2.869992
-2.157884 -57.090056 3.742737
-36.703598 -99.89991 32.321154
-37.365716 -100.468643 31.319883
-42.106928 -96.295257 33.038525
-41.555868 -96.392914 34.332313
-42.671963 -96.152122 31.773522
-42.103018 -97.108025 31.561093
-42.106928 -96.295257 33.038525
-18.122352 -52.581302 -17.907232
-17.300148 -53.479829 -17.243771
-17.509087 -54.223795 -17.516248
-7.062137 -54.212688 -2.737099
-6.350856 -54.545443 -1.984196
-7.783482 -55.248455 -3.483148
-7.062137 -54.212688 -2.737099
-40.575608 -102.894783 21.666065
-41.398781 -101.880707 22.146959
-9.746037 -81.482429 11.42297
-10.076142 -81.244419 10.524085
-9.493324 -80.369243 11.414671
-26.444608 -13.707022 -45.277535
-26.562871 -14.903456 -44.819032
-29.896408 -23.797648 -41.139023
-29.049423 -23.725365 -40.968311
-30.363811 -25.193699 -40.393526
-29.896408 -23.797648 -41.139023
-32.68132 -54.101333 -28.827841
-33.133562 -54.322481 -29.41256
-32.845915 -52.0599 -29.342438
-32.229082 -53.8729 -28.275717
-32.68132 -54.101333 -28.827841
-37.614872 -37.336776 -36.942793
-36.99839 -39.234058 -36.120114
-37.703247 -39.098698 -36.478361
-37.422344 -35.679241 -37.392198
-37.614872 -37.336776 -36.942793
-10.098901 -73.853527 4.513095
-9.726144 -73.866951 5.270677
-4.516966 -55.625807 0.34873
-3.860081 -55.982284 1.170701
-5.486399 -56.728506 -0.436951
-5.087288 -55.257599 -0.442318
-4.516966 -55.625807 0.34873
-36.946907 -97.060463 37.443808
-37.015953 -96.082519 39.03517
-37.675999 -96.737603 38.041801
-33.966198 -97.627808 34.491076
-34.066841 -96.653282 36.225069
-34.713291 -97.655236 35.270279
-33.826179 -98.617424 32.736669
-33.966198 -97.627808 34.491076
-8.637853 -84.677139 15.251565
-8.309531 -84.938194 16.261623
-4.08658 -79.087193 24.609963
-3.95624 -79.483387 25.710125
-26.811295 -19.746411 -39.66587
-27.064354 -18.680046 -39.910911
-26.314558 -18.807223 -42.348506
-26.314561 -17.657869 -42.779905
-26.212321 -19.019317 -41.753915
-26.474158 -20.018546 -41.820892
-26.314558 -18.807223 -42.348506
-27.044539 -23.701687 -40.112364
-26.835423 -22.462519 -40.704191
-26.623346 -23.784869 -39.702427
-27.397922 -25.009173 -39.445551
-27.61 -23.686822 -40.447315
-27.044539 -23.701687 -40.112364
-8.902234 -67.791664 1.169503
-7.933487 -66.556896 1.787083
-8.53597 -68.073811 1.991529
-9.128964 -67.541489 0.382394
-8.902234 -67.791664 1.169503
-46.179636 -95.19429 15.805913
-45.745861 -96.380325 15.780598
-47.044465 -91.635223 15.502185
-46.819057 -92.81968 15.664811
-46.759121 -92.054161 16.827472
-47.268993 -90.444939 15.312611
-47.044465 -91.635223 15.502185
-46.618576 -88.596718 20.105591
-46.504389 -89.774757 20.397588
-47.463881 -87.3368 15.850065
-47.152315 -87.754837 17.256175
-47.304631 -86.582634 16.943831
-47.78162 -86.909302 14.488984
-47.629305 -88.081505 14.801328
-47.463881 -87.3368 15.850065
-48.002167 -85.738678 14.18392
-47.78162 -86.909302 14.488984
-48.472336 -83.420715 13.50355
-48.245632 -82.689346 14.467403
-39.587568 -98.74173 33.177857
-39.624984 -97.871116 34.781588
-40.275408 -98.060204 33.648943
-44.09762 -95.301338 27.75239
-43.668962 -95.639374 29.128422
-44.093879 -94.520332 29.186972
-44.295609 -97.991157 20.788384
-43.730522 -99.122902 20.564912
-43.871285 -98.361221 21.994588
-45.393723 -96.782471 17.004215
-45.055672 -97.193543 18.289463
-45.529411 -96.016754 18.372305
-45.745861 -96.380325 15.780598
-45.393723 -96.782471 17.004215
-6.420362 -85.329658 23.906781
-6.660983 -84.896164 22.772481
-14.968269 -52.67371 -13.360591
-14.316333 -53.32186 -12.648861
-15.688754 -52.057659 -14.103507
-15.726529 -51.32563 -13.526831
-14.968269 -52.67371 -13.360591
-20.517173 -54.798361 -19.29718
-19.970664 -53.933981 -19.191893
-7.640353 -60.552448 -1.818472
-7.325 -60.931494 -1.045114
-8.122784 -62.107844 -1.71981
-7.28166 -58.990885 -1.911804
-7.640353 -60.552448 -1.818472
-11.071216 -80.404453 8.1466
-10.791055 -79.356346 8.172985
-7.467326 -85.937531 19.459543
-7.191905 -86.318641 20.561152
-2.713671 -71.671943 15.733393
-2.537303 -71.975902 16.791831
-3.623209 -72.580772 14.754048
-2.964628 -71.387909 14.706948
-2.713671 -71.671943 15.733393
-10.791055 -79.356346 8.172985
-10.368539 -78.302147 8.12924
-10.068832 -78.573822 8.837362
-0.235194 -58.56534 7.519261
0.123675 -58.927482 8.542145
-1.29969 -59.667755 6.555883
-0.672751 -58.206381 6.557602
-0.235194 -58.56534 7.519261
-2.302258 -66.532917 10.553753
-1.691918 -65.197887 10.552133
-26.424295 -11.712395 -45.2043
-26.430509 -11.409277 -45.983982
-29.12585 -55.449083 -24.160618
-28.563557 -54.851 -23.774052
-36.264989 -32.696616 -38.050501
-36.950594 -32.538224 -38.330731
-26.439305 -29.183926 -33.934995
-26.764497 -28.126038 -34.323923
-34.933808 -29.904257 -38.833927
-34.562098 -28.478637 -39.453445
-34.193716 -29.826679 -38.708599
-3.300327 -56.351605 2.000258
-2.693303 -56.720286 2.869992
-4.356324 -57.466034 1.183655
-3.860081 -55.982284 1.170701
-3.300327 -56.351605 2.000258
-36.032913 -99.290618 33.333534
-36.802318 -98.962379 34.071415
-36.703598 -99.89991 32.321154
-35.273421 -99.428955 32.559779
-35.372141 -98.491424 34.31004
-36.032913 -99.290618 33.333534
-34.466263 -99.589714 31.768961
-35.273421 -99.428955 32.559779
-8.030471 -85.251053 17.313549
-8.309531 -84.938194 16.261623
-8.093415 -84.130516 17.327604
-26.443922 -21.920559 -39.001259
-26.662655 -20.844344 -39.329867
-26.783426 -22.170924 -38.260526
-9.173468 -69.521194 2.180642
-8.53597 -68.073811 1.991529
-8.204721 -68.286427 2.798222
-47.42492 -85.414872 16.583505
-47.304631 -86.582634 16.943831
-47.612038 -84.253128 16.233749
-47.803314 -85.002854 15.187966
-47.42492 -85.414872 16.583505
-47.778572 -83.093815 15.842384
-47.612038 -84.253128 16.233749
-48.245632 -82.689346 14.467403
-47.778572 -83.093815 15.842384
-40.925404 -97.220375 34.039385
-41.555868 -96.392914 34.332313
-40.887987 -98.090989 32.435654
-40.275408 -98.060204 33.648943
-40.925404 -97.220375 34.039385
-16.535904 -54.301838 -16.546574
-15.736383 -55.146031 -15.894366
-17.14917 -52.659346 -16.937557
-16.535904 -54.301838 -16.546574
-17.300148 -53.479829 -17.243771
-21.776676 -56.460279 -19.490911
-21.117207 -55.582953 -19.400778
-22.731884 -55.272689 -20.178739
-21.776676 -56.460279 -19.490911
-23.570168 -54.118717 -20.925114
-22.874661 -53.321666 -20.819967
-22.731884 -55.272689 -20.178739
-24.281299 -54.834305 -21.060531
-24.424076 -52.883281 -21.701759
-23.570168 -54.118717 -20.925114
-25.002365 -55.614458 -21.213324
-24.281299 -54.834305 -21.060531
-25.715553 -56.31234 -21.40991
-25.848396 -54.296751 -22.033763
-25.002365 -55.614458 -21.213324
-8.341387 -64.067995 -0.788364
-7.442321 -62.840519 -0.144768
-7.976278 -64.421625 0.013321
-8.548845 -63.718058 -1.560879
-8.341387 -64.067995 -0.788364
-8.122784 -62.107844 -1.71981
-8.548845 -63.718058 -1.560879
-40.057176 -102.996269 22.697737
-40.330576 -102.177971 24.335247
-40.057176 -102.996269 22.697737
-40.575608 -102.894783 21.666065
-10.42467 -80.981701 9.697274
-10.75863 -80.730095 8.879935
-10.157388 -79.879627 9.698446
-10.42467 -80.981701 9.697274
-10.076142 -81.244419 10.524085
-3.188649 -73.173393 16.834918
-2.537303 -71.975902 16.791831
-0.491835 -60.372017 8.519412
0.123675 -58.927482 8.542145
-1.149402 -61.80485 8.54104
-1.519701 -61.459547 7.539169
-0.491835 -60.372017 8.519412
-1.78208 -63.212015 8.538431
-1.149402 -61.80485 8.54104
-2.451875 -64.603472 8.589351
-2.847064 -64.283837 7.611717
-1.78208 -63.212015 8.538431
-3.588644 -69.10318 10.649859
-2.954248 -67.830437 10.612695
-2.565637 -68.08979 11.576824
-26.466766 -12.56764 -45.627442
-26.313901 -13.959869 -44.611931
-26.444608 -13.707022 -45.277535
-26.430509 -11.409277 -45.983982
-26.466766 -12.56764 -45.627442
-31.643411 -55.584169 -27.196707
-31.000797 -57.335402 -26.133201
-31.808006 -53.542736 -27.711304
-31.643411 -55.584169 -27.196707
-32.229082 -53.8729 -28.275717
-37.2393 -34.037045 -37.875082
-36.726971 -35.82994 -37.067428
-37.422344 -35.679241 -37.392198
-36.950594 -32.538224 -38.330731
-37.2393 -34.037045 -37.875082
-9.608332 -72.588104 4.244944
-9.010551 -71.297485 4.042193
-8.615084 -71.403748 4.83895
-9.608332 -72.588104 4.244944
-10.098901 -73.853527 4.513095
-46.062544 -91.377884 22.024031
-45.800387 -91.803582 23.470799
-44.482793 -93.412353 29.154193
-44.093879 -94.520332 29.186972
-44.829139 -93.031624 27.715775
-44.482793 -93.412353 29.154193
-45.193445 -92.637436 26.321337
-44.886843 -93.788109 26.416502
-44.829139 -93.031624 27.715775
-45.48769 -92.22181 24.872137
-45.193445 -92.637436 26.321337
-45.800387 -91.803582 23.470799
-45.563845 -92.975693 23.620725
-45.48769 -92.22181 24.872137
-17.82207 -55.11954 -17.712803
-17.509087 -54.223795 -17.516248
-18.718155 -54.143387 -18.348548
-17.82207 -55.11954 -17.712803
-5.776938 -54.914465 -1.224724
-5.087288 -55.257599 -0.442318
-6.630638 -55.991276 -1.987472
-6.350856 -54.545443 -1.984196
-5.776938 -54.914465 -1.224724
-36.38159 -95.375709 39.970754
-37.015953 -96.082519 39.03517
-35.645218 -95.529503 39.34421
-36.38159 -95.375709 39.970754
-34.908754 -95.667168 38.627758
-35.645218 -95.529503 39.34421
-35.550398 -96.543045 37.720724
-34.176628 -95.650215 37.911586
-34.908754 -95.667168 38.627758
-34.176628 -95.650215 37.911586
-34.066841 -96.653282 36.225069
-33.826179 -98.617424 32.736669
-34.466263 -99.589714 31.768961
-9.091769 -81.957867 13.286158
-9.398112 -81.714462 12.323767
-8.856876 -80.850659 13.275946
-9.304932 -83.055611 13.294712
-9.091769 -81.957867 13.286158
-8.763696 -82.191807 14.246891
-9.296181 -84.189529 13.28231
-9.304932 -83.055611 13.294712
-8.940044 -84.413086 14.241449
-8.674667 -83.553604 15.265561
-8.637853 -84.677139 15.251565
-9.296181 -84.189529 13.28231
-8.940044 -84.413086 14.241449
-4.257504 -78.684189 23.507295
-4.08658 -79.087193 24.609963
-4.780706 -79.811405 23.600912
-3.683364 -77.571098 23.425627
-4.257504 -78.684189 23.507295
-4.37749 -78.29531 22.416576
-3.121828 -76.396462 23.340536
-3.683364 -77.571098 23.425627
-3.189265 -76.023083 22.260376
-3.121828 -76.396462 23.340536
-3.314713 -75.653667 21.177516
-3.189265 -76.023083 22.260376
-3.928799 -76.812805 21.252049
-3.402361 -75.296661 20.099916
-3.314713 -75.653667 21.177516
-4.203968 -76.101578 19.097511
-3.552082 -74.954849 19.028238
-3.402361 -75.296661 20.099916
-2.258106 -68.374416 12.595135
-2.565637 -68.08979 11.576824
-2.877183 -69.634277 12.615541
-2.258106 -68.374416 12.595135
-3.53596 -70.840309 12.684418
-3.85881 -70.568566 11.682865
-2.877183 -69.634277 12.615541
-27.261843 -17.598555 -40.156809
-27.512469 -16.530458 -40.311898
-26.81792 -17.316623 -40.988505
-27.261843 -17.598555 -40.156809
-27.064354 -18.680046 -39.910911
-26.471792 -19.496046 -40.406603
-26.811295 -19.746411 -39.66587
-26.662655 -20.844344 -39.329867
-26.35427 -16.272513 -43.81826
-26.252033 -16.484607 -43.223669
-26.314561 -17.657869 -42.779905
-26.562871 -14.903456 -44.819032
-26.35427 -16.272513 -43.81826
-26.575114 -21.20706 -41.306761
-26.474158 -20.018546 -41.820892
-26.313274 -21.357185 -40.808385
-26.575114 -21.20706 -41.306761
-26.835423 -22.462519 -40.704191
-28.285215 -23.67843 -40.734621
-27.61 -23.686822 -40.447315
-28.72759 -25.041243 -40.014193
-29.049423 -23.725365 -40.968311
-28.285215 -23.67843 -40.734621
-33.80562 -52.410313 -30.445483
-33.133562 -54.322481 -29.41256
-34.425745 -50.551334 -31.474754
-33.918278 -50.429355 -30.923834
-33.80562 -52.410313 -30.445483
-35.118243 -48.601454 -32.450897
-34.425745 -50.551334 -31.474754
-35.752846 -46.713864 -33.414439
-35.173006 -46.682787 -32.916647
-35.118243 -48.601454 -32.450897
-36.464522 -44.743901 -34.317284
-35.752846 -46.713864 -33.414439
-37.104099 -42.844291 -35.20503
-36.447187 -42.895588 -34.767935
-36.464522 -44.743901 -34.317284
-37.813503 -40.868997 -36.039029
-37.104099 -42.844291 -35.20503
-37.703247 -39.098698 -36.478361
-37.813503 -40.868997 -36.039029
-8.587548 -65.961926 0.16739
-7.976278 -64.421625 0.013321
-7.688481 -64.734449 0.810987
-8.587548 -65.961926 0.16739
-9.128964 -67.541489 0.382394
-9.423009 -71.107826 3.21776
-8.429761 -69.92347 3.811766
-9.010551 -71.297485 4.042193
-9.726437 -70.983421 2.432078
-9.423009 -71.107826 3.21776
-9.173468 -69.521194 2.180642
-9.726437 -70.983421 2.432078
-46.512762 -94.010758 15.757434
-46.179636 -95.19429 15.805913
-46.200588 -94.42215 17.038578
-46.512762 -94.010758 15.757434
-46.819057 -92.81968 15.664811
-46.343897 -90.955116 20.627173
-46.157894 -92.134697 20.822529
-46.062544 -91.377884 22.024031
-46.599739 -90.531571 19.196087
-46.343897 -90.955116 20.627173
-46.504389 -89.774757 20.397588
-46.876648 -88.175941 18.658222
-46.618576 -88.596718 20.105591
-47.035898 -88.930108 17.564456
-46.876648 -88.175941 18.658222
-47.152315 -87.754837 17.256175
-47.432512 -89.264588 15.061392
-47.268993 -90.444939 15.312611
-47.148046 -89.689354 16.413628
-47.432512 -89.264588 15.061392
-47.629305 -88.081505 14.801328
-48.189285 -84.576934 13.834164
-48.002167 -85.738678 14.18392
-47.803314 -85.002854 15.187966
-48.189285 -84.576934 13.834164
-48.472336 -83.420715 13.50355
-38.320746 -97.211167 36.993378
-37.675999 -96.737603 38.041801
-38.985841 -97.629715 35.923409
-39.624984 -97.871116 34.781588
-38.272049 -98.134095 35.38047
-38.320746 -97.211167 36.993378
-38.985841 -97.629715 35.923409
-38.031425 -100.840782 30.260483
-37.365716 -100.468643 31.319883
-38.138711 -99.94381 31.999636
-38.676857 -101.17337 29.232939
-38.031425 -100.840782 30.260483
-39.316922 -101.320198 28.13308
-38.676857 -101.17337 29.232939
-39.444485 -100.462776 29.840376
-39.927033 -101.432 27.07857
-39.316922 -101.320198 28.13308
-40.522227 -101.383515 25.944412
-39.927033 -101.432 27.07857
-40.679743 -100.561119 27.606359
-41.083286 -101.307091 24.863037
-40.330576 -102.177971 24.335247
-40.522227 -101.383515 25.944412
-42.128264 -100.884499 22.592934
-41.398781 -101.880707 22.146959
-41.621118 -101.105339 23.699848
-43.166638 -95.911629 30.429547
-42.671963 -96.152122 31.773522
-43.170378 -96.692635 28.994965
-43.166638 -95.911629 30.429547
-43.668962 -95.639374 29.128422
-42.606062 -100.576416 21.40558
-42.128264 -100.884499 22.592934
-42.8284 -99.801049 22.958469
-43.063896 -100.258987 20.276108
-42.606062 -100.576416 21.40558
-43.063896 -100.258987 20.276108
-43.730522 -99.122902 20.564912
-44.673103 -97.590332 19.50813
-44.295609 -97.991157 20.788384
-44.813866 -96.828652 20.937807
-44.673103 -97.590332 19.50813
-45.055672 -97.193543 18.289463
-6.914497 -84.478805 21.649096
-7.150451 -84.076344 20.540875
-6.776242 -83.375843 21.632597
-7.035192 -85.596665 21.680758
-6.914497 -84.478805 21.649096
-6.660983 -84.896164 22.772481
-6.938391 -86.736 21.684538
-7.191905 -86.318641 20.561152
-7.035192 -85.596665 21.680758
-6.533471 -86.465904 23.960901
-6.420362 -85.329658 23.906781
-6.684659 -87.171524 22.828856
-6.533471 -86.465904 23.960901
-6.938391 -86.736 21.684538
-6.684659 -87.171524 22.828856
-4.422979 -80.626694 25.821323
-3.95624 -79.483387 25.710125
-5.042504 -81.319942 24.788511
-4.422979 -80.626694 25.821323
-5.688472 -82.008057 23.756693
-5.255752 -80.902523 23.671761
-5.042504 -81.319942 24.788511
-6.221004 -82.684471 22.69038
-5.688472 -82.008057 23.756693
-6.776242 -83.375843 21.632597
-6.456958 -82.282009 21.582159
-6.221004 -82.684471 22.69038
-27.006698 -23.475706 -37.180525
-26.783426 -22.170924 -38.260526
-26.713474 -24.530045 -36.86013
-27.006698 -23.475706 -37.180525
-26.564366 -25.632023 -36.449393
-26.415585 -24.349117 -37.521181
-26.713474 -24.530045 -36.86013
-14.32903 -52.51309 -12.054301
-14.316333 -53.32186 -12.648861
-14.992985 -51.259415 -12.122923
-14.32903 -52.51309 -12.054301
-15.763691 -50.727124 -12.880805
-14.992985 -51.259415 -12.122923
-16.484177 -50.111072 -13.623721
-15.763691 -50.727124 -12.880805
-15.726529 -51.32563 -13.526831
-17.265745 -49.53006 -14.402304
-16.484177 -50.111072 -13.623721
-15.649131 -54.25185 -15.552819
-15.736383 -55.146031 -15.894366
-15.629713 -53.518836 -15.120334
-15.649131 -54.25185 -15.552819
-16.365508 -52.74834 -15.807875
-15.638293 -52.710533 -14.656328
-15.629713 -53.518836 -15.120334
-16.396552 -51.362453 -14.822568
-15.688754 -52.057659 -14.103507
-15.638293 -52.710533 -14.656328
-18.006293 -48.865267 -15.161427
-17.265745 -49.53006 -14.402304
-17.187563 -50.044786 -15.028871
-18.775402 -48.231133 -15.962619
-18.006293 -48.865267 -15.161427
-19.508947 -47.51486 -16.74134
-18.775402 -48.231133 -15.962619
-18.661657 -48.663721 -16.566715
-20.241043 -46.824543 -17.566448
-19.508947 -47.51486 -16.74134
-20.940545 -46.05539 -18.368654
-20.241043 -46.824543 -17.566448
-20.094704 -47.178296 -18.147642
-21.612599 -45.306929 -19.218643
-20.940545 -46.05539 -18.368654
-22.253875 -44.484347 -20.04834
-21.612599 -45.306929 -19.218643
-21.435482 -45.586559 -19.779545
-22.846252 -43.676552 -20.924011
-22.253875 -44.484347 -20.04834
-22.640289 -43.887703 -21.469952
-23.409782 -42.800278 -21.784721
-22.846252 -43.676552 -20.924011
-19.525294 -53.194177 -19.039499
-19.13843 -52.376058 -18.87066
-18.718155 -54.143387 -18.348548
-20.390938 -52.166652 -19.714005
-19.525294 -53.194177 -19.039499
-19.970664 -53.933981 -19.191893
-21.436343 -53.691047 -19.969995
-20.517173 -54.798361 -19.29718
-21.117207 -55.582953 -19.400778
-6.888736 -57.482985 -1.953916
-6.449645 -57.868199 -1.185887
-7.28166 -58.990885 -1.911804
-7.462654 -57.113962 -2.713388
-6.630638 -55.991276 -1.987472
-6.888736 -57.482985 -1.953916
-7.887724 -56.712795 -3.456193
-7.462654 -57.113962 -2.713388
-7.783482 -55.248455 -3.483148
-7.887724 -56.712795 -3.456193
-11.071216 -80.404453 8.1466
-10.75863 -80.730095 8.879935
-9.746037 -81.482429 11.42297
-9.398112 -81.714462 12.323767
-7.730151 -85.569565 18.370621
-7.551531 -84.811341 19.468452
-7.467326 -85.937531 19.459543
-8.030471 -85.251053 17.313549
-7.730151 -85.569565 18.370621
-3.21425 -71.10138 13.672349
-2.964628 -71.387909 14.706948
-4.195877 -72.035668 12.739673
-3.53596 -70.840309 12.684418
-3.21425 -71.10138 13.672349
-3.679367 -74.620872 17.957588
-3.552082 -74.954849 19.028238
-3.871546 -74.309696 16.90546
-3.679367 -74.620872 17.957588
-4.545868 -75.448589 16.973705
-4.055149 -74.00111 15.851035
-3.188649 -73.173393 16.834918
-3.871546 -74.309696 16.90546
-10.709973 -78.11911 7.400315
-9.987751 -77.336586 8.064692
-10.368539 -78.302147 8.12924
-10.908735 -77.860161 6.872631
-10.709973 -78.11911 7.400315
-1.61986 -57.465603 4.66497
-2.157884 -57.090056 3.742737
-1.125617 -57.832554 5.582731
-0.672751 -58.206381 6.557602
-2.23149 -58.941845 4.676463
-1.61986 -57.465603 4.66497
-1.125617 -57.832554 5.582731
-2.030082 -64.890219 9.541956
-1.691918 -65.197887 10.552133
-3.095066 -65.96204 8.615241
-2.451875 -64.603472 8.589351
-2.030082 -64.890219 9.541956
-3.325264 -67.546307 9.626788
-2.302258 -66.532917 10.553753
-2.954248 -67.830437 10.612695
-9.282926 -73.983284 6.080592
-9.726144 -73.866951 5.270677
-8.769645 -72.810699 5.851616
-9.828453 -75.097802 6.260293
-9.282926 -73.983284 6.080592
-8.871955 -74.04155 6.841232
-10.223807 -76.10955 6.500277
-9.828453 -75.097802 6.260293
-10.679659 -77.108292 6.657693
-10.223807 -76.10955 6.500277
-9.873334 -76.154808 7.17835
-10.908735 -77.860161 6.872631
-10.679659 -77.108292 6.657693
-27.229912 -15.162236 -41.380059
-27.512469 -16.530458 -40.311898
-27.0546 -13.765094 -42.443615
-27.229912 -15.162236 -41.380059
-26.840098 -14.837989 -42.297959
-26.84026 -12.364697 -43.494941
-27.0546 -13.765094 -42.443615
-26.588658 -12.022575 -44.404139
-26.500424 -13.130667 -44.161676
-26.424295 -11.712395 -45.2043
-26.84026 -12.364697 -43.494941
-26.588658 -12.022575 -44.404139
-26.398881 -57.052904 -21.643946
-25.715553 -56.31234 -21.40991
-27.215782 -55.651711 -22.516829
-26.398881 -57.052904 -21.643946
-27.939625 -54.283071 -23.436628
-27.285427 -53.625994 -23.15015
-27.215782 -55.651711 -22.516829
-28.633201 -52.825283 -24.407373
-27.939625 -54.283071 -23.436628
-28.563557 -54.851 -23.774052
-30.581385 -56.902744 -25.583271
-31.000797 -57.335402 -26.133201
-30.129039 -56.477384 -25.071535
-30.581385 -56.902744 -25.583271
-30.769989 -54.828646 -26.120558
-29.656104 -55.954121 -24.59263
-30.129039 -56.477384 -25.071535
-29.787388 -53.898249 -25.176809
-29.12585 -55.449083 -24.160618
-29.656104 -55.954121 -24.59263
-35.582098 -32.748637 -37.745984
-35.861035 -34.239765 -37.245795
-36.264989 -32.696616 -38.050501
-35.27574 -31.228894 -38.319885
-34.871785 -32.772043 -37.515179
-35.582098 -32.748637 -37.745984
-34.933808 -29.904257 -38.833927
-35.27574 -31.228894 -38.319885
-26.627425 -26.892381 -35.388075
-26.764497 -28.126038 -34.323923
-26.329536 -26.711455 -36.049126
-26.564366 -25.632023 -36.449393
-26.627425 -26.892381 -35.388075
-23.907311 -41.932438 -22.686861
-23.409782 -42.800278 -21.784721
-24.379236 -41.002144 -23.581087
-23.907311 -41.932438 -22.686861
-23.675745 -42.081135 -23.224888
-24.77189 -40.07396 -24.510483
-24.379236 -41.002144 -23.581087
-25.144685 -39.08926 -25.439351
-24.77189 -40.07396 -24.510483
-24.520466 -40.166141 -25.047981
-25.428261 -38.100994 -26.396653
-25.144685 -39.08926 -25.439351
-25.701414 -37.061754 -27.359642
-25.428261 -38.100994 -26.396653
-25.166415 -38.142202 -26.939839
-25.878456 -36.014348 -28.344938
-25.701414 -37.061754 -27.359642
-26.059202 -34.921051 -29.339637
-25.878456 -36.014348 -28.344938
-25.620313 -36.009664 -28.897527
-26.140048 -33.816187 -30.351711
-26.059202 -34.921051 -29.339637
-26.24389 -32.67021 -31.373451
-26.140048 -33.816187 -30.351711
-25.904901 -33.77039 -30.913967
-26.247379 -31.510226 -32.408945
-26.24389 -32.67021 -31.373451
-26.297933 -30.314017 -33.450485
-26.247379 -31.510226 -32.408945
-26.059297 -31.428204 -32.977247
-26.251224 -29.101904 -34.503298
-26.439305 -29.183926 -33.934995
-26.297933 -30.314017 -33.450485
-30.83968 -26.607933 -39.6528
-30.363811 -25.193699 -40.393526
-29.967666 -26.502411 -39.507157
-31.700007 -26.726847 -39.80893
-30.83968 -26.607933 -39.6528
-31.303862 -28.035559 -38.92256
-32.586689 -26.886447 -39.883301
-31.700007 -26.726847 -39.80893
-33.415598 -27.00974 -40.008015
-32.586689 -26.886447 -39.883301
-32.993097 -28.277765 -39.203404
-34.226616 -27.213909 -40.030345
-33.415598 -27.00974 -40.008015
-34.226616 -27.213909 -40.030345
-34.562098 -28.478637 -39.453445
3 0 247 249
3 247 62 248
3 247 248 249
3 251 250 63
3 1 67 65
3 1 70 68
3 1 65 70
3 2 74 72
3 2 76 74
3 3 79 77
3 3 81 79
3 4 84 82
3 5 87 85
3 252 89 253
3 254 91 255
3 256 255 89
3 254 255 256
3 5 94 92
3 5 85 94
3 6 257 259
3 257 97 258
3 257 258 259
3 6 99 97
3 6 101 99
3 8 260 261
3 8 262 263
3 265 264 105
3 9 266 268
3 268 267 106
3 266 267 268
3 9 109 107
3 9 106 109
3 10 114 112
3 10 116 114
3 270 269 117
3 11 271 272
3 11 273 274
3 12 275 276
3 12 277 279
3 277 120 278
3 277 278 279
3 12 122 120
3 280 125 281
3 282 281 123
3 280 281 282
3 284 283 125
3 7 129 127
3 14 132 130
3 14 134 132
3 14 136 134
3 13 139 137
3 13 141 139
3 286 285 142
3 16 287 288
3 16 289 291
3 289 143 290
3 289 290 291
3 17 292 294
3 292 144 293
3 292 293 294
3 18 145 64
3 18 295 297
3 297 296 145
3 295 296 297
3 18 298 299
3 19 147 146
3 301 300 66
3 20 302 303
3 21 148 69
3 21 149 148
3 21 151 149
3 19 152 71
3 19 146 152
3 304 154 305
3 24 155 73
3 24 306 308
3 308 307 155
3 306 307 308
3 24 309 310
3 25 311 313
3 313 312 75
3 311 312 313
3 25 314 316
3 314 156 315
3 314 315 316
3 27 160 158
3 29 161 78
3 29 162 161
3 29 164 162
3 31 165 80
3 31 166 165
3 32 169 167
3 317 170 318
3 319 318 83
3 317 318 319
3 321 320 170
3 34 322 323
3 35 324 326
3 326 325 86
3 324 325 326
3 35 327 328
3 329 171 330
3 36 331 333
3 331 172 332
3 331 332 333
3 36 334 336
3 336 335 172
3 334 335 336
3 36 337 338
3 340 339 88
3 37 341 343
3 341 173 342
3 341 342 343
3 37 174 173
3 37 175 174
3 38 176 90
3 38 177 176
3 15 344 346
3 344 178 345
3 344 345 346
3 39 179 93
3 39 180 179
3 39 347 349
3 349 348 180
3 347 348 349
3 34 350 352
3 352 351 95
3 350 351 352
3 34 353 354
3 355 182 356
3 357 183 358
3 359 184 360
3 361 360 183
3 359 360 361
3 40 185 96
3 40 186 185
3 40 187 186
3 41 188 98
3 41 189 188
3 41 191 189
3 43 192 100
3 43 193 192
3 362 194 363
3 44 195 102
3 44 196 195
3 44 197 196
3 45 198 103
3 45 199 198
3 33 200 168
3 364 201 365
3 366 365 104
3 364 365 366
3 368 367 201
3 46 369 370
3 372 371 181
3 47 373 374
3 47 375 377
3 375 202 376
3 375 376 377
3 22 203 150
3 48 204 108
3 48 205 204
3 48 206 205
3 46 207 110
3 46 378 380
3 380 379 207
3 378 379 380
3 50 381 382
3 50 383 385
3 383 209 384
3 383 384 385
3 50 210 209
3 51 211 111
3 51 212 211
3 386 213 387
3 52 214 113
3 52 215 214
3 52 216 215
3 49 217 115
3 49 208 217
3 23 218 153
3 389 388 118
3 390 219 391
3 53 220 119
3 53 221 220
3 53 222 221
3 54 223 121
3 54 224 223
3 26 225 157
3 55 226 124
3 55 227 226
3 55 228 227
3 393 392 126
3 394 229 395
3 42 230 190
3 57 231 128
3 57 232 231
3 28 233 159
3 58 234 131
3 58 235 234
3 58 236 235
3 59 237 133
3 59 238 237
3 59 239 238
3 60 240 135
3 60 241 240
3 30 242 163
3 61 243 138
3 61 244 243
3 61 245 244
3 56 246 140
3 56 396 398
3 398 397 246
3 396 397 398
3 62 399 400
3 62 401 403
3 401 16 402
3 401 402 403
3 63 64 17
3 404 64 405
3 406 405 63
3 404 405 406
3 407 18 408
3 409 408 64
3 407 408 409
3 411 410 18
3 65 66 19
3 67 66 65
3 67 412 414
3 414 413 66
3 412 413 414
3 68 69 20
3 70 69 68
3 70 21 69
3 70 71 21
3 65 71 70
3 65 19 71
3 72 415 417
3 415 73 416
3 415 416 417
3 74 73 72
3 74 24 73
3 74 75 24
3 76 75 74
3 76 25 75
3 77 78 27
3 79 78 77
3 79 29 78
3 79 80 29
3 81 80 79
3 81 31 80
3 82 83 32
3 84 83 82
3 84 418 420
3 420 419 83
3 418 419 420
3 85 86 34
3 87 86 85
3 87 35 86
3 421 36 422
3 423 88 424
3 425 424 36
3 423 424 425
3 426 88 427
3 429 428 88
3 89 430 431
3 89 432 434
3 432 37 433
3 432 433 434
3 89 90 37
3 91 90 89
3 91 38 90
3 92 93 15
3 94 93 92
3 94 39 93
3 94 95 39
3 85 95 94
3 85 34 95
3 435 96 436
3 97 437 439
3 437 96 438
3 437 438 439
3 97 40 96
3 97 98 40
3 99 98 97
3 99 41 98
3 99 100 41
3 101 100 99
3 101 43 100
3 440 102 441
3 442 102 443
3 444 44 445
3 446 445 102
3 444 445 446
3 447 103 448
3 449 448 44
3 447 448 449
3 450 103 451
3 452 45 453
3 454 453 103
3 452 453 454
3 455 104 456
3 457 456 33
3 455 456 457
3 458 104 459
3 461 460 104
3 105 462 463
3 465 464 105
3 106 466 468
3 468 467 46
3 466 467 468
3 470 469 106
3 471 47 472
3 107 108 22
3 109 108 107
3 109 48 108
3 109 110 48
3 106 110 109
3 106 46 110
3 473 50 474
3 475 111 476
3 477 476 50
3 475 476 477
3 478 111 479
3 480 51 481
3 482 481 111
3 480 481 482
3 112 483 485
3 483 113 484
3 483 484 485
3 114 113 112
3 114 52 113
3 114 115 52
3 116 115 114
3 116 49 115
3 117 118 23
3 486 118 487
3 488 487 117
3 486 487 488
3 490 489 118
3 491 119 492
3 120 493 495
3 493 119 494
3 493 494 495
3 120 53 119
3 120 121 53
3 122 121 120
3 122 54 121
3 123 124 26
3 125 124 123
3 125 55 124
3 125 126 55
3 496 126 497
3 498 497 125
3 496 497 498
3 500 499 126
3 127 128 42
3 129 128 127
3 129 57 128
3 130 131 28
3 132 131 130
3 132 58 131
3 132 133 58
3 134 133 132
3 134 59 133
3 134 135 59
3 136 135 134
3 136 60 135
3 137 138 30
3 139 138 137
3 139 61 138
3 139 140 61
3 141 140 139
3 141 56 140
3 142 501 503
3 503 502 4
3 501 502 503
3 505 504 142
3 507 506 5
3 508 15 509
3 510 15 511
3 512 92 513
3 514 513 15
3 512 513 514
3 515 92 516
3 517 5 518
3 519 518 92
3 517 518 519
3 520 6 521
3 523 522 6
3 143 524 525
3 143 526 528
3 526 8 527
3 526 527 528
3 144 529 530
3 144 531 532
3 64 144 17
3 145 144 64
3 145 533 535
3 535 534 144
3 533 534 535
3 145 536 537
3 539 538 145
3 541 540 18
3 146 542 544
3 544 543 9
3 542 543 544
3 147 545 547
3 547 546 146
3 545 546 547
3 147 548 549
3 66 147 19
3 550 147 551
3 552 551 66
3 550 551 552
3 554 553 147
3 69 555 557
3 557 556 20
3 555 556 557
3 148 558 560
3 560 559 69
3 558 559 560
3 148 561 562
3 148 563 564
3 149 565 567
3 567 566 148
3 565 566 567
3 149 568 569
3 149 570 572
3 570 150 571
3 570 571 572
3 151 150 149
3 151 22 150
3 71 151 21
3 152 151 71
3 152 22 151
3 152 107 22
3 146 107 152
3 146 9 107
3 573 112 574
3 575 112 576
3 577 10 578
3 579 578 112
3 577 578 579
3 580 153 581
3 154 582 584
3 582 153 583
3 582 583 584
3 154 23 153
3 73 585 587
3 585 154 586
3 585 586 587
3 155 154 73
3 155 23 154
3 155 117 23
3 588 117 589
3 590 589 155
3 588 589 590
3 592 591 117
3 75 593 595
3 595 594 24
3 593 594 595
3 597 596 75
3 156 598 599
3 156 600 602
3 600 11 601
3 600 601 602
3 603 12 604
3 605 157 606
3 607 606 12
3 605 606 607
3 608 157 609
3 610 26 611
3 612 611 157
3 610 611 612
3 613 26 614
3 615 123 616
3 617 616 26
3 615 616 617
3 618 123 619
3 621 620 123
3 158 159 7
3 160 159 158
3 160 28 159
3 78 160 27
3 161 160 78
3 161 28 160
3 161 130 28
3 162 130 161
3 162 14 130
3 162 163 14
3 164 163 162
3 164 30 163
3 80 164 29
3 165 164 80
3 165 30 164
3 165 137 30
3 166 137 165
3 166 13 137
3 167 168 0
3 169 168 167
3 169 33 168
3 83 169 32
3 170 169 83
3 170 33 169
3 170 622 624
3 624 623 33
3 622 623 624
3 626 625 170
3 627 84 628
3 629 628 4
3 627 628 629
3 630 84 631
3 633 632 84
3 86 634 636
3 636 635 34
3 634 635 636
3 638 637 86
3 639 87 640
3 641 640 5
3 639 640 641
3 171 642 644
3 642 87 643
3 642 643 644
3 171 35 87
3 645 171 646
3 172 647 649
3 647 171 648
3 647 648 649
3 172 35 171
3 172 650 652
3 652 651 35
3 650 651 652
3 654 653 172
3 88 655 657
3 657 656 36
3 655 656 657
3 659 658 88
3 660 17 661
3 173 662 663
3 173 664 666
3 664 17 665
3 664 665 666
3 173 63 17
3 174 63 173
3 174 667 669
3 669 668 63
3 667 668 669
3 174 670 671
3 175 672 674
3 674 673 174
3 672 673 674
3 175 675 676
3 90 175 37
3 176 175 90
3 176 677 679
3 679 678 175
3 677 678 679
3 176 680 682
3 680 105 681
3 680 681 682
3 177 105 176
3 177 683 685
3 685 684 105
3 683 684 685
3 686 91 687
3 178 688 690
3 688 91 689
3 688 689 690
3 178 38 91
3 93 178 15
3 179 178 93
3 179 38 178
3 179 177 38
3 180 177 179
3 180 691 693
3 693 692 177
3 691 692 693
3 180 694 695
3 697 696 180
3 95 698 700
3 700 699 39
3 698 699 700
3 702 701 95
3 703 181 704
3 705 704 1
3 703 704 705
3 182 706 708
3 706 181 707
3 706 707 708
3 182 709 711
3 711 710 181
3 709 710 711
3 712 182 713
3 714 182 715
3 717 716 182
3 718 20 719
3 720 20 721
3 722 68 723
3 724 723 20
3 722 723 724
3 725 68 726
3 727 1 728
3 729 728 68
3 727 728 729
3 730 72 731
3 732 72 733
3 734 2 735
3 736 735 72
3 734 735 736
3 183 737 738
3 183 739 740
3 183 741 742
3 184 743 745
3 745 744 183
3 743 744 745
3 184 746 747
3 96 748 749
3 185 750 752
3 752 751 96
3 750 751 752
3 185 753 754
3 185 755 757
3 755 184 756
3 755 756 757
3 186 184 185
3 186 758 760
3 760 759 184
3 758 759 760
3 186 761 762
3 187 763 765
3 765 764 186
3 763 764 765
3 187 766 767
3 98 187 40
3 188 187 98
3 188 768 770
3 770 769 187
3 768 769 770
3 188 771 772
3 189 773 775
3 775 774 188
3 773 774 775
3 189 776 777
3 189 778 780
3 778 190 779
3 778 779 780
3 191 190 189
3 191 42 190
3 100 191 41
3 192 191 100
3 192 42 191
3 192 127 42
3 193 127 192
3 193 7 127
3 781 101 782
3 783 782 6
3 781 782 783
3 194 784 786
3 784 101 785
3 784 785 786
3 194 43 101
3 102 787 789
3 787 194 788
3 787 788 789
3 195 194 102
3 195 43 194
3 195 193 43
3 196 193 195
3 196 7 193
3 196 158 7
3 197 158 196
3 197 27 158
3 103 197 44
3 198 197 103
3 198 27 197
3 198 77 27
3 199 77 198
3 199 3 77
3 168 62 0
3 200 62 168
3 200 16 62
3 104 200 33
3 201 200 104
3 201 16 200
3 201 143 16
3 790 143 791
3 792 791 201
3 790 791 792
3 793 8 794
3 795 794 143
3 793 794 795
3 796 8 797
3 799 798 8
3 801 800 46
3 803 802 9
3 181 67 1
3 804 67 805
3 806 805 181
3 804 805 806
3 808 807 67
3 202 809 810
3 202 811 813
3 811 10 812
3 811 812 813
3 150 814 815
3 203 816 818
3 818 817 150
3 816 817 818
3 203 819 821
3 819 47 820
3 819 820 821
3 108 203 22
3 204 203 108
3 204 47 203
3 204 202 47
3 205 202 204
3 205 10 202
3 205 116 10
3 206 116 205
3 206 49 116
3 110 206 48
3 207 206 110
3 207 49 206
3 207 208 49
3 822 208 823
3 824 823 207
3 822 823 824
3 826 825 208
3 827 0 828
3 209 829 830
3 209 831 833
3 831 0 832
3 831 832 833
3 209 167 0
3 210 167 209
3 210 32 167
3 111 210 50
3 211 210 111
3 211 32 210
3 211 82 32
3 212 82 211
3 212 4 82
3 213 834 835
3 213 836 838
3 836 51 837
3 836 837 838
3 113 839 841
3 839 213 840
3 839 840 841
3 214 213 113
3 214 51 213
3 214 212 51
3 215 212 214
3 215 4 212
3 215 142 4
3 216 142 215
3 216 842 844
3 844 843 142
3 842 843 844
3 115 216 52
3 217 216 115
3 217 845 847
3 847 846 216
3 845 846 847
3 217 848 849
3 208 850 852
3 852 851 217
3 850 851 852
3 208 853 854
3 153 855 856
3 218 857 859
3 859 858 153
3 857 858 859
3 218 860 861
3 118 218 23
3 862 218 863
3 864 863 118
3 862 863 864
3 866 865 218
3 867 45 868
3 869 45 870
3 871 199 872
3 873 872 45
3 871 872 873
3 219 874 876
3 874 199 875
3 874 875 876
3 219 3 199
3 119 877 878
3 220 879 881
3 881 880 119
3 879 880 881
3 220 882 883
3 220 884 886
3 884 219 885
3 884 885 886
3 221 219 220
3 221 3 219
3 221 81 3
3 222 81 221
3 222 31 81
3 121 222 53
3 223 222 121
3 223 31 222
3 223 166 31
3 224 166 223
3 224 13 166
3 157 122 12
3 225 122 157
3 225 54 122
3 124 225 26
3 226 225 124
3 226 54 225
3 226 224 54
3 227 224 226
3 227 13 224
3 227 141 13
3 228 141 227
3 228 56 141
3 126 228 55
3 887 228 888
3 889 888 126
3 887 888 889
3 890 56 891
3 892 891 228
3 890 891 892
3 894 893 56
3 229 895 896
3 229 897 899
3 897 2 898
3 897 898 899
3 190 900 901
3 230 902 904
3 904 903 190
3 902 903 904
3 230 905 906
3 128 230 42
3 231 230 128
3 231 907 909
3 909 908 230
3 907 908 909
3 231 910 911
3 232 912 914
3 914 913 231
3 912 913 914
3 232 915 916
3 159 129 7
3 233 129 159
3 233 57 129
3 131 233 28
3 234 233 131
3 234 57 233
3 234 232 57
3 235 232 234
3 235 917 919
3 919 918 232
3 917 918 919
3 235 920 921
3 236 922 924
3 924 923 235
3 922 923 924
3 236 925 926
3 133 236 58
3 237 236 133
3 237 927 929
3 929 928 236
3 927 928 929
3 237 930 932
3 930 229 931
3 930 931 932
3 238 229 237
3 238 2 229
3 238 76 2
3 239 76 238
3 239 25 76
3 135 239 59
3 240 239 135
3 240 25 239
3 240 156 25
3 241 156 240
3 241 11 156
3 163 136 14
3 242 136 163
3 242 60 136
3 138 242 30
3 243 242 138
3 243 60 242
3 243 241 60
3 244 241 243
3 244 11 241
3 244 933 935
3 935 934 11
3 933 934 935
3 245 936 938
3 938 937 244
3 936 937 938
3 245 939 940
3 140 245 61
3 246 245 140
3 246 941 943
3 943 942 245
3 941 942 943
3 246 944 945
3 947 946 246
