ply
format ascii 1.0
element vertex 741
property float x
property float y
property float z
element face 890
property list uchar int vertex_index
end_header
-8.314447 42.529835 -32.877678
-12.786459 85.963272 -13.172527
2.688457 34.248611 -29.277363
-26.753277 38.959602 -28.741283
0.115778 69.983734 -29.817879
4.95668 26.397987 -21.151928
-3.839468 87.254578 -10.002209
-4.59244 81.961609 -22.825436
-17.440147 41.045692 -31.139942
-22.611906 27.397896 -30.774288
-15.135777 26.896774 -30.7178
-1.18479 40.450409 -33.002716
-8.144985 24.716984 -29.674873
-2.257914 19.18018 -28.632885
-12.566252 56.237873 -31.080734
-16.539009 79.116287 -21.887619
-7.822794 71.090042 -29.747959
-2.803162 57.736675 -34.180843
2.193407 53.746761 -32.191376
3.464291 46.257603 -24.194122
-12.691938 42.033298 -32.146896
-15.638957 34.391907 -31.544178
-11.530058 34.588413 -31.715847
1.16543 37.729015 -31.815128
-1.395979 30.22887 -30.842606
0.845982 26.91135 -29.468475
-18.434872 54.188412 -28.870682
-16.271576 61.786274 -28.413769
-14.451715 83.260864 -18.195358
-1.804882 76.73317 -26.795479
-5.899792 77.236404 -27.171719
-2.931692 71.44133 -30.638382
-4.828167 64.924362 -32.594799
-0.881121 64.389847 -32.993835
0.400566 56.405552 -33.99649
1.394388 62.238316 -31.679756
2.570744 54.929028 -24.480408
4.401314 42.002594 -19.153545
-22.422962 20.85392 -30.815266
-25.558243 21.631844 -30.83939
3.799892 30.362846 -25.525734
2.56995 23.08213 -27.004913
4.092785 19.135284 -23.618511
-7.444126 87.602966 -12.149429
-8.33 85.11441 -18.184132
-3.967037 85.235214 -16.929722
-22.311308 39.952274 -30.035294
-24.05835 33.51709 -30.175171
-19.930695 33.950268 -31.05732
-18.885017 27.212807 -30.97123
-19.161568 19.924156 -30.259544
-11.671747 87.604385 -7.131792
-7.017189 89.003601 -5.257336
-4.415627 42.084679 -33.216183
-7.723143 34.138752 -31.642345
-4.291096 32.706596 -31.412994
-5.013493 22.362289 -29.237339
-25.85248 45.148991 -28.102486
-20.462608 46.854382 -29.461147
-15.009011 48.530514 -31.097939
-9.915268 49.851917 -32.723759
-23.869219 76.00032 -20.513866
-18.759426 73.381241 -24.179943
-9.818621 81.29451 -22.917046
-11.801834 75.944611 -26.048832
-14.025398 69.24855 -27.699356
-10.126091 63.906078 -30.837967
-7.25 57.58749 -33.062069
-5.378384 50.346996 -33.891182
-1.628469 49.605556 -34.284069
1.047157 47.551693 -33.540833
2.594971 44.470856 -31.281952
2.259064 58.887943 -28.698536
2.948895 50.221645 -28.769985
3.438866 40.77092 -27.537083
4.244949 36.74905 -22.867279
5.408394 32.519882 -18.025387
-11.540688 26.172657 -30.203587
-15.920045 18.72686 -29.394154
-10.450159 42.37252 -32.556961
-11.96545 38.434944 -32.10778
-9.882551 38.553581 -32.292091
2.010839 36.060661 -30.720894
1.056538 32.435429 -30.662239
1.918493 30.659111 -29.542294
-19.521879 60.47813 -27.231106
-18.482218 64.240005 -26.916424
-16.89053 83.454315 -15.729008
-13.552179 84.767838 -15.833336
-0.749981 73.511032 -28.439369
-2.263905 74.258835 -28.957314
-1.16083 70.939316 -30.455956
-1.800434 68.046417 -31.972466
-0.258581 67.336823 -31.665176
0.467056 63.4995 -32.558445
0.8225 66.212265 -30.906223
4.354954 28.369465 -23.37273
3.956284 24.823658 -24.505772
4.612675 22.87257 -22.470055
-5.406023 87.713623 -11.208435
-5.588692 86.719986 -14.584372
-3.860714 86.388306 -13.561659
-19.88784 40.495384 -30.594833
-20.96059 37.049866 -30.687283
-18.670658 37.440182 -31.128834
-15.22392 30.744602 -31.251774
-17.219223 30.724606 -31.242661
-16.997711 27.085049 -30.890198
-18.865627 23.620037 -30.640057
-17.106842 23.287769 -30.384701
-9.171171 88.5457 -6.320778
-2.70083 41.417698 -33.199356
-4.250193 37.534142 -32.414478
-2.640993 36.637672 -32.278957
-1.742285 24.777267 -29.688919
-3.076263 26.311123 -30.062462
-3.583618 20.862389 -28.983982
1.513535 19.258785 -27.330284
-27.463316 50.701321 -26.432938
-27.952572 47.450703 -26.979473
-25.24119 48.440304 -27.605656
-23.206808 45.991177 -28.750748
-22.378845 49.45705 -28.313908
-15.448972 55.269833 -29.957672
-16.589157 51.458317 -30.08984
-13.790543 52.369228 -31.090435
-12.402924 49.262905 -31.942829
-11.107119 53.153217 -32.070045
-19.046463 79.993408 -19.700211
-22.718832 78.414185 -19.130569
-20.182251 77.649734 -21.193764
-21.304775 74.896332 -22.367092
-17.650494 76.435562 -23.19746
-6.349079 83.822922 -20.568985
-9.000135 83.388931 -20.739388
-6.968695 81.856598 -23.050148
-6.796902 74.324417 -28.675041
-8.667059 76.785904 -26.760147
-9.696545 73.705154 -27.977303
-12.899733 72.734756 -27.032875
-10.80265 70.322357 -28.815948
-11.953348 66.710358 -29.346115
-8.94379 67.593399 -30.443321
-3.701084 61.448177 -33.565483
-5.992773 61.330074 -32.973892
-4.894196 57.838642 -33.759888
-6.194239 54.086369 -33.668926
-4.030422 54.113628 -34.173588
-3.386063 50.145458 -34.203423
-2.117672 53.79211 -34.420483
1.464918 55.216747 -33.307117
0.79631 52.091961 -33.948784
1.764599 50.774784 -33.136276
1.946867 46.113552 -32.612999
2.439232 49.216976 -31.90659
1.835812 62.987431 -28.150108
1.990614 61.055721 -26.266418
3.031567 50.686314 -24.492657
2.820805 52.702526 -26.812389
3.185024 48.277409 -26.583794
3.21595 45.608654 -28.296577
3.512794 43.647896 -26.048817
3.810333 38.788818 -25.2701
3.867043 41.616547 -23.627708
5.082912 39.72604 -16.647068
4.925354 37.343925 -18.631771
5.622906 35.064106 -16.20997
-23.171875 30.529068 -30.575787
-24.980968 30.47044 -30.058071
-24.368179 27.478115 -30.443275
-7.804365 29.541306 -30.694897
-9.562061 30.127251 -30.875393
-9.81579 25.552319 -29.927124
-14.324534 17.956581 -28.929661
5.603695 24.495125 -18.947041
-15.028726 41.57275 -31.665478
-16.379856 37.826366 -31.516914
-14.135559 38.173775 -31.847172
-13.550266 34.544235 -31.667477
-13.276266 30.684155 -31.17944
0.10648 39.207642 -32.562283
-1.210829 35.46701 -31.985031
0.021528 34.052757 -31.465839
-0.194881 28.655914 -30.283848
-0.543606 23.063526 -29.1353
-21.479794 53.042248 -27.90099
-20.523521 56.727535 -27.54324
-17.366991 57.972767 -28.638481
-14.291384 59.115467 -29.831573
-17.935179 81.918121 -17.874786
-15.459559 81.389496 -20.220814
-3.0788 79.575851 -24.913441
-5.159372 79.786865 -25.21719
-3.591421 77.231735 -27.19939
-4.294033 74.524994 -29.025089
-5.172291 71.481781 -30.38409
-6.199167 68.148727 -31.305809
-3.795532 68.31366 -31.838612
-2.656719 64.867355 -32.994308
-1.739536 61.176167 -33.814995
-1.025951 57.257084 -34.275093
-0.153492 60.504551 -33.675175
1.036425 59.456226 -33.112019
1.847872 58.082653 -32.114391
2.816257 52.847416 -22.099442
3.352524 48.607868 -22.033524
3.858906 44.170067 -21.690811
3.83374 46.460247 -19.50906
-22.370289 24.159046 -30.824947
-24.055807 24.393379 -30.702328
-24.017689 21.262032 -30.908119
-8.755299 19.728558 -28.695126
-10.354362 20.797462 -28.976776
3.262436 32.335884 -27.522545
2.652588 28.768044 -28.111641
3.314564 26.806938 -26.411194
3.338104 21.094456 -25.402695
-9.924095 86.98494 -12.802464
-10.494799 85.821411 -15.7085
-7.815004 86.506683 -15.301279
-5.89344 85.433273 -17.726124
-4.200363 83.769547 -20.041313
-2.572451 84.485382 -15.811928
-2.597355 83.181793 -19.149155
-2.754183 81.553955 -22.208153
-1.548985 78.85202 -24.190502
-0.55839 75.744156 -25.957634
0.254669 72.311401 -27.483719
0.927254 68.624237 -28.745403
-24.630207 39.436161 -29.43576
-25.261538 36.33374 -29.557037
-23.183493 36.677219 -30.176586
-22.045807 33.72477 -30.678242
-21.238941 30.594933 -30.924248
-17.777544 34.181038 -31.341763
-19.237522 30.665142 -31.138489
-20.76947 27.311047 -30.940319
-20.629236 23.903687 -30.79504
-20.796963 20.411083 -30.590214
-12.162998 86.8974 -10.257421
-9.491465 87.885925 -9.657299
-7.190529 88.430954 -8.785397
-5.306299 88.435059 -7.655304
-6.29644 42.448254 -33.100639
-7.894028 38.472385 -32.403019
-6.010229 38.142883 -32.445911
-5.951948 33.557022 -31.549202
-6.125244 28.711426 -30.513981
-2.76499 31.590233 -31.197124
-4.542412 27.630928 -30.317356
-6.539042 23.652767 -29.452209
1.753889 25.038158 -28.372429
0.5327 21.209332 -28.355816
-28.487898 41.385555 -27.772732
-30.390518 46.513737 -26.347424
-28.290354 44.349869 -27.452522
-26.349333 41.9935 -28.505161
-23.955084 42.651779 -29.148926
-21.409483 43.344948 -29.777691
-18.807411 44.053074 -30.433605
-19.469145 50.473766 -29.145889
-17.708899 47.712322 -30.252235
-16.223347 44.748795 -31.119099
-13.707611 45.39362 -31.804031
-11.289663 45.936611 -32.443413
-8.986446 46.317371 -32.995621
-27.506195 74.192688 -19.921207
-11.213573 84.357498 -18.323318
-12.07218 82.54776 -20.598133
-13.046228 80.353912 -22.497398
-7.747883 79.511597 -25.121265
-10.763191 78.810837 -24.68721
-14.101189 77.760651 -24.008568
-15.200153 74.786545 -25.148232
-16.310764 71.48558 -25.96273
-17.409466 67.93898 -26.523266
-15.154634 65.570221 -28.129444
-13.122427 62.949604 -29.654495
-11.340641 60.099949 -31.021084
-7.339878 64.586578 -31.850601
-8.557993 60.860836 -32.100204
-9.821453 57.032627 -32.144962
-8.565392 53.747334 -32.950989
-7.565754 50.23357 -33.38665
-6.812664 46.473736 -33.431335
-4.789267 46.352283 -33.729427
-2.946724 45.918415 -33.864342
-1.321341 45.162533 -33.794849
-0.498903 53.111942 -34.362381
-0.143183 48.731274 -34.08223
0.054691 44.100449 -33.463223
1.165987 42.768185 -32.807384
2.024378 41.213291 -31.781368
2.67326 39.485641 -30.374378
1.488888 64.735046 -29.718849
1.958498 60.674709 -30.37833
2.345711 56.452869 -30.698826
2.420643 56.95332 -26.706356
2.630482 54.638821 -28.908733
2.655136 52.061031 -30.663704
2.891411 47.47765 -30.276058
3.062805 42.675514 -29.570026
3.181835 37.631119 -28.617043
3.629471 35.688744 -26.576145
4.088013 33.690643 -24.341217
4.606255 31.66357 -22.008739
4.332798 39.518986 -21.127506
4.778088 34.660374 -20.423981
5.200676 29.630058 -19.670811
5.854202 27.606594 -17.412498
-25.901711 33.329784 -29.504421
-25.653624 24.60117 -30.395866
-9.585955 34.470051 -31.701603
-11.387587 30.494656 -31.045212
-13.314793 26.607376 -30.478474
-11.992697 21.664131 -29.314659
-13.66526 22.346867 -29.686333
-15.370673 22.875774 -30.055779
-17.53307 19.372307 -29.850235
-19.682118 65.347687 -26.162655
-20.179156 63.508218 -26.367525
-13.169319 85.365555 -14.502931
-14.751256 84.712959 -14.562051
-14.368396 85.310676 -13.231647
-26.935139 37.491615 -28.757141
-27.672767 38.744794 -28.311689
-3.278918 17.254888 -28.343117
-3.94177 18.095993 -28.518666
-2.920766 20.021285 -28.808433
-25.991461 51.285339 -26.762567
-27.150155 52.399845 -26.158986
-24.880398 50.154831 -27.348926
-26.352253 49.570813 -27.019297
-25.991461 51.285339 -26.762567
-23.449225 50.663204 -27.703052
-23.810018 48.948677 -27.959782
-24.880398 50.154831 -27.348926
1.798882 62.010955 -24.881546
1.764096 63.040098 -25.88915
5.742316 36.180769 -15.21573
5.352909 37.395073 -16.428519
5.472319 38.511736 -15.43428
5.999678 33.848022 -15.063985
5.742316 36.180769 -15.21573
5.793834 21.915984 -18.622141
5.934546 23.605145 -17.89374
-21.671655 57.901737 -26.872543
-22.114655 56.075825 -27.080751
3.020916 51.779877 -20.86553
2.702375 53.810566 -20.789246
3.289049 49.660103 -20.832571
3.08439 50.727642 -22.066483
3.020916 51.779877 -20.86553
3.529657 48.586292 -19.570339
3.593132 47.534058 -20.771292
3.289049 49.660103 -20.832571
-9.96984 17.833081 -28.413599
-9.200162 17.194387 -28.272821
3.705498 17.208976 -24.101436
3.328157 18.188562 -24.993529
3.715445 20.11487 -24.510603
-2.124205 83.846123 -15.117057
-2.60329 84.98854 -14.040157
-2.03403 81.902359 -20.178509
-2.063359 82.62397 -18.537537
-1.500034 81.344536 -19.566891
-2.112444 81.08844 -21.708008
-2.675769 82.367874 -20.678654
-2.03403 81.902359 -20.178509
-1.509845 79.737472 -22.699182
-2.151584 80.202988 -23.199327
-2.112444 81.08844 -21.708008
-0.182497 75.03003 -25.341923
-0.556762 76.69178 -24.516531
0.224032 73.313652 -26.104965
-0.151861 74.027779 -26.720676
-0.182497 75.03003 -25.341923
0.537083 71.520386 -26.810719
0.224032 73.313652 -26.104965
-20.201214 18.401516 -30.350779
-21.018912 18.64498 -30.516113
-19.979266 20.16762 -30.424879
-13.068852 86.954102 -7.407493
-12.794809 87.213432 -5.85902
-11.917372 87.250892 -8.694607
-13.314477 86.600609 -8.970307
-13.068852 86.954102 -7.407493
-6.109451 20.407716 -28.853115
-6.872225 21.052956 -28.96055
-5.776268 23.007528 -29.344774
0.319052 18.31033 -27.889606
1.023118 20.234058 -27.84305
0.80947 17.335056 -27.376841
-0.250303 19.279554 -28.241354
0.319052 18.31033 -27.889606
-29.446149 42.499319 -27.240023
-29.380707 41.112251 -27.320082
-30.292115 48.040729 -26.100946
-31.484167 47.505646 -25.796534
-25.120945 76.339241 -19.552692
-24.545752 77.546174 -18.861044
-23.294026 77.207253 -19.822218
-25.687707 75.096504 -20.217537
-26.939433 75.435425 -19.256363
-25.120945 76.339241 -19.552692
-24.419181 74.592758 -21.063383
-26.237669 73.688942 -20.767053
-25.687707 75.096504 -20.217537
-20.573013 72.583092 -23.718876
-21.845687 73.340637 -22.812451
-20.0321 74.138787 -23.273518
-19.300303 71.702309 -24.535698
-20.573013 72.583092 -23.718876
1.4241 65.837631 -28.503132
1.208071 66.679642 -29.232126
1.143283 67.782227 -28.016409
2.495693 55.941174 -25.593382
2.255976 57.983918 -25.425623
2.331027 56.971772 -24.312649
-25.798976 30.441505 -29.694873
-25.48917 29.0077 -29.985462
-12.369231 19.348793 -28.906105
-11.17353 21.230797 -29.145717
-11.550063 18.915458 -28.737164
-20.698986 61.627281 -26.524866
-21.170834 59.777034 -26.716476
-19.002049 62.359067 -27.073765
-20.698986 61.627281 -26.524866
-20.179156 63.508218 -26.367525
-16.420431 84.056198 -14.509887
-18.105833 83.316093 -14.468832
-17.635734 83.917976 -13.249711
-15.221355 84.111076 -15.781172
-16.420431 84.056198 -14.509887
-14.751256 84.712959 -14.562051
-23.318157 19.492985 -30.984186
-22.578207 19.19115 -30.833106
-11.479508 87.850426 -5.482907
-12.794809 87.213432 -5.85902
-10.229219 88.321083 -5.0774
-10.421459 88.075042 -6.726285
-11.479508 87.850426 -5.482907
-9.049449 88.756348 -4.576477
-10.229219 88.321083 -5.0774
-7.972458 88.985298 -4.044756
-8.09418 88.774651 -5.789057
-9.049449 88.756348 -4.576477
-4.650311 18.921326 -28.627482
-5.365249 19.671276 -28.75416
-4.298555 21.612339 -29.110661
-4.650311 18.921326 -28.627482
-3.94177 18.095993 -28.518666
1.972884 18.260809 -26.697496
2.041742 21.170457 -27.167598
2.501091 20.172481 -26.534811
1.347301 16.335735 -26.91506
1.972884 18.260809 -26.697496
0.80947 17.335056 -27.376841
1.347301 16.335735 -26.91506
-28.638185 51.742035 -25.868163
-27.150155 52.399845 -26.158986
-28.828514 50.134522 -26.143704
-30.003383 51.175235 -25.578928
-28.638185 51.742035 -25.868163
-27.707944 49.076012 -26.706205
-29.073142 48.509213 -26.416971
-28.828514 50.134522 -26.143704
-20.882647 79.203797 -19.41539
-22.134185 79.406205 -18.288284
-20.298001 80.195816 -18.573105
1.686694 64.005953 -26.830996
1.597562 64.963824 -27.718761
1.448444 65.982346 -26.399649
1.913213 62.021576 -27.208263
1.686694 64.005953 -26.830996
1.764096 63.040098 -25.88915
5.862535 32.68536 -15.97816
5.75528 31.413248 -16.885868
5.51565 33.791994 -17.117678
5.862535 32.68536 -15.97816
5.999678 33.848022 -15.063985
-25.182775 27.511537 -30.178064
-25.48917 29.0077 -29.985462
-24.674574 28.974277 -30.250673
-26.29198 21.789851 -30.708593
-26.321343 20.407103 -31.081025
-14.804475 15.732326 -28.623804
-13.535149 17.495018 -28.713606
-15.547071 16.234234 -28.89106
-14.804475 15.732326 -28.623804
-16.344826 16.619373 -29.123306
-15.12229 18.341721 -29.161907
-15.547071 16.234234 -28.89106
-17.087954 17.059607 -29.402493
-16.344826 16.619373 -29.123306
5.448768 22.756397 -19.662365
5.125261 23.707828 -20.764809
5.280188 25.446556 -20.049484
5.448768 22.756397 -19.662365
5.793834 21.915984 -18.622141
-3.236799 86.373138 -11.135298
-3.287078 86.738464 -9.289935
-22.592791 54.233181 -27.259626
-22.9997 52.455803 -27.496593
-21.001658 54.884892 -27.722115
-22.592791 54.233181 -27.259626
-22.114655 56.075825 -27.080751
-20.0227 58.602833 -27.387173
-21.671655 57.901737 -26.872543
-21.170834 59.777034 -26.716476
-18.64648 82.711563 -15.597043
-18.105833 83.316093 -14.468832
-19.168805 81.943466 -16.669932
-18.64648 82.711563 -15.597043
-17.412855 82.686218 -16.801897
-19.742359 81.158173 -17.660393
-19.168805 81.943466 -16.669932
-18.490821 80.955765 -18.787498
-20.298001 80.195816 -18.573105
-19.742359 81.158173 -17.660393
2.416066 55.921536 -23.170807
2.331027 56.971772 -24.312649
2.538822 54.88073 -21.980324
2.702375 53.810566 -20.789246
2.6935 53.888222 -23.289925
2.416066 55.921536 -23.170807
2.538822 54.88073 -21.980324
3.827316 47.481262 -18.319113
3.529657 48.586292 -19.570339
4.157477 45.338104 -18.243597
3.827316 47.481262 -18.319113
4.441263 43.109278 -18.06584
4.117527 44.23142 -19.331302
4.157477 45.338104 -18.243597
4.782063 41.971001 -16.812601
4.742113 40.864317 -17.900306
4.441263 43.109278 -18.06584
5.172626 40.779751 -15.566022
4.782063 41.971001 -16.812601
5.472319 38.511736 -15.43428
5.172626 40.779751 -15.566022
-24.115521 19.697041 -31.030613
-23.220326 21.057976 -30.861693
-23.318157 19.492985 -30.984186
-24.842622 19.97509 -31.114442
-24.115521 19.697041 -31.030613
-25.612899 20.159996 -31.080078
-24.787966 21.446938 -30.873755
-24.842622 19.97509 -31.114442
-26.321343 20.407103 -31.081025
-25.612899 20.159996 -31.080078
-10.769372 18.367532 -28.554424
-9.554831 20.26301 -28.835951
-9.96984 17.833081 -28.413599
-11.550063 18.915458 -28.737164
-10.769372 18.367532 -28.554424
2.885168 19.178645 -25.733702
2.501091 20.172481 -26.534811
2.954027 22.088293 -26.203804
2.885168 19.178645 -25.733702
3.328157 18.188562 -24.993529
4.953259 21.94512 -21.423872
4.784678 24.635278 -21.810992
5.125261 23.707828 -20.764809
4.731207 20.074548 -22.089745
4.953259 21.94512 -21.423872
4.471262 18.205906 -22.663973
4.35273 21.003927 -23.044283
4.731207 20.074548 -22.089745
4.140234 16.263805 -23.271286
4.471262 18.205906 -22.663973
3.705498 17.208976 -24.101436
4.140234 16.263805 -23.271286
-3.247422 85.940002 -12.915023
-3.850091 86.821442 -11.781934
-3.236799 86.373138 -11.135298
-3.216583 85.436844 -14.686794
-3.247422 85.940002 -12.915023
-2.60329 84.98854 -14.040157
-2.050906 83.275765 -16.868924
-2.124205 83.846123 -15.117057
-2.584903 83.833587 -17.480542
-2.050906 83.275765 -16.868924
-2.063359 82.62397 -18.537537
-1.052059 78.245712 -23.632965
-1.509845 79.737472 -22.699182
-1.053688 77.298088 -25.074068
-1.052059 78.245712 -23.632965
-0.556762 76.69178 -24.516531
0.873375 69.676804 -27.441561
0.590962 70.467819 -28.114561
0.537083 71.520386 -26.810719
1.143283 67.782227 -28.016409
0.873375 69.676804 -27.441561
-21.765208 18.969732 -30.720579
-22.578207 19.19115 -30.833106
-21.609963 20.632502 -30.70274
-21.765208 18.969732 -30.720579
-21.018912 18.64498 -30.516113
-13.963091 85.777298 -11.884396
-14.368396 85.310676 -13.231647
-15.545028 85.124702 -11.943515
-13.65136 86.244362 -10.426842
-13.314477 86.600609 -8.970307
-12.474729 86.430336 -11.714974
-13.963091 85.777298 -11.884396
-13.65136 86.244362 -10.426842
-6.950769 89.16137 -3.429602
-7.972458 88.985298 -4.044756
-6.132259 88.948189 -4.613251
-6.950769 89.16137 -3.429602
-5.276815 88.663917 -5.812235
-6.161744 88.71933 -6.45632
-6.132259 88.948189 -4.613251
-4.582342 88.142837 -6.979264
-5.276815 88.663917 -5.812235
-3.848927 87.552597 -8.152716
-4.572883 87.844819 -8.828757
-4.582342 88.142837 -6.979264
-3.287078 86.738464 -9.289935
-3.848927 87.552597 -8.152716
-7.980354 19.090851 -28.582009
-7.647171 21.690663 -29.073667
-6.872225 21.052956 -28.96055
-9.200162 17.194387 -28.272821
-7.980354 19.090851 -28.582009
-6.109451 20.407716 -28.853115
-5.365249 19.671276 -28.75416
-0.788456 20.206651 -28.631096
-0.005453 22.136429 -28.745558
-0.250303 19.279554 -28.241354
-1.64561 18.264978 -28.379888
-1.40076 21.121853 -28.884093
-0.788456 20.206651 -28.631096
-2.607327 16.354485 -28.195534
-1.64561 18.264978 -28.379888
-3.278918 17.254888 -28.343117
-2.607327 16.354485 -28.195534
-28.540078 39.957771 -27.827413
-29.380707 41.112251 -27.320082
-27.620587 40.172579 -28.257008
-27.672767 38.744794 -28.311689
-28.540078 39.957771 -27.827413
-31.410345 46.082893 -25.972532
-31.484167 47.505646 -25.796534
-30.397459 45.06341 -26.527369
-31.410345 46.082893 -25.972532
-29.171545 46.98222 -26.663449
-30.292115 48.040729 -26.100946
-29.073142 48.509213 -26.416971
-29.347377 43.981476 -27.079918
-30.397459 45.06341 -26.527369
-29.340436 45.431803 -26.899973
-28.389126 42.867712 -27.612627
-29.446149 42.499319 -27.240023
-29.347377 43.981476 -27.079918
-21.929319 51.249649 -28.107449
-23.449225 50.663204 -27.703052
-22.9997 52.455803 -27.496593
-23.95175 78.575058 -18.059656
-22.134185 79.406205 -18.288284
-23.95175 78.575058 -18.059656
-24.545752 77.546174 -18.861044
-28.712325 74.491364 -19.027755
-26.939433 75.435425 -19.256363
-29.259363 73.215401 -19.686163
-28.712325 74.491364 -19.027755
-28.033333 72.760841 -20.458478
-29.259363 73.215401 -19.686163
-28.033333 72.760841 -20.458478
-26.237669 73.688942 -20.767053
-23.136959 74.040764 -21.989996
-24.419181 74.592758 -21.063383
-22.586997 75.448326 -21.440479
-23.136959 74.040764 -21.989996
-21.845687 73.340637 -22.812451
-18.075972 70.754478 -25.427091
-19.300303 71.702309 -24.535698
-17.535095 72.433411 -25.071337
-18.625322 68.981178 -25.707359
-18.075972 70.754478 -25.427091
-16.860115 69.71228 -26.242998
-19.145741 67.197174 -25.966076
-18.625322 68.981178 -25.707359
-17.945842 66.089493 -26.719845
-19.682118 65.347687 -26.162655
-19.145741 67.197174 -25.966076
1.66235 63.861238 -28.934478
1.4241 65.837631 -28.503132
1.597562 64.963824 -27.718761
2.040961 60.035118 -25.205654
1.798882 62.010955 -24.881546
2.205628 59.00452 -26.486387
2.040961 60.035118 -25.205654
2.255976 57.983918 -25.425623
6.059799 25.160879 -17.126469
5.934546 23.605145 -17.89374
5.728948 26.05086 -18.179769
5.978184 28.956604 -16.579424
5.631298 30.063238 -17.718942
5.75528 31.413248 -16.885868
6.188034 26.59976 -16.365896
5.978184 28.956604 -16.579424
6.059799 25.160879 -17.126469
6.188034 26.59976 -16.365896
-26.18927 36.178684 -29.165018
-26.935139 37.491615 -28.757141
-26.007407 37.646671 -29.14916
-26.509356 34.676706 -29.13871
-26.18927 36.178684 -29.165018
-25.581625 34.831762 -29.530729
-26.710279 33.244078 -29.062055
-26.509356 34.676706 -29.13871
-26.259347 31.871177 -29.418049
-25.441339 31.900112 -29.781246
-25.798976 30.441505 -29.694873
-26.710279 33.244078 -29.062055
-26.259347 31.871177 -29.418049
-25.825498 26.073065 -30.154359
-25.182775 27.511537 -30.178064
-25.010902 26.039642 -30.41957
-26.339671 23.274513 -30.486832
-25.605933 23.116507 -30.617628
-26.29198 21.789851 -30.708593
-26.396159 24.683844 -30.135244
-26.339671 23.274513 -30.486832
-25.825498 26.073065 -30.154359
-26.396159 24.683844 -30.135244
-13.158615 19.810356 -29.12216
-12.369231 19.348793 -28.906105
-13.535149 17.495018 -28.713606
-17.894467 17.38233 -29.630533
-16.726557 19.049583 -29.622194
-17.087954 17.059607 -29.402493
-18.639728 17.772812 -29.901305
-17.894467 17.38233 -29.630533
-19.453978 18.048737 -30.105959
-18.347319 19.648232 -30.05489
-18.639728 17.772812 -29.901305
-20.201214 18.401516 -30.350779
-19.453978 18.048737 -30.105959
3 0 81 79
3 2 84 82
3 319 86 320
3 1 321 323
3 321 88 322
3 321 322 323
3 4 91 89
3 4 93 91
3 4 95 93
3 3 324 325
3 5 98 96
3 6 101 99
3 8 104 102
3 10 107 105
3 10 109 107
3 11 113 111
3 13 116 114
3 13 326 328
3 328 327 116
3 326 327 328
3 329 118 330
3 331 120 332
3 333 332 118
3 331 332 333
3 334 122 335
3 336 335 120
3 334 335 336
3 14 125 123
3 14 127 125
3 15 130 128
3 15 132 130
3 7 135 133
3 16 138 136
3 16 140 138
3 16 142 140
3 17 145 143
3 17 147 145
3 17 149 147
3 18 152 150
3 18 154 152
3 337 156 338
3 19 159 157
3 19 161 159
3 19 163 161
3 339 166 340
3 341 340 164
3 339 340 341
3 343 342 166
3 9 169 167
3 12 172 170
3 345 344 174
3 20 177 175
3 22 178 80
3 22 179 178
3 23 182 180
3 25 183 83
3 25 184 183
3 346 186 347
3 27 187 85
3 27 188 187
3 28 189 87
3 28 190 189
3 29 193 191
3 31 194 90
3 31 195 194
3 31 197 195
3 33 198 92
3 33 199 198
3 33 201 199
3 35 202 94
3 35 203 202
3 348 204 349
3 350 205 351
3 352 351 204
3 350 351 352
3 353 207 354
3 355 354 205
3 353 354 355
3 38 210 208
3 357 356 211
3 40 215 213
3 42 216 97
3 42 358 360
3 360 359 216
3 358 359 360
3 43 219 217
3 45 220 100
3 45 221 220
3 361 222 362
3 363 223 364
3 363 364 365
3 366 224 367
3 368 367 223
3 366 367 368
3 369 225 370
3 371 370 224
3 369 370 371
3 372 226 373
3 374 227 375
3 376 375 226
3 374 375 376
3 378 377 227
3 46 231 229
3 48 232 103
3 48 233 232
3 21 234 176
3 49 235 106
3 49 236 235
3 49 237 236
3 50 238 108
3 50 379 381
3 381 380 238
3 379 380 381
3 51 382 383
3 51 384 386
3 384 239 385
3 384 385 386
3 51 240 239
3 52 241 110
3 52 242 241
3 53 245 243
3 55 246 112
3 55 247 246
3 24 248 181
3 56 249 115
3 56 250 249
3 56 387 389
3 389 388 250
3 387 388 389
3 41 251 214
3 390 252 391
3 392 391 117
3 390 391 392
3 394 393 252
3 395 253 396
3 397 254 398
3 57 255 119
3 57 256 255
3 57 257 256
3 58 258 121
3 58 259 258
3 26 260 185
3 59 261 124
3 59 262 261
3 59 263 262
3 60 264 126
3 60 265 264
3 61 399 401
3 401 400 129
3 399 400 401
3 61 402 404
3 402 266 403
3 402 403 404
3 61 405 407
3 407 406 266
3 405 406 407
3 62 408 410
3 410 409 131
3 408 409 410
3 62 411 412
3 44 267 218
3 63 268 134
3 63 269 268
3 30 270 192
3 64 271 137
3 64 272 271
3 64 273 272
3 65 274 139
3 65 275 274
3 65 276 275
3 66 277 141
3 66 278 277
3 32 279 196
3 67 280 144
3 67 281 280
3 67 282 281
3 68 283 146
3 68 284 283
3 68 285 284
3 69 286 148
3 69 287 286
3 34 288 200
3 70 289 151
3 70 290 289
3 70 291 290
3 71 292 153
3 71 293 292
3 413 294 414
3 415 414 228
3 413 414 415
3 72 295 155
3 72 296 295
3 36 416 418
3 416 297 417
3 416 417 418
3 73 298 158
3 73 299 298
3 73 300 299
3 74 301 160
3 74 302 301
3 74 303 302
3 75 304 162
3 75 305 304
3 37 306 206
3 76 307 165
3 76 308 307
3 76 309 308
3 47 310 230
3 420 419 168
3 39 311 209
3 54 312 244
3 77 313 171
3 77 314 313
3 421 315 422
3 423 422 212
3 421 422 423
3 78 316 173
3 78 317 316
3 78 318 317
3 79 80 20
3 81 80 79
3 81 22 80
3 82 83 23
3 84 83 82
3 84 25 83
3 424 85 425
3 86 426 428
3 426 85 427
3 426 427 428
3 86 27 85
3 429 87 430
3 429 430 431
3 88 432 434
3 432 87 433
3 432 433 434
3 88 28 87
3 89 90 29
3 91 90 89
3 91 31 90
3 91 92 31
3 93 92 91
3 93 33 92
3 93 94 33
3 95 94 93
3 95 35 94
3 436 435 38
3 96 97 40
3 98 97 96
3 98 42 97
3 99 100 43
3 101 100 99
3 101 45 100
3 102 103 46
3 104 103 102
3 104 48 103
3 105 106 21
3 107 106 105
3 107 49 106
3 107 108 49
3 109 108 107
3 109 50 108
3 437 51 438
3 439 110 440
3 441 440 51
3 439 440 441
3 442 110 443
3 444 52 445
3 446 445 110
3 444 445 446
3 111 112 53
3 113 112 111
3 113 55 112
3 114 115 24
3 116 115 114
3 116 56 115
3 116 447 449
3 449 448 56
3 447 448 449
3 451 450 116
3 452 117 453
3 454 453 41
3 452 453 454
3 455 117 456
3 458 457 117
3 118 459 460
3 118 461 463
3 461 462 463
3 118 464 466
3 464 119 465
3 464 465 466
3 120 119 118
3 120 57 119
3 120 121 57
3 122 121 120
3 122 58 121
3 123 124 26
3 125 124 123
3 125 59 124
3 125 126 59
3 127 126 125
3 127 60 126
3 128 467 469
3 467 129 468
3 467 468 469
3 130 129 128
3 130 61 129
3 130 131 61
3 132 131 130
3 132 62 131
3 133 134 44
3 135 134 133
3 135 63 134
3 136 137 30
3 138 137 136
3 138 64 137
3 138 139 64
3 140 139 138
3 140 65 139
3 140 141 65
3 142 141 140
3 142 66 141
3 143 144 32
3 145 144 143
3 145 67 144
3 145 146 67
3 147 146 145
3 147 68 146
3 147 148 68
3 149 148 147
3 149 69 148
3 150 151 34
3 152 151 150
3 152 70 151
3 152 153 70
3 154 153 152
3 154 71 153
3 470 155 471
3 470 471 472
3 156 473 475
3 473 155 474
3 473 474 475
3 156 72 155
3 157 158 36
3 159 158 157
3 159 73 158
3 159 160 73
3 161 160 159
3 161 74 160
3 161 162 74
3 163 162 161
3 163 75 162
3 164 165 37
3 166 165 164
3 166 76 165
3 166 476 478
3 478 477 76
3 476 477 478
3 480 479 166
3 167 168 47
3 169 168 167
3 169 481 483
3 483 482 168
3 481 482 483
3 485 484 39
3 170 171 54
3 172 171 170
3 172 77 171
3 486 173 487
3 488 173 489
3 490 78 491
3 492 491 173
3 490 491 492
3 494 493 78
3 174 495 497
3 497 496 5
3 495 496 497
3 499 498 174
3 501 500 6
3 175 176 8
3 177 176 175
3 177 21 176
3 80 177 20
3 178 177 80
3 178 21 177
3 178 105 21
3 179 105 178
3 179 10 105
3 180 181 11
3 182 181 180
3 182 24 181
3 83 182 23
3 183 182 83
3 183 24 182
3 183 114 24
3 184 114 183
3 184 13 114
3 502 185 503
3 186 504 506
3 504 185 505
3 504 505 506
3 186 26 185
3 85 507 509
3 507 186 508
3 507 508 509
3 187 186 85
3 187 26 186
3 187 123 26
3 188 123 187
3 188 14 123
3 87 510 511
3 189 512 514
3 514 513 87
3 512 513 514
3 189 515 516
3 189 517 519
3 517 128 518
3 517 518 519
3 190 128 189
3 190 15 128
3 191 192 7
3 193 192 191
3 193 30 192
3 90 193 29
3 194 193 90
3 194 30 193
3 194 136 30
3 195 136 194
3 195 16 136
3 195 196 16
3 197 196 195
3 197 32 196
3 92 197 31
3 198 197 92
3 198 32 197
3 198 143 32
3 199 143 198
3 199 17 143
3 199 200 17
3 201 200 199
3 201 34 200
3 94 201 33
3 202 201 94
3 202 34 201
3 202 150 34
3 203 150 202
3 203 18 150
3 520 36 521
3 204 522 523
3 204 524 526
3 524 36 525
3 524 525 526
3 204 157 36
3 205 157 204
3 205 19 157
3 205 206 19
3 207 206 205
3 207 37 206
3 527 207 528
3 529 207 530
3 531 37 532
3 533 532 207
3 531 532 533
3 534 164 535
3 536 535 37
3 534 535 536
3 537 164 538
3 540 539 164
3 208 209 9
3 210 209 208
3 210 39 209
3 541 210 542
3 543 542 38
3 541 542 543
3 544 210 545
3 546 39 547
3 548 547 210
3 546 547 548
3 550 549 39
3 211 212 12
3 551 212 552
3 553 552 211
3 551 552 553
3 555 554 212
3 213 214 2
3 215 214 213
3 215 41 214
3 97 215 40
3 216 215 97
3 216 41 215
3 216 556 558
3 558 557 41
3 556 557 558
3 560 559 216
3 561 98 562
3 563 562 5
3 561 562 563
3 564 98 565
3 566 42 567
3 568 567 98
3 566 567 568
3 569 42 570
3 572 571 42
3 217 218 1
3 219 218 217
3 219 44 218
3 100 219 43
3 220 219 100
3 220 44 219
3 220 133 44
3 221 133 220
3 221 7 133
3 573 101 574
3 575 574 6
3 573 574 575
3 222 576 578
3 576 101 577
3 576 577 578
3 222 45 101
3 579 222 580
3 223 581 583
3 581 222 582
3 581 582 583
3 223 45 222
3 223 221 45
3 224 221 223
3 224 7 221
3 224 191 7
3 225 191 224
3 225 29 191
3 584 225 585
3 226 586 588
3 586 225 587
3 586 587 588
3 226 29 225
3 226 89 29
3 227 89 226
3 227 4 89
3 227 228 4
3 589 228 590
3 591 590 227
3 589 590 591
3 593 592 228
3 229 230 3
3 231 230 229
3 231 47 230
3 103 231 46
3 232 231 103
3 232 47 231
3 232 167 47
3 233 167 232
3 233 9 167
3 176 104 8
3 234 104 176
3 234 48 104
3 106 234 21
3 235 234 106
3 235 48 234
3 235 233 48
3 236 233 235
3 236 9 233
3 236 208 9
3 237 208 236
3 237 38 208
3 108 237 49
3 238 237 108
3 238 38 237
3 238 594 596
3 596 595 38
3 594 595 596
3 598 597 238
3 599 1 600
3 599 600 601
3 239 602 603
3 239 604 606
3 604 1 605
3 604 605 606
3 239 217 1
3 240 217 239
3 240 43 217
3 110 240 51
3 241 240 110
3 241 43 240
3 241 99 43
3 242 99 241
3 242 6 99
3 607 52 608
3 609 52 610
3 611 242 612
3 613 612 52
3 611 612 613
3 614 242 615
3 616 6 617
3 618 617 242
3 616 617 618
3 620 619 6
3 243 244 0
3 245 244 243
3 245 54 244
3 112 245 53
3 246 245 112
3 246 54 245
3 246 170 54
3 247 170 246
3 247 12 170
3 181 113 11
3 248 113 181
3 248 55 113
3 115 248 24
3 249 248 115
3 249 55 248
3 249 247 55
3 250 247 249
3 250 12 247
3 250 211 12
3 621 211 622
3 623 622 250
3 621 622 623
3 625 624 211
3 627 626 56
3 214 84 2
3 251 84 214
3 251 25 84
3 117 251 41
3 252 251 117
3 252 25 251
3 252 184 25
3 628 184 629
3 630 629 252
3 628 629 630
3 631 13 632
3 633 632 184
3 631 632 633
3 634 13 635
3 637 636 13
3 253 638 639
3 253 640 642
3 640 3 641
3 640 641 642
3 254 643 644
3 254 645 646
3 119 647 649
3 647 254 648
3 647 648 649
3 255 254 119
3 255 650 652
3 652 651 254
3 650 651 652
3 255 653 655
3 653 253 654
3 653 654 655
3 256 253 255
3 256 3 253
3 256 229 3
3 257 229 256
3 257 46 229
3 121 257 57
3 258 257 121
3 258 46 257
3 258 102 46
3 259 102 258
3 259 8 102
3 185 656 658
3 656 122 657
3 656 657 658
3 260 122 185
3 260 58 122
3 124 260 26
3 261 260 124
3 261 58 260
3 261 259 58
3 262 259 261
3 262 8 259
3 262 175 8
3 263 175 262
3 263 20 175
3 126 263 59
3 264 263 126
3 264 20 263
3 264 79 20
3 265 79 264
3 265 0 79
3 129 659 660
3 662 661 129
3 266 663 664
3 266 665 666
3 266 667 668
3 670 669 266
3 131 671 673
3 673 672 61
3 671 672 673
3 675 674 131
3 218 88 1
3 267 88 218
3 267 28 88
3 134 267 44
3 268 267 134
3 268 28 267
3 268 190 28
3 269 190 268
3 269 15 190
3 192 135 7
3 270 135 192
3 270 63 135
3 137 270 30
3 271 270 137
3 271 63 270
3 271 269 63
3 272 269 271
3 272 15 269
3 272 132 15
3 273 132 272
3 273 62 132
3 139 273 64
3 274 273 139
3 274 62 273
3 274 676 678
3 678 677 62
3 676 677 678
3 275 679 681
3 681 680 274
3 679 680 681
3 275 682 683
3 275 684 686
3 684 86 685
3 684 685 686
3 276 86 275
3 276 27 86
3 141 276 65
3 277 276 141
3 277 27 276
3 277 188 27
3 278 188 277
3 278 14 188
3 196 142 16
3 279 142 196
3 279 66 142
3 144 279 32
3 280 279 144
3 280 66 279
3 280 278 66
3 281 278 280
3 281 14 278
3 281 127 14
3 282 127 281
3 282 60 127
3 146 282 67
3 283 282 146
3 283 60 282
3 283 265 60
3 284 265 283
3 284 0 265
3 284 243 0
3 285 243 284
3 285 53 243
3 148 285 68
3 286 285 148
3 286 53 285
3 286 111 53
3 287 111 286
3 287 11 111
3 200 149 17
3 288 149 200
3 288 69 149
3 151 288 34
3 289 288 151
3 289 69 288
3 289 287 69
3 290 287 289
3 290 11 287
3 290 180 11
3 291 180 290
3 291 23 180
3 153 291 70
3 292 291 153
3 292 23 291
3 292 82 23
3 293 82 292
3 293 2 82
3 228 95 4
3 294 95 228
3 294 35 95
3 155 687 689
3 687 294 688
3 687 688 689
3 295 294 155
3 295 35 294
3 295 203 35
3 296 203 295
3 296 18 203
3 690 156 691
3 297 692 694
3 692 156 693
3 692 693 694
3 297 72 156
3 158 297 36
3 298 297 158
3 298 72 297
3 298 296 72
3 299 296 298
3 299 18 296
3 299 154 18
3 300 154 299
3 300 71 154
3 160 300 73
3 301 300 160
3 301 71 300
3 301 293 71
3 302 293 301
3 302 2 293
3 302 213 2
3 303 213 302
3 303 40 213
3 162 303 74
3 304 303 162
3 304 40 303
3 304 96 40
3 305 96 304
3 305 5 96
3 206 163 19
3 306 163 206
3 306 75 163
3 165 306 37
3 307 306 165
3 307 75 306
3 307 305 75
3 308 305 307
3 308 5 305
3 308 174 5
3 309 174 308
3 309 695 697
3 697 696 174
3 695 696 697
3 698 309 699
3 700 699 76
3 698 699 700
3 701 309 702
3 704 703 309
3 230 705 707
3 707 706 3
3 705 706 707
3 310 708 710
3 710 709 230
3 708 709 710
3 310 711 712
3 168 310 47
3 713 310 714
3 715 714 168
3 713 714 715
3 717 716 310
3 209 169 9
3 311 169 209
3 311 718 720
3 720 719 169
3 718 719 720
3 721 311 722
3 723 722 39
3 721 722 723
3 724 311 725
3 727 726 311
3 244 81 0
3 312 81 244
3 312 22 81
3 171 312 54
3 313 312 171
3 313 22 312
3 313 179 22
3 314 179 313
3 314 10 179
3 212 172 12
3 315 172 212
3 315 77 172
3 173 728 730
3 728 315 729
3 728 729 730
3 316 315 173
3 316 77 315
3 316 314 77
3 317 314 316
3 317 10 314
3 317 109 10
3 318 109 317
3 318 50 109
3 731 318 732
3 733 732 78
3 731 732 733
3 734 318 735
3 736 50 737
3 738 737 318
3 736 737 738
3 740 739 50
