ply
format ascii 1.0
element vertex 814
property float x
property float y
property float z
element face 1020
property list uchar int vertex_index
end_header
-35.858448 -26.456223 -40.717564
-30.503439 11.655523 -49.549889
-46.019119 16.391922 -40.99157
-30.56118 -4.485447 -52.852089
-44.108215 7.119026 -56.67881
-48.552551 -19.99122 -48.145432
-37.521198 17.4846 -48.532227
-34.942738 13.366093 -56.411888
-36.408699 2.808485 -58.03315
-29.00728 5.151871 -54.442215
-53.77689 -34.384087 -42.585415
-55.949074 -19.200155 -49.091866
-51.442852 8.82959 -30.3783
-39.727226 14.520805 -37.094891
-33.429058 14.160198 -40.264404
-26.76263 -5.598968 -47.673157
-26.834 -14.707661 -45.376041
-33.657696 -15.549621 -46.753582
-46.923225 -6.148543 -55.575035
-39.785145 -9.118815 -52.490578
-41.250294 -22.430843 -44.006615
-45.519737 -35.388405 -40.111782
-38.319729 -37.201416 -37.301041
-33.534603 15.274944 -49.9216
-35.846458 16.589481 -53.094086
-32.037037 13.327522 -53.827911
-31.489237 9.686392 -56.29969
-29.344641 8.965551 -52.762306
-58.885803 -26.436653 -45.227673
-36.557899 15.115383 -39.38665
-27.301029 -1.538025 -47.074688
-27.84709 -19.727957 -43.046257
-49.285709 13.223244 -35.802162
-43.647507 12.994282 -54.564659
-48.527985 8.2805 -53.317184
-49.395569 1.723694 -54.740509
-50.688221 -5.243153 -54.52195
-45.365147 0.546288 -57.066254
-33.280495 -0.40587 -55.987587
-38.106251 -3.073919 -56.034035
-34.920937 -5.985421 -53.348373
-36.555813 -11.851168 -49.677528
-32.033951 -9.864916 -50.117393
-51.683132 -27.017605 -45.442024
-49.697868 -34.712936 -41.538445
-47.688335 -27.493074 -43.838459
-43.805252 -28.423584 -42.05151
-44.770164 -20.881886 -46.095596
-41.911884 17.890045 -45.422741
-45.207684 18.2929 -46.279846
-40.440544 18.335308 -50.48185
-39.285702 15.925457 -54.57061
-39.11599 11.206589 -57.295738
-40.011566 5.279408 -58.344131
-35.194626 8.47121 -58.141647
-32.004208 4.910036 -57.04557
-29.481354 0.562963 -54.424255
-54.971722 -41.698032 -39.471813
-57.486267 -34.17865 -42.624947
-55.480385 -26.780914 -46.111626
-52.357719 -19.556219 -49.402977
-47.763062 8.619852 -30.614326
-45.769943 12.586235 -35.425026
-42.404228 12.402458 -33.671101
-42.765945 15.304737 -39.756935
-39.0886 16.349297 -43.09481
-35.323471 15.576321 -44.973034
-32.090881 13.202682 -45.214054
-30.789661 11.956657 -39.791725
-29.789589 9.699902 -44.047489
-28.657169 7.135633 -47.76437
-27.80097 3.901894 -50.332184
-27.433275 -0.02247 -51.383156
-27.605375 -4.486532 -50.919342
-27.015734 -11.288547 -43.628368
-26.524958 -9.998066 -47.006126
-28.33201 -9.354585 -49.227516
-29.599415 -14.558723 -46.689434
-31.263752 -20.034645 -43.693214
-35.077045 -21.382637 -43.365688
-33.00919 -25.618423 -40.687912
-55.449242 -11.729048 -51.032478
-51.873466 -12.32662 -52.651421
-48.172646 -12.92383 -52.374901
-41.581894 -0.992674 -57.476151
-43.259758 -7.320132 -54.71875
-44.483948 -13.864915 -50.607262
-40.97826 -15.530607 -48.179665
-37.789509 -18.071627 -45.730774
-38.180702 -24.485022 -42.178871
-50.928139 -41.996025 -39.061478
-46.61924 -42.645618 -38.11797
-41.616817 -36.332886 -38.695103
-40.321873 -29.707129 -40.465485
-37.357262 -30.888704 -39.111149
-31.876966 13.609802 -49.941818
-32.697552 14.529678 -52.030556
-31.11689 12.623856 -51.884659
-30.543743 11.257376 -53.499153
-29.83573 10.464384 -51.326286
-47.78167 14.991478 -38.455917
-49.529137 15.148281 -38.391132
-47.732361 16.621666 -41.115387
-43.757656 10.203255 -55.823586
-46.051125 10.815252 -54.086006
-46.297989 7.79414 -55.178871
-48.882454 5.090654 -54.22979
-46.748062 4.546267 -55.864136
-47.357483 1.177885 -56.121933
-44.663071 3.869518 -57.101601
-31.869759 -2.335974 -54.512161
-34.078682 -3.166008 -54.838364
-32.625404 -5.035498 -53.280609
-33.434475 -7.807158 -51.768433
-31.26162 -7.135673 -51.598984
-50.246964 -23.428169 -46.812263
-49.691849 -27.205971 -44.705845
-48.288452 -23.68681 -45.946701
-46.3451 -24.069004 -44.972786
-46.642258 -20.35981 -47.164421
-39.709087 17.927326 -47.174072
-41.195663 18.456867 -48.04726
-38.877983 18.127308 -49.707985
-35.258732 15.243511 -54.932091
-37.430214 16.547157 -54.035995
-37.019512 14.804241 -55.730949
-39.058407 13.787865 -56.12442
-36.895569 12.558992 -57.054573
-37.065277 9.947214 -57.968956
-34.925423 11.067625 -57.493393
-30.130421 7.511963 -55.559685
-31.627207 7.397511 -56.8993
-30.293165 5.256231 -55.944351
-30.664465 2.832541 -55.885643
-29.1544 2.930588 -54.643547
-58.13689 -37.852982 -40.806309
-59.169823 -34.013508 -42.119335
-57.563541 -22.792486 -47.182373
-57.234978 -26.64143 -45.88171
-55.859795 -22.981903 -47.705406
-54.062893 -23.123137 -47.784992
-54.190369 -19.391045 -49.474899
-46.901802 10.726297 -33.051193
-45.142033 10.653969 -32.535313
-41.156769 13.63665 -35.498051
-42.748566 13.757076 -36.760624
-41.227226 14.78854 -38.590359
-40.978844 16.053616 -41.583233
-39.556725 15.41082 -40.148159
-34.955509 14.819092 -40.007561
-36.054214 15.359661 -42.235275
-34.37476 14.711159 -42.702171
-33.608131 14.563698 -45.293018
-32.833405 13.700035 -42.784405
-30.33474 10.830856 -41.946381
-28.592781 6.231283 -44.903111
-28.164932 4.682693 -46.504719
-28.175949 5.610525 -49.223091
-27.768871 3.013121 -47.814533
-27.009157 -3.523916 -47.547676
-27.161047 -0.722788 -49.36792
-26.981916 -2.777861 -49.583549
-27.450937 -2.197237 -51.327133
-26.906708 -4.942378 -49.44735
-26.597473 -12.314793 -46.293045
-27.13809 -9.557921 -48.275146
-27.476364 -11.994846 -47.326321
-28.90274 -11.917515 -48.040443
-27.974522 -14.512302 -46.189766
-28.607048 -22.362553 -41.68874
-29.415129 -19.774143 -43.501144
-30.301018 -22.507118 -42.030163
-32.148827 -22.828135 -42.160282
-31.235825 -25.299221 -40.539169
-53.249474 8.839056 -29.906269
-44.648117 18.09391 -48.733246
-54.983929 -8.055757 -51.526512
-48.798893 -5.679354 -55.296028
-51.332176 -8.772832 -53.785789
-49.480591 -9.129794 -54.21714
-50.032494 -12.607899 -52.741302
-47.624359 -9.514548 -54.157669
-38.146286 4.127056 -58.433998
-40.746681 2.154549 -58.157936
-38.938175 1.09948 -57.938133
-38.977722 -6.065244 -54.415077
-40.679691 -5.011683 -55.529137
-41.49472 -8.117159 -53.72538
-43.9613 -10.547112 -52.778183
-42.18787 -11.298564 -51.6493
-42.699253 -14.590019 -49.42495
-40.470947 -12.265776 -50.371635
-35.056046 -13.58877 -48.22076
-37.249989 -14.919641 -47.690166
-35.775192 -16.592915 -46.358681
-36.360493 -19.63728 -44.551407
-34.419594 -18.471901 -45.023014
-54.47049 -38.061256 -41.069733
-52.995674 -41.813408 -39.360233
-52.47575 -38.181641 -40.794598
-47.599281 -35.004456 -40.838531
-48.268661 -38.645279 -39.762794
-46.130081 -39.012917 -39.133739
-44.457973 -43.094299 -37.550652
-44.03315 -39.450417 -38.483475
-42.035294 -39.918503 -37.822285
-43.509125 -35.844093 -39.39452
-42.642166 -25.258623 -43.034222
-41.999645 -29.041691 -41.227821
-40.94067 -26.033897 -42.155838
-39.366699 -26.866619 -41.349922
-39.648483 -23.418995 -43.057983
-37.934673 -33.886345 -38.199852
-35.436634 16.585873 -49.454445
-36.635994 17.336582 -50.944756
-34.553051 16.120426 -51.722588
-33.814766 15.123245 -53.700638
-33.311497 13.609463 -55.340675
-33.09341 11.648247 -56.597511
-31.623741 11.691582 -55.265182
-30.209347 9.535055 -54.736877
-29.065975 7.180407 -53.811241
-59.936562 -30.101109 -43.246548
-57.631149 -18.954325 -48.250664
-38.17186 15.018719 -38.406345
-36.79002 15.022301 -36.473179
-35.296661 15.040539 -37.259869
-33.821106 14.711033 -37.709808
-27.087296 -6.350342 -45.630344
-26.416798 -17.445776 -43.374496
-27.250198 -17.177774 -44.284927
-26.735998 -19.86842 -42.319267
-27.256617 -22.379337 -41.114128
-50.507858 11.148186 -33.092793
-52.296692 11.198381 -32.733383
-51.056412 13.321175 -35.57732
-51.275955 14.94836 -38.117126
-43.784794 15.33971 -52.934303
-46.027615 13.471779 -52.608444
-48.3624 11.177307 -52.013084
-51.449738 2.16889 -52.996323
-51.986748 -1.287546 -53.33577
-52.580605 -4.827974 -53.29364
-50.018478 -1.73741 -54.840424
-48.065216 -2.241865 -55.935158
-46.144146 -2.798567 -56.55619
-34.790745 1.304403 -57.191589
-37.229439 -0.118898 -57.259468
-35.612473 -1.531775 -56.195503
-36.479225 -4.410864 -54.798485
-37.337982 -7.345608 -53.073364
-38.136478 -10.358863 -51.115372
-35.762333 -8.875566 -51.596909
-34.25909 -10.657099 -50.053345
-32.846111 -12.672255 -48.477467
-52.856117 -30.689104 -44.036793
-51.77005 -34.513279 -42.147884
-50.849144 -30.83778 -43.444073
-48.801743 -31.06735 -42.697952
-46.755772 -31.398552 -41.887352
-44.755566 -31.831545 -41.078201
-45.713089 -27.899298 -42.932152
-44.452431 -24.594147 -43.981968
-42.964691 -21.574583 -45.025536
-44.041523 17.371319 -43.338417
-45.703365 17.689014 -43.681526
-43.49955 18.309086 -46.016354
-42.846081 18.544708 -48.551102
-42.203362 18.000195 -50.888687
-38.079144 17.67432 -52.011848
-39.769547 17.477493 -52.674393
-41.683792 16.694698 -52.967827
-41.374249 14.724609 -54.734993
-41.323902 12.230436 -56.145905
-41.54203 9.36688 -57.162781
-42.003357 6.276785 -57.75103
-39.447563 8.327955 -58.047279
-37.499931 7.100597 -58.438705
-35.708679 5.689381 -58.327568
-33.168312 9.340063 -57.433632
-33.50996 6.790363 -57.820381
-34.07016 4.090132 -57.740128
-32.572506 2.29347 -56.736076
-31.203547 0.291258 -55.397339
-29.959309 -1.916124 -53.812462
-56.84407 -41.606255 -39.342186
-56.360458 -37.967506 -41.091591
-55.688187 -34.287754 -42.767319
-58.327759 -30.328979 -44.017784
-56.613678 -30.479191 -44.391743
-54.786327 -30.584595 -44.380386
-53.623383 -26.891144 -45.942581
-52.183365 -23.255947 -47.460331
-50.468826 -19.739443 -48.92907
-49.600677 8.709929 -30.638836
-48.698326 10.942558 -33.22226
-47.514938 12.928257 -35.773155
-46.059807 14.601009 -38.238472
-44.065624 12.359606 -34.721825
-44.380451 14.13274 -37.681503
-44.361259 15.898724 -40.554218
-42.467812 16.769348 -42.649746
-40.446568 17.177078 -44.45377
-38.378506 17.107292 -45.901733
-37.806709 15.600975 -41.377224
-37.175751 16.184547 -44.236748
-36.350872 16.569042 -46.943733
-34.44783 15.594311 -47.551914
-32.741241 14.233917 -47.725391
-31.283539 12.551037 -47.491062
-32.413795 14.068424 -37.830956
-31.110264 13.161442 -37.653721
-32.029503 13.186573 -40.178089
-31.477814 12.384949 -42.514771
-30.812086 11.558914 -44.778851
-30.104364 10.613611 -46.89922
-29.020571 7.688334 -43.085972
-29.211161 8.487459 -46.01429
-29.431011 9.477383 -48.801697
-28.858702 8.109322 -50.415977
-28.434656 6.499628 -51.682663
-28.183363 4.663523 -52.559296
-27.428381 1.210726 -48.778114
-27.550816 2.017929 -51.055794
-28.109594 2.631313 -53.024437
-28.205223 0.437967 -53.079124
-28.45656 -1.885111 -52.745232
-28.849682 -4.314667 -52.061165
-26.777761 -8.447954 -45.68206
-26.512529 -10.604302 -45.446762
-26.590534 -7.758487 -47.479622
-26.952923 -7.205226 -48.996635
-27.898613 -6.875527 -50.203316
-29.37196 -6.836364 -51.076019
-30.009853 -9.442724 -49.844398
-30.744875 -12.129257 -48.423588
-31.549685 -14.889148 -46.873138
-28.62752 -17.106941 -44.902119
-30.39859 -17.26963 -45.222782
-32.386112 -17.706635 -45.256191
-33.206879 -20.54871 -43.641304
-33.96373 -23.354319 -42.104645
-35.5751 -24.159723 -41.87302
-34.631226 -26.02676 -40.732574
-55.792717 -15.446543 -50.213882
-53.1688 -8.417177 -52.87101
-53.680946 -12.040842 -52.074814
-54.04422 -15.697612 -50.92765
-52.23735 -15.916315 -51.165459
-50.382317 -16.137142 -50.944313
-48.500641 -16.407707 -50.32975
-42.657089 3.072773 -57.87883
-43.436512 -0.1717 -57.522316
-44.267185 -3.422812 -56.676125
-39.80558 -1.947161 -56.957359
-42.443657 -4.146174 -56.313293
-45.072781 -6.680757 -55.364929
-45.778774 -9.969706 -53.650055
-46.315353 -13.32501 -51.628304
-46.6203 -16.78072 -49.422516
-44.769661 -17.304596 -48.337414
-42.973614 -18.013918 -47.180149
-41.253189 -18.922174 -46.028862
-38.820976 -13.472163 -49.033623
-39.336075 -16.695198 -46.93845
-39.627636 -20.019279 -44.925488
-38.117863 -21.275782 -43.878399
-36.752007 -22.656364 -42.872681
-36.880219 -25.549503 -41.374252
-50.397793 -38.368599 -40.335537
-48.791496 -42.272415 -38.631672
-40.191582 -40.366791 -37.140934
-39.881889 -36.803978 -38.002529
-42.844868 -32.344864 -40.305279
-41.061142 -32.897598 -39.574657
-39.426228 -33.433556 -38.876026
-38.780701 -30.352577 -39.758457
-37.928497 -27.675282 -40.618126
-36.615051 -28.327284 -39.99313
-35.986053 -31.205488 -38.55069
-35.302189 -28.556215 -39.578773
-59.962 -33.88775 -41.684539
-59.48778 -35.84383 -41.153381
-60.279957 -35.718072 -40.718586
-44.67779 9.879097 -31.042524
-45.551602 9.679958 -31.395249
-40.441997 14.078727 -36.296471
-40.372692 13.770485 -34.733425
-39.657921 14.212563 -35.531846
-28.046232 3.422581 -45.792088
-28.194534 4.2884 -45.064434
-27.848202 2.587795 -46.446995
-27.966901 3.847907 -47.159626
-28.046232 3.422581 -45.792088
-26.715736 -13.511227 -45.834543
-26.444608 -13.707022 -45.277535
-26.562871 -14.903456 -44.819032
-29.896408 -23.797648 -41.139023
-29.454033 -22.434835 -41.859452
-29.049423 -23.725365 -40.968311
-30.363811 -25.193699 -40.393526
-30.768421 -23.903169 -41.284666
-29.896408 -23.797648 -41.139023
-52.346163 8.834323 -30.142285
-52.674653 7.584023 -28.800648
-51.771342 7.57929 -29.036663
-45.611317 17.584335 -48.688473
-44.394397 17.588743 -49.853093
-54.722796 -6.248269 -51.606472
-55.875634 -7.878599 -50.681953
-37.614872 -37.336776 -36.942793
-37.703247 -39.098698 -36.478361
-38.127201 -35.543881 -37.750446
-37.422344 -35.679241 -37.392198
-37.614872 -37.336776 -36.942793
-58.438957 -18.79939 -47.623852
-58.405929 -20.742722 -47.238291
-36.768568 15.131554 -35.00692
-37.515638 14.831765 -35.918989
-34.642052 15.256117 -36.214037
-35.339945 15.278225 -35.882864
-33.904274 15.091364 -36.439007
-34.558884 14.875786 -37.484839
-34.642052 15.256117 -36.214037
-27.393449 -6.713137 -44.495267
-27.24375 -5.330463 -45.445312
-26.314558 -18.807223 -42.348506
-26.314561 -17.657869 -42.779905
-26.474158 -20.018546 -41.820892
-26.576398 -18.657098 -42.846882
-26.314558 -18.807223 -42.348506
-27.044539 -23.701687 -40.112364
-26.835423 -22.462519 -40.704191
-27.61 -23.686822 -40.447315
-27.044539 -23.701687 -40.112364
-50.379175 15.704631 -39.554582
-50.402546 15.04832 -38.254129
-49.505766 15.804592 -39.691586
-51.258919 15.38916 -39.40378
-50.379175 15.704631 -39.554582
-49.632733 8.415833 -52.239597
-49.54994 9.864237 -51.587547
-48.445193 9.728904 -52.665134
-49.774422 6.879813 -52.795085
-49.632733 8.415833 -52.239597
-57.727703 -41.547045 -39.136631
-57.012667 -43.402342 -38.427898
-48.060446 7.476837 -29.385391
-47.143791 7.601309 -29.269577
-48.681869 8.664891 -30.626581
-48.979253 7.521876 -29.397646
-48.060446 7.476837 -29.385391
-42.083859 11.947938 -32.08713
-41.590473 12.621137 -33.001228
-42.917097 11.636636 -32.671017
-42.083859 11.947938 -32.08713
-43.234926 12.381032 -34.196463
-43.747795 11.615209 -33.196379
-42.917097 11.636636 -32.671017
-31.844753 14.296127 -36.708239
-32.510181 14.598555 -36.676868
-30.949962 12.55905 -38.722723
-30.519728 12.603457 -37.439546
-30.359426 12.001065 -38.508549
-28.753032 6.632967 -42.520308
-28.856415 7.470377 -41.624842
-27.364705 -0.16365 -47.926401
-27.521117 0.783494 -47.511921
-27.457441 -0.590881 -46.660208
-27.196554 -10.228603 -43.633389
-27.430313 -11.61909 -42.60839
-26.896748 -9.86825 -44.655214
-27.077567 -8.808306 -44.660235
-27.196554 -10.228603 -43.633389
-26.518743 -10.301184 -46.226444
-26.424295 -11.712395 -45.2043
-26.430509 -11.409277 -45.983982
-53.161099 11.086095 -32.478842
-52.545227 12.149878 -33.95479
-46.325254 17.941108 -45.008093
-46.573095 17.639166 -43.708933
-45.455524 17.990957 -44.980686
-56.466831 -13.438277 -50.04533
-56.313572 -11.559642 -50.3111
-55.62098 -13.587796 -50.62318
-56.638569 -15.297024 -49.636032
-56.466831 -13.438277 -50.04533
-54.167238 -43.548448 -38.649345
-55.145235 -43.492945 -38.625999
-51.122757 -43.787945 -38.377291
-52.156525 -43.696636 -38.526668
-51.961906 -41.904717 -39.210856
-50.061207 -43.929144 -38.240374
-51.122757 -43.787945 -38.377291
-46.817385 -44.449148 -37.578442
-47.903513 -44.262546 -37.835293
-47.705368 -42.459017 -38.374821
-45.718651 -44.688219 -37.345711
-46.817385 -44.449148 -37.578442
-43.557283 -45.173832 -36.790499
-43.412548 -43.335682 -37.245394
-36.671657 -31.047096 -38.83092
-36.264989 -32.696616 -38.050501
-36.950594 -32.538224 -38.330731
-34.933808 -29.904257 -38.833927
-34.562098 -28.478637 -39.453445
-48.607378 16.541284 -41.053713
-49.505766 15.804592 -39.691586
-48.630749 15.884974 -39.753259
-58.971314 -37.763567 -40.496868
-58.374113 -39.670408 -39.868692
-59.208537 -39.580993 -39.559252
-58.653357 -35.933245 -41.462822
-58.971314 -37.763567 -40.496868
-59.48778 -35.84383 -41.153381
-46.862116 8.662899 -30.434755
-47.143791 7.601309 -29.269577
-46.431486 9.716121 -31.653188
-47.332432 9.673075 -31.832759
-46.862116 8.662899 -30.434755
-46.021918 10.690133 -32.793253
-46.431486 9.716121 -31.653188
-45.551602 9.679958 -31.395249
-40.966743 13.238233 -33.914704
-40.372692 13.770485 -34.733425
-41.780499 13.019554 -34.584576
-41.590473 12.621137 -33.001228
-40.966743 13.238233 -33.914704
-30.256361 11.244086 -39.476993
-30.359426 12.001065 -38.508549
-30.0289 10.681186 -40.554322
-30.5622 11.393757 -40.869053
-30.256361 11.244086 -39.476993
-29.872451 9.96609 -41.544339
-30.0289 10.681186 -40.554322
-29.599875 9.400613 -42.594893
-30.062165 10.265379 -42.996935
-29.872451 9.96609 -41.544339
-28.408459 5.062696 -44.26363
-28.539137 5.904442 -43.428877
-28.378856 5.456988 -45.703915
-28.408459 5.062696 -44.26363
-28.194534 4.2884 -45.064434
-27.230074 -12.688944 -42.577041
-27.430313 -11.61909 -42.60839
-26.466766 -12.56764 -45.627442
-26.444608 -13.707022 -45.277535
-26.561216 -11.156429 -46.649586
-26.430509 -11.409277 -45.983982
-26.466766 -12.56764 -45.627442
-53.588177 7.569662 -28.517464
-52.674653 7.584023 -28.800648
-54.113007 8.729452 -29.605201
-53.588177 7.569662 -28.517464
-45.833397 17.923596 -47.501866
-46.11318 18.023091 -46.275165
-44.9279 18.193405 -47.506546
-45.833397 17.923596 -47.501866
-45.611317 17.584335 -48.688473
-56.080916 -9.722997 -50.558117
-55.875634 -7.878599 -50.681953
-55.216586 -9.892402 -51.279495
-56.313572 -11.559642 -50.3111
-56.080916 -9.722997 -50.558117
-43.200136 -41.513741 -37.711805
-43.412548 -43.335682 -37.245394
-44.245562 -41.272358 -38.017063
-43.034222 -39.68446 -38.15288
-42.201208 -41.747784 -37.381211
-43.200136 -41.513741 -37.711805
-37.2393 -34.037045 -37.875082
-37.422344 -35.679241 -37.392198
-37.645967 -32.387524 -38.655501
-36.950594 -32.538224 -38.330731
-37.2393 -34.037045 -37.875082
-60.69976 -29.941599 -42.677908
-60.34537 -31.931551 -42.248146
-60.192623 -28.124632 -43.708939
-60.69976 -29.941599 -42.677908
-59.667244 -26.292404 -44.699501
-59.411183 -28.268881 -44.237111
-60.192623 -28.124632 -43.708939
-59.033257 -24.483887 -45.726796
-59.667244 -26.292404 -44.699501
-58.372125 -22.661803 -46.704145
-58.224672 -24.61457 -46.205023
-59.033257 -24.483887 -45.726796
-57.597345 -20.873406 -47.716518
-58.372125 -22.661803 -46.704145
-58.405929 -20.742722 -47.238291
-38.984241 14.581017 -36.229845
-39.657921 14.212563 -35.531846
-38.206558 14.829974 -36.885572
-38.949543 14.769762 -37.750618
-38.984241 14.581017 -36.229845
-37.48094 15.02051 -37.439762
-38.206558 14.829974 -36.885572
-37.515638 14.831765 -35.918989
-36.086624 15.269106 -35.489519
-36.768568 15.131554 -35.00692
-36.04334 15.03142 -36.866524
-36.086624 15.269106 -35.489519
-35.339945 15.278225 -35.882864
-27.491954 -1.931974 -45.815748
-27.457441 -0.590881 -46.660208
-27.350617 -2.924304 -46.167485
-27.491954 -1.931974 -45.815748
-27.20468 -3.91725 -46.403979
-27.155093 -2.530971 -47.311182
-27.350617 -2.924304 -46.167485
-27.048226 -4.937129 -46.58901
-27.20468 -3.91725 -46.403979
-27.24375 -5.330463 -45.445312
-26.35427 -16.272513 -43.81826
-26.314561 -17.657869 -42.779905
-26.625399 -16.076718 -44.375269
-26.562871 -14.903456 -44.819032
-26.35427 -16.272513 -43.81826
-26.575114 -21.20706 -41.306761
-26.474158 -20.018546 -41.820892
-26.996308 -21.123879 -41.716698
-26.575114 -21.20706 -41.306761
-26.835423 -22.462519 -40.704191
-28.285215 -23.67843 -40.734621
-27.931832 -22.370945 -41.401434
-27.61 -23.686822 -40.447315
-29.049423 -23.725365 -40.968311
-28.285215 -23.67843 -40.734621
-51.925087 13.211275 -35.376759
-52.545227 12.149878 -33.95479
-51.676552 12.259778 -34.155352
-52.034858 14.024868 -36.646662
-51.925087 13.211275 -35.376759
-51.166184 14.134767 -36.847223
-52.133011 14.630354 -37.911495
-52.891914 13.706862 -36.44103
-52.034858 14.024868 -36.646662
-52.133011 14.630354 -37.911495
-51.258919 15.38916 -39.40378
-45.001024 15.474068 -51.856304
-43.962736 16.211643 -51.953621
-46.122435 14.540102 -51.693375
-45.001024 15.474068 -51.856304
-44.906205 14.405745 -52.771373
-47.209665 13.555643 -51.472538
-46.122435 14.540102 -51.693375
-48.377058 12.408407 -51.174858
-47.209665 13.555643 -51.472538
-47.195008 12.324543 -52.310764
-49.490795 11.221235 -50.839546
-48.377058 12.408407 -51.174858
-49.490795 11.221235 -50.839546
-49.54994 9.864237 -51.587547
-49.951656 5.28489 -53.251389
-49.774422 6.879813 -52.795085
-48.705219 6.685577 -53.773487
-51.235298 3.824008 -52.634655
-49.951656 5.28489 -53.251389
-50.166096 3.629772 -53.613056
-52.46212 2.327576 -51.983566
-51.235298 3.824008 -52.634655
-52.695658 0.628805 -52.250737
-52.46212 2.327576 -51.983566
-52.964163 -1.099413 -52.42046
-52.695658 0.628805 -52.250737
-51.718243 0.440672 -53.166046
-53.224205 -2.864164 -52.511101
-52.964163 -1.099413 -52.42046
-52.283676 -3.05776 -53.314705
-53.521133 -4.634378 -52.490036
-53.224205 -2.864164 -52.511101
-38.429985 -38.971716 -36.861708
-37.703247 -39.098698 -36.478361
-43.17202 17.541885 -50.930813
-44.394397 17.588743 -49.853093
-43.425739 18.047052 -49.810966
-42.912235 16.889137 -51.970383
-43.17202 17.541885 -50.930813
-41.943577 17.347447 -51.928257
-42.734293 16.017204 -52.951065
-43.962736 16.211643 -51.953621
-42.912235 16.889137 -51.970383
-56.081409 -43.447056 -38.561186
-57.012667 -43.402342 -38.427898
-55.907896 -41.652143 -39.406999
-55.145235 -43.492945 -38.625999
-56.081409 -43.447056 -38.561186
-57.49048 -39.729619 -40.074247
-57.727703 -41.547045 -39.136631
-58.374113 -39.670408 -39.868692
-59.553193 -32.057309 -42.682941
-59.962 -33.88775 -41.684539
-60.34537 -31.931551 -42.248146
-50.835705 7.562449 -29.22037
-51.771342 7.57929 -29.036663
-49.914617 7.502618 -29.350638
-48.979253 7.521876 -29.397646
-50.521765 8.769759 -30.508568
-50.835705 7.562449 -29.22037
-49.914617 7.502618 -29.350638
-44.286 10.762391 -32.103123
-44.67779 9.879097 -31.042524
-44.603828 11.506787 -33.628569
-44.286 10.762391 -32.103123
-43.747795 11.615209 -33.196379
-33.213836 14.919859 -36.616295
-33.904274 15.091364 -36.439007
-33.117451 14.389729 -37.770382
-33.213836 14.919859 -36.616295
-32.510181 14.598555 -36.676868
-30.563043 13.432861 -36.522211
-30.519728 12.603457 -37.439546
-31.192988 13.842636 -36.619621
-30.563043 13.432861 -36.522211
-31.76203 13.614933 -37.742339
-31.844753 14.296127 -36.708239
-31.192988 13.842636 -36.619621
-29.215367 8.394829 -42.114134
-28.856415 7.470377 -41.624842
-29.40508 8.694118 -43.56673
-29.599875 9.400613 -42.594893
-29.215367 8.394829 -42.114134
-28.806676 6.959809 -43.994541
-28.753032 6.632967 -42.520308
-28.539137 5.904442 -43.428877
-27.691362 1.684692 -47.03013
-27.848202 2.587795 -46.446995
-27.598626 2.111924 -48.296323
-27.691362 1.684692 -47.03013
-27.521117 0.783494 -47.511921
-27.232335 -7.7595 -44.634377
-27.393449 -6.713137 -44.495267
-26.932529 -7.399148 -45.656202
-27.232335 -7.7595 -44.634377
-27.077567 -8.808306 -44.660235
-26.84026 -12.364697 -43.494941
-27.230074 -12.688944 -42.577041
-26.588658 -12.022575 -44.404139
-26.424295 -11.712395 -45.2043
-26.764131 -10.946424 -44.537565
-26.84026 -12.364697 -43.494941
-26.588658 -12.022575 -44.404139
-53.63749 9.906433 -31.065285
-52.773083 10.018718 -31.319826
-53.161099 11.086095 -32.478842
-54.113007 8.729452 -29.605201
-53.63749 9.906433 -31.065285
-47.587593 17.105491 -42.425863
-46.717863 17.15534 -42.398456
-46.573095 17.639166 -43.708933
-48.607378 16.541284 -41.053713
-47.587593 17.105491 -42.425863
-46.325254 17.941108 -45.008093
-46.11318 18.023091 -46.275165
-57.557785 -17.050915 -48.654423
-58.438957 -18.79939 -47.623852
-56.711933 -17.200434 -49.232273
-57.557785 -17.050915 -48.654423
-56.638569 -15.297024 -49.636032
-53.782267 -6.441866 -52.410076
-54.722796 -6.248269 -51.606472
-53.521133 -4.634378 -52.490036
-53.179215 -43.606137 -38.593556
-54.167238 -43.548448 -38.649345
-53.983698 -41.75572 -39.416023
-53.179215 -43.606137 -38.593556
-52.156525 -43.696636 -38.526668
-48.992885 -44.067339 -38.025471
-50.061207 -43.929144 -38.240374
-49.859818 -42.13422 -38.846575
-48.992885 -44.067339 -38.025471
-47.903513 -44.262546 -37.835293
-44.638018 -44.91256 -37.062052
-45.718651 -44.688219 -37.345711
-45.538607 -42.869958 -37.834311
-44.638018 -44.91256 -37.062052
-43.557283 -45.173832 -36.790499
-41.223976 -41.979519 -37.05113
-42.201208 -41.747784 -37.381211
-40.302121 -42.203663 -36.710455
-41.223976 -41.979519 -37.05113
-41.113438 -40.142647 -37.48161
-39.422398 -42.397833 -36.348099
-40.302121 -42.203663 -36.710455
-39.365911 -40.554403 -36.781655
-39.422398 -42.397833 -36.348099
-39.211065 -38.772997 -37.212452
-39.365911 -40.554403 -36.781655
-40.036735 -38.585385 -37.571731
-39.100809 -37.002697 -37.651785
-38.429985 -38.971716 -36.861708
-39.211065 -38.772997 -37.212452
-35.582098 -32.748637 -37.745984
-36.264989 -32.696616 -38.050501
-35.27574 -31.228894 -38.319885
-35.582098 -32.748637 -37.745984
-35.644121 -29.880851 -39.064732
-34.933808 -29.904257 -38.833927
-35.27574 -31.228894 -38.319885
-30.83968 -26.607933 -39.6528
-30.363811 -25.193699 -40.393526
-31.700007 -26.726847 -39.80893
-30.83968 -26.607933 -39.6528
-32.586689 -26.886447 -39.883301
-32.122507 -25.458822 -40.61354
-31.700007 -26.726847 -39.80893
-33.415598 -27.00974 -40.008015
-32.586689 -26.886447 -39.883301
-34.226616 -27.213909 -40.030345
-33.820208 -25.822592 -40.710243
-33.415598 -27.00974 -40.008015
-34.966707 -27.291488 -40.155673
-34.226616 -27.213909 -40.030345
-34.562098 -28.478637 -39.453445
3 1 97 95
3 1 99 97
3 2 102 100
3 4 105 103
3 4 107 105
3 4 109 107
3 3 112 110
3 3 114 112
3 5 117 115
3 5 119 117
3 6 122 120
3 7 125 123
3 7 127 125
3 7 129 127
3 9 132 130
3 9 134 132
3 381 136 382
3 381 382 383
3 11 139 137
3 11 141 139
3 384 143 385
3 13 386 388
3 386 144 387
3 386 387 388
3 13 146 144
3 13 148 146
3 14 151 149
3 14 153 151
3 389 156 390
3 391 158 392
3 393 392 156
3 391 392 393
3 15 161 159
3 15 163 161
3 16 394 396
3 394 164 395
3 394 395 396
3 16 166 164
3 16 168 166
3 397 171 398
3 399 398 169
3 397 398 399
3 400 173 401
3 402 401 171
3 400 401 402
3 12 403 405
3 403 174 404
3 403 404 405
3 407 406 175
3 408 176 409
3 18 179 177
3 18 181 179
3 8 184 182
3 19 187 185
3 19 189 187
3 19 191 189
3 17 194 192
3 17 196 194
3 10 199 197
3 21 202 200
3 21 204 202
3 21 206 204
3 20 209 207
3 20 211 209
3 22 410 411
3 22 412 414
3 412 212 413
3 412 413 414
3 23 215 213
3 25 216 96
3 25 217 216
3 25 219 217
3 27 220 98
3 27 221 220
3 415 223 416
3 417 225 418
3 419 226 420
3 421 227 422
3 423 422 226
3 421 422 423
3 424 228 425
3 426 229 427
3 428 231 429
3 430 429 229
3 428 429 430
3 431 232 432
3 434 433 232
3 32 235 233
3 435 236 436
3 437 436 101
3 435 436 437
3 439 438 236
3 33 238 237
3 34 239 104
3 34 440 442
3 442 441 239
3 440 441 442
3 34 443 444
3 35 240 106
3 35 241 240
3 35 243 241
3 37 244 108
3 37 245 244
3 38 248 246
3 40 249 111
3 40 250 249
3 40 252 250
3 42 253 113
3 42 254 253
3 43 257 255
3 45 258 116
3 45 259 258
3 45 261 259
3 47 262 118
3 47 263 262
3 48 266 264
3 50 267 121
3 50 268 267
3 24 269 214
3 51 270 124
3 51 271 270
3 51 272 271
3 52 273 126
3 52 274 273
3 52 276 274
3 54 277 128
3 54 278 277
3 26 279 218
3 55 280 131
3 55 281 280
3 55 282 281
3 56 283 133
3 56 284 283
3 445 285 446
3 58 286 135
3 58 287 286
3 28 288 222
3 59 289 138
3 59 290 289
3 59 291 290
3 60 292 140
3 60 293 292
3 61 447 448
3 61 449 451
3 449 294 450
3 449 450 451
3 61 295 294
3 62 296 142
3 62 297 296
3 63 452 453
3 63 454 455
3 63 456 458
3 456 298 457
3 456 457 458
3 64 299 145
3 64 300 299
3 64 301 300
3 65 302 147
3 65 303 302
3 29 304 224
3 66 305 150
3 66 306 305
3 66 307 306
3 67 308 152
3 67 309 308
3 459 310 460
3 68 461 463
3 461 311 462
3 461 462 463
3 68 312 311
3 68 313 312
3 69 314 154
3 69 315 314
3 464 316 465
3 70 317 155
3 70 318 317
3 70 319 318
3 71 320 157
3 71 321 320
3 30 466 468
3 466 322 467
3 466 467 468
3 72 323 160
3 72 324 323
3 72 325 324
3 73 326 162
3 73 327 326
3 74 469 470
3 74 471 473
3 471 328 472
3 471 472 473
3 75 474 476
3 474 329 475
3 474 475 476
3 75 330 329
3 75 331 330
3 76 332 165
3 76 333 332
3 76 334 333
3 77 335 167
3 77 336 335
3 31 337 230
3 78 338 170
3 78 339 338
3 78 340 339
3 80 341 172
3 80 343 341
3 478 477 234
3 49 479 481
3 481 480 265
3 479 480 481
3 81 482 483
3 81 484 486
3 484 344 485
3 484 485 486
3 36 345 242
3 82 346 178
3 82 347 346
3 82 348 347
3 83 349 180
3 83 350 349
3 53 351 275
3 84 352 183
3 84 353 352
3 39 354 247
3 85 355 186
3 85 356 355
3 85 357 356
3 86 358 188
3 86 359 358
3 86 360 359
3 87 361 190
3 87 362 361
3 41 363 251
3 88 364 193
3 88 365 364
3 88 366 365
3 79 367 195
3 79 342 367
3 57 487 488
3 90 489 491
3 491 490 198
3 489 490 491
3 90 492 493
3 44 369 256
3 91 370 201
3 91 494 496
3 496 495 370
3 494 495 496
3 91 497 498
3 500 499 203
3 92 371 205
3 92 372 371
3 46 373 260
3 93 374 208
3 93 375 374
3 93 376 375
3 89 377 210
3 89 368 377
3 94 501 503
3 501 379 502
3 501 502 503
3 94 378 379
3 504 380 505
3 95 96 23
3 97 96 95
3 97 25 96
3 97 98 25
3 99 98 97
3 99 27 98
3 100 101 32
3 102 101 100
3 102 506 508
3 508 507 101
3 506 507 508
3 103 104 33
3 105 104 103
3 105 34 104
3 105 106 34
3 107 106 105
3 107 35 106
3 107 108 35
3 109 108 107
3 109 37 108
3 110 111 38
3 112 111 110
3 112 40 111
3 112 113 40
3 114 113 112
3 114 42 113
3 115 116 43
3 117 116 115
3 117 45 116
3 117 118 45
3 119 118 117
3 119 47 118
3 120 121 48
3 122 121 120
3 122 50 121
3 123 124 24
3 125 124 123
3 125 51 124
3 125 126 51
3 127 126 125
3 127 52 126
3 127 128 52
3 129 128 127
3 129 54 128
3 130 131 26
3 132 131 130
3 132 55 131
3 132 133 55
3 134 133 132
3 134 56 133
3 509 135 510
3 509 510 511
3 136 512 514
3 512 135 513
3 512 513 514
3 136 58 135
3 137 138 28
3 139 138 137
3 139 59 138
3 139 140 59
3 141 140 139
3 141 60 140
3 515 61 516
3 517 142 518
3 519 518 61
3 517 518 519
3 143 520 522
3 520 142 521
3 520 521 522
3 143 62 142
3 144 523 524
3 144 525 527
3 525 63 526
3 525 526 527
3 144 145 63
3 146 145 144
3 146 64 145
3 146 147 64
3 148 147 146
3 148 65 147
3 149 150 29
3 151 150 149
3 151 66 150
3 151 152 66
3 153 152 151
3 153 67 152
3 528 68 529
3 530 154 531
3 532 531 68
3 530 531 532
3 533 154 534
3 535 69 536
3 537 536 154
3 535 536 537
3 538 155 539
3 156 540 542
3 540 155 541
3 540 541 542
3 156 70 155
3 156 157 70
3 158 157 156
3 158 71 157
3 159 160 30
3 161 160 159
3 161 72 160
3 161 162 72
3 163 162 161
3 163 73 162
3 543 74 544
3 164 545 546
3 164 547 549
3 547 75 548
3 547 548 549
3 164 165 75
3 166 165 164
3 166 76 165
3 166 167 76
3 168 167 166
3 168 77 167
3 169 170 31
3 171 170 169
3 171 78 170
3 171 172 78
3 173 172 171
3 173 80 172
3 174 550 551
3 174 552 553
3 175 554 556
3 556 555 49
3 554 555 556
3 558 557 175
3 176 559 560
3 176 561 563
3 561 81 562
3 561 562 563
3 177 178 36
3 179 178 177
3 179 82 178
3 179 180 82
3 181 180 179
3 181 83 180
3 182 183 53
3 184 183 182
3 184 84 183
3 185 186 39
3 187 186 185
3 187 85 186
3 187 188 85
3 189 188 187
3 189 86 188
3 189 190 86
3 191 190 189
3 191 87 190
3 192 193 41
3 194 193 192
3 194 88 193
3 194 195 88
3 196 195 194
3 196 79 195
3 197 198 57
3 199 198 197
3 199 90 198
3 200 201 44
3 202 201 200
3 202 91 201
3 202 203 91
3 204 203 202
3 204 564 566
3 566 565 203
3 564 565 566
3 204 567 569
3 567 205 568
3 567 568 569
3 206 205 204
3 206 92 205
3 207 208 46
3 209 208 207
3 209 93 208
3 209 210 93
3 211 210 209
3 211 89 210
3 212 570 571
3 212 572 574
3 572 94 573
3 572 573 574
3 213 214 6
3 215 214 213
3 215 24 214
3 96 215 23
3 216 215 96
3 216 24 215
3 216 123 24
3 217 123 216
3 217 7 123
3 217 218 7
3 219 218 217
3 219 26 218
3 98 219 25
3 220 219 98
3 220 26 219
3 220 130 26
3 221 130 220
3 221 9 130
3 575 222 576
3 577 222 578
3 579 28 580
3 581 580 222
3 579 580 581
3 582 28 583
3 584 137 585
3 586 585 28
3 584 585 586
3 223 587 589
3 587 137 588
3 587 588 589
3 223 11 137
3 590 13 591
3 592 224 593
3 594 593 13
3 592 593 594
3 225 595 597
3 595 224 596
3 595 596 597
3 225 29 224
3 598 225 599
3 226 600 602
3 600 225 601
3 600 601 602
3 226 29 225
3 226 149 29
3 227 149 226
3 227 14 149
3 603 30 604
3 605 30 606
3 607 159 608
3 609 608 30
3 607 608 609
3 228 610 612
3 610 159 611
3 610 611 612
3 228 15 159
3 229 613 614
3 229 615 617
3 615 16 616
3 615 616 617
3 229 230 16
3 231 230 229
3 231 31 230
3 618 231 619
3 232 620 622
3 620 231 621
3 620 621 622
3 232 31 231
3 232 169 31
3 623 169 624
3 625 624 232
3 623 624 625
3 627 626 169
3 233 234 12
3 235 234 233
3 235 628 630
3 630 629 234
3 628 629 630
3 101 235 32
3 236 235 101
3 236 631 633
3 633 632 235
3 631 632 633
3 236 634 636
3 634 635 636
3 638 637 236
3 237 639 640
3 238 641 643
3 643 642 237
3 641 642 643
3 238 644 645
3 104 238 33
3 239 238 104
3 239 646 648
3 648 647 238
3 646 647 648
3 239 649 650
3 652 651 239
3 106 653 655
3 655 654 34
3 653 654 655
3 240 656 658
3 658 657 106
3 656 657 658
3 240 659 660
3 240 661 662
3 241 663 665
3 665 664 240
3 663 664 665
3 241 666 667
3 241 668 670
3 668 242 669
3 668 669 670
3 243 242 241
3 243 36 242
3 108 243 35
3 244 243 108
3 244 36 243
3 244 177 36
3 245 177 244
3 245 18 177
3 246 247 8
3 248 247 246
3 248 39 247
3 111 248 38
3 249 248 111
3 249 39 248
3 249 185 39
3 250 185 249
3 250 19 185
3 250 251 19
3 252 251 250
3 252 41 251
3 113 252 40
3 253 252 113
3 253 41 252
3 253 192 41
3 254 192 253
3 254 17 192
3 255 256 10
3 257 256 255
3 257 44 256
3 116 257 43
3 258 257 116
3 258 44 257
3 258 200 44
3 259 200 258
3 259 21 200
3 259 260 21
3 261 260 259
3 261 46 260
3 118 261 45
3 262 261 118
3 262 46 261
3 262 207 46
3 263 207 262
3 263 20 207
3 671 22 672
3 264 265 2
3 266 265 264
3 266 49 265
3 121 266 48
3 267 266 121
3 267 49 266
3 267 175 49
3 268 175 267
3 268 673 675
3 675 674 175
3 673 674 675
3 214 122 6
3 269 122 214
3 269 50 122
3 124 269 24
3 270 269 124
3 270 50 269
3 270 268 50
3 271 268 270
3 271 676 678
3 678 677 268
3 676 677 678
3 271 679 681
3 679 237 680
3 679 680 681
3 272 237 271
3 272 33 237
3 126 272 51
3 273 272 126
3 273 33 272
3 273 103 33
3 274 103 273
3 274 4 103
3 274 275 4
3 276 275 274
3 276 53 275
3 128 276 52
3 277 276 128
3 277 53 276
3 277 182 53
3 278 182 277
3 278 8 182
3 218 129 7
3 279 129 218
3 279 54 129
3 131 279 26
3 280 279 131
3 280 54 279
3 280 278 54
3 281 278 280
3 281 8 278
3 281 246 8
3 282 246 281
3 282 38 246
3 133 282 55
3 283 282 133
3 283 38 282
3 283 110 38
3 284 110 283
3 284 3 110
3 285 682 683
3 285 684 686
3 684 57 685
3 684 685 686
3 135 687 689
3 687 285 688
3 687 688 689
3 286 285 135
3 286 57 285
3 286 197 57
3 287 197 286
3 287 10 197
3 222 690 692
3 690 136 691
3 690 691 692
3 288 136 222
3 288 58 136
3 138 288 28
3 289 288 138
3 289 58 288
3 289 287 58
3 290 287 289
3 290 10 287
3 290 255 10
3 291 255 290
3 291 43 255
3 140 291 59
3 292 291 140
3 292 43 291
3 292 115 43
3 293 115 292
3 293 5 115
3 693 12 694
3 294 695 696
3 294 697 699
3 697 12 698
3 697 698 699
3 294 233 12
3 295 233 294
3 295 32 233
3 142 295 61
3 296 295 142
3 296 32 295
3 296 100 32
3 297 100 296
3 297 2 100
3 700 143 701
3 298 702 704
3 702 143 703
3 702 703 704
3 298 62 143
3 145 298 63
3 299 298 145
3 299 62 298
3 299 297 62
3 300 297 299
3 300 2 297
3 300 264 2
3 301 264 300
3 301 48 264
3 147 301 64
3 302 301 147
3 302 48 301
3 302 120 48
3 303 120 302
3 303 6 120
3 224 148 13
3 304 148 224
3 304 65 148
3 150 304 29
3 305 304 150
3 305 65 304
3 305 303 65
3 306 303 305
3 306 6 303
3 306 213 6
3 307 213 306
3 307 23 213
3 152 307 66
3 308 307 152
3 308 23 307
3 308 95 23
3 309 95 308
3 309 1 95
3 705 227 706
3 310 707 709
3 707 227 708
3 707 708 709
3 310 14 227
3 311 710 711
3 311 712 713
3 311 714 716
3 714 310 715
3 714 715 716
3 312 310 311
3 312 14 310
3 312 153 14
3 313 153 312
3 313 67 153
3 154 313 68
3 314 313 154
3 314 67 313
3 314 309 67
3 315 309 314
3 315 1 309
3 316 717 718
3 316 719 721
3 719 69 720
3 719 720 721
3 155 722 724
3 722 316 723
3 722 723 724
3 317 316 155
3 317 69 316
3 317 315 69
3 318 315 317
3 318 1 315
3 318 99 1
3 319 99 318
3 319 27 99
3 157 319 70
3 320 319 157
3 320 27 319
3 320 221 27
3 321 221 320
3 321 9 221
3 725 158 726
3 322 727 729
3 727 158 728
3 727 728 729
3 322 71 158
3 160 322 30
3 323 322 160
3 323 71 322
3 323 321 71
3 324 321 323
3 324 9 321
3 324 134 9
3 325 134 324
3 325 56 134
3 162 325 72
3 326 325 162
3 326 56 325
3 326 284 56
3 327 284 326
3 327 3 284
3 730 228 731
3 328 732 734
3 732 228 733
3 732 733 734
3 328 15 228
3 735 74 736
3 329 737 738
3 329 739 741
3 739 74 740
3 739 740 741
3 329 328 74
3 330 328 329
3 330 15 328
3 330 163 15
3 331 163 330
3 331 73 163
3 165 331 75
3 332 331 165
3 332 73 331
3 332 327 73
3 333 327 332
3 333 3 327
3 333 114 3
3 334 114 333
3 334 42 114
3 167 334 76
3 335 334 167
3 335 42 334
3 335 254 42
3 336 254 335
3 336 17 254
3 230 168 16
3 337 168 230
3 337 77 168
3 170 337 31
3 338 337 170
3 338 77 337
3 338 336 77
3 339 336 338
3 339 17 336
3 339 196 17
3 340 196 339
3 340 79 196
3 172 340 78
3 341 340 172
3 341 79 340
3 341 342 79
3 343 342 341
3 343 0 342
3 234 174 12
3 742 174 743
3 744 743 234
3 742 743 744
3 746 745 174
3 265 102 2
3 747 102 748
3 749 748 265
3 747 748 749
3 751 750 102
3 753 752 49
3 754 223 755
3 344 756 758
3 756 223 757
3 756 757 758
3 344 11 223
3 242 759 761
3 759 176 760
3 759 760 761
3 345 176 242
3 345 81 176
3 178 345 36
3 346 345 178
3 346 81 345
3 346 344 81
3 347 344 346
3 347 11 344
3 347 141 11
3 348 141 347
3 348 60 141
3 180 348 82
3 349 348 180
3 349 60 348
3 349 293 60
3 350 293 349
3 350 5 293
3 275 109 4
3 351 109 275
3 351 37 109
3 183 351 53
3 352 351 183
3 352 37 351
3 352 245 37
3 353 245 352
3 353 18 245
3 247 184 8
3 354 184 247
3 354 84 184
3 186 354 39
3 355 354 186
3 355 84 354
3 355 353 84
3 356 353 355
3 356 18 353
3 356 181 18
3 357 181 356
3 357 83 181
3 188 357 85
3 358 357 188
3 358 83 357
3 358 350 83
3 359 350 358
3 359 5 350
3 359 119 5
3 360 119 359
3 360 47 119
3 190 360 86
3 361 360 190
3 361 47 360
3 361 263 47
3 362 263 361
3 362 20 263
3 251 191 19
3 363 191 251
3 363 87 191
3 193 363 41
3 364 363 193
3 364 87 363
3 364 362 87
3 365 362 364
3 365 20 362
3 365 211 20
3 366 211 365
3 366 89 211
3 195 366 88
3 367 366 195
3 367 89 366
3 367 368 89
3 342 368 367
3 342 0 368
3 198 762 764
3 764 763 57
3 762 763 764
3 766 765 198
3 256 199 10
3 369 199 256
3 369 90 199
3 201 369 44
3 370 369 201
3 370 90 369
3 370 767 769
3 769 768 90
3 767 768 769
3 771 770 370
3 203 772 774
3 774 773 91
3 772 773 774
3 776 775 203
3 205 777 778
3 371 779 781
3 781 780 205
3 779 780 781
3 371 782 783
3 371 784 785
3 372 786 788
3 788 787 371
3 786 787 788
3 372 789 791
3 789 22 790
3 789 790 791
3 260 206 21
3 373 206 260
3 373 92 206
3 208 373 46
3 374 373 208
3 374 92 373
3 374 372 92
3 375 372 374
3 375 22 372
3 375 212 22
3 376 212 375
3 376 94 212
3 210 376 93
3 377 376 210
3 377 94 376
3 377 378 94
3 368 378 377
3 368 0 378
3 379 792 793
3 379 794 795
3 379 796 798
3 796 380 797
3 796 797 798
3 378 380 379
3 378 0 380
3 799 173 800
3 801 173 802
3 803 80 804
3 805 804 173
3 803 804 805
3 806 80 807
3 808 343 809
3 810 809 80
3 808 809 810
3 380 811 813
3 811 343 812
3 811 812 813
3 380 0 343
