ply
format ascii 1.0
element vertex 768
property float x
property float y
property float z
element face 934
property list uchar int vertex_index
end_header
6.655773 38.4352 -33.075203
9.998684 64.695969 -32.218971
20.324636 36.093727 -31.753332
-1.752775 50.997208 -31.126356
5.171001 26.621136 -30.179827
12.213037 23.880409 -29.976263
15.905793 75.587906 -25.743494
7.045027 88.504112 -9.574484
10.181911 84.713005 -20.462393
4.757772 75.901688 -29.055029
-3.30654 35.183372 -24.032366
25.967995 23.560497 -31.09078
6.982426 51.358734 -35.054306
12.271032 37.570675 -33.429329
15.316761 50.134987 -32.290161
25.680761 47.385567 -27.897837
-0.354288 67.907143 -27.704775
1.994446 62.044792 -34.136856
1.679049 45.329498 -34.090981
-0.623058 30.795406 -29.865072
19.201355 22.955685 -31.11706
5.803764 33.672356 -31.806059
8.688526 25.002655 -29.800325
8.796366 31.982243 -31.630175
19.773472 79.108261 -21.978067
13.798399 86.247391 -15.313969
16.599089 83.338814 -19.35116
12.87849 80.914307 -23.85359
8.141315 58.196533 -34.319084
10.78145 51.227997 -34.149879
12.738132 57.546776 -32.395973
30.408924 45.937431 -25.962446
0.823519 75.040977 -24.304525
7.216644 70.983757 -31.282473
3.086376 69.406929 -32.155785
5.466129 64.404495 -33.815689
4.368822 57.214745 -35.105469
-2.560465 43.371758 -27.925692
-2.309774 32.997036 -27.667566
-1.617521 41.246269 -30.976141
0.207943 38.801868 -32.374084
-0.480284 48.487 -33.425438
16.10141 36.717701 -32.892197
15.427614 30.164825 -32.199768
19.18808 29.725487 -31.973055
12.584885 70.618546 -29.207952
15.429079 63.52523 -29.645628
10.251995 89.243301 -3.772657
11.710186 88.186226 -10.012045
8.220436 87.170906 -15.584801
5.283703 84.121857 -20.717611
3.059479 79.236282 -25.245634
7.108955 81.16304 -25.087946
9.683651 76.644913 -27.864344
-4.291563 26.80341 -20.059015
-4.001661 37.406876 -19.421984
-2.917078 45.236748 -23.594309
-2.136072 52.867111 -27.261957
24.51651 35.665569 -30.217726
23.015848 29.622494 -31.224421
26.579617 29.575916 -30.009108
6.518005 44.444134 -34.396523
9.027424 38.302338 -33.35778
9.569941 44.743111 -34.426636
13.367311 43.953384 -33.640076
17.804625 42.921249 -32.105316
18.050085 56.042389 -29.78583
20.427177 48.770393 -30.007582
22.557625 41.99918 -30.252024
27.059729 41.119434 -28.313986
-1.256853 59.885239 -30.029173
1.455742 72.941994 -28.973886
0.322758 65.617195 -31.699526
-0.367008 57.448639 -33.228409
1.479836 53.990257 -34.787498
3.940144 49.594948 -34.981316
4.307619 41.744358 -33.690582
-3.007002 24.313438 -24.119432
-1.179867 22.074032 -26.988348
1.463388 20.089172 -28.380007
1.934399 28.621113 -30.515451
2.826559 36.159054 -32.36145
11.956772 30.949566 -31.949911
15.703634 23.198959 -30.574759
22.668373 23.140648 -31.303686
6.233368 36.456371 -32.526421
7.29686 32.700203 -31.635664
7.534086 35.618519 -32.440895
21.78117 80.194481 -19.942919
23.403234 77.829636 -20.988062
25.425289 78.788597 -19.041159
18.531044 83.806358 -16.910891
20.135534 82.173149 -18.591345
18.171263 81.411118 -20.837416
8.981756 61.501335 -33.416382
10.340996 58.025032 -33.485756
11.387236 61.190804 -32.368233
8.595028 67.984352 -31.880869
6.256516 67.785316 -32.683479
7.607719 64.777328 -33.17112
6.793848 61.425629 -34.180611
-2.195841 47.287926 -29.646574
-2.187613 42.34906 -29.644011
-1.778677 46.225136 -31.198076
-1.13386 45.0373 -32.333244
-1.238134 49.82769 -32.490967
18.185764 36.370087 -32.383682
17.59272 33.182529 -32.440468
19.610641 32.963428 -32.027397
4.99799 22.607006 -29.340994
10.456635 24.381584 -29.81143
10.628805 20.576302 -28.91482
12.501053 20.123444 -29.038218
14.334654 19.782803 -29.311563
14.158823 73.252342 -27.514059
15.629454 69.89743 -27.894617
17.403851 72.392441 -26.240114
11.943459 85.735779 -17.947447
10.82955 86.961922 -15.550562
9.095245 86.092499 -18.192392
6.666056 85.896584 -18.215521
7.503386 84.70784 -20.712442
6.083651 82.827728 -23.093061
8.560108 83.179199 -22.847372
14.380997 78.441849 -24.969427
11.196547 78.986122 -25.922251
12.66604 76.301247 -26.880774
11.121744 73.801521 -28.68799
-4.664438 33.467743 -17.295759
-4.333261 38.545464 -16.874804
-3.007318 46.120621 -21.115263
-2.504343 49.888649 -23.087442
-2.505037 49.094978 -25.520399
26.444876 35.433441 -29.310087
25.512585 32.595745 -30.096678
6.664667 47.884926 -34.875374
7.945538 44.801136 -34.501457
8.280073 48.133125 -34.794266
12.961613 50.748764 -33.316757
12.071104 47.60408 -33.92662
14.238256 47.07238 -33.149193
15.519213 43.433662 -32.942619
16.564613 46.484665 -32.208488
18.402897 62.607178 -28.228994
16.770187 59.789673 -29.720392
23.073895 48.079628 -28.913118
21.522522 45.319016 -30.146544
24.022413 44.758968 -29.138945
24.879726 41.567837 -29.299719
26.427195 44.195198 -28.157827
8.60372 89.128441 -6.708649
8.104055 89.342232 -3.372589
6.654255 88.770012 -6.280787
-0.868271 64.800583 -26.690733
-1.345919 60.754333 -27.880297
-0.844582 64.003342 -29.012159
3.791517 77.766563 -27.349474
2.19075 76.23777 -27.222509
2.899733 74.704597 -29.175585
2.471519 65.819588 -33.301941
1.537525 67.784348 -32.088211
1.044596 63.995964 -33.119133
-0.082632 61.633736 -32.624748
0.677835 60.013878 -33.832123
0.450562 55.846489 -34.208359
1.659374 58.098274 -34.636177
5.67098 54.396614 -35.174988
4.065756 53.448029 -35.216072
5.365828 50.768097 -35.127563
5.240414 47.108398 -34.752869
-3.766729 31.001934 -22.0208
-3.694494 25.526493 -22.210989
-3.252947 29.825275 -24.085249
-1.572245 31.898277 -28.967123
-1.87068 27.569611 -27.344027
-0.910376 26.485435 -28.432474
0.032307 21.047626 -27.86989
0.267511 25.435139 -29.128588
1.663643 24.42902 -29.458555
0.550409 29.697701 -30.364332
0.848274 42.304291 -33.340302
1.440336 37.490082 -32.49984
2.117462 40.801373 -33.32283
3.489079 39.262829 -33.09684
2.972023 43.566246 -33.971123
10.569931 37.984512 -33.451691
10.402294 34.736195 -32.682198
12.028358 34.299438 -32.804504
17.240803 26.508259 -31.600164
15.459693 26.7374 -31.449488
17.450806 23.020195 -30.879213
24.461811 26.522747 -31.04624
22.699139 26.424866 -31.35882
24.34763 23.341438 -31.245607
5.441093 30.348251 -31.010496
6.917891 25.751896 -29.941626
7.075672 29.403954 -30.789343
8.715685 28.623184 -30.70503
10.36167 27.99696 -30.778658
17.793999 77.559502 -23.90288
19.325161 74.587433 -24.550306
21.346134 76.418159 -22.810884
15.122677 84.933472 -17.506601
13.245926 84.220955 -19.993479
11.458603 82.998505 -22.355165
14.695663 82.37571 -21.664057
16.232819 80.160736 -22.958174
7.474808 54.807175 -34.87339
8.787592 51.471138 -34.73407
9.474504 54.777267 -34.292099
11.667387 54.418701 -33.437729
14.045723 53.839447 -32.357559
27.505878 49.881882 -26.617239
28.157011 46.675789 -26.936228
30.038334 49.018036 -25.709204
5.620672 87.364105 -12.356218
5.334152 87.678268 -9.115393
5.917662 73.635696 -30.357504
3.844286 72.780815 -30.729204
4.981863 70.46714 -31.887602
4.209927 67.078972 -33.159874
3.59141 63.507164 -34.135635
3.123047 59.775795 -34.781418
4.837427 60.873352 -34.634338
6.148441 57.957581 -34.858925
-2.913393 39.319237 -26.027655
-2.871218 34.090191 -26.002825
-2.531061 38.281796 -27.88542
-1.988356 37.206242 -29.396574
-1.241529 36.087681 -30.508471
-0.268059 34.930893 -31.202185
-0.820126 40.060825 -31.884516
-0.25148 43.725578 -33.036842
0.50679 46.981033 -33.939865
14.11977 37.129356 -33.246704
13.774815 33.870403 -32.828796
15.635705 33.488071 -32.711464
17.280472 29.895905 -32.155327
19.057018 26.386803 -31.640184
11.197897 67.748833 -30.793974
12.615635 64.248375 -31.01362
14.029764 67.164825 -29.50017
17.048855 66.317917 -28.105322
12.690836 88.536652 -4.028584
10.923134 88.832008 -6.988049
9.189787 88.653801 -9.880892
12.659805 87.324181 -12.802189
9.917555 87.930428 -12.844931
7.549059 87.971397 -12.693123
6.047853 86.774918 -15.409401
4.716311 85.076813 -18.010965
3.562578 82.914009 -20.47637
2.576153 80.336472 -22.781008
4.08399 81.883759 -23.068884
4.847708 80.494682 -25.313425
5.842043 78.716393 -27.165022
9.807915 81.278687 -24.586138
8.326233 79.104347 -26.676344
7.029306 76.534935 -28.608839
8.356434 73.955803 -29.661715
9.764191 71.008995 -30.368395
-4.225809 32.216736 -19.74299
-3.668577 36.286221 -21.820498
-3.622164 42.337559 -19.027052
-3.412584 41.333309 -21.540731
-3.189695 40.331188 -23.891062
-2.784983 44.327553 -25.885309
-2.420748 48.237213 -27.730474
-2.039141 52.003441 -29.363062
22.456692 35.870789 -31.028357
21.639883 32.817039 -31.492228
23.624554 32.709854 -30.848574
24.848589 29.617176 -30.675016
26.149162 26.61097 -30.623907
27.748507 26.63501 -30.091066
27.523375 23.746414 -30.840425
6.528809 41.16338 -33.729805
7.677013 38.461861 -33.210693
7.762884 41.540043 -33.933533
9.229492 41.500618 -34.023712
10.884567 41.210995 -33.967842
10.082851 47.995193 -34.482292
11.37953 44.420471 -34.142982
12.712152 40.785751 -33.728531
14.700785 40.314831 -33.29512
16.827894 39.861485 -32.690514
19.052399 39.458382 -31.959654
13.99194 60.590721 -31.102583
15.316752 56.859398 -31.127234
16.590883 53.129555 -31.136797
19.26923 52.353035 -29.879332
17.820286 49.46096 -31.156351
19.011919 45.89315 -31.183443
20.173244 42.443443 -31.192293
21.315281 39.108501 -31.147875
23.545856 38.791344 -30.280909
25.671041 38.472305 -29.355574
27.625319 38.112179 -28.344133
28.650307 43.605366 -27.160036
29.025787 40.623501 -27.247923
-1.745813 56.490891 -28.774614
-1.568903 55.550964 -30.737612
1.735237 77.400085 -24.89908
1.014322 74.157684 -26.804968
0.392078 70.652283 -28.474081
2.153557 71.363159 -30.764433
0.836205 69.392036 -30.474512
-0.143106 66.913567 -29.882856
-0.590561 62.957962 -31.008314
-0.937735 58.791481 -31.828566
-1.162792 54.414543 -32.3256
-0.508722 53.064934 -33.495728
0.384417 51.499557 -34.240616
1.477219 49.730164 -34.596352
2.809877 55.901299 -35.076431
2.665207 51.897682 -35.019661
2.709816 47.780502 -34.634789
4.01066 45.683868 -34.448151
5.306242 43.476582 -34.126823
5.592566 39.955971 -33.357826
-2.637571 28.682667 -25.879496
-2.183035 23.163105 -25.728605
3.254593 23.481022 -29.493666
3.491817 27.58696 -30.41308
0.927361 33.750301 -31.505449
2.312859 32.569187 -31.495176
3.837015 31.420506 -31.286291
4.30208 34.860321 -32.086075
4.886131 37.766064 -32.78933
8.901052 35.158146 -32.532127
10.341623 31.429508 -31.760435
12.026258 27.486858 -30.973623
13.650898 30.522949 -32.118233
13.722416 27.067181 -31.221453
13.959747 23.487309 -30.252279
16.125835 19.5541 -29.687994
21.114603 29.64399 -31.659082
20.886726 26.366711 -31.558802
20.946251 23.001575 -31.261377
24.58775 79.798488 -18.405634
23.603229 79.491539 -19.492039
22.76569 80.50143 -18.856514
21.942872 81.490764 -18.180727
21.099725 82.317745 -17.399389
22.76569 80.50143 -18.856514
20.958352 81.183815 -19.267132
21.942872 81.490764 -18.180727
6.00619 24.222134 -29.651629
5.919684 22.215069 -29.232212
5.084496 24.614071 -29.76041
-4.501836 39.116999 -15.537631
-4.715855 36.643471 -15.790969
-2.23921 52.089344 -22.709929
-2.48547 50.26622 -21.788433
-2.300299 51.753464 -23.991608
-2.23921 52.089344 -22.709929
26.854844 33.928633 -29.268041
27.321219 35.281164 -28.796295
20.589879 60.207061 -27.607498
19.044812 60.732532 -28.283295
19.947964 62.081707 -27.553197
24.377328 47.732597 -28.405477
23.938876 49.40123 -28.251764
25.24231 49.054199 -27.744124
-0.611279 66.353863 -27.197754
-0.602139 66.717087 -25.956806
-0.345147 68.270367 -26.463827
19.396201 21.200815 -30.814281
18.520927 21.233071 -30.695358
18.32608 22.98794 -30.998137
24.176839 76.452759 -21.378874
25.216947 77.099914 -20.517788
28.488597 51.067524 -25.993603
27.098577 51.565208 -26.44224
28.081297 52.75085 -25.818604
29.754825 50.635601 -25.539586
28.772106 49.449959 -26.163221
28.488597 51.067524 -25.993603
4.893877 86.725807 -12.108923
4.99002 86.543983 -13.696866
0.530768 73.645256 -23.900791
0.839016 75.336997 -22.920284
0.512576 73.316341 -25.216312
0.530768 73.645256 -23.900791
8.710575 23.073025 -29.377405
7.825257 23.447645 -29.448055
7.803209 25.377275 -29.870976
10.753256 18.598499 -28.520399
11.753433 18.40898 -28.564392
17.946033 67.622135 -27.322144
16.339154 68.107674 -27.999969
17.236333 69.411891 -27.216791
18.628497 65.799648 -27.415167
17.946033 67.622135 -27.322144
20.057326 72.942184 -24.760912
21.085379 73.977539 -23.972124
14.017415 87.940014 -4.077644
13.561894 88.17477 -2.523462
11.31666 88.509117 -8.500047
12.231316 88.402584 -7.044413
12.624842 88.079693 -8.556411
13.229102 86.785786 -14.058079
14.175142 86.801418 -12.687652
14.744439 86.263024 -13.943542
-3.356806 44.665682 -18.759945
-3.730803 42.841383 -17.704384
28.384073 25.239748 -30.29229
28.505028 26.587819 -29.769253
28.271507 23.79545 -30.666969
27.635941 25.190712 -30.465746
28.384073 25.239748 -30.29229
28.22992 22.431441 -31.152586
28.271507 23.79545 -30.666969
19.848204 50.561714 -29.943457
20.649532 51.949665 -29.278976
21.228506 50.158344 -29.343101
29.874592 40.338747 -26.648224
29.819459 41.796596 -26.663429
29.192636 39.148854 -27.228437
29.874592 40.338747 -26.648224
9.94766 89.319778 -2.088224
11.093442 89.058434 -2.276513
7.870297 89.313141 -1.641071
7.211166 89.054836 -3.113897
5.231025 87.702515 -7.425944
4.707479 86.932644 -8.827382
-4.238447 24.015845 -20.245107
-4.572134 24.70883 -19.122606
-3.216234 22.122494 -23.285017
-3.55998 22.729021 -22.330796
-3.350748 24.919965 -23.165211
-2.769532 21.521103 -24.156292
-3.216234 22.122494 -23.285017
-1.322326 19.846773 -26.298345
-1.82391 20.391309 -25.668474
-1.681451 22.618569 -26.358477
-0.686381 19.338282 -26.824312
-1.322326 19.846773 -26.298345
1.380537 17.883747 -27.860948
0.664996 18.362974 -27.60589
0.747847 20.568399 -28.124949
2.231984 17.469476 -28.032457
1.380537 17.883747 -27.860948
2.282031 19.648077 -28.474087
2.231984 17.469476 -28.032457
26.227975 77.579395 -19.544337
25.216947 77.099914 -20.517788
24.414262 78.309116 -20.01461
20.29748 83.134349 -16.559162
19.482006 83.81044 -15.626544
19.333289 82.989754 -17.751118
20.29748 83.134349 -16.559162
21.099725 82.317745 -17.399389
1.174216 76.633209 -23.281179
0.839016 75.336997 -22.920284
5.922097 20.158163 -28.850277
4.954426 20.508806 -28.93215
5.922097 20.158163 -28.850277
5.919684 22.215069 -29.232212
12.689557 18.18255 -28.626091
11.753433 18.40898 -28.564392
11.564929 20.349873 -28.976519
13.661696 18.04938 -28.755867
12.689557 18.18255 -28.626091
14.578496 17.879059 -28.892539
13.661696 18.04938 -28.755867
13.417853 19.953124 -29.174891
15.51344 17.80332 -29.095735
14.578496 17.879059 -28.892539
18.123531 70.659397 -26.389539
17.236333 69.411891 -27.216791
16.516652 71.144936 -27.067366
13.11929 87.700558 -9.986753
12.624842 88.079693 -8.556411
-4.881443 34.10461 -16.001447
-5.011322 31.495219 -16.250867
-4.49885 36.006603 -17.085282
-4.881443 34.10461 -16.001447
-4.715855 36.643471 -15.790969
-2.736957 48.382206 -20.802343
-3.049383 46.557213 -19.80405
-2.755831 48.004635 -22.101352
-2.736957 48.382206 -20.802343
-2.48547 50.26622 -21.788433
-2.300645 51.356628 -25.208086
-2.50469 49.491813 -24.303921
-2.300299 51.753464 -23.991608
-2.116163 53.242695 -26.078865
-2.320555 50.981044 -26.391178
-2.300645 51.356628 -25.208086
26.388699 32.509785 -29.661337
25.978731 34.014593 -29.703383
26.854844 33.928633 -29.268041
26.922214 30.99987 -29.617552
26.046101 31.085831 -30.052893
26.388699 32.509785 -29.661337
18.228457 59.32378 -29.028993
17.586542 61.198425 -28.974693
19.044812 60.732532 -28.283295
18.868406 57.450138 -29.061712
17.410136 57.916031 -29.753111
18.228457 59.32378 -29.028993
22.551865 49.812962 -28.79587
23.938876 49.40123 -28.251764
21.750536 48.42501 -29.46035
21.228506 50.158344 -29.343101
22.551865 49.812962 -28.79587
30.511027 44.453561 -26.020691
31.37997 45.549663 -25.427061
6.486266 88.768726 -4.567996
7.211166 89.054836 -3.113897
7.379155 89.056122 -4.826688
-0.786274 65.09552 -25.401081
-0.602139 66.717087 -25.956806
-1.057618 63.117569 -26.069964
-0.786274 65.09552 -25.401081
-1.107095 62.777458 -27.285515
-1.296442 61.094444 -26.664745
-1.057618 63.117569 -26.069964
17.663866 21.230415 -30.49295
16.79028 21.319797 -30.340723
16.57722 23.109577 -30.726986
17.663866 21.230415 -30.49295
18.520927 21.233071 -30.695358
22.095865 74.892902 -23.102413
21.085379 73.977539 -23.972124
20.335648 75.502796 -23.680595
23.148288 75.74702 -22.290285
22.374684 77.123897 -21.899473
24.176839 76.452759 -21.378874
22.095865 74.892902 -23.102413
23.148288 75.74702 -22.290285
15.415515 85.701336 -15.106679
14.744439 86.263024 -13.943542
17.781838 84.480819 -15.90514
19.482006 83.81044 -15.626544
16.077654 85.044376 -16.202995
17.781838 84.480819 -15.90514
16.826861 84.369915 -17.208746
14.460538 85.590431 -16.410285
15.415515 85.701336 -15.106679
16.077654 85.044376 -16.202995
26.154868 50.302357 -27.103825
27.098577 51.565208 -26.44224
26.593319 48.633724 -27.257538
25.24231 49.054199 -27.744124
26.154868 50.302357 -27.103825
31.038471 50.124676 -25.120483
29.754825 50.635601 -25.539586
31.169323 48.573208 -25.244274
31.038471 50.124676 -25.120483
32.16946 49.679848 -24.655554
31.354618 47.032905 -25.370895
30.223629 47.477733 -25.835825
31.169323 48.573208 -25.244274
31.37997 45.549663 -25.427061
31.354618 47.032905 -25.370895
4.750617 86.882889 -10.488511
5.477412 87.521186 -10.735805
4.893877 86.725807 -12.108923
4.707479 86.932644 -8.827382
4.750617 86.882889 -10.488511
-0.076327 69.749424 -26.916437
-0.345147 68.270367 -26.463827
25.993094 22.009456 -31.274166
26.732533 22.18676 -31.295698
6.879635 23.787514 -29.532528
6.00619 24.222134 -29.651629
6.044446 26.186516 -30.060727
6.879635 23.787514 -29.532528
7.825257 23.447645 -29.448055
9.680715 20.859848 -28.934652
8.710575 23.073025 -29.377405
9.658665 22.789479 -29.357572
9.680715 20.859848 -28.934652
10.753256 18.598499 -28.520399
19.305518 63.944279 -27.477003
17.725876 64.462547 -28.167158
18.628497 65.799648 -27.415167
19.947964 62.081707 -27.553197
19.305518 63.944279 -27.477003
19.096671 71.844689 -25.605816
18.364506 73.489937 -25.39521
20.057326 72.942184 -24.760912
18.123531 70.659397 -26.389539
19.096671 71.844689 -25.605816
12.312862 88.705109 -2.404477
13.183921 88.343227 -0.899354
13.561894 88.17477 -2.523462
11.471415 88.889977 -3.900621
11.093442 89.058434 -2.276513
12.312862 88.705109 -2.404477
13.115167 88.254906 -5.56468
14.017415 87.940014 -4.077644
11.806985 88.68433 -5.508317
13.115167 88.254906 -5.56468
12.231316 88.402584 -7.044413
13.594099 87.269535 -11.381825
14.175142 86.801418 -12.687652
12.184995 87.755203 -11.407117
13.11929 87.700558 -9.986753
13.594099 87.269535 -11.381825
5.203611 86.24939 -15.223458
4.99002 86.543983 -13.696866
5.834262 87.069512 -13.88281
4.53784 85.400338 -16.52424
5.203611 86.24939 -15.223458
5.382082 85.925866 -16.710183
3.991376 84.348549 -17.804458
4.53784 85.400338 -16.52424
3.414509 83.267147 -19.037161
3.991376 84.348549 -17.804458
4.139444 83.995411 -19.243668
2.946178 82.008278 -20.244915
3.414509 83.267147 -19.037161
3.069365 81.62524 -21.628689
2.452966 80.71951 -21.397234
2.946178 82.008278 -20.244915
-4.564625 27.471808 -18.885631
-4.572134 24.70883 -19.122606
-4.751062 30.803974 -17.504003
-5.011322 31.495219 -16.250867
-4.531748 30.17847 -18.727619
-4.751062 30.803974 -17.504003
-4.445123 32.842239 -18.519374
-4.258686 29.510073 -19.901002
-4.564625 27.471808 -18.885631
-4.531748 30.17847 -18.727619
-4.086351 40.945335 -16.62826
-4.501836 39.116999 -15.537631
-3.977712 40.441512 -17.950928
-4.086351 40.945335 -16.62826
-3.730803 42.841383 -17.704384
-3.314741 44.22909 -20.071157
-3.356806 44.665682 -18.759945
-3.049383 46.557213 -19.80405
27.385573 29.510426 -29.615358
26.922214 30.99987 -29.617552
27.970018 28.039973 -29.656337
28.505028 26.587819 -29.769253
27.164062 28.105463 -30.050087
27.385573 29.510426 -29.615358
27.970018 28.039973 -29.656337
27.510224 22.279719 -31.170521
26.732533 22.18676 -31.295698
26.745685 23.653455 -30.965602
27.510224 22.279719 -31.170521
28.22992 22.431441 -31.152586
19.473866 55.596581 -29.133532
18.868406 57.450138 -29.061712
20.083439 53.751903 -29.180283
20.649532 51.949665 -29.278976
18.659658 54.197712 -29.832581
19.473866 55.596581 -29.133532
20.083439 53.751903 -29.180283
27.91144 36.620533 -28.313318
27.321219 35.281164 -28.796295
27.035097 36.77281 -28.82711
29.631719 43.287529 -26.619486
29.529615 44.771398 -26.561241
30.511027 44.453561 -26.020691
28.838047 42.114433 -27.20398
29.631719 43.287529 -26.619486
29.819459 41.796596 -26.663429
28.492403 37.893192 -27.776542
28.325553 39.36784 -27.796028
29.192636 39.148854 -27.228437
27.91144 36.620533 -28.313318
28.492403 37.893192 -27.776542
26.385151 79.040897 -17.988264
24.58775 79.798488 -18.405634
27.218691 78.005768 -18.609037
26.385151 79.040897 -17.988264
26.227975 77.579395 -19.544337
27.218691 78.005768 -18.609037
8.87369 89.369243 -1.888189
9.94766 89.319778 -2.088224
9.178025 89.292766 -3.572623
8.87369 89.369243 -1.888189
7.870297 89.313141 -1.641071
5.891076 88.248386 -6.008641
5.994203 88.22414 -7.69809
5.231025 87.702515 -7.425944
6.486266 88.768726 -4.567996
5.891076 88.248386 -6.008641
-1.935267 55.065231 -26.882099
-2.116163 53.242695 -26.078865
-1.54019 59.008842 -27.191269
-1.296442 61.094444 -26.664745
-1.740137 56.877121 -27.638427
-1.54019 59.008842 -27.191269
-1.545866 58.622612 -28.327455
-1.940943 54.679001 -28.018285
-1.935267 55.065231 -26.882099
-1.740137 56.877121 -27.638427
2.050533 79.280957 -22.519421
2.452966 80.71951 -21.397234
1.630075 77.812763 -23.578457
2.050533 79.280957 -22.519421
2.155695 78.868279 -23.840044
1.279378 76.220531 -24.601803
1.174216 76.633209 -23.281179
1.630075 77.812763 -23.578457
0.607977 72.874695 -26.466533
0.512576 73.316341 -25.216312
0.918921 74.599331 -25.554747
0.296855 71.121994 -27.30109
0.607977 72.874695 -26.466533
0.7032 72.404984 -27.639525
0.018895 69.279713 -28.089428
-0.076327 69.749424 -26.916437
0.296855 71.121994 -27.30109
-3.939913 23.377386 -21.321095
-4.238447 24.015845 -20.245107
-3.993029 26.164952 -21.135002
-3.939913 23.377386 -21.321095
-3.55998 22.729021 -22.330796
-2.357548 20.945936 -24.960878
-2.769532 21.521103 -24.156292
-2.595019 23.738272 -24.924019
-2.357548 20.945936 -24.960878
-1.82391 20.391309 -25.668474
-0.080294 18.825079 -27.265083
-0.686381 19.338282 -26.824312
-0.57378 21.560829 -27.429119
-0.080294 18.825079 -27.265083
0.664996 18.362974 -27.60589
2.382159 21.818001 -29.013361
2.282031 19.648077 -28.474087
1.563515 22.259096 -28.919281
3.177633 21.344002 -29.030917
2.382159 21.818001 -29.013361
2.459118 23.955021 -29.476111
4.082727 20.945814 -29.008486
3.177633 21.344002 -29.030917
4.126291 23.044014 -29.41733
4.954426 20.508806 -28.93215
4.082727 20.945814 -29.008486
16.409031 17.688968 -29.283951
15.51344 17.80332 -29.095735
15.230244 19.668451 -29.499778
17.00138 19.497368 -29.897341
15.914734 21.376529 -30.131377
16.79028 21.319797 -30.340723
17.303113 17.672495 -29.535652
17.00138 19.497368 -29.897341
16.409031 17.688968 -29.283951
17.303113 17.672495 -29.535652
25.182912 21.899927 -31.351579
25.157812 23.450968 -31.168194
25.993094 22.009456 -31.274166
24.417595 21.722814 -31.291716
25.182912 21.899927 -31.351579
23.577966 21.622419 -31.320755
23.508001 23.241043 -31.274646
24.417595 21.722814 -31.291716
22.785452 21.468109 -31.221859
23.577966 21.622419 -31.320755
21.924391 21.398573 -31.200705
21.807312 23.071112 -31.282531
22.785452 21.468109 -31.221859
21.107081 21.284879 -31.062059
21.924391 21.398573 -31.200705
20.234634 21.261934 -30.9899
20.073803 22.97863 -31.189218
21.107081 21.284879 -31.062059
19.396201 21.200815 -30.814281
20.234634 21.261934 -30.9899
3 0 87 85
3 339 90 340
3 341 340 88
3 339 340 341
3 342 92 343
3 344 88 345
3 346 345 92
3 344 345 346
3 1 96 94
3 1 99 97
3 1 94 99
3 3 103 101
3 3 105 103
3 2 108 106
3 4 347 349
3 349 348 109
3 347 348 349
3 5 112 110
3 5 113 112
3 6 116 114
3 8 119 117
3 8 121 119
3 8 123 121
3 6 126 124
3 6 114 126
3 350 129 351
3 352 131 353
3 355 354 131
3 357 356 133
3 12 137 135
3 14 140 138
3 14 142 140
3 360 359 143
3 358 359 360
3 15 361 363
3 361 145 362
3 361 362 363
3 15 147 145
3 15 149 147
3 7 152 150
3 16 364 366
3 364 153 365
3 364 365 366
3 16 155 153
3 9 158 156
3 17 161 159
3 17 163 161
3 17 165 163
3 12 168 166
3 12 135 168
3 10 172 170
3 19 175 173
3 19 177 175
3 19 179 177
3 18 182 180
3 18 184 182
3 13 187 185
3 20 190 188
3 20 367 369
3 369 368 190
3 367 368 369
3 11 193 191
3 21 196 194
3 23 197 86
3 23 198 197
3 24 201 199
3 371 370 89
3 26 202 91
3 26 203 202
3 26 205 203
3 24 206 93
3 24 199 206
3 28 209 207
3 30 210 95
3 30 211 210
3 372 212 373
3 372 373 374
3 375 214 376
3 377 376 212
3 375 376 377
3 379 378 215
3 32 380 381
3 32 382 383
3 33 219 217
3 35 220 98
3 35 221 220
3 35 223 221
3 28 224 100
3 28 207 224
3 37 227 225
3 39 228 102
3 39 229 228
3 39 231 229
3 41 232 104
3 41 233 232
3 42 236 234
3 44 237 107
3 44 238 237
3 22 384 386
3 386 385 195
3 384 385 386
3 388 387 111
3 45 241 239
3 389 242 390
3 391 390 115
3 389 390 391
3 393 392 242
3 395 394 200
3 396 243 397
3 48 398 400
3 398 244 399
3 398 399 400
3 48 245 244
3 25 401 403
3 401 246 402
3 401 402 403
3 49 247 118
3 49 248 247
3 49 249 248
3 50 250 120
3 50 251 250
3 50 253 251
3 52 254 122
3 52 255 254
3 27 256 204
3 53 257 125
3 53 258 257
3 53 259 258
3 45 260 127
3 45 239 260
3 55 261 128
3 55 262 261
3 404 263 405
3 56 264 130
3 56 265 264
3 56 266 265
3 57 267 132
3 57 268 267
3 58 271 269
3 60 272 134
3 60 273 272
3 406 274 407
3 408 275 409
3 410 409 274
3 408 409 410
3 412 411 275
3 61 278 276
3 63 279 136
3 63 280 279
3 29 281 208
3 64 282 139
3 64 283 282
3 64 284 283
3 65 285 141
3 65 286 285
3 46 287 240
3 66 288 144
3 66 289 288
3 67 413 415
3 413 290 414
3 413 414 415
3 67 291 290
3 67 292 291
3 68 293 146
3 68 294 293
3 68 295 294
3 69 296 148
3 69 297 296
3 31 298 213
3 416 299 417
3 419 418 299
3 47 420 421
3 423 422 151
3 425 424 216
3 70 300 154
3 70 301 300
3 51 302 252
3 71 303 157
3 71 304 303
3 34 305 218
3 72 306 160
3 72 307 306
3 72 308 307
3 73 309 162
3 73 310 309
3 73 311 310
3 74 312 164
3 74 313 312
3 36 314 222
3 75 315 167
3 75 316 315
3 75 317 316
3 61 318 169
3 61 276 318
3 54 426 427
3 77 428 430
3 430 429 171
3 428 429 430
3 77 431 432
3 38 320 226
3 78 321 174
3 78 433 435
3 435 434 321
3 433 434 435
3 78 436 437
3 79 438 440
3 440 439 176
3 438 439 440
3 79 441 442
3 79 443 444
3 80 322 178
3 80 323 322
3 40 324 230
3 81 325 181
3 81 326 325
3 81 327 326
3 76 328 183
3 76 319 328
3 62 329 277
3 82 330 186
3 82 331 330
3 43 332 235
3 83 333 189
3 83 334 333
3 83 335 334
3 59 336 270
3 84 337 192
3 84 338 337
3 85 86 21
3 87 86 85
3 87 23 86
3 88 89 24
3 90 89 88
3 90 445 447
3 447 446 89
3 445 446 447
3 448 91 449
3 92 450 452
3 450 91 451
3 450 451 452
3 92 26 91
3 92 93 26
3 88 93 92
3 88 24 93
3 94 95 28
3 96 95 94
3 96 30 95
3 453 32 454
3 97 98 33
3 99 98 97
3 99 35 98
3 99 100 35
3 94 100 99
3 94 28 100
3 101 102 37
3 103 102 101
3 103 39 102
3 103 104 39
3 105 104 103
3 105 41 104
3 106 107 42
3 108 107 106
3 108 44 107
3 109 455 456
3 458 457 109
3 110 111 22
3 112 111 110
3 112 459 461
3 461 460 111
3 459 460 461
3 112 462 463
3 113 464 466
3 466 465 112
3 464 465 466
3 113 467 468
3 114 115 45
3 116 115 114
3 116 469 471
3 471 470 115
3 469 470 471
3 472 48 473
3 117 118 25
3 119 118 117
3 119 49 118
3 119 120 49
3 121 120 119
3 121 50 120
3 121 122 50
3 123 122 121
3 123 52 122
3 124 125 27
3 126 125 124
3 126 53 125
3 126 127 53
3 114 127 126
3 114 45 127
3 474 128 475
3 129 476 478
3 476 128 477
3 476 477 478
3 129 55 128
3 479 130 480
3 131 481 483
3 481 130 482
3 481 482 483
3 131 56 130
3 131 132 56
3 484 132 485
3 486 485 131
3 484 485 486
3 487 57 488
3 489 488 132
3 487 488 489
3 133 134 58
3 490 134 491
3 492 491 133
3 490 491 492
3 493 60 494
3 495 494 134
3 493 494 495
3 135 136 61
3 137 136 135
3 137 63 136
3 138 139 29
3 140 139 138
3 140 64 139
3 140 141 64
3 142 141 140
3 142 65 141
3 143 144 46
3 496 144 497
3 498 497 143
3 496 497 498
3 499 66 500
3 501 500 144
3 499 500 501
3 145 502 503
3 145 504 506
3 504 67 505
3 504 505 506
3 145 146 67
3 147 146 145
3 147 68 146
3 147 148 68
3 149 148 147
3 149 69 148
3 508 507 31
3 150 151 47
3 152 151 150
3 152 509 511
3 511 510 151
3 509 510 511
3 153 512 513
3 153 514 515
3 153 516 518
3 516 154 517
3 516 517 518
3 155 154 153
3 155 70 154
3 156 157 51
3 158 157 156
3 158 71 157
3 159 160 34
3 161 160 159
3 161 72 160
3 161 162 72
3 163 162 161
3 163 73 162
3 163 164 73
3 165 164 163
3 165 74 164
3 166 167 36
3 168 167 166
3 168 75 167
3 168 169 75
3 135 169 168
3 135 61 169
3 170 171 54
3 172 171 170
3 172 77 171
3 173 174 38
3 175 174 173
3 175 78 174
3 175 176 78
3 177 176 175
3 177 79 176
3 177 178 79
3 179 178 177
3 179 80 178
3 180 181 40
3 182 181 180
3 182 81 181
3 182 183 81
3 184 183 182
3 184 76 183
3 185 186 62
3 187 186 185
3 187 82 186
3 188 189 43
3 190 189 188
3 190 83 189
3 190 519 521
3 521 520 83
3 519 520 521
3 523 522 190
3 191 192 59
3 193 192 191
3 193 84 192
3 194 195 4
3 196 195 194
3 196 22 195
3 86 196 21
3 197 196 86
3 197 22 196
3 197 110 22
3 198 110 197
3 198 5 110
3 199 200 6
3 201 200 199
3 201 524 526
3 526 525 200
3 524 525 526
3 89 201 24
3 527 201 528
3 529 528 89
3 527 528 529
3 531 530 201
3 532 25 533
3 91 534 535
3 202 536 538
3 538 537 91
3 536 537 538
3 202 539 541
3 539 25 540
3 539 540 541
3 202 117 25
3 203 117 202
3 203 8 117
3 203 204 8
3 205 204 203
3 205 27 204
3 93 205 26
3 206 205 93
3 206 27 205
3 206 124 27
3 199 124 206
3 199 6 124
3 207 208 12
3 209 208 207
3 209 29 208
3 95 209 28
3 210 209 95
3 210 29 209
3 210 138 29
3 211 138 210
3 211 14 138
3 212 542 543
3 212 544 546
3 544 15 545
3 544 545 546
3 212 213 15
3 214 213 212
3 214 31 213
3 547 214 548
3 549 214 550
3 549 550 551
3 552 31 553
3 554 553 214
3 552 553 554
3 556 555 31
3 215 216 7
3 557 216 558
3 559 558 215
3 557 558 559
3 561 560 216
3 562 16 563
3 217 218 9
3 219 218 217
3 219 34 218
3 98 219 33
3 220 219 98
3 220 34 219
3 220 159 34
3 221 159 220
3 221 17 159
3 221 222 17
3 223 222 221
3 223 36 222
3 100 223 35
3 224 223 100
3 224 36 223
3 224 166 36
3 207 166 224
3 207 12 166
3 225 226 10
3 227 226 225
3 227 38 226
3 102 227 37
3 228 227 102
3 228 38 227
3 228 173 38
3 229 173 228
3 229 19 173
3 229 230 19
3 231 230 229
3 231 40 230
3 104 231 39
3 232 231 104
3 232 40 231
3 232 180 40
3 233 180 232
3 233 18 180
3 234 235 13
3 236 235 234
3 236 43 235
3 107 236 42
3 237 236 107
3 237 43 236
3 237 188 43
3 238 188 237
3 238 20 188
3 565 564 11
3 195 566 568
3 568 567 4
3 566 567 568
3 570 569 195
3 111 571 573
3 573 572 22
3 571 572 573
3 575 574 111
3 239 240 1
3 241 240 239
3 241 46 240
3 115 241 45
3 242 241 115
3 242 46 241
3 242 143 46
3 576 143 577
3 578 577 242
3 576 577 578
3 580 579 143
3 200 116 6
3 581 116 582
3 583 582 200
3 581 582 583
3 585 584 116
3 243 586 588
3 586 587 588
3 243 589 591
3 589 47 590
3 589 590 591
3 592 243 593
3 244 594 596
3 594 243 595
3 594 595 596
3 244 47 243
3 244 150 47
3 245 150 244
3 245 7 150
3 246 597 598
3 246 599 601
3 599 48 600
3 599 600 601
3 118 246 25
3 247 246 118
3 247 48 246
3 247 245 48
3 248 245 247
3 248 7 245
3 248 215 7
3 249 215 248
3 249 602 604
3 604 603 215
3 602 603 604
3 120 249 49
3 250 249 120
3 250 605 607
3 607 606 249
3 605 606 607
3 250 608 609
3 251 610 612
3 612 611 250
3 610 611 612
3 251 613 614
3 251 615 617
3 615 252 616
3 615 616 617
3 253 252 251
3 253 51 252
3 122 253 50
3 254 253 122
3 254 51 253
3 254 156 51
3 255 156 254
3 255 9 156
3 204 123 8
3 256 123 204
3 256 52 123
3 125 256 27
3 257 256 125
3 257 52 256
3 257 255 52
3 258 255 257
3 258 9 255
3 258 217 9
3 259 217 258
3 259 33 217
3 127 259 53
3 260 259 127
3 260 33 259
3 260 97 33
3 239 97 260
3 239 1 97
3 618 54 619
3 128 620 621
3 261 622 624
3 624 623 128
3 622 623 624
3 261 625 627
3 625 54 626
3 625 626 627
3 261 170 54
3 262 170 261
3 262 10 170
3 628 129 629
3 263 630 632
3 630 129 631
3 630 631 632
3 263 55 129
3 130 633 635
3 633 263 634
3 633 634 635
3 264 263 130
3 264 55 263
3 264 262 55
3 265 262 264
3 265 10 262
3 265 225 10
3 266 225 265
3 266 37 225
3 132 266 56
3 267 266 132
3 267 37 266
3 267 101 37
3 268 101 267
3 268 3 101
3 269 270 2
3 271 270 269
3 271 59 270
3 134 271 58
3 272 271 134
3 272 59 271
3 272 191 59
3 273 191 272
3 273 11 191
3 636 60 637
3 274 638 639
3 274 640 642
3 640 60 641
3 640 641 642
3 274 273 60
3 275 273 274
3 275 11 273
3 275 643 645
3 645 644 11
3 643 644 645
3 647 646 275
3 276 277 0
3 278 277 276
3 278 62 277
3 136 278 61
3 279 278 136
3 279 62 278
3 279 185 62
3 280 185 279
3 280 13 185
3 208 137 12
3 281 137 208
3 281 63 137
3 139 281 29
3 282 281 139
3 282 63 281
3 282 280 63
3 283 280 282
3 283 13 280
3 283 234 13
3 284 234 283
3 284 42 234
3 141 284 64
3 285 284 141
3 285 42 284
3 285 106 42
3 286 106 285
3 286 2 106
3 240 96 1
3 287 96 240
3 287 30 96
3 144 287 46
3 288 287 144
3 288 30 287
3 288 211 30
3 289 211 288
3 289 14 211
3 648 66 649
3 290 650 651
3 290 652 654
3 652 66 653
3 652 653 654
3 290 289 66
3 291 289 290
3 291 14 289
3 291 142 14
3 292 142 291
3 292 65 142
3 146 292 67
3 293 292 146
3 293 65 292
3 293 286 65
3 294 286 293
3 294 2 286
3 294 269 2
3 295 269 294
3 295 58 269
3 148 295 68
3 296 295 148
3 296 58 295
3 296 133 58
3 297 133 296
3 297 655 657
3 657 656 133
3 655 656 657
3 213 149 15
3 298 149 213
3 298 69 149
3 658 298 659
3 660 659 31
3 658 659 660
3 299 661 663
3 661 298 662
3 661 662 663
3 299 69 298
3 299 297 69
3 664 297 665
3 666 665 299
3 664 665 666
3 668 667 297
3 669 90 670
3 671 90 672
3 674 673 90
3 151 675 677
3 677 676 47
3 675 676 677
3 679 678 151
3 216 152 7
3 680 152 681
3 682 681 216
3 680 681 682
3 684 683 152
3 685 57 686
3 154 687 688
3 300 689 691
3 691 690 154
3 689 690 691
3 300 692 694
3 692 57 693
3 692 693 694
3 300 268 57
3 301 268 300
3 301 3 268
3 252 695 696
3 302 697 699
3 699 698 252
3 697 698 699
3 302 700 702
3 700 32 701
3 700 701 702
3 157 302 51
3 303 302 157
3 303 32 302
3 303 703 705
3 705 704 32
3 703 704 705
3 304 706 708
3 708 707 303
3 706 707 708
3 304 709 711
3 709 16 710
3 709 710 711
3 218 158 9
3 305 158 218
3 305 71 158
3 160 305 34
3 306 305 160
3 306 71 305
3 306 304 71
3 307 304 306
3 307 16 304
3 307 155 16
3 308 155 307
3 308 70 155
3 162 308 72
3 309 308 162
3 309 70 308
3 309 301 70
3 310 301 309
3 310 3 301
3 310 105 3
3 311 105 310
3 311 41 105
3 164 311 73
3 312 311 164
3 312 41 311
3 312 233 41
3 313 233 312
3 313 18 233
3 222 165 17
3 314 165 222
3 314 74 165
3 167 314 36
3 315 314 167
3 315 74 314
3 315 313 74
3 316 313 315
3 316 18 313
3 316 184 18
3 317 184 316
3 317 76 184
3 169 317 75
3 318 317 169
3 318 76 317
3 318 319 76
3 276 319 318
3 276 0 319
3 171 712 714
3 714 713 54
3 712 713 714
3 716 715 171
3 226 172 10
3 320 172 226
3 320 77 172
3 174 320 38
3 321 320 174
3 321 77 320
3 321 717 719
3 719 718 77
3 717 718 719
3 721 720 321
3 176 722 724
3 724 723 78
3 722 723 724
3 726 725 176
3 178 727 729
3 729 728 79
3 727 728 729
3 322 730 732
3 732 731 178
3 730 731 732
3 322 733 734
3 322 735 737
3 735 109 736
3 735 736 737
3 323 109 322
3 323 4 109
3 230 179 19
3 324 179 230
3 324 80 179
3 181 324 40
3 325 324 181
3 325 80 324
3 325 323 80
3 326 323 325
3 326 4 323
3 326 194 4
3 327 194 326
3 327 21 194
3 183 327 81
3 328 327 183
3 328 21 327
3 328 85 21
3 319 85 328
3 319 0 85
3 277 87 0
3 329 87 277
3 329 23 87
3 186 329 62
3 330 329 186
3 330 23 329
3 330 198 23
3 331 198 330
3 331 5 198
3 235 187 13
3 332 187 235
3 332 82 187
3 189 332 43
3 333 332 189
3 333 82 332
3 333 331 82
3 334 331 333
3 334 5 331
3 334 113 5
3 335 113 334
3 335 738 740
3 740 739 113
3 738 739 740
3 741 335 742
3 743 742 83
3 741 742 743
3 744 335 745
3 747 746 335
3 270 108 2
3 336 108 270
3 336 44 108
3 192 336 59
3 337 336 192
3 337 44 336
3 337 238 44
3 338 238 337
3 338 20 238
3 748 193 749
3 750 749 11
3 748 749 750
3 751 193 752
3 753 84 754
3 755 754 193
3 753 754 755
3 756 84 757
3 758 338 759
3 760 759 84
3 758 759 760
3 761 338 762
3 763 20 764
3 765 764 338
3 763 764 765
3 767 766 20
