ply
format ascii 1.0
element vertex 955
property float x
property float y
property float z
element face 1102
property list uchar int vertex_index
end_header
57.305038 -53.741222 4.077224
63.376541 -36.916237 -3.588648
62.341675 -24.61515 -19.588839
60.066856 -69.387543 3.454607
67.054916 -47.874947 14.167121
63.965462 -0.755936 -21.70075
59.026382 -46.117004 0.087723
59.847198 -42.306652 -8.202396
60.631027 -52.616642 -3.025936
66.240753 -10.14474 -12.23649
56.666946 13.048172 -31.578508
67.711342 -27.481136 -5.194647
64.499222 -20.014164 -12.483673
61.14053 -31.266651 -11.300512
56.566299 -58.423592 11.357579
59.840019 -61.142136 3.84658
60.274921 -55.048592 17.892046
59.804718 -50.243546 8.669014
70.333076 -34.907848 1.982778
66.102036 -42.444275 4.71163
65.517723 -60.768314 -4.181496
61.044731 8.403227 -32.319397
63.190933 -11.949158 -21.559767
57.796104 -50.355148 2.256149
58.625893 -49.073757 -1.750443
58.488922 -53.392696 0.88679
52.395519 48.531067 -1.839567
49.964645 50.027313 -5.5121
65.824829 -32.156998 -4.684864
64.064117 -28.919245 -8.293213
61.970337 -34.152092 -7.419577
62.328842 -45.610992 -9.925209
61.403156 -39.882568 -12.245672
56.087021 -60.734921 15.848844
56.373589 -62.657223 11.944241
60.385586 -57.163506 22.78661
57.615032 -58.867374 19.442169
57.599243 -56.642025 14.747515
69.707367 -44.55489 12.474018
69.556877 -41.709824 7.597552
66.831978 -45.224129 9.326433
62.837784 -46.31781 6.685756
63.412018 -48.877068 11.289751
60.783699 -65.368225 3.697577
62.770279 -61.400982 -0.136478
63.311356 -65.637604 -0.432985
63.079865 2.904829 -21.509916
61.415085 7.588531 -26.707346
62.676083 3.919903 -26.954645
62.202553 -22.10713 -16.28372
63.529869 -16.105694 -16.806616
62.554878 -18.272442 -20.782682
60.957932 -41.597584 -1.947159
60.216057 -39.314621 -6.00754
59.101898 -44.316887 -4.087778
60.164841 -47.59111 -5.857338
63.259605 -51.215237 -7.060976
65.141502 -5.465304 -16.737249
53.562653 16.346558 -36.356873
56.326569 15.60812 -37.163673
68.486488 -23.136843 -5.201164
67.1968 -18.93733 -8.604527
65.996208 -23.76646 -8.655993
62.734688 -25.615444 -12.110214
61.247261 -28.124676 -15.359861
60.123737 -36.849487 -10.011497
60.966759 -34.055183 -14.032915
62.732853 -30.864164 -18.0693
56.994057 -55.929203 7.259382
58.222694 -57.011349 3.959323
57.485092 -60.067684 7.705623
58.205032 -64.307419 7.845389
58.074192 -68.332703 7.783916
55.424728 -70.526665 12.208998
56.546593 -72.065514 7.610638
66.859093 -50.209309 19.196121
63.563576 -53.614086 21.004688
63.625626 -51.381451 16.056986
60.12043 -52.676071 13.188691
57.617531 -54.26302 10.291206
57.592911 -52.019997 6.151187
69.25943 -31.216129 -1.774969
67.54557 -35.398148 -0.987095
70.812065 -38.395672 6.296448
68.846283 -38.614288 3.078235
64.883797 -39.664177 0.405643
61.948898 -43.885288 2.268446
59.361328 -48.021133 4.32212
60.661758 -57.203789 0.215954
63.572037 -56.571243 -3.749819
65.229668 -65.084381 -4.571733
59.106735 9.019344 -26.601233
59.223618 11.903868 -31.983774
65.864632 -14.713287 -12.482151
64.710243 -10.394635 -16.921347
63.839989 -5.936949 -21.831251
57.455032 -52.246521 3.266505
57.886864 -51.768684 1.46205
57.738106 -53.608295 2.662132
51.235985 46.863358 -1.648607
64.632828 -34.538555 -4.2103
63.783997 -33.042126 -6.066315
62.631016 -35.541653 -5.510807
56.641144 -59.779938 17.686172
68.533524 -46.187855 13.283364
68.496323 -44.850979 10.821667
67.002808 -46.57692 11.722975
65.155899 -47.033932 10.296001
65.320923 -48.344185 12.677906
60.658218 -67.410385 3.587018
62.095085 -65.609192 1.630101
61.778179 -67.661385 1.487493
64.322556 -1.086798 -19.059416
63.759285 0.48698 -18.993235
63.672356 1.308258 -21.586927
62.959152 3.678213 -24.183455
63.344711 1.593655 -24.302916
61.906631 -23.335852 -18.024637
62.276489 -20.234844 -18.499407
62.37822 -21.451777 -20.230139
59.91188 -43.881874 -0.96533
59.678932 -42.871685 -3.048523
58.995049 -45.224663 -2.006855
59.395111 -50.782036 -2.465717
59.309601 -48.382416 -3.801807
60.415688 -50.145115 -4.496979
61.57259 -49.366554 -6.532841
61.909508 -52.00177 -5.041971
65.451591 -5.902764 -14.297066
65.704758 -7.809825 -14.420038
53.619774 49.236572 0.446042
55.104267 12.75095 -31.316702
53.645164 14.420033 -33.591286
55.198296 14.802151 -34.005981
54.993965 16.286243 -36.807045
56.6091 14.636238 -34.328072
68.266129 -25.249479 -5.251139
67.503021 -23.269215 -6.924158
66.850639 -25.622429 -6.896166
62.351936 -30.00993 -9.814346
63.317764 -27.283476 -10.161755
61.885963 -28.44442 -11.76268
61.646065 -26.821552 -13.781019
61.064667 -29.736084 -13.305609
59.63129 -40.756866 -7.146914
60.065842 -38.11554 -8.010296
59.894318 -39.596527 -9.174147
62.466911 -38.499039 -14.236423
61.103165 -36.981388 -13.201864
62.037308 -35.515282 -15.200727
61.750103 -32.509594 -16.051622
63.14624 -33.949303 -17.185228
56.799316 -57.184235 9.244229
57.142559 -57.964615 7.534975
56.798798 -59.292294 9.561369
56.363731 -64.732758 12.101545
57.140629 -63.538498 9.908978
57.22892 -65.604065 9.974154
58.299774 -66.359756 7.835892
57.104836 -67.593338 9.98295
54.620384 -72.333427 12.186087
55.964722 -71.334885 9.893976
54.95575 -73.140739 9.834854
66.640518 -51.204353 21.790859
60.327347 -56.145931 20.314945
61.918343 -55.371914 21.914055
61.918327 -54.326027 19.431036
63.621071 -52.542942 18.50576
61.89362 -53.195118 16.997913
61.827255 -51.997009 14.611154
60.212082 -53.885098 15.517117
56.836075 -57.522449 13.087651
57.614594 -55.459415 12.485532
56.952187 -56.32515 10.893545
57.050652 -55.120098 8.792648
70.427704 -33.154926 1.657136
70.074455 -31.206337 -0.202698
69.868149 -33.076073 0.041975
68.560074 -33.283966 -1.458982
69.245407 -35.021793 0.438055
68.032722 -41.998871 6.083841
69.277237 -40.184631 5.284491
67.587715 -40.521553 3.836453
67.002052 -39.02927 1.687129
65.546326 -41.050011 2.516439
63.408585 -41.783966 1.292516
63.989853 -43.067692 3.449984
61.249138 -48.27198 7.700453
60.930687 -47.087608 5.477626
59.587914 -49.091682 6.476374
58.350346 -50.042835 5.29633
58.46085 -51.092743 7.393367
59.027916 -59.034187 3.902179
59.338875 -57.210491 2.132464
60.367653 -59.264511 1.983129
64.204803 -61.194176 -2.152285
63.32753 -59.074112 -1.973274
64.774185 -58.648441 -3.982853
65.009094 -55.945332 -5.759787
66.106331 -58.01741 -6.00588
61.262688 8.261147 -29.495821
60.39679 9.806341 -29.346277
60.217323 10.420296 -32.168854
58.994537 12.447752 -34.825027
59.991493 10.495626 -34.991707
65.965813 -19.307405 -10.533207
66.520668 -16.832792 -10.473677
65.270477 -17.303551 -12.524118
63.285683 -14.061043 -19.138762
64.176399 -13.188217 -16.912546
63.805359 -11.058707 -19.288439
64.239838 -8.183664 -19.327829
63.546227 -8.877149 -21.75857
58.319492 -48.286381 1.176268
58.480919 -47.512688 -0.889606
58.12117 -49.709976 0.275711
58.542141 -51.307362 -0.465736
59.473274 -53.072144 -1.03586
52.046261 51.057182 -3.751574
51.034378 51.789078 -5.751032
51.230717 49.353737 -3.700119
49.816032 47.647354 -3.299397
54.645935 10.246292 -28.769384
56.406933 10.895393 -28.97611
66.875641 -29.794851 -5.010763
65.966568 -28.057095 -6.753082
64.919998 -30.539711 -6.479525
63.002968 -31.536882 -7.923498
61.455574 -32.732742 -9.34243
60.80558 -43.930531 -9.137062
60.523018 -41.152393 -10.233622
61.829697 -42.759403 -11.155151
63.00042 -41.464691 -13.1467
56.316582 -59.612148 13.565594
56.403809 -60.543434 11.701454
56.001419 -61.707371 13.930637
55.807076 -63.780903 14.19582
58.907825 -58.001106 21.132084
58.835808 -56.940773 18.712828
58.785618 -55.815033 16.3424
57.591061 -57.78307 17.06835
56.722237 -58.679268 15.355884
70.479477 -42.98838 11.753277
70.503677 -41.553307 9.275522
69.694908 -43.172794 10.000082
68.333542 -43.447784 8.417397
66.53273 -43.840118 6.985398
64.486305 -44.376381 5.674238
64.877953 -45.703674 7.959088
63.170959 -47.590279 8.966499
61.510487 -49.504044 9.96365
60.476952 -63.269161 3.782195
61.285961 -61.381683 1.865068
61.907791 -63.509041 1.7535
63.300163 -63.52919 -0.280464
64.577667 -63.326958 -2.321295
61.348427 6.328239 -24.055254
62.302711 5.279408 -24.088236
62.165215 6.003992 -26.826975
61.924164 6.199621 -29.633768
63.14064 -20.975729 -14.417677
63.93615 -18.086754 -14.583599
62.848083 -19.092159 -16.596766
62.754105 -17.133772 -18.873953
62.841042 -15.095161 -21.231234
62.129898 -39.273033 -2.828999
61.527847 -38.020947 -4.816271
60.530384 -40.467415 -3.9911
59.571358 -41.840199 -5.106995
59.377869 -43.354599 -6.153418
58.796986 -46.733917 -2.963278
59.284519 -45.900391 -5.035135
59.953617 -44.974121 -7.095465
61.178329 -46.671303 -7.901674
62.831795 -48.433052 -8.557384
70.3582 -44.307907 14.300835
69.612839 -45.836288 15.006004
68.460609 -47.436066 15.795167
64.916565 -3.493326 -16.622702
64.561172 -3.11234 -19.171206
63.447075 -25.933084 -20.943701
63.166222 -22.713804 -21.74365
52.918591 50.194466 -1.688112
67.86264 -21.03619 -6.857355
66.722565 -21.291771 -8.673384
65.197556 -21.902071 -10.510778
65.085922 -26.320164 -8.534065
64.289925 -24.572262 -10.390926
63.628685 -22.796854 -12.348471
62.355507 -23.896029 -14.150843
61.653614 -25.123381 -15.870771
61.683357 -26.419786 -17.457567
61.025745 -36.748741 -6.780203
60.680851 -35.43808 -8.741892
60.543232 -34.070892 -10.718531
60.383316 -38.341293 -11.192263
60.420387 -35.499924 -12.018511
60.648876 -32.630516 -12.72027
61.013763 -31.102928 -14.749235
61.629105 -29.478363 -16.801008
62.459976 -27.753448 -18.868204
63.853851 -29.127346 -20.081125
57.153549 -54.726303 5.471597
57.601345 -55.173183 4.020857
57.410141 -56.58469 5.664412
57.917248 -58.595699 5.756165
58.535545 -60.696548 5.797466
56.9538 -61.422466 9.775856
57.888435 -62.197403 7.804318
59.101112 -62.824078 5.802101
59.455414 -64.927071 5.770986
59.473381 -66.970123 5.703701
59.084721 -68.937759 5.605398
56.69175 -69.498566 9.949953
57.483932 -70.226364 7.702845
58.285126 -70.838242 5.488815
67.001984 -49.093395 16.656971
65.244064 -51.891918 20.0882
65.35051 -50.797783 17.570196
65.381332 -49.607628 15.101945
63.560722 -50.150608 13.652984
61.703026 -50.756477 12.267102
59.98587 -51.450405 10.905992
58.736961 -54.638386 14.022362
58.670612 -53.434547 11.75514
58.576492 -52.238113 9.544509
57.603714 -53.096451 8.176566
57.133205 -53.964458 6.814773
57.235069 -52.95525 4.996172
68.971481 -27.236591 -3.608341
69.583382 -29.226542 -1.943039
68.528976 -29.347027 -3.504616
67.756927 -31.538198 -3.261705
66.718079 -33.77681 -2.867571
65.487312 -36.034073 -2.319555
70.646049 -36.688778 4.067082
70.408455 -40.020699 6.886709
70.173943 -38.408745 4.608231
69.787071 -36.736122 2.4569
68.264488 -37.014267 0.988708
66.291809 -37.53154 -0.361473
64.145782 -38.287643 -1.624479
62.77425 -40.52243 -0.797897
61.446796 -42.729561 0.136585
60.226074 -44.903427 1.147603
62.423214 -45.079933 4.451824
60.578705 -45.965652 3.294165
59.161049 -47.036522 2.195846
58.287987 -49.1129 3.233012
57.635277 -51.101112 4.197142
58.402161 -55.291794 2.342196
59.474648 -55.221977 0.491182
60.73494 -54.979256 -1.453695
61.832088 -59.279762 0.018824
62.099747 -56.992023 -1.75325
62.108841 -54.553993 -3.443937
63.530952 -53.938118 -5.451963
64.942741 -53.135944 -7.463396
62.772266 -67.713928 -0.59964
64.371124 -65.455383 -2.497681
65.681168 -62.916607 -4.373777
66.653557 -60.148705 -6.226215
57.968323 11.11195 -29.102327
60.398598 8.602703 -26.629995
59.301567 10.764294 -29.214808
58.042664 12.785213 -31.788546
57.872421 13.8493 -34.597694
57.566414 14.306339 -37.442284
67.359924 -16.752205 -8.471382
66.794823 -14.532999 -10.352463
66.208519 -12.303688 -12.376837
64.667221 -15.267439 -14.652569
65.254837 -12.56971 -14.63393
65.622726 -10.058689 -14.546272
65.054779 -7.793775 -16.851885
64.514702 -5.50726 -19.27677
64.002098 -3.201441 -21.799074
62.992683 -16.222898 -23.116426
63.374359 -6.648967 -24.298784
63.503464 -0.884224 -24.394846
62.990356 1.42951 -27.040251
61.738106 5.948853 -32.392242
66.079487 -9.227688 -12.167949
66.27216 -10.43002 -11.138567
65.972756 -8.977283 -13.328264
65.811489 -8.060231 -13.259723
66.079487 -9.227688 -12.167949
62.855385 -36.264439 -15.702165
62.25211 -37.00716 -14.718575
63.070187 -37.756318 -15.220014
63.409851 -35.481449 -16.694416
62.591774 -34.732292 -16.192977
62.855385 -36.264439 -15.702165
64.054451 -34.697693 -17.665636
63.409851 -35.481449 -16.694416
56.74461 -66.173302 11.080648
56.796326 -65.168412 11.03785
56.312016 -65.737648 12.144343
56.682568 -67.167938 11.085045
57.166878 -66.598702 9.978552
56.74461 -66.173302 11.080648
54.107101 -73.236683 12.176334
54.068047 -72.811359 13.381718
54.274785 -73.640338 11.000718
54.788067 -72.737083 11.010471
54.107101 -73.236683 12.176334
54.351856 -74.05677 9.811025
54.274785 -73.640338 11.000718
66.499184 -51.635374 23.118405
67.183647 -50.82642 22.719567
49.677261 46.400643 -2.224536
50.526009 47.255356 -2.474002
50.387237 46.008645 -1.399141
48.871937 46.767193 -2.952283
49.677261 46.400643 -2.224536
55.205427 9.26711 -27.655756
54.221165 8.848325 -27.563858
56.085926 9.59166 -27.759119
55.526434 10.570843 -28.872747
55.205427 9.26711 -27.655756
63.951966 -42.283794 -13.519707
63.292668 -42.939774 -12.534756
63.638172 -40.763818 -14.128431
63.951966 -42.283794 -13.519707
55.561795 -64.297106 15.357725
55.725205 -63.284223 15.214614
55.720522 -64.793432 14.285152
55.561795 -64.297106 15.357725
58.261429 -58.43424 20.287126
58.300043 -58.944446 21.498382
57.653647 -59.377581 20.653425
62.965851 2.225628 -20.262878
63.305561 1.016703 -19.004538
63.419575 1.695904 -20.251576
62.621748 3.436265 -21.510317
62.965851 2.225628 -20.262878
62.691288 4.092118 -22.799076
62.233171 4.623555 -22.799476
62.621748 3.436265 -21.510317
63.946461 -50.738261 -8.066028
63.732555 -49.347168 -8.814231
63.0457 -49.824145 -7.80918
49.938468 51.186107 -6.599634
50.473335 52.06699 -6.7191
50.499511 50.908196 -5.631566
70.382721 -44.19437 15.301578
70.488663 -43.586906 13.991365
69.520946 -46.416714 16.297999
69.88686 -45.66529 15.955767
68.944831 -47.216602 16.69258
69.036724 -46.636177 15.400586
69.520946 -46.416714 16.297999
63.979011 -24.982579 -21.983564
64.239811 -26.624451 -21.514561
52.850939 51.031056 -1.437566
52.563921 51.488511 -2.559684
53.518474 48.419655 0.263807
53.936621 47.918506 1.260887
52.798501 16.11294 -36.064014
52.839756 15.149677 -34.681221
53.603909 15.383296 -34.97408
52.66474 16.999029 -37.477192
52.798501 16.11294 -36.064014
53.380749 17.024113 -37.775467
52.66474 16.999029 -37.477192
55.453373 16.375771 -38.408524
54.787071 16.714832 -38.23021
55.660267 15.947181 -36.985359
56.122033 15.782259 -38.579678
55.453373 16.375771 -38.408524
68.174564 -22.086517 -6.02926
68.098514 -21.109374 -5.963406
68.410438 -22.1597 -5.13531
55.197921 -70.088261 13.37282
54.887611 -71.003285 13.385098
55.696033 -69.599407 12.212766
55.197921 -70.088261 13.37282
56.058239 -70.012615 11.079476
56.329544 -69.085358 11.083244
55.696033 -69.599407 12.212766
56.840855 -72.385128 6.490673
57.710121 -71.771492 5.429761
57.415859 -71.451878 6.549727
67.576176 -49.391554 18.776394
67.452145 -49.895842 20.084297
66.930538 -49.651352 17.926546
67.647621 -48.833597 17.506819
67.576176 -49.391554 18.776394
61.145947 -56.742138 23.617321
60.421701 -57.627693 24.046011
63.515755 -54.097166 22.281156
62.693139 -54.97608 22.735839
62.74096 -54.493 21.459372
64.320293 -53.243603 21.833255
63.515755 -54.097166 22.281156
64.40382 -52.753002 20.546444
65.160538 -52.382519 21.375011
64.320293 -53.243603 21.833255
69.231762 -27.292646 -2.79407
69.004833 -26.239462 -3.600488
70.7635 -37.624153 6.063962
70.743363 -38.472158 7.222429
70.729057 -37.542225 5.181765
70.680492 -36.770706 4.949279
70.7635 -37.624153 6.063962
65.647244 -54.134804 -7.620237
64.975918 -54.540638 -6.611592
65.68042 -55.539497 -6.768433
65.61689 -52.652553 -8.467738
65.647244 -54.134804 -7.620237
62.250618 -68.739669 -0.686452
61.867994 -68.689697 0.365546
64.800396 -65.269882 -3.534707
63.982456 -66.515236 -2.590334
64.411728 -66.329735 -3.62736
67.113381 -59.765131 -7.257812
66.61121 -61.241146 -6.334726
66.962807 -58.681548 -7.134152
67.113381 -59.765131 -7.257812
58.329111 8.947312 -26.597315
58.822139 7.866275 -25.39505
58.537529 10.065647 -27.85178
57.759905 9.993615 -27.847862
58.329111 8.947312 -26.597315
58.145436 13.371965 -37.536652
58.280476 13.377045 -36.133656
58.859497 12.442672 -36.228023
57.391974 14.24691 -38.829159
58.145436 13.371965 -37.536652
67.278362 -17.844767 -8.537954
67.62025 -17.859686 -7.595415
67.538689 -18.952248 -7.661987
63.091747 -21.093722 -22.108683
63.623386 -21.7219 -22.829174
63.258625 -15.161853 -24.300682
63.372364 -16.819355 -23.930227
63.031582 -14.601522 -23.382354
63.258625 -15.161853 -24.300682
63.339863 -7.100509 -25.438289
63.294254 -8.211818 -24.172809
63.332477 -1.126948 -25.713108
63.497815 -2.272559 -24.401001
63.075924 0.029919 -27.035811
63.24691 0.272643 -25.717548
63.332477 -1.126948 -25.713108
62.037541 4.554002 -32.36525
62.078968 4.833029 -31.052552
51.896454 46.409607 -0.804262
51.815752 47.697212 -1.744087
52.476221 47.243461 -0.899742
51.170948 45.567599 -0.670884
51.896454 46.409607 -0.804262
50.387237 46.008645 -1.399141
51.170948 45.567599 -0.670884
62.956879 -45.012924 -10.924011
63.241623 -46.480055 -10.243762
55.865177 -61.761232 16.041126
56.00254 -61.262829 17.021837
57.118929 -59.843609 19.756268
57.653647 -59.377581 20.653425
56.631985 -60.299891 18.87827
57.128088 -59.323656 18.56417
57.118929 -59.843609 19.756268
56.279602 -60.785337 17.940501
56.631985 -60.299891 18.87827
56.270443 -61.30529 19.132599
56.00254 -61.262829 17.021837
56.364082 -60.25743 16.767508
56.279602 -60.785337 17.940501
64.04092 -0.299909 -19.026325
64.05233 -0.734625 -17.775963
64.333966 -1.521514 -17.809053
49.29921 50.264366 -6.396304
49.155174 49.142406 -5.220986
65.684906 -7.106701 -13.198237
65.335697 -6.386768 -13.153926
65.578174 -6.856295 -14.358552
65.684906 -7.106701 -13.198237
65.811489 -8.060231 -13.259723
53.399037 50.04945 0.787428
53.201531 50.552109 -0.370488
53.870653 48.721863 1.551234
53.399037 50.04945 0.787428
53.936621 47.918506 1.260887
53.870653 48.721863 1.551234
54.374716 13.585491 -32.453994
53.511707 13.230643 -32.263518
54.241259 12.396101 -31.126227
63.757378 -33.123182 -18.168865
63.550684 -31.580613 -18.610901
62.939546 -32.406734 -17.627264
63.757378 -33.123182 -18.168865
64.054451 -34.697693 -17.665636
54.485439 -71.906666 13.373643
54.068047 -72.811359 13.381718
55.022556 -71.430046 12.197543
54.887611 -71.003285 13.385098
54.485439 -71.906666 13.373643
55.146782 -73.519165 8.679699
55.942204 -72.981552 7.567591
55.751171 -72.603127 8.722746
55.146782 -73.519165 8.679699
54.351856 -74.05677 9.811025
67.342858 -50.393364 21.381666
67.183647 -50.82642 22.719567
66.749806 -50.706831 20.49349
67.452145 -49.895842 20.084297
67.342858 -50.393364 21.381666
70.25108 -32.180632 0.727219
70.057136 -31.355356 0.634879
70.233761 -32.32965 1.564796
70.829537 -39.201235 7.476852
70.743363 -38.472158 7.222429
66.229039 -56.575536 -6.891479
65.68042 -55.539497 -6.768433
65.557713 -56.981371 -5.882834
64.720379 -66.179001 -4.671817
64.411728 -66.329735 -3.62736
59.597611 7.907672 -25.348691
58.822139 7.866275 -25.39505
59.357975 11.466609 -36.311363
58.859497 12.442672 -36.228023
59.493015 11.471689 -34.908367
51.540319 51.42313 -4.751303
51.254002 52.683823 -5.678864
51.759943 52.317875 -4.679136
49.080867 47.952427 -4.114634
49.155174 49.142406 -5.220986
49.890338 48.837333 -4.405748
49.080867 47.952427 -4.114634
48.871937 46.767193 -2.952283
66.487457 -11.308045 -11.21649
66.27216 -10.43002 -11.138567
53.6875 9.810258 -28.582258
54.221165 8.848325 -27.563858
54.012093 11.143772 -29.852567
53.6875 9.810258 -28.582258
54.875101 11.498621 -30.043043
54.241259 12.396101 -31.126227
54.012093 11.143772 -29.852567
62.707306 -43.58713 -11.538982
62.07927 -44.185198 -10.54018
62.956879 -45.012924 -10.924011
62.415059 -42.112047 -12.150925
62.707306 -43.58713 -11.538982
63.292668 -42.939774 -12.534756
63.371418 -39.280992 -14.673293
62.733666 -39.981865 -13.691561
63.638172 -40.763818 -14.128431
63.070187 -37.756318 -15.220014
63.371418 -39.280992 -14.673293
55.822376 -62.247457 15.082023
56.04422 -61.221146 14.889741
55.865177 -61.761232 16.041126
55.904247 -62.744137 14.063229
55.822376 -62.247457 15.082023
55.725205 -63.284223 15.214614
55.99885 -65.26936 13.238015
56.085403 -64.256831 13.148682
55.720522 -64.793432 14.285152
56.312016 -65.737648 12.144343
55.99885 -65.26936 13.238015
59.700541 -58.075331 23.192443
60.421701 -57.627693 24.046011
58.96166 -58.494131 22.36518
58.300043 -58.944446 21.498382
59.646706 -57.582306 21.959347
59.700541 -58.075331 23.192443
58.96166 -58.494131 22.36518
70.276196 -33.329275 2.527942
70.233761 -32.32965 1.564796
70.533158 -34.100531 2.661145
70.276196 -33.329275 2.527942
70.485844 -34.976991 2.823966
70.38039 -34.031387 1.819957
70.533158 -34.100531 2.661145
70.491577 -42.270843 10.514399
70.638858 -41.527983 10.201284
70.626758 -42.24552 11.440162
63.586929 -0.213107 -17.791506
64.05233 -0.734625 -17.775963
63.586929 -0.213107 -17.791506
63.305561 1.016703 -19.004538
61.756029 5.14797 -22.782986
61.133717 5.398359 -22.830727
61.825569 5.803824 -24.071745
61.756029 5.14797 -22.782986
62.233171 4.623555 -22.799476
63.493099 -47.891085 -9.55985
63.241623 -46.480055 -10.243762
62.580319 -47.022022 -9.241297
63.493099 -47.891085 -9.55985
63.732555 -49.347168 -8.814231
50.814942 53.002968 -6.730889
51.254002 52.683823 -5.678864
50.814942 53.002968 -6.730889
50.473335 52.06699 -6.7191
49.938468 51.186107 -6.599634
49.29921 50.264366 -6.396304
70.549301 -42.927143 12.717586
70.626758 -42.24552 11.440162
70.418838 -43.648144 13.027056
70.549301 -42.927143 12.717586
70.488663 -43.586906 13.991365
70.25954 -44.9011 15.603182
70.382721 -44.19437 15.301578
69.985519 -45.072097 14.65342
70.25954 -44.9011 15.603182
69.88686 -45.66529 15.955767
60.515289 -69.526504 2.39267
59.556967 -70.351731 3.383827
65.143283 -5.157189 -14.261309
65.335697 -6.386768 -13.153926
64.875771 -3.95247 -15.424127
65.143283 -5.157189 -14.261309
65.184078 -4.698045 -15.459884
64.63097 -2.724778 -16.590696
64.875771 -3.95247 -15.424127
64.619561 -2.290062 -17.841059
64.333966 -1.521514 -17.809053
64.63097 -2.724778 -16.590696
63.838585 -23.372939 -22.383539
63.306648 -24.323444 -21.343675
63.979011 -24.982579 -21.983564
63.623386 -21.7219 -22.829174
63.838585 -23.372939 -22.383539
52.127756 51.919868 -3.591416
51.759943 52.317875 -4.679136
52.482426 50.625824 -2.719843
52.127756 51.919868 -3.591416
52.563921 51.488511 -2.559684
53.269182 49.715519 -0.621035
52.850939 51.031056 -1.437566
53.201531 50.552109 -0.370488
53.167883 48.898601 -0.80327
53.269182 49.715519 -0.621035
53.518474 48.419655 0.263807
52.906347 48.066902 -0.878997
52.657055 49.362766 -1.76384
53.167883 48.898601 -0.80327
52.476221 47.243461 -0.899742
52.906347 48.066902 -0.878997
52.805897 14.037361 -33.304638
53.511707 13.230643 -32.263518
52.805897 14.037361 -33.304638
52.839756 15.149677 -34.681221
54.096405 16.993955 -38.000553
53.380749 17.024113 -37.775467
54.278309 16.316401 -36.581959
54.096405 16.993955 -38.000553
54.787071 16.714832 -38.23021
67.871609 -20.001679 -6.788401
68.098514 -21.109374 -5.963406
67.52972 -19.98676 -7.730941
67.538689 -18.952248 -7.661987
67.871609 -20.001679 -6.788401
64.443199 -28.221583 -21.083273
64.239811 -26.624451 -21.514561
63.650463 -27.530215 -20.512413
64.111183 -30.712204 -19.616813
63.293352 -29.995755 -19.075212
63.550684 -31.580613 -18.610901
64.739269 -29.853119 -20.591831
64.111183 -30.712204 -19.616813
64.443199 -28.221583 -21.083273
64.739269 -29.853119 -20.591831
56.536088 -68.132744 11.099742
56.682568 -67.167938 11.085045
56.898293 -68.545952 9.966452
56.536088 -68.132744 11.099742
56.329544 -69.085358 11.083244
58.666101 -71.07708 4.400931
59.556967 -70.351731 3.383827
59.175991 -70.112892 4.471711
58.666101 -71.07708 4.400931
57.710121 -71.771492 5.429761
56.840855 -72.385128 6.490673
55.942204 -72.981552 7.567591
68.376934 -48.004932 17.075917
68.944831 -47.216602 16.69258
67.731296 -48.26473 16.226069
68.376934 -48.004932 17.075917
67.647621 -48.833597 17.506819
61.912325 -55.846342 23.181044
61.145947 -56.742138 23.617321
61.151965 -56.26771 22.350333
61.912325 -55.846342 23.181044
62.693139 -54.97608 22.735839
65.858765 -52.038736 22.226341
66.499184 -51.635374 23.118405
65.942291 -51.548136 20.939529
65.858765 -52.038736 22.226341
65.160538 -52.382519 21.375011
68.594047 -23.268363 -4.341569
68.410438 -22.1597 -5.13531
68.762337 -24.189588 -4.3969
68.594047 -23.268363 -4.341569
68.652157 -25.245905 -4.421888
68.376308 -24.193161 -5.226152
68.762337 -24.189588 -4.3969
68.618805 -26.243035 -4.42974
68.652157 -25.245905 -4.421888
69.004833 -26.239462 -3.600488
69.951817 -30.324826 -0.255327
70.057136 -31.355356 0.634879
69.70628 -29.334928 -1.125498
69.951817 -30.324826 -0.255327
69.828919 -30.216439 -1.072869
69.537712 -28.287622 -1.961419
69.70628 -29.334928 -1.125498
69.277432 -28.231566 -2.77569
69.231762 -27.292646 -2.79407
69.537712 -28.287622 -1.961419
70.64233 -35.867457 3.866118
70.680492 -36.770706 4.949279
70.489563 -35.798313 3.02493
70.485844 -34.976991 2.823966
70.64233 -35.867457 3.866118
70.675342 -40.780052 8.96639
70.638858 -41.527983 10.201284
70.627732 -40.013749 7.771983
70.675342 -40.780052 8.96639
70.456066 -40.787003 8.081115
70.61026 -39.208185 6.591578
70.829537 -39.201235 7.476852
70.627732 -40.013749 7.771983
64.788028 -51.698614 -8.267238
63.946461 -50.738261 -8.066028
64.101173 -52.17559 -7.262186
64.788028 -51.698614 -8.267238
65.61689 -52.652553 -8.467738
61.37095 -68.663425 1.409113
60.922517 -68.524464 2.47105
60.515289 -69.526504 2.39267
62.275222 -67.687657 0.443927
61.37095 -68.663425 1.409113
61.867994 -68.689697 0.365546
63.183027 -67.644509 -1.641313
62.250618 -68.739669 -0.686452
63.571695 -66.584655 -1.54866
63.183027 -67.644509 -1.641313
63.982456 -66.515236 -2.590334
65.545002 -64.826851 -5.616604
64.720379 -66.179001 -4.671817
65.899265 -63.708984 -5.507485
65.545002 -64.826851 -5.616604
66.125015 -62.625097 -5.408507
65.455418 -64.000494 -4.472755
65.899265 -63.708984 -5.507485
66.167362 -61.532656 -5.299996
66.125015 -62.625097 -5.408507
66.61121 -61.241146 -6.334726
66.689194 -57.6159 -7.023985
66.379944 -59.083057 -6.116048
66.962807 -58.681548 -7.134152
66.229039 -56.575536 -6.891479
66.689194 -57.6159 -7.023985
56.97921 9.885337 -27.784754
56.085926 9.59166 -27.759119
57.187628 11.003671 -29.039218
56.97921 9.885337 -27.784754
57.759905 9.993615 -27.847862
60.718457 6.562119 -24.075701
61.133717 5.398359 -22.830727
60.243542 7.699352 -25.363072
60.718457 6.562119 -24.075701
60.873513 7.465471 -25.342624
59.752667 8.811024 -26.615614
59.597611 7.907672 -25.348691
60.243542 7.699352 -25.363072
56.741955 15.131369 -38.718983
56.122033 15.782259 -38.579678
56.946492 14.95723 -37.302979
56.741955 15.131369 -38.718983
57.391974 14.24691 -38.829159
67.441993 -16.931256 -7.50411
67.62025 -17.859686 -7.595415
67.263722 -15.77223 -8.385858
67.441993 -16.931256 -7.50411
66.981171 -14.662627 -9.326398
67.263722 -15.77223 -8.385858
67.077373 -15.642602 -9.411922
66.764492 -13.502174 -10.274477
66.981171 -14.662627 -9.326398
66.47134 -12.387519 -11.286664
66.764492 -13.502174 -10.274477
66.501671 -13.418343 -11.36465
66.224636 -11.224214 -12.306663
66.487457 -11.308045 -11.21649
66.47134 -12.387519 -11.286664
62.697747 -20.462708 -21.351927
62.772221 -22.082791 -20.986894
63.091747 -21.093722 -22.108683
62.786076 -18.873041 -21.628198
62.466549 -19.86211 -20.506411
62.697747 -20.462708 -21.351927
63.004978 -17.848268 -22.795071
63.372364 -16.819355 -23.930227
62.773781 -17.24767 -21.949554
62.786076 -18.873041 -21.628198
63.004978 -17.848268 -22.795071
62.955761 -14.037653 -22.439758
62.916863 -15.659029 -22.17383
63.031582 -14.601522 -23.382354
63.130707 -12.464652 -22.604025
63.015988 -13.52216 -21.395501
62.955761 -14.037653 -22.439758
63.202541 -10.861914 -22.803301
63.130707 -12.464652 -22.604025
63.380188 -9.325909 -22.902703
63.36858 -10.413153 -21.659168
63.202541 -10.861914 -22.803301
63.460293 -7.763058 -23.028677
63.380188 -9.325909 -22.902703
63.294254 -8.211818 -24.172809
63.310993 -5.518646 -25.592072
63.339863 -7.100509 -25.438289
63.433262 -5.15493 -24.35297
63.310993 -5.518646 -25.592072
63.666077 -4.798922 -23.119204
63.607174 -6.292958 -23.065018
63.433262 -5.15493 -24.35297
63.747132 -3.431167 -23.103115
63.921044 -4.569195 -21.815162
63.666077 -4.798922 -23.119204
63.752781 -2.042832 -23.09696
63.747132 -3.431167 -23.103115
63.497815 -2.272559 -24.401001
62.893859 1.171753 -28.360934
63.075924 0.029919 -27.035811
62.705093 2.573358 -28.376556
62.893859 1.171753 -28.360934
62.547956 3.818554 -28.333754
62.833219 2.674707 -26.997448
62.705093 2.573358 -28.376556
62.171997 4.958413 -29.673315
62.300123 5.059762 -28.294207
62.547956 3.818554 -28.333754
61.831135 6.074237 -31.013005
62.171997 4.958413 -29.673315
62.078968 4.833029 -31.052552
61.725327 5.638454 -33.688236
62.037541 4.554002 -32.36525
61.312868 7.018479 -33.726059
61.725327 5.638454 -33.688236
60.966181 8.245666 -33.689636
61.391419 7.17604 -32.35582
61.312868 7.018479 -33.726059
60.439561 9.291866 -35.025791
60.518112 9.449426 -33.655552
60.966181 8.245666 -33.689636
59.90398 10.294868 -36.345062
60.439561 9.291866 -35.025791
59.357975 11.466609 -36.311363
59.90398 10.294868 -36.345062
3 0 98 96
3 1 102 100
3 4 106 104
3 4 108 106
3 3 111 109
3 5 114 112
3 5 116 114
3 2 119 117
3 6 122 120
3 8 125 123
3 8 127 125
3 9 382 383
3 9 384 386
3 384 129 385
3 384 385 386
3 10 133 131
3 10 135 133
3 11 138 136
3 13 141 139
3 13 143 141
3 7 146 144
3 387 149 388
3 389 388 147
3 387 388 389
3 390 151 391
3 392 391 149
3 390 391 392
3 394 393 151
3 14 154 152
3 395 157 396
3 397 396 155
3 395 396 397
3 398 159 399
3 400 399 157
3 398 399 400
3 401 160 402
3 403 162 404
3 405 404 160
3 403 404 405
3 407 406 162
3 408 163 409
3 16 166 164
3 16 168 166
3 16 170 168
3 14 173 171
3 14 152 173
3 18 177 175
3 18 179 177
3 19 182 180
3 19 184 182
3 19 186 184
3 17 189 187
3 17 191 189
3 15 194 192
3 20 197 195
3 20 199 197
3 21 202 200
3 21 204 202
3 12 207 205
3 22 210 208
3 22 212 210
3 23 215 213
3 25 216 97
3 25 217 216
3 26 220 218
3 410 221 411
3 412 411 99
3 410 411 412
3 414 413 221
3 415 222 416
3 417 223 418
3 419 418 222
3 417 418 419
3 28 226 224
3 30 227 101
3 30 228 227
3 31 231 229
3 420 232 421
3 423 422 232
3 33 235 233
3 424 236 425
3 427 426 236
3 36 428 430
3 428 237 429
3 428 429 430
3 36 238 237
3 36 240 238
3 33 241 103
3 33 233 241
3 38 244 242
3 40 245 105
3 40 246 245
3 40 248 246
3 42 249 107
3 42 250 249
3 43 253 251
3 45 254 110
3 45 255 254
3 46 431 433
3 433 432 113
3 431 432 433
3 46 434 435
3 46 436 438
3 436 257 437
3 436 437 438
3 48 258 115
3 48 259 258
3 49 262 260
3 51 263 118
3 51 264 263
3 52 267 265
3 54 268 121
3 54 269 268
3 24 270 214
3 55 271 124
3 55 272 271
3 55 273 272
3 56 274 126
3 56 439 441
3 441 440 274
3 439 440 441
3 27 442 444
3 444 443 219
3 442 443 444
3 445 275 446
3 447 276 448
3 449 277 450
3 451 450 276
3 449 450 451
3 57 278 128
3 57 279 278
3 453 452 280
3 454 282 455
3 457 456 130
3 58 458 460
3 460 459 132
3 458 459 460
3 58 461 462
3 58 463 464
3 59 465 467
3 467 466 134
3 465 466 467
3 59 468 469
3 60 470 472
3 470 283 471
3 470 471 472
3 62 284 137
3 62 285 284
3 29 286 225
3 63 287 140
3 63 288 287
3 63 289 288
3 64 290 142
3 64 291 290
3 53 292 266
3 65 293 145
3 65 294 293
3 32 295 230
3 66 296 148
3 66 297 296
3 66 298 297
3 67 299 150
3 67 300 299
3 67 301 300
3 68 304 302
3 70 305 153
3 70 306 305
3 34 307 234
3 71 308 156
3 71 309 308
3 71 310 309
3 72 311 158
3 72 312 311
3 73 473 474
3 73 475 476
3 73 477 479
3 477 313 478
3 477 478 479
3 74 314 161
3 74 315 314
3 74 480 482
3 482 481 315
3 480 481 482
3 75 483 484
3 75 485 487
3 485 316 486
3 485 486 487
3 35 488 489
3 76 490 492
3 492 491 165
3 490 491 492
3 76 493 494
3 76 495 497
3 495 317 496
3 495 496 497
3 77 318 167
3 77 319 318
3 77 320 319
3 78 321 169
3 78 322 321
3 37 323 239
3 79 324 172
3 79 325 324
3 79 326 325
3 68 327 174
3 68 302 327
3 498 329 499
3 81 330 176
3 81 331 330
3 81 332 331
3 82 333 178
3 82 334 333
3 83 500 501
3 83 502 504
3 502 335 503
3 502 503 504
3 39 336 243
3 84 337 181
3 84 338 337
3 84 339 338
3 85 340 183
3 85 341 340
3 85 342 341
3 86 343 185
3 86 344 343
3 41 345 247
3 87 346 188
3 87 347 346
3 87 348 347
3 80 349 190
3 80 328 349
3 69 350 303
3 88 351 193
3 88 352 351
3 44 353 252
3 89 354 196
3 89 355 354
3 89 356 355
3 505 357 506
3 507 506 198
3 505 506 507
3 509 508 357
3 510 358 511
3 90 512 514
3 512 359 513
3 512 513 514
3 90 360 359
3 515 361 516
3 518 517 361
3 91 519 520
3 91 521 523
3 521 362 522
3 521 522 523
3 47 363 256
3 92 364 201
3 92 365 364
3 92 366 365
3 524 367 525
3 526 525 203
3 524 525 526
3 528 527 367
3 61 529 531
3 529 368 530
3 529 530 531
3 93 369 206
3 93 370 369
3 50 371 261
3 94 372 209
3 94 373 372
3 94 374 373
3 95 375 211
3 95 376 375
3 533 532 281
3 534 377 535
3 537 536 377
3 538 378 539
3 540 379 541
3 542 380 543
3 544 543 379
3 542 543 544
3 545 381 546
3 96 97 23
3 98 97 96
3 98 25 97
3 547 99 548
3 549 548 26
3 547 548 549
3 550 99 551
3 553 552 99
3 100 101 28
3 102 101 100
3 102 30 101
3 555 554 31
3 557 556 33
3 558 36 559
3 560 103 561
3 562 561 36
3 560 561 562
3 563 103 564
3 563 564 565
3 566 33 567
3 568 567 103
3 566 567 568
3 104 105 38
3 106 105 104
3 106 40 105
3 106 107 40
3 108 107 106
3 108 42 107
3 109 110 43
3 111 110 109
3 111 45 110
3 112 569 571
3 569 113 570
3 569 570 571
3 114 113 112
3 114 46 113
3 114 115 46
3 116 115 114
3 116 48 115
3 117 118 49
3 119 118 117
3 119 51 118
3 120 121 52
3 122 121 120
3 122 54 121
3 123 124 24
3 125 124 123
3 125 55 124
3 125 126 55
3 127 126 125
3 127 56 126
3 573 572 27
3 574 128 575
3 129 576 578
3 576 128 577
3 576 577 578
3 129 57 128
3 579 130 580
3 581 130 582
3 584 583 130
3 131 585 587
3 585 132 586
3 585 586 587
3 133 132 131
3 133 58 132
3 133 134 58
3 135 134 133
3 135 59 134
3 136 137 60
3 138 137 136
3 138 62 137
3 139 140 29
3 141 140 139
3 141 63 140
3 141 142 63
3 143 142 141
3 143 64 142
3 144 145 53
3 146 145 144
3 146 65 145
3 147 148 32
3 149 148 147
3 149 66 148
3 149 150 66
3 151 150 149
3 151 67 150
3 151 588 590
3 590 589 67
3 588 589 590
3 592 591 151
3 152 153 68
3 154 153 152
3 154 70 153
3 155 156 34
3 157 156 155
3 157 71 156
3 157 158 71
3 159 158 157
3 159 72 158
3 160 593 594
3 160 595 597
3 595 73 596
3 595 596 597
3 160 161 73
3 162 161 160
3 162 74 161
3 162 598 600
3 600 599 74
3 598 599 600
3 602 601 162
3 163 603 604
3 163 605 607
3 605 75 606
3 605 606 607
3 164 165 35
3 166 165 164
3 166 76 165
3 166 167 76
3 168 167 166
3 168 77 167
3 168 169 77
3 170 169 168
3 170 78 169
3 171 172 37
3 173 172 171
3 173 79 172
3 173 174 79
3 152 174 173
3 152 68 174
3 175 608 610
3 608 176 609
3 608 609 610
3 177 176 175
3 177 81 176
3 177 178 81
3 179 178 177
3 179 82 178
3 611 83 612
3 180 181 39
3 182 181 180
3 182 84 181
3 182 183 84
3 184 183 182
3 184 85 183
3 184 185 85
3 186 185 184
3 186 86 185
3 187 188 41
3 189 188 187
3 189 87 188
3 189 190 87
3 191 190 189
3 191 80 190
3 192 193 69
3 194 193 192
3 194 88 193
3 195 196 44
3 197 196 195
3 197 89 196
3 197 198 89
3 199 198 197
3 199 613 615
3 615 614 198
3 613 614 615
3 616 90 617
3 618 91 619
3 200 201 47
3 202 201 200
3 202 92 201
3 202 203 92
3 204 203 202
3 204 620 622
3 622 621 203
3 620 621 622
3 205 206 61
3 207 206 205
3 207 93 206
3 208 209 50
3 210 209 208
3 210 94 209
3 210 211 94
3 212 211 210
3 212 95 211
3 213 214 6
3 215 214 213
3 215 24 214
3 97 215 23
3 216 215 97
3 216 24 215
3 216 123 24
3 217 123 216
3 217 8 123
3 218 623 625
3 623 219 624
3 623 624 625
3 220 219 218
3 220 27 219
3 99 220 26
3 221 220 99
3 221 27 220
3 221 626 628
3 628 627 27
3 626 627 628
3 630 629 221
3 631 9 632
3 222 633 634
3 222 635 636
3 222 637 639
3 637 131 638
3 637 638 639
3 223 131 222
3 223 10 131
3 224 225 11
3 226 225 224
3 226 29 225
3 101 226 28
3 227 226 101
3 227 29 226
3 227 139 29
3 228 139 227
3 228 13 139
3 229 230 7
3 231 230 229
3 231 32 230
3 640 231 641
3 642 641 31
3 640 641 642
3 232 643 645
3 643 231 644
3 643 644 645
3 232 32 231
3 232 147 32
3 646 147 647
3 648 647 232
3 646 647 648
3 650 649 147
3 233 234 14
3 235 234 233
3 235 34 234
3 651 235 652
3 653 652 33
3 651 652 653
3 236 654 656
3 654 235 655
3 654 655 656
3 236 34 235
3 236 155 34
3 657 155 658
3 659 658 236
3 657 658 659
3 661 660 155
3 662 35 663
3 237 664 665
3 237 666 668
3 666 35 667
3 666 667 668
3 237 164 35
3 238 164 237
3 238 16 164
3 238 239 16
3 240 239 238
3 240 37 239
3 103 240 36
3 241 240 103
3 241 37 240
3 241 171 37
3 233 171 241
3 233 14 171
3 669 175 670
3 671 175 672
3 673 18 674
3 675 674 175
3 673 674 675
3 242 676 678
3 676 243 677
3 676 677 678
3 244 243 242
3 244 39 243
3 105 244 38
3 245 244 105
3 245 39 244
3 245 180 39
3 246 180 245
3 246 19 180
3 246 247 19
3 248 247 246
3 248 41 247
3 107 248 40
3 249 248 107
3 249 41 248
3 249 187 41
3 250 187 249
3 250 17 187
3 251 252 15
3 253 252 251
3 253 44 252
3 110 253 43
3 254 253 110
3 254 44 253
3 254 195 44
3 255 195 254
3 255 20 195
3 113 679 680
3 682 681 113
3 683 256 684
3 257 685 687
3 685 256 686
3 685 686 687
3 257 47 256
3 115 257 46
3 258 257 115
3 258 47 257
3 258 200 47
3 259 200 258
3 259 21 200
3 260 261 12
3 262 261 260
3 262 50 261
3 118 262 49
3 263 262 118
3 263 50 262
3 263 208 50
3 264 208 263
3 264 22 208
3 265 266 1
3 267 266 265
3 267 53 266
3 121 267 52
3 268 267 121
3 268 53 267
3 268 144 53
3 269 144 268
3 269 7 144
3 214 122 6
3 270 122 214
3 270 54 122
3 124 270 24
3 271 270 124
3 271 54 270
3 271 269 54
3 272 269 271
3 272 7 269
3 272 229 7
3 273 229 272
3 273 31 229
3 126 273 55
3 274 273 126
3 274 31 273
3 274 688 690
3 690 689 31
3 688 689 690
3 692 691 274
3 219 693 694
3 696 695 219
3 698 697 27
3 699 242 700
3 275 701 703
3 701 242 702
3 701 702 703
3 275 38 242
3 704 275 705
3 276 706 708
3 706 275 707
3 706 707 708
3 276 38 275
3 276 104 38
3 277 104 276
3 277 4 104
3 710 709 3
3 128 711 712
3 278 713 715
3 715 714 128
3 713 714 715
3 278 716 717
3 278 718 720
3 718 112 719
3 718 719 720
3 279 112 278
3 279 5 112
3 280 281 2
3 721 281 722
3 723 722 280
3 721 722 723
3 725 724 281
3 726 218 727
3 282 728 730
3 728 218 729
3 728 729 730
3 282 26 218
3 130 731 733
3 731 282 732
3 731 732 733
3 734 282 735
3 736 735 130
3 734 735 736
3 737 26 738
3 739 738 282
3 737 738 739
3 741 740 26
3 132 742 743
3 745 744 132
3 134 746 748
3 748 747 58
3 746 747 748
3 750 749 134
3 283 751 752
3 283 753 755
3 753 61 754
3 753 754 755
3 137 283 60
3 284 283 137
3 284 61 283
3 284 205 61
3 285 205 284
3 285 12 205
3 225 138 11
3 286 138 225
3 286 62 138
3 140 286 29
3 287 286 140
3 287 62 286
3 287 285 62
3 288 285 287
3 288 12 285
3 288 260 12
3 289 260 288
3 289 49 260
3 142 289 63
3 290 289 142
3 290 49 289
3 290 117 49
3 291 117 290
3 291 2 117
3 266 102 1
3 292 102 266
3 292 30 102
3 145 292 53
3 293 292 145
3 293 30 292
3 293 228 30
3 294 228 293
3 294 13 228
3 230 146 7
3 295 146 230
3 295 65 146
3 148 295 32
3 296 295 148
3 296 65 295
3 296 294 65
3 297 294 296
3 297 13 294
3 297 143 13
3 298 143 297
3 298 64 143
3 150 298 66
3 299 298 150
3 299 64 298
3 299 291 64
3 300 291 299
3 300 2 291
3 300 280 2
3 301 280 300
3 301 756 758
3 758 757 280
3 756 757 758
3 759 301 760
3 761 760 67
3 759 760 761
3 762 301 763
3 765 764 301
3 302 303 0
3 304 303 302
3 304 69 303
3 153 304 68
3 305 304 153
3 305 69 304
3 305 192 69
3 306 192 305
3 306 15 192
3 234 154 14
3 307 154 234
3 307 70 154
3 156 307 34
3 308 307 156
3 308 70 307
3 308 306 70
3 309 306 308
3 309 15 306
3 309 251 15
3 310 251 309
3 310 43 251
3 158 310 71
3 311 310 158
3 311 43 310
3 311 109 43
3 312 109 311
3 312 3 109
3 766 159 767
3 313 768 770
3 768 159 769
3 768 769 770
3 313 72 159
3 161 313 73
3 314 313 161
3 314 72 313
3 314 312 72
3 315 312 314
3 315 3 312
3 315 771 773
3 773 772 3
3 771 772 773
3 775 774 315
3 777 776 74
3 778 277 779
3 316 780 782
3 780 277 781
3 780 781 782
3 316 4 277
3 165 783 785
3 785 784 35
3 783 784 785
3 787 786 165
3 788 163 789
3 317 790 792
3 790 163 791
3 790 791 792
3 317 75 163
3 167 317 76
3 318 317 167
3 318 75 317
3 318 316 75
3 319 316 318
3 319 4 316
3 319 108 4
3 320 108 319
3 320 42 108
3 169 320 77
3 321 320 169
3 321 42 320
3 321 250 42
3 322 250 321
3 322 17 250
3 239 170 16
3 323 170 239
3 323 78 170
3 172 323 37
3 324 323 172
3 324 78 323
3 324 322 78
3 325 322 324
3 325 17 322
3 325 191 17
3 326 191 325
3 326 80 191
3 174 326 79
3 327 326 174
3 327 80 326
3 327 328 80
3 302 328 327
3 302 0 328
3 793 60 794
3 795 60 796
3 797 136 798
3 799 798 60
3 797 798 799
3 329 800 802
3 800 136 801
3 800 801 802
3 329 11 136
3 176 803 804
3 330 805 807
3 807 806 176
3 805 806 807
3 330 808 809
3 330 810 812
3 810 329 811
3 810 811 812
3 331 329 330
3 331 11 329
3 331 224 11
3 332 224 331
3 332 28 224
3 178 332 81
3 333 332 178
3 333 28 332
3 333 100 28
3 334 100 333
3 334 1 100
3 335 813 814
3 335 815 817
3 815 18 816
3 815 816 817
3 243 818 819
3 336 820 822
3 822 821 243
3 820 821 822
3 336 823 825
3 823 83 824
3 823 824 825
3 181 336 39
3 337 336 181
3 337 83 336
3 337 335 83
3 338 335 337
3 338 18 335
3 338 179 18
3 339 179 338
3 339 82 179
3 183 339 84
3 340 339 183
3 340 82 339
3 340 334 82
3 341 334 340
3 341 1 334
3 341 265 1
3 342 265 341
3 342 52 265
3 185 342 85
3 343 342 185
3 343 52 342
3 343 120 52
3 344 120 343
3 344 6 120
3 247 186 19
3 345 186 247
3 345 86 186
3 188 345 41
3 346 345 188
3 346 86 345
3 346 344 86
3 347 344 346
3 347 6 344
3 347 213 6
3 348 213 347
3 348 23 213
3 190 348 87
3 349 348 190
3 349 23 348
3 349 96 23
3 328 96 349
3 328 0 96
3 303 98 0
3 350 98 303
3 350 25 98
3 193 350 69
3 351 350 193
3 351 25 350
3 351 217 25
3 352 217 351
3 352 8 217
3 252 194 15
3 353 194 252
3 353 88 194
3 196 353 44
3 354 353 196
3 354 88 353
3 354 352 88
3 355 352 354
3 355 8 352
3 355 127 8
3 356 127 355
3 356 56 127
3 198 356 89
3 357 356 198
3 357 56 356
3 357 826 828
3 828 827 56
3 826 827 828
3 830 829 357
3 831 111 832
3 833 832 3
3 831 832 833
3 358 834 836
3 834 111 835
3 834 835 836
3 358 45 111
3 837 358 838
3 359 839 841
3 839 358 840
3 839 840 841
3 359 45 358
3 359 255 45
3 360 255 359
3 360 20 255
3 842 90 843
3 844 90 845
3 846 360 847
3 848 847 90
3 846 847 848
3 361 849 851
3 849 360 850
3 849 850 851
3 361 20 360
3 361 199 20
3 852 199 853
3 854 853 361
3 852 853 854
3 856 855 199
3 857 223 858
3 362 859 861
3 859 223 860
3 859 860 861
3 362 10 223
3 256 862 863
3 363 864 866
3 866 865 256
3 864 865 866
3 363 867 869
3 867 91 868
3 867 868 869
3 201 363 47
3 364 363 201
3 364 91 363
3 364 362 91
3 365 362 364
3 365 10 362
3 365 135 10
3 366 135 365
3 366 59 135
3 203 366 92
3 367 366 203
3 367 59 366
3 367 870 872
3 872 871 59
3 870 871 872
3 874 873 367
3 368 875 876
3 368 877 878
3 206 368 61
3 369 368 206
3 369 879 881
3 881 880 368
3 879 880 881
3 369 882 883
3 370 884 886
3 886 885 369
3 884 885 886
3 370 887 889
3 887 9 888
3 887 888 889
3 261 207 12
3 371 207 261
3 371 93 207
3 209 371 50
3 372 371 209
3 372 93 371
3 372 370 93
3 373 370 372
3 373 9 370
3 373 129 9
3 374 129 373
3 374 57 129
3 211 374 94
3 375 374 211
3 375 57 374
3 375 279 57
3 376 279 375
3 376 5 279
3 281 119 2
3 890 119 891
3 892 891 281
3 890 891 892
3 893 51 894
3 895 894 119
3 893 894 895
3 377 896 897
3 377 898 900
3 898 51 899
3 898 899 900
3 377 264 51
3 901 264 902
3 903 902 377
3 901 902 903
3 904 22 905
3 906 905 264
3 904 905 906
3 907 22 908
3 909 212 910
3 911 910 22
3 909 910 911
3 378 912 914
3 912 212 913
3 912 913 914
3 378 95 212
3 915 378 916
3 917 378 918
3 919 95 920
3 921 920 378
3 919 920 921
3 922 376 923
3 924 923 95
3 922 923 924
3 379 925 927
3 925 376 926
3 925 926 927
3 379 5 376
3 379 116 5
3 380 116 379
3 380 48 116
3 928 380 929
3 930 380 931
3 932 48 933
3 934 933 380
3 932 933 934
3 935 259 936
3 937 936 48
3 935 936 937
3 381 938 940
3 938 259 939
3 938 939 940
3 381 21 259
3 941 381 942
3 943 381 944
3 945 21 946
3 947 946 381
3 945 946 947
3 948 204 949
3 950 949 21
3 948 949 950
3 951 204 952
3 954 953 204
