ply
format ascii 1.0
element vertex 860
property float x
property float y
property float z
element face 800
property list uchar int vertex_index
end_header
26.237247 -50.730114 -22.496977
2.908205 -60.620811 8.917184
28.770947 -24.248219 -37.430534
36.840179 -37.967403 -36.152702
8.735958 -81.36293 23.037193
5.815357 -72.919754 19.305347
9.198866 -71.454178 10.394329
44.652813 -92.258408 32.793617
32.292004 -45.537918 -29.001463
5.887709 -56.510582 2.250235
47.101246 -87.881676 22.355679
25.883593 -41.957405 -22.698122
28.692789 -36.446182 -30.166445
32.164204 -29.076363 -37.951195
4.21475 -73.775299 23.895916
3.319933 -68.425476 17.775221
39.833496 -95.471756 35.192932
29.584103 -48.53463 -25.458944
6.218931 -66.373032 9.390229
10.738132 -70.414017 6.338008
7.68952 -64.808426 5.612819
8.963499 -62.602951 2.223299
4.319586 -58.736343 5.363585
49.649017 -80.319 17.242012
44.023514 -95.244881 26.387505
46.127903 -90.439171 27.620203
45.473339 -93.068855 21.490376
29.339888 -28.460693 -32.806541
28.473654 -33.857342 -29.679007
28.815264 -30.154228 -33.97776
30.289608 -32.941429 -34.095543
29.625711 -26.123791 -38.184998
6.010986 -78.074486 25.932846
7.786041 -77.110931 21.148092
9.545931 -76.408653 16.37076
11.210724 -76.004349 11.750689
7.51008 -72.170807 14.760096
4.721724 -67.500122 13.476692
42.640289 -92.756554 37.582794
42.120026 -96.233826 31.035772
28.849384 -18.570335 -40.381004
34.517639 -41.922909 -32.765938
-0.137772 -54.210735 8.94194
7.543495 -54.177197 -0.309404
47.930756 -85.122513 17.149899
19.385601 -48.887589 -13.945679
21.016479 -48.221149 -17.107676
22.994665 -47.138847 -20.127211
25.3927 -45.528236 -23.086138
27.244276 -39.476257 -26.36537
27.981943 -43.291882 -26.234266
30.444031 -40.402184 -29.750109
32.673565 -36.942535 -33.519333
34.899994 -33.099018 -37.138611
27.975592 -49.737286 -23.900537
4.566645 -63.583813 9.083595
6.968016 -65.661247 7.457677
5.275217 -62.767124 7.210954
5.989471 -61.825188 5.429104
3.589193 -59.727955 7.092041
50.667419 -78.162315 17.191591
44.800964 -94.260376 23.954224
29.181973 -23.62611 -36.633324
29.003443 -26.39435 -35.135262
28.821264 -29.197807 -33.528481
28.79203 -27.164589 -35.759483
29.139482 -28.172203 -36.104424
28.919138 -25.06266 -37.947662
36.221741 -42.649406 -34.141525
37.535088 -40.599464 -35.664398
38.207157 -35.941933 -37.56134
4.369364 -76.397163 27.216486
4.995184 -73.340508 21.601402
6.025917 -75.466576 22.555475
6.901375 -75.029121 20.209646
8.673855 -76.716248 18.750525
7.783739 -74.644501 17.867266
8.661585 -74.321655 15.545259
6.657803 -72.529419 17.019527
4.003477 -67.977356 15.606018
2.606108 -65.457458 15.125646
3.223114 -64.908615 13.05318
41.484413 -92.383766 39.725483
41.014179 -96.090431 33.186188
28.977097 -15.793559 -41.628784
28.553909 -16.201113 -42.675751
32.874283 -48.408524 -28.670969
33.975967 -46.589958 -30.574305
33.433311 -43.790916 -30.892466
10.365566 -73.781815 11.044214
11.160528 -73.466599 8.903913
7.374716 -59.555229 2.186047
9.491554 -61.248383 0.701971
8.028233 -58.255756 0.753713
8.65485 -56.888252 -0.525295
6.708836 -55.334297 0.892603
46.662121 -89.215523 24.987068
47.15332 -87.919228 27.902706
47.584541 -86.659821 25.206295
47.942204 -85.325653 22.523811
48.295307 -83.972092 19.86554
47.500999 -86.500984 19.739792
20.175472 -48.600384 -15.5403
23.634579 -45.301624 -19.737257
24.510277 -44.491058 -21.389898
24.149979 -46.406712 -21.600355
25.438358 -43.537601 -23.038561
28.334984 -34.988808 -30.059378
27.919247 -36.625122 -28.032587
27.954481 -38.025928 -28.245279
27.42075 -41.188805 -26.420259
28.440105 -39.792877 -28.196386
29.243509 -41.926376 -27.945158
29.455891 -38.25486 -30.03998
31.180862 -31.045069 -36.051727
31.471462 -34.799248 -33.859955
32.504993 -32.917732 -35.760536
33.763741 -35.054939 -35.378326
33.596287 -30.963659 -37.588051
3.860821 -71.150742 20.724167
4.59869 -70.734322 18.477625
40.040798 -93.584801 38.519791
31.022661 -47.128696 -27.170237
9.502956 -80.910912 20.524166
7.789425 -68.992004 9.833341
10.000668 -71.003769 8.321571
8.57395 -68.405632 7.832114
9.308315 -67.673454 5.918331
9.963511 -66.756058 4.098805
10.515583 -65.627777 2.379565
8.360571 -63.792004 3.864721
6.693394 -60.752178 3.749848
5.088911 -57.656399 3.745294
52.507935 -75.129242 14.600522
44.31831 -93.804115 29.622938
45.462666 -91.479271 30.233273
45.100189 -92.907562 27.118862
45.753029 -91.773445 24.574509
46.299812 -90.485077 22.017031
46.781654 -89.115837 19.46501
46.068161 -91.754929 19.019842
28.938755 -31.144342 -31.277784
28.609863 -32.05468 -31.829504
28.79896 -33.240063 -32.104736
29.466785 -34.747074 -32.123055
29.340639 -31.392605 -34.155014
29.989162 -29.460699 -36.186958
30.771536 -27.459679 -38.169983
7.5474 -79.704712 24.548801
5.174555 -75.932617 24.893108
6.892941 -77.574409 23.546156
8.409924 -79.209854 22.093418
9.261288 -78.791458 19.639898
10.092686 -78.477974 17.206129
10.897852 -78.274887 14.813752
10.394873 -76.182777 14.030046
9.526091 -74.046936 13.263981
8.361666 -71.825272 12.54561
5.373304 -70.322235 16.250191
6.171488 -69.910477 14.056471
6.981686 -69.47876 11.912421
5.464357 -66.974915 11.400454
3.878906 -64.290794 11.035105
2.284781 -61.414753 10.824647
43.705074 -92.703606 35.25885
41.241325 -94.300865 36.527477
42.370537 -94.561012 34.364464
43.40398 -94.379341 32.05127
43.128639 -95.930908 28.759403
29.373423 -20.882477 -38.007896
28.783377 -21.387165 -38.975838
28.726473 -22.041662 -39.667122
28.597216 -19.091518 -41.248199
35.060127 -44.657223 -32.425148
35.628017 -39.970566 -34.541626
24.441334 -51.518257 -21.222101
7.883535 -50.959183 -1.164774
0.73568 -58.346729 10.758186
-0.715401 -55.097519 10.808251
1.31666 -57.490803 8.878752
2.00112 -56.557301 7.087353
2.785641 -55.56168 5.399714
3.662315 -54.529205 3.828325
4.62154 -53.495483 2.382312
5.652967 -52.507545 1.068084
6.743963 -51.629017 -0.111109
8.365395 -53.110451 -1.325375
49.190025 -81.574821 19.877119
48.724331 -82.642311 17.241249
18.590736 -49.090294 -12.345188
20.187937 -50.317505 -17.556826
22.802486 -45.974571 -18.065256
21.94945 -47.738651 -18.635798
21.347637 -49.923382 -18.901976
22.681633 -49.411217 -20.213148
24.152699 -48.756805 -21.52434
25.702587 -47.939072 -22.87945
28.35375 -35.544121 -27.539541
27.521931 -38.135208 -26.028929
26.556633 -40.78904 -24.520727
26.413668 -42.437431 -24.707029
26.684875 -44.492222 -24.620382
27.262743 -46.942566 -24.321947
28.767801 -45.759407 -25.883509
30.169579 -44.390862 -27.574526
31.448298 -42.848328 -29.378962
30.463072 -36.585072 -31.938101
31.580379 -38.733723 -31.623487
32.617565 -41.152885 -31.254599
33.720966 -39.333076 -33.138924
34.82095 -37.421051 -34.959824
35.983334 -35.448658 -36.649734
26.533031 -52.279688 -22.266138
25.557423 -52.677992 -21.641044
27.10642 -50.2337 -23.198757
27.402203 -51.783274 -22.967918
26.533031 -52.279688 -22.266138
3.614971 -75.494823 27.8374
4.001145 -76.615051 28.370276
1.688781 -64.371384 16.013306
2.319692 -65.70496 16.183388
1.912501 -64.097294 14.977362
1.688781 -64.371384 16.013306
40.872042 -91.984165 40.695173
41.62459 -91.360393 41.210613
29.069793 -14.42585 -42.162365
29.395774 -15.6278 -40.972557
28.790878 -14.579686 -42.779506
29.069793 -14.42585 -42.162365
32.583143 -46.973221 -28.836216
32.267155 -49.240471 -27.73679
31.976015 -47.805168 -27.902037
8.746052 -82.479919 23.512695
8.347706 -81.62656 24.297058
45.274729 -91.105797 33.026979
44.847996 -91.424698 34.323383
25.196935 -43.224232 -22.04401
24.860694 -43.733306 -21.13651
25.547352 -42.46648 -21.790623
2.986152 -70.200737 21.45488
3.519137 -71.356365 21.851209
3.272147 -70.00103 20.348047
2.986152 -70.200737 21.45488
29.922362 -50.040184 -25.252092
29.114202 -50.668558 -24.454536
30.303382 -47.831663 -26.314591
30.641641 -49.337217 -26.107738
29.922362 -50.040184 -25.252092
9.762094 -81.819241 19.695222
9.879044 -80.741627 19.280667
52.10682 -75.641697 15.861984
52.593212 -74.691925 15.829303
51.957215 -76.093277 14.617095
52.10682 -75.641697 15.861984
49.979551 -79.72184 15.953011
50.488752 -78.643497 15.927801
50.158218 -79.240657 17.216801
49.479775 -80.841267 15.953112
49.979551 -79.72184 15.953011
29.777539 -28.154851 -32.327008
29.517836 -27.124263 -33.526733
29.51351 -29.44267 -31.638577
29.777539 -28.154851 -32.327008
29.139322 -29.802518 -32.042163
29.312943 -30.784495 -30.874198
29.51351 -29.44267 -31.638577
6.349394 -79.155601 26.462887
5.586273 -78.325203 27.117198
6.779193 -78.889599 25.240824
7.117601 -79.970714 25.770865
6.349394 -79.155601 26.462887
4.694653 -74.853958 24.394512
4.335235 -75.066478 25.53767
3.855333 -73.98782 25.039074
2.800559 -63.203789 11.917459
3.55101 -64.599705 12.044142
2.472663 -63.512699 12.926497
2.003497 -61.765768 11.812231
3.081844 -62.852773 10.929876
2.800559 -63.203789 11.917459
43.347122 -91.82476 37.953331
42.796717 -91.785717 39.100987
43.172682 -92.73008 36.420822
43.879514 -91.798286 36.791359
43.347122 -91.82476 37.953331
29.111404 -19.726406 -39.19445
29.479222 -19.521373 -38.625244
29.217202 -18.365302 -39.811798
28.625601 -16.479802 -43.053421
28.559976 -14.998935 -43.775738
23.559408 -51.817831 -20.62622
23.664244 -53.361553 -20.439747
7.845679 -49.913554 -1.167907
7.098214 -50.082363 -0.582814
-0.20515 -57.132136 11.753982
0.495178 -58.732426 11.733169
-0.426586 -54.654127 9.875096
-1.365024 -53.392713 10.871878
-1.07621 -52.949321 9.938723
2.130869 -53.945099 5.453465
1.689612 -54.419834 6.284903
2.569206 -53.428861 4.66777
3.223978 -55.045443 4.61402
2.130869 -53.945099 5.453465
4.139123 -52.01477 2.458086
3.561289 -52.447403 3.171834
4.654837 -51.520802 1.800972
5.137253 -53.001514 1.725198
4.139123 -52.01477 2.458086
6.528428 -50.417281 -0.055981
5.837299 -50.706041 0.553931
7.098214 -50.082363 -0.582814
7.313749 -51.2941 -0.637941
6.528428 -50.417281 -0.055981
11.797581 -77.034096 10.996357
11.43918 -77.080345 12.118105
11.310237 -71.721779 6.596829
10.941505 -72.016655 7.58861
10.3694 -70.708893 7.32979
9.958426 -63.441971 1.496151
10.734468 -64.954384 1.574284
9.739541 -64.115364 2.301432
10.38775 -61.987871 -0.008392
9.721554 -60.499752 0.011207
8.398079 -54.835755 -0.96433
8.953757 -56.191282 -1.072275
8.099172 -55.532725 -0.417349
7.954445 -53.643824 -0.817389
8.809029 -54.302381 -1.472315
8.398079 -54.835755 -0.96433
46.363552 -89.73954 29.1084
46.030934 -90.25959 30.414935
45.795285 -90.959221 28.926738
47.450508 -87.243199 29.322799
47.677341 -86.669327 27.950197
49.021095 -82.222724 21.215837
49.504559 -81.061672 21.183453
48.198044 -84.450348 15.873856
48.594831 -83.210247 15.919531
48.327544 -83.882412 17.195574
47.017482 -88.419269 18.198154
46.703066 -89.751034 18.012253
18.988169 -48.988941 -13.145433
19.431801 -48.159607 -12.657519
19.829234 -48.058255 -13.457765
18.541637 -49.950209 -13.585591
18.144204 -50.051562 -12.785346
18.988169 -48.988941 -13.145433
18.891944 -49.866169 -14.328636
18.541637 -49.950209 -13.585591
20.114166 -49.419443 -16.633856
19.693663 -49.60906 -15.850168
20.595976 -48.410766 -16.323988
20.602208 -49.269327 -17.332251
19.699895 -50.467621 -16.858431
20.114166 -49.419443 -16.633856
23.659945 -44.906887 -18.565724
23.287847 -45.260364 -17.656204
28.413702 -34.700732 -28.609274
28.712093 -34.26367 -28.283668
28.772044 -33.420281 -29.353401
28.9922 -22.474857 -39.868103
28.831122 -20.916807 -40.745007
28.309946 -51.269886 -23.675333
27.402203 -51.783274 -22.967918
28.779847 -49.135958 -24.679741
29.114202 -50.668558 -24.454536
28.309946 -51.269886 -23.675333
50.911808 -77.698498 18.455194
51.186561 -77.158233 17.157519
50.415224 -78.74651 18.503535
50.911808 -77.698498 18.455194
49.906023 -79.824852 18.528745
50.158218 -79.240657 17.216801
50.415224 -78.74651 18.503535
44.269735 -95.432209 23.543869
44.412239 -94.752629 25.170865
43.88101 -95.924462 24.76051
44.67058 -94.912113 22.36617
44.269735 -95.432209 23.543869
45.006767 -94.316352 21.134246
45.137152 -93.664615 22.7223
44.67058 -94.912113 22.36617
45.369547 -93.710331 19.945868
45.006767 -94.316352 21.134246
29.438879 -24.706971 -35.440124
29.60032 -23.370962 -36.108006
29.349614 -26.091091 -34.691093
29.438879 -24.706971 -35.440124
29.092708 -25.01023 -35.884293
29.171665 -27.427521 -33.970901
29.517836 -27.124263 -33.526733
29.349614 -26.091091 -34.691093
36.460194 -44.023249 -33.952289
35.822346 -45.062939 -33.13179
37.116867 -42.998278 -34.713726
36.460194 -44.023249 -33.952289
36.878415 -41.624435 -34.902962
37.853295 -41.94046 -35.427891
37.116867 -42.998278 -34.713726
38.287931 -39.566128 -36.318176
37.853295 -41.94046 -35.427891
38.623966 -37.237362 -37.266647
38.287931 -39.566128 -36.318176
37.871122 -38.270698 -36.612869
38.979311 -34.930689 -38.1651
38.623966 -37.237362 -37.266647
4.765462 -77.486542 27.759018
4.001145 -76.615051 28.370276
5.190175 -77.235825 26.574666
5.586273 -78.325203 27.117198
4.765462 -77.486542 27.759018
3.018377 -66.964909 16.423575
3.661705 -68.201416 16.69062
2.676604 -67.188969 17.508176
3.304793 -66.717407 15.365832
3.018377 -66.964909 16.423575
2.319692 -65.70496 16.183388
2.221004 -63.822872 13.941128
2.914611 -65.183037 14.089413
1.912501 -64.097294 14.977362
2.472663 -63.512699 12.926497
2.221004 -63.822872 13.941128
42.218778 -91.599323 40.172331
41.62459 -91.360393 41.210613
42.062351 -92.57016 38.654139
42.796717 -91.785717 39.100987
42.218778 -91.599323 40.172331
40.308298 -96.672955 32.482123
40.423837 -95.781093 34.18956
39.717956 -96.363617 33.485495
40.88901 -96.927292 31.484547
40.308298 -96.672955 32.482123
41.441933 -96.998989 30.409339
41.567103 -96.162128 32.11098
40.88901 -96.927292 31.484547
41.984805 -97.011933 29.350363
41.441933 -96.998989 30.409339
29.281059 -16.976914 -40.435688
29.395774 -15.6278 -40.972557
28.913241 -17.181947 -41.004894
29.217202 -18.365302 -39.811798
29.281059 -16.976914 -40.435688
28.579284 -14.783463 -43.30299
28.765503 -15.997336 -42.152268
28.790878 -14.579686 -42.779506
28.559976 -14.998935 -43.775738
28.579284 -14.783463 -43.30299
32.448859 -50.780558 -27.593225
32.267155 -49.240471 -27.73679
33.030648 -49.902214 -28.542562
32.448859 -50.780558 -27.593225
33.425125 -47.499241 -29.622637
33.58149 -48.992931 -29.494231
33.030648 -49.902214 -28.542562
-0.765012 -52.509107 9.005461
-1.07621 -52.949321 9.938723
0.227906 -53.744361 8.056016
-0.765012 -52.509107 9.005461
11.170577 -74.796856 10.298386
11.593156 -75.908123 10.651623
10.788145 -74.893082 11.397451
11.568058 -74.639248 9.228235
11.170577 -74.796856 10.298386
10.763047 -73.624207 9.974063
11.911126 -74.495953 8.17697
11.568058 -74.639248 9.228235
11.617425 -71.406456 5.621821
11.058249 -70.02145 5.393757
8.989893 -59.003439 0.037078
9.721554 -60.499752 0.011207
8.759894 -59.752069 0.727842
8.341541 -57.572004 0.114209
9.303202 -58.319687 -0.602426
8.989893 -59.003439 0.037078
47.892952 -86.039624 26.601992
47.677341 -86.669327 27.950197
47.368931 -87.289524 26.5545
48.066771 -85.414177 25.235247
47.892952 -86.039624 26.601992
48.245602 -84.747093 23.894005
48.066771 -85.414177 25.235247
47.763373 -85.992737 23.865053
48.397184 -84.09814 22.539182
48.245602 -84.747093 23.894005
48.118755 -84.648873 21.194675
48.573736 -83.42136 21.210047
48.397184 -84.09814 22.539182
20.274013 -47.909859 -14.30589
19.829234 -48.058255 -13.457765
20.668948 -47.766256 -15.1032
19.780537 -48.743986 -14.74299
20.274013 -47.909859 -14.30589
21.083014 -47.558186 -15.95581
20.668948 -47.766256 -15.1032
21.503518 -47.368568 -16.739498
20.595976 -48.410766 -16.323988
21.083014 -47.558186 -15.95581
24.422845 -44.138589 -20.31019
24.075992 -44.570414 -19.401724
24.072428 -44.896341 -20.563578
24.422845 -44.138589 -20.31019
24.860694 -43.733306 -21.13651
3.392556 -72.863095 24.564096
3.855333 -73.98782 25.039074
3.696101 -72.668644 23.437083
3.392556 -72.863095 24.564096
4.086318 -72.451248 22.289827
4.604967 -73.557904 22.748659
3.696101 -72.668644 23.437083
4.428002 -72.245625 21.162785
4.086318 -72.451248 22.289827
3.519137 -71.356365 21.851209
3.641082 -69.79282 19.224775
4.229756 -70.942532 19.600896
3.272147 -70.00103 20.348047
3.001703 -68.638397 18.873573
3.959312 -69.579899 18.126423
3.641082 -69.79282 19.224775
2.416456 -67.413189 18.582364
3.001703 -68.638397 18.873573
2.676604 -67.188969 17.508176
2.416456 -67.413189 18.582364
39.413792 -93.011265 39.432034
40.150234 -92.584682 40.092327
39.319446 -93.987561 37.789486
39.413792 -93.011265 39.432034
39.215795 -94.931038 36.126057
39.937147 -94.528278 36.856361
39.319446 -93.987561 37.789486
39.108785 -95.867031 34.423856
39.215795 -94.931038 36.126057
39.717956 -96.363617 33.485495
39.108785 -95.867031 34.423856
31.341344 -48.600557 -26.986424
30.641641 -49.337217 -26.107738
31.657332 -46.333307 -28.08585
31.976015 -47.805168 -27.902037
31.341344 -48.600557 -26.986424
9.445847 -82.008484 20.966912
9.062348 -82.234493 22.223425
9.119457 -81.136921 21.780679
9.445847 -82.008484 20.966912
9.762094 -81.819241 19.695222
10.343341 -68.651169 5.183919
11.058249 -70.02145 5.393757
10.023224 -69.043735 6.12817
10.670939 -68.19247 4.274155
10.343341 -68.651169 5.183919
9.635913 -67.214756 5.008568
10.927846 -67.680855 3.378784
10.670939 -68.19247 4.274155
10.239547 -66.191917 3.239185
11.203882 -67.116715 2.519164
10.927846 -67.680855 3.378784
53.011822 -74.209267 14.588935
52.593212 -74.691925 15.829303
53.050877 -74.63459 13.383552
53.011822 -74.209267 14.588935
52.468401 -75.567669 13.380279
53.050877 -74.63459 13.383552
52.468401 -75.567669 13.380279
51.957215 -76.093277 14.617095
51.036957 -77.609814 15.912629
51.186561 -77.158233 17.157519
51.036957 -77.609814 15.912629
50.488752 -78.643497 15.927801
46.346319 -91.07058 17.789669
46.703066 -89.751034 18.012253
46.424908 -90.435383 19.242426
45.666958 -93.053368 18.710601
45.77075 -92.411892 20.255109
45.369547 -93.710331 19.945868
46.004292 -92.401608 17.522507
45.666958 -93.053368 18.710601
46.346319 -91.07058 17.789669
46.004292 -92.401608 17.522507
26.269364 -41.338482 -22.389372
25.547352 -42.46648 -21.790623
29.004595 -32.063781 -30.15279
29.312943 -30.784495 -30.874198
28.706204 -32.500842 -30.478395
28.772044 -33.420281 -29.353401
29.004595 -32.063781 -30.15279
7.753427 -80.797451 25.052862
7.117601 -79.970714 25.770865
8.141679 -80.533821 23.792997
8.347706 -81.62656 24.297058
7.753427 -80.797451 25.052862
3.93264 -75.298752 26.699359
3.614971 -75.494823 27.8374
4.771959 -76.16489 26.054797
3.93264 -75.298752 26.699359
4.335235 -75.066478 25.53767
9.758211 -79.6819 18.838532
9.879044 -80.741627 19.280667
9.382122 -79.851185 20.082032
10.17391 -79.525158 17.621648
9.758211 -79.6819 18.838532
9.676987 -78.634716 18.423013
10.540344 -79.421566 16.40219
10.17391 -79.525158 17.621648
10.942927 -79.320022 15.206002
10.540344 -79.421566 16.40219
10.495269 -78.37643 16.00994
11.295224 -79.275154 14.021854
10.942927 -79.320022 15.206002
11.282744 -78.215615 13.649636
11.295224 -79.275154 14.021854
11.031254 -77.169559 13.257784
11.282744 -78.215615 13.649636
10.646363 -77.228832 14.421899
10.802799 -76.093563 12.890367
11.43918 -77.080345 12.118105
11.031254 -77.169559 13.257784
44.374127 -91.647297 35.555999
43.879514 -91.798286 36.791359
44.178944 -92.481007 34.026234
44.847996 -91.424698 34.323383
44.374127 -91.647297 35.555999
40.762606 -92.984284 39.122637
40.872042 -91.984165 40.695173
40.150234 -92.584682 40.092327
42.489111 -96.860473 28.212178
42.624333 -96.082367 29.897588
41.984805 -97.011933 29.350363
42.986053 -96.654251 27.099415
42.489111 -96.860473 28.212178
43.433491 -96.311238 25.913466
43.576076 -95.587895 27.573454
42.986053 -96.654251 27.099415
43.88101 -95.924462 24.76051
43.433491 -96.311238 25.913466
29.843905 -20.662721 -37.402512
29.479222 -19.521373 -38.625244
29.696045 -21.999146 -36.795292
29.843905 -20.662721 -37.402512
29.277698 -22.254294 -37.32061
29.60032 -23.370962 -36.108006
29.696045 -21.999146 -36.795292
28.766494 -19.441735 -41.535545
28.831122 -20.916807 -40.745007
28.661845 -20.56659 -40.457661
28.647254 -17.925004 -42.339645
28.575563 -17.646316 -41.961975
28.625601 -16.479802 -43.053421
28.766494 -19.441735 -41.535545
28.647254 -17.925004 -42.339645
34.129875 -48.039589 -30.443903
33.58149 -48.992931 -29.494231
34.671955 -47.073222 -31.369324
34.129875 -48.039589 -30.443903
34.518047 -45.623591 -31.499727
35.241539 -46.066847 -32.273601
34.671955 -47.073222 -31.369324
35.640934 -43.653315 -33.283337
35.822346 -45.062939 -33.13179
35.241539 -46.066847 -32.273601
24.659467 -53.072063 -21.003607
23.664244 -53.361553 -20.439747
25.339291 -51.124185 -21.859539
25.557423 -52.677992 -21.641044
24.659467 -53.072063 -21.003607
8.517144 -50.822851 -1.683854
8.476373 -51.617435 -1.616206
8.517144 -50.822851 -1.683854
7.845679 -49.913554 -1.167907
1.269729 -60.266437 11.7664
2.003497 -61.765768 11.812231
1.510231 -59.880741 10.791417
1.269729 -60.266437 11.7664
0.495178 -58.732426 11.733169
-1.57825 -53.813677 11.845303
-1.365024 -53.392713 10.871878
-0.930691 -55.507531 11.779015
-1.57825 -53.813677 11.845303
0.01014 -56.722124 10.783219
-0.20515 -57.132136 11.753982
-0.930691 -55.507531 11.779015
1.297352 -54.917645 7.128722
0.931674 -55.384018 8.014647
0.227906 -53.744361 8.056016
2.393381 -56.059491 6.243533
1.297352 -54.917645 7.128722
1.689612 -54.419834 6.284903
3.081676 -52.964264 3.89484
2.569206 -53.428861 4.66777
4.141928 -54.012344 3.105319
3.081676 -52.964264 3.89484
3.561289 -52.447403 3.171834
5.291801 -51.145305 1.143527
4.654837 -51.520802 1.800972
6.198465 -52.068281 0.478488
5.291801 -51.145305 1.143527
5.837299 -50.706041 0.553931
8.476373 -51.617435 -1.616206
8.717302 -52.69307 -1.696506
8.124465 -52.034817 -1.245074
8.746052 -82.479919 23.512695
9.062348 -82.234493 22.223425
11.797581 -77.034096 10.996357
11.593156 -75.908123 10.651623
11.521434 -73.24807 7.879781
10.580598 -72.235184 8.612742
10.941505 -72.016655 7.58861
11.911126 -74.495953 8.17697
11.521434 -73.24807 7.879781
11.310237 -71.721779 6.596829
11.617425 -71.406456 5.621821
11.389392 -66.47454 1.674041
11.203882 -67.116715 2.519164
11.389392 -66.47454 1.674041
10.734468 -64.954384 1.574284
10.222453 -62.764687 0.735487
9.958426 -63.441971 1.496151
9.227526 -61.925667 1.462635
10.222453 -62.764687 0.735487
10.38775 -61.987871 -0.008392
9.507989 -57.516517 -1.209358
9.303202 -58.319687 -0.602426
9.507989 -57.516517 -1.209358
8.953757 -56.191282 -1.072275
9.080307 -53.603808 -1.901666
8.809029 -54.302381 -1.472315
8.717302 -52.69307 -1.696506
9.080307 -53.603808 -1.901666
45.679655 -90.716228 31.746808
45.274729 -91.105797 33.026979
45.057739 -91.86884 31.513445
45.679655 -90.716228 31.746808
46.030934 -90.25959 30.414935
46.876261 -88.479568 29.249651
46.363552 -89.73954 29.1084
46.640612 -89.1792 27.761454
46.876261 -88.479568 29.249651
47.450508 -87.243199 29.322799
49.676527 -80.452763 19.846299
49.504559 -81.061672 21.183453
49.419521 -80.946911 18.559565
49.906023 -79.824852 18.528745
49.676527 -80.452763 19.846299
48.742666 -82.773457 19.87133
49.021095 -82.222724 21.215837
48.573736 -83.42136 21.210047
49.017432 -82.002922 15.952731
49.479775 -80.841267 15.953112
49.186674 -81.480656 17.24163
49.017432 -82.002922 15.952731
48.594831 -83.210247 15.919531
47.377155 -87.111843 18.335545
47.141327 -87.808411 19.602401
47.017482 -88.419269 18.198154
47.592033 -86.422607 17.040598
47.715878 -85.811748 18.444845
47.377155 -87.111843 18.335545
47.853964 -85.732712 15.788532
47.592033 -86.422607 17.040598
48.198044 -84.450348 15.873856
47.853964 -85.732712 15.788532
18.932336 -48.251213 -11.825654
19.431801 -48.159607 -12.657519
18.159343 -49.151493 -11.553928
18.932336 -48.251213 -11.825654
17.81493 -50.109497 -12.034166
18.159343 -49.151493 -11.553928
17.81493 -50.109497 -12.034166
18.144204 -50.051562 -12.785346
19.286879 -49.722566 -15.125946
18.891944 -49.866169 -14.328636
19.780537 -48.743986 -14.74299
19.286879 -49.722566 -15.125946
19.693663 -49.60906 -15.850168
19.289609 -51.686064 -17.011333
19.699895 -50.467621 -16.858431
19.889647 -51.585398 -17.62417
19.289609 -51.686064 -17.011333
22.396521 -46.245279 -17.218288
23.287847 -45.260364 -17.656204
21.909482 -47.09786 -17.586466
21.503518 -47.368568 -16.739498
22.396521 -46.245279 -17.218288
23.218532 -45.638098 -18.901257
23.659945 -44.906887 -18.565724
24.075992 -44.570414 -19.401724
20.469496 -51.388336 -18.296746
19.889647 -51.585398 -17.62417
20.767787 -50.120443 -18.229401
21.191738 -51.237746 -18.885539
20.469496 -51.388336 -18.296746
21.858736 -50.981663 -19.541125
21.191738 -51.237746 -18.885539
22.014635 -49.667299 -19.557562
22.679558 -50.764311 -20.121744
21.858736 -50.981663 -19.541125
23.415091 -50.437105 -20.77734
22.679558 -50.764311 -20.121744
23.417166 -49.084011 -20.868744
24.297016 -50.137531 -21.37322
23.559408 -51.817831 -20.62622
23.415091 -50.437105 -20.77734
26.497664 -40.731093 -23.372261
26.269364 -41.338482 -22.389372
28.747787 -35.117249 -27.167654
28.712093 -34.26367 -28.283668
28.275148 -36.319527 -26.479414
28.747787 -35.117249 -27.167654
27.859238 -37.615071 -25.724108
28.275148 -36.319527 -26.479414
27.937841 -36.839664 -26.784235
27.316834 -38.819994 -25.037664
27.859238 -37.615071 -25.724108
26.834184 -40.14691 -24.283563
27.316834 -38.819994 -25.037664
27.039282 -39.462124 -25.274828
26.220113 -41.373222 -23.609425
26.497664 -40.731093 -23.372261
26.834184 -40.14691 -24.283563
29.088532 -23.985356 -39.008373
28.822806 -23.552161 -38.807392
28.9922 -22.474857 -39.868103
29.441819 -24.515921 -39.127041
29.272424 -25.593226 -38.06633
29.088532 -23.985356 -39.008373
29.96615 -25.073928 -39.188817
29.441819 -24.515921 -39.127041
30.539062 -25.741872 -39.181309
30.198624 -26.791735 -38.177491
29.96615 -25.073928 -39.188817
31.240361 -26.432975 -39.120385
30.539062 -25.741872 -39.181309
31.936695 -27.241317 -39.01099
31.46787 -28.268021 -38.060589
31.240361 -26.432975 -39.120385
32.713322 -28.065983 -38.851921
31.936695 -27.241317 -39.01099
33.429363 -29.009631 -38.670349
32.880246 -30.020011 -37.769623
32.713322 -28.065983 -38.851921
34.187409 -29.962571 -38.44117
33.429363 -29.009631 -38.670349
34.839262 -31.030251 -38.21645
34.24814 -32.031339 -37.363331
34.187409 -29.962571 -38.44117
35.514185 -32.100796 -37.943837
34.839262 -31.030251 -38.21645
36.055855 -33.275616 -37.699398
35.441664 -34.273838 -36.894172
35.514185 -32.100796 -37.943837
36.622916 -34.446928 -37.405251
36.055855 -33.275616 -37.699398
37.051338 -35.7063 -37.156734
36.411756 -36.70803 -36.401218
36.622916 -34.446928 -37.405251
37.734827 -34.693565 -37.861053
37.523668 -36.954668 -36.857021
37.051338 -35.7063 -37.156734
38.44927 -33.6903 -38.519207
37.734827 -34.693565 -37.861053
38.979311 -34.930689 -38.1651
38.44927 -33.6903 -38.519207
3 0 212 213
3 0 214 216
3 214 54 215
3 214 215 216
3 1 57 55
3 1 59 57
3 2 63 62
3 2 65 63
3 2 67 65
3 3 69 68
3 3 70 69
3 217 71 218
3 5 74 72
3 5 76 74
3 5 78 76
3 219 80 220
3 222 221 80
3 223 82 224
3 225 84 226
3 228 227 84
3 8 229 231
3 229 86 230
3 229 230 231
3 8 88 86
3 4 232 233
3 6 90 89
3 9 93 91
3 9 95 93
3 7 234 235
3 10 98 96
3 10 99 98
3 10 101 99
3 11 236 238
3 236 104 237
3 236 237 238
3 11 106 104
3 12 109 107
3 12 111 109
3 12 113 111
3 13 116 114
3 13 118 116
3 239 119 240
3 242 241 119
3 17 243 244
3 17 245 247
3 245 122 246
3 245 246 247
3 249 248 123
3 18 126 124
3 20 127 56
3 20 128 127
3 20 130 128
3 22 131 58
3 22 132 131
3 250 133 251
3 253 252 133
3 23 254 256
3 256 255 60
3 254 255 256
3 23 257 258
3 24 136 134
3 26 137 61
3 26 138 137
3 26 140 138
3 27 259 260
3 27 261 262
3 27 263 265
3 263 141 264
3 263 264 265
3 29 142 64
3 29 143 142
3 29 145 143
3 31 146 66
3 31 147 146
3 32 266 267
3 32 268 270
3 268 148 269
3 268 269 270
3 14 271 273
3 271 149 272
3 271 272 273
3 33 150 73
3 33 151 150
3 33 152 151
3 34 153 75
3 34 154 153
3 34 155 154
3 36 156 77
3 36 157 156
3 15 158 120
3 37 159 79
3 37 160 159
3 37 161 160
3 274 162 275
3 276 275 81
3 274 275 276
3 277 163 278
3 279 278 162
3 277 278 279
3 38 280 281
3 38 282 284
3 282 164 283
3 282 283 284
3 16 165 121
3 39 166 83
3 39 167 166
3 39 168 167
3 40 285 287
3 285 169 286
3 285 286 287
3 40 170 169
3 40 172 170
3 289 288 85
3 41 173 87
3 41 174 173
3 290 175 291
3 293 292 176
3 294 177 295
3 42 296 298
3 296 178 297
3 296 297 298
3 42 179 178
3 42 180 179
3 299 181 300
3 301 182 302
3 303 302 181
3 301 302 303
3 304 183 305
3 306 184 307
3 308 307 183
3 306 307 308
3 309 185 310
3 311 176 312
3 313 312 185
3 311 312 313
3 35 314 315
3 19 316 318
3 318 317 125
3 316 317 318
3 21 319 321
3 321 320 129
3 319 320 321
3 323 322 92
3 43 324 326
3 326 325 94
3 324 325 326
3 43 327 329
3 327 186 328
3 327 328 329
3 25 330 332
3 332 331 135
3 330 331 332
3 334 333 97
3 335 187 336
3 44 188 100
3 44 337 339
3 339 338 188
3 337 338 339
3 341 340 139
3 45 342 344
3 342 189 343
3 342 343 344
3 45 345 347
3 347 346 189
3 345 346 347
3 45 348 349
3 46 350 352
3 352 351 102
3 350 351 352
3 46 353 355
3 353 190 354
3 353 354 355
3 356 191 357
3 47 192 103
3 47 193 192
3 47 194 193
3 48 195 105
3 48 196 195
3 28 358 360
3 358 197 359
3 358 359 360
3 49 198 108
3 49 199 198
3 49 200 199
3 50 201 110
3 50 202 201
3 50 203 202
3 51 204 112
3 51 205 204
3 30 206 144
3 52 207 115
3 52 208 207
3 52 209 208
3 53 210 117
3 53 211 210
3 362 361 171
3 54 363 364
3 54 365 367
3 365 17 366
3 365 366 367
3 55 56 18
3 57 56 55
3 57 20 56
3 57 58 20
3 59 58 57
3 59 22 58
3 368 60 369
3 370 60 371
3 372 23 373
3 374 373 60
3 372 373 374
3 375 61 376
3 377 376 24
3 375 376 377
3 378 61 379
3 380 26 381
3 382 381 61
3 380 381 382
3 384 383 26
3 62 385 386
3 63 387 389
3 389 388 62
3 387 388 389
3 63 390 392
3 390 27 391
3 390 391 392
3 63 64 27
3 65 64 63
3 65 29 64
3 65 66 29
3 67 66 65
3 67 31 66
3 68 393 394
3 69 395 397
3 397 396 68
3 395 396 397
3 69 398 399
3 69 400 401
3 70 402 404
3 404 403 69
3 402 403 404
3 70 405 406
3 71 407 408
3 71 409 411
3 409 32 410
3 409 410 411
3 72 73 14
3 74 73 72
3 74 33 73
3 74 75 33
3 76 75 74
3 76 34 75
3 76 77 34
3 78 77 76
3 78 36 77
3 412 79 413
3 414 413 15
3 412 413 414
3 80 415 417
3 415 79 416
3 415 416 417
3 80 37 79
3 80 81 37
3 418 81 419
3 420 419 80
3 418 419 420
3 422 421 81
3 82 423 424
3 82 425 427
3 425 38 426
3 425 426 427
3 428 83 429
3 430 429 16
3 428 429 430
3 431 83 432
3 433 39 434
3 435 434 83
3 433 434 435
3 437 436 39
3 84 438 439
3 84 440 442
3 440 40 441
3 440 441 442
3 84 85 40
3 443 85 444
3 445 444 84
3 443 444 445
3 447 446 85
3 86 448 449
3 86 450 451
3 86 452 454
3 452 87 453
3 452 453 454
3 88 87 86
3 88 41 87
3 455 42 456
3 458 457 42
3 89 459 461
3 461 460 35
3 459 460 461
3 90 462 464
3 464 463 89
3 462 463 464
3 90 465 466
3 468 467 19
3 91 92 21
3 93 92 91
3 93 469 471
3 471 470 92
3 469 470 471
3 93 472 474
3 472 94 473
3 472 473 474
3 95 94 93
3 95 43 94
3 96 97 25
3 98 97 96
3 98 475 477
3 477 476 97
3 475 476 477
3 98 478 479
3 99 480 482
3 482 481 98
3 480 481 482
3 99 483 484
3 99 485 487
3 485 100 486
3 485 486 487
3 101 100 99
3 101 44 100
3 488 45 489
3 490 102 491
3 492 491 45
3 490 491 492
3 493 102 494
3 495 46 496
3 497 496 102
3 495 496 497
3 498 103 499
3 104 500 502
3 500 103 501
3 500 501 502
3 104 47 103
3 104 105 47
3 106 105 104
3 106 48 105
3 107 108 28
3 109 108 107
3 109 49 108
3 109 110 49
3 111 110 109
3 111 50 110
3 111 112 50
3 113 112 111
3 113 51 112
3 114 115 30
3 116 115 114
3 116 52 115
3 116 117 52
3 118 117 116
3 118 53 117
3 503 14 504
3 505 14 506
3 507 72 508
3 509 508 14
3 507 508 509
3 119 510 512
3 510 72 511
3 510 511 512
3 119 5 72
3 119 120 5
3 513 120 514
3 515 514 119
3 513 514 515
3 516 15 517
3 518 517 120
3 516 517 518
3 519 15 520
3 522 521 15
3 523 121 524
3 525 121 526
3 527 16 528
3 529 528 121
3 527 528 529
3 530 16 531
3 533 532 16
3 122 534 535
3 122 536 538
3 536 8 537
3 536 537 538
3 123 539 541
3 541 540 4
3 539 540 541
3 543 542 123
3 124 125 6
3 126 125 124
3 126 19 125
3 56 126 18
3 127 126 56
3 127 19 126
3 127 544 546
3 546 545 19
3 544 545 546
3 128 547 549
3 549 548 127
3 547 548 549
3 128 550 551
3 128 552 554
3 552 129 553
3 552 553 554
3 130 129 128
3 130 21 129
3 58 130 20
3 131 130 58
3 131 21 130
3 131 91 21
3 132 91 131
3 132 9 91
3 133 555 556
3 133 557 558
3 133 559 560
3 562 561 133
3 60 563 564
3 566 565 60
3 134 135 7
3 136 135 134
3 136 25 135
3 61 136 24
3 137 136 61
3 137 25 136
3 137 96 25
3 138 96 137
3 138 10 96
3 138 139 10
3 140 139 138
3 140 567 569
3 569 568 139
3 567 568 569
3 570 140 571
3 572 571 26
3 570 571 572
3 573 140 574
3 576 575 140
3 577 11 578
3 141 579 580
3 141 581 583
3 581 28 582
3 581 582 583
3 64 141 27
3 142 141 64
3 142 28 141
3 142 107 28
3 143 107 142
3 143 12 107
3 143 144 12
3 145 144 143
3 145 30 144
3 66 145 29
3 146 145 66
3 146 30 145
3 146 114 30
3 147 114 146
3 147 13 114
3 148 584 585
3 148 586 588
3 586 4 587
3 586 587 588
3 589 71 590
3 149 591 593
3 591 71 592
3 591 592 593
3 149 32 71
3 73 149 14
3 150 149 73
3 150 32 149
3 150 148 32
3 151 148 150
3 151 4 148
3 151 123 4
3 152 123 151
3 152 594 596
3 596 595 123
3 594 595 596
3 75 152 33
3 153 152 75
3 153 597 599
3 599 598 152
3 597 598 599
3 153 600 601
3 154 602 604
3 604 603 153
3 602 603 604
3 154 605 606
3 154 607 608
3 155 609 611
3 611 610 154
3 609 610 611
3 155 612 614
3 612 35 613
3 612 613 614
3 77 155 34
3 156 155 77
3 156 35 155
3 156 89 35
3 157 89 156
3 157 6 89
3 120 78 5
3 158 78 120
3 158 36 78
3 79 158 15
3 159 158 79
3 159 36 158
3 159 157 36
3 160 157 159
3 160 6 157
3 160 124 6
3 161 124 160
3 161 18 124
3 81 161 37
3 162 161 81
3 162 18 161
3 162 55 18
3 163 55 162
3 163 1 55
3 164 615 616
3 164 617 619
3 617 7 618
3 617 618 619
3 121 620 622
3 620 82 621
3 620 621 622
3 165 82 121
3 165 38 82
3 83 165 16
3 166 165 83
3 166 38 165
3 166 164 38
3 167 164 166
3 167 7 164
3 167 134 7
3 168 134 167
3 168 24 134
3 623 168 624
3 625 624 39
3 623 624 625
3 626 168 627
3 628 24 629
3 630 629 168
3 628 629 630
3 632 631 24
3 169 633 634
3 169 635 636
3 169 637 639
3 637 62 638
3 637 638 639
3 170 62 169
3 170 2 62
3 170 171 2
3 172 171 170
3 172 640 642
3 642 641 171
3 640 641 642
3 85 172 40
3 643 172 644
3 645 644 85
3 643 644 645
3 647 646 172
3 87 648 649
3 173 650 652
3 652 651 87
3 650 651 652
3 173 653 654
3 173 655 657
3 655 68 656
3 655 656 657
3 174 68 173
3 174 3 68
3 175 658 659
3 175 660 662
3 660 0 661
3 660 661 662
3 176 663 664
3 666 665 176
3 667 163 668
3 177 669 671
3 669 163 670
3 669 670 671
3 177 1 163
3 178 672 673
3 178 674 675
3 178 676 678
3 676 177 677
3 676 677 678
3 179 177 178
3 179 1 177
3 179 59 1
3 180 59 179
3 180 22 59
3 679 180 680
3 681 680 42
3 679 680 681
3 181 682 684
3 682 180 683
3 682 683 684
3 181 22 180
3 181 132 22
3 182 132 181
3 182 9 132
3 685 182 686
3 183 687 689
3 687 182 688
3 687 688 689
3 183 9 182
3 183 95 9
3 184 95 183
3 184 43 95
3 690 184 691
3 185 692 694
3 692 184 693
3 692 693 694
3 185 43 184
3 185 186 43
3 176 186 185
3 176 695 697
3 697 696 186
3 695 696 697
3 699 698 4
3 701 700 35
3 125 90 6
3 702 90 703
3 704 703 125
3 702 703 704
3 706 705 90
3 708 707 19
3 129 709 710
3 712 711 129
3 92 713 715
3 715 714 21
3 713 714 715
3 717 716 92
3 94 718 719
3 721 720 94
3 186 722 723
3 186 724 725
3 135 726 728
3 728 727 7
3 726 727 728
3 730 729 135
3 97 731 733
3 733 732 25
3 731 732 733
3 735 734 97
3 187 736 737
3 187 738 740
3 738 23 739
3 738 739 740
3 100 741 743
3 741 187 742
3 741 742 743
3 188 187 100
3 188 23 187
3 188 744 746
3 746 745 23
3 744 745 746
3 748 747 188
3 139 101 10
3 749 101 750
3 751 750 139
3 749 750 751
3 752 44 753
3 754 753 101
3 752 753 754
3 755 44 756
3 758 757 44
3 189 759 760
3 189 761 762
3 189 763 764
3 766 765 189
3 102 767 769
3 769 768 45
3 767 768 769
3 771 770 102
3 190 772 773
3 190 774 775
3 191 776 777
3 191 778 780
3 778 46 779
3 778 779 780
3 103 781 783
3 781 191 782
3 781 782 783
3 192 191 103
3 192 46 191
3 192 190 46
3 193 190 192
3 193 784 786
3 786 785 190
3 784 785 786
3 193 787 788
3 194 789 791
3 791 790 193
3 789 790 791
3 194 792 793
3 105 194 47
3 195 194 105
3 195 794 796
3 796 795 194
3 794 795 796
3 195 797 799
3 797 175 798
3 797 798 799
3 196 175 195
3 196 0 175
3 800 11 801
3 197 802 803
3 197 804 805
3 108 197 28
3 198 197 108
3 198 806 808
3 808 807 197
3 806 807 808
3 198 809 810
3 199 811 813
3 813 812 198
3 811 812 813
3 199 814 816
3 814 11 815
3 814 815 816
3 199 106 11
3 200 106 199
3 200 48 106
3 110 200 49
3 201 200 110
3 201 48 200
3 201 196 48
3 202 196 201
3 202 0 196
3 202 54 0
3 203 54 202
3 203 17 54
3 112 203 50
3 204 203 112
3 204 17 203
3 204 122 17
3 205 122 204
3 205 8 122
3 144 113 12
3 206 113 144
3 206 51 113
3 115 206 30
3 207 206 115
3 207 51 206
3 207 205 51
3 208 205 207
3 208 8 205
3 208 88 8
3 209 88 208
3 209 41 88
3 117 209 52
3 210 209 117
3 210 41 209
3 210 174 41
3 211 174 210
3 211 3 174
3 171 67 2
3 817 67 818
3 819 818 171
3 817 818 819
3 820 31 821
3 822 821 67
3 820 821 822
3 823 31 824
3 825 147 826
3 827 826 31
3 825 826 827
3 828 147 829
3 830 13 831
3 832 831 147
3 830 831 832
3 833 13 834
3 835 118 836
3 837 836 13
3 835 836 837
3 838 118 839
3 840 53 841
3 842 841 118
3 840 841 842
3 843 53 844
3 845 211 846
3 847 846 53
3 845 846 847
3 848 211 849
3 850 3 851
3 852 851 211
3 850 851 852
3 853 70 854
3 855 854 3
3 853 854 855
3 856 70 857
3 859 858 70
