ply
format ascii 1.0
element vertex 793
property float x
property float y
property float z
element face 992
property list uchar int vertex_index
end_header
50.343964 -24.053705 -44.472748
36.820679 15.66938 -54.796257
36.002796 -6.775681 -52.556732
53.287331 -1.474695 -54.474251
49.825195 18.684467 -40.687126
41.224079 19.465435 -46.529991
46.45512 18.670467 -51.198868
44.132927 9.824764 -57.295509
29.162489 -13.058142 -42.695946
30.246103 -15.23662 -45.833664
29.533188 -3.07889 -51.208328
37.130058 17.392445 -37.274467
33.927593 14.529316 -46.44162
30.715204 7.445829 -51.711998
35.176552 5.436583 -57.136673
44.215004 -1.799307 -56.575638
44.564934 -14.396937 -48.972588
52.845589 -13.260794 -51.396118
37.36837 -20.935324 -44.3283
43.312828 -29.997295 -40.771652
48.7052 -39.047516 -38.343628
56.71302 -28.525669 -43.966263
60.501053 -16.359247 -47.876183
51.278419 17.87149 -47.359055
28.642673 -8.074938 -47.171738
29.087294 -2.649885 -48.440498
53.37825 12.041252 -30.935751
40.530792 17.162525 -36.667702
38.864014 18.677063 -51.263313
37.155987 17.631283 -47.287941
34.889 15.691254 -51.302261
32.097145 11.566607 -49.715897
33.109623 12.046621 -54.015938
32.105373 7.158064 -55.175423
35.575718 10.999767 -56.834152
48.719765 4.675463 -56.479866
43.967274 4.0723 -57.937431
48.756363 -1.152611 -56.443459
48.859573 -7.0068 -54.407509
53.237244 -7.380136 -53.857033
32.694553 -10.782574 -49.414574
33.619537 -17.600502 -45.568596
36.755039 -13.520237 -48.5755
40.759132 -17.216223 -46.7789
40.42691 -10.098624 -51.203629
39.751465 -33.919445 -38.76886
59.161499 -22.590216 -46.558418
59.808037 -31.161064 -42.473549
46.948097 17.188286 -38.447586
43.125771 18.187656 -40.988029
45.607384 19.799591 -44.217384
43.51886 20.155529 -49.502945
41.450645 17.938164 -53.808388
39.998867 13.659359 -56.770905
44.968361 14.985832 -54.956711
49.103928 10.260916 -54.799454
53.444496 4.328398 -53.42495
28.935772 -19.791952 -41.822891
28.566042 -13.796758 -44.875725
29.647896 -8.987889 -48.964699
32.037003 -4.427565 -52.605583
50.417259 15.066658 -34.987717
39.259525 17.893063 -42.286888
35.78706 16.329273 -42.192223
33.085651 13.797276 -40.870483
31.86293 10.649324 -44.329636
30.705776 6.854094 -46.961418
29.780979 2.378773 -48.400047
29.883675 2.458302 -52.208878
31.803152 1.564995 -54.66008
35.402573 -0.51532 -55.617912
39.378979 8.224506 -58.116219
39.450535 2.369883 -57.568108
39.901051 -3.671761 -55.095421
44.509468 -7.845903 -53.321777
48.652172 -13.035687 -50.721069
48.019768 -19.424166 -46.47538
51.798691 -19.070889 -47.735252
31.200338 -21.889322 -42.102455
34.492344 -25.005413 -41.423019
37.482269 -29.093727 -40.182076
40.611763 -25.176603 -42.562027
44.215782 -21.740879 -44.59124
47.157059 -26.514105 -42.666977
45.897682 -34.784538 -39.347313
49.998222 -30.596691 -41.556778
59.020771 -39.997578 -38.480423
56.22023 -37.132942 -40.025948
53.116867 -34.006912 -40.940651
53.314064 -25.9643 -44.481537
57.38308 -8.521705 -51.504974
56.881767 -14.576948 -50.458977
55.603432 -20.479523 -47.84008
29.217052 -5.217478 -46.356506
42.245567 16.617836 -35.981476
37.76226 17.427631 -53.200745
36.755638 17.355274 -51.501892
35.699547 15.905251 -53.239128
33.90963 14.06031 -52.839272
34.820721 14.008247 -54.621407
34.152336 11.747091 -55.618629
36.08614 13.492607 -56.018044
51.03336 1.716736 -55.61364
48.703045 1.766628 -56.701637
51.037399 -1.211519 -55.680054
51.066803 -4.141141 -55.270172
53.274544 -4.429379 -54.398491
34.260761 -8.695303 -51.044472
34.674992 -12.032234 -49.142342
36.375446 -10.073765 -50.636436
38.532909 -11.693174 -49.936104
38.214085 -8.314295 -52.022812
61.154518 -28.02302 -43.366333
61.177349 -32.419445 -41.354324
48.400551 18.060093 -39.701019
46.416218 18.720837 -41.36248
47.760895 19.411366 -42.578003
47.352707 19.676262 -48.861534
45.916142 20.286137 -48.04969
44.901314 19.714935 -50.503265
42.437408 19.352623 -51.805496
43.942211 18.500267 -52.685204
43.107433 16.722572 -54.550728
45.643669 17.073074 -53.242126
49.493576 12.766054 -53.422287
51.551708 10.052286 -53.057121
51.273399 7.419935 -54.256798
28.604658 -13.365813 -43.930229
28.903116 -5.558352 -49.249672
28.856693 -8.431789 -48.231255
29.53001 -5.991718 -50.219574
30.697948 -6.653664 -50.84668
30.544939 -3.626755 -52.086357
48.725395 14.162834 -33.943161
50.188568 12.747189 -32.211601
35.535969 17.091476 -37.1996
42.281376 19.041496 -43.832535
41.172344 18.206776 -41.80835
40.231503 18.668766 -44.552048
35.40881 16.212788 -47.052704
36.475689 16.891994 -44.837578
34.889233 15.558075 -44.419525
34.326057 15.155827 -41.661079
33.554138 14.001953 -43.679497
32.484642 12.293352 -42.680779
32.74398 12.649817 -45.51046
31.336624 9.636438 -50.89109
31.228008 9.24662 -48.44899
30.596498 7.195215 -49.472313
30.212337 4.695786 -47.849068
30.068111 4.937284 -50.149704
29.639385 2.503681 -50.459969
30.234407 5.038361 -52.154312
33.448647 6.481318 -56.348587
31.87779 4.423368 -55.125885
33.370121 3.621405 -56.053444
33.435242 0.66847 -55.329048
35.228409 2.495169 -56.597542
41.977047 11.937529 -57.207985
39.587009 11.030558 -57.663841
41.706451 9.172689 -57.932991
44.062439 1.143999 -57.515999
41.663635 3.367552 -57.976387
41.812977 0.414455 -57.23748
39.648804 -0.621851 -56.554192
42.01619 -2.573503 -56.004959
42.231697 -5.630115 -54.341637
44.377579 -4.782035 -55.150009
50.96991 -10.005982 -52.986427
48.810394 -9.985215 -52.714859
50.749607 -12.970045 -51.235298
50.38868 -15.963767 -49.255768
52.407299 -16.188616 -49.638115
29.438669 -17.51667 -43.881432
29.84528 -20.716478 -42.101913
30.695805 -18.505573 -44.0298
35.522133 -19.146769 -45.045441
34.088234 -21.222385 -43.518967
35.861507 -22.953178 -42.946289
36.077858 -26.937275 -40.84613
37.508732 -24.921711 -42.234833
38.977421 -27.104599 -41.441559
39.07328 -22.954849 -43.478905
42.617706 -15.655169 -47.906044
42.562679 -19.397587 -45.693481
44.449196 -17.957239 -46.731239
46.114655 -20.39168 -45.563759
46.39666 -16.856518 -47.716003
42.610931 -34.42963 -39.067772
43.783775 -36.892036 -38.397232
44.591019 -32.435593 -39.99942
46.605057 -30.512575 -40.959686
45.237663 -28.174717 -41.706978
58.250862 -44.435394 -36.576233
56.909691 -43.028267 -37.39917
57.663635 -38.600342 -39.334312
55.50811 -41.540237 -38.106697
50.188629 -40.955147 -37.89949
52.52169 -38.320175 -39.163589
50.981987 -36.570805 -39.559097
51.532455 -32.34676 -41.245041
49.463837 -34.70573 -39.938622
59.318062 -9.257927 -49.77095
59.096252 -12.351741 -49.751534
57.200367 -11.559086 -51.195312
58.752846 -15.440285 -49.352097
58.088875 -25.606464 -45.380928
57.436913 -21.495089 -47.380577
56.373795 -24.411522 -45.928352
54.585461 -23.303127 -46.173187
55.024029 -27.211449 -44.328362
48.920998 18.455372 -49.404633
48.165421 17.053505 -51.601128
28.743889 -10.586357 -44.985062
28.95521 -7.86758 -45.806519
28.827915 -5.320884 -47.95414
29.055792 -2.768017 -49.986122
40.050331 19.35915 -49.024551
39.116322 18.728493 -47.115387
37.924171 18.301743 -49.447372
35.996506 16.888046 -49.439491
34.331261 15.167034 -49.016258
32.975582 13.202538 -48.220047
33.32288 13.739437 -50.689835
32.444725 11.948536 -52.036926
31.732359 9.837938 -53.024147
31.195417 7.465124 -53.624138
32.509518 9.720861 -54.802071
33.699974 9.210577 -56.201553
35.280746 8.288214 -57.214577
46.400887 7.387678 -57.047318
43.9771 6.979649 -57.850739
46.330154 4.501127 -57.433525
46.369446 1.585596 -57.342674
46.47176 -1.335859 -56.737556
46.58577 -4.271431 -55.618416
48.826557 -4.072154 -55.673943
51.062595 -7.068329 -54.361969
53.11198 -10.322845 -52.83992
31.342646 -12.979372 -47.677467
31.802067 -16.298082 -45.844551
33.13953 -14.125712 -47.546677
35.109928 -15.510485 -47.123711
37.101448 -17.136417 -46.453133
39.004814 -19.001532 -45.594521
38.810307 -15.249569 -47.765343
40.634586 -13.556295 -49.001656
42.561958 -12.130429 -50.161995
41.46492 -31.926727 -39.816208
59.949913 -19.499342 -47.404259
60.753288 -23.704865 -45.395164
59.687584 -26.824451 -44.519836
58.318596 -29.854477 -43.351219
45.454914 16.341133 -36.897537
43.682922 17.049793 -38.048706
45.065815 17.841827 -39.854645
44.36153 19.055447 -42.755814
43.409637 19.82267 -45.551254
46.90115 20.179138 -45.3843
44.60825 20.300816 -46.952721
42.302612 20.029385 -48.182076
41.143486 19.617832 -50.588539
40.032501 18.586018 -52.717079
39.052853 16.988991 -54.522369
38.262646 14.919903 -55.971001
40.624493 16.00214 -55.474243
42.444351 14.493557 -56.068504
44.46072 12.529043 -56.317711
47.508652 15.133537 -53.485855
46.984932 12.805048 -55.03653
46.614357 10.185898 -56.233788
48.846535 7.531567 -55.829567
51.10276 4.613655 -55.121399
53.331856 1.460661 -54.130806
28.697292 -16.75849 -43.431091
29.125443 -14.408703 -45.512924
28.549948 -10.901971 -46.133018
28.928963 -11.382061 -46.973045
29.889242 -12.067581 -47.489372
30.967186 -9.768545 -49.35981
32.319477 -7.554974 -51.121017
33.90065 -5.479382 -52.759697
47.14307 15.369572 -35.51683
48.739494 16.253601 -36.810799
50.281044 17.102516 -37.821541
51.966629 13.65469 -33.01799
52.034348 15.879322 -35.771156
51.766827 17.651501 -38.597511
41.859871 17.470715 -38.935745
40.029312 17.587273 -39.530807
38.242397 17.396187 -39.817924
38.275017 17.943718 -44.888588
37.445938 17.257366 -42.411667
36.551556 16.911022 -39.797813
35.001987 16.163242 -39.490479
33.623028 15.200073 -38.934555
31.953182 11.067976 -47.114471
31.260468 8.839733 -45.772797
29.406799 -0.076929 -48.596313
29.302952 -0.073893 -50.400085
29.651745 -0.256641 -51.884697
30.824211 4.888834 -53.821281
30.601486 2.159451 -53.615616
30.511532 -0.686279 -53.025406
31.861084 -1.388708 -53.804794
33.618916 -2.363556 -54.211876
35.669483 -3.598784 -54.246536
37.691147 12.490171 -57.029457
37.340282 9.811249 -57.664169
37.19017 6.977215 -57.842255
41.613667 6.295397 -58.202072
39.346375 5.32214 -58.091774
37.208252 4.053587 -57.540367
37.355225 1.072222 -56.760178
37.593719 -1.96629 -55.533012
37.890327 -5.083832 -53.923431
40.171398 -6.81649 -53.275002
42.423847 -8.800755 -52.351021
44.579414 -11.037175 -51.214668
46.663895 -7.252413 -54.03624
46.669998 -10.319242 -52.094658
46.582993 -13.510052 -49.936409
48.381298 -16.176893 -48.58709
49.908539 -18.966032 -47.230629
49.37973 -21.944212 -45.342743
51.064526 -21.803055 -45.905525
29.257927 -22.908051 -40.069084
30.306589 -24.024065 -40.192635
31.709187 -25.406271 -40.070786
32.308907 -19.739271 -43.89666
32.814358 -23.319397 -41.859932
33.26244 -27.055603 -39.752647
34.77853 -28.961483 -39.294289
36.128376 -31.102573 -38.749062
37.262497 -33.445198 -38.160767
38.691383 -31.438667 -39.477074
40.278042 -29.460024 -40.619797
42.007309 -27.548801 -41.640709
40.76329 -21.090508 -44.617455
42.36792 -23.364998 -43.595993
43.844166 -25.757675 -42.603394
45.735489 -24.155594 -43.555168
47.609161 -22.835096 -44.495384
48.946014 -25.089565 -43.635941
45.028755 -39.250694 -37.808044
47.267494 -36.993561 -38.808044
48.002747 -32.695152 -40.381096
48.549812 -28.677727 -41.998917
50.286743 -26.899292 -43.138069
59.56448 -35.563221 -40.452057
58.157646 -34.198524 -41.325928
56.644859 -32.781387 -41.987961
54.040962 -39.972778 -38.691277
54.695354 -35.601044 -40.553177
55.044384 -31.328682 -42.442665
53.401413 -29.860064 -42.727844
51.785751 -28.391851 -42.918594
51.682976 -24.862015 -44.499268
55.569656 1.015619 -52.327225
55.482262 -1.91095 -52.885445
57.49807 -5.488594 -51.419075
55.424698 -4.890806 -53.092682
55.351513 -7.882296 -52.891022
55.199265 -10.863755 -52.240616
54.902603 -13.825422 -51.145271
58.218925 -18.495949 -48.551498
56.363674 -17.55773 -49.313881
54.412491 -16.756962 -49.671333
53.706318 -19.630442 -47.947517
52.790474 -22.378202 -46.153778
43.078659 16.210013 -35.51957
42.28149 16.215908 -34.483395
61.811856 -33.015339 -40.695221
61.838732 -30.797139 -41.661141
52.72757 9.806859 -52.065483
51.740028 11.23301 -52.297379
52.594488 8.554759 -52.728531
52.72757 9.806859 -52.065483
29.48847 -14.260092 -41.506138
29.606447 -12.925931 -41.948753
29.069793 -14.42585 -42.162365
29.48847 -14.260092 -41.506138
28.883574 -13.211977 -43.313087
28.790878 -14.579686 -42.779506
29.069793 -14.42585 -42.162365
49.889204 11.54371 -30.852288
49.266419 12.36545 -31.661044
36.516474 17.703919 -36.046669
37.312885 17.632645 -35.967517
36.333013 17.24196 -37.237033
35.719429 17.553434 -36.009236
36.516474 17.703919 -36.046669
55.747589 -44.501175 -36.824898
56.441214 -45.243198 -36.468586
55.046799 -43.75716 -37.178661
56.2089 -42.284252 -37.752933
55.747589 -44.501175 -36.824898
60.690331 -14.780104 -47.930542
61.314201 -16.827982 -46.991959
59.798653 -14.355494 -48.813858
59.98793 -12.776351 -48.868218
60.690331 -14.780104 -47.930542
50.503498 18.561909 -47.147736
51.626648 18.169935 -46.0714
50.099708 18.163431 -48.381844
49.324787 18.85385 -48.170525
50.503498 18.561909 -47.147736
50.942871 17.271299 -48.522037
49.764161 17.56324 -49.544826
50.099708 18.163431 -48.381844
29.298407 -7.80037 -44.983788
29.173126 -9.11829 -44.679276
39.827129 17.309442 -35.484905
40.637542 16.964035 -35.204605
39.67033 17.29186 -36.884003
39.827129 17.309442 -35.484905
40.246949 -35.194535 -38.427494
39.39612 -36.226118 -37.870407
40.608193 -32.923086 -39.292534
41.103676 -34.198176 -38.951168
40.246949 -35.194535 -38.427494
61.482891 -24.252464 -44.668399
61.15069 -22.111531 -45.659881
47.585585 20.100845 -45.833439
48.013068 19.931711 -44.458011
48.755482 15.035892 -52.599919
47.837036 16.093521 -52.543492
49.083866 15.995877 -51.657555
28.631667 -15.277624 -44.153408
28.625601 -16.479802 -43.053421
28.559976 -14.998935 -43.775738
47.060545 14.413706 -34.055782
46.319786 15.054594 -34.718266
52.672439 12.847971 -31.97687
51.745733 12.39983 -31.685708
52.451543 11.593111 -30.644588
52.798501 16.11294 -36.064014
52.839756 15.149677 -34.681221
52.66474 16.999029 -37.477192
51.900588 16.765411 -37.184333
52.798501 16.11294 -36.064014
53.380749 17.024113 -37.775467
52.482836 17.676585 -38.895786
52.66474 16.999029 -37.477192
32.753818 13.938494 -39.526329
33.022507 14.639893 -38.558365
33.354339 14.498674 -39.902519
32.574424 13.059014 -40.377277
32.753818 13.938494 -39.526329
31.765105 10.576966 -42.911716
32.075961 11.39898 -42.087288
32.173786 11.471338 -43.505207
31.56184 9.625551 -43.650341
31.765105 10.576966 -42.911716
30.785715 6.722265 -45.61259
31.063061 7.715085 -45.01828
30.983122 7.846914 -46.367108
30.599915 5.656254 -46.138451
30.785715 6.722265 -45.61259
29.964171 2.291074 -47.237721
30.179851 3.44958 -46.962231
29.996658 3.537279 -48.124558
29.800813 1.10498 -47.453991
29.964171 2.291074 -47.237721
29.593889 1.150922 -48.49818
29.613723 -0.12287 -47.552124
29.800813 1.10498 -47.453991
29.096849 -21.350001 -40.945988
28.9922 -22.474857 -39.868103
28.831122 -20.916807 -40.745007
59.663725 -40.656168 -37.982216
59.278771 -42.875076 -37.030121
58.635817 -42.216486 -37.528328
59.946653 -38.429125 -38.933907
59.663725 -40.656168 -37.982216
59.292625 -37.7804 -39.46624
60.218508 -36.211946 -39.919724
59.946653 -38.429125 -38.933907
52.861765 -41.353361 -38.057426
53.597767 -42.187385 -37.785347
56.584333 -0.741567 -51.660728
56.641277 0.703323 -51.306302
56.540636 -2.204851 -51.939838
55.525959 -0.447665 -52.606335
56.584333 -0.741567 -51.660728
52.376008 17.407452 -46.237305
51.626648 18.169935 -46.0714
52.093627 16.906136 -47.454407
52.376008 17.407452 -46.237305
29.554709 -5.188107 -45.421486
29.429328 -6.475319 -45.258781
29.363345 -3.932192 -46.477726
29.554709 -5.188107 -45.421486
29.298466 -2.648395 -47.519722
29.152173 -3.933681 -47.398502
29.363345 -3.932192 -46.477726
41.49493 16.69169 -34.861492
42.28149 16.215908 -34.483395
41.388179 16.89018 -36.324589
40.637542 16.964035 -35.204605
41.49493 16.69169 -34.861492
38.979311 -34.930689 -38.1651
39.39612 -36.226118 -37.870407
61.827316 -28.598926 -42.667145
61.683506 -26.411541 -43.653984
62.356304 -26.987448 -42.954796
61.165934 -30.221232 -42.360328
61.827316 -28.598926 -42.667145
61.838732 -30.797139 -41.661141
46.634425 19.9812 -48.455612
47.093081 20.154345 -47.166134
47.811363 19.849407 -47.572056
50.710962 12.589894 -52.479962
49.747944 13.852151 -52.568134
50.522642 11.40917 -53.239704
50.710962 12.589894 -52.479962
51.740028 11.23301 -52.297379
52.455333 7.238583 -53.328369
51.412554 8.736111 -53.656959
52.594488 8.554759 -52.728531
53.540882 5.692815 -52.912445
52.358947 5.874166 -53.840874
52.455333 7.238583 -53.328369
28.579284 -14.783463 -43.30299
28.790878 -14.579686 -42.779506
28.58535 -13.581285 -44.402977
28.559976 -14.998935 -43.775738
28.579284 -14.783463 -43.30299
48.534832 13.073272 -32.526824
47.851708 13.810337 -33.268948
49.456981 13.455012 -33.077381
48.534832 13.073272 -32.526824
49.266419 12.36545 -31.661044
53.511707 13.230643 -32.263518
54.241259 12.396101 -31.126227
34.957991 17.496057 -35.99435
35.719429 17.553434 -36.009236
34.79853 16.820909 -37.049938
34.957991 17.496057 -35.99435
43.197353 -35.660833 -38.732502
42.765923 -37.954433 -37.92239
42.179501 -36.72323 -38.25766
57.111799 -45.946762 -36.057118
57.788906 -46.643826 -35.663739
57.580276 -43.731831 -36.987702
57.111799 -45.946762 -36.057118
56.441214 -45.243198 -36.468586
51.355159 -39.637661 -38.53154
52.102129 -40.52706 -38.293582
50.935598 -41.844545 -37.661533
60.098835 -11.229444 -48.877926
60.232406 -9.661856 -48.774334
59.207157 -10.804834 -49.761242
60.098835 -11.229444 -48.877926
59.98793 -12.776351 -48.868218
49.47509 19.184376 -42.109425
50.530189 18.76556 -41.069
48.540642 19.464295 -47.898975
47.811363 19.849407 -47.572056
48.136853 19.065817 -49.133083
48.540642 19.464295 -47.898975
49.324787 18.85385 -48.170525
49.386372 16.862307 -50.643074
48.54321 17.754438 -50.502881
49.764161 17.56324 -49.544826
49.083866 15.995877 -51.657555
49.386372 16.862307 -50.643074
50.942871 17.271299 -48.522037
52.093627 16.906136 -47.454407
29.276765 -11.713571 -43.123989
29.606447 -12.925931 -41.948753
29.067465 -10.477678 -44.268547
28.953189 -11.822249 -43.840504
29.276765 -11.713571 -43.123989
28.84955 -9.226968 -45.395791
29.067465 -10.477678 -44.268547
29.173126 -9.11829 -44.679276
29.086131 -6.542529 -46.081513
29.298407 -7.80037 -44.983788
29.429328 -6.475319 -45.258781
53.053657 10.707738 -29.665442
52.451543 11.593111 -30.644588
54.012093 11.143772 -29.852567
53.053657 10.707738 -29.665442
54.241259 12.396101 -31.126227
54.012093 11.143772 -29.852567
37.969963 17.40682 -37.187386
37.312885 17.632645 -35.967517
41.676682 -35.449627 -38.57695
42.179501 -36.72323 -38.25766
42.037926 -33.178179 -39.44199
41.676682 -35.449627 -38.57695
41.103676 -34.198176 -38.951168
49.701049 -43.195015 -37.090389
50.935598 -41.844545 -37.661533
48.977239 -42.24073 -37.342888
49.701049 -43.195015 -37.090389
48.235525 -41.286915 -37.564957
49.446914 -40.001331 -38.121559
48.977239 -42.24073 -37.342888
61.024572 -18.438721 -46.900391
61.314201 -16.827982 -46.991959
60.749003 -20.008769 -46.664429
60.225483 -17.929294 -47.640221
61.024572 -18.438721 -46.900391
60.351601 -21.602103 -46.399712
60.749003 -20.008769 -46.664429
61.15069 -22.111531 -45.659881
60.953903 -25.863943 -44.380748
61.482891 -24.252464 -44.668399
61.683506 -26.411541 -43.653984
44.568918 16.695463 -37.473122
43.797337 16.425991 -36.553185
44.683333 16.071661 -35.9776
48.44294 19.547825 -43.054863
48.793045 19.047916 -41.632565
49.47509 19.184376 -42.109425
47.331023 19.795252 -43.981152
48.44294 19.547825 -43.054863
48.013068 19.931711 -44.458011
46.408646 20.232637 -46.716995
47.585585 20.100845 -45.833439
47.093081 20.154345 -47.166134
48.501114 13.949796 -53.454071
48.755482 15.035892 -52.599919
49.747944 13.852151 -52.568134
28.766494 -19.441735 -41.535545
28.831122 -20.916807 -40.745007
28.647254 -17.925004 -42.339645
28.625601 -16.479802 -43.053421
28.816532 -18.275221 -42.626991
28.766494 -19.441735 -41.535545
28.647254 -17.925004 -42.339645
45.475708 15.540374 -35.408619
44.683333 16.071661 -35.9776
46.298992 15.855352 -36.207183
45.475708 15.540374 -35.408619
46.319786 15.054594 -34.718266
47.934233 14.766203 -34.729996
47.060545 14.413706 -34.055782
47.851708 13.810337 -33.268948
50.856702 11.946079 -31.282514
49.889204 11.54371 -30.852288
51.077598 13.20094 -32.614795
50.856702 11.946079 -31.282514
51.745733 12.39983 -31.685708
52.805897 14.037361 -33.304638
52.672439 12.847971 -31.97687
53.511707 13.230643 -32.263518
52.000489 14.767006 -34.394573
52.805897 14.037361 -33.304638
52.839756 15.149677 -34.681221
51.501005 18.249077 -40.024192
50.530189 18.76556 -41.069
50.796011 18.167984 -39.642319
51.501005 18.249077 -40.024192
52.482836 17.676585 -38.895786
42.964244 16.833815 -37.015091
43.078659 16.210013 -35.51957
43.797337 16.425991 -36.553185
39.41959 17.504234 -38.315556
39.67033 17.29186 -36.884003
40.280052 17.374899 -38.099255
38.526133 17.408691 -38.459114
39.41959 17.504234 -38.315556
39.135854 17.49173 -39.674366
37.686228 17.394316 -38.546195
37.969963 17.40682 -37.187386
38.526133 17.408691 -38.459114
34.53154 16.356793 -38.195377
34.79853 16.820909 -37.049938
35.268978 16.627359 -38.345039
33.84206 15.875208 -37.917416
34.53154 16.356793 -38.195377
34.312507 15.681658 -39.212517
33.171902 15.507641 -37.674294
33.84206 15.875208 -37.917416
33.171902 15.507641 -37.674294
33.022507 14.639893 -38.558365
32.27392 12.307053 -41.282425
32.574424 13.059014 -40.377277
32.785146 13.045314 -41.775631
32.27392 12.307053 -41.282425
32.075961 11.39898 -42.087288
31.260609 8.720755 -44.371921
31.56184 9.625551 -43.650341
31.561699 9.744529 -45.051216
31.260609 8.720755 -44.371921
31.063061 7.715085 -45.01828
30.353195 4.5771 -46.582276
30.599915 5.656254 -46.138451
30.459057 5.77494 -47.405243
30.353195 4.5771 -46.582276
30.179851 3.44958 -46.962231
29.458219 -1.361917 -47.597629
29.613723 -0.12287 -47.552124
29.247046 -1.363407 -48.518406
29.298466 -2.648395 -47.519722
29.458219 -1.361917 -47.597629
29.088532 -23.985356 -39.008373
28.9922 -22.474857 -39.868103
29.441819 -24.515921 -39.127041
29.088532 -23.985356 -39.008373
29.96615 -25.073928 -39.188817
29.441819 -24.515921 -39.127041
29.782258 -23.466058 -40.130859
30.539062 -25.741872 -39.181309
29.96615 -25.073928 -39.188817
31.240361 -26.432975 -39.120385
30.539062 -25.741872 -39.181309
31.007888 -24.715168 -40.13171
31.936695 -27.241317 -39.01099
31.240361 -26.432975 -39.120385
32.713322 -28.065983 -38.851921
31.936695 -27.241317 -39.01099
32.485813 -26.230937 -39.911716
33.429363 -29.009631 -38.670349
32.713322 -28.065983 -38.851921
34.187409 -29.962571 -38.44117
33.429363 -29.009631 -38.670349
34.020485 -28.008543 -39.523468
34.839262 -31.030251 -38.21645
34.187409 -29.962571 -38.44117
35.514185 -32.100796 -37.943837
34.839262 -31.030251 -38.21645
35.453453 -30.032028 -39.021676
36.055855 -33.275616 -37.699398
35.514185 -32.100796 -37.943837
36.622916 -34.446928 -37.405251
36.055855 -33.275616 -37.699398
36.695436 -32.273885 -38.454915
37.051338 -35.7063 -37.156734
36.622916 -34.446928 -37.405251
37.734827 -34.693565 -37.861053
37.051338 -35.7063 -37.156734
38.44927 -33.6903 -38.519207
37.734827 -34.693565 -37.861053
37.97694 -32.441933 -38.818921
39.221424 -32.679056 -39.122967
38.979311 -34.930689 -38.1651
38.44927 -33.6903 -38.519207
47.532921 -40.25708 -37.812996
48.235525 -41.286915 -37.564957
43.307876 -39.192916 -37.628391
42.765923 -37.954433 -37.92239
43.930366 -40.372246 -37.333797
43.307876 -39.192916 -37.628391
44.406265 -38.071365 -38.102638
44.526682 -41.54974 -37.061267
43.930366 -40.372246 -37.333797
45.694698 -40.358669 -37.545204
44.526682 -41.54974 -37.061267
46.814068 -39.230103 -38.045204
45.694698 -40.358669 -37.545204
46.148124 -38.122128 -38.308044
47.986347 -38.020539 -38.575836
47.532921 -40.25708 -37.812996
46.814068 -39.230103 -38.045204
58.900274 -45.093517 -36.114864
57.788906 -46.643826 -35.663739
59.928183 -43.533199 -36.568753
58.900274 -45.093517 -36.114864
59.278771 -42.875076 -37.030121
61.024942 -34.640059 -40.370857
61.811856 -33.015339 -40.695221
60.370914 -33.991333 -40.903191
61.024942 -34.640059 -40.370857
60.218508 -36.211946 -39.919724
54.331341 -42.971115 -37.493057
55.046799 -43.75716 -37.178661
54.774536 -40.756507 -38.398987
54.331341 -42.971115 -37.493057
53.597767 -42.187385 -37.785347
53.281326 -39.146476 -38.927433
52.861765 -41.353361 -38.057426
52.102129 -40.52706 -38.293582
54.575243 4.077466 -52.446247
53.540882 5.692815 -52.912445
55.637823 2.421076 -51.897385
56.641277 0.703323 -51.306302
54.507076 2.672009 -52.876087
54.575243 4.077466 -52.446247
55.637823 2.421076 -51.897385
59.397856 -7.728048 -49.617157
60.232406 -9.661856 -48.774334
58.48786 -5.843381 -50.44122
59.397856 -7.728048 -49.617157
58.408066 -7.373261 -50.595012
57.54854 -3.993673 -51.206654
58.48786 -5.843381 -50.44122
56.490166 -3.699772 -52.15226
56.540636 -2.204851 -51.939838
57.54854 -3.993673 -51.206654
3 370 94 371
3 1 97 95
3 1 99 97
3 1 101 99
3 3 104 102
3 3 106 104
3 2 109 107
3 2 111 109
3 372 113 373
3 4 116 114
3 6 119 117
3 6 121 119
3 6 123 121
3 374 125 375
3 377 376 125
3 8 378 379
3 8 380 381
3 8 382 384
3 382 127 383
3 382 383 384
3 10 130 128
3 10 132 130
3 385 134 386
3 11 387 388
3 11 389 391
3 389 135 390
3 389 390 391
3 5 138 136
3 12 141 139
3 12 143 141
3 12 145 143
3 13 148 146
3 13 150 148
3 13 152 150
3 14 155 153
3 14 157 155
3 7 160 158
3 15 163 161
3 15 165 163
3 15 167 165
3 17 170 168
3 17 172 170
3 9 175 173
3 18 178 176
3 18 180 178
3 18 182 180
3 16 185 183
3 16 187 185
3 19 190 188
3 19 192 190
3 392 194 393
3 394 196 395
3 396 395 194
3 394 395 396
3 20 199 197
3 20 201 199
3 22 397 398
3 22 399 401
3 399 203 400
3 399 400 401
3 22 205 203
3 21 208 206
3 21 210 208
3 23 402 403
3 23 404 406
3 404 211 405
3 404 405 406
3 23 407 409
3 409 408 211
3 407 408 409
3 410 214 411
3 25 215 93
3 25 216 215
3 27 412 413
3 27 414 415
3 28 219 217
3 30 220 96
3 30 221 220
3 30 223 221
3 32 224 98
3 32 225 224
3 32 227 225
3 34 228 100
3 34 229 228
3 35 232 230
3 37 233 103
3 37 234 233
3 37 236 234
3 39 237 105
3 39 238 237
3 40 241 239
3 42 242 108
3 42 243 242
3 42 245 243
3 44 246 110
3 44 247 246
3 45 416 417
3 45 418 420
3 418 248 419
3 418 419 420
3 421 250 422
3 47 251 112
3 47 252 251
3 48 255 253
3 50 256 115
3 50 257 256
3 423 258 424
3 51 259 118
3 51 260 259
3 51 261 260
3 52 262 120
3 52 263 262
3 52 265 263
3 54 266 122
3 54 267 266
3 425 268 426
3 427 426 212
3 425 426 427
3 55 269 124
3 55 270 269
3 55 271 270
3 56 272 126
3 56 273 272
3 58 428 430
3 428 274 429
3 428 429 430
3 58 275 274
3 24 276 213
3 59 277 129
3 59 278 277
3 59 279 278
3 60 280 131
3 60 281 280
3 431 282 432
3 61 283 133
3 61 284 283
3 26 433 435
3 433 285 434
3 433 434 435
3 436 286 437
3 438 287 439
3 440 439 286
3 438 439 440
3 443 442 287
3 441 442 443
3 49 288 254
3 62 289 137
3 62 290 289
3 29 291 218
3 63 292 140
3 63 293 292
3 63 294 293
3 64 295 142
3 64 444 446
3 446 445 295
3 444 445 446
3 64 447 448
3 65 449 451
3 451 450 144
3 449 450 451
3 65 452 453
3 31 296 222
3 66 297 147
3 66 454 456
3 456 455 297
3 454 455 456
3 66 457 458
3 67 459 461
3 461 460 149
3 459 460 461
3 67 462 463
3 67 464 466
3 464 298 465
3 464 465 466
3 68 299 151
3 68 300 299
3 33 301 226
3 69 302 154
3 69 303 302
3 69 304 303
3 70 305 156
3 70 306 305
3 53 307 264
3 71 308 159
3 71 309 308
3 36 310 231
3 72 311 162
3 72 312 311
3 72 313 312
3 73 314 164
3 73 315 314
3 73 316 315
3 74 317 166
3 74 318 317
3 38 319 235
3 75 320 169
3 75 321 320
3 75 322 321
3 77 323 171
3 77 325 323
3 57 467 469
3 467 326 468
3 467 468 469
3 78 327 174
3 78 328 327
3 41 329 240
3 79 330 177
3 79 331 330
3 79 332 331
3 80 333 179
3 80 334 333
3 80 335 334
3 81 336 181
3 81 337 336
3 43 338 244
3 82 339 184
3 82 340 339
3 82 341 340
3 76 342 186
3 76 324 342
3 84 344 189
3 84 345 344
3 84 346 345
3 83 347 191
3 83 343 347
3 86 470 472
3 472 471 193
3 470 471 472
3 86 473 474
3 86 475 477
3 475 349 476
3 475 476 477
3 87 350 195
3 87 351 350
3 478 352 479
3 88 353 198
3 88 354 353
3 88 355 354
3 85 356 200
3 85 348 356
3 480 358 481
3 482 359 483
3 484 483 358
3 482 483 484
3 90 360 202
3 90 361 360
3 90 362 361
3 91 363 204
3 91 364 363
3 46 365 249
3 92 366 207
3 92 367 366
3 92 368 367
3 89 369 209
3 89 357 369
3 485 23 486
3 488 487 23
3 489 93 490
3 491 93 492
3 493 25 494
3 495 494 93
3 493 494 495
3 94 496 497
3 94 498 500
3 498 27 499
3 498 499 500
3 95 96 28
3 97 96 95
3 97 30 96
3 97 98 30
3 99 98 97
3 99 32 98
3 99 100 32
3 101 100 99
3 101 34 100
3 102 103 35
3 104 103 102
3 104 37 103
3 104 105 37
3 106 105 104
3 106 39 105
3 107 108 40
3 109 108 107
3 109 42 108
3 109 110 42
3 111 110 109
3 111 44 110
3 501 45 502
3 503 112 504
3 503 504 505
3 113 506 508
3 506 112 507
3 506 507 508
3 113 47 112
3 114 115 48
3 116 115 114
3 116 50 115
3 117 509 511
3 509 118 510
3 509 510 511
3 119 118 117
3 119 51 118
3 119 120 51
3 121 120 119
3 121 52 120
3 121 122 52
3 123 122 121
3 123 54 122
3 512 124 513
3 125 514 516
3 514 124 515
3 514 515 516
3 125 55 124
3 125 126 55
3 517 126 518
3 519 518 125
3 517 518 519
3 520 56 521
3 522 521 126
3 520 521 522
3 127 523 524
3 127 525 527
3 525 58 526
3 525 526 527
3 128 129 24
3 130 129 128
3 130 59 129
3 130 131 59
3 132 131 130
3 132 60 131
3 528 133 529
3 134 530 532
3 530 133 531
3 530 531 532
3 134 61 133
3 534 533 26
3 135 535 536
3 135 537 538
3 136 137 49
3 138 137 136
3 138 62 137
3 139 140 29
3 141 140 139
3 141 63 140
3 141 142 63
3 143 142 141
3 143 64 142
3 143 144 64
3 145 144 143
3 145 65 144
3 146 147 31
3 148 147 146
3 148 66 147
3 148 149 66
3 150 149 148
3 150 67 149
3 150 151 67
3 152 151 150
3 152 68 151
3 153 154 33
3 155 154 153
3 155 69 154
3 155 156 69
3 157 156 155
3 157 70 156
3 158 159 53
3 160 159 158
3 160 71 159
3 161 162 36
3 163 162 161
3 163 72 162
3 163 164 72
3 165 164 163
3 165 73 164
3 165 166 73
3 167 166 165
3 167 74 166
3 168 169 38
3 170 169 168
3 170 75 169
3 170 171 75
3 172 171 170
3 172 77 171
3 173 174 57
3 175 174 173
3 175 78 174
3 176 177 41
3 178 177 176
3 178 79 177
3 178 179 79
3 180 179 178
3 180 80 179
3 180 181 80
3 182 181 180
3 182 81 181
3 183 184 43
3 185 184 183
3 185 82 184
3 185 186 82
3 187 186 185
3 187 76 186
3 188 539 541
3 539 189 540
3 539 540 541
3 190 189 188
3 190 84 189
3 190 191 84
3 192 191 190
3 192 83 191
3 542 193 543
3 194 544 546
3 544 193 545
3 544 545 546
3 194 86 193
3 194 195 86
3 196 195 194
3 196 87 195
3 197 547 549
3 547 198 548
3 547 548 549
3 199 198 197
3 199 88 198
3 199 200 88
3 201 200 199
3 201 85 200
3 550 202 551
3 203 552 554
3 552 202 553
3 552 553 554
3 203 90 202
3 203 204 90
3 205 204 203
3 205 91 204
3 206 207 46
3 208 207 206
3 208 92 207
3 208 209 92
3 210 209 208
3 210 89 209
3 556 555 4
3 557 117 558
3 211 559 561
3 559 117 560
3 559 560 561
3 211 6 117
3 211 212 6
3 562 212 563
3 564 563 211
3 562 563 564
3 566 565 212
3 568 567 23
3 569 8 570
3 571 213 572
3 573 572 8
3 571 572 573
3 214 574 576
3 574 213 575
3 574 575 576
3 214 24 213
3 93 577 579
3 577 214 578
3 577 578 579
3 215 214 93
3 215 24 214
3 215 128 24
3 216 128 215
3 216 10 128
3 580 26 581
3 582 26 583
3 585 584 26
3 586 11 587
3 217 218 5
3 219 218 217
3 219 29 218
3 96 219 28
3 220 219 96
3 220 29 219
3 220 139 29
3 221 139 220
3 221 12 139
3 221 222 12
3 223 222 221
3 223 31 222
3 98 223 30
3 224 223 98
3 224 31 223
3 224 146 31
3 225 146 224
3 225 13 146
3 225 226 13
3 227 226 225
3 227 33 226
3 100 227 32
3 228 227 100
3 228 33 227
3 228 153 33
3 229 153 228
3 229 14 153
3 230 231 7
3 232 231 230
3 232 36 231
3 103 232 35
3 233 232 103
3 233 36 232
3 233 161 36
3 234 161 233
3 234 15 161
3 234 235 15
3 236 235 234
3 236 38 235
3 105 236 37
3 237 236 105
3 237 38 236
3 237 168 38
3 238 168 237
3 238 17 168
3 239 240 9
3 241 240 239
3 241 41 240
3 108 241 40
3 242 241 108
3 242 41 241
3 242 176 41
3 243 176 242
3 243 18 176
3 243 244 18
3 245 244 243
3 245 43 244
3 110 245 42
3 246 245 110
3 246 43 245
3 246 183 43
3 247 183 246
3 247 16 183
3 588 188 589
3 248 590 592
3 590 188 591
3 590 591 592
3 248 19 188
3 593 197 594
3 595 197 596
3 597 20 598
3 599 598 197
3 597 598 599
3 600 22 601
3 602 249 603
3 604 603 22
3 602 603 604
3 250 605 607
3 605 249 606
3 605 606 607
3 250 46 249
3 112 608 610
3 608 250 609
3 608 609 610
3 251 250 112
3 251 46 250
3 251 206 46
3 252 206 251
3 252 21 206
3 253 611 613
3 611 254 612
3 611 612 613
3 255 254 253
3 255 49 254
3 115 255 48
3 256 255 115
3 256 49 255
3 256 136 49
3 257 136 256
3 257 5 136
3 614 116 615
3 616 615 4
3 614 615 616
3 258 617 619
3 617 116 618
3 617 618 619
3 258 50 116
3 118 620 622
3 620 258 621
3 620 621 622
3 259 258 118
3 259 50 258
3 259 257 50
3 260 257 259
3 260 5 257
3 260 217 5
3 261 217 260
3 261 28 217
3 120 261 51
3 262 261 120
3 262 28 261
3 262 95 28
3 263 95 262
3 263 1 95
3 263 264 1
3 265 264 263
3 265 53 264
3 122 265 52
3 266 265 122
3 266 53 265
3 266 158 53
3 267 158 266
3 267 7 158
3 212 123 6
3 268 123 212
3 268 54 123
3 124 623 625
3 623 268 624
3 623 624 625
3 269 268 124
3 269 54 268
3 269 267 54
3 270 267 269
3 270 7 267
3 270 230 7
3 271 230 270
3 271 35 230
3 126 271 55
3 272 271 126
3 272 35 271
3 272 102 35
3 273 102 272
3 273 3 102
3 626 57 627
3 274 628 629
3 274 630 632
3 630 57 631
3 630 631 632
3 274 173 57
3 275 173 274
3 275 9 173
3 213 127 8
3 276 127 213
3 276 58 127
3 129 276 24
3 277 276 129
3 277 58 276
3 277 275 58
3 278 275 277
3 278 9 275
3 278 239 9
3 279 239 278
3 279 40 239
3 131 279 59
3 280 279 131
3 280 40 279
3 280 107 40
3 281 107 280
3 281 2 107
3 633 253 634
3 282 635 637
3 635 253 636
3 635 636 637
3 282 48 253
3 133 638 640
3 638 282 639
3 638 639 640
3 283 282 133
3 283 48 282
3 283 114 48
3 284 114 283
3 284 4 114
3 641 134 642
3 285 643 645
3 643 134 644
3 643 644 645
3 285 61 134
3 646 285 647
3 648 647 26
3 646 647 648
3 286 649 651
3 649 285 650
3 649 650 651
3 286 61 285
3 286 284 61
3 287 284 286
3 287 4 284
3 287 652 654
3 654 653 4
3 652 653 654
3 656 655 287
3 254 657 659
3 657 94 658
3 657 658 659
3 288 94 254
3 288 27 94
3 137 288 49
3 289 288 137
3 289 27 288
3 289 660 662
3 662 661 27
3 660 661 662
3 290 663 665
3 665 664 289
3 663 664 665
3 290 666 668
3 666 11 667
3 666 667 668
3 218 138 5
3 291 138 218
3 291 62 138
3 140 291 29
3 292 291 140
3 292 62 291
3 292 290 62
3 293 290 292
3 293 11 290
3 293 135 11
3 294 135 293
3 294 669 671
3 671 670 135
3 669 670 671
3 142 294 63
3 295 294 142
3 295 672 674
3 674 673 294
3 672 673 674
3 295 675 676
3 678 677 295
3 144 679 681
3 681 680 64
3 679 680 681
3 683 682 144
3 222 145 12
3 296 145 222
3 296 65 145
3 147 296 31
3 297 296 147
3 297 65 296
3 297 684 686
3 686 685 65
3 684 685 686
3 688 687 297
3 149 689 691
3 691 690 66
3 689 690 691
3 693 692 149
3 298 694 695
3 298 696 698
3 696 25 697
3 696 697 698
3 151 298 67
3 299 298 151
3 299 25 298
3 299 216 25
3 300 216 299
3 300 10 216
3 226 152 13
3 301 152 226
3 301 68 152
3 154 301 33
3 302 301 154
3 302 68 301
3 302 300 68
3 303 300 302
3 303 10 300
3 303 132 10
3 304 132 303
3 304 60 132
3 156 304 69
3 305 304 156
3 305 60 304
3 305 281 60
3 306 281 305
3 306 2 281
3 264 101 1
3 307 101 264
3 307 34 101
3 159 307 53
3 308 307 159
3 308 34 307
3 308 229 34
3 309 229 308
3 309 14 229
3 231 160 7
3 310 160 231
3 310 71 160
3 162 310 36
3 311 310 162
3 311 71 310
3 311 309 71
3 312 309 311
3 312 14 309
3 312 157 14
3 313 157 312
3 313 70 157
3 164 313 72
3 314 313 164
3 314 70 313
3 314 306 70
3 315 306 314
3 315 2 306
3 315 111 2
3 316 111 315
3 316 44 111
3 166 316 73
3 317 316 166
3 317 44 316
3 317 247 44
3 318 247 317
3 318 16 247
3 235 167 15
3 319 167 235
3 319 74 167
3 169 319 38
3 320 319 169
3 320 74 319
3 320 318 74
3 321 318 320
3 321 16 318
3 321 187 16
3 322 187 321
3 322 76 187
3 171 322 75
3 323 322 171
3 323 76 322
3 323 324 76
3 325 324 323
3 325 0 324
3 326 699 700
3 326 701 702
3 174 326 57
3 327 326 174
3 327 703 705
3 705 704 326
3 703 704 705
3 327 706 707
3 328 708 710
3 710 709 327
3 708 709 710
3 328 711 712
3 240 175 9
3 329 175 240
3 329 78 175
3 177 329 41
3 330 329 177
3 330 78 329
3 330 328 78
3 331 328 330
3 331 713 715
3 715 714 328
3 713 714 715
3 331 716 717
3 332 718 720
3 720 719 331
3 718 719 720
3 332 721 722
3 179 332 79
3 333 332 179
3 333 723 725
3 725 724 332
3 723 724 725
3 333 726 727
3 334 728 730
3 730 729 333
3 728 729 730
3 334 731 732
3 334 733 734
3 335 735 737
3 737 736 334
3 735 736 737
3 335 738 740
3 738 45 739
3 738 739 740
3 181 335 80
3 336 335 181
3 336 45 335
3 336 248 45
3 337 248 336
3 337 19 248
3 244 182 18
3 338 182 244
3 338 81 182
3 184 338 43
3 339 338 184
3 339 81 338
3 339 337 81
3 340 337 339
3 340 19 337
3 340 192 19
3 341 192 340
3 341 83 192
3 186 341 82
3 342 341 186
3 342 83 341
3 342 343 83
3 324 343 342
3 324 0 343
3 741 20 742
3 189 743 744
3 344 745 747
3 747 746 189
3 745 746 747
3 344 748 749
3 344 750 751
3 345 752 754
3 754 753 344
3 752 753 754
3 345 755 757
3 755 20 756
3 755 756 757
3 345 201 20
3 346 201 345
3 346 85 201
3 191 346 84
3 347 346 191
3 347 85 346
3 347 348 85
3 343 348 347
3 343 0 348
3 193 758 759
3 762 761 193
3 760 761 762
3 763 113 764
3 349 765 767
3 765 113 766
3 765 766 767
3 349 47 113
3 195 349 86
3 350 349 195
3 350 47 349
3 350 252 47
3 351 252 350
3 351 21 252
3 768 196 769
3 352 770 772
3 770 196 771
3 770 771 772
3 352 87 196
3 198 773 775
3 773 352 774
3 773 774 775
3 353 352 198
3 353 87 352
3 353 351 87
3 354 351 353
3 354 21 351
3 354 210 21
3 355 210 354
3 355 89 210
3 200 355 88
3 356 355 200
3 356 89 355
3 356 357 89
3 348 357 356
3 348 0 357
3 776 56 777
3 358 778 779
3 358 780 782
3 780 56 781
3 780 781 782
3 358 273 56
3 359 273 358
3 359 3 273
3 202 783 784
3 360 785 787
3 787 786 202
3 785 786 787
3 360 788 789
3 360 790 792
3 790 359 791
3 790 791 792
3 361 359 360
3 361 3 359
3 361 106 3
3 362 106 361
3 362 39 106
3 204 362 90
3 363 362 204
3 363 39 362
3 363 238 39
3 364 238 363
3 364 17 238
3 249 205 22
3 365 205 249
3 365 91 205
3 207 365 46
3 366 365 207
3 366 91 365
3 366 364 91
3 367 364 366
3 367 17 364
3 367 172 17
3 368 172 367
3 368 77 172
3 209 368 92
3 369 368 209
3 369 77 368
3 369 325 77
3 357 325 369
3 357 0 325
