ply
format ascii 1.0
element vertex 972
property float x
property float y
property float z
element face 946
property list uchar int vertex_index
end_header
0.559498 -64.855553 59.418449
-4.440439 -8.152911 39.76226
0.767208 -84.198616 51.69146
5.677126 -83.504761 33.015877
-0.447538 -73.764175 55.930077
-0.376373 -69.133499 65.16687
-0.558191 -80.18512 61.595001
27.156483 51.93084 43.421219
1.590399 -43.936737 47.391239
-5.569643 -22.317596 33.733498
6.190922 -92.704819 48.064735
3.032101 -84.853073 42.467358
3.455046 -89.749802 57.309036
2.890562 -57.12809 56.97525
-3.417261 -25.581194 40.935364
-3.710997 -39.185684 33.964436
-3.097223 -52.56292 25.354908
-0.035179 -68.698761 57.981522
0.83881 -65.193024 56.020798
0.045771 -66.785233 61.981812
-0.643595 -71.780563 60.601219
3.16246 -88.664345 49.882263
4.515465 -89.032967 45.267212
1.846968 -84.883926 47.040146
-0.08901 -82.627182 56.550957
0.835848 -85.351013 59.477234
1.838964 -87.464981 54.574776
4.84799 -91.639473 52.649277
4.07704 -52.323246 55.226311
2.780312 -56.327709 52.910805
3.324001 -51.169178 51.459854
-3.96501 -16.950161 40.509941
-5.878328 -29.899151 30.21048
-4.622152 -31.013332 34.01767
-4.683107 -38.297821 30.175673
-3.570173 -46.063583 29.821758
-4.461882 -45.303413 25.872234
-3.6024 -51.709614 21.26844
6.714296 -88.088348 35.528355
7.616501 -87.080727 30.301346
-0.355623 -79.131393 53.728775
-0.493391 -77.047653 66.636429
-0.865942 -74.612694 63.592232
-0.795452 -77.240204 58.639442
0.801565 -37.216389 46.937435
-5.745737 -6.07616 35.850246
-5.105898 -14.96637 36.88739
-6.477571 -13.383007 32.96701
-7.012548 -21.092251 29.745148
4.366623 -79.048988 30.649662
7.18257 -82.447838 28.067638
5.706755 -88.778198 40.523071
4.295427 -84.340294 37.818447
0.410589 -82.414474 64.512093
2.474886 -87.056076 62.154167
5.62924 -90.735085 59.442818
6.882465 -93.431633 54.882858
1.204517 -62.399117 62.200035
1.568209 -61.429214 58.457031
1.86994 -61.014416 54.442841
2.214148 -49.998665 48.076569
-4.411882 -23.799725 37.438225
-3.700369 -32.270897 37.673256
-2.885695 -40.126194 37.686981
0.258905 -66.52095 58.818459
0.371382 -67.027969 56.917458
0.66008 -65.014351 57.917381
0.311926 -65.710007 60.552818
-0.071918 -67.860985 60.013077
1.82214 -86.506676 50.766937
2.450966 -86.855667 48.449501
1.288237 -84.644943 49.345551
0.301355 -83.527512 54.092072
0.712936 -85.133179 55.545074
1.233612 -85.93631 53.127563
2.479578 -88.178055 52.206627
3.752943 -51.750427 53.281464
4.03459 -49.05312 52.500801
-3.808516 -9.358706 41.583546
-3.597582 -13.724793 41.934216
-4.212526 -12.553713 40.189331
-5.942102 -33.65918 28.277409
-5.276674 -34.166733 30.24551
-5.28026 -37.833603 28.22789
-4.625612 -41.857262 28.078327
-5.182173 -41.401054 26.089001
6.233511 -85.778282 34.251381
7.173073 -87.617065 32.937969
6.858175 -85.277519 31.72691
-0.495281 -76.451599 54.824471
-0.469574 -70.309738 66.808952
-0.716789 -73.081467 66.03344
-0.707571 -71.833893 64.457451
-0.590996 -72.862015 58.276138
-0.800825 -74.483597 59.660507
-0.685619 -75.560997 57.239525
-0.610804 -78.286636 56.169052
-0.290754 -36.306381 45.675285
-0.712286 -32.585197 45.549526
-6.47389 -5.226227 33.756401
-6.134058 -9.658585 34.445854
-6.877771 -8.922199 32.35022
5.16156 -78.57592 28.30155
6.71456 -92.952507 45.722855
3.739765 -86.989021 43.85186
5.136475 -88.969788 42.922112
4.373508 -86.834389 41.523739
4.996691 -86.569115 39.152061
3.65202 -84.644409 40.159576
-0.598799 -78.689377 64.13089
-0.175894 -79.793289 65.604591
-0.174299 -81.404358 63.079239
2.002384 -87.654411 58.406181
1.562311 -86.348686 60.872803
2.88798 -88.497871 59.711555
3.939497 -89.013206 60.858414
4.47142 -90.423904 58.480247
6.228678 -92.159668 57.137794
5.119492 -91.65934 56.150566
5.554428 -92.271866 50.362343
6.496201 -93.566727 51.60788
25.625507 54.628075 41.608501
1.951067 -60.26403 61.827591
0.982584 -63.17382 64.04509
2.222443 -59.343414 57.764793
1.722212 -61.19183 56.479729
2.305613 -59.018826 55.716843
2.640295 -55.933388 50.957695
2.374331 -58.441238 51.647064
2.526873 -44.688065 48.786644
2.714294 -47.710819 49.225143
1.937712 -47.042244 47.70092
-5.356531 -18.591404 35.350121
-4.761045 -19.408924 37.211174
-4.946348 -23.022404 35.611694
-4.162298 -35.17878 34.025295
-4.132254 -31.618135 35.858734
-3.72658 -35.713852 35.874298
-3.315752 -36.286182 37.703545
-3.305017 -39.642006 35.834038
-2.847666 -43.390694 35.752083
-3.255217 -43.018089 33.852608
-3.399645 -49.38266 27.61327
-3.043707 -49.676773 29.603598
-2.821379 -52.868732 27.385078
-2.786963 -54.617287 18.979067
-2.792166 -54.006989 16.924768
7.959454 -81.89019 25.556923
8.12248 -84.153305 26.579914
8.756145 -83.596909 23.988197
-0.279243 -71.150368 56.999634
0.114481 -69.340355 55.856018
-0.193827 -67.94561 63.542397
-0.577351 -70.530289 62.898628
-0.356688 -69.198105 61.399376
-0.376846 -70.268921 59.223053
38.786785 -92.437729 40.344276
4.673748 -90.711403 48.997932
5.336012 -90.953468 46.68605
3.851027 -88.940804 47.578438
3.095972 -87.006439 46.152885
2.430456 -84.942802 44.754673
-0.382429 -81.506485 59.058884
-0.014717 -82.848686 60.540321
0.288183 -84.099251 58.020439
1.279091 -86.520203 56.999077
2.578892 -88.749596 55.987114
4.127775 -90.799156 54.957336
3.249022 -89.623207 53.621727
3.963737 -90.274033 51.299774
3.523022 -54.791183 56.117722
2.862955 -56.721291 54.916389
3.355558 -54.30175 54.096169
3.107674 -53.812035 52.166939
2.784832 -53.317913 50.317627
0.646948 -43.203247 45.981155
1.124189 -46.392914 46.182236
-3.700991 -21.305866 40.751724
-5.746904 -26.102493 32.024963
-5.093611 -26.714981 33.925953
-5.206804 -30.444969 32.141624
-4.67375 -34.668175 32.154285
-4.158987 -38.743027 32.081696
-3.66271 -42.64967 31.944872
-4.113272 -42.268379 30.024647
-3.997339 -45.710648 27.860214
-3.765871 -49.027042 25.610716
-3.359705 -52.17915 23.317762
-4.140535 -48.597908 23.586277
7.121656 -90.421913 36.848602
0.046009 -81.731659 52.678177
0.449955 -82.280449 50.30085
-0.572063 -74.243248 67.588463
-0.768349 -75.893463 65.126556
-0.828075 -77.417755 62.62326
-0.815037 -73.233887 62.071136
-0.88743 -76.007858 61.120979
-0.759001 -78.7883 60.102303
-0.577085 -79.977768 57.589897
-0.302155 -80.963486 55.109756
28.73634 49.407097 45.24086
1.203197 -40.665409 47.139412
0.166708 -39.845123 45.816383
-5.071104 -7.054069 37.849628
-4.806364 -11.477987 38.355461
-5.438013 -10.51084 36.442505
-5.756994 -14.124174 34.969479
-6.036413 -17.86025 33.421009
-6.77392 -17.20965 31.403709
-6.275862 -21.67725 31.785542
-6.464899 -25.527924 30.050074
5.051495 -81.266029 31.815998
6.417688 -82.995758 30.55706
5.849586 -80.767258 29.417103
6.687803 -80.236717 26.992928
-3.989241 -5.007314 41.113564
-4.641748 -3.777655 39.197952
-5.30739 -2.666523 37.188801
5.91964 -91.023575 44.33411
6.409452 -90.945534 41.91814
6.805901 -90.739799 39.423996
6.229452 -88.479393 38.059006
5.614471 -86.212662 36.728249
4.969105 -83.956734 35.437492
0.895855 -82.620956 47.972538
1.881891 -82.772797 43.404556
2.420465 -82.643158 41.129501
2.997723 -82.412209 38.840321
3.623901 -82.098465 36.527596
4.307615 -81.713531 34.186558
-0.014133 -78.042641 68.083138
0.461271 -80.6959 67.002472
1.210573 -83.180885 65.847488
0.53919 -83.974648 61.991562
1.291523 -84.850334 63.364693
2.250095 -85.440865 64.609589
3.575739 -87.439568 63.268677
5.154688 -89.170181 61.794601
5.818323 -92.709259 53.86657
0.794321 -63.761192 60.663834
0.984879 -63.334152 59.024414
1.400322 -61.810005 60.355026
2.106785 -59.744236 59.80307
2.859396 -57.572304 59.079185
0.11458 -66.543167 65.666512
0.328075 -65.499855 63.940186
0.564749 -64.542206 62.264061
1.157568 -63.213203 57.20192
1.349958 -63.178585 55.217743
2.358658 -58.72739 53.673622
2.002071 -60.848633 52.376785
3.423311 -48.38485 50.808456
2.806231 -50.582161 49.737244
2.388102 -52.82423 48.524216
-1.758959 -20.497721 45.208038
-1.442705 -24.652151 45.323311
-1.095186 -28.692535 45.433952
-4.523222 -15.910081 38.734341
-4.229055 -20.315002 39.013973
-3.925852 -24.653433 39.217365
-4.536974 -27.377193 35.77557
-4.060537 -28.099115 37.587822
-3.607798 -28.886158 39.360458
-3.260542 -32.978535 39.452473
-3.173906 -46.377548 31.769855
-2.712206 -55.136272 21.038368
7.488762 -84.726822 29.165119
4.43128 -47.99304 52.997612
4.276922 -49.380982 53.419823
-5.593117 -37.584848 27.223779
-5.611181 -35.746392 28.252649
-5.924038 -35.497637 27.248539
-5.544073 -39.368574 26.154335
-5.231217 -39.617328 27.158445
-5.593117 -37.584848 27.223779
-5.455849 -41.144725 25.066461
-5.544073 -39.368574 26.154335
-0.346273 -74.125228 54.753106
-0.370144 -75.468941 54.200303
-0.47141 -75.107887 55.377274
-0.347969 -31.184193 46.103632
-0.154722 -33.085751 46.164122
-7.051165 -6.714224 31.951641
-6.675831 -7.074213 33.05331
-6.849224 -4.866238 32.654731
6.452741 -92.828663 46.893795
7.12183 -93.825565 46.377212
6.86001 -93.701721 47.548153
6.637818 -93.466995 48.703316
6.319572 -93.250519 49.85212
5.872675 -92.488343 49.213539
6.86001 -93.701721 47.548153
6.637818 -93.466995 48.703316
26.390995 53.279458 42.51486
25.372603 53.64333 42.712087
26.138091 52.294713 43.618447
2.488121 -57.041123 50.298778
2.536903 -55.734785 50.001846
-3.113187 -26.077557 41.749584
-3.258812 -23.976011 41.668518
-3.260097 -27.659381 41.004328
-3.113187 -26.077557 41.749584
-2.769556 -54.234982 25.258075
-2.631634 -54.387888 26.27316
-2.959301 -52.715826 26.369993
-2.845897 -54.063925 24.226864
-2.769556 -54.234982 25.258075
-3.341164 -52.254395 17.031301
-3.293554 -52.578585 18.065433
-2.741026 -53.657635 15.905602
-3.341164 -52.254395 17.031301
8.746052 -82.479919 23.512695
8.3578 -82.74355 24.77256
8.347706 -81.62656 24.297058
0.704312 -66.301868 55.435727
0.470598 -67.219341 55.884056
0.605096 -66.110496 56.469128
0.949734 -65.269913 54.990181
0.704312 -66.301868 55.435727
38.69244 -93.414025 38.701729
38.0531 -92.670204 39.579435
0.476328 -44.489919 45.301861
0.194449 -42.851433 45.243455
-3.66317 -17.512353 41.353946
-3.479456 -15.899669 42.066084
-3.781296 -15.337477 41.222078
-3.833 -19.128014 40.630832
-3.531161 -19.690206 41.474838
-3.66317 -17.512353 41.353946
7.045374 -89.046459 34.8638
7.249054 -90.213242 35.523923
6.917976 -89.255131 36.188479
7.604484 -88.291641 30.896558
7.38277 -88.55981 32.214869
7.394787 -87.348896 31.619658
7.704254 -88.010036 29.524943
7.604484 -88.291641 30.896558
-0.202511 -79.450099 52.529861
-0.001694 -80.750232 52.004562
-0.154807 -80.431526 53.203476
-0.504858 -72.841812 68.008946
-0.407711 -73.367573 68.790047
29.540233 48.208095 46.142017
28.510138 48.406529 46.284088
29.314031 47.207527 47.185246
29.773722 49.131637 45.067859
29.540233 48.208095 46.142017
1.376902 -37.675795 47.536794
1.203219 -35.903862 47.429579
1.002381 -38.940899 47.038424
1.577719 -39.400305 47.637783
1.376902 -37.675795 47.536794
-0.539803 -37.678039 45.039367
-0.777994 -35.861294 44.988346
-6.893234 -19.150951 30.574428
-7.138046 -16.921535 30.340641
-7.25736 -18.862836 29.511361
6.349394 -79.155601 26.462887
5.924682 -79.406318 27.647239
5.586273 -78.325203 27.117198
7.117601 -79.970714 25.770865
6.349394 -79.155601 26.462887
-3.713528 -3.526348 41.763267
-3.642898 -5.670452 42.018881
-4.724836 -1.613631 38.832874
-4.387401 -2.235717 39.844746
-5.057657 -1.058064 37.828299
-4.974569 -3.222089 38.193376
-4.724836 -1.613631 38.832874
0.594415 -81.41288 48.475718
0.672905 -82.450703 49.136694
0.371466 -81.242626 49.639874
1.468093 -81.660759 43.894241
1.628166 -82.774102 44.54213
2.173558 -81.505104 40.489036
1.94659 -81.576675 41.622446
2.462187 -81.38963 39.344447
2.709094 -82.527683 39.984911
2.173558 -81.505104 40.489036
3.311266 -80.968804 35.905934
3.02707 -81.118847 37.050613
3.653123 -80.776336 34.735414
3.965758 -81.905998 35.357077
3.311266 -80.968804 35.905934
3.975361 -80.593616 33.581739
3.653123 -80.776336 34.735414
-0.253762 -77.545147 67.359784
-0.127477 -76.664689 68.584274
-0.367107 -76.167194 67.86092
6.276159 -90.69717 59.796127
6.038882 -89.914718 60.972019
5.391964 -89.952633 60.61871
6.54225 -91.500648 58.653385
6.276159 -90.69717 59.796127
7.46426 -93.59692 55.258774
7.137367 -92.960938 56.386241
6.555572 -92.79565 56.010326
7.745671 -94.279831 54.167324
7.46426 -93.59692 55.258774
7.003286 -94.05188 52.134766
7.264667 -94.51429 51.02512
2.435003 -58.912886 60.50967
2.028926 -60.004133 60.815331
2.357144 -59.172782 61.52193
2.811309 -57.82692 60.147728
2.48309 -58.65827 59.441128
2.435003 -58.912886 60.50967
0.434144 -65.305336 65.788117
0.330426 -65.784927 66.720833
0.540892 -64.78368 64.924954
0.221328 -66.021511 64.803349
0.434144 -65.305336 65.788117
1.710781 -62.084305 53.79356
1.45079 -63.166389 54.181011
1.609949 -62.0965 54.830292
2.049659 -60.76024 51.339012
2.188201 -59.644936 52.011924
2.235788 -59.556543 50.974152
1.869632 -61.978491 51.701717
2.049659 -60.76024 51.339012
3.416253 -46.914852 50.519149
3.806978 -47.290415 51.295578
1.342841 -47.912775 46.308769
0.994366 -47.646197 45.478115
-2.200271 -19.881197 44.490059
-1.902014 -18.382786 45.139328
-1.74279 -26.134546 44.696863
-1.901268 -24.072612 44.628414
-1.56903 -28.154737 44.752184
-1.268946 -26.672343 45.378631
-1.74279 -26.134546 44.696863
-1.388308 -30.146451 44.812821
-1.56903 -28.154737 44.752184
-2.874714 -38.515337 38.592917
-3.089742 -36.595331 38.601198
-3.100723 -38.206188 37.695263
-2.641491 -40.387738 38.596348
-2.874714 -38.515337 38.592917
-2.638577 -41.954864 37.661207
-2.641491 -40.387738 38.596348
-2.592907 -45.17452 35.700249
-2.812221 -45.030207 34.732228
-2.859573 -49.80055 30.596546
-2.779896 -51.392219 29.508645
-2.27315 -56.248452 18.906486
-2.214488 -55.965029 17.87869
8.088044 -85.328797 27.108425
8.30781 -85.039803 25.773354
4.136099 -50.729635 53.810154
3.914992 -52.036836 54.253888
4.298148 -51.016044 54.782578
3.893766 -50.401774 52.891132
4.136099 -50.729635 53.810154
4.276922 -49.380982 53.419823
-3.703049 -11.541749 41.758881
-3.35516 -12.187493 42.615847
-3.460627 -10.004449 42.440512
-5.059632 -43.115322 24.96723
-4.699486 -45.066502 24.858846
-4.822027 -43.352233 25.980618
-5.059632 -43.115322 24.96723
-5.455849 -41.144725 25.066461
-0.3751 -76.800587 53.627544
-0.305271 -78.140484 53.079696
-0.425452 -77.791496 54.276623
-0.3751 -76.800587 53.627544
-0.370144 -75.468941 54.200303
-0.593182 -71.695603 66.421196
-0.577221 -72.260921 67.231434
-0.453614 -70.875057 67.61919
0.602204 -35.401347 46.858076
1.203219 -35.903862 47.429579
0.056044 -34.946343 46.227001
0.255405 -36.761385 46.30636
0.602204 -35.401347 46.858076
-0.50152 -34.445789 45.612406
0.056044 -34.946343 46.227001
-0.154722 -33.085751 46.164122
-0.98876 -34.000702 44.925466
-0.777994 -35.861294 44.988346
-0.50152 -34.445789 45.612406
-7.35429 -20.824191 28.67012
-7.25736 -18.862836 29.511361
-7.093744 -23.036741 28.862812
-7.35429 -20.824191 28.67012
4.397244 -77.70443 28.912808
4.764091 -78.812454 29.475606
3.999775 -77.940963 30.086864
4.765462 -77.486542 27.759018
4.397244 -77.70443 28.912808
4.001145 -76.615051 28.370276
5.586273 -78.325203 27.117198
4.765462 -77.486542 27.759018
7.255486 -93.96682 45.183129
7.12183 -93.825565 46.377212
6.908023 -92.992149 44.515595
7.255486 -93.96682 45.183129
6.790458 -93.89795 50.474888
6.025315 -92.919297 50.985112
6.319572 -93.250519 49.85212
7.264667 -94.51429 51.02512
6.790458 -93.89795 50.474888
24.62265 55.091801 41.859293
25.372603 53.64333 42.712087
24.890071 56.075024 40.707986
24.62265 55.091801 41.859293
1.851666 -60.590725 62.837581
1.577792 -61.331573 62.013813
1.478391 -61.658268 63.023803
2.275065 -59.46947 62.601624
1.851666 -60.590725 62.837581
2.357144 -59.172782 61.52193
2.275065 -59.46947 62.601624
1.251121 -62.429117 64.957318
0.868146 -63.620662 64.977406
1.367424 -62.04562 63.946331
1.251121 -62.429117 64.957318
1.478391 -61.658268 63.023803
1.093551 -62.786468 63.122563
1.367424 -62.04562 63.946331
2.355139 -58.295047 50.643463
2.507313 -57.187313 51.30238
2.488121 -57.041123 50.298778
2.235788 -59.556543 50.974152
2.355139 -58.295047 50.643463
2.620584 -46.199442 49.005893
3.061745 -46.577837 49.727493
2.968034 -45.06646 49.508244
-3.015997 -44.843905 33.78249
-2.812221 -45.030207 34.732228
-3.051442 -43.204391 34.802346
-2.668732 -52.988199 28.399385
-2.779896 -51.392219 29.508645
-2.932543 -51.272752 28.494338
-2.531809 -54.518892 27.306455
-2.668732 -52.988199 28.399385
-2.531809 -54.518892 27.306455
-2.631634 -54.387888 26.27316
-3.290953 -52.883734 19.092583
-3.194681 -53.16345 20.123753
-3.698671 -51.429898 20.237269
-2.789565 -54.312138 17.951918
-3.290953 -52.883734 19.092583
-3.293554 -52.578585 18.065433
-2.217089 -55.65988 16.85154
-2.214488 -55.965029 17.87869
-2.789565 -54.312138 17.951918
-2.119341 -55.332521 15.835328
-2.217089 -55.65988 16.85154
-2.119341 -55.332521 15.835328
-2.741026 -53.657635 15.905602
8.624643 -84.761605 24.477496
8.30781 -85.039803 25.773354
8.439312 -83.875107 25.284056
-0.190337 -71.503017 55.86549
-0.274485 -72.809921 55.330711
-0.363391 -72.457271 56.464855
0.006525 -70.598011 55.293682
-0.190337 -71.503017 55.86549
-0.082381 -70.245362 56.427826
0.22093 -69.587555 54.754181
0.006525 -70.598011 55.293682
0.342148 -68.375534 55.353336
0.242931 -68.184162 56.386738
0.470598 -67.219341 55.884056
0.22093 -69.587555 54.754181
0.342148 -68.375534 55.353336
39.413792 -93.011265 39.432034
40.150234 -92.584682 40.092327
39.523228 -92.011146 41.00457
39.413792 -93.011265 39.432034
38.69244 -93.414025 38.701729
27.413271 52.841851 42.308668
28.19184 51.582592 43.242958
2.609171 -54.427048 49.681812
2.536903 -55.734785 50.001846
2.712563 -54.62565 50.637661
0.714948 -46.084753 45.402401
0.885568 -44.79808 46.081696
0.476328 -44.489919 45.301861
0.994366 -47.646197 45.478115
0.714948 -46.084753 45.402401
-3.245196 -14.34798 42.751554
-3.35516 -12.187493 42.615847
-3.245196 -14.34798 42.751554
-3.479456 -15.899669 42.066084
-3.400677 -21.838347 41.576698
-3.531161 -19.690206 41.474838
-3.559126 -23.44353 40.843544
-3.258812 -23.976011 41.668518
-3.400677 -21.838347 41.576698
-4.538813 -46.713749 23.715868
-4.301208 -46.95066 24.729256
-4.699486 -45.066502 24.858846
-4.316723 -48.342455 22.559856
-4.538813 -46.713749 23.715868
-4.047655 -49.898308 21.400938
-3.871467 -50.153761 22.427358
-4.316723 -48.342455 22.559856
-3.698671 -51.429898 20.237269
-4.047655 -49.898308 21.400938
7.309241 -91.417946 36.17833
7.29644 -91.585388 37.52466
7.309241 -91.417946 36.17833
7.249054 -90.213242 35.523923
7.274763 -88.810817 33.568607
7.045374 -89.046459 34.8638
6.943684 -87.852706 34.233162
7.274763 -88.810817 33.568607
7.38277 -88.55981 32.214869
0.200278 -81.024628 50.815899
0.247982 -82.006054 51.489514
-0.001694 -80.750232 52.004562
0.371466 -81.242626 49.639874
0.200278 -81.024628 50.815899
-0.202511 -79.450099 52.529861
-0.305271 -78.140484 53.079696
-0.346273 -74.125228 54.753106
-0.274485 -72.809921 55.330711
-0.406442 -74.764992 68.336937
-0.407711 -73.367573 68.790047
-0.532727 -75.64545 67.112446
-0.367107 -76.167194 67.86092
-0.406442 -74.764992 68.336937
-0.644426 -73.662357 66.810952
-0.504858 -72.841812 68.008946
-0.577221 -72.260921 67.231434
26.917295 50.941429 44.489178
26.138091 52.294713 43.618447
27.707223 49.679558 45.398998
28.510138 48.406529 46.284088
27.946411 50.668969 44.33104
26.917295 50.941429 44.489178
27.707223 49.679558 45.398998
28.981768 50.320721 44.152778
28.19184 51.582592 43.242958
27.946411 50.668969 44.33104
28.981768 50.320721 44.152778
29.773722 49.131637 45.067859
2.909741 -43.512585 49.262188
2.968034 -45.06646 49.508244
2.396275 -43.09385 48.605213
2.909741 -43.512585 49.262188
1.928038 -42.718186 47.907511
2.058636 -44.312401 48.088942
2.396275 -43.09385 48.605213
1.734437 -41.082521 47.781597
1.577719 -39.400305 47.637783
1.396798 -42.301073 47.265326
1.928038 -42.718186 47.907511
1.734437 -41.082521 47.781597
-0.04567 -41.172371 45.161069
0.194449 -42.851433 45.243455
0.406828 -41.524185 45.898769
-0.311073 -39.447411 45.109916
-0.062023 -38.075752 45.745834
-0.539803 -37.678039 45.039367
-0.04567 -41.172371 45.161069
-0.311073 -39.447411 45.109916
-7.245842 -8.611111 31.243966
-7.051165 -6.714224 31.951641
-7.050896 -10.830743 31.605116
-7.245842 -8.611111 31.243966
-6.850796 -13.061147 31.913511
-6.677671 -11.152603 32.658615
-7.050896 -10.830743 31.605116
-6.99897 -14.974469 31.131861
-7.138046 -16.921535 30.340641
-6.625746 -15.296328 32.18536
-6.850796 -13.061147 31.913511
-6.99897 -14.974469 31.131861
-6.81992 -25.254577 29.015275
-6.738723 -23.310088 29.897611
-7.093744 -23.036741 28.862812
-6.524004 -27.445343 29.125976
-6.81992 -25.254577 29.015275
-6.230719 -29.630956 29.206179
-6.171613 -27.713538 30.130277
-6.524004 -27.445343 29.125976
-6.262606 -31.510971 28.239643
-5.910215 -31.779165 29.243944
-6.230719 -29.630956 29.206179
-6.271753 -33.396338 27.254694
-6.262606 -31.510971 28.239643
-5.924038 -35.497637 27.248539
-6.271753 -33.396338 27.254694
7.753427 -80.797451 25.052862
7.323628 -81.063454 26.274926
7.117601 -79.970714 25.770865
8.347706 -81.62656 24.297058
7.753427 -80.797451 25.052862
-3.552536 -7.846148 42.253872
-3.460627 -10.004449 42.440512
-3.898878 -7.18301 41.348555
-3.552536 -7.846148 42.253872
-3.642898 -5.670452 42.018881
-4.061148 -2.850547 40.802551
-3.713528 -3.526348 41.763267
-4.315494 -4.392485 40.155758
-4.061148 -2.850547 40.802551
-4.387401 -2.235717 39.844746
-5.405987 -0.500561 36.769244
-5.057657 -1.058064 37.828299
-5.662059 -2.177273 36.137876
-5.405987 -0.500561 36.769244
-5.881233 -3.882092 35.468599
-5.526563 -4.371341 36.519523
-5.662059 -2.177273 36.137876
-6.245309 -3.457125 34.421676
-6.109813 -5.651193 34.803323
-5.881233 -3.882092 35.468599
-6.619063 -3.037773 33.319918
-6.245309 -3.457125 34.421676
-6.849224 -4.866238 32.654731
-6.619063 -3.037773 33.319918
6.510563 -92.027683 43.821222
6.908023 -92.992149 44.515595
6.3171 -91.988041 45.028483
6.755469 -91.988663 42.613237
6.510563 -92.027683 43.821222
6.164546 -90.984555 43.126125
6.879058 -91.952331 41.360527
6.755469 -91.988663 42.613237
7.077283 -91.849464 40.113455
6.879058 -91.952331 41.360527
6.607677 -90.842667 40.671068
7.138563 -91.744331 38.812357
7.077283 -91.849464 40.113455
6.963779 -90.580856 38.136299
7.29644 -91.585388 37.52466
7.138563 -91.744331 38.812357
0.778946 -81.538673 47.319818
0.594415 -81.41288 48.475718
1.135148 -82.698181 46.826121
0.778946 -81.538673 47.319818
1.610704 -83.829666 46.359925
1.371412 -83.752441 47.506342
1.135148 -82.698181 46.826121
1.902448 -83.859104 45.217188
2.138712 -84.913364 45.897409
1.610704 -83.829666 46.359925
2.156173 -83.857799 44.079614
1.902448 -83.859104 45.217188
1.628166 -82.774102 44.54213
1.677303 -81.641495 42.759974
1.468093 -81.660759 43.894241
2.151178 -82.707977 42.267028
1.677303 -81.641495 42.759974
1.94659 -81.576675 41.622446
2.713981 -81.275719 38.206976
2.462187 -81.38963 39.344447
3.310812 -82.255337 37.683959
2.713981 -81.275719 38.206976
3.02707 -81.118847 37.050613
4.347302 -80.369865 32.396459
4.679555 -81.48978 33.001278
3.975361 -80.593616 33.581739
4.004865 -79.261345 31.813291
4.709059 -80.157509 31.23283
4.347302 -80.369865 32.396459
3.674497 -78.134933 31.233389
4.004865 -79.261345 31.813291
3.999775 -77.940963 30.086864
3.674497 -78.134933 31.233389
0.145693 -77.109822 69.285011
-0.127477 -76.664689 68.584274
0.338416 -78.442982 68.754952
0.145693 -77.109822 69.285011
0.576118 -79.769611 68.214619
0.338416 -78.442982 68.754952
0.223569 -79.36927 67.542805
0.894078 -81.029125 67.641876
0.576118 -79.769611 68.214619
1.268729 -82.271618 67.064385
0.894078 -81.029125 67.641876
0.835922 -81.938392 66.42498
1.721542 -83.425434 66.443256
1.268729 -82.271618 67.064385
2.241303 -84.555424 65.824307
1.721542 -83.425434 66.443256
1.730334 -84.310875 65.228538
2.832416 -85.578415 65.14397
2.241303 -84.555424 65.824307
3.495239 -86.577766 64.473514
2.832416 -85.578415 65.14397
2.912917 -86.440216 63.939133
4.217267 -87.457165 63.719368
3.495239 -86.577766 64.473514
5.006742 -88.322472 62.98233
4.217267 -87.457165 63.719368
4.365214 -88.304874 62.531639
5.83884 -89.061729 62.13718
5.006742 -88.322472 62.98233
5.83884 -89.061729 62.13718
6.038882 -89.914718 60.972019
6.84197 -92.21294 57.500873
6.54225 -91.500648 58.653385
5.928959 -91.447376 58.290306
6.84197 -92.21294 57.500873
7.137367 -92.960938 56.386241
6.664347 -93.623146 53.264111
6.157262 -93.137993 52.737225
7.003286 -94.05188 52.134766
7.196419 -93.984333 53.772255
6.350394 -93.070446 54.374714
6.664347 -93.623146 53.264111
7.745671 -94.279831 54.167324
7.196419 -93.984333 53.772255
38.882981 -91.415672 41.875211
39.523228 -92.011146 41.00457
38.136648 -91.681015 41.188709
38.882981 -91.415672 41.875211
38.232844 -90.658958 42.719645
38.0531 -92.670204 39.579435
38.136648 -91.681015 41.188709
26.647783 54.190468 41.402309
26.390995 53.279458 42.51486
27.413271 52.841851 42.308668
25.893695 55.540481 40.459394
26.647783 54.190468 41.402309
24.890071 56.075024 40.707986
25.893695 55.540481 40.459394
3.221615 -56.698035 59.75098
2.811309 -57.82692 60.147728
3.230545 -56.432531 58.654911
3.221615 -56.698035 59.75098
3.246128 -56.210425 57.602944
2.874979 -57.350197 58.027218
3.230545 -56.432531 58.654911
3.562358 -55.041971 57.17418
3.206792 -55.959637 56.546486
3.246128 -56.210425 57.602944
3.901946 -53.841487 56.709846
3.562358 -55.041971 57.17418
4.178955 -52.607519 56.264141
3.800031 -53.557215 55.672016
3.901946 -53.841487 56.709846
4.464886 -51.336874 55.783119
4.178955 -52.607519 56.264141
4.298148 -51.016044 54.782578
4.464886 -51.336874 55.783119
-0.289314 -69.498024 67.963738
-0.453614 -70.875057 67.61919
-0.256532 -68.964119 67.10701
-0.289314 -69.498024 67.963738
-0.209932 -68.376 66.285968
-0.422974 -69.721619 65.987911
-0.256532 -68.964119 67.10701
0.035544 -67.080833 66.535789
0.330426 -65.784927 66.720833
-0.130896 -67.838333 65.416691
-0.209932 -68.376 66.285968
0.035544 -67.080833 66.535789
0.65533 -64.336838 63.992638
0.540892 -64.78368 64.924954
0.868146 -63.620662 64.977406
1.205308 -64.262693 54.588653
0.949734 -65.269913 54.990181
1.094384 -64.185804 55.61927
1.205308 -64.262693 54.588653
1.45079 -63.166389 54.181011
1.776846 -62.001413 52.760532
1.710781 -62.084305 53.79356
1.936005 -60.931524 53.409813
1.776846 -62.001413 52.760532
1.869632 -61.978491 51.701717
4.112617 -47.62455 52.141751
4.43128 -47.99304 52.997612
3.72895 -48.718985 51.654629
4.112617 -47.62455 52.141751
3.806978 -47.290415 51.295578
3.068803 -48.047835 50.0168
3.416253 -46.914852 50.519149
3.061745 -46.577837 49.727493
2.410806 -54.180206 48.785107
2.609171 -54.427048 49.681812
2.586467 -53.071072 49.420922
1.749602 -48.23744 47.068112
1.530951 -46.717579 46.941578
1.342841 -47.912775 46.308769
1.88782 -49.715651 47.255936
2.07593 -48.520454 47.888745
1.749602 -48.23744 47.068112
2.064968 -51.170939 47.416369
1.88782 -49.715651 47.255936
2.151946 -52.583721 47.640192
2.301125 -51.411448 48.300393
2.064968 -51.170939 47.416369
2.266875 -53.984318 47.840835
2.151946 -52.583721 47.640192
2.410806 -54.180206 48.785107
2.266875 -53.984318 47.840835
-1.397686 -19.043101 45.818171
-1.902014 -18.382786 45.139328
-1.232633 -21.123945 45.852882
-1.397686 -19.043101 45.818171
-2.059395 -21.995397 44.570778
-2.200271 -19.881197 44.490059
-1.600832 -22.574936 45.265675
-2.059395 -21.995397 44.570778
-1.901268 -24.072612 44.628414
-1.074505 -23.201159 45.910518
-1.232633 -21.123945 45.852882
-1.600832 -22.574936 45.265675
-0.89839 -25.239815 45.945568
-1.074505 -23.201159 45.910518
-0.724631 -27.260008 46.000889
-0.89839 -25.239815 45.945568
-1.268946 -26.672343 45.378631
-0.539419 -29.237862 46.045845
-0.724631 -27.260008 46.000889
-0.903736 -30.638866 45.491739
-0.347969 -31.184193 46.103632
-0.539419 -29.237862 46.045845
-1.196858 -32.092782 44.870607
-0.903736 -30.638866 45.491739
-1.388308 -30.146451 44.812821
-0.98876 -34.000702 44.925466
-1.196858 -32.092782 44.870607
-3.355366 -29.311863 40.216875
-3.260097 -27.659381 41.004328
-3.512529 -27.233676 40.147911
-3.181738 -31.358052 40.262883
-3.355366 -29.311863 40.216875
-3.43417 -30.932347 39.406465
-3.000597 -33.360402 40.311937
-3.181738 -31.358052 40.262883
-3.062137 -34.941508 39.475662
-3.288147 -34.632358 38.578009
-3.089742 -36.595331 38.601198
-3.000597 -33.360402 40.311937
-3.062137 -34.941508 39.475662
-2.619562 -43.587114 36.693758
-2.638577 -41.954864 37.661207
-2.866681 -41.758444 36.719532
-2.619562 -43.587114 36.693758
-2.592907 -45.17452 35.700249
-2.975341 -46.523634 32.741113
-3.015997 -44.843905 33.78249
-3.214562 -44.697818 32.811231
-2.924673 -48.150938 31.679674
-3.108807 -48.02716 30.686726
-2.859573 -49.80055 30.596546
-2.975341 -46.523634 32.741113
-2.924673 -48.150938 31.679674
-2.977138 -53.87204 23.208291
-2.845897 -54.063925 24.226864
-3.228464 -52.371035 24.336335
-2.653389 -55.350601 22.068594
-2.977138 -53.87204 23.208291
-3.035956 -53.657711 22.178065
-2.265592 -56.747486 20.971831
-2.653389 -55.350601 22.068594
-2.235771 -56.507944 19.936137
-2.749585 -54.876779 20.008717
-2.27315 -56.248452 18.906486
-2.265592 -56.747486 20.971831
-2.235771 -56.507944 19.936137
7.771185 -85.615555 28.401027
7.805621 -84.440064 27.872516
8.088044 -85.328797 27.108425
7.835055 -86.792507 28.969141
7.552632 -85.903774 29.733232
7.771185 -85.615555 28.401027
7.704254 -88.010036 29.524943
7.835055 -86.792507 28.969141
9.072441 -83.351483 22.698927
8.746052 -82.479919 23.512695
8.850564 -84.497028 23.151829
9.072441 -83.351483 22.698927
8.624643 -84.761605 24.477496
8.850564 -84.497028 23.151829
3 0 66 64
3 0 64 67
3 2 71 69
3 2 74 72
3 2 69 74
3 267 77 268
3 1 80 78
3 269 83 270
3 271 270 81
3 269 270 271
3 272 85 273
3 274 273 83
3 272 273 274
3 276 275 85
3 3 88 86
3 4 277 279
3 279 278 89
3 277 278 279
3 5 92 90
3 4 95 93
3 4 89 95
3 280 98 281
3 282 101 283
3 284 283 99
3 282 283 284
3 10 285 287
3 285 103 286
3 285 286 287
3 11 106 104
3 11 108 106
3 6 111 109
3 12 114 112
3 12 116 114
3 12 118 116
3 10 288 290
3 290 289 119
3 288 289 290
3 10 291 292
3 7 293 295
3 293 121 294
3 293 294 295
3 13 126 124
3 297 296 127
3 8 131 129
3 14 298 299
3 14 300 301
3 9 134 132
3 15 137 135
3 15 139 137
3 15 141 139
3 16 144 142
3 16 302 304
3 304 303 144
3 302 303 304
3 16 305 306
3 307 146 308
3 310 309 146
3 311 149 312
3 313 312 147
3 311 312 313
3 17 151 150
3 18 314 316
3 316 315 65
3 314 315 316
3 18 317 318
3 19 154 152
3 17 155 68
3 17 150 155
3 320 319 156
3 21 159 157
3 23 160 70
3 23 161 160
3 24 164 162
3 26 165 73
3 26 166 165
3 26 168 166
3 21 169 75
3 21 157 169
3 28 172 170
3 30 173 76
3 30 174 173
3 322 321 175
3 31 323 325
3 325 324 79
3 323 324 325
3 31 326 328
3 326 177 327
3 326 327 328
3 32 180 178
3 34 181 82
3 34 182 181
3 34 184 182
3 36 185 84
3 36 186 185
3 36 188 186
3 38 329 331
3 331 330 189
3 329 330 331
3 39 332 334
3 334 333 87
3 332 333 334
3 39 335 336
3 40 337 339
3 339 338 190
3 337 338 339
3 340 192 341
3 42 193 91
3 42 194 193
3 20 195 153
3 43 196 94
3 43 197 196
3 43 198 197
3 40 199 96
3 40 190 199
3 342 200 343
3 342 343 344
3 346 345 200
3 44 347 348
3 44 349 351
3 349 201 350
3 349 350 351
3 44 202 201
3 353 352 97
3 45 205 203
3 47 206 100
3 47 207 206
3 48 354 356
3 354 208 355
3 354 355 356
3 48 209 208
3 48 210 209
3 49 213 211
3 357 214 358
3 359 358 102
3 357 358 359
3 361 360 214
3 362 215 363
3 364 216 365
3 366 217 367
3 368 367 216
3 366 367 368
3 22 218 158
3 51 219 105
3 51 220 219
3 51 221 220
3 52 222 107
3 52 223 222
3 369 224 370
3 371 370 191
3 369 370 371
3 372 225 373
3 374 226 375
3 376 227 377
3 378 377 226
3 376 377 378
3 379 228 380
3 381 229 382
3 383 382 228
3 381 382 383
3 385 384 229
3 41 386 388
3 386 230 387
3 386 387 388
3 53 231 110
3 53 232 231
3 25 233 163
3 54 234 113
3 54 235 234
3 54 236 235
3 55 237 115
3 55 389 391
3 391 390 237
3 389 390 391
3 55 392 393
3 56 394 396
3 396 395 117
3 394 395 396
3 56 397 398
3 27 238 167
3 400 399 120
3 57 241 239
3 401 242 402
3 403 402 122
3 401 402 403
3 404 243 405
3 406 405 242
3 404 405 406
3 407 244 408
3 409 245 410
3 411 410 244
3 409 410 411
3 57 246 123
3 57 239 246
3 58 247 240
3 59 248 125
3 59 412 414
3 414 413 248
3 412 413 414
3 29 249 171
3 415 250 416
3 417 416 128
3 415 416 417
3 419 418 250
3 420 251 421
3 60 252 130
3 60 253 252
3 423 422 176
3 424 254 425
3 426 255 427
3 428 256 429
3 430 429 255
3 428 429 430
3 432 431 256
3 46 257 204
3 61 258 133
3 61 259 258
3 33 260 179
3 62 261 136
3 62 262 261
3 62 263 262
3 63 433 435
3 435 434 138
3 433 434 435
3 63 436 437
3 63 438 439
3 441 440 140
3 35 264 183
3 443 442 143
3 37 265 187
3 445 444 145
3 50 266 212
3 447 446 148
3 64 65 17
3 66 65 64
3 66 18 65
3 67 68 19
3 64 68 67
3 64 17 68
3 69 70 21
3 71 70 69
3 71 23 70
3 72 73 24
3 74 73 72
3 74 26 73
3 74 75 26
3 69 75 74
3 69 21 75
3 448 76 449
3 450 449 28
3 448 449 450
3 77 451 453
3 451 76 452
3 451 452 453
3 77 30 76
3 78 454 456
3 454 79 455
3 454 455 456
3 80 79 78
3 80 31 79
3 81 82 32
3 83 82 81
3 83 34 82
3 83 84 34
3 85 84 83
3 85 36 84
3 85 457 459
3 459 458 36
3 457 458 459
3 461 460 85
3 86 87 38
3 88 87 86
3 88 39 87
3 89 462 464
3 464 463 40
3 462 463 464
3 466 465 89
3 90 467 469
3 467 91 468
3 467 468 469
3 92 91 90
3 92 42 91
3 93 94 20
3 95 94 93
3 95 43 94
3 95 96 43
3 89 96 95
3 89 40 96
3 470 44 471
3 472 97 473
3 474 473 44
3 472 473 474
3 98 475 477
3 475 97 476
3 475 476 477
3 98 478 480
3 480 479 97
3 478 479 480
3 99 100 45
3 101 100 99
3 101 47 100
3 481 48 482
3 484 483 48
3 485 102 486
3 487 486 49
3 485 486 487
3 488 102 489
3 488 489 490
3 492 491 102
3 103 493 494
3 103 495 496
3 104 105 22
3 106 105 104
3 106 51 105
3 106 107 51
3 108 107 106
3 108 52 107
3 109 110 41
3 111 110 109
3 111 53 110
3 112 113 25
3 114 113 112
3 114 54 113
3 114 115 54
3 116 115 114
3 116 55 115
3 116 117 55
3 118 117 116
3 118 56 117
3 119 120 27
3 497 120 498
3 499 498 119
3 497 498 499
3 501 500 120
3 121 502 503
3 121 504 505
3 506 122 507
3 508 507 57
3 506 507 508
3 509 122 510
3 512 511 122
3 513 123 514
3 515 123 516
3 517 57 518
3 519 518 123
3 517 518 519
3 124 125 58
3 126 125 124
3 126 59 125
3 127 128 29
3 520 128 521
3 522 521 127
3 520 521 522
3 524 523 128
3 129 525 527
3 525 130 526
3 525 526 527
3 131 130 129
3 131 60 130
3 132 133 46
3 134 133 132
3 134 61 133
3 135 136 33
3 137 136 135
3 137 62 136
3 137 138 62
3 139 138 137
3 139 63 138
3 139 140 63
3 141 140 139
3 141 528 530
3 530 529 140
3 528 529 530
3 142 143 35
3 144 143 142
3 144 531 533
3 533 532 143
3 531 532 533
3 144 534 535
3 537 536 144
3 538 145 539
3 540 539 37
3 538 539 540
3 146 541 543
3 541 145 542
3 541 542 543
3 146 544 546
3 546 545 145
3 544 545 546
3 146 547 548
3 550 549 146
3 147 148 50
3 149 148 147
3 149 551 553
3 553 552 148
3 551 552 553
3 150 554 556
3 556 555 4
3 554 555 556
3 151 557 559
3 559 558 150
3 557 558 559
3 151 560 561
3 65 151 17
3 562 151 563
3 564 563 65
3 562 563 564
3 566 565 151
3 152 153 5
3 154 153 152
3 154 20 153
3 68 154 19
3 155 154 68
3 155 20 154
3 155 93 20
3 150 93 155
3 150 4 93
3 156 567 569
3 567 568 569
3 571 570 156
3 157 158 10
3 159 158 157
3 159 22 158
3 70 159 21
3 160 159 70
3 160 22 159
3 160 104 22
3 161 104 160
3 161 11 104
3 162 163 6
3 164 163 162
3 164 25 163
3 73 164 24
3 165 164 73
3 165 25 164
3 165 112 25
3 166 112 165
3 166 12 112
3 166 167 12
3 168 167 166
3 168 27 167
3 75 168 26
3 169 168 75
3 169 27 168
3 169 119 27
3 157 119 169
3 157 10 119
3 573 572 7
3 170 171 13
3 172 171 170
3 172 29 171
3 76 172 28
3 173 172 76
3 173 29 172
3 173 127 29
3 174 127 173
3 174 574 576
3 576 575 127
3 574 575 576
3 175 176 8
3 577 176 578
3 579 578 175
3 577 578 579
3 581 580 176
3 79 582 583
3 585 584 79
3 177 586 587
3 177 588 590
3 588 14 589
3 588 589 590
3 178 179 9
3 180 179 178
3 180 33 179
3 82 180 32
3 181 180 82
3 181 33 180
3 181 135 33
3 182 135 181
3 182 15 135
3 182 183 15
3 184 183 182
3 184 35 183
3 84 184 34
3 185 184 84
3 185 35 184
3 185 142 35
3 186 142 185
3 186 16 142
3 186 187 16
3 188 187 186
3 188 37 187
3 591 188 592
3 593 592 36
3 591 592 593
3 594 188 595
3 596 37 597
3 598 597 188
3 596 597 598
3 600 599 37
3 189 601 602
3 604 603 189
3 87 605 607
3 607 606 38
3 605 606 607
3 609 608 87
3 190 191 2
3 610 191 611
3 612 611 190
3 610 611 612
3 614 613 191
3 616 615 40
3 618 617 4
3 192 619 620
3 192 621 623
3 621 41 622
3 621 622 623
3 91 624 626
3 624 192 625
3 624 625 626
3 193 192 91
3 193 41 192
3 193 109 41
3 194 109 193
3 194 6 109
3 153 92 5
3 195 92 153
3 195 42 92
3 94 195 20
3 196 195 94
3 196 42 195
3 196 194 42
3 197 194 196
3 197 6 194
3 197 162 6
3 198 162 197
3 198 24 162
3 96 198 43
3 199 198 96
3 199 24 198
3 199 72 24
3 190 72 199
3 190 2 72
3 627 7 628
3 200 629 630
3 200 631 633
3 631 7 632
3 631 632 633
3 200 634 636
3 636 635 7
3 634 635 636
3 638 637 200
3 639 129 640
3 641 129 642
3 643 8 644
3 645 644 129
3 643 644 645
3 201 646 647
3 201 648 650
3 648 8 649
3 648 649 650
3 201 175 8
3 202 175 201
3 202 651 653
3 653 652 175
3 651 652 653
3 97 202 44
3 654 202 655
3 656 655 97
3 654 655 656
3 658 657 202
3 203 204 1
3 205 204 203
3 205 46 204
3 100 205 45
3 206 205 100
3 206 46 205
3 206 132 46
3 207 132 206
3 207 9 132
3 659 101 660
3 661 101 662
3 663 47 664
3 665 664 101
3 663 664 665
3 208 666 667
3 208 668 670
3 668 47 669
3 668 669 670
3 208 207 47
3 209 207 208
3 209 9 207
3 209 178 9
3 210 178 209
3 210 32 178
3 671 210 672
3 673 672 48
3 671 672 673
3 674 210 675
3 676 32 677
3 678 677 210
3 676 677 678
3 679 81 680
3 681 680 32
3 679 680 681
3 682 81 683
3 685 684 81
3 211 212 3
3 213 212 211
3 213 50 212
3 102 213 49
3 214 213 102
3 214 50 213
3 214 147 50
3 686 147 687
3 688 687 214
3 686 687 688
3 690 689 147
3 691 78 692
3 215 693 695
3 693 78 694
3 693 694 695
3 215 1 78
3 696 215 697
3 216 698 700
3 698 215 699
3 698 699 700
3 216 1 215
3 216 203 1
3 217 203 216
3 217 45 203
3 701 217 702
3 703 217 704
3 705 45 706
3 707 706 217
3 705 706 707
3 708 99 709
3 710 709 45
3 708 709 710
3 711 99 712
3 714 713 99
3 158 103 10
3 218 103 158
3 218 715 717
3 717 716 103
3 715 716 717
3 105 218 22
3 219 218 105
3 219 718 720
3 720 719 218
3 718 719 720
3 219 721 722
3 220 723 725
3 725 724 219
3 723 724 725
3 220 726 727
3 220 728 730
3 728 189 729
3 728 729 730
3 221 189 220
3 221 38 189
3 107 221 51
3 222 221 107
3 222 38 221
3 222 86 38
3 223 86 222
3 223 3 86
3 191 71 2
3 224 71 191
3 224 23 71
3 731 224 732
3 733 224 734
3 735 23 736
3 737 736 224
3 735 736 737
3 738 161 739
3 740 739 23
3 738 739 740
3 225 741 743
3 741 161 742
3 741 742 743
3 225 11 161
3 744 225 745
3 226 746 748
3 746 225 747
3 746 747 748
3 226 11 225
3 226 108 11
3 227 108 226
3 227 52 108
3 749 227 750
3 228 751 753
3 751 227 752
3 751 752 753
3 228 52 227
3 228 223 52
3 229 223 228
3 229 3 223
3 229 211 3
3 754 211 755
3 756 755 229
3 754 755 756
3 757 49 758
3 759 758 211
3 757 758 759
3 760 49 761
3 763 762 49
3 230 764 765
3 230 766 767
3 110 230 41
3 231 230 110
3 231 768 770
3 770 769 230
3 768 769 770
3 231 771 772
3 232 773 775
3 775 774 231
3 773 774 775
3 232 776 777
3 163 111 6
3 233 111 163
3 233 53 111
3 113 233 25
3 234 233 113
3 234 53 233
3 234 232 53
3 235 232 234
3 235 778 780
3 780 779 232
3 778 779 780
3 235 781 782
3 236 783 785
3 785 784 235
3 783 784 785
3 236 786 787
3 115 236 54
3 237 236 115
3 237 788 790
3 790 789 236
3 788 789 790
3 237 791 792
3 794 793 237
3 117 795 797
3 797 796 55
3 795 796 797
3 799 798 117
3 167 118 12
3 238 118 167
3 238 56 118
3 120 238 27
3 800 238 801
3 802 801 120
3 800 801 802
3 803 56 804
3 805 804 238
3 803 804 805
3 807 806 56
3 808 156 809
3 810 156 811
3 810 811 812
3 814 813 156
3 815 121 816
3 817 816 7
3 815 816 817
3 818 121 819
3 821 820 121
3 239 240 0
3 241 240 239
3 241 58 240
3 122 241 57
3 242 241 122
3 242 58 241
3 242 124 58
3 243 124 242
3 243 13 124
3 822 243 823
3 824 243 825
3 826 13 827
3 828 827 243
3 826 827 828
3 829 170 830
3 831 830 13
3 829 830 831
3 832 170 833
3 834 28 835
3 836 835 170
3 834 835 836
3 837 28 838
3 840 839 28
3 841 90 842
3 843 90 844
3 845 5 846
3 847 846 90
3 845 846 847
3 244 848 849
3 244 850 852
3 850 5 851
3 850 851 852
3 244 152 5
3 245 152 244
3 245 19 152
3 123 853 855
3 853 245 854
3 853 854 855
3 246 245 123
3 246 19 245
3 246 67 19
3 239 67 246
3 239 0 67
3 240 66 0
3 247 66 240
3 247 18 66
3 125 247 58
3 248 247 125
3 248 18 247
3 248 856 858
3 858 857 18
3 856 857 858
3 860 859 248
3 171 126 13
3 249 126 171
3 249 59 126
3 128 249 29
3 250 249 128
3 250 59 249
3 250 861 863
3 863 862 59
3 861 862 863
3 865 864 250
3 866 77 867
3 251 868 870
3 868 77 869
3 868 869 870
3 251 30 77
3 130 871 873
3 871 251 872
3 871 872 873
3 252 251 130
3 252 30 251
3 252 174 30
3 253 174 252
3 253 874 876
3 876 875 174
3 874 875 876
3 176 131 8
3 877 131 878
3 879 878 176
3 877 878 879
3 880 60 881
3 882 881 131
3 880 881 882
3 883 60 884
3 885 253 886
3 887 886 60
3 885 886 887
3 888 253 889
3 891 890 253
3 254 892 893
3 254 894 895
3 896 254 897
3 255 898 900
3 898 254 899
3 898 899 900
3 255 901 903
3 903 902 254
3 901 902 903
3 255 904 905
3 256 906 908
3 908 907 255
3 906 907 908
3 256 909 910
3 256 911 913
3 911 98 912
3 911 912 913
3 914 98 915
3 916 915 256
3 914 915 916
3 918 917 98
3 204 80 1
3 257 80 204
3 257 31 80
3 133 257 46
3 258 257 133
3 258 31 257
3 258 177 31
3 259 177 258
3 259 14 177
3 179 134 9
3 260 134 179
3 260 61 134
3 136 260 33
3 261 260 136
3 261 61 260
3 261 259 61
3 262 259 261
3 262 14 259
3 262 919 921
3 921 920 14
3 919 920 921
3 263 922 924
3 924 923 262
3 922 923 924
3 263 925 926
3 138 263 62
3 927 263 928
3 929 928 138
3 927 928 929
3 931 930 263
3 140 932 934
3 934 933 63
3 932 933 934
3 936 935 140
3 183 141 15
3 264 141 183
3 264 937 939
3 939 938 141
3 937 938 939
3 143 264 35
3 940 264 941
3 942 941 143
3 940 941 942
3 944 943 264
3 187 945 947
3 947 946 16
3 945 946 947
3 265 948 950
3 950 949 187
3 948 949 950
3 265 951 952
3 145 265 37
3 953 265 954
3 955 954 145
3 953 954 955
3 957 956 265
3 212 88 3
3 266 88 212
3 266 39 88
3 148 266 50
3 958 266 959
3 960 959 148
3 958 959 960
3 961 39 962
3 963 962 266
3 961 962 963
3 965 964 39
3 966 149 967
3 968 149 969
3 971 970 149
