ply
format ascii 1.0
element vertex 884
property float x
property float y
property float z
element face 863
property list uchar int vertex_index
end_header
-3.30929 -89.332047 39.680367
-3.242828 -89.619781 58.933296
5.996883 -7.704256 36.095192
-3.291842 -47.547077 51.222927
-2.035107 -79.558617 67.848854
-5.059523 -86.424789 29.708662
4.723461 -25.084797 37.464714
7.158203 -22.975637 29.897484
4.971291 -38.953972 30.500929
4.542828 -51.595329 21.361744
-2.636934 -90.613846 49.752094
-1.857832 -61.226097 63.784149
-0.541838 -70.362297 66.749084
-0.070463 -80.689125 58.360683
-4.091846 -88.044296 34.619877
-4.811018 -92.920624 35.313354
-1.268017 -85.322357 43.870934
-1.981215 -84.504852 38.810139
-2.896481 -83.331879 33.906906
4.017384 -32.92202 37.802658
4.852188 -31.962177 34.206856
4.011803 -39.449402 34.321423
3.978996 -46.022102 30.342216
-2.753765 -90.456375 54.506634
-4.972383 -94.861435 50.042152
-5.352936 -93.97287 54.246788
-1.361021 -65.937981 70.753082
-1.570805 -70.19474 71.620148
-2.132961 -84.7603 63.511642
-0.761627 -80.295387 63.322189
-1.239735 -85.579163 58.952351
-0.860985 -85.893478 54.061806
-0.713364 -38.516571 47.300755
-1.583633 -45.283081 47.991829
-0.707052 -65.465454 60.14175
-1.910244 -60.505024 58.557682
7.329956 -5.975547 32.072128
3.171631 -56.794361 16.305086
-4.28227 -88.061356 62.980347
-3.707382 -83.418915 67.579781
-6.059046 -84.645294 25.009418
-3.821381 -81.851456 29.212795
5.401699 -16.63995 36.948887
6.619873 -15.125963 33.214542
5.744793 -23.855164 33.867302
6.071918 -31.315037 30.363958
6.300911 -38.536591 26.30925
4.983414 -45.614967 26.210052
3.799015 -52.224201 25.787231
-2.81909 -90.208206 44.769264
-4.617689 -94.199997 40.457996
-4.710571 -94.892456 45.417953
-0.824091 -65.781631 65.488159
-0.064501 -70.371902 61.512379
-0.981087 -75.026711 67.542915
-0.089737 -75.351059 62.604927
0.321688 -75.495705 57.384922
-0.881781 -85.788162 48.991886
4.910667 -10.009625 39.705956
4.44104 -18.657646 40.375229
3.839382 -26.777353 40.861496
0.270172 -31.449884 46.643745
-3.377518 -56.497047 61.710987
-3.308002 -55.291439 56.806473
-3.668541 -88.736023 37.138145
-4.528849 -90.4534 34.963966
-4.218355 -91.162079 37.522018
-2.264269 -87.397751 41.792667
-1.589149 -84.958221 41.326401
-2.625132 -86.917908 39.254997
-3.052805 -86.344315 36.743172
3.630524 -36.634125 37.913872
4.022568 -36.154709 36.117287
3.617298 -39.798775 36.159004
3.588432 -43.020531 34.285912
-2.942324 -90.128937 56.765598
-3.979553 -92.382034 54.486046
-4.205259 -91.853195 56.598022
-2.544643 -87.252975 61.243721
-1.611444 -85.236816 61.283417
-2.137705 -87.74704 59.035107
-1.865816 -88.082977 56.733391
-3.255737 -44.344616 50.605011
-2.255301 -43.127617 49.100555
-2.491133 -46.413147 49.570148
6.635128 -6.768316 34.146011
-3.855686 -85.801254 65.334473
-5.563433 -85.539673 27.331499
-6.285263 -86.917786 25.117659
-5.800114 -87.851288 27.496227
-4.030437 -84.938461 31.844267
-3.369612 -82.623322 31.533464
-4.533892 -84.131271 29.470724
-5.019342 -83.283508 27.148577
5.066624 -20.935589 37.236294
5.579422 -20.19132 35.453407
5.184925 -24.41667 35.697449
4.912598 -35.471199 32.419441
5.403187 -31.612131 32.331345
5.512562 -35.219231 30.469389
6.213474 -34.987289 28.412083
5.601391 -38.75145 28.463156
5.633907 -42.15152 26.301985
5.007366 -42.352409 28.433537
3.927025 -49.192596 28.134949
-2.690859 -90.474548 47.281937
-3.737942 -92.589981 45.137295
-3.714357 -92.793701 47.591465
-6.287443 -96.613831 49.895851
-6.008638 -96.957962 47.791943
-0.901293 -68.082672 68.772781
-1.030903 -65.88121 68.151146
-0.585648 -68.060242 66.176468
-0.392181 -68.003036 63.525265
-0.244904 -70.38269 64.155434
-2.233383 -76.966202 69.904144
-1.661728 -74.775726 69.812584
-1.43391 -77.336121 67.760391
-0.354321 -80.531212 60.880341
-0.344267 -77.847336 63.018471
-0.007401 -78.004379 60.493053
0.167189 -75.442902 60.013741
0.217972 -78.10659 57.908577
0.106277 -80.777565 55.790459
-1.645456 -88.32048 51.907467
-0.824793 -85.888306 51.540653
-1.672222 -88.249069 49.413933
-1.784491 -88.066818 46.887047
4.69479 -14.389691 40.075687
3.483055 -30.619305 41.074123
-0.564827 -29.17802 47.515533
-2.58555 -58.897625 62.787029
-2.61488 -57.941509 57.70018
-3.162575 -54.533531 54.567593
6.898724 -19.024698 31.616507
7.339813 -14.537548 31.172384
-4.562325 -87.268082 32.139931
-5.335358 -88.774078 29.936138
-4.905991 -89.650681 32.429626
-2.42506 -83.961807 36.333977
-3.528858 -85.681442 34.269875
4.375984 -29.078552 37.651333
4.793427 -28.48378 35.88324
4.408573 -32.391846 36.022694
4.427391 -35.774033 34.29216
4.445866 -39.176422 32.444042
4.460293 -42.543579 30.459442
3.998901 -42.75679 32.401527
3.556946 -46.248154 32.285236
-2.656284 -90.612961 52.16489
-3.746492 -92.838043 49.975765
-3.832481 -92.706268 52.277142
-5.144321 -94.531113 52.198608
-1.360632 -68.061363 71.268791
-0.97599 -70.303635 69.252754
-1.981472 -82.177132 65.717674
-1.31414 -79.973114 65.655777
-1.353046 -82.627853 63.494839
-0.884432 -82.967133 61.152641
-0.552868 -83.200722 58.717525
-0.338638 -83.338089 56.214539
-0.995537 -85.794312 56.538559
-1.707058 -88.269699 54.352455
-1.920546 -39.770142 48.641415
-1.175732 -41.929653 47.650227
-1.223299 -63.285007 62.006523
-1.867823 -60.90147 61.131447
-1.25597 -63.004448 59.37326
3.792229 -54.712078 21.106747
4.003418 -54.287991 18.826141
-3.681074 -88.927017 61.005245
-4.535723 -91.11647 58.615009
-5.000875 -90.181793 60.5452
-2.943665 -79.051605 69.868881
-2.790289 -81.615952 67.794189
-2.826365 -84.150558 65.617157
-3.110615 -86.60054 63.347183
-6.540287 -83.778305 22.740818
-3.947632 -48.644218 53.002892
-4.236174 -81.038979 26.939068
-5.475224 -82.425476 24.873444
5.71706 -12.219305 36.577747
6.322441 -11.336948 34.703381
5.964382 -15.822619 35.130562
6.193417 -19.559534 33.590267
6.415211 -23.382164 31.944164
5.29298 -27.991835 34.067577
5.909702 -27.582775 32.176582
6.628376 -27.231647 30.177704
5.561108 -45.374054 23.990576
4.848518 -48.703125 23.841537
4.448448 -45.820713 28.323843
4.370682 -48.960953 26.036129
4.173054 -51.930664 23.615986
3.535835 -55.085796 23.32888
-3.024818 -89.82489 42.229828
-3.983177 -91.762146 40.083855
-3.824722 -92.241882 42.628834
-4.635307 -94.627914 42.971832
-4.826958 -94.976273 47.779144
-5.621164 -93.183136 56.19342
-1.579807 -63.817928 70.065163
-1.368706 -63.688808 67.387451
-1.255741 -63.511436 64.688187
-0.721407 -65.643555 62.806843
-0.303099 -67.913971 60.857208
0.01539 -70.331696 58.853546
-1.969179 -72.332489 71.822876
-1.236851 -72.541359 69.59687
-0.679512 -72.689728 67.204773
-0.811918 -77.627502 65.452774
-0.465221 -75.215134 65.126915
-0.273336 -72.789917 64.691483
0.004959 -72.851761 62.098488
0.174294 -72.880966 59.461807
0.248089 -72.878586 56.810879
-0.228144 -83.389008 53.666298
-1.03021 -85.598831 46.430626
-1.982204 -87.78154 44.341671
5.625263 -4.263795 37.40332
4.63121 -2.525732 40.472992
5.077934 -5.548539 39.237118
5.430576 -8.785883 37.942944
5.188644 -13.237591 38.363823
4.913696 -17.585131 38.693863
4.616852 -21.801647 38.960754
4.155952 -22.790695 40.630951
4.303017 -25.87068 39.186714
3.968147 -29.788769 39.384178
3.598518 -33.566368 39.553596
-4.673058 -93.625275 37.897255
-0.224672 -35.028961 46.959145
-2.605293 -58.464691 60.189808
-3.373224 -55.947575 59.191486
-4.106195 -53.326691 58.149517
-3.930735 -52.537224 55.885033
-3.624561 -51.641212 53.78804
-3.180647 -50.661751 51.848408
-2.601326 -49.630962 50.038513
7.004539 -10.585658 32.715889
4.125084 -53.794914 16.510841
3.405096 -40.021676 37.065269
3.623911 -38.21645 37.036438
3.411709 -38.439351 37.942704
3.393934 -41.578541 36.146776
3.405096 -40.021676 37.065269
-3.273789 -45.945847 50.913969
-3.685563 -44.942377 51.416372
-3.703616 -46.543608 51.72533
6.316006 -7.236286 35.120601
6.429735 -4.949496 34.810854
6.110613 -5.417466 35.785444
-6.766666 -97.639557 48.729544
-6.976694 -97.318863 49.685516
-2.221691 -60.061861 63.285589
-2.579949 -59.072164 64.126897
-2.21609 -60.236401 64.625458
7.399203 -20.77211 29.701618
7.269463 -18.796641 30.56113
7.028463 -21.000167 30.756995
4.704201 -51.394829 20.200749
4.934036 -49.99319 21.457991
-4.922064 -92.512985 34.02242
-4.780979 -91.279373 33.847727
-4.669933 -91.687012 35.13866
-4.884483 -93.775368 34.185497
-4.922064 -92.512985 34.02242
-0.994812 -84.07275 43.621026
-0.866565 -84.200882 44.901018
-1.516236 -83.494701 39.82585
-1.320203 -83.721385 41.08398
-1.785182 -84.731537 40.06827
-1.707948 -83.282196 38.582022
-1.516236 -83.494701 39.82585
-2.203137 -84.233329 37.572058
-1.929871 -83.010673 37.343941
-1.707948 -83.282196 38.582022
3.346861 -46.385919 33.230386
3.572689 -44.634343 33.285574
3.362604 -44.772108 34.230725
3.328871 -47.966911 32.188318
3.346861 -46.385919 33.230386
-5.955407 -94.994575 53.061779
-5.851099 -95.273697 52.037689
-5.248628 -94.251992 53.222698
-1.465718 -69.128051 71.444469
-1.673472 -68.021553 72.441051
-1.778558 -69.088241 72.61673
-2.50281 -40.411812 49.326672
-2.359144 -38.720814 49.054127
-1.101904 -44.739408 47.212418
-0.897953 -43.062694 47.041617
-1.379682 -43.606367 47.821028
7.456116 -3.654624 31.669592
7.107729 -4.064811 32.754517
7.680634 -5.647818 30.963296
7.456116 -3.654624 31.669592
3.477217 -56.007866 19.839346
3.430756 -56.236637 20.959593
-3.496483 -78.755218 70.776516
-3.085526 -77.783219 70.858154
-3.749634 -82.186509 68.638454
-4.2433 -83.003265 68.478417
-3.248836 -82.517433 67.686985
-3.291088 -81.285027 68.745659
-3.749634 -82.186509 68.638454
-6.420362 -85.329658 23.906781
-6.660983 -84.896164 22.772481
-6.299667 -84.2118 23.875118
-6.436451 -87.623406 23.985613
-6.203284 -88.095596 25.170556
-5.51768 -89.510292 28.802023
-5.334266 -89.988808 30.056059
-4.191325 -49.155487 53.97621
-4.367662 -47.658828 53.511839
-2.578594 -82.139481 33.722572
-2.371685 -82.439072 34.912241
-3.236346 -81.060913 30.214503
-3.010462 -81.446846 31.374837
-3.595497 -82.237389 30.373129
-3.411144 -80.691452 29.079321
-3.236346 -81.060913 30.214503
-4.028778 -81.445217 28.075931
-3.61854 -80.285213 27.942457
-3.411144 -80.691452 29.079321
6.444691 -31.178368 29.320092
6.722919 -29.136674 29.226965
6.350147 -29.273342 30.270831
6.626737 -36.640719 26.269104
6.583019 -34.866067 27.320521
6.257193 -36.76194 27.360667
6.645715 -38.408462 25.171931
6.626737 -36.640719 26.269104
6.294176 -40.223158 25.182686
6.645715 -38.408462 25.171931
-5.080321 -95.915825 44.320072
-5.042689 -95.783554 43.097012
-4.672939 -94.760185 44.194892
-5.866299 -97.0093 46.678395
-6.393293 -97.991089 46.652039
-5.801188 -92.677384 57.123877
-5.078444 -92.149803 57.404215
-5.258467 -91.644051 58.334671
-1.470414 -64.877955 70.409122
-1.744899 -63.855467 71.369625
-1.635506 -64.915493 71.713585
-2.249074 -73.392639 71.858692
-2.432359 -72.191551 72.830131
0.352831 -75.503033 56.064487
0.316032 -74.194474 55.777466
0.284888 -74.187145 57.097901
-0.548007 -84.574546 50.042108
-0.519513 -84.624618 51.316492
-0.853287 -85.838234 50.266269
-0.587902 -84.522942 48.75053
-0.548007 -84.574546 50.042108
-0.955995 -85.693497 47.711256
-0.662116 -84.428276 47.4699
-0.587902 -84.522942 48.75053
5.404709 -2.653084 38.023304
5.691639 -1.986048 37.062652
5.471085 -0.375338 37.682637
4.33749 -3.332362 41.340221
4.349817 -1.127908 41.069968
4.9943 -7.779082 39.471537
4.807584 -6.260764 40.110236
4.723951 -8.491307 40.344655
3.997667 -24.784024 40.746223
3.876205 -23.343341 41.431296
3.71792 -25.33667 41.546568
3.335171 -33.948918 40.40866
3.540786 -32.092836 40.313859
3.277439 -32.475386 41.168924
3.386186 -35.396442 39.618972
3.335171 -33.948918 40.40866
0.512964 -29.606925 46.506275
0.095465 -28.470993 46.942169
-0.147327 -30.313952 47.079639
0.866657 -30.800799 46.007228
0.512964 -29.606925 46.506275
-0.469018 -36.772766 47.12995
-0.868476 -35.680858 47.585195
-1.112823 -37.424664 47.756
-3.752821 -55.522497 62.423311
-3.359355 -56.720234 63.026259
-3.771399 -55.247221 61.142395
-3.752821 -55.522497 62.423311
-3.271823 -52.664911 53.130079
-3.393568 -53.087372 54.177817
-3.040831 -54.11107 53.519856
-3.049867 -52.17518 52.160263
-3.402604 -51.151482 52.818224
-3.271823 -52.664911 53.130079
-2.344041 -50.736755 49.334829
-2.582179 -51.205984 50.270683
-2.250977 -49.108739 49.178198
-2.344041 -50.736755 49.334829
7.530655 -12.246937 30.881557
7.699228 -14.290457 30.078031
3.379501 -43.189419 35.21023
3.602865 -41.409653 35.222458
3.393934 -41.578541 36.146776
3.362604 -44.772108 34.230725
3.379501 -43.189419 35.21023
-1.959499 -70.107566 72.710926
-1.778558 -69.088241 72.61673
-3.690339 -43.336764 51.045376
-3.685563 -44.942377 51.416372
-3.170405 -42.699049 50.30847
-3.690339 -43.336764 51.045376
-2.755519 -43.736117 49.852783
-2.670187 -42.09055 49.556242
-3.170405 -42.699049 50.30847
-0.736823 -65.35379 58.83034
-0.505576 -66.628124 59.172081
6.760315 -4.461196 33.791458
6.429735 -4.949496 34.810854
6.982542 -6.371932 33.10907
7.107729 -4.064811 32.754517
6.760315 -4.461196 33.791458
-4.954849 -88.567788 62.690348
-4.673071 -87.554482 63.919167
-4.248243 -84.149033 67.386349
-4.2433 -83.003265 68.478417
-4.322395 -85.340202 66.263695
-3.781534 -84.610084 66.457127
-4.248243 -84.149033 67.386349
-4.459779 -86.42443 65.096229
-4.322395 -85.340202 66.263695
-4.673071 -87.554482 63.919167
-4.068978 -86.931305 64.15741
-4.459779 -86.42443 65.096229
-5.96071 -88.562348 26.359841
-6.203284 -88.095596 25.170556
-6.042688 -87.384537 26.306943
3.720745 -49.309307 29.141289
3.95301 -47.607349 29.238582
3.74673 -47.72406 30.244923
3.678497 -50.847103 28.003975
3.720745 -49.309307 29.141289
3.614492 -52.362905 26.830116
3.86302 -50.708399 26.96109
3.678497 -50.847103 28.003975
3.525511 -53.827875 25.633189
3.614492 -52.362905 26.830116
-6.627264 -97.811622 47.67759
-6.148041 -96.785897 48.843897
-6.766666 -97.639557 48.729544
-6.393293 -97.991089 46.652039
-6.627264 -97.811622 47.67759
-1.947555 -75.870964 69.858364
-2.095349 -74.614258 70.853546
-2.381176 -75.709496 70.899326
0.281308 -78.132839 56.600426
0.333166 -76.827396 56.338598
0.26983 -76.801147 57.646749
0.225461 -79.468326 55.541366
0.281308 -78.132839 56.600426
0.162125 -79.442077 56.849518
0.145908 -80.790039 54.491632
0.225461 -79.468326 55.541366
4.644241 -10.686916 40.546196
4.723951 -8.491307 40.344655
4.536302 -12.876949 40.731062
4.802729 -12.199658 39.890822
4.644241 -10.686916 40.546196
4.428953 -15.027534 40.89296
4.536302 -12.876949 40.731062
4.302078 -17.161511 41.04273
4.567915 -16.523668 40.225458
4.428953 -15.027534 40.89296
3.54314 -27.28888 41.665081
3.71792 -25.33667 41.546568
3.364977 -29.209856 41.771394
3.661218 -28.698329 40.96781
3.54314 -27.28888 41.665081
3.163992 -31.093756 41.88582
3.364977 -29.209856 41.771394
3.277439 -32.475386 41.168924
3.163992 -31.093756 41.88582
-4.827562 -95.152382 39.354873
-4.914961 -95.406761 40.617965
-1.262113 -29.900063 48.064569
-1.011782 -28.063617 47.924957
-0.809044 -30.991689 47.673036
-1.262113 -29.900063 48.064569
-0.391544 -32.127622 47.237143
-0.147327 -30.313952 47.079639
-0.809044 -30.991689 47.673036
-0.130766 -37.920589 46.612216
-0.400496 -39.651762 46.746232
-2.963371 -57.920523 63.564279
-2.579949 -59.072164 64.126897
-2.981534 -57.697336 62.249008
-3.359355 -56.720234 63.026259
-2.963371 -57.920523 63.564279
-2.290591 -58.986681 56.890693
-2.262562 -59.223267 58.128931
-1.938273 -60.268439 57.319445
-2.604417 -57.634248 56.516657
-2.290591 -58.986681 56.890693
-2.950978 -56.309213 56.069803
-2.961441 -56.616474 57.253327
-2.604417 -57.634248 56.516657
-2.878265 -55.93026 54.950364
-3.235289 -54.912485 55.687033
-2.950978 -56.309213 56.069803
-2.840933 -55.580712 53.829779
-2.878265 -55.93026 54.950364
-3.040831 -54.11107 53.519856
-2.840933 -55.580712 53.829779
7.490008 -16.553065 30.339068
7.119269 -16.781123 31.394445
7.269463 -18.796641 30.56113
7.699228 -14.290457 30.078031
7.490008 -16.553065 30.339068
3.114942 -56.507401 15.171989
2.587046 -57.968342 15.088857
-5.119582 -90.427109 31.302803
-5.334266 -89.988808 30.056059
-5.120674 -89.212379 31.182882
-4.969551 -90.878014 32.580557
-4.71742 -90.052041 33.696796
-4.780979 -91.279373 33.847727
-5.119582 -90.427109 31.302803
-4.969551 -90.878014 32.580557
-1.155378 -83.890682 42.348759
-0.994812 -84.07275 43.621026
-1.428583 -85.140289 42.598667
-1.155378 -83.890682 42.348759
-1.320203 -83.721385 41.08398
-2.135974 -82.754036 36.125777
-1.929871 -83.010673 37.343941
-2.66077 -83.646843 35.120441
-2.371685 -82.439072 34.912241
-2.135974 -82.754036 36.125777
3.535705 -47.837086 31.216432
3.74673 -47.72406 30.244923
3.767971 -46.135128 31.313726
3.535705 -47.837086 31.216432
3.328871 -47.966911 32.188318
-6.42266 -96.315056 50.886311
-5.715882 -95.572472 51.04723
-5.851099 -95.273697 52.037689
-6.976694 -97.318863 49.685516
-6.42266 -96.315056 50.886311
-1.598721 -65.939389 71.998432
-1.635506 -64.915493 71.713585
-1.598527 -67.00108 72.256286
-1.673472 -68.021553 72.441051
-1.360826 -66.999672 71.010936
-1.598721 -65.939389 71.998432
-1.598527 -67.00108 72.256286
-1.716414 -38.051449 48.426331
-2.359144 -38.720814 49.054127
-1.316955 -39.143356 47.971085
-1.112823 -37.424664 47.756
-1.716414 -38.051449 48.426331
-2.087924 -41.44888 48.870985
-2.50281 -40.411812 49.326672
-2.670187 -42.09055 49.556242
-0.631679 -41.358303 46.920968
-0.400496 -39.651762 46.746232
-0.944548 -40.223112 47.475491
-0.631679 -41.358303 46.920968
-0.897953 -43.062694 47.041617
-1.011282 -64.123287 58.446095
-0.981511 -64.234951 59.757505
-0.736823 -65.35379 58.83034
-1.296721 -62.833973 58.091852
-1.011282 -64.123287 58.446095
-1.623858 -61.584261 57.684063
-1.583107 -61.754736 58.965471
-1.296721 -62.833973 58.091852
-1.938273 -60.268439 57.319445
-1.623858 -61.584261 57.684063
7.527084 -22.794876 28.803051
7.271998 -24.944084 28.971922
3.582812 -55.795822 18.699043
3.897823 -54.500034 19.966444
3.477217 -56.007866 19.839346
3.166918 -57.049008 17.438516
3.587524 -55.541176 17.565613
3.582812 -55.795822 18.699043
2.69755 -58.256805 16.19553
3.166918 -57.049008 17.438516
2.587046 -57.968342 15.088857
2.69755 -58.256805 16.19553
-5.491043 -91.176712 59.299767
-5.258467 -91.644051 58.334671
-4.768299 -90.649132 59.580105
-5.314151 -89.628006 61.472774
-4.641572 -89.121575 61.762774
-4.954849 -88.567788 62.690348
-5.734465 -90.573005 60.198784
-5.314151 -89.628006 61.472774
-5.491043 -91.176712 59.299767
-5.734465 -90.573005 60.198784
-2.730384 -76.740517 70.875786
-2.381176 -75.709496 70.899326
-2.588524 -78.008904 69.886513
-2.730384 -76.740517 70.875786
-3.085526 -77.783219 70.858154
-3.367776 -80.002854 69.783005
-3.496483 -78.755218 70.776516
-2.866977 -80.333778 68.831535
-3.367776 -80.002854 69.783005
-3.291088 -81.285027 68.745659
-6.914497 -84.478805 21.649096
-6.776242 -83.375843 21.632597
-6.914497 -84.478805 21.649096
-6.660983 -84.896164 22.772481
-6.533471 -86.465904 23.960901
-6.420362 -85.329658 23.906781
-6.172154 -85.78154 25.063538
-6.533471 -86.465904 23.960901
-6.436451 -87.623406 23.985613
-5.750058 -89.048897 27.582068
-5.567736 -88.312683 28.716183
-5.51768 -89.510292 28.802023
-5.96071 -88.562348 26.359841
-5.750058 -89.048897 27.582068
-4.031511 -47.092178 52.615313
-4.367662 -47.658828 53.511839
-3.619737 -48.095647 52.11291
-3.703616 -46.543608 51.72533
-4.031511 -47.092178 52.615313
-2.815159 -81.785202 32.535851
-2.578594 -82.139481 33.722572
-3.133046 -82.9776 32.720185
-2.815159 -81.785202 32.535851
-3.010462 -81.446846 31.374837
-3.769436 -79.895672 26.827869
-3.61854 -80.285213 27.942457
-4.422979 -80.626694 25.821323
-3.95624 -79.483387 25.710125
-3.769436 -79.895672 26.827869
-5.042504 -81.319942 24.788511
-4.422979 -80.626694 25.821323
-4.855699 -81.732227 25.906256
-5.688472 -82.008057 23.756693
-5.042504 -81.319942 24.788511
-6.221004 -82.684471 22.69038
-5.688472 -82.008057 23.756693
-6.007756 -83.10189 23.807131
-6.776242 -83.375843 21.632597
-6.221004 -82.684471 22.69038
7.007084 -27.072089 29.112032
7.271998 -24.944084 28.971922
6.893289 -25.103642 30.037594
7.007084 -27.072089 29.112032
6.722919 -29.136674 29.226965
6.515468 -33.014494 28.344155
6.444691 -31.178368 29.320092
6.142696 -33.151163 29.38802
6.515468 -33.014494 28.344155
6.583019 -34.866067 27.320521
5.960674 -42.030622 25.179053
6.294176 -40.223158 25.182686
5.967409 -40.344055 26.305617
5.924275 -43.64189 24.023349
5.960674 -42.030622 25.179053
5.597507 -43.762787 25.14628
5.839104 -45.222081 22.830936
5.924275 -43.64189 24.023349
5.443176 -46.882553 22.772407
5.839104 -45.222081 22.830936
5.086882 -48.547089 22.697887
5.443176 -46.882553 22.772407
5.204813 -47.03859 23.916056
4.695673 -50.149227 22.601641
4.934036 -49.99319 21.457991
5.086882 -48.547089 22.697887
3.302559 -56.423496 22.07066
3.430756 -56.236637 20.959593
3.664032 -54.898937 22.217813
3.393921 -55.258673 24.404014
3.667425 -53.654999 24.558056
3.525511 -53.827875 25.633189
3.224979 -56.635595 23.16736
3.393921 -55.258673 24.404014
3.302559 -56.423496 22.07066
3.224979 -56.635595 23.16736
-4.92377 -95.62072 41.874883
-4.914961 -95.406761 40.617965
-4.626498 -94.413956 41.714914
-4.92377 -95.62072 41.874883
-5.042689 -95.783554 43.097012
-5.275459 -96.018456 46.671995
-5.417798 -95.967118 47.785544
-5.866299 -97.0093 46.678395
-5.217265 -95.976547 45.491399
-4.768764 -94.934365 46.598548
-5.275459 -96.018456 46.671995
-5.080321 -95.915825 44.320072
-5.217265 -95.976547 45.491399
-6.383629 -93.623207 55.85746
-5.801188 -92.677384 57.123877
-6.227692 -94.172821 54.969133
-6.383629 -93.623207 55.85746
-6.093578 -94.567688 53.995817
-5.48705 -93.578003 55.220104
-6.227692 -94.172821 54.969133
-5.955407 -94.994575 53.061779
-6.093578 -94.567688 53.995817
-1.877368 -61.35594 65.136212
-2.21609 -60.236401 64.625458
-1.88776 -62.822164 70.982716
-1.744899 -63.855467 71.369625
-1.791225 -62.751862 69.636639
-1.88776 -62.822164 70.982716
-1.685675 -62.687302 68.297783
-1.791225 -62.751862 69.636639
-1.474257 -63.753368 68.726307
-1.632805 -62.587295 66.937862
-1.685675 -62.687302 68.297783
-1.576322 -62.49861 65.588231
-1.632805 -62.587295 66.937862
-1.312223 -63.600122 66.037819
-1.556786 -62.368767 64.236168
-1.877368 -61.35594 65.136212
-1.576322 -62.49861 65.588231
-0.3036 -67.852383 59.52981
-0.505576 -66.628124 59.172081
-0.505076 -66.689712 60.499479
-0.144355 -69.061245 58.527979
-0.3036 -67.852383 59.52981
-0.143854 -69.122833 59.855377
0.01126 -70.295464 57.529297
-0.144355 -69.061245 58.527979
-2.158686 -71.176441 72.81229
-2.432359 -72.191551 72.830131
-1.769992 -71.263614 71.721512
-1.959499 -70.107566 72.710926
-2.158686 -71.176441 72.81229
-1.815454 -73.554108 70.81773
-2.249074 -73.392639 71.858692
-2.095349 -74.614258 70.853546
0.12761 -71.568909 56.507964
0.01126 -70.295464 57.529297
0.13174 -71.605141 57.832212
0.242112 -72.860062 55.489643
0.12761 -71.568909 56.507964
0.242112 -72.860062 55.489643
0.316032 -74.194474 55.777466
0.352831 -75.503033 56.064487
0.333166 -76.827396 56.338598
-0.021303 -82.095761 53.429552
0.145908 -80.790039 54.491632
-0.060934 -82.083286 54.728378
-0.221189 -83.374969 52.379314
-0.526469 -84.638657 52.603476
-0.519513 -84.624618 51.316492
-0.021303 -82.095761 53.429552
-0.221189 -83.374969 52.379314
-0.747661 -84.339119 46.180864
-0.662116 -84.428276 47.4699
-1.149113 -85.460594 45.15078
-0.866565 -84.200882 44.901018
-0.747661 -84.339119 46.180864
5.924803 -3.697235 36.439509
5.991179 -1.419489 36.098841
5.691639 -1.986048 37.062652
5.811073 -5.984025 36.749256
6.110613 -5.417466 35.785444
5.924803 -3.697235 36.439509
4.640335 -0.292576 40.153317
4.349817 -1.127908 41.069968
4.907682 -1.784053 39.55814
4.916807 0.449103 39.238464
4.640335 -0.292576 40.153317
4.584223 -4.74936 40.728172
4.33749 -3.332362 41.340221
4.854572 -4.037135 39.855055
4.584223 -4.74936 40.728172
4.807584 -6.260764 40.110236
5.131044 -3.295456 38.940203
4.907682 -1.784053 39.55814
4.854572 -4.037135 39.855055
5.351598 -4.906167 38.320219
5.404709 -2.653084 38.023304
5.131044 -3.295456 38.940203
4.171169 -19.253205 41.179519
4.302078 -17.161511 41.04273
4.028626 -21.31973 41.307381
3.876205 -23.343341 41.431296
4.298496 -20.72417 40.50309
4.171169 -19.253205 41.179519
4.028626 -21.31973 41.307381
3.402189 -36.930321 38.79911
3.614521 -35.100246 38.733734
3.386186 -35.396442 39.618972
3.411709 -38.439351 37.942704
3.402189 -36.930321 38.79911
-4.855247 -94.865021 38.074503
-4.645373 -93.912636 39.177626
-4.827562 -95.152382 39.354873
-4.810572 -94.530296 36.78293
-4.855247 -94.865021 38.074503
-4.879552 -94.177971 35.49098
-4.742038 -93.27295 36.605305
-4.810572 -94.530296 36.78293
-4.884483 -93.775368 34.185497
-4.879552 -94.177971 35.49098
-0.316742 -27.310727 47.394001
-1.011782 -28.063617 47.924957
-0.316742 -27.310727 47.394001
0.095465 -28.470993 46.942169
-0.638966 -33.91716 47.394842
-0.868476 -35.680858 47.585195
0.02275 -33.239423 46.801445
-0.391544 -32.127622 47.237143
-0.638966 -33.91716 47.394842
0.11358 -36.176784 46.441411
-0.469018 -36.772766 47.12995
-0.130766 -37.920589 46.612216
0.374233 -34.407997 46.301617
0.11358 -36.176784 46.441411
0.621656 -32.618459 46.143917
0.02275 -33.239423 46.801445
0.374233 -34.407997 46.301617
0.866657 -30.800799 46.007228
0.621656 -32.618459 46.143917
-3.769252 -54.972485 59.882644
-3.771399 -55.247221 61.142395
-3.375371 -56.222311 60.451237
-4.135737 -53.662043 59.36166
-3.769252 -54.972485 59.882644
-3.73971 -54.637133 58.670502
-4.494889 -52.351459 58.773764
-4.135737 -53.662043 59.36166
-4.425746 -51.955391 57.615795
-4.494889 -52.351459 58.773764
-4.338017 -51.560658 56.483553
-4.425746 -51.955391 57.615795
-4.018465 -52.931957 57.017275
-4.182876 -51.10199 55.417281
-4.338017 -51.560658 56.483553
-4.029789 -50.653984 54.368784
-4.182876 -51.10199 55.417281
-3.777648 -52.089218 54.836537
-3.786097 -50.142715 53.395466
-4.191325 -49.155487 53.97621
-4.029789 -50.653984 54.368784
-2.87184 -51.721379 51.17563
-3.049867 -52.17518 52.160263
-2.890986 -50.146356 50.943461
-2.87184 -51.721379 51.17563
-2.582179 -51.205984 50.270683
-2.19588 -47.499832 48.944016
-2.546229 -48.022054 49.804331
-2.250977 -49.108739 49.178198
-1.74213 -46.934799 48.154856
-2.037383 -45.848114 48.780989
-2.19588 -47.499832 48.944016
-1.344842 -46.42516 47.316578
-1.74213 -46.934799 48.154856
-1.101904 -44.739408 47.212418
-1.344842 -46.42516 47.316578
7.363018 -10.270993 31.653309
7.172176 -12.561603 31.944136
7.530655 -12.246937 30.881557
7.525727 -7.965937 31.331429
7.167248 -8.280603 32.394008
7.363018 -10.270993 31.653309
7.680634 -5.647818 30.963296
7.525727 -7.965937 31.331429
7.399203 -20.77211 29.701618
7.527084 -22.794876 28.803051
4.434496 -52.741159 18.932947
4.704201 -51.394829 20.200749
4.273123 -52.94166 20.093943
4.495329 -52.494621 17.775297
4.434496 -52.741159 18.932947
4.064251 -54.041452 17.668491
4.598289 -52.253137 16.594904
4.495329 -52.494621 17.775297
3.591669 -55.007677 15.274867
3.648358 -55.294638 16.407964
3.114942 -56.507401 15.171989
4.110003 -53.509224 15.352428
3.591669 -55.007677 15.274867
4.598289 -52.253137 16.594904
4.110003 -53.509224 15.352428
3 0 66 64
3 0 69 67
3 0 64 69
3 241 73 242
3 243 242 71
3 241 242 243
3 245 244 73
3 1 77 75
3 1 80 78
3 1 75 80
3 3 246 248
3 246 82 247
3 246 247 248
3 3 84 82
3 2 249 251
3 249 85 250
3 249 250 251
3 5 89 87
3 5 92 90
3 5 87 92
3 6 96 94
3 8 99 97
3 8 101 99
3 8 103 101
3 10 107 105
3 253 252 108
3 12 112 110
3 12 114 112
3 4 117 115
3 13 120 118
3 13 122 120
3 13 123 122
3 10 126 124
3 10 105 126
3 11 254 256
3 254 131 255
3 254 255 256
3 7 257 259
3 259 258 134
3 257 258 259
3 9 260 261
3 14 138 136
3 15 262 264
3 264 263 65
3 262 263 264
3 15 265 266
3 16 267 268
3 17 269 271
3 271 270 68
3 269 270 271
3 17 272 273
3 17 274 276
3 274 139 275
3 274 275 276
3 14 140 70
3 14 136 140
3 19 143 141
3 21 144 72
3 21 145 144
3 21 147 145
3 277 148 278
3 279 278 74
3 277 278 279
3 281 280 148
3 23 151 149
3 25 152 76
3 25 282 284
3 284 283 152
3 282 283 284
3 27 285 287
3 285 153 286
3 285 286 287
3 27 154 153
3 28 157 155
3 30 158 79
3 30 159 158
3 30 161 159
3 23 162 81
3 23 149 162
3 288 163 289
3 33 164 83
3 33 290 292
3 292 291 164
3 290 291 292
3 34 167 165
3 36 293 294
3 36 295 296
3 298 297 168
3 38 172 170
3 299 173 300
3 39 301 302
3 39 303 305
3 303 174 304
3 303 304 305
3 39 175 174
3 38 176 86
3 38 170 176
3 40 306 308
3 308 307 177
3 306 307 308
3 310 309 88
3 312 311 137
3 313 178 314
3 18 315 316
3 41 317 319
3 319 318 91
3 317 318 319
3 41 320 321
3 41 322 324
3 322 179 323
3 322 323 324
3 40 180 93
3 40 177 180
3 42 183 181
3 44 184 95
3 44 185 184
3 20 186 142
3 45 187 98
3 45 188 187
3 45 325 327
3 327 326 188
3 325 326 327
3 46 328 330
3 330 329 100
3 328 329 330
3 46 331 332
3 46 333 334
3 47 189 102
3 47 190 189
3 22 191 146
3 48 192 104
3 48 193 192
3 48 194 193
3 49 197 195
3 51 198 106
3 51 335 337
3 337 336 198
3 335 336 337
3 24 199 150
3 339 338 109
3 340 200 341
3 342 341 171
3 340 341 342
3 26 343 345
3 343 201 344
3 343 344 345
3 52 202 111
3 52 203 202
3 52 204 203
3 53 205 113
3 53 206 205
3 346 207 347
3 54 208 116
3 54 209 208
3 29 210 156
3 55 211 119
3 55 212 211
3 55 213 212
3 56 214 121
3 56 215 214
3 56 348 350
3 350 349 215
3 348 349 350
3 31 216 160
3 57 351 353
3 353 352 125
3 351 352 353
3 57 354 355
3 57 356 358
3 356 217 357
3 356 357 358
3 49 218 127
3 49 195 218
3 359 219 360
3 359 360 361
3 362 220 363
3 58 364 366
3 364 221 365
3 364 365 366
3 58 222 221
3 58 223 222
3 59 224 128
3 59 225 224
3 60 367 369
3 367 226 368
3 367 368 369
3 60 227 226
3 60 228 227
3 370 229 371
3 372 371 129
3 370 371 372
3 374 373 229
3 50 230 196
3 61 375 377
3 377 376 130
3 375 376 377
3 61 378 379
3 32 380 382
3 380 231 381
3 380 381 382
3 62 383 384
3 62 385 386
3 35 232 166
3 63 233 132
3 63 234 233
3 63 235 234
3 387 236 388
3 389 388 133
3 387 388 389
3 390 237 391
3 392 391 236
3 390 391 392
3 393 238 394
3 396 395 238
3 43 239 182
3 398 397 135
3 37 240 169
3 64 65 14
3 66 65 64
3 66 15 65
3 67 68 16
3 69 68 67
3 69 17 68
3 69 70 17
3 64 70 69
3 64 14 70
3 71 72 19
3 73 72 71
3 73 21 72
3 73 74 21
3 399 74 400
3 401 400 73
3 399 400 401
3 403 402 74
3 75 76 23
3 77 76 75
3 77 25 76
3 404 27 405
3 78 79 28
3 80 79 78
3 80 30 79
3 80 81 30
3 75 81 80
3 75 23 81
3 82 406 407
3 82 408 409
3 82 410 412
3 410 83 411
3 410 411 412
3 84 83 82
3 84 33 83
3 414 413 34
3 85 415 416
3 85 417 419
3 417 36 418
3 417 418 419
3 421 420 38
3 422 39 423
3 424 86 425
3 426 425 39
3 424 425 426
3 427 86 428
3 429 38 430
3 431 430 86
3 429 430 431
3 87 88 40
3 89 88 87
3 89 432 434
3 434 433 88
3 432 433 434
3 90 91 18
3 92 91 90
3 92 41 91
3 92 93 41
3 87 93 92
3 87 40 93
3 94 95 42
3 96 95 94
3 96 44 95
3 97 98 20
3 99 98 97
3 99 45 98
3 99 100 45
3 101 100 99
3 101 46 100
3 101 102 46
3 103 102 101
3 103 47 102
3 435 104 436
3 437 436 22
3 435 436 437
3 438 104 439
3 440 48 441
3 442 441 104
3 440 441 442
3 444 443 48
3 105 106 49
3 107 106 105
3 107 51 106
3 108 109 24
3 445 109 446
3 447 446 108
3 445 446 447
3 449 448 109
3 110 111 26
3 112 111 110
3 112 52 111
3 112 113 52
3 114 113 112
3 114 53 113
3 115 450 452
3 450 116 451
3 450 451 452
3 117 116 115
3 117 54 116
3 118 119 29
3 120 119 118
3 120 55 119
3 120 121 55
3 122 121 120
3 122 56 121
3 122 453 455
3 455 454 56
3 453 454 455
3 123 456 458
3 458 457 122
3 456 457 458
3 123 459 460
3 124 125 31
3 126 125 124
3 126 57 125
3 126 127 57
3 105 127 126
3 105 49 127
3 461 58 462
3 463 128 464
3 465 464 58
3 463 464 465
3 466 128 467
3 468 59 469
3 470 469 128
3 468 469 470
3 471 60 472
3 473 129 474
3 475 474 60
3 473 474 475
3 476 129 477
3 479 478 129
3 481 480 50
3 482 130 483
3 484 130 485
3 486 61 487
3 488 487 130
3 486 487 488
3 490 489 32
3 131 491 492
3 131 493 495
3 493 62 494
3 493 494 495
3 496 132 497
3 498 497 35
3 496 497 498
3 499 132 500
3 501 63 502
3 503 502 132
3 501 502 503
3 504 133 505
3 506 505 63
3 504 505 506
3 507 133 508
3 510 509 133
3 134 135 43
3 511 135 512
3 513 512 134
3 511 512 513
3 515 514 135
3 517 516 37
3 136 137 5
3 138 137 136
3 138 518 520
3 520 519 137
3 518 519 520
3 65 138 14
3 521 138 522
3 523 522 65
3 521 522 523
3 525 524 138
3 68 526 528
3 528 527 16
3 526 527 528
3 530 529 68
3 139 531 532
3 139 533 535
3 533 18 534
3 533 534 535
3 70 139 17
3 140 139 70
3 140 18 139
3 140 90 18
3 136 90 140
3 136 5 90
3 141 142 6
3 143 142 141
3 143 20 142
3 72 143 19
3 144 143 72
3 144 20 143
3 144 97 20
3 145 97 144
3 145 8 97
3 145 146 8
3 147 146 145
3 147 22 146
3 74 147 21
3 148 147 74
3 148 22 147
3 148 536 538
3 538 537 22
3 536 537 538
3 540 539 148
3 149 150 10
3 151 150 149
3 151 24 150
3 76 151 23
3 152 151 76
3 152 24 151
3 152 108 24
3 541 108 542
3 543 542 152
3 541 542 543
3 545 544 108
3 546 26 547
3 153 548 549
3 153 550 552
3 550 26 551
3 550 551 552
3 153 110 26
3 154 110 153
3 154 12 110
3 155 156 4
3 157 156 155
3 157 29 156
3 79 157 28
3 158 157 79
3 158 29 157
3 158 118 29
3 159 118 158
3 159 13 118
3 159 160 13
3 161 160 159
3 161 31 160
3 81 161 30
3 162 161 81
3 162 31 161
3 162 124 31
3 149 124 162
3 149 10 124
3 163 553 554
3 163 555 557
3 555 32 556
3 555 556 557
3 83 558 560
3 558 163 559
3 558 559 560
3 164 163 83
3 164 32 163
3 164 561 563
3 563 562 32
3 561 562 563
3 565 564 164
3 165 166 11
3 167 166 165
3 167 35 166
3 566 167 567
3 568 567 34
3 566 567 568
3 569 167 570
3 571 35 572
3 573 572 167
3 571 572 573
3 575 574 35
3 577 576 7
3 168 169 9
3 578 169 579
3 580 579 168
3 578 579 580
3 581 37 582
3 583 582 169
3 581 582 583
3 584 37 585
3 587 586 37
3 170 171 1
3 172 171 170
3 172 588 590
3 590 589 171
3 588 589 590
3 591 172 592
3 593 592 38
3 591 592 593
3 594 172 595
3 597 596 172
3 598 115 599
3 173 600 602
3 600 115 601
3 600 601 602
3 173 4 115
3 603 173 604
3 174 605 607
3 605 173 606
3 605 606 607
3 174 4 173
3 174 155 4
3 175 155 174
3 175 28 155
3 86 175 39
3 176 175 86
3 176 28 175
3 176 78 28
3 170 78 176
3 170 1 78
3 177 608 609
3 611 610 177
3 88 612 614
3 614 613 40
3 612 613 614
3 616 615 88
3 137 89 5
3 617 89 618
3 619 618 137
3 617 618 619
3 621 620 89
3 178 622 623
3 178 624 626
3 624 3 625
3 624 625 626
3 91 627 629
3 629 628 18
3 627 628 629
3 631 630 91
3 179 632 633
3 179 634 636
3 634 635 636
3 93 179 41
3 180 179 93
3 180 637 639
3 639 638 179
3 637 638 639
3 180 640 641
3 177 642 644
3 644 643 180
3 642 643 644
3 177 645 646
3 181 182 2
3 183 182 181
3 183 43 182
3 95 183 42
3 184 183 95
3 184 43 183
3 184 134 43
3 185 134 184
3 185 7 134
3 142 96 6
3 186 96 142
3 186 44 96
3 98 186 20
3 187 186 98
3 187 44 186
3 187 185 44
3 188 185 187
3 188 7 185
3 188 647 649
3 649 648 7
3 647 648 649
3 651 650 188
3 100 652 654
3 654 653 45
3 652 653 654
3 656 655 100
3 102 657 659
3 659 658 46
3 657 658 659
3 189 660 662
3 662 661 102
3 660 661 662
3 189 663 664
3 189 665 666
3 190 667 669
3 669 668 189
3 667 668 669
3 190 670 672
3 670 9 671
3 670 671 672
3 146 103 8
3 191 103 146
3 191 47 103
3 104 191 22
3 192 191 104
3 192 47 191
3 192 190 47
3 193 190 192
3 193 9 190
3 193 168 9
3 194 168 193
3 194 673 675
3 675 674 168
3 673 674 675
3 676 194 677
3 678 677 48
3 676 677 678
3 679 194 680
3 682 681 194
3 195 196 0
3 197 196 195
3 197 50 196
3 106 197 49
3 198 197 106
3 198 50 197
3 198 683 685
3 685 684 50
3 683 684 685
3 687 686 198
3 150 107 10
3 199 107 150
3 199 51 107
3 109 199 24
3 688 199 689
3 690 689 109
3 688 689 690
3 691 51 692
3 693 692 199
3 691 692 693
3 695 694 51
3 171 77 1
3 200 77 171
3 200 25 77
3 696 200 697
3 698 200 699
3 700 25 701
3 702 701 200
3 700 701 702
3 704 703 25
3 705 11 706
3 201 707 708
3 201 709 710
3 111 201 26
3 202 201 111
3 202 711 713
3 713 712 201
3 711 712 713
3 202 714 715
3 203 716 718
3 718 717 202
3 716 717 718
3 203 719 721
3 719 11 720
3 719 720 721
3 203 165 11
3 204 165 203
3 204 34 165
3 113 204 52
3 205 204 113
3 205 34 204
3 205 722 724
3 724 723 34
3 722 723 724
3 206 725 727
3 727 726 205
3 725 726 727
3 206 728 729
3 207 730 731
3 207 732 734
3 732 27 733
3 732 733 734
3 116 735 737
3 735 207 736
3 735 736 737
3 208 207 116
3 208 27 207
3 208 154 27
3 209 154 208
3 209 12 154
3 156 117 4
3 210 117 156
3 210 54 117
3 119 210 29
3 211 210 119
3 211 54 210
3 211 209 54
3 212 209 211
3 212 12 209
3 212 114 12
3 213 114 212
3 213 53 114
3 121 213 55
3 214 213 121
3 214 53 213
3 214 206 53
3 215 206 214
3 215 738 740
3 740 739 206
3 738 739 740
3 215 741 742
3 744 743 215
3 746 745 56
3 160 123 13
3 216 123 160
3 216 747 749
3 749 748 123
3 747 748 749
3 125 216 31
3 750 216 751
3 752 751 125
3 750 751 752
3 754 753 216
3 217 755 756
3 217 757 759
3 757 16 758
3 757 758 759
3 127 217 57
3 218 217 127
3 218 16 217
3 218 67 16
3 195 67 218
3 195 0 67
3 219 760 762
3 760 761 762
3 219 763 765
3 763 2 764
3 763 764 765
3 220 766 767
3 220 768 770
3 768 769 770
3 771 220 772
3 221 773 775
3 773 220 774
3 773 774 775
3 221 776 778
3 778 777 220
3 776 777 778
3 221 779 781
3 779 219 780
3 779 780 781
3 222 219 221
3 222 2 219
3 222 181 2
3 223 181 222
3 223 42 181
3 128 223 58
3 224 223 128
3 224 42 223
3 224 94 42
3 225 94 224
3 225 6 94
3 782 59 783
3 226 784 785
3 226 786 788
3 786 59 787
3 786 787 788
3 226 225 59
3 227 225 226
3 227 6 225
3 227 141 6
3 228 141 227
3 228 19 141
3 129 228 60
3 229 228 129
3 229 19 228
3 229 71 19
3 789 71 790
3 791 790 229
3 789 790 791
3 793 792 71
3 196 66 0
3 230 66 196
3 230 15 66
3 794 230 795
3 796 795 50
3 794 795 796
3 797 230 798
3 799 15 800
3 801 800 230
3 799 800 801
3 803 802 15
3 130 804 805
3 807 806 130
3 231 808 809
3 231 810 812
3 810 61 811
3 810 811 812
3 813 231 814
3 815 814 32
3 813 814 815
3 816 231 817
3 818 61 819
3 820 819 231
3 818 819 820
3 822 821 61
3 166 131 11
3 232 131 166
3 232 62 131
3 132 232 35
3 233 232 132
3 233 62 232
3 233 823 825
3 825 824 62
3 823 824 825
3 234 826 828
3 828 827 233
3 826 827 828
3 234 829 830
3 234 831 832
3 235 833 835
3 835 834 234
3 833 834 835
3 235 836 837
3 133 235 63
3 236 235 133
3 236 838 840
3 840 839 235
3 838 839 840
3 236 841 843
3 841 178 842
3 841 842 843
3 237 178 236
3 237 3 178
3 844 237 845
3 238 846 848
3 846 237 847
3 846 847 848
3 238 3 237
3 238 84 3
3 849 84 850
3 851 850 238
3 849 850 851
3 852 33 853
3 854 853 84
3 852 853 854
3 855 33 856
3 858 857 33
3 182 85 2
3 239 85 182
3 239 36 85
3 135 239 43
3 859 239 860
3 861 860 135
3 859 860 861
3 862 36 863
3 864 863 239
3 862 863 864
3 866 865 36
3 868 867 7
3 169 869 871
3 871 870 9
3 869 870 871
3 240 872 874
3 874 873 169
3 872 873 874
3 240 875 876
3 877 240 878
3 879 878 37
3 877 878 879
3 880 240 881
3 883 882 240
