ply
format ascii 1.0
element vertex 981
property float x
property float y
property float z
element face 981
property list uchar int vertex_index
end_header
-53.472187 -22.486866 -4.517107
-61.878792 -48.149025 15.693919
-59.120079 -6.976874 -2.553387
-62.530708 -33.942303 4.647147
-48.557873 -48.148144 4.303329
-43.6423 -49.684818 12.923984
-54.178661 -45.423717 10.839548
-52.286995 -40.303383 4.676621
-63.574371 -40.560478 9.328772
-52.158283 -3.330008 -14.868406
-55.094238 7.274909 -11.911211
-58.094482 -14.403714 -5.37992
-55.702503 -48.336136 22.64855
-59.154785 -28.762531 -0.981785
-50.04525 -57.764935 8.768138
-57.188637 -53.303886 2.279256
-58.345226 -51.925762 15.970034
-53.88855 -49.62566 14.269701
-59.364635 -47.252289 12.784747
-59.001476 -43.186241 9.617198
-62.817101 -44.538738 12.835876
-45.677299 -48.638115 8.124659
-44.673332 -53.590202 8.535325
-48.607841 -53.103996 5.738
-53.468292 -56.30592 5.871509
-52.780842 -50.840206 2.827708
-56.311241 -48.401035 0.764503
-51.606224 -46.66787 1.635298
-57.466785 -37.264896 4.505646
-51.107903 -38.131405 2.211333
-55.768444 -34.736252 1.487764
-53.432312 -32.534496 -0.91557
-61.671734 -31.483047 1.35396
-59.116852 -10.951662 -4.903724
-54.634968 -9.605974 -9.407963
-49.630341 12.823126 -18.145407
-8.89439 6.363533 66.911011
-42.195271 -64.354874 12.767678
-48.935616 -47.475212 12.218507
-49.297569 -45.348 7.887938
-49.212563 -43.746307 4.471154
-53.663597 -43.286324 7.233258
-58.5355 -40.990528 6.644988
-63.43943 -37.614025 6.57529
-55.780174 -4.432349 -8.207123
-57.634483 0.057298 -7.989505
-54.966988 2.319055 -13.392604
-49.244789 -0.897076 47.104362
-44.9398 1.347727 47.423683
-60.471458 -50.918819 18.607113
-6.636572 7.371478 65.472694
-7.652944 7.664883 61.153137
-60.553764 -21.22073 -2.692555
-55.679016 -18.423809 -4.283296
-61.934742 -17.323132 -2.094316
-60.196697 -49.921967 22.951725
-60.161919 -48.102379 19.208662
-56.150879 -45.050907 18.298161
-61.502003 -43.831299 15.996695
-63.027565 -39.988365 13.035013
-65.649185 -30.04385 4.889356
-65.347816 -27.16897 1.790311
-63.3932 -23.838669 -1.358135
-56.010498 -25.890142 -2.956021
-43.858566 -60.968605 12.123556
-44.939415 -57.821705 11.67314
-49.680305 -62.362144 11.316851
-54.443737 -61.761883 9.395622
-58.016071 -59.597145 6.211515
-61.230225 -55.049274 1.870542
-61.186218 -49.219841 0.301028
-49.191521 -42.395378 1.512156
-50.376251 -29.617941 -2.969075
-51.756012 8.394444 -13.236914
-52.771801 10.222572 -17.333084
-50.767532 -24.322849 -5.041033
-51.047089 -21.934994 -6.076172
-60.213055 -50.269951 15.685915
-59.055431 -50.027203 14.3063
-60.912579 -48.038891 13.927866
-61.208832 -46.019123 12.64047
-62.447132 -46.354836 14.322795
-47.033916 -48.550201 6.014359
-46.576431 -50.968449 6.585202
-48.369637 -50.5481 4.767664
-50.606689 -52.171234 4.138764
-50.376106 -49.587032 3.456741
-52.321831 -48.700382 2.392852
-50.210308 -47.569263 3.122931
-60.12146 -35.56369 4.516023
-56.64381 -35.721073 2.953114
-59.451965 -34.11771 2.887754
-58.677185 -32.993038 1.357144
-62.063274 -32.728931 2.972958
-58.905151 -9.409617 -3.082591
-56.556896 -10.153948 -7.100687
-56.740101 -8.241391 -5.430929
-54.277821 -47.424896 12.68407
-51.479382 -48.13398 13.381752
-51.54464 -46.598076 11.455294
-49.262482 -46.311901 9.979694
-51.670418 -45.39402 9.60979
-51.359169 -44.278633 7.8603
-53.952831 -44.41441 9.192521
-61.363129 -41.993237 9.243349
-58.791676 -42.077187 7.997202
-61.337158 -40.490662 7.638048
-60.951477 -39.327614 6.499784
-63.586548 -38.883743 7.737136
-55.79549 5.512199 -9.740255
-56.733459 4.019845 -9.894562
-55.747658 5.175781 -12.452909
-53.38192 2.849638 -16.572779
-54.494118 5.706428 -15.713112
-47.087502 0.942226 47.14312
-7.339723 6.978323 66.76944
-6.65212 3.507977 66.547615
-7.266916 3.972437 63.195812
-36.236187 33.240799 -2.531403
-63.206841 -20.452198 -1.627194
-61.162548 -19.364897 -2.460386
-63.236534 -18.43313 -1.21447
-56.007347 -48.51453 25.121418
-58.657509 -49.171547 25.170856
-58.266468 -49.19236 22.727036
-60.134533 -49.278145 20.873119
-58.027203 -48.300392 20.537426
-57.038586 -43.041809 16.226862
-58.663879 -44.337997 16.69191
-60.095936 -42.088524 15.246829
-62.282818 -41.879917 14.618677
-65.537918 -28.667667 3.229002
-65.201294 -23.409061 0.801109
-64.288124 -21.835648 -0.687217
-61.85725 -22.502949 -2.408901
-41.925529 -51.510632 12.956114
-47.221321 -55.782837 8.139881
-44.920326 -56.041222 9.875586
-47.775795 -57.973125 10.566363
-47.645031 -59.826336 11.834691
-50.442276 -59.938934 11.13089
-52.199585 -62.336597 10.710682
-52.603844 -59.815742 9.496183
-55.269737 -55.162823 3.881546
-55.814014 -57.985645 6.073642
-57.481514 -56.437531 4.03054
-59.411182 -57.610725 4.404885
-59.540325 -54.196037 2.271684
-61.529652 -52.057518 1.212875
-59.363201 -51.254841 1.295794
-54.896538 -46.586185 -0.169361
-50.465973 -41.837872 4.559378
-49.199356 -42.928757 2.773057
-49.848774 -40.798576 3.380653
-50.216515 -37.158535 0.94765
-49.096153 -39.288948 0.786674
-56.078972 -30.786793 -1.210059
-51.774658 -31.184652 -1.980383
-54.69804 -29.218689 -1.922963
-53.140491 -27.784948 -2.861697
-57.719292 -27.281933 -1.780043
-56.72163 -16.330839 -4.658289
-53.120766 -17.78035 -6.679204
-54.268414 -15.995313 -6.864606
-53.935749 -3.762375 -11.537784
-53.111938 -6.345865 -11.623419
-51.450909 -5.766744 -14.747141
-51.379322 12.2177 -17.374546
-56.392445 -51.024158 15.047415
-56.791908 -48.852066 13.629622
-56.933586 -46.204903 12.066744
-56.730934 -44.276512 10.284184
-59.324341 -44.916428 11.485106
-61.473633 -43.959469 11.102332
-63.267151 -42.610672 11.041921
-40.356258 29.877314 1.494616
-44.625027 -49.007759 10.535297
-43.334961 -51.392975 10.445387
-44.882072 -51.189217 8.447995
-46.564049 -53.527527 7.091667
-49.199837 -55.565193 6.836287
-51.764294 -57.277782 7.17978
-50.962078 -54.767883 5.765261
-53.135426 -53.733776 3.941873
-55.082561 -51.989723 2.497474
-56.918964 -50.508869 1.36761
-54.637413 -49.538349 1.937491
-53.866386 -47.657814 1.225139
-52.439476 -45.768257 0.190142
-54.745667 -38.871819 4.555575
-51.68924 -39.120201 3.46015
-54.097851 -37.491798 3.20633
-53.239624 -36.441612 1.736062
-52.331409 -35.277718 0.725029
-51.106796 -34.227699 -0.449476
-54.830475 -33.436848 0.392917
-57.644997 -31.782383 0.17146
-60.475849 -30.149197 -0.024647
-59.057343 -12.326027 -5.772941
-55.474468 -14.086947 -7.398969
-56.495781 -11.920674 -8.031734
-54.341461 -11.600512 -10.275013
-45.409275 -49.423595 15.002304
-51.095539 -49.915733 15.360349
-48.532066 -48.740601 14.309224
-46.103844 -48.343525 12.719872
-46.757313 -47.252686 10.288872
-47.374458 -46.813946 7.886456
-47.926495 -46.402424 5.912598
-48.691124 -46.000153 4.370482
-49.175255 -44.618458 6.20584
-50.960186 -43.19239 6.041869
-53.14901 -41.801601 5.728537
-56.330139 -43.189259 8.449264
-56.011986 -42.341152 6.874295
-55.364479 -40.589108 5.556831
-58.094067 -39.166687 5.585519
-60.749031 -37.744957 5.518647
-63.059956 -35.96014 5.722346
-57.745068 -5.523427 -5.254713
-58.43866 -3.450355 -5.413349
-56.855408 -2.304854 -8.441501
-55.02597 -1.38114 -11.407118
-57.43568 2.169572 -7.804816
-56.420105 1.421263 -10.793973
-53.311096 -0.601486 -14.260023
-51.814922 0.080859 -17.189011
-49.828854 0.022231 45.981243
-61.171944 -49.796947 17.242243
-6.62021 10.622833 63.661613
-6.485423 3.734825 64.959244
-6.731331 7.697365 63.546242
-6.938727 10.422005 61.091358
-57.009022 -21.76828 -3.556169
-54.605427 -20.291626 -4.614484
-58.061089 -19.897961 -3.306043
-58.936298 -17.974142 -2.878668
-60.154579 -15.816729 -3.130785
-62.41909 -15.14987 -1.686387
-61.073326 -13.560895 -3.434109
-61.241871 -11.868407 -3.029833
-60.165516 -50.064285 25.252583
-60.849133 -50.602467 20.785149
-61.195885 -49.496788 19.143787
-61.593792 -48.18885 17.702435
-55.695965 -46.914268 20.111511
-58.094227 -46.586292 18.350906
-60.516499 -46.277191 17.254408
-62.475697 -46.023632 16.174517
-63.091175 -44.125008 14.842636
-63.513451 -42.145355 13.053203
-64.136292 -40.344608 11.257135
-64.429672 -38.497562 9.563969
-64.843224 -36.73769 8.18108
-64.814552 -35.313545 7.103813
-64.542915 -33.718349 5.864241
-65.526901 -31.582012 6.330911
-64.446648 -32.179329 4.493865
-64.174522 -30.923716 2.774732
-63.762939 -29.550243 1.05309
-62.948261 -27.97818 -0.116118
-65.636673 -24.929152 2.523415
-64.704849 -25.565544 0.246117
-61.69347 -26.248856 -1.138985
-59.923439 -24.863297 -2.368235
-58.353493 -23.385965 -3.056005
-54.586914 -24.236341 -3.695464
-43.344311 -62.726524 12.605397
-45.399372 -63.022217 11.596243
-42.527409 -53.559692 10.412519
-42.286224 -55.790733 11.54976
-44.703728 -59.324211 12.191259
-46.866192 -61.556732 11.74908
-47.531445 -63.766102 10.904024
-54.261421 -59.146645 7.550988
-56.256325 -60.820698 7.51597
-58.732964 -48.819664 0.531275
-49.534866 -45.294971 2.605982
-50.173103 -44.503731 1.032805
-50.604187 -43.865074 -0.251142
-49.491058 -40.017403 2.143424
-49.231071 -41.67395 0.211638
-51.806999 -26.030832 -3.927941
-52.066589 -19.86162 -6.298632
-54.971397 -7.055907 -8.53776
-52.620766 -8.994596 -11.916922
-53.582466 8.688316 -12.102585
-50.815174 10.942293 -15.517576
-52.746803 10.804741 -14.458593
-54.101112 8.881483 -14.392649
-52.747337 6.785321 -18.561932
-6.851895 1.853684 66.25579
-7.257805 3.420924 67.058895
-36.152561 32.80517 -3.417445
-37.818478 32.991413 -4.365518
-34.589433 33.022806 -1.668294
-36.152561 32.80517 -3.417445
-63.778553 -19.101138 -0.647989
-63.221688 -19.442664 -1.420832
-63.763706 -20.110672 -0.854351
-57.718212 -41.890738 15.420246
-56.015606 -42.528696 16.082065
-59.246887 -41.414095 14.930229
-58.567261 -42.565167 15.736846
-57.718212 -41.890738 15.420246
-60.582977 -41.138647 14.671096
-59.246887 -41.414095 14.930229
-64.304348 -20.802397 -0.384362
-64.495289 -21.629822 0.153466
-63.763706 -20.110672 -0.854351
-63.747482 -21.143923 -1.157205
-64.304348 -20.802397 -0.384362
-42.783914 -50.597725 12.940049
-42.415822 -51.052267 14.281867
-43.274208 -50.13936 14.265802
-55.359243 -46.018684 -0.931253
-54.02939 -45.705215 -0.71826
-49.400357 -37.727426 0.114273
-49.774056 -36.628414 0.273319
-57.368836 -51.47496 15.508724
-56.2258 -51.919662 16.017002
-57.202191 -52.370464 16.478312
-41.708742 30.00529 0.82235
-40.812799 29.627302 2.015088
-53.587427 -10.361585 -11.007417
-53.440674 -11.358854 -11.440942
-54.488214 -10.603243 -9.841488
-42.08456 -64.66576 12.257746
-41.911283 -65.022053 13.317079
-42.719383 -64.059297 11.919334
-42.08456 -64.66576 12.257746
-46.763982 -49.796724 15.672456
-45.327105 -49.964412 16.211205
-52.492045 -49.770696 14.815025
-52.465143 -50.603436 15.745958
-53.861649 -50.458399 15.200634
-58.50095 -3.322121 -4.341685
-58.822025 -4.150364 -4.150973
-57.244946 -1.123778 -8.215503
-57.592667 -1.945242 -6.963276
-57.982205 -0.764166 -6.737278
-56.881922 2.762326 -7.855876
-56.993063 1.636452 -6.959077
-51.901287 1.768773 -18.509777
-52.551306 3.136579 -18.194634
-50.206282 -2.149014 47.141977
-49.707958 -2.892239 47.514099
-49.536822 -0.437422 46.542803
-50.498314 -1.68936 46.580417
-50.206282 -2.149014 47.141977
-48.346659 0.566532 46.653841
-48.638691 1.026185 46.092281
-49.536822 -0.437422 46.542803
-45.138195 1.986004 47.143051
-46.212046 1.783253 47.002769
-46.013651 1.144976 47.283401
-44.144422 1.993311 47.720716
-45.138195 1.986004 47.143051
-59.9869 -51.267983 17.8315
-59.628155 -51.553531 18.63749
-60.821701 -50.357883 17.924678
-60.337143 -50.707047 17.149065
-59.9869 -51.267983 17.8315
-8.708858 8.091638 66.177833
-9.42949 7.541787 65.768006
-6.916683 8.901594 65.319992
-7.268259 8.705016 65.968365
-6.988148 7.1749 66.121067
-6.628391 8.997155 64.567154
-6.908502 10.527272 64.414451
-6.916683 8.901594 65.319992
-6.330913 2.102108 63.869587
-6.318474 1.940629 64.800644
-7.523337 8.809551 59.666742
-7.166228 10.188112 59.635852
-7.295835 9.043444 61.122248
-62.409111 -14.237454 -1.362907
-62.597332 -15.060205 -0.741498
-61.736229 -13.442966 -2.236768
-61.746208 -14.355383 -2.560248
-62.409111 -14.237454 -1.362907
-61.820502 -12.596722 -2.03463
-61.157599 -12.714651 -3.231971
-61.736229 -13.442966 -2.236768
-60.32723 -50.535992 22.888239
-60.31164 -50.607151 24.038668
-60.181106 -49.993126 24.102154
-60.522915 -50.262217 21.868437
-60.653448 -50.876242 21.804951
-60.32723 -50.535992 22.888239
-54.788925 -45.383843 19.304119
-55.132687 -44.452282 18.178511
-55.923422 -45.982588 19.204836
-54.561468 -46.315523 20.210794
-54.788925 -45.383843 19.304119
-64.36903 -37.430223 9.76737
-64.011065 -38.380384 10.527137
-64.575806 -36.550287 9.075925
-64.636448 -37.617626 8.872525
-64.36903 -37.430223 9.76737
-64.985588 -34.211652 7.344815
-64.854668 -34.921619 7.938097
-64.849769 -33.414055 6.725029
-64.678733 -34.515947 6.484027
-64.985588 -34.211652 7.344815
-65.588043 -30.812931 5.610133
-65.458244 -30.491535 6.557924
-65.519386 -29.722454 5.837146
-65.20134 -24.014744 2.575124
-65.009537 -24.883658 3.392215
-43.601439 -61.847564 12.364477
-42.41044 -61.853872 13.122974
-42.667568 -60.974913 12.882054
-43.53643 -57.701411 12.190896
-42.209835 -56.685924 12.129206
-43.61282 -56.806219 11.61145
-44.821571 -58.572958 11.932199
-43.418587 -58.452663 12.449956
-43.53643 -57.701411 12.190896
-49.881319 -63.34293 10.710285
-48.806889 -64.044909 10.503871
-48.605875 -63.064123 11.110437
-53.422979 -62.939321 9.315411
-52.300904 -63.226678 9.972941
-53.321661 -62.04924 10.053152
-54.470907 -62.22294 8.552989
-53.422979 -62.939321 9.315411
-57.292877 -60.487806 6.087423
-56.413004 -61.099583 6.739651
-57.136198 -60.208922 6.863743
-58.277216 -59.898884 5.482714
-57.292877 -60.487806 6.087423
-60.589374 -56.691055 2.38595
-59.679853 -57.971781 3.653122
-60.320703 -56.329999 3.137714
-61.226648 -55.358747 0.9953
-60.589374 -56.691055 2.38595
-61.789041 -53.909727 0.889988
-61.226648 -55.358747 0.9953
-62.045315 -49.465636 -0.10629
-62.217032 -50.884474 0.349633
-61.357935 -50.63868 0.756951
-61.888385 -48.229866 -0.402152
-62.045315 -49.465636 -0.10629
-49.196023 -41.205272 -0.525921
-49.163612 -40.481449 0.499156
-49.128564 -40.012771 -0.238403
-50.116363 -42.268493 -0.647335
-49.196023 -41.205272 -0.525921
-51.476189 -32.856123 -1.337257
-50.313431 -33.702725 -1.10421
-52.269554 -33.381097 -0.682523
-49.266537 -30.659302 -2.989344
-49.96574 -31.442657 -2.494998
-51.075455 -30.401297 -2.474729
-48.875328 -29.823315 -3.778738
-49.266537 -30.659302 -2.989344
-49.822244 -28.791517 -3.600775
-48.875328 -29.823315 -3.778738
-51.66462 -18.645346 -7.630945
-52.090287 -17.67722 -7.866129
-53.751085 -14.853191 -8.323947
-54.319214 -13.904322 -8.540672
-51.749796 -8.666898 -13.315793
-52.866352 -7.67023 -11.77017
-51.995382 -7.342533 -13.169042
-51.607256 -9.723021 -13.454822
-51.749796 -8.666898 -13.315793
-51.845343 6.771546 -12.329937
-51.143696 5.592558 -13.330436
-52.669239 8.54138 -12.669749
-52.758569 6.918482 -11.762772
-51.845343 6.771546 -12.329937
-50.222758 11.88271 -16.831491
-50.008733 9.93461 -16.46797
-49.416317 10.875026 -17.781886
-49.816084 -24.116994 -5.951119
-49.617973 -25.277707 -5.294646
-49.955862 -22.923066 -6.468688
-49.816084 -24.116994 -5.951119
-50.907311 -23.128922 -5.558602
-50.224579 -21.714516 -7.133281
-49.955862 -22.923066 -6.468688
-42.122754 -64.707127 13.91444
-41.911283 -65.022053 13.317079
-41.838766 -65.374306 14.46384
-57.744213 0.086075 -6.802537
-57.982205 -0.764166 -6.737278
-56.264475 4.766022 -9.817408
-56.530811 3.687463 -8.900749
-56.061827 4.433639 -8.823595
-53.107405 4.564974 -17.7648
-52.551306 3.136579 -18.194634
-53.938019 4.278033 -16.142945
-48.852209 -1.725832 47.179359
-49.707958 -2.892239 47.514099
-47.773566 -0.806181 47.198738
-48.166145 0.022575 47.123741
-48.852209 -1.725832 47.179359
-46.622141 0.00885 46.801646
-47.773566 -0.806181 47.198738
-45.54829 0.2116 46.941927
-46.013651 1.144976 47.283401
-46.622141 0.00885 46.801646
-60.146856 -51.243873 19.50436
-59.628155 -51.553531 18.63749
-7.601606 5.156097 67.169808
-8.117057 6.670928 66.840226
-8.37894 4.848702 67.240593
-6.995921 5.24315 66.658527
-7.601606 5.156097 67.169808
-7.257805 3.420924 67.058895
-7.149609 2.469632 62.04128
-6.721659 2.220915 62.987871
-8.04347 3.989857 61.997305
-7.149609 2.469632 62.04128
-8.236484 5.83608 60.975967
-7.45993 5.81866 62.174475
-8.04347 3.989857 61.997305
-8.236781 7.53325 59.7043
-8.236484 5.83608 60.975967
-37.835197 33.322665 -3.298507
-37.818478 32.991413 -4.365518
-36.420668 33.056999 -1.50097
-37.835197 33.322665 -3.298507
-34.847246 32.975077 -0.675248
-36.420668 33.056999 -1.50097
-34.847246 32.975077 -0.675248
-34.589433 33.022806 -1.668294
-57.332428 -48.843038 25.146137
-57.561014 -48.518625 26.220539
-56.235934 -48.190117 26.19582
-55.57654 -43.447733 17.142862
-56.015606 -42.528696 16.082065
-56.594733 -44.046358 17.262512
-55.132687 -44.452282 18.178511
-55.57654 -43.447733 17.142862
-61.676418 -41.034343 14.35702
-61.189377 -41.98422 14.932753
-60.582977 -41.138647 14.671096
-62.048792 -40.088567 13.565188
-62.655192 -40.934141 13.826845
-61.676418 -41.034343 14.35702
-65.547531 -28.936715 5.237709
-65.519386 -29.722454 5.837146
-65.491897 -28.248624 4.407532
-65.593552 -29.355759 4.059179
-65.547531 -28.936715 5.237709
-65.543388 -27.514308 3.6959
-65.491897 -28.248624 4.407532
-65.448337 -26.76496 2.976554
-65.442867 -27.918319 2.509657
-65.543388 -27.514308 3.6959
-64.951874 -22.416528 0.897629
-64.98365 -23.254698 1.713971
-64.744709 -22.622355 0.056946
-64.951874 -22.416528 0.897629
-64.495289 -21.629822 0.153466
-42.841616 -60.106583 12.663803
-42.667568 -60.974913 12.882054
-41.493364 -51.801897 14.308027
-42.415822 -51.052267 14.281867
-41.329284 -52.55372 13.026866
-41.493364 -51.801897 14.308027
-56.240982 -46.866184 -0.282349
-56.948334 -47.773609 0.184583
-55.60389 -47.49361 0.297571
-56.240982 -46.866184 -0.282349
-55.359243 -46.018684 -0.931253
-48.840176 -38.792633 0.033785
-49.656334 -38.223742 0.867162
-49.400357 -37.727426 0.114273
-49.128564 -40.012771 -0.238403
-48.840176 -38.792633 0.033785
-52.66411 -16.784702 -7.95883
-52.090287 -17.67722 -7.866129
-53.69459 -16.887831 -6.771905
-51.164867 -7.052972 -14.730903
-51.995382 -7.342533 -13.169042
-52.281424 -6.056304 -13.18528
-51.032821 7.179369 -14.307416
-51.143696 5.592558 -13.330436
-50.587691 12.906217 -18.888808
-50.504832 12.520413 -17.759977
-49.7132 13.20893 -19.274238
-50.972473 11.641413 -19.059238
-50.587691 12.906217 -18.888808
-51.668712 10.643849 -19.038507
-52.075562 11.220136 -17.353815
-50.972473 11.641413 -19.059238
-51.559798 9.017532 -19.25913
-51.668712 10.643849 -19.038507
-55.113596 -51.157648 15.589491
-56.2258 -51.919662 16.017002
-55.140498 -50.324909 14.658558
-53.861649 -50.458399 15.200634
-55.113596 -51.157648 15.589491
-55.088974 4.466316 -9.191807
-56.061827 4.433639 -8.823595
-54.974289 5.835375 -9.936386
-55.088974 4.466316 -9.191807
-54.623663 6.71673 -11.021864
-55.444864 6.393554 -10.825733
-54.974289 5.835375 -9.936386
-39.385498 29.373911 2.660187
-40.812799 29.627302 2.015088
-38.905693 29.897495 2.151479
-39.385498 29.373911 2.660187
-54.98851 -47.761656 26.307645
-56.235934 -48.190117 26.19582
-54.761902 -48.015861 25.20401
-54.98851 -47.761656 26.307645
-54.60948 -47.926665 23.967576
-55.854925 -48.425333 23.884984
-54.761902 -48.015861 25.20401
-52.80086 -45.296251 -0.538508
-54.02939 -45.705215 -0.71826
-53.668007 -46.177221 0.01039
-50.831502 -35.688006 0.162009
-49.774056 -36.628414 0.273319
-51.273962 -36.218126 0.83634
-51.719103 -34.752708 0.137777
-50.219196 -35.162996 -0.425243
-50.831502 -35.688006 0.162009
-54.82987 -12.821186 -8.857055
-54.319214 -13.904322 -8.540672
-55.985124 -13.003811 -7.715352
-53.752711 -12.661105 -9.978694
-54.82987 -12.821186 -8.857055
-55.418621 -11.760593 -9.153374
-52.893551 -12.440176 -11.327462
-53.752711 -12.661105 -9.978694
-52.893551 -12.440176 -11.327462
-53.440674 -11.358854 -11.440942
-51.019388 -4.24485 -16.41744
-51.342135 -2.989059 -16.330772
-48.856909 12.130726 -18.845047
-49.416317 10.875026 -17.781886
-48.939138 13.642367 -19.53253
-48.856909 12.130726 -18.845047
-49.7132 13.20893 -19.274238
-48.939138 13.642367 -19.53253
-9.733439 5.989061 66.595238
-9.42949 7.541787 65.768006
-9.194602 4.743772 67.412312
-9.733439 5.989061 66.595238
-8.37894 4.848702 67.240593
-9.194602 4.743772 67.412312
-44.157696 -50.008749 15.304962
-45.327105 -49.964412 16.211205
-44.525787 -49.554206 13.963144
-43.274208 -50.13936 14.265802
-44.157696 -50.008749 15.304962
-51.062727 -50.605764 16.372941
-52.465143 -50.603436 15.745958
-49.607115 -50.042793 15.851479
-51.062727 -50.605764 16.372941
-48.325378 -49.455227 15.325916
-49.607115 -50.042793 15.851479
-49.813803 -49.328167 14.834786
-46.97067 -49.082098 14.655764
-46.763982 -49.796724 15.672456
-48.325378 -49.455227 15.325916
-58.475229 -5.1869 -4.071655
-58.432574 -6.250151 -3.90405
-59.162735 -5.913623 -2.720992
-58.091864 -4.486891 -5.334031
-58.475229 -5.1869 -4.071655
-58.822025 -4.150364 -4.150973
-58.384293 -2.517993 -5.4492
-58.50095 -3.322121 -4.341685
-57.647034 -2.877605 -6.927425
-58.384293 -2.517993 -5.4492
-57.592667 -1.945242 -6.963276
-57.644812 1.142212 -6.710192
-56.993063 1.636452 -6.959077
-57.535082 1.113435 -7.897161
-57.744213 0.086075 -6.802537
-57.644812 1.142212 -6.710192
-57.08457 3.094709 -8.849689
-56.881922 2.762326 -7.855876
-56.530811 3.687463 -8.900749
-51.918541 -1.624799 -16.02658
-51.342135 -2.989059 -16.330772
-52.73469 -1.965747 -14.564215
-51.170454 -1.283626 -17.491074
-51.918541 -1.624799 -16.02658
-52.563009 -0.260313 -15.724517
-50.484591 -0.943054 -18.962457
-51.170454 -1.283626 -17.491074
-51.117788 0.384383 -18.817892
-52.598421 1.465248 -16.880895
-51.901287 1.768773 -18.509777
-50.484591 -0.943054 -18.962457
-51.117788 0.384383 -18.817892
-50.834742 -1.232235 45.930017
-50.498314 -1.68936 46.580417
-49.804821 -0.062626 45.249363
-50.834742 -1.232235 45.930017
-48.477571 0.926041 45.20534
-49.804821 -0.062626 45.249363
-48.477571 0.926041 45.20534
-48.638691 1.026185 46.092281
-47.268015 1.486182 46.67322
-48.346659 0.566532 46.653841
-48.166145 0.022575 47.123741
-47.268015 1.486182 46.67322
-46.212046 1.783253 47.002769
-44.27244 0.396206 46.71989
-45.54829 0.2116 46.941927
-43.780355 1.138813 47.627697
-44.27244 0.396206 46.71989
-44.144422 1.993311 47.720716
-43.780355 1.138813 47.627697
-58.11166 -52.570383 16.845111
-57.202191 -52.370464 16.478312
-58.923784 -51.771454 16.51296
-58.11166 -52.570383 16.845111
-59.857698 -50.943548 16.370901
-59.27914 -51.097856 15.827974
-58.923784 -51.771454 16.51296
-60.692499 -50.033449 16.464079
-59.857698 -50.943548 16.370901
-60.337143 -50.707047 17.149065
-7.931524 8.399033 66.107048
-8.708858 8.091638 66.177833
-8.117057 6.670928 66.840226
-7.931524 8.399033 66.107048
-7.268259 8.705016 65.968365
-6.749306 12.086032 63.657873
-6.908502 10.527272 64.414451
-6.659223 11.926438 62.529339
-6.749306 12.086032 63.657873
-6.401822 1.827205 65.59483
-6.851895 1.853684 66.25579
-6.568772 3.621401 65.753429
-6.401822 1.827205 65.59483
-6.318474 1.940629 64.800644
-6.876169 3.853631 64.077528
-6.330913 2.102108 63.869587
-6.721659 2.220915 62.987871
-6.818482 11.826024 61.244211
-6.659223 11.926438 62.529339
-6.779469 10.522419 62.376486
-7.203987 11.518491 59.832128
-6.818482 11.826024 61.244211
-7.203987 11.518491 59.832128
-7.166228 10.188112 59.635852
-7.523337 8.809551 59.666742
-8.236781 7.53325 59.7043
-41.434343 30.479076 0.129938
-41.708742 30.00529 0.82235
-40.050939 30.557976 0.70546
-41.434343 30.479076 0.129938
-38.905693 29.897495 2.151479
-40.050939 30.557976 0.70546
-63.396012 -18.281855 -0.484916
-63.778553 -19.101138 -0.647989
-63.240966 -17.506718 -0.860135
-63.396012 -18.281855 -0.484916
-62.59007 -16.95172 -1.300059
-62.585638 -17.878131 -1.654393
-63.240966 -17.506718 -0.860135
-62.832245 -15.865089 -1.096094
-62.597332 -15.060205 -0.741498
-62.176916 -16.236501 -1.890351
-62.59007 -16.95172 -1.300059
-62.832245 -15.865089 -1.096094
-61.508738 -11.979879 -1.670651
-61.820502 -12.596722 -2.03463
-61.085154 -11.272039 -2.485082
-61.508738 -11.979879 -1.670651
-60.022644 -10.813666 -3.422027
-60.179361 -11.410035 -3.966779
-61.085154 -11.272039 -2.485082
-59.916793 -10.042644 -2.511461
-59.011001 -10.18064 -3.993158
-60.022644 -10.813666 -3.422027
-59.590698 -9.299247 -1.921603
-59.916793 -10.042644 -2.511461
-59.698162 -8.082876 -1.657001
-59.012615 -8.193245 -2.817989
-59.590698 -9.299247 -1.921603
-59.260534 -7.138578 -1.57562
-59.698162 -8.082876 -1.657001
-59.162735 -5.913623 -2.720992
-59.260534 -7.138578 -1.57562
-58.807031 -48.874147 26.288933
-57.561014 -48.518625 26.220539
-59.561035 -49.320516 26.329796
-58.807031 -48.874147 26.288933
-59.411513 -49.617916 25.21172
-60.107029 -49.914335 26.42072
-59.561035 -49.320516 26.329796
-60.030985 -50.647737 25.199912
-60.107029 -49.914335 26.42072
-60.030985 -50.647737 25.199912
-60.31164 -50.607151 24.038668
-60.335694 -51.085697 20.593379
-60.653448 -50.876242 21.804951
-60.660296 -50.760643 19.696131
-60.146856 -51.243873 19.50436
-60.335694 -51.085697 20.593379
-54.40836 -47.708378 22.646535
-54.60948 -47.926665 23.967576
-54.405091 -46.997444 21.378016
-54.561468 -46.315523 20.210794
-55.699234 -47.625202 21.380031
-54.40836 -47.708378 22.646535
-54.405091 -46.997444 21.378016
-62.504536 -39.132753 12.939667
-62.048792 -40.088567 13.565188
-63.310011 -39.125785 12.262659
-62.504536 -39.132753 12.939667
-63.864374 -39.303907 11.37372
-63.581929 -40.166487 12.146074
-63.310011 -39.125785 12.262659
-64.282982 -39.421085 10.410552
-63.864374 -39.303907 11.37372
-64.011065 -38.380384 10.527137
-64.869004 -35.633692 8.47673
-64.575806 -36.550287 9.075925
-64.828888 -36.025617 7.642447
-64.869004 -35.633692 8.47673
-64.854668 -34.921619 7.938097
-65.215901 -31.388851 7.12417
-65.458244 -30.491535 6.557924
-65.341762 -32.345886 6.958365
-65.215901 -31.388851 7.12417
-65.034908 -32.650181 6.097576
-64.849769 -33.414055 6.725029
-65.341762 -32.345886 6.958365
-65.592766 -25.645051 3.343106
-65.009537 -24.883658 3.392215
-65.492244 -26.049061 2.156863
-65.448337 -26.76496 2.976554
-65.592766 -25.645051 3.343106
-65.418983 -24.169106 1.662262
-65.20134 -24.014744 2.575124
-64.98365 -23.254698 1.713971
-41.897623 -63.662367 13.637327
-42.122754 -64.707127 13.91444
-41.825106 -64.01462 14.784088
-42.472144 -62.848192 13.556186
-42.41044 -61.853872 13.122974
-42.769791 -63.540699 12.686538
-41.897623 -63.662367 13.637327
-42.472144 -62.848192 13.556186
-43.293903 -63.245122 11.838193
-42.719383 -64.059297 11.919334
-42.769791 -63.540699 12.686538
-44.321434 -63.392969 11.333616
-43.293903 -63.245122 11.838193
-44.371842 -62.87437 12.10082
-45.144886 -63.351368 10.867328
-44.321434 -63.392969 11.333616
-41.630224 -53.57825 11.755069
-41.329284 -52.55372 13.026866
-42.226469 -52.535162 11.684316
-41.509632 -54.693771 12.323689
-41.630224 -53.57825 11.755069
-42.406816 -54.675213 10.981139
-41.117345 -55.74823 12.607132
-41.509632 -54.693771 12.323689
-41.117345 -55.74823 12.607132
-42.209835 -56.685924 12.129206
-43.264196 -59.284385 12.697655
-43.418587 -58.452663 12.449956
-44.281147 -60.146408 12.157408
-42.841616 -60.106583 12.663803
-43.264196 -59.284385 12.697655
-46.210922 -63.72331 10.521218
-45.144886 -63.351368 10.867328
-46.465408 -63.39416 11.250134
-47.383343 -63.793478 10.093064
-46.210922 -63.72331 10.521218
-47.383343 -63.793478 10.093064
-48.806889 -64.044909 10.503871
-51.140959 -63.330156 10.407201
-49.881319 -63.34293 10.710285
-50.939945 -62.34937 11.013766
-51.140959 -63.330156 10.407201
-52.300904 -63.226678 9.972941
-55.377201 -61.752348 7.613163
-54.470907 -62.22294 8.552989
-55.350031 -61.291291 8.455796
-55.377201 -61.752348 7.613163
-56.413004 -61.099583 6.739651
-58.974772 -58.905674 4.579399
-58.277216 -59.898884 5.482714
-58.713626 -58.603935 5.3082
-58.974772 -58.905674 4.579399
-59.679853 -57.971781 3.653122
-61.938755 -52.413849 0.561155
-61.789041 -53.909727 0.889988
-61.379938 -53.553396 1.541708
-61.938755 -52.413849 0.561155
-62.217032 -50.884474 0.349633
-58.159195 -47.982923 0.067969
-57.522103 -48.610349 0.647889
-56.948334 -47.773609 0.184583
-59.472494 -48.112818 -0.060498
-58.159195 -47.982923 0.067969
-60.699121 -48.312906 -0.175622
-59.959591 -49.019753 0.416152
-59.472494 -48.112818 -0.060498
-61.888385 -48.229866 -0.402152
-60.699121 -48.312906 -0.175622
-51.883215 -44.344659 -0.75915
-52.80086 -45.296251 -0.538508
-51.521832 -44.816665 -0.0305
-50.802921 -43.364055 -0.878725
-49.917629 -42.769512 -0.019752
-50.116363 -42.268493 -0.647335
-51.883215 -44.344659 -0.75915
-50.802921 -43.364055 -0.878725
-49.587786 -34.756775 -1.120937
-50.219196 -35.162996 -0.425243
-49.587786 -34.756775 -1.120937
-50.313431 -33.702725 -1.10421
-50.647362 -32.181201 -1.869664
-51.476189 -32.856123 -1.337257
-52.603485 -31.859574 -1.447976
-50.647362 -32.181201 -1.869664
-49.96574 -31.442657 -2.494998
-51.204364 -27.875021 -3.547086
-49.822244 -28.791517 -3.600775
-51.758371 -28.701445 -2.915386
-50.537618 -26.997963 -4.080208
-51.204364 -27.875021 -3.547086
-52.473745 -26.90789 -3.394819
-50.137707 -26.131698 -4.7381
-50.537618 -26.997963 -4.080208
-51.287266 -25.176841 -4.484487
-49.617973 -25.277707 -5.294646
-50.137707 -26.131698 -4.7381
-50.734329 -20.677829 -7.244511
-50.224579 -21.714516 -7.133281
-51.556839 -20.898307 -6.187402
-51.137531 -19.685981 -7.440658
-52.593677 -18.820985 -6.488918
-51.66462 -18.645346 -7.630945
-50.734329 -20.677829 -7.244511
-51.137531 -19.685981 -7.440658
-53.148058 -15.807374 -8.056766
-54.871441 -15.04113 -7.131787
-53.751085 -14.853191 -8.323947
-52.66411 -16.784702 -7.95883
-53.148058 -15.807374 -8.056766
-52.580326 -10.055896 -12.261896
-53.587427 -10.361585 -11.007417
-53.627867 -9.300285 -10.662443
-52.580326 -10.055896 -12.261896
-51.607256 -9.723021 -13.454822
-50.665701 -5.463218 -16.356808
-51.804596 -4.548376 -14.807773
-51.019388 -4.24485 -16.41744
-50.446192 -6.689882 -16.31181
-50.665701 -5.463218 -16.356808
-51.164867 -7.052972 -14.730903
-50.446192 -6.689882 -16.31181
-53.867777 7.423433 -11.117551
-52.758569 6.918482 -11.762772
-54.338352 7.981613 -12.006898
-54.623663 6.71673 -11.021864
-53.867777 7.423433 -11.117551
-50.562403 8.453293 -15.447747
-50.008733 9.93461 -16.46797
-51.285593 9.668368 -14.377245
-51.032821 7.179369 -14.307416
-50.562403 8.453293 -15.447747
-52.234015 5.10442 -19.18921
-53.107405 4.564974 -17.7648
-53.620728 6.245874 -17.137522
-51.547566 7.298907 -19.873554
-52.759569 8.503946 -17.947508
-51.559798 9.017532 -19.25913
-51.233938 5.620003 -20.309632
-51.547566 7.298907 -19.873554
-52.234015 5.10442 -19.18921
-51.233938 5.620003 -20.309632
3 0 76 75
3 1 79 77
3 1 81 79
3 4 84 82
3 4 86 84
3 4 88 86
3 3 91 89
3 3 93 91
3 2 96 94
3 6 99 97
3 6 101 99
3 6 103 101
3 8 106 104
3 8 108 106
3 10 111 109
3 10 113 111
3 291 116 292
3 293 118 294
3 296 295 118
3 297 121 298
3 299 298 119
3 297 298 299
3 12 124 122
3 12 126 124
3 300 127 301
3 302 129 303
3 304 303 127
3 302 303 304
3 306 305 129
3 307 133 308
3 309 119 310
3 311 310 133
3 309 310 311
3 5 312 314
3 312 135 313
3 312 313 314
3 14 138 136
3 14 140 138
3 14 142 140
3 15 145 143
3 15 147 145
3 15 149 147
3 316 315 150
3 7 153 151
3 318 317 154
3 13 158 156
3 13 160 158
3 11 163 161
3 9 166 164
3 16 319 321
3 319 168 320
3 319 320 321
3 18 169 78
3 18 170 169
3 18 172 170
3 20 173 80
3 20 174 173
3 322 175 323
3 21 178 176
3 23 179 83
3 23 180 179
3 23 182 180
3 25 183 85
3 25 184 183
3 25 186 184
3 27 187 87
3 27 188 187
3 28 191 189
3 30 192 90
3 30 193 192
3 30 195 193
3 32 196 92
3 32 197 196
3 33 200 198
3 34 201 95
3 34 324 326
3 326 325 201
3 324 325 326
3 37 327 328
3 37 329 330
3 331 202 332
3 17 333 335
3 333 203 334
3 333 334 335
3 38 204 98
3 38 205 204
3 38 206 205
3 39 207 100
3 39 208 207
3 39 210 208
3 41 211 102
3 41 212 211
3 19 213 171
3 42 214 105
3 42 215 214
3 42 216 215
3 43 217 107
3 43 218 217
3 336 220 337
3 45 338 340
3 338 221 339
3 338 339 340
3 45 222 221
3 341 223 342
3 46 224 110
3 46 225 224
3 46 226 225
3 344 343 112
3 47 345 346
3 47 347 349
3 347 227 348
3 347 348 349
3 47 350 352
3 352 351 227
3 350 351 352
3 48 353 355
3 355 354 114
3 353 354 355
3 48 356 357
3 49 358 359
3 49 360 362
3 360 228 361
3 360 361 362
3 36 363 364
3 50 365 367
3 367 366 115
3 365 366 367
3 50 368 370
3 368 229 369
3 368 369 370
3 371 230 372
3 51 231 117
3 51 232 231
3 51 373 375
3 375 374 232
3 373 374 375
3 52 235 233
3 54 236 120
3 54 237 236
3 376 238 377
3 378 239 379
3 380 379 238
3 378 379 380
3 381 240 382
3 383 382 239
3 381 382 383
3 55 241 123
3 55 384 386
3 386 385 241
3 384 385 386
3 55 387 389
3 387 242 388
3 387 388 389
3 56 243 125
3 56 244 243
3 57 390 391
3 57 392 394
3 392 245 393
3 392 393 394
3 57 246 245
3 58 247 128
3 58 248 247
3 58 249 248
3 59 250 130
3 59 251 250
3 395 252 396
3 397 253 398
3 399 398 252
3 397 398 399
3 400 254 401
3 402 255 403
3 404 403 254
3 402 403 404
3 60 405 407
3 405 256 406
3 405 406 407
3 60 257 256
3 60 258 257
3 61 259 131
3 61 260 259
3 408 261 409
3 62 262 132
3 62 263 262
3 62 264 263
3 52 265 134
3 52 233 265
3 64 410 412
3 410 267 411
3 410 411 412
3 64 268 267
3 22 269 177
3 65 270 137
3 65 413 415
3 415 414 270
3 413 414 415
3 65 416 418
3 416 271 417
3 416 417 418
3 66 272 139
3 66 273 272
3 66 419 421
3 421 420 273
3 419 420 421
3 67 422 424
3 424 423 141
3 422 423 424
3 67 425 426
3 24 274 181
3 68 275 144
3 68 427 429
3 429 428 275
3 427 428 429
3 68 430 431
3 69 432 434
3 434 433 146
3 432 433 434
3 69 435 436
3 69 437 438
3 70 439 441
3 441 440 148
3 439 440 441
3 70 442 443
3 26 276 185
3 40 277 209
3 71 278 152
3 71 279 278
3 29 280 190
3 444 281 445
3 446 445 155
3 444 445 446
3 448 447 281
3 31 449 451
3 451 450 194
3 449 450 451
3 72 452 454
3 454 453 157
3 452 453 454
3 72 455 456
3 72 457 458
3 63 282 159
3 63 266 282
3 53 283 234
3 460 459 162
3 462 461 199
3 44 284 219
3 463 285 464
3 465 464 165
3 463 464 465
3 467 466 285
3 73 468 469
3 73 470 472
3 470 286 471
3 470 471 472
3 35 473 475
3 473 287 474
3 473 474 475
3 74 288 167
3 74 289 288
3 74 290 289
3 75 476 477
3 76 478 480
3 480 479 75
3 478 479 480
3 76 481 482
3 77 78 16
3 79 78 77
3 79 18 78
3 79 80 18
3 81 80 79
3 81 20 80
3 82 83 21
3 84 83 82
3 84 23 83
3 84 85 23
3 86 85 84
3 86 25 85
3 86 87 25
3 88 87 86
3 88 27 87
3 89 90 28
3 91 90 89
3 91 30 90
3 91 92 30
3 93 92 91
3 93 32 92
3 94 95 33
3 96 95 94
3 96 34 95
3 483 37 484
3 483 484 485
3 97 98 17
3 99 98 97
3 99 38 98
3 99 100 38
3 101 100 99
3 101 39 100
3 101 102 39
3 103 102 101
3 103 41 102
3 104 105 19
3 106 105 104
3 106 42 105
3 106 107 42
3 108 107 106
3 108 43 107
3 486 45 487
3 109 488 490
3 488 110 489
3 488 489 490
3 111 110 109
3 111 46 110
3 111 112 46
3 113 112 111
3 113 491 493
3 493 492 112
3 491 492 493
3 494 47 495
3 496 114 497
3 498 497 47
3 496 497 498
3 499 114 500
3 501 48 502
3 503 502 114
3 501 502 503
3 504 49 505
3 506 115 507
3 508 507 36
3 506 507 508
3 116 509 511
3 509 115 510
3 509 510 511
3 116 50 115
3 512 117 513
3 514 117 515
3 516 51 517
3 518 517 117
3 516 517 518
3 520 519 51
3 118 521 522
3 118 523 524
3 118 525 526
3 528 527 118
3 119 120 52
3 121 120 119
3 121 54 120
3 122 529 531
3 529 123 530
3 529 530 531
3 124 123 122
3 124 55 123
3 124 125 55
3 126 125 124
3 126 56 125
3 127 532 533
3 127 534 536
3 534 57 535
3 534 535 536
3 127 128 57
3 129 128 127
3 129 58 128
3 129 130 58
3 537 130 538
3 539 538 129
3 537 538 539
3 540 59 541
3 542 541 130
3 540 541 542
3 543 60 544
3 545 131 546
3 547 546 60
3 545 546 547
3 548 131 549
3 550 61 551
3 552 551 131
3 550 551 552
3 553 132 554
3 133 555 557
3 555 132 556
3 555 556 557
3 133 62 132
3 133 134 62
3 119 134 133
3 119 52 134
3 558 64 559
3 135 560 561
3 135 562 563
3 136 137 22
3 138 137 136
3 138 65 137
3 138 139 65
3 140 139 138
3 140 66 139
3 140 141 66
3 142 141 140
3 142 67 141
3 143 144 24
3 145 144 143
3 145 68 144
3 145 146 68
3 147 146 145
3 147 69 146
3 147 148 69
3 149 148 147
3 149 70 148
3 150 564 566
3 566 565 26
3 564 565 566
3 568 567 150
3 151 152 40
3 153 152 151
3 153 71 152
3 154 155 29
3 569 155 570
3 571 570 154
3 569 570 571
3 573 572 155
3 156 157 31
3 158 157 156
3 158 72 157
3 158 159 72
3 160 159 158
3 160 63 159
3 161 162 53
3 163 162 161
3 163 574 576
3 576 575 162
3 574 575 576
3 164 165 44
3 166 165 164
3 166 577 579
3 579 578 165
3 577 578 579
3 580 73 581
3 582 167 583
3 584 583 35
3 582 583 584
3 585 167 586
3 587 74 588
3 589 588 167
3 587 588 589
3 591 590 74
3 168 592 593
3 168 594 596
3 594 17 595
3 594 595 596
3 78 168 16
3 169 168 78
3 169 17 168
3 169 97 17
3 170 97 169
3 170 6 97
3 170 171 6
3 172 171 170
3 172 19 171
3 80 172 18
3 173 172 80
3 173 19 172
3 173 104 19
3 174 104 173
3 174 8 104
3 597 109 598
3 599 109 600
3 601 10 602
3 603 602 109
3 601 602 603
3 175 604 605
3 175 606 607
3 608 122 609
3 610 122 611
3 612 12 613
3 614 613 122
3 612 613 614
3 176 177 5
3 178 177 176
3 178 22 177
3 83 178 21
3 179 178 83
3 179 22 178
3 179 136 22
3 180 136 179
3 180 14 136
3 180 181 14
3 182 181 180
3 182 24 181
3 85 182 23
3 183 182 85
3 183 24 182
3 183 143 24
3 184 143 183
3 184 15 143
3 184 185 15
3 186 185 184
3 186 26 185
3 87 186 25
3 187 186 87
3 187 26 186
3 187 150 26
3 188 150 187
3 188 615 617
3 617 616 150
3 615 616 617
3 189 190 7
3 191 190 189
3 191 29 190
3 90 191 28
3 192 191 90
3 192 29 191
3 192 154 29
3 193 154 192
3 193 618 620
3 620 619 154
3 618 619 620
3 193 621 623
3 621 194 622
3 621 622 623
3 195 194 193
3 195 31 194
3 92 195 30
3 196 195 92
3 196 31 195
3 196 156 31
3 197 156 196
3 197 13 156
3 198 199 11
3 200 199 198
3 200 624 626
3 626 625 199
3 624 625 626
3 95 200 33
3 201 200 95
3 201 627 629
3 629 628 200
3 627 628 629
3 201 630 631
3 633 632 201
3 635 634 9
3 636 35 637
3 638 35 639
3 641 640 35
3 642 36 643
3 644 36 645
3 647 646 36
3 202 648 649
3 202 650 652
3 650 5 651
3 650 651 652
3 203 653 654
3 203 655 656
3 98 203 17
3 204 203 98
3 204 657 659
3 659 658 203
3 657 658 659
3 204 660 662
3 660 202 661
3 660 661 662
3 205 202 204
3 205 5 202
3 205 176 5
3 206 176 205
3 206 21 176
3 100 206 38
3 207 206 100
3 207 21 206
3 207 82 21
3 208 82 207
3 208 4 82
3 208 209 4
3 210 209 208
3 210 40 209
3 102 210 39
3 211 210 102
3 211 40 210
3 211 151 40
3 212 151 211
3 212 7 151
3 171 103 6
3 213 103 171
3 213 41 103
3 105 213 19
3 214 213 105
3 214 41 213
3 214 212 41
3 215 212 214
3 215 7 212
3 215 189 7
3 216 189 215
3 216 28 189
3 107 216 42
3 217 216 107
3 217 28 216
3 217 89 28
3 218 89 217
3 218 3 89
3 663 219 664
3 665 664 2
3 663 664 665
3 220 666 668
3 666 219 667
3 666 667 668
3 220 44 219
3 669 220 670
3 221 671 673
3 671 220 672
3 671 672 673
3 221 44 220
3 221 164 44
3 222 164 221
3 222 9 164
3 223 674 675
3 223 676 678
3 676 45 677
3 676 677 678
3 110 679 681
3 679 223 680
3 679 680 681
3 224 223 110
3 224 45 223
3 224 222 45
3 225 222 224
3 225 9 222
3 225 682 684
3 684 683 9
3 682 683 684
3 226 685 687
3 687 686 225
3 685 686 687
3 226 688 689
3 112 226 46
3 690 226 691
3 692 691 112
3 690 691 692
3 694 693 226
3 227 695 696
3 227 697 698
3 227 699 700
3 702 701 227
3 114 703 705
3 705 704 47
3 703 704 705
3 707 706 114
3 708 48 709
3 710 48 711
3 713 712 48
3 714 16 715
3 716 16 717
3 718 77 719
3 720 719 16
3 718 719 720
3 228 721 723
3 721 77 722
3 721 722 723
3 228 1 77
3 115 724 726
3 726 725 36
3 724 725 726
3 728 727 115
3 229 729 730
3 229 731 732
3 733 116 734
3 230 735 737
3 735 116 736
3 735 736 737
3 230 50 116
3 117 738 740
3 738 230 739
3 738 739 740
3 231 230 117
3 231 50 230
3 231 229 50
3 232 229 231
3 232 741 743
3 743 742 229
3 741 742 743
3 232 744 745
3 747 746 232
3 749 748 51
3 750 175 751
3 752 175 753
3 755 754 175
3 233 234 0
3 235 234 233
3 235 53 234
3 120 235 52
3 236 235 120
3 236 53 235
3 236 161 53
3 237 161 236
3 237 11 161
3 756 121 757
3 758 121 759
3 760 54 761
3 762 761 121
3 760 761 762
3 238 763 764
3 238 765 767
3 765 54 766
3 765 766 767
3 238 237 54
3 239 237 238
3 239 11 237
3 239 198 11
3 240 198 239
3 240 33 198
3 768 240 769
3 770 240 771
3 772 33 773
3 774 773 240
3 772 773 774
3 775 94 776
3 777 776 33
3 775 776 777
3 778 94 779
3 780 2 781
3 782 781 94
3 780 781 782
3 783 2 784
3 786 785 2
3 123 787 788
3 241 789 791
3 791 790 123
3 789 790 791
3 241 792 793
3 241 794 795
3 797 796 241
3 242 798 799
3 242 800 802
3 800 49 801
3 800 801 802
3 125 242 55
3 243 242 125
3 243 49 242
3 243 228 49
3 244 228 243
3 244 1 228
3 803 12 804
3 245 805 806
3 245 807 809
3 807 12 808
3 807 808 809
3 245 126 12
3 246 126 245
3 246 56 126
3 128 246 57
3 247 246 128
3 247 56 246
3 247 244 56
3 248 244 247
3 248 1 244
3 248 81 1
3 249 81 248
3 249 20 81
3 130 249 58
3 250 249 130
3 250 20 249
3 250 174 20
3 251 174 250
3 251 8 174
3 810 59 811
3 812 59 813
3 814 251 815
3 816 815 59
3 814 815 816
3 252 817 819
3 817 251 818
3 817 818 819
3 252 8 251
3 252 108 8
3 253 108 252
3 253 43 108
3 820 253 821
3 254 822 824
3 822 253 823
3 822 823 824
3 254 43 253
3 254 218 43
3 255 218 254
3 255 3 218
3 256 825 826
3 256 827 828
3 256 829 831
3 829 255 830
3 829 830 831
3 257 255 256
3 257 3 255
3 257 93 3
3 258 93 257
3 258 32 93
3 131 258 60
3 259 258 131
3 259 32 258
3 259 197 32
3 260 197 259
3 260 13 197
3 261 832 833
3 261 834 836
3 834 61 835
3 834 835 836
3 132 837 839
3 837 261 838
3 837 838 839
3 262 261 132
3 262 61 261
3 262 260 61
3 263 260 262
3 263 13 260
3 263 160 13
3 264 160 263
3 264 63 160
3 134 264 62
3 265 264 134
3 265 63 264
3 265 266 63
3 233 266 265
3 233 0 266
3 840 37 841
3 840 841 842
3 267 843 844
3 267 845 847
3 845 37 846
3 845 846 847
3 267 848 850
3 850 849 37
3 848 849 850
3 268 851 853
3 853 852 267
3 851 852 853
3 268 854 855
3 177 135 5
3 269 135 177
3 269 856 858
3 858 857 135
3 856 857 858
3 137 269 22
3 270 269 137
3 270 859 861
3 861 860 269
3 859 860 861
3 270 862 863
3 865 864 270
3 271 866 867
3 271 868 870
3 868 64 869
3 868 869 870
3 139 271 65
3 272 271 139
3 272 64 271
3 272 268 64
3 273 268 272
3 273 871 873
3 873 872 268
3 871 872 873
3 273 874 875
3 877 876 273
3 141 878 880
3 880 879 66
3 878 879 880
3 882 881 141
3 181 142 14
3 274 142 181
3 274 67 142
3 144 274 24
3 275 274 144
3 275 67 274
3 275 883 885
3 885 884 67
3 883 884 885
3 887 886 275
3 146 888 890
3 890 889 68
3 888 889 890
3 892 891 146
3 148 893 895
3 895 894 69
3 893 894 895
3 897 896 148
3 185 149 15
3 276 149 185
3 276 70 149
3 898 276 899
3 900 899 26
3 898 899 900
3 901 276 902
3 903 70 904
3 905 904 276
3 903 904 905
3 907 906 70
3 209 88 4
3 277 88 209
3 277 27 88
3 152 277 40
3 278 277 152
3 278 27 277
3 278 188 27
3 279 188 278
3 279 908 910
3 910 909 188
3 908 909 910
3 190 153 7
3 280 153 190
3 280 71 153
3 155 280 29
3 281 280 155
3 281 71 280
3 281 279 71
3 911 279 912
3 913 912 281
3 911 912 913
3 915 914 279
3 194 916 917
3 919 918 194
3 157 920 922
3 922 921 31
3 920 921 922
3 924 923 157
3 159 925 927
3 927 926 72
3 925 926 927
3 282 928 930
3 930 929 159
3 928 929 930
3 282 931 932
3 282 933 935
3 933 75 934
3 933 934 935
3 266 75 282
3 266 0 75
3 234 76 0
3 283 76 234
3 283 936 938
3 938 937 76
3 936 937 938
3 162 283 53
3 939 283 940
3 941 940 162
3 939 940 941
3 943 942 283
3 199 163 11
3 944 163 945
3 946 945 199
3 944 945 946
3 948 947 163
3 219 96 2
3 284 96 219
3 284 34 96
3 165 284 44
3 285 284 165
3 285 34 284
3 285 949 951
3 951 950 34
3 949 950 951
3 953 952 285
3 954 166 955
3 956 955 9
3 954 955 956
3 957 166 958
3 960 959 166
3 286 961 962
3 286 963 965
3 963 10 964
3 963 964 965
3 287 966 967
3 287 968 970
3 968 73 969
3 968 969 970
3 167 287 35
3 288 287 167
3 288 73 287
3 288 286 73
3 289 286 288
3 289 10 286
3 289 113 10
3 290 113 289
3 290 971 973
3 973 972 113
3 971 972 973
3 974 290 975
3 976 975 74
3 974 975 976
3 977 290 978
3 980 979 290
