ply
format ascii 1.0
element vertex 1037
property float x
property float y
property float z
element face 1340
property list uchar int vertex_index
end_header
12.565488 -42.94735 1.787002
19.461132 -81.319016 37.159706
13.235356 -77.615211 3.935838
23.850031 -62.372517 0.716111
13.095998 -66.81572 -1.829574
17.651424 -38.353848 -7.775836
10.731344 -89.829994 20.40432
4.241766 -73.507721 20.185389
23.259499 -62.459473 13.236789
23.103745 -50.710133 1.531327
20.176411 -52.133873 -3.75179
15.074542 -40.151245 -2.79118
8.301109 -85.050453 35.332706
6.229918 -82.775269 22.122953
9.573874 -79.36615 28.581293
21.576977 -84.573952 38.51931
17.318779 -87.294601 25.723013
14.148265 -86.735428 5.326889
3.608859 -84.381668 -4.703288
23.137634 -54.669456 -7.328383
22.181896 -65.580978 -5.945244
19.345953 -69.885643 32.867954
13.607079 -69.85096 4.855626
3.292603 -71.172729 5.677165
8.314077 -60.545799 4.019109
13.021181 -50.708298 -4.633207
21.46343 -41.684174 -10.139471
3.983674 -84.949539 9.130072
7.467683 -76.748688 13.268069
18.947515 -74.309525 20.581093
13.418744 -65.210014 14.858358
17.129889 -69.586716 10.757395
25.370823 -65.773735 6.770793
21.913366 -54.859173 6.887288
12.14441 -77.579788 -5.163699
16.5704 -47.081615 0.864426
19.056255 -46.154034 -1.519241
13.815821 -41.680164 -0.663672
12.6822 -84.261826 37.091129
6.543648 -81.872795 33.779018
13.473897 -81.262154 32.433506
18.668751 -78.084007 42.869789
19.074955 -83.965622 40.136097
14.615885 -87.114502 36.808552
15.318662 -82.607666 3.521816
9.303273 -86.63591 -2.152495
6.942643 -81.824097 1.222996
27.623236 -47.725513 -6.406181
29.030817 -53.360229 -5.436166
18.441662 -67.09568 1.967135
8.629592 -64.523483 6.062337
15.403229 -61.997822 1.949686
20.308279 -45.233879 -6.769864
14.377161 -51.399517 -2.906875
16.270866 -45.393124 -6.865183
17.457512 -46.642895 -8.692416
18.325809 -39.614719 -9.924259
3.824773 -78.83046 22.322554
7.362185 -83.800064 16.265202
5.946529 -78.575401 16.083557
5.517215 -80.097343 10.089118
3.050182 -73.519066 14.476138
19.973221 -72.430199 27.219936
24.284761 -61.340076 18.987774
22.277483 -67.946121 16.371086
19.491444 -65.444878 12.656989
13.666918 -64.94709 8.916052
19.552046 -64.994965 7.867976
21.792517 -68.610626 8.070506
22.774326 -63.885948 7.926145
12.75948 -86.556732 23.838589
7.111006 -69.124901 1.086423
7.846055 -75.200119 1.429756
10.768865 -72.43 -4.190595
26.022221 -56.714409 0.219223
21.176336 -57.243225 -0.463228
23.675079 -51.439137 -2.246953
20.55327 -44.76799 -4.167711
16.111584 -38.911873 -5.044864
8.596753 -87.887764 28.171076
8.0482 -86.58535 21.093077
5.662863 -84.753555 28.744715
4.743117 -79.528397 28.179224
6.710753 -75.805008 25.397396
18.339382 -87.182007 31.998297
12.860697 -86.960243 30.930676
17.971243 -60.820324 -6.451553
16.886974 -64.568398 -7.978281
23.355349 -60.245155 -6.633048
18.73074 -75.258652 38.87307
20.308767 -76.687828 33.766571
18.127989 -70.087601 36.850365
16.94371 -74.935326 41.669807
11.683062 -73.644707 6.71654
4.687854 -75.582359 6.275498
5.18889 -69.451881 8.565474
4.533965 -64.663429 5.962879
8.52588 -63.593788 0.932468
13.826004 -58.059013 0.477239
9.85705 -56.472637 -0.570724
13.512497 -58.419506 -3.045024
18.336185 -53.982994 -7.03905
22.668665 -49.089348 -8.076883
25.682804 -42.02763 -8.967398
5.496687 -88.661674 15.512858
4.35115 -90.096283 9.574266
7.662585 -91.463661 5.955753
8.805176 -87.036789 8.270885
12.715975 -82.897232 10.420881
14.351248 -79.525986 11.187271
17.296124 -78.143532 28.122442
13.496002 -78.021164 22.967485
11.196268 -72.873726 21.284214
22.076359 -67.205399 22.863428
16.420263 -70.481277 17.562302
6.017293 -68.431976 16.346172
6.249587 -67.290207 12.239198
11.339453 -71.953651 14.796367
15.090848 -75.851242 11.087767
18.1675 -73.271744 7.588457
22.515503 -70.101219 4.47341
26.584808 -65.30545 3.214768
22.683617 -60.092613 8.739883
26.224676 -60.265747 6.721237
27.917953 -59.21471 3.022011
23.543461 -53.047249 4.651606
16.922575 -49.38921 3.790349
3.055076 -77.473396 0.357184
15.872357 -71.385788 -7.365002
13.315268 -44.937416 0.523869
14.439529 -44.530163 -0.613243
13.13174 -42.449303 0.524442
16.162149 -83.329216 36.574612
12.539507 -82.651665 35.035263
16.526798 -81.614037 34.380684
19.72731 -79.138023 41.141106
20.120935 -80.656967 42.333061
18.734859 -82.901871 38.978783
16.088066 -84.86776 38.311867
14.567821 -80.066322 3.735574
11.53992 -81.933472 1.168362
10.567863 -79.703842 2.660654
29.650751 -44.507782 -7.267806
31.026165 -47.140026 -6.128822
21.520844 -65.048355 1.18872
16.551369 -64.539833 1.829775
19.954308 -62.610939 0.865828
19.261471 -41.477459 -7.282584
18.270813 -45.813553 -6.915072
18.570168 -42.247017 -8.084768
17.650902 -42.616814 -8.594313
18.052111 -38.833385 -9.036305
10.796553 -88.455383 16.862715
3.949244 -75.978439 21.541515
5.099736 -78.5746 19.302555
4.792109 -75.845154 18.479832
3.715261 -76.303528 15.430811
3.148856 -73.089645 17.515873
24.055477 -61.850586 16.060768
23.49601 -64.7752 15.039798
22.150198 -64.894394 12.475882
18.860586 -65.216393 10.462959
21.455582 -65.02565 10.139051
21.428473 -64.895554 7.695866
22.682083 -63.313957 10.571899
11.697214 -88.972153 23.014187
13.325975 -88.610916 20.420853
9.416753 -68.47905 -0.630451
8.7568 -71.572739 -1.312648
10.251268 -69.226624 -3.94765
25.386288 -53.606224 0.917271
24.552071 -54.149261 -0.887798
24.042273 -50.928173 -0.425939
15.8681 -43.026699 -2.946017
19.90715 -45.444077 -2.866581
16.599014 -42.350647 -3.94506
17.372156 -41.741802 -4.959614
15.570429 -39.532478 -3.856191
7.781991 -86.203583 31.936213
6.691986 -86.859856 28.242794
6.081599 -85.350098 32.332455
7.859216 -80.364975 31.304058
5.198838 -80.443253 31.104801
6.611325 -78.749039 29.294836
5.338801 -77.562149 27.35672
8.069359 -77.743515 27.079132
19.968763 -86.190079 35.267765
11.281483 -86.345123 36.299706
13.22389 -87.183426 34.043839
10.352434 -85.948654 33.597546
9.958814 -86.427246 29.955429
13.153905 -88.880547 5.301359
11.863696 -88.302528 2.372102
5.437389 -86.086807 -2.934284
20.728857 -58.092793 -8.066221
20.74824 -61.318523 -7.181046
23.48859 -57.737133 -6.724297
31.909643 -53.134388 -5.752928
29.120911 -56.544182 -5.1243
17.660303 -73.110786 39.126526
18.534817 -72.738197 37.473713
17.052362 -73.212753 40.562607
17.574772 -75.039429 40.457802
12.437319 -71.468018 6.249794
8.42621 -71.565369 7.546232
9.161593 -69.097687 6.964497
8.399851 -62.223145 5.654611
5.576772 -63.925159 7.154413
6.115819 -62.134605 5.235364
6.278037 -63.872692 3.224838
7.234834 -61.500984 2.540991
20.546623 -54.713989 -2.019011
17.985582 -57.719658 -0.079369
17.432507 -55.435467 -1.785741
12.793694 -50.512451 -3.389733
11.727453 -53.686443 -1.190485
11.297328 -53.462139 -2.366058
10.821403 -57.111492 -2.169588
12.824722 -54.221386 -3.839513
16.056538 -55.74229 -4.782361
15.146973 -52.001293 -5.780439
20.141928 -45.02932 -9.792548
20.248119 -48.588364 -9.293489
22.406088 -45.597656 -9.064886
24.415485 -45.358955 -7.753175
23.38237 -42.018341 -9.399054
6.700835 -84.760696 21.379566
6.63703 -87.528061 18.340551
5.399843 -85.706192 19.283777
6.053121 -84.422279 11.686562
5.986951 -87.110588 12.029431
4.134393 -87.403214 9.150312
4.915721 -91.138069 6.806548
4.98511 -88.249107 6.836334
8.013021 -89.280228 6.537319
5.879979 -85.604538 7.642018
6.575374 -78.491135 11.514464
9.184733 -81.813171 10.584661
10.431349 -80.320236 12.15397
13.96454 -81.135765 10.853485
11.259763 -78.632912 13.631826
19.748968 -73.643845 32.956139
19.172834 -77.514694 30.710257
19.805182 -74.753616 30.059896
19.666431 -73.788574 23.939156
17.824976 -76.654602 24.053623
16.09621 -76.628822 21.217642
12.008421 -75.644455 21.801504
14.622995 -74.351921 19.83572
18.241772 -67.161606 15.244841
19.214838 -69.713333 15.82198
15.13441 -67.512558 17.10117
11.719137 -69.025795 17.695402
9.693745 -66.4944 15.388678
5.316444 -67.017113 14.014404
9.270518 -65.244225 12.642675
15.089912 -67.305359 9.752262
11.935061 -67.965698 11.798449
14.25828 -70.237633 13.101332
14.051874 -74.356606 14.21255
16.390041 -72.720505 12.129425
16.407406 -74.419754 9.761813
18.418472 -72.002335 9.78805
23.7544 -67.594887 7.271758
22.719219 -70.03318 6.657103
24.686413 -68.479568 5.745751
24.713118 -68.073891 3.766616
26.451294 -66.053551 5.222423
21.459728 -59.277077 11.282742
20.587055 -55.717834 7.69503
22.958584 -57.903759 7.633686
24.66601 -57.516991 6.890824
27.664759 -59.851341 5.130414
26.014374 -56.845783 5.567363
26.469656 -56.118233 3.822704
22.996378 -54.015381 5.941819
19.449917 -86.763718 26.610041
3.057811 -73.337891 6.484916
3.15888 -76.444229 4.008387
3.348151 -74.415604 3.552177
10.907954 -77.025681 -2.163006
7.535387 -78.392662 -2.05865
10.152011 -80.245575 -4.194766
20.171621 -64.68792 -8.089123
16.063076 -67.810448 -8.339696
18.759745 -68.428185 -6.752524
20.008509 -48.832226 1.379923
21.538548 -48.585175 0.048575
17.97768 -46.701061 -0.300014
15.210295 -43.820057 -1.754235
14.466519 -40.887604 -1.750173
10.032721 -84.713928 37.090355
6.747744 -83.796623 35.249855
9.17872 -83.049904 35.953468
9.55073 -81.842926 33.42992
11.038157 -80.858986 30.526342
17.764713 -77.150223 43.519157
20.265266 -79.065445 44.17355
21.059345 -81.716736 42.385975
20.239681 -84.559586 40.117176
18.349756 -86.343636 37.693504
16.942295 -85.963882 38.826641
13.188089 -85.904251 37.796368
15.081311 -84.801254 4.163527
12.38904 -86.217987 1.26099
12.246796 -84.322433 0.011377
8.067522 -83.88736 -1.018684
4.371289 -83.150146 -1.169999
25.35479 -51.302349 -6.6126
26.036655 -54.093464 -6.082392
28.579142 -50.613297 -5.595867
31.861191 -50.030121 -5.690649
34.22752 -49.639553 -7.221313
15.5603 -68.498352 3.276548
10.611067 -67.227676 5.371516
13.059855 -65.794174 3.517462
11.829158 -63.354675 3.833908
11.453186 -61.119923 3.759561
20.237289 -48.84943 -5.47783
17.318125 -52.262798 -3.497442
17.75469 -49.005081 -5.290833
15.115715 -48.392467 -4.873515
14.332399 -47.945068 -5.657938
15.002833 -48.537285 -6.778013
16.018059 -45.497559 -7.73696
18.128054 -43.579914 -9.418846
19.671976 -40.903015 -10.331193
5.140781 -80.817398 22.527266
5.991453 -83.416283 19.576641
5.392406 -80.87413 19.415808
6.938599 -81.025368 16.162979
4.832327 -81.814064 12.499238
4.284188 -82.177513 9.299282
3.803885 -79.366768 12.716039
3.380168 -77.052223 12.323961
4.447532 -74.830223 12.687479
19.930405 -71.172852 30.284683
19.745226 -67.434189 30.772928
20.643572 -68.817734 28.015509
20.948328 -70.176773 24.803444
23.641851 -64.314392 20.901791
24.091793 -64.86319 17.737051
21.13847 -66.742783 14.325641
17.041124 -64.905754 14.028807
13.15694 -64.170151 11.67201
16.359699 -64.460144 11.189796
17.014278 -64.617943 8.116076
18.102867 -66.974243 8.130757
19.489902 -69.200897 9.170259
20.445694 -66.67247 7.300873
22.287424 -66.041481 6.980902
23.766058 -64.679222 7.041788
15.123441 -86.35228 24.917009
14.720751 -87.024063 21.045841
5.308291 -69.357903 4.164254
5.176373 -72.865646 3.800323
7.6774 -71.649437 2.399891
10.31481 -74.085129 -0.693337
12.438682 -74.684029 -3.996449
25.377855 -59.51931 0.332797
22.434366 -60.033344 0.187359
23.896828 -57.153328 -0.511663
22.754147 -54.417297 -1.800632
22.206715 -51.857536 -3.377765
22.561237 -48.404327 -1.659448
22.668915 -48.354908 -3.300558
21.928837 -48.563393 -4.715284
20.94392 -44.59922 -5.535596
18.415228 -41.313709 -6.004195
16.773355 -38.455585 -6.33299
9.794314 -89.038818 24.536924
9.341542 -88.365326 20.938362
8.13358 -87.805382 24.556965
6.850759 -85.810509 24.763254
6.667342 -83.380707 25.412817
5.157419 -83.042923 32.084724
5.357961 -82.029167 28.772528
5.495429 -80.856712 25.432423
4.162769 -78.78035 25.462645
4.232543 -76.265266 24.610491
5.429345 -74.354599 22.635082
22.666992 -59.98418 13.892065
17.481207 -87.360741 28.85998
16.377827 -87.290062 34.608948
15.5504 -87.531914 31.307413
15.517691 -87.298447 28.351892
12.76219 -86.033951 27.788
10.735481 -87.372612 26.433277
16.606831 -63.582001 -3.530667
14.429799 -65.811432 -5.119411
17.725628 -63.499451 -6.835837
20.482534 -62.849159 -7.810074
23.087067 -62.391491 -6.664186
26.281437 -56.873268 -5.869414
26.07514 -59.670612 -5.513243
19.990162 -77.891563 38.608967
20.283907 -79.22229 35.261955
20.06632 -75.863052 36.524925
19.379818 -73.10183 35.249554
18.92877 -69.804245 34.946983
16.882706 -75.743767 42.963501
17.414774 -76.465973 42.007275
18.451666 -76.750587 40.861431
11.799826 -75.433273 4.888944
8.731161 -76.73584 4.551662
7.892489 -74.301537 6.445817
4.674175 -72.539093 7.780322
3.161995 -70.15712 7.817762
6.387751 -66.666023 7.948505
3.854563 -66.781143 8.019246
3.617863 -67.86171 6.256249
5.690864 -66.774933 3.924261
7.971761 -66.347214 1.418251
10.752316 -65.539932 -0.053782
18.853836 -59.961891 0.736279
14.719958 -59.969341 1.567588
10.732417 -59.369709 2.456944
14.045794 -54.74815 -1.195264
10.817337 -57.161388 0.469234
8.564497 -59.151447 1.694701
8.886656 -59.993004 -0.291252
10.988511 -61.568871 -1.535936
13.923697 -62.742561 -1.978348
16.72942 -59.828533 -4.110899
18.455471 -57.561291 -7.10263
20.697081 -55.097454 -8.326254
17.632797 -50.309677 -7.761919
20.381529 -52.01458 -8.550822
22.853731 -52.072426 -7.512959
25.087765 -48.622486 -6.738887
26.802485 -44.941208 -7.317198
14.653059 -41.79483 3.173348
8.715706 -87.917511 17.249508
7.23953 -89.450012 14.822256
5.701166 -91.172813 12.988371
5.929851 -86.394661 15.702146
5.277036 -89.350761 12.691335
4.882274 -92.585121 10.678205
10.980218 -89.403969 7.108703
12.217295 -87.540497 8.335517
7.617091 -83.473167 8.963877
10.656855 -84.758163 9.857283
14.188024 -85.270576 8.430216
15.488108 -83.210312 7.709748
15.771139 -81.00248 7.569533
15.499397 -79.070297 7.434721
17.907164 -79.759262 32.272087
15.466265 -79.903656 30.109549
13.316545 -80.019348 27.85854
18.814556 -75.606079 27.174091
15.713399 -78.814804 25.395929
11.431921 -78.664383 25.704035
9.921928 -76.895744 24.33205
8.845609 -74.464615 22.881357
7.063616 -72.870819 20.667253
21.560871 -66.373016 25.89183
20.957127 -71.007645 21.434303
22.518978 -67.898743 19.506517
20.447704 -71.021561 18.123096
17.540401 -73.06002 18.274122
13.74571 -71.334465 19.663788
8.826881 -70.934326 18.758741
4.466539 -70.937859 18.63682
3.115967 -69.822594 15.81743
3.68593 -70.13517 13.53974
5.824967 -71.798691 13.527641
10.09444 -65.708649 10.432497
8.531029 -69.421753 13.225763
8.81565 -74.280266 14.823871
12.296191 -76.517288 14.656458
14.654266 -77.824844 11.311036
14.743533 -77.152184 7.336391
14.058062 -75.535202 7.839879
14.954791 -73.583878 7.246197
16.367382 -72.257027 5.30223
20.411945 -70.972191 7.994306
20.131992 -71.808128 5.722185
18.314758 -70.803513 3.79654
20.944294 -69.065285 2.700394
23.689034 -66.831253 2.043202
25.641727 -64.000488 1.514669
22.546658 -61.210876 11.068956
23.172993 -62.164234 8.438007
24.531752 -62.625885 7.313623
21.253881 -58.124054 8.873891
24.320454 -60.228771 7.630095
26.324469 -63.203938 6.552237
27.666119 -63.088696 4.934371
27.804346 -62.222679 2.866104
26.855505 -60.789928 1.250508
27.076696 -58.048271 1.418206
26.167917 -55.0289 2.272851
23.510273 -51.957275 3.165514
19.723822 -51.980469 5.716174
20.176065 -51.000786 4.486815
20.250668 -49.990215 2.976817
16.930614 -48.301643 2.321952
13.713916 -46.462425 1.652525
18.208082 -38.371532 -4.219246
17.953302 -37.298042 -5.697906
17.89419 -36.469448 -7.210191
17.873138 -36.186089 -8.939525
17.959209 -36.53907 -10.463437
5.623171 -78.839783 3.64022
3.514607 -79.967896 1.375416
3.209378 -80.6931 -2.675892
4.975203 -76.481125 0.444748
4.510722 -78.755234 -3.338886
12.265244 -68.148224 -6.783845
12.801183 -71.677643 -6.525044
13.571091 -74.361458 -6.294726
17.881048 -72.293541 -5.787417
15.834394 -74.860405 -7.530655
13.13238 -77.733032 -7.405377
31.864589 -42.803818 -8.379064
31.265935 -44.228577 -7.458132
30.249405 -43.083023 -8.188738
10.763948 -89.142688 18.633517
11.492998 -89.26258 16.758973
11.460394 -89.949886 18.529775
11.630878 -90.316719 19.856854
12.113813 -89.887799 21.161788
11.214279 -89.401073 21.709253
11.460394 -89.949886 18.529775
11.630878 -90.316719 19.856854
22.519616 -83.244423 39.009844
21.903938 -83.371327 40.008178
22.093374 -84.621758 37.218964
22.519616 -83.244423 39.009844
20.77287 -85.382015 36.893537
21.289268 -85.429821 35.593191
22.093374 -84.621758 37.218964
3.926553 -86.154213 -5.185016
4.840817 -87.006782 -4.300514
4.523124 -85.234238 -3.818786
3.939806 -85.332962 -6.198787
3.926553 -86.154213 -5.185016
31.780105 -54.838394 -5.747568
32.755149 -52.9773 -6.688395
17.484935 -71.828392 38.773514
17.120998 -72.133865 39.491404
16.817027 -72.184849 40.209444
15.727818 -72.431725 41.055203
17.120998 -72.133865 39.491404
17.356333 -73.16177 39.844566
16.817027 -72.184849 40.209444
18.146105 -86.946624 24.695054
19.211674 -86.681183 25.138568
18.384348 -87.029159 26.166527
12.433233 -79.267098 -5.636672
11.437034 -80.599991 -5.152205
11.148211 -78.912681 -4.679233
32.9897 -48.298952 -6.418041
31.443678 -48.585074 -5.909736
32.572187 -46.853904 -6.637128
34.172865 -48.103668 -7.183374
33.044356 -49.834837 -6.455981
32.9897 -48.298952 -6.418041
34.974567 -47.884754 -8.020834
34.172865 -48.103668 -7.183374
18.16603 -65.888061 31.708623
19.115472 -66.93797 32.023128
20.598593 -67.059952 28.359195
19.698138 -66.556198 29.474238
20.750971 -67.739472 26.753163
20.79595 -69.497253 26.409477
20.598593 -67.059952 28.359195
24.188277 -63.101633 18.362413
23.799912 -62.848307 19.727256
23.896397 -61.08675 20.352618
14.488854 -89.059631 19.069872
13.952182 -90.015835 19.248717
19.357687 -87.17183 30.733246
20.032464 -86.879647 32.346887
17.910294 -87.271374 30.429139
18.9286 -87.261197 29.164088
19.357687 -87.17183 30.733246
9.336772 -87.669235 -1.308943
10.879655 -87.460273 0.3978
10.846156 -86.426948 -0.445752
27.438424 -59.70841 -5.039384
27.598025 -58.107397 -5.318772
28.961309 -58.145195 -4.844912
25.771429 -61.23171 -5.212979
27.438424 -59.70841 -5.039384
16.187704 -74.656598 42.58975
15.401764 -73.724442 42.970228
16.15777 -74.00317 42.050285
16.913208 -75.339547 42.316654
16.157203 -75.060818 43.236597
16.187704 -74.656598 42.58975
26.963436 -42.006932 -8.962833
27.523277 -43.463721 -8.137733
26.242645 -43.484419 -8.142298
4.854135 -91.904838 8.6116
5.119698 -93.149258 9.163569
4.616712 -91.340702 10.126235
7.809648 -92.789364 6.034744
6.436216 -92.626568 6.460142
6.289153 -91.300865 6.381151
9.548982 -92.118992 6.092529
7.809648 -92.789364 6.034744
9.327713 -91.205044 6.20161
9.548982 -92.118992 6.092529
21.818615 -66.789208 24.377629
21.276235 -64.528668 26.175433
21.533978 -64.944859 24.661232
21.774614 -59.526906 12.633527
22.606825 -60.597528 12.480511
21.834781 -58.913559 14.045081
20.1389 -57.282709 8.92725
19.258038 -57.2804 10.011354
17.633826 -51.698645 6.009992
19.22672 -52.467693 6.251037
18.54932 -50.194998 4.138582
18.312828 -50.697182 4.806404
16.686083 -49.891394 4.458171
12.507883 -45.952613 2.242308
13.685349 -47.104635 2.25079
12.715988 -45.331221 1.898859
12.507883 -45.952613 2.242308
15.087625 -41.744075 2.565146
15.524691 -40.721691 3.568789
19.974618 -39.131002 -4.059133
19.910829 -39.616426 -3.256682
19.847228 -38.594257 -4.798463
18.080692 -37.834787 -4.958576
19.974618 -39.131002 -4.059133
19.054775 -36.395992 -7.068337
19.503529 -37.294542 -6.335875
19.044249 -36.254312 -7.933003
17.883664 -36.327769 -8.074858
19.054775 -36.395992 -7.068337
18.434666 -35.450316 -10.267429
18.707825 -35.746421 -9.441755
18.491672 -36.950913 -11.005237
18.434666 -35.450316 -10.267429
5.579254 -79.994084 -4.151618
6.023055 -78.573948 -2.698768
7.091586 -79.812798 -3.5115
4.384758 -80.392983 -4.769093
5.579254 -79.994084 -4.151618
18.988966 -72.68084 -5.258195
19.324136 -70.815117 -5.187079
15.659898 -76.126774 -8.457712
16.993631 -74.993641 -7.654255
14.308891 -77.563087 -8.395073
14.483387 -76.296718 -7.468016
15.659898 -76.126774 -8.457712
13.077223 -78.769603 -8.394137
14.308891 -77.563087 -8.395073
31.953642 -45.544698 -6.88864
30.338458 -45.823904 -6.698314
31.265935 -44.228577 -7.458132
32.572187 -46.853904 -6.637128
31.953642 -45.544698 -6.88864
11.383554 -89.547416 15.038812
11.492998 -89.26258 16.758973
10.193677 -89.151733 15.158966
11.383554 -89.547416 15.038812
12.928193 -89.70718 19.865121
12.511595 -88.791535 21.71752
12.113813 -89.887799 21.161788
13.952182 -90.015835 19.248717
12.928193 -89.70718 19.865121
20.847155 -86.383682 33.981621
21.289268 -85.429821 35.593191
19.154072 -86.686043 33.633031
20.032464 -86.879647 32.346887
20.847155 -86.383682 33.981621
12.989065 -89.275185 3.666559
13.352855 -89.51891 5.198993
12.343961 -88.986176 2.201931
12.989065 -89.275185 3.666559
12.5088 -88.591538 3.83673
11.015032 -89.406398 1.194565
12.343961 -88.986176 2.201931
6.065542 -87.64077 -3.201569
7.998484 -87.915322 -2.810674
7.370331 -86.361358 -2.543389
6.065542 -87.64077 -3.201569
4.840817 -87.006782 -4.300514
30.385739 -56.543291 -5.433254
30.515277 -54.839285 -5.438614
31.780105 -54.838394 -5.747568
28.961309 -58.145195 -4.844912
30.385739 -56.543291 -5.433254
17.922193 -71.642098 37.947108
18.09756 -72.924492 38.300119
17.484935 -71.828392 38.773514
17.718778 -70.3168 37.635433
18.331403 -71.412899 37.162039
17.922193 -71.642098 37.947108
16.212096 -73.141884 41.496685
15.727818 -72.431725 41.055203
16.998036 -74.074039 41.116207
16.15777 -74.00317 42.050285
16.212096 -73.141884 41.496685
22.233882 -65.303877 23.336138
21.533978 -64.944859 24.661232
20.123421 -57.808357 12.644889
21.231148 -58.560007 12.74042
20.551093 -58.47583 11.342304
20.123421 -57.808357 12.644889
21.163038 -58.883598 10.070875
22.071672 -59.684845 10.011313
20.551093 -58.47583 11.342304
21.772819 -56.810797 7.664358
20.991252 -57.172562 8.307148
19.805487 -56.079599 8.33782
15.193378 -49.17269 3.868296
16.686083 -49.891394 4.458171
15.289678 -48.568027 3.319703
15.193378 -49.17269 3.868296
20.338418 -86.36607 25.563765
21.082698 -86.772171 26.852524
20.338418 -86.36607 25.563765
19.211674 -86.681183 25.138568
8.399898 -80.739254 -4.579557
7.091586 -79.812798 -3.5115
8.843699 -79.319119 -3.126708
9.844631 -82.041374 -4.910494
8.399898 -80.739254 -4.579557
9.844631 -82.041374 -4.910494
11.437034 -80.599991 -5.152205
18.751248 -77.188896 44.121429
17.507421 -76.378136 43.891965
20.001525 -78.146507 44.448625
18.751248 -77.188896 44.121429
19.014989 -78.107834 43.846353
21.133116 -79.316284 43.90494
20.001525 -78.146507 44.448625
21.530156 -80.64193 43.011153
21.133116 -79.316284 43.90494
20.662306 -80.39109 43.279763
21.645122 -81.942718 41.941511
21.530156 -80.64193 43.011153
21.23529 -83.364143 40.807112
21.645122 -81.942718 41.941511
20.649513 -83.138161 41.251576
20.908329 -84.566769 39.318243
21.903938 -83.371327 40.008178
21.23529 -83.364143 40.807112
33.914088 -51.229883 -7.422588
32.755149 -52.9773 -6.688395
33.068582 -51.386971 -6.48712
34.626718 -49.347416 -8.264305
33.914088 -51.229883 -7.422588
34.626718 -49.347416 -8.264305
34.974567 -47.884754 -8.020834
19.208061 -68.807301 31.779005
19.638179 -70.529247 31.576318
18.915836 -68.163697 33.07064
19.837815 -69.303521 30.528806
19.208061 -68.807301 31.779005
19.115472 -66.93797 32.023128
19.248964 -65.864426 30.852948
18.16603 -65.888061 31.708623
20.194399 -68.125962 29.394219
19.248964 -65.864426 30.852948
19.698138 -66.556198 29.474238
23.574942 -62.573908 21.309626
22.721137 -62.363468 22.456338
23.866822 -64.588791 19.319421
23.574942 -62.573908 21.309626
23.799912 -62.848307 19.727256
18.322504 -55.443201 8.293992
19.805487 -56.079599 8.33782
18.971336 -54.92062 7.795336
18.322504 -55.443201 8.293992
19.634492 -54.491289 7.391465
21.250211 -55.288504 7.291159
18.971336 -54.92062 7.795336
20.321492 -53.907045 6.836595
19.634492 -54.491289 7.391465
15.911446 -86.519028 23.576308
17.009115 -86.990189 23.97931
16.22111 -86.823441 25.320011
15.710101 -86.854919 21.640724
15.911446 -86.519028 23.576308
14.922096 -86.688171 22.981425
15.827006 -87.47707 19.929153
15.710101 -86.854919 21.640724
15.186242 -88.266205 19.382366
14.023363 -87.817489 20.733347
14.488854 -89.059631 19.069872
15.827006 -87.47707 19.929153
15.186242 -88.266205 19.382366
21.474559 -67.458835 -5.265992
23.338022 -65.802875 -5.016257
23.197344 -59.776032 20.362704
23.896397 -61.08675 20.352618
23.636654 -59.92288 19.117308
23.197344 -59.776032 20.362704
23.522013 -60.178135 17.653804
24.170119 -61.595331 17.524271
23.636654 -59.92288 19.117308
23.489891 -60.429453 16.297364
23.522013 -60.178135 17.653804
23.091902 -60.733897 14.885375
23.657488 -62.155029 14.648778
23.489891 -60.429453 16.297364
22.795648 -59.49625 15.213013
22.963245 -61.221827 13.564427
23.091902 -60.733897 14.885375
21.753635 -58.43424 15.333229
22.795648 -59.49625 15.213013
21.834781 -58.913559 14.045081
21.753635 -58.43424 15.333229
19.912954 -86.962685 28.039118
21.082698 -86.772171 26.852524
18.465562 -87.06223 27.735011
19.912954 -86.962685 28.039118
18.9286 -87.261197 29.164088
10.616983 -88.502544 0.953356
12.126368 -87.260257 1.816546
10.879655 -87.460273 0.3978
11.015032 -89.406398 1.194565
10.616983 -88.502544 0.953356
9.336772 -87.669235 -1.308943
7.998484 -87.915322 -2.810674
24.277393 -62.59215 -5.78845
24.581104 -61.031052 -6.088715
25.771429 -61.23171 -5.212979
23.824807 -64.186893 -5.42898
22.634481 -63.986235 -6.304715
24.277393 -62.59215 -5.78845
23.338022 -65.802875 -5.016257
23.824807 -64.186893 -5.42898
16.810287 -69.423535 37.305346
17.718778 -70.3168 37.635433
17.195477 -69.038784 36.510374
16.810287 -69.423535 37.305346
17.595868 -68.897106 35.558683
18.528379 -69.945923 35.898674
17.195477 -69.038784 36.510374
18.098436 -68.449463 34.884708
17.595868 -68.897106 35.558683
18.307027 -68.490162 33.845193
19.137362 -69.844944 33.907469
18.098436 -68.449463 34.884708
18.915836 -68.163697 33.07064
18.307027 -68.490162 33.845193
16.248004 -75.252213 43.738315
16.157203 -75.060818 43.236597
17.066418 -75.674908 43.614137
16.248004 -75.252213 43.738315
17.323709 -76.446995 43.241329
17.507421 -76.378136 43.891965
17.066418 -75.674908 43.614137
28.947409 -43.247007 -8.113038
28.226618 -44.724495 -7.292502
27.523277 -43.463721 -8.137733
30.249405 -43.083023 -8.188738
28.947409 -43.247007 -8.113038
13.92004 -42.008861 3.595902
13.609274 -42.37109 2.480175
12.876254 -42.585121 2.902729
14.409161 -40.798956 3.805135
13.92004 -42.008861 3.595902
15.524691 -40.721691 3.568789
14.409161 -40.798956 3.805135
12.876254 -42.585121 2.902729
12.141774 -43.573683 1.966098
9.153254 -88.882797 15.352362
10.193677 -89.151733 15.158966
9.75613 -88.186447 17.056112
8.415166 -89.649047 14.138737
9.153254 -88.882797 15.352362
7.977618 -88.683762 16.035882
7.442361 -90.975029 14.010426
8.415166 -89.649047 14.138737
6.673179 -91.83643 13.093484
7.442361 -90.975029 14.010426
6.470348 -90.311413 13.905314
5.846284 -92.740543 12.826707
6.673179 -91.83643 13.093484
5.436839 -93.446697 11.671623
5.846284 -92.740543 12.826707
5.29172 -91.878967 11.833288
5.723386 -94.010849 10.287702
5.436839 -93.446697 11.671623
5.723386 -94.010849 10.287702
5.119698 -93.149258 9.163569
5.136421 -92.425731 7.227741
4.854135 -91.904838 8.6116
4.633435 -90.617176 8.190407
5.136421 -92.425731 7.227741
6.436216 -92.626568 6.460142
9.50293 -90.113327 6.492394
9.327713 -91.205044 6.20161
7.837803 -90.371944 6.246536
10.986529 -90.175197 6.778085
9.50293 -90.113327 6.492394
9.49662 -89.342098 6.823011
12.266012 -89.78062 6.102665
10.986529 -90.175197 6.778085
12.067062 -89.142258 6.205031
13.352855 -89.51891 5.198993
12.266012 -89.78062 6.102665
20.296382 -64.288437 27.287633
21.276235 -64.528668 26.175433
21.057243 -65.837593 27.297356
20.296382 -64.288437 27.287633
21.254599 -68.274895 25.347637
20.750971 -67.739472 26.753163
21.057243 -65.837593 27.297356
23.016628 -63.858373 22.35532
22.095914 -61.907449 23.909867
22.721137 -62.363468 22.456338
22.455191 -65.650549 21.657683
23.016628 -63.858373 22.35532
23.080414 -66.106567 20.204154
22.297669 -67.552071 21.184973
22.233882 -65.303877 23.336138
22.455191 -65.650549 21.657683
22.003193 -60.243977 11.175849
21.774614 -59.526906 12.633527
21.231148 -58.560007 12.74042
20.448169 -57.899318 10.137878
19.258038 -57.2804 10.011354
21.968749 -59.108334 8.806887
21.163038 -58.883598 10.070875
20.448169 -57.899318 10.137878
22.106232 -58.013907 8.253789
20.1389 -57.282709 8.92725
20.991252 -57.172562 8.307148
20.862998 -53.485149 6.36386
22.454872 -54.437277 6.414554
20.321492 -53.907045 6.836595
21.3601 -52.997925 5.828996
20.862998 -53.485149 6.36386
19.22672 -52.467693 6.251037
18.086706 -51.187023 5.421083
17.633826 -51.698645 6.009992
19.949943 -51.490628 5.101494
18.086706 -51.187023 5.421083
18.312828 -50.697182 4.806404
15.293698 -48.024244 2.585504
16.926595 -48.845427 3.056151
15.289678 -48.568027 3.319703
15.322265 -47.382034 1.987239
15.293698 -48.024244 2.585504
13.685349 -47.104635 2.25079
12.516664 -44.568716 1.334531
13.514592 -45.699921 1.088197
12.715988 -45.331221 1.898859
12.141774 -43.573683 1.966098
12.940378 -43.942383 1.155436
12.516664 -44.568716 1.334531
18.146105 -86.946624 24.695054
17.009115 -86.990189 23.97931
14.326966 -42.071312 1.240693
13.892399 -42.122067 1.848895
15.087625 -41.744075 2.565146
14.669006 -41.686742 0.646636
13.473781 -42.064734 -0.069615
14.326966 -42.071312 1.240693
15.115511 -41.427193 0.043501
14.669006 -41.686742 0.646636
15.44086 -41.030912 -0.49975
14.14117 -41.283884 -1.206923
15.115511 -41.427193 0.043501
15.825207 -40.791736 -1.125312
15.44086 -41.030912 -0.49975
16.129219 -40.423557 -1.645815
14.77053 -40.519424 -2.270676
15.825207 -40.791736 -1.125312
16.476551 -40.099463 -2.244501
16.129219 -40.423557 -1.645815
16.724495 -39.790079 -2.777006
15.322485 -39.841862 -3.323685
16.476551 -40.099463 -2.244501
16.894976 -39.448757 -3.393908
16.724495 -39.790079 -2.777006
17.165554 -39.138455 -3.988244
15.841007 -39.222175 -4.450527
16.894976 -39.448757 -3.393908
18.213803 -38.868284 -3.575436
19.910829 -39.616426 -3.256682
17.159833 -38.641703 -4.632055
17.165554 -39.138455 -3.988244
18.213803 -38.868284 -3.575436
19.533085 -37.708839 -5.579732
19.847228 -38.594257 -4.798463
17.923746 -36.883745 -6.454048
19.533085 -37.708839 -5.579732
19.503529 -37.294542 -6.335875
18.664789 -35.569931 -8.679799
19.044249 -36.254312 -7.933003
17.916173 -36.36258 -9.701481
18.664789 -35.569931 -8.679799
18.707825 -35.746421 -9.441755
19.348055 -39.132885 -10.939115
18.815593 -38.721043 -10.397315
18.491672 -36.950913 -11.005237
20.243782 -39.523465 -10.843254
20.567703 -41.293594 -10.235332
19.348055 -39.132885 -10.939115
21.188474 -39.926653 -10.979007
20.243782 -39.523465 -10.843254
22.147944 -40.093736 -10.608798
22.4229 -41.851258 -9.769262
21.188474 -39.926653 -10.979007
23.310468 -40.387512 -10.384096
22.147944 -40.093736 -10.608798
24.460684 -40.392156 -10.168267
24.532587 -42.022986 -9.183226
23.310468 -40.387512 -10.384096
25.640869 -40.552853 -10.089965
24.460684 -40.392156 -10.168267
26.963436 -42.006932 -8.962833
25.640869 -40.552853 -10.089965
3.734085 -81.361916 -4.437596
3.86005 -79.724167 -3.007389
4.384758 -80.392983 -4.769093
3.933826 -83.206199 -5.451294
3.409118 -82.537384 -3.68959
3.734085 -81.361916 -4.437596
3.939806 -85.332962 -6.198787
3.933826 -83.206199 -5.451294
19.763484 -68.882439 -5.669632
20.47082 -67.004582 -6.348884
21.474559 -67.458835 -5.265992
18.320397 -70.360863 -6.26997
19.763484 -68.882439 -5.669632
19.324136 -70.815117 -5.187079
18.016958 -73.710209 -6.782636
18.988966 -72.68084 -5.258195
16.857721 -73.576973 -6.659036
18.016958 -73.710209 -6.782636
16.993631 -74.993641 -7.654255
12.927218 -79.343719 -6.757511
12.433233 -79.267098 -5.636672
12.638395 -77.65641 -6.284538
12.927218 -79.343719 -6.757511
13.077223 -78.769603 -8.394137
3 0 131 129
3 1 134 132
3 1 137 135
3 1 132 137
3 2 141 139
3 516 515 142
3 514 515 516
3 3 146 144
3 5 149 147
3 5 151 149
3 6 517 519
3 517 152 518
3 517 518 519
3 7 155 153
3 7 157 155
3 8 160 158
3 8 162 160
3 8 164 162
3 6 520 522
3 522 521 165
3 520 521 522
3 6 523 524
3 4 169 167
3 9 172 170
3 11 175 173
3 11 177 175
3 12 180 178
3 14 183 181
3 14 185 183
3 15 525 526
3 15 527 528
3 15 529 531
3 529 186 530
3 529 530 531
3 12 189 187
3 12 178 189
3 17 192 191
3 18 532 534
3 534 533 193
3 532 533 534
3 18 535 536
3 19 196 194
3 538 537 197
3 540 539 199
3 541 201 542
3 543 199 544
3 545 544 201
3 543 544 545
3 22 205 203
3 24 208 206
3 24 210 208
3 10 213 211
3 25 216 214
3 25 218 216
3 25 220 218
3 26 223 221
3 26 225 223
3 13 228 226
3 27 231 229
3 27 233 231
3 27 235 233
3 28 238 236
3 28 240 238
3 21 243 241
3 29 246 244
3 29 248 246
3 30 251 249
3 30 253 251
3 30 255 253
3 31 258 256
3 31 260 258
3 31 262 260
3 32 265 263
3 32 267 265
3 33 271 269
3 33 273 271
3 33 275 273
3 16 546 548
3 548 547 276
3 546 547 548
3 23 279 277
3 34 282 280
3 34 549 551
3 551 550 282
3 549 550 551
3 20 285 283
3 35 288 286
3 37 289 130
3 37 290 289
3 38 293 291
3 40 294 133
3 40 295 294
3 41 297 296
3 42 298 136
3 42 299 298
3 42 301 299
3 38 302 138
3 38 291 302
3 44 305 303
3 46 306 140
3 46 307 306
3 47 310 308
3 552 311 553
3 554 553 143
3 552 553 554
3 555 312 556
3 557 556 311
3 555 556 557
3 559 558 312
3 49 315 313
3 51 316 145
3 51 317 316
3 52 320 318
3 54 321 148
3 54 322 321
3 54 324 322
3 56 325 150
3 56 326 325
3 57 329 327
3 59 330 154
3 59 331 330
3 59 333 331
3 61 334 156
3 61 335 334
3 560 337 561
3 562 338 563
3 564 339 565
3 566 565 338
3 564 565 566
3 63 567 569
3 567 341 568
3 567 568 569
3 65 342 159
3 65 343 342
3 65 345 343
3 67 346 161
3 67 347 346
3 67 349 347
3 69 350 163
3 69 351 350
3 70 353 352
3 571 570 166
3 71 356 354
3 73 357 168
3 73 358 357
3 74 361 359
3 76 362 171
3 76 363 362
3 36 364 287
3 77 365 174
3 77 366 365
3 77 367 366
3 78 368 176
3 78 369 368
3 79 372 370
3 81 373 179
3 81 374 373
3 39 375 292
3 82 376 182
3 82 377 376
3 82 378 377
3 83 379 184
3 83 380 379
3 84 572 573
3 84 574 576
3 574 382 575
3 574 575 576
3 43 383 300
3 85 384 188
3 85 385 384
3 85 386 385
3 79 387 190
3 79 370 387
3 45 577 579
3 579 578 304
3 577 578 579
3 86 390 388
3 88 391 195
3 88 392 391
3 48 393 309
3 580 394 581
3 582 581 198
3 580 581 582
3 584 583 394
3 89 397 395
3 91 398 200
3 91 399 398
3 92 585 587
3 585 586 587
3 92 588 590
3 588 400 589
3 588 589 590
3 92 401 400
3 89 402 202
3 89 395 402
3 93 405 403
3 95 406 204
3 95 407 406
3 50 408 314
3 96 409 207
3 96 410 409
3 96 411 410
3 97 412 209
3 97 413 412
3 75 414 360
3 98 415 212
3 98 416 415
3 53 417 319
3 99 418 215
3 99 419 418
3 99 420 419
3 100 421 217
3 100 422 421
3 100 423 422
3 101 424 219
3 101 425 424
3 55 426 323
3 102 427 222
3 102 428 427
3 102 429 428
3 103 430 224
3 103 591 593
3 593 592 430
3 591 592 593
3 80 432 371
3 104 433 227
3 104 434 433
3 58 435 328
3 105 436 230
3 105 437 436
3 105 594 596
3 596 595 437
3 594 595 596
3 106 597 599
3 599 598 232
3 597 598 599
3 106 600 601
3 106 602 603
3 107 438 234
3 107 439 438
3 60 440 332
3 108 441 237
3 108 442 441
3 108 443 442
3 109 444 239
3 109 445 444
3 90 446 396
3 110 447 242
3 110 448 447
3 62 449 336
3 111 450 245
3 111 451 450
3 111 452 451
3 112 453 247
3 112 454 453
3 113 604 606
3 604 455 605
3 604 605 606
3 113 456 455
3 64 457 340
3 114 458 250
3 114 459 458
3 114 460 459
3 115 461 252
3 115 462 461
3 115 463 462
3 116 464 254
3 116 465 464
3 66 466 344
3 117 467 257
3 117 468 467
3 117 469 468
3 118 470 259
3 118 471 470
3 118 472 471
3 119 473 261
3 119 474 473
3 68 475 348
3 120 476 264
3 120 477 476
3 120 478 477
3 121 479 266
3 121 480 479
3 607 481 608
3 609 608 381
3 607 608 609
3 122 482 268
3 122 483 482
3 610 484 611
3 123 485 270
3 123 486 485
3 123 487 486
3 124 488 272
3 124 489 488
3 124 490 489
3 125 491 274
3 125 492 491
3 612 493 613
3 126 614 616
3 614 494 615
3 614 615 616
3 126 495 494
3 126 496 495
3 617 497 618
3 620 619 497
3 622 621 431
3 623 498 624
3 625 499 626
3 627 626 498
3 625 626 627
3 628 500 629
3 630 501 631
3 632 631 500
3 630 631 632
3 633 502 634
3 636 635 502
3 94 503 404
3 127 504 278
3 127 505 504
3 72 506 355
3 637 507 638
3 639 638 281
3 637 638 639
3 641 640 507
3 87 508 389
3 128 509 284
3 128 510 509
3 642 511 643
3 644 512 645
3 646 513 647
3 648 647 512
3 646 647 648
3 650 649 513
3 129 130 35
3 131 130 129
3 131 37 130
3 132 133 38
3 134 133 132
3 134 40 133
3 135 136 41
3 137 136 135
3 137 42 136
3 137 138 42
3 132 138 137
3 132 38 138
3 139 140 44
3 141 140 139
3 141 46 140
3 142 143 47
3 651 143 652
3 653 652 142
3 651 652 653
3 655 654 143
3 144 145 49
3 146 145 144
3 146 51 145
3 147 148 52
3 149 148 147
3 149 54 148
3 149 150 54
3 151 150 149
3 151 56 150
3 152 656 657
3 152 658 659
3 153 154 57
3 155 154 153
3 155 59 154
3 155 156 59
3 157 156 155
3 157 61 156
3 158 159 63
3 160 159 158
3 160 65 159
3 160 161 65
3 162 161 160
3 162 67 161
3 162 163 67
3 164 163 162
3 164 69 163
3 165 166 70
3 660 166 661
3 662 661 165
3 660 661 662
3 664 663 166
3 167 168 71
3 169 168 167
3 169 73 168
3 170 171 74
3 172 171 170
3 172 76 171
3 173 174 36
3 175 174 173
3 175 77 174
3 175 176 77
3 177 176 175
3 177 78 176
3 178 179 79
3 180 179 178
3 180 81 179
3 181 182 39
3 183 182 181
3 183 82 182
3 183 184 82
3 185 184 183
3 185 83 184
3 186 665 666
3 186 667 669
3 667 84 668
3 667 668 669
3 187 188 43
3 189 188 187
3 189 85 188
3 189 190 85
3 178 190 189
3 178 79 190
3 191 670 671
3 192 672 674
3 674 673 191
3 672 673 674
3 192 675 676
3 193 677 679
3 679 678 45
3 677 678 679
3 681 680 193
3 194 195 86
3 196 195 194
3 196 88 195
3 197 198 48
3 682 198 683
3 684 683 197
3 682 683 684
3 686 685 198
3 199 200 89
3 687 200 688
3 689 688 199
3 687 688 689
3 690 91 691
3 692 691 200
3 690 691 692
3 201 693 694
3 201 695 697
3 695 92 696
3 695 696 697
3 201 202 92
3 199 202 201
3 199 89 202
3 203 204 93
3 205 204 203
3 205 95 204
3 206 207 50
3 208 207 206
3 208 96 207
3 208 209 96
3 210 209 208
3 210 97 209
3 211 212 75
3 213 212 211
3 213 98 212
3 214 215 53
3 216 215 214
3 216 99 215
3 216 217 99
3 218 217 216
3 218 100 217
3 218 219 100
3 220 219 218
3 220 101 219
3 221 222 55
3 223 222 221
3 223 102 222
3 223 224 102
3 225 224 223
3 225 103 224
3 226 227 80
3 228 227 226
3 228 104 227
3 229 230 58
3 231 230 229
3 231 105 230
3 231 232 105
3 233 232 231
3 233 106 232
3 233 234 106
3 235 234 233
3 235 107 234
3 236 237 60
3 238 237 236
3 238 108 237
3 238 239 108
3 240 239 238
3 240 109 239
3 241 242 90
3 243 242 241
3 243 110 242
3 244 245 62
3 246 245 244
3 246 111 245
3 246 247 111
3 248 247 246
3 248 112 247
3 698 113 699
3 249 250 64
3 251 250 249
3 251 114 250
3 251 252 114
3 253 252 251
3 253 115 252
3 253 254 115
3 255 254 253
3 255 116 254
3 256 257 66
3 258 257 256
3 258 117 257
3 258 259 117
3 260 259 258
3 260 118 259
3 260 261 118
3 262 261 260
3 262 119 261
3 263 264 68
3 265 264 263
3 265 120 264
3 265 266 120
3 267 266 265
3 267 121 266
3 700 268 701
3 702 268 703
3 704 122 705
3 706 705 268
3 704 705 706
3 269 707 709
3 707 270 708
3 707 708 709
3 271 270 269
3 271 123 270
3 271 272 123
3 273 272 271
3 273 124 272
3 273 274 124
3 275 274 273
3 275 125 274
3 710 126 711
3 713 712 126
3 276 714 715
3 717 716 276
3 277 278 94
3 279 278 277
3 279 127 278
3 280 281 72
3 282 281 280
3 282 718 720
3 720 719 281
3 718 719 720
3 282 721 722
3 724 723 282
3 283 284 87
3 285 284 283
3 285 128 284
3 286 287 9
3 288 287 286
3 288 36 287
3 130 288 35
3 289 288 130
3 289 36 288
3 289 173 36
3 290 173 289
3 290 11 173
3 291 292 12
3 293 292 291
3 293 39 292
3 133 293 38
3 294 293 133
3 294 39 293
3 294 181 39
3 295 181 294
3 295 14 181
3 296 725 726
3 297 727 729
3 729 728 296
3 727 728 729
3 297 730 731
3 136 297 41
3 298 297 136
3 298 732 734
3 734 733 297
3 732 733 734
3 298 735 736
3 299 737 739
3 739 738 298
3 737 738 739
3 299 740 742
3 740 15 741
3 740 741 742
3 299 300 15
3 301 300 299
3 301 43 300
3 138 301 42
3 302 301 138
3 302 43 301
3 302 187 43
3 291 187 302
3 291 12 187
3 303 304 17
3 305 304 303
3 305 45 304
3 140 305 44
3 306 305 140
3 306 45 305
3 306 193 45
3 307 193 306
3 307 18 193
3 308 309 19
3 310 309 308
3 310 48 309
3 143 310 47
3 311 310 143
3 311 48 310
3 311 197 48
3 312 197 311
3 312 743 745
3 745 744 197
3 743 744 745
3 312 746 747
3 749 748 312
3 313 314 22
3 315 314 313
3 315 50 314
3 145 315 49
3 316 315 145
3 316 50 315
3 316 206 50
3 317 206 316
3 317 24 206
3 318 319 10
3 320 319 318
3 320 53 319
3 148 320 52
3 321 320 148
3 321 53 320
3 321 214 53
3 322 214 321
3 322 25 214
3 322 323 25
3 324 323 322
3 324 55 323
3 150 324 54
3 325 324 150
3 325 55 324
3 325 221 55
3 326 221 325
3 326 26 221
3 327 328 13
3 329 328 327
3 329 58 328
3 154 329 57
3 330 329 154
3 330 58 329
3 330 229 58
3 331 229 330
3 331 27 229
3 331 332 27
3 333 332 331
3 333 60 332
3 156 333 59
3 334 333 156
3 334 60 333
3 334 236 60
3 335 236 334
3 335 28 236
3 750 336 751
3 752 751 21
3 750 751 752
3 337 753 755
3 753 336 754
3 753 754 755
3 337 62 336
3 756 337 757
3 338 758 760
3 758 337 759
3 758 759 760
3 338 62 337
3 338 244 62
3 339 244 338
3 339 29 244
3 761 340 762
3 341 763 765
3 763 340 764
3 763 764 765
3 341 64 340
3 159 341 63
3 342 341 159
3 342 64 341
3 342 249 64
3 343 249 342
3 343 30 249
3 343 344 30
3 345 344 343
3 345 66 344
3 161 345 65
3 346 345 161
3 346 66 345
3 346 256 66
3 347 256 346
3 347 31 256
3 347 348 31
3 349 348 347
3 349 68 348
3 163 349 67
3 350 349 163
3 350 68 349
3 350 263 68
3 351 263 350
3 351 32 263
3 766 269 767
3 768 269 769
3 770 33 771
3 772 771 269
3 770 771 772
3 774 773 33
3 352 775 777
3 777 776 16
3 775 776 777
3 353 778 780
3 780 779 352
3 778 779 780
3 353 781 782
3 166 353 70
3 783 353 784
3 785 784 166
3 783 784 785
3 787 786 353
3 354 355 23
3 356 355 354
3 356 72 355
3 168 356 71
3 357 356 168
3 357 72 356
3 357 280 72
3 358 280 357
3 358 34 280
3 789 788 20
3 359 360 3
3 361 360 359
3 361 75 360
3 171 361 74
3 362 361 171
3 362 75 361
3 362 211 75
3 363 211 362
3 363 10 211
3 287 172 9
3 364 172 287
3 364 76 172
3 174 364 36
3 365 364 174
3 365 76 364
3 365 363 76
3 366 363 365
3 366 10 363
3 366 318 10
3 367 318 366
3 367 52 318
3 176 367 77
3 368 367 176
3 368 52 367
3 368 147 52
3 369 147 368
3 369 5 147
3 370 371 6
3 372 371 370
3 372 80 371
3 179 372 79
3 373 372 179
3 373 80 372
3 373 226 80
3 374 226 373
3 374 13 226
3 292 180 12
3 375 180 292
3 375 81 180
3 182 375 39
3 376 375 182
3 376 81 375
3 376 374 81
3 377 374 376
3 377 13 374
3 377 327 13
3 378 327 377
3 378 57 327
3 184 378 82
3 379 378 184
3 379 57 378
3 379 153 57
3 380 153 379
3 380 7 153
3 790 63 791
3 792 63 793
3 794 158 795
3 796 795 63
3 794 795 796
3 797 158 798
3 799 8 800
3 801 800 158
3 799 800 801
3 802 381 803
3 804 803 8
3 802 803 804
3 805 381 806
3 808 807 381
3 809 276 810
3 382 811 813
3 811 276 812
3 811 812 813
3 382 16 276
3 300 186 15
3 383 186 300
3 383 84 186
3 188 383 43
3 384 383 188
3 384 84 383
3 384 382 84
3 385 382 384
3 385 16 382
3 385 352 16
3 386 352 385
3 386 70 352
3 190 386 85
3 387 386 190
3 387 70 386
3 387 165 70
3 370 165 387
3 370 6 165
3 304 192 17
3 814 192 815
3 816 815 304
3 814 815 816
3 818 817 192
3 820 819 45
3 388 389 4
3 390 389 388
3 390 87 389
3 195 390 86
3 391 390 195
3 391 87 390
3 391 283 87
3 392 283 391
3 392 20 283
3 309 196 19
3 393 196 309
3 393 88 196
3 198 393 48
3 394 393 198
3 394 88 393
3 394 392 88
3 821 392 822
3 823 822 394
3 821 822 823
3 824 20 825
3 826 825 392
3 824 825 826
3 828 827 20
3 395 396 1
3 397 396 395
3 397 90 396
3 200 397 89
3 398 397 200
3 398 90 397
3 398 241 90
3 399 241 398
3 399 21 241
3 829 91 830
3 831 91 832
3 833 399 834
3 835 834 91
3 833 834 835
3 836 399 837
3 838 21 839
3 840 839 399
3 838 839 840
3 842 841 21
3 400 843 844
3 400 845 846
3 400 847 849
3 847 296 848
3 847 848 849
3 401 296 400
3 401 41 296
3 202 401 92
3 402 401 202
3 402 41 401
3 402 135 41
3 395 135 402
3 395 1 135
3 403 404 2
3 405 404 403
3 405 94 404
3 204 405 93
3 406 405 204
3 406 94 405
3 406 277 94
3 407 277 406
3 407 23 277
3 314 205 22
3 408 205 314
3 408 95 205
3 207 408 50
3 409 408 207
3 409 95 408
3 409 407 95
3 410 407 409
3 410 23 407
3 410 354 23
3 411 354 410
3 411 71 354
3 209 411 96
3 412 411 209
3 412 71 411
3 412 167 71
3 413 167 412
3 413 4 167
3 360 146 3
3 414 146 360
3 414 51 146
3 212 414 75
3 415 414 212
3 415 51 414
3 415 317 51
3 416 317 415
3 416 24 317
3 319 213 10
3 417 213 319
3 417 98 213
3 215 417 53
3 418 417 215
3 418 98 417
3 418 416 98
3 419 416 418
3 419 24 416
3 419 210 24
3 420 210 419
3 420 97 210
3 217 420 99
3 421 420 217
3 421 97 420
3 421 413 97
3 422 413 421
3 422 4 413
3 422 388 4
3 423 388 422
3 423 86 388
3 219 423 100
3 424 423 219
3 424 86 423
3 424 194 86
3 425 194 424
3 425 19 194
3 323 220 25
3 426 220 323
3 426 101 220
3 222 426 55
3 427 426 222
3 427 101 426
3 427 425 101
3 428 425 427
3 428 19 425
3 428 308 19
3 429 308 428
3 429 47 308
3 224 429 102
3 430 429 224
3 430 47 429
3 430 142 47
3 850 142 851
3 852 851 430
3 850 851 852
3 854 853 142
3 855 431 856
3 857 856 0
3 855 856 857
3 858 431 859
3 861 860 431
3 862 0 863
3 371 152 6
3 432 152 371
3 432 864 866
3 866 865 152
3 864 865 866
3 227 432 80
3 433 432 227
3 433 867 869
3 869 868 432
3 867 868 869
3 433 870 871
3 434 872 874
3 874 873 433
3 872 873 874
3 434 875 876
3 328 228 13
3 435 228 328
3 435 104 228
3 230 435 58
3 436 435 230
3 436 104 435
3 436 434 104
3 437 434 436
3 437 877 879
3 879 878 434
3 877 878 879
3 437 880 881
3 883 882 437
3 232 884 886
3 886 885 105
3 884 885 886
3 888 887 232
3 234 889 891
3 891 890 106
3 889 890 891
3 438 892 894
3 894 893 234
3 892 893 894
3 438 895 896
3 438 897 899
3 897 191 898
3 897 898 899
3 439 191 438
3 439 17 191
3 332 235 27
3 440 235 332
3 440 107 235
3 237 440 60
3 441 440 237
3 441 107 440
3 441 439 107
3 442 439 441
3 442 17 439
3 442 303 17
3 443 303 442
3 443 44 303
3 239 443 108
3 444 443 239
3 444 44 443
3 444 139 44
3 445 139 444
3 445 2 139
3 396 134 1
3 446 134 396
3 446 40 134
3 242 446 90
3 447 446 242
3 447 40 446
3 447 295 40
3 448 295 447
3 448 14 295
3 336 243 21
3 449 243 336
3 449 110 243
3 245 449 62
3 450 449 245
3 450 110 449
3 450 448 110
3 451 448 450
3 451 14 448
3 451 185 14
3 452 185 451
3 452 83 185
3 247 452 111
3 453 452 247
3 453 83 452
3 453 380 83
3 454 380 453
3 454 7 380
3 455 900 901
3 455 902 903
3 455 904 906
3 904 339 905
3 904 905 906
3 456 339 455
3 456 29 339
3 340 907 909
3 907 908 909
3 457 910 912
3 912 911 340
3 910 911 912
3 457 913 915
3 913 113 914
3 913 914 915
3 250 457 64
3 458 457 250
3 458 113 457
3 458 456 113
3 459 456 458
3 459 29 456
3 459 248 29
3 460 248 459
3 460 112 248
3 252 460 114
3 461 460 252
3 461 112 460
3 461 454 112
3 462 454 461
3 462 7 454
3 462 157 7
3 463 157 462
3 463 61 157
3 254 463 115
3 464 463 254
3 464 61 463
3 464 335 61
3 465 335 464
3 465 28 335
3 344 255 30
3 466 255 344
3 466 116 255
3 257 466 66
3 467 466 257
3 467 116 466
3 467 465 116
3 468 465 467
3 468 28 465
3 468 240 28
3 469 240 468
3 469 109 240
3 259 469 117
3 470 469 259
3 470 109 469
3 470 445 109
3 471 445 470
3 471 2 445
3 471 403 2
3 472 403 471
3 472 93 403
3 261 472 118
3 473 472 261
3 473 93 472
3 473 203 93
3 474 203 473
3 474 22 203
3 348 262 31
3 475 262 348
3 475 119 262
3 264 475 68
3 476 475 264
3 476 119 475
3 476 474 119
3 477 474 476
3 477 22 474
3 477 313 22
3 478 313 477
3 478 49 313
3 266 478 120
3 479 478 266
3 479 49 478
3 479 144 49
3 480 144 479
3 480 3 144
3 381 164 8
3 481 164 381
3 481 69 164
3 268 916 918
3 916 481 917
3 916 917 918
3 482 481 268
3 482 69 481
3 482 351 69
3 483 351 482
3 483 32 351
3 484 919 920
3 484 921 923
3 921 122 922
3 921 922 923
3 270 924 926
3 924 484 925
3 924 925 926
3 485 484 270
3 485 122 484
3 485 483 122
3 486 483 485
3 486 32 483
3 486 267 32
3 487 267 486
3 487 121 267
3 272 487 123
3 488 487 272
3 488 121 487
3 488 480 121
3 489 480 488
3 489 3 480
3 489 359 3
3 490 359 489
3 490 74 359
3 274 490 124
3 491 490 274
3 491 74 490
3 491 170 74
3 492 170 491
3 492 9 170
3 927 275 928
3 929 928 33
3 927 928 929
3 493 930 932
3 930 275 931
3 930 931 932
3 493 125 275
3 933 493 934
3 494 935 937
3 935 493 936
3 935 936 937
3 494 125 493
3 494 492 125
3 495 492 494
3 495 9 492
3 495 286 9
3 496 286 495
3 496 35 286
3 938 496 939
3 940 939 126
3 938 939 940
3 497 941 943
3 941 496 942
3 941 942 943
3 497 35 496
3 497 129 35
3 944 129 945
3 946 945 497
3 944 945 946
3 947 0 948
3 949 948 129
3 947 948 949
3 951 950 16
3 431 131 0
3 952 131 953
3 954 953 431
3 952 953 954
3 955 37 956
3 957 956 131
3 955 956 957
3 958 37 959
3 960 290 961
3 962 961 37
3 960 961 962
3 963 290 964
3 965 11 966
3 967 966 290
3 965 966 967
3 968 11 969
3 970 177 971
3 972 971 11
3 970 971 972
3 973 177 974
3 975 78 976
3 977 976 177
3 975 976 977
3 498 978 979
3 498 980 982
3 980 78 981
3 980 981 982
3 498 369 78
3 499 369 498
3 499 5 369
3 983 499 984
3 500 985 987
3 985 499 986
3 985 986 987
3 500 5 499
3 500 151 5
3 501 151 500
3 501 56 151
3 988 501 989
3 502 990 992
3 990 501 991
3 990 991 992
3 502 56 501
3 502 326 56
3 993 326 994
3 995 994 502
3 993 994 995
3 996 26 997
3 998 997 326
3 996 997 998
3 999 26 1000
3 1001 225 1002
3 1003 1002 26
3 1001 1002 1003
3 1004 225 1005
3 1006 103 1007
3 1008 1007 225
3 1006 1007 1008
3 1009 103 1010
3 1012 1011 103
3 404 141 2
3 503 141 404
3 503 46 141
3 278 503 94
3 504 503 278
3 504 46 503
3 504 307 46
3 505 307 504
3 505 18 307
3 355 279 23
3 506 279 355
3 506 127 279
3 281 506 72
3 507 506 281
3 507 127 506
3 507 505 127
3 1013 505 1014
3 1015 1014 507
3 1013 1014 1015
3 1016 18 1017
3 1018 1017 505
3 1016 1017 1018
3 1020 1019 18
3 389 169 4
3 508 169 389
3 508 73 169
3 284 508 87
3 509 508 284
3 509 73 508
3 509 358 73
3 510 358 509
3 510 34 358
3 1021 285 1022
3 1023 1022 20
3 1021 1022 1023
3 511 1024 1026
3 1024 285 1025
3 1024 1025 1026
3 511 128 285
3 1027 511 1028
3 512 1029 1031
3 1029 511 1030
3 1029 1030 1031
3 512 128 511
3 512 510 128
3 513 510 512
3 513 34 510
3 513 1032 1034
3 1034 1033 34
3 1032 1033 1034
3 1036 1035 513
