ply
format ascii 1.0
element vertex 884
property float x
property float y
property float z
element face 863
property list uchar int vertex_index
end_header
-11.736608 -67.495117 34.872688
-7.308177 -73.34639 46.686378
-6.430344 -9.63243 31.311136
-9.923994 -39.286098 42.404213
-9.688078 -63.281929 54.813255
-16.599461 -63.837334 28.958277
-6.77506 -22.625999 31.291742
-3.427007 -22.407253 27.417307
-8.352841 -34.538475 27.362255
-7.061361 -43.547092 21.300028
-7.590835 -72.580925 39.765034
-7.379402 -48.608517 50.93354
-7.102264 -55.045288 52.908794
-7.679178 -63.13195 47.050636
-13.869543 -65.324142 32.077477
-18.276154 -70.917152 29.491333
-4.3895 -70.659622 35.637608
-6.711624 -68.553078 31.680218
-8.962965 -66.408646 28.838459
-5.517169 -28.34972 30.437256
-8.529433 -28.246588 29.51651
-7.751993 -33.938442 29.462849
-8.305262 -38.933559 27.515797
-7.113053 -73.541191 42.960838
-12.686015 -73.32756 41.485634
-11.132953 -75.974167 44.082638
-7.327172 -52.249931 56.326836
-7.534099 -55.335133 56.473534
-6.404223 -68.08152 51.902607
-9.052676 -63.418755 50.930477
-5.671295 -68.521904 47.783741
-5.274779 -69.168175 43.680126
-8.019608 -32.689713 40.916527
-6.878379 -37.19199 42.765797
-6.066502 -52.224205 47.692627
-8.279307 -48.549335 46.953663
-3.125049 -8.531089 29.64686
-7.830801 -47.102413 16.546379
-8.106347 -72.854088 51.014153
-7.569921 -67.939743 56.03886
-18.7146 -62.913551 25.73558
-11.003601 -64.27623 26.058615
-6.962028 -16.393068 31.49242
-5.380548 -15.829394 29.422245
-7.026937 -22.217562 29.056376
-5.814446 -28.76145 27.206512
-4.239314 -35.203491 25.155752
-7.693164 -39.346348 24.727268
-8.357718 -43.503895 24.566639
-9.665474 -70.035629 37.669655
-16.040844 -70.750076 33.990185
-14.711645 -71.670959 37.8027
-6.380809 -52.43969 52.018028
-8.285247 -54.626556 48.892601
-11.013933 -57.239708 53.460407
-11.947605 -57.753563 49.583813
-10.552172 -58.848309 45.409374
-5.00053 -69.829803 39.517891
-5.069435 -11.794782 32.790138
-4.094074 -18.334946 32.41497
-4.000992 -24.32234 32.753006
-6.704255 -28.534367 40.95451
-9.247543 -45.848713 48.966766
-7.554404 -44.224628 45.642727
-12.740071 -66.44371 33.541843
-16.566593 -67.439049 31.00802
-15.612238 -67.588539 32.913311
-8.039804 -69.417656 34.98349
-5.349066 -69.880417 33.540375
-9.221523 -67.754807 33.473316
-10.225009 -66.485634 32.307674
-4.478517 -30.8857 30.170681
-6.956913 -31.030268 30.165924
-5.382632 -33.577827 29.469275
-5.817363 -36.033257 28.861027
-7.114616 -73.548752 44.737469
-8.889839 -74.928574 43.373665
-8.680243 -75.309715 45.092003
-6.477493 -70.969559 49.395317
-5.950812 -68.22628 49.834614
-6.223799 -71.261078 47.233318
-5.927767 -71.510689 45.226383
-11.074076 -37.378815 41.071266
-9.34857 -36.030869 41.325989
-8.270126 -38.223763 42.620918
-5.162959 -9.041522 30.442715
-7.509528 -70.374702 53.488361
-17.700495 -63.286755 27.390467
-20.158964 -66.734779 24.144176
-19.332867 -67.01194 25.707342
-12.282455 -63.765759 29.642883
-10.025584 -65.225418 27.472839
-13.648557 -62.662544 28.230078
-14.912725 -61.905449 26.728741
-6.918367 -19.613394 31.431519
-7.301377 -19.167265 30.284298
-7.769817 -22.316725 30.360346
-8.555359 -31.34939 28.568289
-7.632225 -28.450104 28.233118
-7.139553 -31.709295 27.356915
-5.022584 -32.078007 26.366673
-6.506831 -34.759659 26.124929
-5.994651 -37.262264 24.893229
-8.099754 -36.984299 26.177734
-8.529086 -41.204376 26.144657
-8.574896 -71.286453 38.736904
-12.283949 -70.391068 38.230865
-11.289366 -71.584709 39.471611
-15.438362 -74.264626 41.831825
-16.277369 -73.822525 39.714195
-6.879754 -53.872597 54.334179
-7.005347 -52.30611 54.151356
-6.103835 -53.810448 52.321777
-5.88882 -53.768719 50.298447
-7.620538 -54.87849 50.899719
-11.338121 -59.951782 55.404644
-11.069813 -57.124229 55.020313
-10.999916 -60.278015 53.95631
-8.245287 -63.125103 49.023975
-11.079864 -60.814556 50.206154
-10.375628 -60.945198 48.095726
-11.548774 -58.340809 47.450718
-9.136677 -61.029072 46.120987
-7.289938 -63.377052 44.936665
-5.692084 -71.652061 41.491432
-5.394371 -69.478783 41.640289
-5.473981 -71.665237 39.510296
-6.134874 -71.364525 37.726685
-4.436533 -15.032965 32.544094
-4.103112 -27.067719 33.001305
-7.952773 -27.098272 40.550255
-6.703874 -46.686256 49.760872
-7.112834 -46.326782 45.804535
-6.925536 -43.993538 44.171455
-4.496827 -19.091537 28.358521
-3.390758 -15.612836 28.658947
-15.180417 -64.532227 30.614422
-18.554878 -67.193008 27.439053
-17.648317 -67.369324 29.281122
-7.760929 -67.559288 30.152288
-11.143619 -65.079796 30.917145
-6.380091 -25.575207 30.972134
-8.1254 -25.361002 30.50275
-7.861623 -28.31538 30.499592
-8.596869 -31.060495 29.755747
-8.845981 -34.252544 28.656647
-8.917302 -36.745815 27.534403
-8.063439 -36.524574 28.584225
-6.204692 -38.523216 28.116461
-7.136177 -73.342484 41.101158
-10.244162 -72.928299 40.738064
-9.425325 -74.127068 41.904285
-11.75868 -74.788528 42.742821
-7.515985 -54.009563 56.434944
-7.216333 -55.186756 54.639534
-7.939093 -65.7202 53.8344
-9.599424 -63.508034 52.898979
-7.208915 -65.581467 51.680889
-6.533151 -65.337479 49.667725
-6.159091 -65.478333 47.803089
-5.867418 -65.725342 45.717461
-5.517859 -68.869614 45.746525
-5.815642 -71.726791 43.374882
-9.885305 -33.766365 40.489685
-7.613534 -34.91328 41.733978
-7.449285 -51.051506 49.461922
-7.810634 -48.534962 48.909546
-7.745879 -50.92527 47.327431
-8.294191 -45.682514 20.887936
-7.07743 -45.42522 19.017315
-7.614736 -73.242859 48.807858
-8.74219 -75.34169 46.932575
-9.245554 -74.945908 48.782845
-10.119362 -62.845398 56.438591
-8.273607 -65.579903 55.877068
-6.927981 -68.069839 54.045185
-6.921115 -70.718918 51.54969
-19.68128 -62.562462 23.956371
-11.492683 -40.458351 42.838055
-12.042913 -63.539173 24.4233
-16.058868 -61.407494 24.970541
-6.83255 -13.011793 31.40357
-5.956912 -12.540489 30.353827
-6.724231 -15.943285 30.303656
-6.208773 -19.075638 29.165503
-5.38598 -22.244848 28.066885
-7.940236 -25.247913 29.196674
-6.47709 -25.455647 27.981989
-4.636825 -25.770426 27.144165
-5.370631 -39.536407 23.471638
-7.319866 -41.528301 23.106937
-8.908582 -39.140343 26.233301
-8.7643 -41.494129 24.622736
-8.531148 -43.642536 22.926487
-8.166579 -45.699402 22.64481
-10.698229 -68.839653 36.352139
-14.453642 -68.289604 35.082577
-13.42338 -69.316483 36.723816
-15.3507 -71.130508 35.881889
-13.811521 -72.302711 39.720917
-10.718697 -76.453384 45.575901
-6.811732 -50.391693 55.975563
-7.338803 -50.239449 53.88567
-7.673365 -50.729057 51.746021
-5.969262 -52.259102 49.971184
-6.226567 -53.714245 48.224163
-9.117385 -54.51067 46.766228
-9.219056 -56.196602 56.442699
-8.890193 -56.109325 54.885426
-8.961199 -55.939873 53.189503
-11.20443 -60.534962 52.247852
-11.545824 -57.300285 51.601036
-9.605417 -55.681946 51.39035
-10.644501 -55.559406 49.392017
-11.255526 -55.877541 47.272026
-10.941033 -56.619366 45.150188
-5.58254 -66.03466 43.7873
-4.301046 -70.274933 37.598625
-7.108073 -70.507431 36.407543
-6.482184 -7.088387 32.16378
-4.324687 -6.004373 33.383953
-5.605935 -8.244967 32.966053
-6.497031 -10.613812 32.274452
-6.18742 -14.022379 32.291882
-5.688909 -17.374393 32.050724
-5.340949 -20.497185 31.705475
-3.944801 -21.4268 32.549995
-4.885283 -23.446587 31.403107
-4.359694 -26.222559 31.234665
-3.982422 -28.804707 31.319117
-16.98978 -70.794762 31.610388
-7.638934 -30.65691 40.832848
-6.71131 -46.470909 47.687881
-8.560926 -45.001156 47.229935
-11.2997 -44.190197 46.267212
-10.372562 -42.948509 45.159397
-9.062452 -42.01017 44.356575
-7.77972 -41.198067 43.928993
-6.540179 -40.527489 43.510193
-4.220702 -12.2093 29.572613
-5.459282 -45.122025 17.041172
-4.705812 -33.484831 30.082192
-4.930575 -32.231763 29.819978
-4.253754 -32.138767 30.432896
-4.740817 -34.613134 29.614335
-4.705812 -33.484831 30.082192
-10.499035 -38.332457 41.73774
-11.893071 -38.108384 41.11517
-11.31803 -39.062025 41.781643
-5.796651 -9.336976 30.876925
-5.614271 -7.636266 30.841444
-6.247964 -7.93172 31.275655
-16.406627 -75.377724 40.751846
-16.37005 -75.268261 42.023384
-7.041638 -47.647386 50.347206
-6.938298 -46.887947 50.881042
-7.276062 -47.849077 51.467377
-2.80271 -20.658176 27.50075
-3.33762 -19.000318 27.971356
-3.961917 -20.749395 27.887914
-6.030195 -43.558927 20.389671
-6.088693 -42.587202 21.494752
-18.644202 -71.028644 28.464689
-17.789422 -69.289593 29.223032
-17.421374 -69.1781 30.249676
-18.338601 -72.879974 27.690638
-18.644202 -71.028644 28.464689
-4.029119 -69.495456 35.337896
-4.382142 -69.2033 36.433924
-5.091467 -68.701847 32.164994
-4.410188 -69.365516 33.095072
-6.030345 -69.216747 32.610296
-5.49033 -68.695782 31.099252
-5.091467 -68.701847 32.164994
-7.236276 -68.056183 30.916253
-6.014983 -68.198887 30.335287
-5.49033 -68.695782 31.099252
-5.245784 -38.336996 28.564547
-6.011027 -37.278236 28.488744
-5.05212 -37.092016 28.93683
-5.343935 -39.540243 28.18994
-5.245784 -38.336996 28.564547
-12.701296 -75.66703 43.74432
-13.014159 -75.074211 43.074411
-11.445816 -75.381348 43.412729
-7.525042 -54.672348 56.454239
-7.577841 -54.020204 57.53877
-7.586898 -54.682989 57.558065
-10.774043 -34.451901 40.275519
-10.843432 -33.250386 39.891613
-6.307054 -36.689247 42.538786
-6.674632 -35.549892 42.022876
-7.245957 -36.052635 42.249887
-2.498405 -6.781839 29.535451
-3.806349 -7.070676 30.008189
-2.002023 -8.350069 29.100963
-2.498405 -6.781839 29.535451
-8.247449 -46.629129 19.646961
-7.891048 -46.558622 20.618
-10.631807 -62.535675 57.08959
-11.065417 -61.2249 56.531815
-8.273953 -66.612324 56.866008
-8.139781 -67.683346 57.002392
-7.921764 -66.759823 55.957964
-8.625796 -65.432403 56.785112
-8.273953 -66.612324 56.866008
-19.817723 -64.556767 24.185918
-20.301063 -64.381222 23.296314
-19.19794 -62.738006 24.845976
-20.378399 -68.455467 22.143685
-20.047525 -68.817329 22.878138
-19.057852 -69.22377 25.416184
-18.889827 -69.18639 26.400959
-12.172077 -41.127676 43.195331
-12.865363 -40.393152 42.30422
-7.745925 -67.186913 28.067473
-7.146357 -67.437935 28.867697
-9.165659 -65.734543 25.885652
-8.676651 -66.209137 26.592764
-10.514592 -64.750824 26.765727
-9.639822 -65.274563 25.079203
-9.165659 -65.734543 25.885652
-11.523257 -63.907702 25.240958
-10.159478 -64.906035 24.261546
-9.639822 -65.274563 25.079203
-4.699394 -28.943337 26.835286
-4.110583 -27.447826 26.804113
-5.225636 -27.265938 27.175339
-3.307008 -33.828297 25.296685
-3.698643 -32.265555 25.902145
-4.630949 -33.640749 25.761212
-2.766894 -35.343414 24.547833
-3.307008 -33.828297 25.296685
-3.795179 -36.404902 24.488652
-2.766894 -35.343414 24.547833
-15.550721 -72.8703 36.636267
-15.870249 -72.600075 35.675861
-15.031173 -71.400734 36.842295
-16.316408 -73.857059 38.6518
-16.676155 -75.307857 38.493988
-10.755032 -76.183296 46.308561
-9.730443 -75.897537 46.254238
-9.766779 -75.627449 46.986898
-7.069452 -51.320812 56.1512
-6.67365 -50.555851 57.026529
-6.93137 -51.48497 57.202166
-10.344975 -56.604828 56.345242
-9.462784 -56.20868 57.201553
-9.727338 -59.016337 44.433096
-9.921768 -57.901865 44.303503
-10.746602 -57.733837 45.279781
-5.337674 -68.20227 40.567837
-5.534594 -68.02676 41.629036
-5.197451 -69.654293 40.57909
-5.236091 -68.491646 39.346103
-5.337674 -68.20227 40.567837
-4.650788 -70.052368 38.558258
-4.886349 -68.714211 38.386471
-5.236091 -68.491646 39.346103
-6.235941 -5.912273 32.514267
-6.498291 -5.370693 31.97811
-6.252048 -4.194578 32.328597
-3.99852 -6.684755 34.12488
-4.137336 -5.015189 33.981165
-5.337685 -10.019875 32.878096
-4.737365 -8.877 33.192337
-4.469115 -10.651908 33.10438
-3.972897 -22.87457 32.6515
-4.129929 -21.900315 33.643055
-4.158024 -23.348085 33.74456
-4.210304 -29.127139 32.476491
-4.042767 -27.936213 32.160211
-4.270649 -28.258645 33.317585
-4.048039 -30.070625 31.606029
-4.210304 -29.127139 32.476491
-6.280641 -27.411315 40.988029
-6.9049 -26.693268 40.785902
-7.328514 -27.816319 40.752382
-6.081248 -27.919863 40.322197
-6.280641 -27.411315 40.988029
-7.829271 -31.673311 40.874688
-8.702417 -31.136138 40.652344
-8.892754 -32.15254 40.694184
-11.033845 -46.080335 49.320446
-9.611356 -46.241574 49.894613
-10.682199 -45.618625 48.412537
-11.033845 -46.080335 49.320446
-8.106435 -42.859703 43.668864
-7.993994 -43.001854 44.264015
-7.037977 -43.851387 43.576304
-7.465069 -42.453651 43.455072
-8.421086 -41.604118 44.142784
-8.106435 -42.859703 43.668864
-7.499723 -41.159841 42.152136
-7.098787 -41.65448 42.758555
-6.202945 -40.347659 43.036646
-7.499723 -41.159841 42.152136
-2.644002 -13.766082 28.66176
-2.289961 -15.454913 28.076498
-4.958182 -35.840849 29.310212
-5.599998 -34.805542 29.165151
-4.740817 -34.613134 29.614335
-5.05212 -37.092016 28.93683
-4.958182 -35.840849 29.310212
-7.775368 -55.396967 57.434179
-7.586898 -54.682989 57.558065
-12.245643 -37.03139 40.415833
-11.893071 -38.108384 41.11517
-11.368429 -36.258126 40.566309
-12.245643 -37.03139 40.415833
-10.211323 -36.704842 41.198628
-10.505676 -35.584153 40.69367
-11.368429 -36.258126 40.566309
-6.450136 -52.196387 46.579363
-6.559006 -52.919161 46.915203
-4.825304 -7.325893 30.406116
-5.614271 -7.636266 30.841444
-4.144004 -8.786306 30.044787
-3.806349 -7.070676 30.008189
-4.825304 -7.325893 30.406116
-9.097117 -73.395027 50.609282
-8.637027 -72.420997 51.639406
-8.061392 -68.916916 55.635976
-8.139781 -67.683346 57.002392
-8.031196 -70.134395 54.360727
-7.539725 -69.157223 54.76361
-8.061392 -68.916916 55.635976
-8.338617 -71.181305 52.87651
-8.031196 -70.134395 54.360727
-8.637027 -72.420997 51.639406
-7.807937 -71.614395 52.251257
-8.338617 -71.181305 52.87651
-19.634477 -68.955909 23.65972
-20.047525 -68.817329 22.878138
-19.745916 -66.873359 24.925759
-7.521888 -41.034549 26.622966
-8.417174 -40.068967 26.830227
-7.409977 -39.899141 27.308536
-7.577355 -42.156143 25.993463
-7.521888 -41.034549 26.622966
-7.491672 -43.305903 25.204454
-8.443402 -42.354135 25.355648
-7.577355 -42.156143 25.993463
-7.349033 -44.343012 24.234286
-7.491672 -43.305903 25.204454
-16.82613 -75.156673 39.693031
-15.857865 -74.043576 40.77301
-16.406627 -75.377724 40.751846
-16.676155 -75.307857 38.493988
-16.82613 -75.156673 39.693031
-11.203967 -58.538005 55.212479
-11.270353 -57.068641 55.634049
-11.404507 -58.482418 55.826214
-8.705932 -61.112845 45.140551
-9.41368 -60.022463 44.784744
-9.844425 -59.93869 45.76518
-7.782563 -62.286834 44.548389
-8.705932 -61.112845 45.140551
-8.213308 -62.203062 45.528826
-6.838033 -63.30542 44.073037
-7.782563 -62.286834 44.548389
-4.316694 -12.371555 33.157547
-4.469115 -10.651908 33.10438
-4.000243 -13.990647 33.034525
-4.752984 -13.413874 32.667116
-4.316694 -12.371555 33.157547
-4.032289 -15.638286 33.260716
-4.000243 -13.990647 33.034525
-3.86106 -17.289276 33.196153
-4.265303 -16.683955 32.479532
-4.032289 -15.638286 33.260716
-4.309582 -24.830948 33.793885
-4.158024 -23.348085 33.74456
-4.360641 -26.203637 33.918034
-4.052052 -25.69503 32.877156
-4.309582 -24.830948 33.793885
-4.468632 -27.547008 34.144808
-4.360641 -26.203637 33.918034
-4.270649 -28.258645 33.317585
-4.468632 -27.547008 34.144808
-16.910508 -72.781959 32.386903
-16.474757 -72.547596 33.615864
-9.120285 -27.486857 39.630068
-8.609016 -26.225122 39.694809
-8.48688 -28.264087 40.532498
-9.120285 -27.486857 39.630068
-7.862621 -28.982134 40.734625
-7.328514 -27.816319 40.752382
-8.48688 -28.264087 40.532498
-7.245591 -32.198054 40.660296
-7.073138 -33.257733 41.167511
-8.339522 -46.660345 50.291666
-6.938298 -46.887947 50.881042
-7.975708 -46.267484 49.363819
-9.611356 -46.241574 49.894613
-8.339522 -46.660345 50.291666
-8.269203 -47.441486 45.558459
-7.69607 -47.438058 46.379099
-8.852439 -48.552763 46.133022
-7.556515 -46.316223 45.002207
-8.269203 -47.441486 45.558459
-7.7773 -45.265146 44.921303
-7.333619 -45.275705 45.723631
-7.556515 -46.316223 45.002207
-7.462866 -45.149601 44.185667
-7.23997 -44.109083 44.907091
-7.7773 -45.265146 44.921303
-8.196376 -44.943771 43.515462
-7.462866 -45.149601 44.185667
-7.037977 -43.851387 43.576304
-8.196376 -44.943771 43.515462
-2.784586 -17.260968 28.121569
-3.943792 -17.352186 28.508734
-3.33762 -19.000318 27.971356
-2.289961 -15.454913 28.076498
-2.784586 -17.260968 28.121569
-7.269611 -46.800829 15.662431
-8.10989 -47.90214 15.366259
-18.436547 -69.274548 27.321993
-18.889827 -69.18639 26.400959
-18.101597 -67.281166 28.360087
-18.330284 -69.25473 28.359583
-17.107455 -67.404187 30.144571
-17.789422 -69.289593 29.223032
-18.436547 -69.274548 27.321993
-18.330284 -69.25473 28.359583
-4.508902 -69.105854 34.28928
-4.029119 -69.495456 35.337896
-4.869283 -70.270019 34.588991
-4.508902 -69.105854 34.28928
-4.410188 -69.365516 33.095072
-6.545339 -68.013256 29.524612
-6.014983 -68.198887 30.335287
-8.361947 -66.983967 29.495373
-7.146357 -67.437935 28.867697
-6.545339 -68.013256 29.524612
-6.359692 -39.693969 27.608868
-7.409977 -39.899141 27.308536
-7.254977 -38.728387 27.816129
-6.359692 -39.693969 27.608868
-5.343935 -39.540243 28.18994
-14.854 -74.81226 42.618914
-13.598521 -74.526577 42.287323
-13.014159 -75.074211 43.074411
-16.37005 -75.268261 42.023384
-14.854 -74.81226 42.618914
-7.295953 -52.306509 57.455761
-6.93137 -51.48497 57.202166
-7.39036 -53.186325 57.509815
-7.577841 -54.020204 57.53877
-7.421578 -53.129747 56.38089
-7.295953 -52.306509 57.455761
-7.39036 -53.186325 57.509815
-9.825603 -32.690866 40.480762
-10.843432 -33.250386 39.891613
-8.952457 -33.228039 40.703106
-8.892754 -32.15254 40.694184
-9.825603 -32.690866 40.480762
-9.616938 -34.898617 40.907837
-10.774043 -34.451901 40.275519
-10.505676 -35.584153 40.69367
-6.870101 -34.369516 41.576237
-7.073138 -33.257733 41.167511
-7.816571 -33.801496 41.325253
-6.870101 -34.369516 41.576237
-6.674632 -35.549892 42.022876
-7.289824 -51.546919 46.396765
-6.906191 -51.574737 47.510029
-6.450136 -52.196387 46.579363
-8.23768 -50.967434 46.426108
-7.289824 -51.546919 46.396765
-8.504395 -49.779466 46.239223
-8.012593 -49.737302 47.140547
-8.23768 -50.967434 46.426108
-8.852439 -48.552763 46.133022
-8.504395 -49.779466 46.239223
-2.282095 -22.436666 26.860132
-2.715709 -24.170628 26.945533
-7.639068 -46.500483 18.711651
-7.68581 -45.553867 19.952625
-8.247449 -46.629129 19.646961
-8.015754 -47.339079 17.476183
-7.454116 -46.263817 17.781847
-7.639068 -46.500483 18.711651
-7.720894 -48.103918 16.141663
-8.015754 -47.339079 17.476183
-8.10989 -47.90214 15.366259
-7.720894 -48.103918 16.141663
-10.01846 -75.429558 47.912033
-9.766779 -75.627449 46.986898
-8.993872 -75.143799 47.85771
-9.666721 -74.440937 49.493628
-8.67595 -73.899998 49.898499
-9.097117 -73.395027 50.609282
-10.258238 -74.986107 48.56
-9.666721 -74.440937 49.493628
-10.01846 -75.429558 47.912033
-10.258238 -74.986107 48.56
-11.674796 -59.778092 56.014841
-11.404507 -58.482418 55.826214
-10.728741 -61.39859 55.921617
-11.674796 -59.778092 56.014841
-11.065417 -61.2249 56.531815
-9.548674 -64.065151 57.065874
-10.631807 -62.535675 57.08959
-9.196485 -64.21265 56.15783
-9.548674 -64.065151 57.065874
-8.625796 -65.432403 56.785112
-20.688841 -64.141407 22.360202
-20.086652 -62.271959 23.046897
-20.688841 -64.141407 22.360202
-20.301063 -64.381222 23.296314
-20.539904 -66.467381 23.390217
-19.817723 -64.556767 24.185918
-19.436782 -64.824165 24.939878
-20.539904 -66.467381 23.390217
-20.378399 -68.455467 22.143685
-19.446847 -69.133236 24.550329
-18.943872 -67.102474 26.573197
-19.057852 -69.22377 25.416184
-19.634477 -68.955909 23.65972
-19.446847 -69.133236 24.550329
-12.102374 -39.648151 41.998564
-12.865363 -40.393152 42.30422
-10.708338 -39.872225 42.621134
-11.31803 -39.062025 41.781643
-12.102374 -39.648151 41.998564
-8.277235 -66.595299 27.384664
-7.745925 -67.186913 28.067473
-9.494274 -65.817032 28.155649
-8.277235 -66.595299 27.384664
-8.676651 -66.209137 26.592764
-10.647511 -64.281274 23.616549
-10.159478 -64.906035 24.261546
-12.801621 -63.014622 23.77834
-11.40622 -63.756723 22.971589
-10.647511 -64.281274 23.616549
-14.809599 -61.948782 24.051961
-12.801621 -63.014622 23.77834
-14.050891 -62.473333 24.696921
-16.621717 -61.156914 24.152164
-14.809599 -61.948782 24.051961
-18.432923 -61.734398 23.645079
-16.621717 -61.156914 24.152164
-17.870074 -61.984978 24.463456
-20.086652 -62.271959 23.046897
-18.432923 -61.734398 23.645079
-3.320619 -25.852214 26.808962
-2.715709 -24.170628 26.945533
-4.031916 -24.088839 27.280736
-3.320619 -25.852214 26.808962
-4.110583 -27.447826 26.804113
-4.303463 -30.601616 26.415366
-4.699394 -28.943337 26.835286
-5.418515 -30.419728 26.786592
-4.303463 -30.601616 26.415366
-3.698643 -32.265555 25.902145
-4.672847 -37.434288 24.357391
-3.795179 -36.404902 24.488652
-5.116983 -36.232878 25.02449
-4.360838 -38.571359 23.646595
-4.672847 -37.434288 24.357391
-5.682641 -38.399335 24.182434
-4.040188 -39.709026 22.769925
-4.360838 -38.571359 23.646595
-5.243328 -40.58186 22.580557
-4.040188 -39.709026 22.769925
-6.217945 -41.577807 22.398207
-5.243328 -40.58186 22.580557
-6.345249 -40.532354 23.289288
-7.190613 -42.537696 22.203482
-6.088693 -42.587202 21.494752
-6.217945 -41.577807 22.398207
-7.827242 -46.567066 21.496437
-7.891048 -46.558622 20.618
-8.230385 -45.690958 21.766373
-7.253464 -45.440765 23.273372
-8.262149 -44.601648 23.605725
-7.349033 -44.343012 24.234286
-6.961498 -46.253849 22.210386
-7.253464 -45.440765 23.273372
-7.827242 -46.567066 21.496437
-6.961498 -46.253849 22.210386
-16.129685 -72.737812 34.561716
-16.474757 -72.547596 33.615864
-15.695772 -70.940292 34.936037
-16.129685 -72.737812 34.561716
-15.870249 -72.600075 35.675861
-15.083483 -73.097152 38.655161
-15.044445 -73.062618 39.717556
-16.316408 -73.857059 38.6518
-15.533546 -72.781276 37.696053
-14.261583 -71.986835 38.761809
-15.083483 -73.097152 38.655161
-15.550721 -72.8703 36.636267
-15.533546 -72.781276 37.696053
-11.879814 -76.479023 45.805784
-10.755032 -76.183296 46.308561
-12.108849 -76.475215 45.24171
-11.879814 -76.479023 45.805784
-12.315977 -76.235607 44.495079
-10.925825 -76.213775 44.82927
-12.108849 -76.475215 45.24171
-12.701296 -75.66703 43.74432
-12.315977 -76.235607 44.495079
-7.076519 -48.57886 51.93813
-7.276062 -47.849077 51.467377
-6.984352 -49.796896 56.540842
-6.67365 -50.555851 57.026529
-6.762514 -49.554743 55.492035
-6.984352 -49.796896 56.540842
-7.02605 -49.478621 54.447088
-6.762514 -49.554743 55.492035
-7.075268 -50.315571 54.930616
-7.05622 -49.394326 53.414194
-7.02605 -49.478621 54.447088
-7.223501 -49.639129 52.34437
-7.05622 -49.394326 53.414194
-7.506084 -50.484253 52.815845
-7.526383 -49.668787 51.339781
-7.076519 -48.57886 51.93813
-7.223501 -49.639129 52.34437
-6.639039 -53.664181 47.180971
-6.559006 -52.919161 46.915203
-6.146534 -52.969225 47.958395
-8.084448 -54.062393 46.452004
-6.639039 -53.664181 47.180971
-7.671976 -54.112457 47.495195
-9.387469 -54.655935 45.775919
-8.084448 -54.062393 46.452004
-8.617846 -55.827702 57.418762
-9.462784 -56.20868 57.201553
-8.376577 -55.765867 56.458117
-7.775368 -55.396967 57.434179
-8.617846 -55.827702 57.418762
-10.144434 -56.660415 55.731506
-10.344975 -56.604828 56.345242
-11.270353 -57.068641 55.634049
-10.299293 -55.710284 44.967899
-9.387469 -54.655935 45.775919
-10.029209 -55.565018 45.958208
-10.279072 -56.936218 44.039243
-10.299293 -55.710284 44.967899
-10.279072 -56.936218 44.039243
-9.921768 -57.901865 44.303503
-9.727338 -59.016337 44.433096
-9.41368 -60.022463 44.784744
-5.984335 -64.634224 43.498354
-6.838033 -63.30542 44.073037
-6.436239 -64.705856 44.361982
-5.628678 -66.304699 42.702542
-5.488455 -67.756721 42.713795
-5.534594 -68.02676 41.629036
-5.984335 -64.634224 43.498354
-5.628678 -66.304699 42.702542
-4.337915 -69.010956 37.414433
-4.886349 -68.714211 38.386471
-4.345273 -70.467277 36.618116
-4.382142 -69.2033 36.433924
-4.337915 -69.010956 37.414433
-6.273884 -6.659699 31.701977
-6.289991 -4.942005 31.516306
-6.498291 -5.370693 31.97811
-6.456264 -8.360409 31.737458
-6.247964 -7.93172 31.275655
-6.273884 -6.659699 31.701977
-4.533708 -4.224979 33.24602
-4.137336 -5.015189 33.981165
-5.157192 -5.370266 33.124353
-5.366213 -3.590871 32.98642
-4.533708 -4.224979 33.24602
-4.096741 -7.756703 33.401287
-3.99852 -6.684755 34.12488
-4.965311 -7.12467 33.175003
-4.096741 -7.756703 33.401287
-4.737365 -8.877 33.192337
-5.797816 -6.490563 32.915403
-5.157192 -5.370266 33.124353
-4.965311 -7.12467 33.175003
-6.044059 -7.666677 32.564917
-6.235941 -5.912273 32.514267
-5.797816 -6.490563 32.915403
-3.977947 -18.88257 33.439117
-3.86106 -17.289276 33.196153
-3.90331 -20.428497 33.50663
-4.129929 -21.900315 33.643055
-4.019438 -19.880873 32.482483
-3.977947 -18.88257 33.439117
-3.90331 -20.428497 33.50663
-4.296086 -31.111121 31.031811
-4.230469 -29.845204 30.744899
-4.048039 -30.070625 31.606029
-4.253754 -32.138767 30.432896
-4.296086 -31.111121 31.031811
-17.384976 -72.804303 31.197004
-16.515312 -70.772419 32.800286
-16.910508 -72.781959 32.386903
-17.715626 -72.923508 29.957019
-17.384976 -72.804303 31.197004
-18.358813 -72.984703 28.897492
-17.632967 -70.855957 30.55086
-17.715626 -72.923508 29.957019
-18.338601 -72.879974 27.690638
-18.358813 -72.984703 28.897492
-7.464245 -25.910979 40.596649
-8.609016 -26.225122 39.694809
-7.464245 -25.910979 40.596649
-6.9049 -26.693268 40.785902
-8.32996 -30.043405 40.673794
-8.702417 -31.136138 40.652344
-7.171594 -29.595638 40.893679
-7.862621 -28.982134 40.734625
-8.32996 -30.043405 40.673794
-7.055254 -31.181652 40.618456
-7.829271 -31.673311 40.874688
-7.245591 -32.198054 40.660296
-6.906165 -30.095565 40.344641
-7.055254 -31.181652 40.618456
-6.438825 -29.034294 40.405472
-7.171594 -29.595638 40.893679
-6.906165 -30.095565 40.344641
-6.081248 -27.919863 40.322197
-6.438825 -29.034294 40.405472
-10.33889 -45.194847 47.544121
-10.682199 -45.618625 48.412537
-8.904235 -45.424934 48.09835
-11.708277 -44.789367 47.062759
-10.33889 -45.194847 47.544121
-9.930313 -44.595676 46.748573
-13.033207 -44.358675 46.236615
-11.708277 -44.789367 47.062759
-12.624879 -43.716284 45.45133
-13.033207 -44.358675 46.236615
-12.16131 -43.09544 44.897422
-12.624879 -43.716284 45.45133
-10.836131 -43.569353 45.713304
-11.612016 -42.372755 44.356003
-12.16131 -43.09544 44.897422
-10.956962 -41.903586 43.954591
-11.612016 -42.372755 44.356003
-9.717507 -42.47934 44.757986
-10.277567 -41.234261 43.597315
-12.172077 -41.127676 43.195331
-10.956962 -41.903586 43.954591
-7.718558 -41.989769 42.967954
-7.465069 -42.453651 43.455072
-7.159949 -40.862778 43.719593
-7.718558 -41.989769 42.967954
-7.098787 -41.65448 42.758555
-7.067918 -39.195796 42.592009
-7.405152 -39.375626 43.065556
-6.202945 -40.347659 43.036646
-6.372044 -38.679909 42.664448
-7.574253 -37.707876 42.693358
-7.067918 -39.195796 42.592009
-6.31501 -38.219776 42.158371
-6.372044 -38.679909 42.664448
-6.307054 -36.689247 42.538786
-6.31501 -38.219776 42.158371
-3.058974 -12.064314 29.118592
-3.80573 -13.911068 29.11578
-2.644002 -13.766082 28.66176
-2.511147 -10.225209 29.155716
-3.672875 -10.370195 29.609737
-3.058974 -12.064314 29.118592
-2.002023 -8.350069 29.100963
-2.511147 -10.225209 29.155716
-2.80271 -20.658176 27.50075
-2.282095 -22.436666 26.860132
-6.038229 -44.497991 19.248314
-6.030195 -43.558927 20.389671
-7.069395 -44.486156 20.158672
-5.229156 -44.346394 18.260243
-6.038229 -44.497991 19.248314
-6.268356 -45.273623 18.029243
-4.227413 -44.270281 17.134484
-5.229156 -44.346394 18.260243
-6.083851 -45.810635 15.909827
-6.645041 -46.112219 16.793776
-7.269611 -46.800829 15.662431
-4.723458 -44.886189 15.985625
-6.083851 -45.810635 15.909827
-4.227413 -44.270281 17.134484
-4.723458 -44.886189 15.985625
3 0 66 64
3 0 69 67
3 0 64 69
3 241 73 242
3 243 242 71
3 241 242 243
3 245 244 73
3 1 77 75
3 1 80 78
3 1 75 80
3 3 246 248
3 246 82 247
3 246 247 248
3 3 84 82
3 2 249 251
3 249 85 250
3 249 250 251
3 5 89 87
3 5 92 90
3 5 87 92
3 6 96 94
3 8 99 97
3 8 101 99
3 8 103 101
3 10 107 105
3 253 252 108
3 12 112 110
3 12 114 112
3 4 117 115
3 13 120 118
3 13 122 120
3 13 123 122
3 10 126 124
3 10 105 126
3 11 254 256
3 254 131 255
3 254 255 256
3 7 257 259
3 259 258 134
3 257 258 259
3 9 260 261
3 14 138 136
3 15 262 264
3 264 263 65
3 262 263 264
3 15 265 266
3 16 267 268
3 17 269 271
3 271 270 68
3 269 270 271
3 17 272 273
3 17 274 276
3 274 139 275
3 274 275 276
3 14 140 70
3 14 136 140
3 19 143 141
3 21 144 72
3 21 145 144
3 21 147 145
3 277 148 278
3 279 278 74
3 277 278 279
3 281 280 148
3 23 151 149
3 25 152 76
3 25 282 284
3 284 283 152
3 282 283 284
3 27 285 287
3 285 153 286
3 285 286 287
3 27 154 153
3 28 157 155
3 30 158 79
3 30 159 158
3 30 161 159
3 23 162 81
3 23 149 162
3 288 163 289
3 33 164 83
3 33 290 292
3 292 291 164
3 290 291 292
3 34 167 165
3 36 293 294
3 36 295 296
3 298 297 168
3 38 172 170
3 299 173 300
3 39 301 302
3 39 303 305
3 303 174 304
3 303 304 305
3 39 175 174
3 38 176 86
3 38 170 176
3 40 306 308
3 308 307 177
3 306 307 308
3 310 309 88
3 312 311 137
3 313 178 314
3 18 315 316
3 41 317 319
3 319 318 91
3 317 318 319
3 41 320 321
3 41 322 324
3 322 179 323
3 322 323 324
3 40 180 93
3 40 177 180
3 42 183 181
3 44 184 95
3 44 185 184
3 20 186 142
3 45 187 98
3 45 188 187
3 45 325 327
3 327 326 188
3 325 326 327
3 46 328 330
3 330 329 100
3 328 329 330
3 46 331 332
3 46 333 334
3 47 189 102
3 47 190 189
3 22 191 146
3 48 192 104
3 48 193 192
3 48 194 193
3 49 197 195
3 51 198 106
3 51 335 337
3 337 336 198
3 335 336 337
3 24 199 150
3 339 338 109
3 340 200 341
3 342 341 171
3 340 341 342
3 26 343 345
3 343 201 344
3 343 344 345
3 52 202 111
3 52 203 202
3 52 204 203
3 53 205 113
3 53 206 205
3 346 207 347
3 54 208 116
3 54 209 208
3 29 210 156
3 55 211 119
3 55 212 211
3 55 213 212
3 56 214 121
3 56 215 214
3 56 348 350
3 350 349 215
3 348 349 350
3 31 216 160
3 57 351 353
3 353 352 125
3 351 352 353
3 57 354 355
3 57 356 358
3 356 217 357
3 356 357 358
3 49 218 127
3 49 195 218
3 359 219 360
3 359 360 361
3 362 220 363
3 58 364 366
3 364 221 365
3 364 365 366
3 58 222 221
3 58 223 222
3 59 224 128
3 59 225 224
3 60 367 369
3 367 226 368
3 367 368 369
3 60 227 226
3 60 228 227
3 370 229 371
3 372 371 129
3 370 371 372
3 374 373 229
3 50 230 196
3 61 375 377
3 377 376 130
3 375 376 377
3 61 378 379
3 32 380 382
3 380 231 381
3 380 381 382
3 62 383 384
3 62 385 386
3 35 232 166
3 63 233 132
3 63 234 233
3 63 235 234
3 387 236 388
3 389 388 133
3 387 388 389
3 390 237 391
3 392 391 236
3 390 391 392
3 393 238 394
3 396 395 238
3 43 239 182
3 398 397 135
3 37 240 169
3 64 65 14
3 66 65 64
3 66 15 65
3 67 68 16
3 69 68 67
3 69 17 68
3 69 70 17
3 64 70 69
3 64 14 70
3 71 72 19
3 73 72 71
3 73 21 72
3 73 74 21
3 399 74 400
3 401 400 73
3 399 400 401
3 403 402 74
3 75 76 23
3 77 76 75
3 77 25 76
3 404 27 405
3 78 79 28
3 80 79 78
3 80 30 79
3 80 81 30
3 75 81 80
3 75 23 81
3 82 406 407
3 82 408 409
3 82 410 412
3 410 83 411
3 410 411 412
3 84 83 82
3 84 33 83
3 414 413 34
3 85 415 416
3 85 417 419
3 417 36 418
3 417 418 419
3 421 420 38
3 422 39 423
3 424 86 425
3 426 425 39
3 424 425 426
3 427 86 428
3 429 38 430
3 431 430 86
3 429 430 431
3 87 88 40
3 89 88 87
3 89 432 434
3 434 433 88
3 432 433 434
3 90 91 18
3 92 91 90
3 92 41 91
3 92 93 41
3 87 93 92
3 87 40 93
3 94 95 42
3 96 95 94
3 96 44 95
3 97 98 20
3 99 98 97
3 99 45 98
3 99 100 45
3 101 100 99
3 101 46 100
3 101 102 46
3 103 102 101
3 103 47 102
3 435 104 436
3 437 436 22
3 435 436 437
3 438 104 439
3 440 48 441
3 442 441 104
3 440 441 442
3 444 443 48
3 105 106 49
3 107 106 105
3 107 51 106
3 108 109 24
3 445 109 446
3 447 446 108
3 445 446 447
3 449 448 109
3 110 111 26
3 112 111 110
3 112 52 111
3 112 113 52
3 114 113 112
3 114 53 113
3 115 450 452
3 450 116 451
3 450 451 452
3 117 116 115
3 117 54 116
3 118 119 29
3 120 119 118
3 120 55 119
3 120 121 55
3 122 121 120
3 122 56 121
3 122 453 455
3 455 454 56
3 453 454 455
3 123 456 458
3 458 457 122
3 456 457 458
3 123 459 460
3 124 125 31
3 126 125 124
3 126 57 125
3 126 127 57
3 105 127 126
3 105 49 127
3 461 58 462
3 463 128 464
3 465 464 58
3 463 464 465
3 466 128 467
3 468 59 469
3 470 469 128
3 468 469 470
3 471 60 472
3 473 129 474
3 475 474 60
3 473 474 475
3 476 129 477
3 479 478 129
3 481 480 50
3 482 130 483
3 484 130 485
3 486 61 487
3 488 487 130
3 486 487 488
3 490 489 32
3 131 491 492
3 131 493 495
3 493 62 494
3 493 494 495
3 496 132 497
3 498 497 35
3 496 497 498
3 499 132 500
3 501 63 502
3 503 502 132
3 501 502 503
3 504 133 505
3 506 505 63
3 504 505 506
3 507 133 508
3 510 509 133
3 134 135 43
3 511 135 512
3 513 512 134
3 511 512 513
3 515 514 135
3 517 516 37
3 136 137 5
3 138 137 136
3 138 518 520
3 520 519 137
3 518 519 520
3 65 138 14
3 521 138 522
3 523 522 65
3 521 522 523
3 525 524 138
3 68 526 528
3 528 527 16
3 526 527 528
3 530 529 68
3 139 531 532
3 139 533 535
3 533 18 534
3 533 534 535
3 70 139 17
3 140 139 70
3 140 18 139
3 140 90 18
3 136 90 140
3 136 5 90
3 141 142 6
3 143 142 141
3 143 20 142
3 72 143 19
3 144 143 72
3 144 20 143
3 144 97 20
3 145 97 144
3 145 8 97
3 145 146 8
3 147 146 145
3 147 22 146
3 74 147 21
3 148 147 74
3 148 22 147
3 148 536 538
3 538 537 22
3 536 537 538
3 540 539 148
3 149 150 10
3 151 150 149
3 151 24 150
3 76 151 23
3 152 151 76
3 152 24 151
3 152 108 24
3 541 108 542
3 543 542 152
3 541 542 543
3 545 544 108
3 546 26 547
3 153 548 549
3 153 550 552
3 550 26 551
3 550 551 552
3 153 110 26
3 154 110 153
3 154 12 110
3 155 156 4
3 157 156 155
3 157 29 156
3 79 157 28
3 158 157 79
3 158 29 157
3 158 118 29
3 159 118 158
3 159 13 118
3 159 160 13
3 161 160 159
3 161 31 160
3 81 161 30
3 162 161 81
3 162 31 161
3 162 124 31
3 149 124 162
3 149 10 124
3 163 553 554
3 163 555 557
3 555 32 556
3 555 556 557
3 83 558 560
3 558 163 559
3 558 559 560
3 164 163 83
3 164 32 163
3 164 561 563
3 563 562 32
3 561 562 563
3 565 564 164
3 165 166 11
3 167 166 165
3 167 35 166
3 566 167 567
3 568 567 34
3 566 567 568
3 569 167 570
3 571 35 572
3 573 572 167
3 571 572 573
3 575 574 35
3 577 576 7
3 168 169 9
3 578 169 579
3 580 579 168
3 578 579 580
3 581 37 582
3 583 582 169
3 581 582 583
3 584 37 585
3 587 586 37
3 170 171 1
3 172 171 170
3 172 588 590
3 590 589 171
3 588 589 590
3 591 172 592
3 593 592 38
3 591 592 593
3 594 172 595
3 597 596 172
3 598 115 599
3 173 600 602
3 600 115 601
3 600 601 602
3 173 4 115
3 603 173 604
3 174 605 607
3 605 173 606
3 605 606 607
3 174 4 173
3 174 155 4
3 175 155 174
3 175 28 155
3 86 175 39
3 176 175 86
3 176 28 175
3 176 78 28
3 170 78 176
3 170 1 78
3 177 608 609
3 611 610 177
3 88 612 614
3 614 613 40
3 612 613 614
3 616 615 88
3 137 89 5
3 617 89 618
3 619 618 137
3 617 618 619
3 621 620 89
3 178 622 623
3 178 624 626
3 624 3 625
3 624 625 626
3 91 627 629
3 629 628 18
3 627 628 629
3 631 630 91
3 179 632 633
3 179 634 636
3 634 635 636
3 93 179 41
3 180 179 93
3 180 637 639
3 639 638 179
3 637 638 639
3 180 640 641
3 177 642 644
3 644 643 180
3 642 643 644
3 177 645 646
3 181 182 2
3 183 182 181
3 183 43 182
3 95 183 42
3 184 183 95
3 184 43 183
3 184 134 43
3 185 134 184
3 185 7 134
3 142 96 6
3 186 96 142
3 186 44 96
3 98 186 20
3 187 186 98
3 187 44 186
3 187 185 44
3 188 185 187
3 188 7 185
3 188 647 649
3 649 648 7
3 647 648 649
3 651 650 188
3 100 652 654
3 654 653 45
3 652 653 654
3 656 655 100
3 102 657 659
3 659 658 46
3 657 658 659
3 189 660 662
3 662 661 102
3 660 661 662
3 189 663 664
3 189 665 666
3 190 667 669
3 669 668 189
3 667 668 669
3 190 670 672
3 670 9 671
3 670 671 672
3 146 103 8
3 191 103 146
3 191 47 103
3 104 191 22
3 192 191 104
3 192 47 191
3 192 190 47
3 193 190 192
3 193 9 190
3 193 168 9
3 194 168 193
3 194 673 675
3 675 674 168
3 673 674 675
3 676 194 677
3 678 677 48
3 676 677 678
3 679 194 680
3 682 681 194
3 195 196 0
3 197 196 195
3 197 50 196
3 106 197 49
3 198 197 106
3 198 50 197
3 198 683 685
3 685 684 50
3 683 684 685
3 687 686 198
3 150 107 10
3 199 107 150
3 199 51 107
3 109 199 24
3 688 199 689
3 690 689 109
3 688 689 690
3 691 51 692
3 693 692 199
3 691 692 693
3 695 694 51
3 171 77 1
3 200 77 171
3 200 25 77
3 696 200 697
3 698 200 699
3 700 25 701
3 702 701 200
3 700 701 702
3 704 703 25
3 705 11 706
3 201 707 708
3 201 709 710
3 111 201 26
3 202 201 111
3 202 711 713
3 713 712 201
3 711 712 713
3 202 714 715
3 203 716 718
3 718 717 202
3 716 717 718
3 203 719 721
3 719 11 720
3 719 720 721
3 203 165 11
3 204 165 203
3 204 34 165
3 113 204 52
3 205 204 113
3 205 34 204
3 205 722 724
3 724 723 34
3 722 723 724
3 206 725 727
3 727 726 205
3 725 726 727
3 206 728 729
3 207 730 731
3 207 732 734
3 732 27 733
3 732 733 734
3 116 735 737
3 735 207 736
3 735 736 737
3 208 207 116
3 208 27 207
3 208 154 27
3 209 154 208
3 209 12 154
3 156 117 4
3 210 117 156
3 210 54 117
3 119 210 29
3 211 210 119
3 211 54 210
3 211 209 54
3 212 209 211
3 212 12 209
3 212 114 12
3 213 114 212
3 213 53 114
3 121 213 55
3 214 213 121
3 214 53 213
3 214 206 53
3 215 206 214
3 215 738 740
3 740 739 206
3 738 739 740
3 215 741 742
3 744 743 215
3 746 745 56
3 160 123 13
3 216 123 160
3 216 747 749
3 749 748 123
3 747 748 749
3 125 216 31
3 750 216 751
3 752 751 125
3 750 751 752
3 754 753 216
3 217 755 756
3 217 757 759
3 757 16 758
3 757 758 759
3 127 217 57
3 218 217 127
3 218 16 217
3 218 67 16
3 195 67 218
3 195 0 67
3 219 760 762
3 760 761 762
3 219 763 765
3 763 2 764
3 763 764 765
3 220 766 767
3 220 768 770
3 768 769 770
3 771 220 772
3 221 773 775
3 773 220 774
3 773 774 775
3 221 776 778
3 778 777 220
3 776 777 778
3 221 779 781
3 779 219 780
3 779 780 781
3 222 219 221
3 222 2 219
3 222 181 2
3 223 181 222
3 223 42 181
3 128 223 58
3 224 223 128
3 224 42 223
3 224 94 42
3 225 94 224
3 225 6 94
3 782 59 783
3 226 784 785
3 226 786 788
3 786 59 787
3 786 787 788
3 226 225 59
3 227 225 226
3 227 6 225
3 227 141 6
3 228 141 227
3 228 19 141
3 129 228 60
3 229 228 129
3 229 19 228
3 229 71 19
3 789 71 790
3 791 790 229
3 789 790 791
3 793 792 71
3 196 66 0
3 230 66 196
3 230 15 66
3 794 230 795
3 796 795 50
3 794 795 796
3 797 230 798
3 799 15 800
3 801 800 230
3 799 800 801
3 803 802 15
3 130 804 805
3 807 806 130
3 231 808 809
3 231 810 812
3 810 61 811
3 810 811 812
3 813 231 814
3 815 814 32
3 813 814 815
3 816 231 817
3 818 61 819
3 820 819 231
3 818 819 820
3 822 821 61
3 166 131 11
3 232 131 166
3 232 62 131
3 132 232 35
3 233 232 132
3 233 62 232
3 233 823 825
3 825 824 62
3 823 824 825
3 234 826 828
3 828 827 233
3 826 827 828
3 234 829 830
3 234 831 832
3 235 833 835
3 835 834 234
3 833 834 835
3 235 836 837
3 133 235 63
3 236 235 133
3 236 838 840
3 840 839 235
3 838 839 840
3 236 841 843
3 841 178 842
3 841 842 843
3 237 178 236
3 237 3 178
3 844 237 845
3 238 846 848
3 846 237 847
3 846 847 848
3 238 3 237
3 238 84 3
3 849 84 850
3 851 850 238
3 849 850 851
3 852 33 853
3 854 853 84
3 852 853 854
3 855 33 856
3 858 857 33
3 182 85 2
3 239 85 182
3 239 36 85
3 135 239 43
3 859 239 860
3 861 860 135
3 859 860 861
3 862 36 863
3 864 863 239
3 862 863 864
3 866 865 36
3 868 867 7
3 169 869 871
3 871 870 9
3 869 870 871
3 240 872 874
3 874 873 169
3 872 873 874
3 240 875 876
3 877 240 878
3 879 878 37
3 877 878 879
3 880 240 881
3 883 882 240
