ply
format ascii 1.0
element vertex 955
property float x
property float y
property float z
element face 1102
property list uchar int vertex_index
end_header
46.091343 -43.95858 7.23614
53.214874 -31.127798 1.439069
46.739368 -24.690159 -11.228084
53.735271 -57.563801 5.979207
59.406963 -39.985634 14.100729
56.464172 -3.378793 -9.15449
46.13855 -36.760406 5.093185
45.039551 -36.945789 -2.708194
51.372398 -43.647633 0.496755
62.187969 -9.190111 -3.442293
52.604225 12.070803 -16.395411
61.260029 -23.233759 -0.395746
53.495533 -19.444511 -3.397214
45.969696 -27.356421 -2.513132
44.766472 -48.149231 13.100912
54.605812 -50.98082 7.118942
51.391121 -44.698158 17.573923
49.932472 -39.654121 11.925756
66.133041 -30.066589 3.203238
57.877453 -35.461189 6.306376
61.926575 -49.750965 3.481389
51.771809 1.755036 -19.428026
48.726646 -14.335464 -11.893328
44.782612 -40.411831 6.370812
45.38451 -41.540871 2.207456
48.541672 -43.859425 4.096295
51.159969 28.605801 0.852534
47.655285 30.335541 -1.076292
57.691048 -27.271795 0.737066
53.255371 -25.676529 -1.106351
49.259178 -28.849401 0.60172
51.057648 -39.400627 -4.620014
47.828949 -35.367226 -6.209039
43.744984 -48.672943 16.799662
46.842407 -51.404381 12.505954
52.023254 -46.372215 21.029598
47.589397 -46.546383 19.275194
46.221916 -45.271812 16.306944
62.675629 -37.766289 12.550776
62.839699 -35.832989 8.43815
58.972431 -37.770302 10.077569
53.734081 -37.684925 8.670331
55.250927 -39.624287 12.765862
56.691132 -55.144653 8.295423
58.080414 -50.732746 5.225605
58.956005 -55.327137 4.842669
58.684105 2.054133 -8.613283
56.190125 5.001173 -12.360013
53.838478 -0.711119 -14.074266
46.773605 -21.582071 -6.702835
50.581829 -16.863312 -7.105817
46.475155 -19.353628 -11.671728
49.264389 -34.285339 2.994964
45.725227 -32.796974 1.246101
44.337868 -37.331898 1.433719
47.749901 -41.278919 -1.766266
55.000938 -43.052795 -2.936208
59.601006 -6.454131 -6.764988
49.543884 14.942205 -20.084621
50.476147 10.824653 -21.761862
64.691528 -19.330175 0.656762
61.684216 -17.432949 -1.18876
57.382771 -21.70503 -1.889945
49.492603 -23.606421 -3.331795
44.803406 -25.927094 -6.928822
44.16967 -31.845661 -2.491209
45.417889 -30.814859 -7.081604
49.107964 -29.048771 -10.578048
45.866055 -46.239372 10.098739
50.404488 -47.238056 6.19381
49.155098 -49.847977 9.21205
52.358631 -53.23983 9.897043
53.788208 -56.864952 10.555818
50.977959 -57.449577 13.12985
49.187004 -56.681206 8.270183
58.836079 -42.782291 16.753107
54.904804 -44.573891 19.065849
55.193642 -42.459297 15.961299
50.123444 -42.440605 15.086911
45.599323 -43.324615 13.532845
45.469246 -40.812103 10.503355
64.555222 -26.638788 1.055105
60.533558 -30.546356 1.276463
66.117584 -32.836739 7.746115
62.571308 -32.776749 4.831838
56.003155 -32.94529 3.651207
51.902149 -35.482292 6.078601
48.252144 -38.12027 8.29903
53.783192 -46.851776 3.732941
57.520569 -45.86655 1.923532
60.699181 -54.901867 1.653074
54.736591 8.802689 -11.762148
53.769966 7.679207 -17.288256
58.160198 -14.264468 -3.453595
55.209118 -11.48747 -7.053487
53.009571 -9.313039 -12.111046
45.024811 -42.249977 6.805513
45.81287 -42.624901 4.969688
47.141045 -44.002979 5.626052
48.080296 28.367147 2.111347
55.548656 -29.235508 1.205424
53.44286 -28.00462 0.870067
51.273186 -29.774448 1.494788
45.282799 -47.263771 18.112965
60.879982 -38.740723 13.074804
60.698029 -37.377842 11.198161
59.183849 -38.443375 12.08959
57.10955 -38.480186 11.25358
57.423309 -39.663464 13.377684
55.619946 -56.714722 7.684927
58.051403 -55.376171 6.666718
56.500923 -57.16996 5.559041
59.290398 -2.198433 -7.114473
59.713909 0.327873 -6.682448
57.902229 -0.529029 -8.961639
56.506847 0.870667 -11.053512
55.010429 -1.977533 -11.557328
45.451225 -23.021803 -9.149738
46.266518 -20.416035 -9.04067
46.350517 -22.044918 -11.513721
47.626217 -35.301727 4.241528
45.994057 -35.289082 2.825024
44.91383 -37.048935 3.36871
48.119465 -42.947212 1.094798
46.385712 -41.628826 0.090033
49.581615 -42.745571 -0.94255
51.243233 -42.175625 -2.585324
53.249168 -43.443707 -1.365583
61.880505 -5.491071 -4.112846
60.950207 -7.565159 -4.876157
53.045887 29.229223 2.536342
51.145714 11.834139 -16.496424
49.81683 13.057993 -18.303497
51.316456 13.704681 -18.282703
50.57774 13.786226 -20.73015
52.118061 12.077963 -18.905819
63.127876 -21.166969 -0.516624
61.381611 -20.529987 -1.351163
59.223083 -22.634901 -1.516648
49.341759 -26.584814 -1.600782
51.230049 -24.78245 -2.302266
47.591537 -25.552555 -3.003403
46.319351 -24.472073 -4.685362
44.978462 -26.536346 -4.571435
44.085213 -34.817726 -0.578437
44.537361 -32.213657 -0.346409
44.314785 -34.428474 -2.772312
49.931721 -34.240776 -7.800738
46.534519 -33.174034 -6.74705
48.414246 -32.229576 -8.395642
47.03643 -30.075211 -8.970537
50.723907 -31.005787 -9.691093
45.449844 -47.422066 11.630156
47.513721 -48.15546 9.418347
46.644592 -49.30645 10.93086
48.350208 -53.060345 12.857172
49.579536 -52.412151 10.999536
51.237225 -54.140614 11.609549
53.59037 -55.23357 10.661524
52.696167 -55.897869 12.030638
48.202415 -57.041237 12.496704
49.758125 -56.955849 10.89346
47.102299 -56.676746 9.898154
58.408272 -43.524994 18.499729
52.090637 -45.744366 19.045391
53.167591 -45.524254 20.135799
53.431297 -44.650768 18.290609
55.167431 -43.780727 17.354008
53.199898 -43.712738 16.911335
52.865345 -42.539165 15.491697
50.767651 -43.707222 16.384893
44.788902 -46.437511 14.977236
45.875164 -44.411709 15.010961
44.875618 -45.82618 13.436931
44.833973 -44.751945 11.944483
66.77478 -28.152203 3.354677
66.583603 -26.353073 1.94879
65.654884 -28.493097 1.71634
62.726631 -28.676748 1.129286
63.861103 -30.245569 2.028681
60.769276 -35.729118 7.200458
62.871681 -34.436653 6.619396
60.400002 -34.049019 5.558376
59.55891 -32.529987 4.099977
57.156361 -33.919205 5.212903
53.935963 -34.113266 4.966067
54.932014 -35.367348 6.108453
51.911884 -38.455376 10.417231
51.009045 -37.775368 8.483377
49.169228 -38.661793 10.130547
46.671349 -39.192268 9.606146
47.342621 -39.981972 11.426735
52.557446 -49.026924 6.419131
51.971748 -47.095909 4.881286
54.301014 -49.071728 5.32855
59.972404 -50.545769 4.428589
57.970531 -48.47858 3.245374
60.124287 -47.654255 2.51489
59.236351 -45.535011 0.771141
62.062885 -46.86517 1.697148
54.063648 3.164209 -15.761249
54.791687 6.244077 -14.710431
52.998737 4.455949 -18.398039
52.102089 6.113025 -20.66378
50.956135 3.350195 -21.709703
57.430962 -18.446527 -2.044205
59.890419 -15.934352 -2.22452
55.742073 -16.963379 -3.370872
49.446655 -15.651587 -9.564656
53.080688 -14.113447 -7.149497
51.747082 -13.063677 -9.5833
54.171234 -10.509653 -9.667466
50.650261 -11.950665 -12.096853
45.124355 -38.585968 5.739304
44.457756 -39.116016 3.81989
44.870399 -41.022324 4.338604
46.795822 -42.858234 3.09183
49.937263 -43.753872 2.209118
51.939636 30.296331 -0.740035
50.966377 30.715464 -2.190128
49.133629 29.334797 -0.159724
45.754745 29.201878 1.34939
50.882195 7.116876 -15.283231
52.265297 10.540913 -14.368032
59.5453 -25.217014 0.279649
57.316853 -24.603912 -0.819667
55.458961 -26.284393 0.062227
51.344311 -27.243143 -0.203736
47.364731 -28.16987 -0.846196
47.581585 -38.352982 -3.851016
46.204514 -36.204136 -4.522904
49.436989 -37.248802 -5.275961
51.654339 -36.056656 -6.746747
44.143227 -48.604813 14.829831
45.582928 -50.022324 12.610574
44.529922 -50.390072 14.469046
45.635849 -52.127392 14.452662
50.411713 -46.458626 20.149815
49.606976 -45.561684 18.271952
48.737007 -44.672447 16.947495
46.849083 -45.944695 17.619894
44.930641 -46.80624 16.469559
64.361404 -36.440899 12.168631
64.474724 -35.357647 10.156423
62.612072 -36.455315 10.530054
60.750965 -36.846966 9.196382
58.394348 -36.964546 7.963458
55.632332 -36.784847 7.245105
56.523907 -37.780117 9.259617
54.574554 -38.484333 10.747828
52.605846 -39.540802 12.269104
56.088661 -53.014965 7.835707
56.404869 -50.913708 6.088983
57.96703 -53.072243 6.788291
59.381268 -53.107391 5.670649
60.48106 -52.897682 4.169897
57.269775 6.051569 -9.789676
57.477539 3.663146 -10.357363
55.184303 2.10033 -13.189069
52.648659 0.315116 -16.781101
49.676083 -20.570429 -4.969512
51.939465 -18.123089 -5.192023
48.478783 -19.300991 -6.960352
47.609894 -18.01322 -9.237104
47.236397 -16.838959 -11.760353
51.090828 -32.925732 1.930594
49.116142 -31.689777 1.838008
47.394905 -33.566231 2.13695
44.720856 -34.997169 1.307675
44.401569 -37.277813 -0.659769
44.47282 -39.629784 1.648303
45.096016 -39.725914 -0.495552
46.187691 -39.243317 -2.403296
49.370445 -40.512615 -3.333156
53.021099 -41.295975 -3.977408
64.228409 -37.892883 13.839586
62.79184 -39.433434 14.011971
61.022461 -40.536709 14.798441
60.728527 -4.014205 -5.682413
58.131645 -5.006522 -8.183348
49.725384 -25.722027 -12.078344
48.777412 -23.472759 -13.089157
52.549786 29.749887 0.855419
63.545166 -18.388641 -0.563156
59.493141 -19.579336 -1.553815
55.375801 -20.596043 -2.129777
55.263428 -23.919611 -1.952348
53.331654 -22.732075 -2.389379
51.437721 -21.572063 -3.307024
47.890434 -22.532709 -4.786969
45.545544 -23.653481 -6.72466
45.429066 -25.358448 -9.264895
47.261993 -30.716763 1.085133
45.731361 -30.050837 -0.345364
44.743786 -29.426727 -2.24952
45.194252 -33.890572 -4.870484
44.463982 -31.396908 -4.86358
44.271084 -28.858511 -4.727224
44.799614 -28.338989 -7.123614
46.068047 -27.776279 -9.198682
47.742035 -26.893061 -10.867923
51.407948 -27.602448 -11.801352
46.107346 -44.897694 8.685431
48.258987 -45.617935 6.69917
47.995026 -46.666233 7.878883
49.986141 -48.458817 7.746208
51.814186 -50.330776 7.901919
48.029789 -50.816978 10.819974
50.791149 -51.445812 9.403339
53.54192 -52.150707 8.541104
54.761139 -54.134636 9.268709
54.968681 -56.023376 9.432621
53.734406 -57.026081 8.768022
52.586082 -57.276379 11.872175
51.83498 -57.045006 9.727324
51.557739 -57.073303 7.02449
59.16436 -41.606983 15.597092
56.770851 -43.740383 17.922298
57.245655 -42.607571 16.418861
57.20327 -41.154991 15.062327
55.145897 -41.121075 14.4599
52.598114 -41.081974 13.914808
49.851349 -41.06916 13.486151
48.011681 -43.755558 15.843382
47.609577 -42.683029 14.503787
47.37035 -41.350876 12.963554
45.509686 -42.058205 11.958046
44.946667 -43.548393 10.413796
44.948093 -42.435333 8.877493
64.356606 -22.520092 0.590498
65.726875 -24.433033 1.152327
62.977467 -24.837063 0.533784
61.200996 -26.993372 0.898363
59.176594 -29.056421 0.865755
56.951649 -30.993057 1.067957
66.303535 -31.425266 5.507503
64.74086 -34.535797 7.995453
64.958969 -33.103889 6.017379
64.631248 -31.604992 3.819648
61.783531 -31.538288 2.857625
58.307262 -31.972773 2.291958
54.66256 -32.656731 2.027457
52.634857 -33.684685 3.299955
50.660614 -34.621063 4.695945
48.846577 -35.856285 5.707143
52.78463 -36.745052 7.054268
49.963612 -36.964928 6.955678
47.190098 -37.375999 6.640692
45.892212 -38.871334 7.717987
45.065693 -40.547768 8.432718
49.739929 -45.491772 5.386261
51.308418 -45.147728 4.137951
52.920868 -44.558079 2.852098
56.096123 -48.892567 4.223363
55.587868 -46.333458 2.959411
54.65929 -44.392891 1.250002
56.315845 -44.481609 -0.526592
58.155373 -44.086697 -1.952527
58.029285 -58.19754 4.278727
59.875317 -55.552185 3.283283
61.832539 -52.390888 2.44821
63.298138 -48.962746 1.945099
53.743736 10.429586 -13.89343
55.989014 7.478949 -11.882746
54.825268 8.860592 -14.061483
53.667763 10.408583 -16.489086
52.443336 9.110338 -19.48934
50.296474 7.394917 -22.324961
63.659584 -15.007004 -1.127821
62.171989 -13.430481 -2.528554
60.570301 -11.769777 -3.479885
54.271313 -15.436276 -5.092677
56.651318 -12.837259 -4.903831
58.823753 -10.126745 -4.726889
57.393738 -8.920315 -7.029418
56.422192 -7.877005 -9.544181
54.783394 -6.474242 -10.980322
47.345295 -18.323483 -14.346712
49.437176 -10.426665 -14.51178
53.167805 -5.007475 -12.873186
51.746101 -3.691479 -15.390401
49.600258 -0.923722 -20.429235
62.370052 -8.151965 -3.019339
62.717709 -9.125644 -2.366213
61.569088 -8.377635 -4.159225
61.751171 -7.339489 -3.736271
62.370052 -8.151965 -3.019339
50.369879 -32.54129 -8.765915
49.172984 -33.235176 -8.09819
51.128617 -33.54689 -8.468463
51.52471 -31.929395 -9.41364
49.569076 -31.617682 -9.043368
50.369879 -32.54129 -8.765915
52.770727 -31.10382 -9.848044
51.52471 -31.929395 -9.41364
50.577845 -54.401373 12.451472
49.793717 -53.600479 12.23336
49.134337 -53.861238 13.075283
51.307316 -55.28 12.662016
51.966696 -55.019241 11.820093
50.577845 -54.401373 12.451472
46.830765 -57.039383 12.291777
47.775381 -57.244734 13.506374
46.280707 -56.857138 10.992502
47.652357 -56.858992 11.197429
46.830765 -57.039383 12.291777
45.928051 -56.863113 9.718602
46.280707 -56.857138 10.992502
58.070692 -43.801285 19.564366
58.99827 -43.273439 18.970591
45.199972 28.389512 2.463547
46.91752 28.784512 1.730368
46.362747 27.972146 2.844526
44.129158 28.959533 2.106054
45.199972 28.389512 2.463547
51.251465 6.729444 -14.347033
50.662339 4.538436 -15.021937
51.943016 8.441463 -13.889433
51.573746 8.828895 -14.825632
51.251465 6.729444 -14.347033
53.488757 -36.178657 -6.638803
52.396002 -36.921642 -6.100547
52.805521 -35.390833 -7.61464
53.488757 -36.178657 -6.638803
45.032128 -52.371401 15.485449
44.629959 -51.439545 15.510829
46.289074 -52.857895 14.596873
45.032128 -52.371401 15.485449
49.000555 -46.502505 19.712505
49.355113 -46.929594 20.581197
47.943955 -46.973472 20.143887
58.90992 2.100216 -7.6184
59.424822 1.237086 -6.652983
59.199007 1.191003 -7.647865
58.461148 3.097504 -8.418725
58.90992 2.100216 -7.6184
58.080822 2.858639 -9.485323
57.857865 3.90201 -9.290765
58.461148 3.097504 -8.418725
56.005312 -42.538629 -3.542604
55.015393 -41.660219 -4.063204
54.011018 -42.174385 -3.456808
48.666902 30.912176 -2.325992
50.322449 31.102137 -2.88291
49.310831 30.525503 -1.63321
64.432175 -37.352838 14.674523
64.628692 -36.87837 13.829041
62.607136 -39.85285 14.868803
63.354844 -39.080925 14.68675
61.722447 -40.404488 15.262038
61.907151 -39.985072 14.405206
62.607136 -39.85285 14.868803
51.058651 -24.769276 -12.563873
51.787203 -25.791359 -12.394692
52.441107 30.630706 1.277302
52.403086 30.885655 0.484064
52.671377 28.523133 2.434515
53.103825 28.285065 3.184373
48.835521 14.332812 -20.081765
48.971995 13.390706 -19.191203
49.680357 14.000099 -19.194059
48.579268 15.493012 -20.927782
48.835521 14.332812 -20.081765
49.181629 15.137909 -21.240715
48.579268 15.493012 -20.927782
49.686394 11.740531 -22.635459
49.73719 13.221318 -22.119603
50.526944 12.305439 -21.246006
49.311224 9.996764 -23.150654
49.686394 11.740531 -22.635459
64.118347 -18.859408 0.046803
64.465194 -18.020402 0.604111
65.038376 -18.491169 1.21407
50.562409 -56.941479 14.175329
50.550772 -57.556209 13.878424
51.223976 -56.888443 13.36084
50.562409 -56.941479 14.175329
51.782021 -57.362978 12.501012
52.028038 -56.801844 12.732002
51.223976 -56.888443 13.36084
49.271682 -57.305117 7.176011
50.45705 -57.501165 6.553165
50.372371 -56.877255 7.647336
59.699635 -42.17683 16.468103
59.376352 -42.480588 17.171836
59.00022 -42.194637 16.1751
59.863775 -41.589176 15.890096
59.699635 -42.17683 16.468103
52.328205 -46.186575 21.591658
52.012323 -46.765096 21.945213
54.539407 -44.938633 20.188181
53.670801 -45.413815 20.723156
54.036198 -45.049073 19.600824
55.55163 -44.527851 19.51256
54.539407 -44.938633 20.188181
55.837828 -44.157137 18.494073
56.484654 -44.111097 18.940784
55.55163 -44.527851 19.51256
65.307004 -22.469105 1.450042
64.892949 -21.60584 1.078355
66.254463 -31.919882 7.70501
66.035774 -32.557459 8.765853
66.210559 -32.131003 6.626809
66.347438 -31.214146 6.585704
66.254463 -31.919882 7.70501
59.683121 -44.487551 -1.277573
58.695862 -44.810854 -0.590693
60.22361 -45.211708 0.084261
59.23332 -43.612324 -2.571473
59.683121 -44.487551 -1.277573
57.171677 -59.343978 4.179699
56.45494 -58.724453 4.559754
60.287249 -55.227026 2.468179
59.492334 -56.905979 3.202675
59.904267 -56.58082 2.387571
63.564677 -48.388855 0.895596
62.791546 -50.124382 1.31377
63.556275 -47.409226 1.122029
63.564677 -48.388855 0.895596
53.916859 8.794939 -11.972349
54.354822 8.016724 -10.949548
54.240163 9.616138 -12.827789
53.420431 9.608387 -13.03799
53.916859 8.794939 -11.972349
50.115345 6.254541 -22.891421
51.199281 6.753971 -21.49437
51.018152 5.613594 -22.060831
49.29106 6.751597 -23.718519
50.115345 6.254541 -22.891421
62.6719 -16.219977 -1.158291
64.221062 -15.711126 -0.412843
63.233378 -16.924099 -0.443312
48.35947 -22.212131 -13.448792
50.003366 -22.616352 -13.803855
48.077417 -17.67953 -15.587363
48.623457 -18.89179 -15.074181
47.364849 -16.993547 -14.474708
48.077417 -17.67953 -15.587363
48.602068 -11.057845 -15.843988
48.721468 -11.759649 -14.53268
51.518408 -5.638378 -14.668643
52.2762 -6.340761 -13.510451
50.807556 -4.98038 -15.92725
52.456953 -4.349477 -14.131794
51.518408 -5.638378 -14.668643
49.067059 -2.251852 -20.955201
50.10289 -1.731809 -19.225102
49.141013 27.767997 2.409866
49.620132 28.486474 1.48194
50.680849 27.887324 1.78046
47.482225 27.599977 3.017718
49.141013 27.767997 2.409866
46.362747 27.972146 2.844526
47.482225 27.599977 3.017718
52.097656 -38.593628 -5.03718
53.009282 -39.718065 -4.802764
43.684527 -49.71232 16.684329
43.773131 -48.809229 17.774748
46.716036 -47.144846 19.531101
47.943955 -46.973472 20.143887
45.562736 -47.50354 18.949987
46.436098 -46.905077 18.69408
46.716036 -47.144846 19.531101
44.542038 -48.104643 18.431399
45.562736 -47.50354 18.949987
44.821976 -48.344412 19.268421
43.773131 -48.809229 17.774748
44.513891 -47.968357 17.456314
44.542038 -48.104643 18.431399
59.502154 -0.93528 -6.898461
60.20965 -0.675021 -5.78569
59.997895 -1.938174 -6.001703
46.951638 30.932125 -1.658147
45.9637 30.408368 -0.401898
62.21632 -6.302445 -3.354616
61.963617 -5.410591 -2.97303
61.415356 -6.528115 -4.494502
62.21632 -6.302445 -3.354616
61.751171 -7.339489 -3.736271
52.563949 30.090048 2.930854
52.689158 30.370373 2.117763
53.139277 29.003153 3.417592
52.563949 30.090048 2.930854
53.103825 28.285065 3.184373
53.139277 29.003153 3.417592
50.481272 12.446066 -17.39996
49.857309 10.501801 -17.762134
50.521752 9.889874 -16.858597
51.966287 -30.246831 -10.322621
51.158316 -29.268323 -10.766099
49.915936 -30.027279 -10.134571
51.966287 -30.246831 -10.322621
52.770727 -31.10382 -9.848044
49.163 -57.35204 13.56185
47.775381 -57.244734 13.506374
49.590187 -57.245407 12.813277
50.550772 -57.556209 13.878424
49.163 -57.35204 13.56185
47.03055 -56.932409 8.719097
48.072902 -56.934639 7.905112
48.144652 -56.678976 9.084169
47.03055 -56.932409 8.719097
45.928051 -56.863113 9.718602
59.162449 -42.85194 18.045147
58.99827 -43.273439 18.970591
58.622175 -43.153643 17.626418
59.376352 -42.480588 17.171836
59.162449 -42.85194 18.045147
66.679192 -27.252638 2.651734
66.565082 -26.250328 2.827186
66.660671 -27.149893 3.53013
65.888099 -33.363053 8.861871
66.035774 -32.557459 8.765853
61.636877 -45.876787 0.547265
60.22361 -45.211708 0.084261
60.649618 -46.200091 1.234144
59.9133 -55.905519 1.549477
59.904267 -56.58082 2.387571
55.332718 8.120831 -10.753177
54.354822 8.016724 -10.949548
50.445176 4.232179 -22.583793
51.018152 5.613594 -22.060831
51.529112 4.73161 -21.186742
51.453007 30.505897 -1.465082
51.37957 31.828256 -1.920253
51.8662 31.61869 -1.195206
45.01343 29.841537 0.810943
45.9637 30.408368 -0.401898
46.705015 29.768709 0.136549
45.01343 29.841537 0.810943
44.129158 28.959533 2.106054
62.799441 -10.098674 -2.748914
62.717709 -9.125644 -2.366213
50.2948 4.894285 -15.888051
50.662339 4.538436 -15.021937
50.389992 7.531243 -16.252001
50.2948 4.894285 -15.888051
51.013954 9.475508 -15.889828
50.521752 9.889874 -16.858597
50.389992 7.531243 -16.252001
51.287327 -37.517715 -5.365153
50.247318 -38.324714 -4.947987
52.097656 -38.593628 -5.03718
50.545664 -36.652729 -6.011354
51.287327 -37.517715 -5.365153
52.396002 -36.921642 -6.100547
51.944212 -34.482893 -8.141635
50.79303 -35.148716 -7.273742
52.805521 -35.390833 -7.61464
51.128617 -33.54689 -8.468463
51.944212 -34.482893 -8.141635
44.076995 -50.570885 15.519021
44.137453 -49.531508 15.634354
43.684527 -49.71232 16.684329
45.082886 -51.258732 14.460854
44.076995 -50.570885 15.519021
44.629959 -51.439545 15.510829
47.646254 -53.324371 13.799128
46.993029 -52.593868 13.654917
46.289074 -52.857895 14.596873
49.134337 -53.861238 13.075283
47.646254 -53.324371 13.799128
51.439047 -46.843879 21.467054
52.012323 -46.765096 21.945213
50.633276 -46.887085 21.027162
49.355113 -46.929594 20.581197
51.217484 -46.41542 20.589706
51.439047 -46.843879 21.467054
50.633276 -46.887085 21.027162
66.410042 -28.060574 4.331009
66.660671 -27.149893 3.53013
66.687618 -28.890901 4.356326
66.410042 -28.060574 4.331009
66.366748 -29.848094 4.280606
66.453911 -29.109396 3.278957
66.687618 -28.890901 4.356326
64.418064 -35.899273 11.162527
64.901996 -35.057974 11.122107
64.845337 -35.5996 12.12821
59.808024 0.12861 -5.800229
60.20965 -0.675021 -5.78569
59.808024 0.12861 -5.800229
59.424822 1.237086 -6.652983
57.753983 5.096222 -9.006922
57.160049 5.847872 -8.863856
57.373657 4.857357 -10.073519
57.753983 5.096222 -9.006922
57.857865 3.90201 -9.290765
53.991007 -40.665739 -4.48146
53.009282 -39.718065 -4.802764
52.039373 -40.348301 -4.298711
53.991007 -40.665739 -4.48146
55.015393 -41.660219 -4.063204
51.244673 31.975034 -2.969761
51.37957 31.828256 -1.920253
51.244673 31.975034 -2.969761
50.322449 31.102137 -2.88291
48.666902 30.912176 -2.325992
46.951638 30.932125 -1.658147
64.69519 -36.152378 12.993563
64.845337 -35.5996 12.12821
64.294906 -37.166891 13.004109
64.69519 -36.152378 12.993563
64.628692 -36.87837 13.829041
64.073128 -38.310649 14.600557
64.432175 -37.352838 14.674523
63.510125 -38.663158 13.925778
64.073128 -38.310649 14.600557
63.354844 -39.080925 14.68675
54.307933 -58.407584 5.409994
52.80274 -58.233744 5.644247
61.66565 -4.506685 -3.667537
61.963617 -5.410591 -2.97303
61.089661 -3.768253 -4.452321
61.66565 -4.506685 -3.667537
61.304516 -4.752638 -4.89763
60.716959 -2.84606 -5.285673
61.089661 -3.768253 -4.452321
60.009462 -3.106319 -6.398443
59.997895 -1.938174 -6.001703
60.716959 -2.84606 -5.285673
50.584665 -23.644642 -13.06928
49.251398 -24.597393 -12.583751
51.058651 -24.769276 -12.563873
50.003366 -22.616352 -13.803855
50.584665 -23.644642 -13.06928
52.098011 31.158877 -0.313663
51.8662 31.61869 -1.195206
52.244711 30.023109 0.057692
52.098011 31.158877 -0.313663
52.403086 30.885655 0.484064
52.797837 29.489555 1.69588
52.441107 30.630706 1.277302
52.689158 30.370373 2.117763
52.423327 28.783465 1.594054
52.797837 29.489555 1.69588
52.671377 28.523133 2.434515
51.728418 28.211422 1.592611
51.854878 29.177844 0.853977
52.423327 28.783465 1.594054
50.680849 27.887324 1.78046
51.728418 28.211422 1.592611
49.31698 11.003959 -18.769533
49.857309 10.501801 -17.762134
49.31698 11.003959 -18.769533
48.971995 13.390706 -19.191203
49.698557 14.559919 -21.563479
49.181629 15.137909 -21.240715
50.060812 14.364216 -20.407385
49.698557 14.559919 -21.563479
49.73719 13.221318 -22.119603
64.163853 -17.401945 -0.13051
64.465194 -18.020402 0.604111
62.614691 -17.910795 -0.875958
63.233378 -16.924099 -0.443312
64.163853 -17.401945 -0.13051
52.628485 -26.731569 -12.256196
51.787203 -25.791359 -12.394692
50.566666 -26.662237 -11.939848
52.308308 -28.545161 -11.37775
50.257956 -28.325609 -11.1897
51.158316 -29.268323 -10.766099
53.562596 -27.683057 -11.96802
52.308308 -28.545161 -11.37775
52.628485 -26.731569 -12.256196
53.562596 -27.683057 -11.96802
52.083081 -56.112589 12.811234
51.307316 -55.28 12.662016
52.641125 -56.587124 11.951407
52.083081 -56.112589 12.811234
52.028038 -56.801844 12.732002
51.713974 -57.988495 6.166889
52.80274 -58.233744 5.644247
52.646505 -57.318552 6.501848
51.713974 -57.988495 6.166889
50.45705 -57.501165 6.553165
49.271682 -57.305117 7.176011
48.072902 -56.934639 7.905112
60.792825 -41.054039 15.49077
61.722447 -40.404488 15.262038
60.093411 -41.071846 15.197767
60.792825 -41.054039 15.49077
59.863775 -41.589176 15.890096
52.900374 -45.762594 21.144758
52.328205 -46.186575 21.591658
52.595422 -45.948234 20.582698
52.900374 -45.762594 21.144758
53.670801 -45.413815 20.723156
57.303364 -44.003403 19.229499
58.070692 -43.801285 19.564366
57.589562 -43.632689 18.211013
57.303364 -44.003403 19.229499
56.484654 -44.111097 18.940784
65.149738 -19.302195 1.798611
65.038376 -18.491169 1.21407
65.06041 -20.010882 1.111487
65.149738 -19.302195 1.798611
64.278583 -20.929279 0.524794
63.909702 -20.248572 0.070069
65.06041 -20.010882 1.111487
63.742241 -21.84353 0.036937
64.278583 -20.929279 0.524794
64.892949 -21.60584 1.078355
66.603234 -25.323321 2.371625
66.565082 -26.250328 2.827186
66.174869 -24.363301 1.973394
66.603234 -25.323321 2.371625
66.155239 -25.393053 1.550559
65.992138 -23.425576 1.730957
66.174869 -24.363301 1.973394
65.041741 -23.476562 0.871413
65.307004 -22.469105 1.450042
65.992138 -23.425576 1.730957
66.451995 -30.527432 5.432739
66.347438 -31.214146 6.585704
66.218288 -30.745928 4.35537
66.366748 -29.848094 4.280606
66.451995 -30.527432 5.432739
65.066669 -34.623507 10.067025
64.901996 -35.057974 11.122107
65.199737 -34.212581 8.986541
65.066669 -34.623507 10.067025
64.607792 -34.946722 9.075938
65.429222 -33.686268 7.870784
65.888099 -33.363053 8.861871
65.199737 -34.212581 8.986541
57.582529 -43.055581 -3.050763
56.005312 -42.538629 -3.542604
56.578155 -43.569746 -2.444368
57.582529 -43.055581 -3.050763
59.23332 -43.612324 -2.571473
55.690759 -58.210663 5.199911
55.118097 -57.366881 5.769124
54.307933 -58.407584 5.409994
57.265104 -57.68375 4.918884
55.690759 -58.210663 5.199911
56.45494 -58.724453 4.559754
58.569319 -58.228656 3.700398
57.171677 -59.343978 4.179699
58.952301 -56.874862 3.781005
58.569319 -58.228656 3.700398
59.492334 -56.905979 3.202675
60.539841 -54.155487 0.721615
59.9133 -55.905519 1.549477
61.492068 -53.093942 1.167758
60.539841 -54.155487 0.721615
62.058746 -51.838453 1.565326
61.26586 -53.646377 2.050642
61.492068 -53.093942 1.167758
62.565338 -50.676817 2.196655
62.058746 -51.838453 1.565326
62.791546 -50.124382 1.31377
62.938648 -46.360438 0.998054
62.680512 -47.913958 1.821124
63.556275 -47.409226 1.122029
61.636877 -45.876787 0.547265
62.938648 -46.360438 0.998054
52.681212 9.664051 -13.275291
51.943016 8.441463 -13.889433
53.004516 10.48525 -14.130731
52.681212 9.664051 -13.275291
53.420431 9.608387 -13.03799
56.59931 6.745271 -9.766941
57.160049 5.847872 -8.863856
55.958929 7.458961 -10.813477
56.59931 6.745271 -9.766941
56.629395 6.765259 -10.836211
55.362803 8.140819 -11.822447
55.332718 8.120831 -10.753177
55.958929 7.458961 -10.813477
49.221388 8.281896 -23.432203
49.311224 9.996764 -23.150654
50.386311 9.109785 -22.043411
49.221388 8.281896 -23.432203
49.29106 6.751597 -23.718519
64.375099 -14.731181 -0.102678
64.221062 -15.711126 -0.412843
64.026356 -13.887428 -0.921683
64.375099 -14.731181 -0.102678
63.282558 -13.099166 -1.62205
64.026356 -13.887428 -0.921683
62.915787 -14.218743 -1.828188
62.791451 -12.218859 -2.292045
63.282558 -13.099166 -1.62205
61.990606 -11.388507 -2.76771
62.791451 -12.218859 -2.292045
61.371145 -12.600129 -3.00422
61.379135 -10.479944 -3.461089
62.799441 -10.098674 -2.748914
61.990606 -11.388507 -2.76771
47.146023 -21.49821 -12.661074
47.563964 -22.758838 -12.301439
48.35947 -22.212131 -13.448792
47.208342 -20.152565 -12.740077
46.412836 -20.699273 -11.592724
47.146023 -21.49821 -12.661074
47.643411 -19.637493 -14.077569
48.623457 -18.89179 -15.074181
46.910225 -18.838555 -13.00922
47.208342 -20.152565 -12.740077
47.643411 -19.637493 -14.077569
47.3104 -16.251285 -13.181528
47.290846 -17.581221 -13.053532
47.364849 -16.993547 -14.474708
48.055525 -14.999537 -13.248016
47.981521 -15.587211 -11.82684
47.3104 -16.251285 -13.181528
48.366203 -13.714049 -13.223453
48.055525 -14.999537 -13.248016
49.328011 -12.521649 -13.325216
49.688454 -13.143065 -11.99509
48.366203 -13.714049 -13.223453
50.043718 -11.188665 -13.304316
49.328011 -12.521649 -13.325216
48.721468 -11.759649 -14.53268
48.951416 -9.623178 -15.704238
48.602068 -11.057845 -15.843988
50.410885 -9.050356 -14.329747
48.951416 -9.623178 -15.704238
52.197083 -8.493543 -13.12938
51.223374 -9.869852 -13.311413
50.410885 -9.050356 -14.329747
53.083994 -7.074144 -12.564018
53.896483 -7.893641 -11.545684
52.197083 -8.493543 -13.12938
53.9756 -5.740858 -11.926754
53.083994 -7.074144 -12.564018
52.2762 -6.340761 -13.510451
50.369503 -4.34864 -17.157519
50.807556 -4.98038 -15.92725
51.175812 -3.115687 -16.705685
50.369503 -4.34864 -17.157519
52.222 -1.625508 -16.047618
52.79229 -2.201299 -14.732333
51.175812 -3.115687 -16.705685
51.627091 -1.11239 -17.401035
53.243569 -0.198001 -15.427684
52.222 -1.625508 -16.047618
51.124459 -0.304303 -18.605168
51.627091 -1.11239 -17.401035
50.10289 -1.731809 -19.225102
49.283819 -1.342658 -22.205233
49.067059 -2.251852 -20.955201
49.504738 -0.040588 -21.701127
49.283819 -1.342658 -22.205233
50.590514 1.298791 -21.200522
50.686033 0.415657 -19.92863
49.504738 -0.040588 -21.701127
50.182676 2.09637 -22.341361
51.363972 2.552615 -20.568865
50.590514 1.298791 -21.200522
50.127928 2.932472 -23.488491
50.182676 2.09637 -22.341361
50.445176 4.232179 -22.583793
50.127928 2.932472 -23.488491
3 0 98 96
3 1 102 100
3 4 106 104
3 4 108 106
3 3 111 109
3 5 114 112
3 5 116 114
3 2 119 117
3 6 122 120
3 8 125 123
3 8 127 125
3 9 382 383
3 9 384 386
3 384 129 385
3 384 385 386
3 10 133 131
3 10 135 133
3 11 138 136
3 13 141 139
3 13 143 141
3 7 146 144
3 387 149 388
3 389 388 147
3 387 388 389
3 390 151 391
3 392 391 149
3 390 391 392
3 394 393 151
3 14 154 152
3 395 157 396
3 397 396 155
3 395 396 397
3 398 159 399
3 400 399 157
3 398 399 400
3 401 160 402
3 403 162 404
3 405 404 160
3 403 404 405
3 407 406 162
3 408 163 409
3 16 166 164
3 16 168 166
3 16 170 168
3 14 173 171
3 14 152 173
3 18 177 175
3 18 179 177
3 19 182 180
3 19 184 182
3 19 186 184
3 17 189 187
3 17 191 189
3 15 194 192
3 20 197 195
3 20 199 197
3 21 202 200
3 21 204 202
3 12 207 205
3 22 210 208
3 22 212 210
3 23 215 213
3 25 216 97
3 25 217 216
3 26 220 218
3 410 221 411
3 412 411 99
3 410 411 412
3 414 413 221
3 415 222 416
3 417 223 418
3 419 418 222
3 417 418 419
3 28 226 224
3 30 227 101
3 30 228 227
3 31 231 229
3 420 232 421
3 423 422 232
3 33 235 233
3 424 236 425
3 427 426 236
3 36 428 430
3 428 237 429
3 428 429 430
3 36 238 237
3 36 240 238
3 33 241 103
3 33 233 241
3 38 244 242
3 40 245 105
3 40 246 245
3 40 248 246
3 42 249 107
3 42 250 249
3 43 253 251
3 45 254 110
3 45 255 254
3 46 431 433
3 433 432 113
3 431 432 433
3 46 434 435
3 46 436 438
3 436 257 437
3 436 437 438
3 48 258 115
3 48 259 258
3 49 262 260
3 51 263 118
3 51 264 263
3 52 267 265
3 54 268 121
3 54 269 268
3 24 270 214
3 55 271 124
3 55 272 271
3 55 273 272
3 56 274 126
3 56 439 441
3 441 440 274
3 439 440 441
3 27 442 444
3 444 443 219
3 442 443 444
3 445 275 446
3 447 276 448
3 449 277 450
3 451 450 276
3 449 450 451
3 57 278 128
3 57 279 278
3 453 452 280
3 454 282 455
3 457 456 130
3 58 458 460
3 460 459 132
3 458 459 460
3 58 461 462
3 58 463 464
3 59 465 467
3 467 466 134
3 465 466 467
3 59 468 469
3 60 470 472
3 470 283 471
3 470 471 472
3 62 284 137
3 62 285 284
3 29 286 225
3 63 287 140
3 63 288 287
3 63 289 288
3 64 290 142
3 64 291 290
3 53 292 266
3 65 293 145
3 65 294 293
3 32 295 230
3 66 296 148
3 66 297 296
3 66 298 297
3 67 299 150
3 67 300 299
3 67 301 300
3 68 304 302
3 70 305 153
3 70 306 305
3 34 307 234
3 71 308 156
3 71 309 308
3 71 310 309
3 72 311 158
3 72 312 311
3 73 473 474
3 73 475 476
3 73 477 479
3 477 313 478
3 477 478 479
3 74 314 161
3 74 315 314
3 74 480 482
3 482 481 315
3 480 481 482
3 75 483 484
3 75 485 487
3 485 316 486
3 485 486 487
3 35 488 489
3 76 490 492
3 492 491 165
3 490 491 492
3 76 493 494
3 76 495 497
3 495 317 496
3 495 496 497
3 77 318 167
3 77 319 318
3 77 320 319
3 78 321 169
3 78 322 321
3 37 323 239
3 79 324 172
3 79 325 324
3 79 326 325
3 68 327 174
3 68 302 327
3 498 329 499
3 81 330 176
3 81 331 330
3 81 332 331
3 82 333 178
3 82 334 333
3 83 500 501
3 83 502 504
3 502 335 503
3 502 503 504
3 39 336 243
3 84 337 181
3 84 338 337
3 84 339 338
3 85 340 183
3 85 341 340
3 85 342 341
3 86 343 185
3 86 344 343
3 41 345 247
3 87 346 188
3 87 347 346
3 87 348 347
3 80 349 190
3 80 328 349
3 69 350 303
3 88 351 193
3 88 352 351
3 44 353 252
3 89 354 196
3 89 355 354
3 89 356 355
3 505 357 506
3 507 506 198
3 505 506 507
3 509 508 357
3 510 358 511
3 90 512 514
3 512 359 513
3 512 513 514
3 90 360 359
3 515 361 516
3 518 517 361
3 91 519 520
3 91 521 523
3 521 362 522
3 521 522 523
3 47 363 256
3 92 364 201
3 92 365 364
3 92 366 365
3 524 367 525
3 526 525 203
3 524 525 526
3 528 527 367
3 61 529 531
3 529 368 530
3 529 530 531
3 93 369 206
3 93 370 369
3 50 371 261
3 94 372 209
3 94 373 372
3 94 374 373
3 95 375 211
3 95 376 375
3 533 532 281
3 534 377 535
3 537 536 377
3 538 378 539
3 540 379 541
3 542 380 543
3 544 543 379
3 542 543 544
3 545 381 546
3 96 97 23
3 98 97 96
3 98 25 97
3 547 99 548
3 549 548 26
3 547 548 549
3 550 99 551
3 553 552 99
3 100 101 28
3 102 101 100
3 102 30 101
3 555 554 31
3 557 556 33
3 558 36 559
3 560 103 561
3 562 561 36
3 560 561 562
3 563 103 564
3 563 564 565
3 566 33 567
3 568 567 103
3 566 567 568
3 104 105 38
3 106 105 104
3 106 40 105
3 106 107 40
3 108 107 106
3 108 42 107
3 109 110 43
3 111 110 109
3 111 45 110
3 112 569 571
3 569 113 570
3 569 570 571
3 114 113 112
3 114 46 113
3 114 115 46
3 116 115 114
3 116 48 115
3 117 118 49
3 119 118 117
3 119 51 118
3 120 121 52
3 122 121 120
3 122 54 121
3 123 124 24
3 125 124 123
3 125 55 124
3 125 126 55
3 127 126 125
3 127 56 126
3 573 572 27
3 574 128 575
3 129 576 578
3 576 128 577
3 576 577 578
3 129 57 128
3 579 130 580
3 581 130 582
3 584 583 130
3 131 585 587
3 585 132 586
3 585 586 587
3 133 132 131
3 133 58 132
3 133 134 58
3 135 134 133
3 135 59 134
3 136 137 60
3 138 137 136
3 138 62 137
3 139 140 29
3 141 140 139
3 141 63 140
3 141 142 63
3 143 142 141
3 143 64 142
3 144 145 53
3 146 145 144
3 146 65 145
3 147 148 32
3 149 148 147
3 149 66 148
3 149 150 66
3 151 150 149
3 151 67 150
3 151 588 590
3 590 589 67
3 588 589 590
3 592 591 151
3 152 153 68
3 154 153 152
3 154 70 153
3 155 156 34
3 157 156 155
3 157 71 156
3 157 158 71
3 159 158 157
3 159 72 158
3 160 593 594
3 160 595 597
3 595 73 596
3 595 596 597
3 160 161 73
3 162 161 160
3 162 74 161
3 162 598 600
3 600 599 74
3 598 599 600
3 602 601 162
3 163 603 604
3 163 605 607
3 605 75 606
3 605 606 607
3 164 165 35
3 166 165 164
3 166 76 165
3 166 167 76
3 168 167 166
3 168 77 167
3 168 169 77
3 170 169 168
3 170 78 169
3 171 172 37
3 173 172 171
3 173 79 172
3 173 174 79
3 152 174 173
3 152 68 174
3 175 608 610
3 608 176 609
3 608 609 610
3 177 176 175
3 177 81 176
3 177 178 81
3 179 178 177
3 179 82 178
3 611 83 612
3 180 181 39
3 182 181 180
3 182 84 181
3 182 183 84
3 184 183 182
3 184 85 183
3 184 185 85
3 186 185 184
3 186 86 185
3 187 188 41
3 189 188 187
3 189 87 188
3 189 190 87
3 191 190 189
3 191 80 190
3 192 193 69
3 194 193 192
3 194 88 193
3 195 196 44
3 197 196 195
3 197 89 196
3 197 198 89
3 199 198 197
3 199 613 615
3 615 614 198
3 613 614 615
3 616 90 617
3 618 91 619
3 200 201 47
3 202 201 200
3 202 92 201
3 202 203 92
3 204 203 202
3 204 620 622
3 622 621 203
3 620 621 622
3 205 206 61
3 207 206 205
3 207 93 206
3 208 209 50
3 210 209 208
3 210 94 209
3 210 211 94
3 212 211 210
3 212 95 211
3 213 214 6
3 215 214 213
3 215 24 214
3 97 215 23
3 216 215 97
3 216 24 215
3 216 123 24
3 217 123 216
3 217 8 123
3 218 623 625
3 623 219 624
3 623 624 625
3 220 219 218
3 220 27 219
3 99 220 26
3 221 220 99
3 221 27 220
3 221 626 628
3 628 627 27
3 626 627 628
3 630 629 221
3 631 9 632
3 222 633 634
3 222 635 636
3 222 637 639
3 637 131 638
3 637 638 639
3 223 131 222
3 223 10 131
3 224 225 11
3 226 225 224
3 226 29 225
3 101 226 28
3 227 226 101
3 227 29 226
3 227 139 29
3 228 139 227
3 228 13 139
3 229 230 7
3 231 230 229
3 231 32 230
3 640 231 641
3 642 641 31
3 640 641 642
3 232 643 645
3 643 231 644
3 643 644 645
3 232 32 231
3 232 147 32
3 646 147 647
3 648 647 232
3 646 647 648
3 650 649 147
3 233 234 14
3 235 234 233
3 235 34 234
3 651 235 652
3 653 652 33
3 651 652 653
3 236 654 656
3 654 235 655
3 654 655 656
3 236 34 235
3 236 155 34
3 657 155 658
3 659 658 236
3 657 658 659
3 661 660 155
3 662 35 663
3 237 664 665
3 237 666 668
3 666 35 667
3 666 667 668
3 237 164 35
3 238 164 237
3 238 16 164
3 238 239 16
3 240 239 238
3 240 37 239
3 103 240 36
3 241 240 103
3 241 37 240
3 241 171 37
3 233 171 241
3 233 14 171
3 669 175 670
3 671 175 672
3 673 18 674
3 675 674 175
3 673 674 675
3 242 676 678
3 676 243 677
3 676 677 678
3 244 243 242
3 244 39 243
3 105 244 38
3 245 244 105
3 245 39 244
3 245 180 39
3 246 180 245
3 246 19 180
3 246 247 19
3 248 247 246
3 248 41 247
3 107 248 40
3 249 248 107
3 249 41 248
3 249 187 41
3 250 187 249
3 250 17 187
3 251 252 15
3 253 252 251
3 253 44 252
3 110 253 43
3 254 253 110
3 254 44 253
3 254 195 44
3 255 195 254
3 255 20 195
3 113 679 680
3 682 681 113
3 683 256 684
3 257 685 687
3 685 256 686
3 685 686 687
3 257 47 256
3 115 257 46
3 258 257 115
3 258 47 257
3 258 200 47
3 259 200 258
3 259 21 200
3 260 261 12
3 262 261 260
3 262 50 261
3 118 262 49
3 263 262 118
3 263 50 262
3 263 208 50
3 264 208 263
3 264 22 208
3 265 266 1
3 267 266 265
3 267 53 266
3 121 267 52
3 268 267 121
3 268 53 267
3 268 144 53
3 269 144 268
3 269 7 144
3 214 122 6
3 270 122 214
3 270 54 122
3 124 270 24
3 271 270 124
3 271 54 270
3 271 269 54
3 272 269 271
3 272 7 269
3 272 229 7
3 273 229 272
3 273 31 229
3 126 273 55
3 274 273 126
3 274 31 273
3 274 688 690
3 690 689 31
3 688 689 690
3 692 691 274
3 219 693 694
3 696 695 219
3 698 697 27
3 699 242 700
3 275 701 703
3 701 242 702
3 701 702 703
3 275 38 242
3 704 275 705
3 276 706 708
3 706 275 707
3 706 707 708
3 276 38 275
3 276 104 38
3 277 104 276
3 277 4 104
3 710 709 3
3 128 711 712
3 278 713 715
3 715 714 128
3 713 714 715
3 278 716 717
3 278 718 720
3 718 112 719
3 718 719 720
3 279 112 278
3 279 5 112
3 280 281 2
3 721 281 722
3 723 722 280
3 721 722 723
3 725 724 281
3 726 218 727
3 282 728 730
3 728 218 729
3 728 729 730
3 282 26 218
3 130 731 733
3 731 282 732
3 731 732 733
3 734 282 735
3 736 735 130
3 734 735 736
3 737 26 738
3 739 738 282
3 737 738 739
3 741 740 26
3 132 742 743
3 745 744 132
3 134 746 748
3 748 747 58
3 746 747 748
3 750 749 134
3 283 751 752
3 283 753 755
3 753 61 754
3 753 754 755
3 137 283 60
3 284 283 137
3 284 61 283
3 284 205 61
3 285 205 284
3 285 12 205
3 225 138 11
3 286 138 225
3 286 62 138
3 140 286 29
3 287 286 140
3 287 62 286
3 287 285 62
3 288 285 287
3 288 12 285
3 288 260 12
3 289 260 288
3 289 49 260
3 142 289 63
3 290 289 142
3 290 49 289
3 290 117 49
3 291 117 290
3 291 2 117
3 266 102 1
3 292 102 266
3 292 30 102
3 145 292 53
3 293 292 145
3 293 30 292
3 293 228 30
3 294 228 293
3 294 13 228
3 230 146 7
3 295 146 230
3 295 65 146
3 148 295 32
3 296 295 148
3 296 65 295
3 296 294 65
3 297 294 296
3 297 13 294
3 297 143 13
3 298 143 297
3 298 64 143
3 150 298 66
3 299 298 150
3 299 64 298
3 299 291 64
3 300 291 299
3 300 2 291
3 300 280 2
3 301 280 300
3 301 756 758
3 758 757 280
3 756 757 758
3 759 301 760
3 761 760 67
3 759 760 761
3 762 301 763
3 765 764 301
3 302 303 0
3 304 303 302
3 304 69 303
3 153 304 68
3 305 304 153
3 305 69 304
3 305 192 69
3 306 192 305
3 306 15 192
3 234 154 14
3 307 154 234
3 307 70 154
3 156 307 34
3 308 307 156
3 308 70 307
3 308 306 70
3 309 306 308
3 309 15 306
3 309 251 15
3 310 251 309
3 310 43 251
3 158 310 71
3 311 310 158
3 311 43 310
3 311 109 43
3 312 109 311
3 312 3 109
3 766 159 767
3 313 768 770
3 768 159 769
3 768 769 770
3 313 72 159
3 161 313 73
3 314 313 161
3 314 72 313
3 314 312 72
3 315 312 314
3 315 3 312
3 315 771 773
3 773 772 3
3 771 772 773
3 775 774 315
3 777 776 74
3 778 277 779
3 316 780 782
3 780 277 781
3 780 781 782
3 316 4 277
3 165 783 785
3 785 784 35
3 783 784 785
3 787 786 165
3 788 163 789
3 317 790 792
3 790 163 791
3 790 791 792
3 317 75 163
3 167 317 76
3 318 317 167
3 318 75 317
3 318 316 75
3 319 316 318
3 319 4 316
3 319 108 4
3 320 108 319
3 320 42 108
3 169 320 77
3 321 320 169
3 321 42 320
3 321 250 42
3 322 250 321
3 322 17 250
3 239 170 16
3 323 170 239
3 323 78 170
3 172 323 37
3 324 323 172
3 324 78 323
3 324 322 78
3 325 322 324
3 325 17 322
3 325 191 17
3 326 191 325
3 326 80 191
3 174 326 79
3 327 326 174
3 327 80 326
3 327 328 80
3 302 328 327
3 302 0 328
3 793 60 794
3 795 60 796
3 797 136 798
3 799 798 60
3 797 798 799
3 329 800 802
3 800 136 801
3 800 801 802
3 329 11 136
3 176 803 804
3 330 805 807
3 807 806 176
3 805 806 807
3 330 808 809
3 330 810 812
3 810 329 811
3 810 811 812
3 331 329 330
3 331 11 329
3 331 224 11
3 332 224 331
3 332 28 224
3 178 332 81
3 333 332 178
3 333 28 332
3 333 100 28
3 334 100 333
3 334 1 100
3 335 813 814
3 335 815 817
3 815 18 816
3 815 816 817
3 243 818 819
3 336 820 822
3 822 821 243
3 820 821 822
3 336 823 825
3 823 83 824
3 823 824 825
3 181 336 39
3 337 336 181
3 337 83 336
3 337 335 83
3 338 335 337
3 338 18 335
3 338 179 18
3 339 179 338
3 339 82 179
3 183 339 84
3 340 339 183
3 340 82 339
3 340 334 82
3 341 334 340
3 341 1 334
3 341 265 1
3 342 265 341
3 342 52 265
3 185 342 85
3 343 342 185
3 343 52 342
3 343 120 52
3 344 120 343
3 344 6 120
3 247 186 19
3 345 186 247
3 345 86 186
3 188 345 41
3 346 345 188
3 346 86 345
3 346 344 86
3 347 344 346
3 347 6 344
3 347 213 6
3 348 213 347
3 348 23 213
3 190 348 87
3 349 348 190
3 349 23 348
3 349 96 23
3 328 96 349
3 328 0 96
3 303 98 0
3 350 98 303
3 350 25 98
3 193 350 69
3 351 350 193
3 351 25 350
3 351 217 25
3 352 217 351
3 352 8 217
3 252 194 15
3 353 194 252
3 353 88 194
3 196 353 44
3 354 353 196
3 354 88 353
3 354 352 88
3 355 352 354
3 355 8 352
3 355 127 8
3 356 127 355
3 356 56 127
3 198 356 89
3 357 356 198
3 357 56 356
3 357 826 828
3 828 827 56
3 826 827 828
3 830 829 357
3 831 111 832
3 833 832 3
3 831 832 833
3 358 834 836
3 834 111 835
3 834 835 836
3 358 45 111
3 837 358 838
3 359 839 841
3 839 358 840
3 839 840 841
3 359 45 358
3 359 255 45
3 360 255 359
3 360 20 255
3 842 90 843
3 844 90 845
3 846 360 847
3 848 847 90
3 846 847 848
3 361 849 851
3 849 360 850
3 849 850 851
3 361 20 360
3 361 199 20
3 852 199 853
3 854 853 361
3 852 853 854
3 856 855 199
3 857 223 858
3 362 859 861
3 859 223 860
3 859 860 861
3 362 10 223
3 256 862 863
3 363 864 866
3 866 865 256
3 864 865 866
3 363 867 869
3 867 91 868
3 867 868 869
3 201 363 47
3 364 363 201
3 364 91 363
3 364 362 91
3 365 362 364
3 365 10 362
3 365 135 10
3 366 135 365
3 366 59 135
3 203 366 92
3 367 366 203
3 367 59 366
3 367 870 872
3 872 871 59
3 870 871 872
3 874 873 367
3 368 875 876
3 368 877 878
3 206 368 61
3 369 368 206
3 369 879 881
3 881 880 368
3 879 880 881
3 369 882 883
3 370 884 886
3 886 885 369
3 884 885 886
3 370 887 889
3 887 9 888
3 887 888 889
3 261 207 12
3 371 207 261
3 371 93 207
3 209 371 50
3 372 371 209
3 372 93 371
3 372 370 93
3 373 370 372
3 373 9 370
3 373 129 9
3 374 129 373
3 374 57 129
3 211 374 94
3 375 374 211
3 375 57 374
3 375 279 57
3 376 279 375
3 376 5 279
3 281 119 2
3 890 119 891
3 892 891 281
3 890 891 892
3 893 51 894
3 895 894 119
3 893 894 895
3 377 896 897
3 377 898 900
3 898 51 899
3 898 899 900
3 377 264 51
3 901 264 902
3 903 902 377
3 901 902 903
3 904 22 905
3 906 905 264
3 904 905 906
3 907 22 908
3 909 212 910
3 911 910 22
3 909 910 911
3 378 912 914
3 912 212 913
3 912 913 914
3 378 95 212
3 915 378 916
3 917 378 918
3 919 95 920
3 921 920 378
3 919 920 921
3 922 376 923
3 924 923 95
3 922 923 924
3 379 925 927
3 925 376 926
3 925 926 927
3 379 5 376
3 379 116 5
3 380 116 379
3 380 48 116
3 928 380 929
3 930 380 931
3 932 48 933
3 934 933 380
3 932 933 934
3 935 259 936
3 937 936 48
3 935 936 937
3 381 938 940
3 938 259 939
3 938 939 940
3 381 21 259
3 941 381 942
3 943 381 944
3 945 21 946
3 947 946 381
3 945 946 947
3 948 204 949
3 950 949 21
3 948 949 950
3 951 204 952
3 954 953 204
