ply
format ascii 1.0
element vertex 860
property float x
property float y
property float z
element face 800
property list uchar int vertex_index
end_header
30.848059 -41.658264 -9.10967
7.760425 -50.163292 8.412343
22.521866 -21.236002 -23.606716
35.303898 -31.479889 -23.724619
21.800423 -60.412544 24.010885
13.097193 -56.651051 20.474686
16.38953 -55.141212 13.335927
39.232666 -72.419868 29.746628
37.866383 -37.741016 -14.503969
10.394836 -47.42017 4.499756
38.611164 -67.317657 22.468658
21.771389 -31.010586 -12.697017
26.336267 -30.519119 -19.822819
32.634167 -24.48522 -22.581774
8.796482 -60.045727 22.290558
7.651498 -57.722557 15.034271
36.230042 -79.8424 32.22765
35.58773 -40.037453 -10.727536
11.272657 -53.743938 10.715123
19.02392 -56.441364 8.98061
13.481958 -53.742878 8.009295
15.543831 -51.416821 6.30381
9.041919 -48.863548 6.368543
40.10453 -59.618248 18.166599
42.333759 -75.251495 24.499722
39.620365 -70.298813 26.166559
41.810291 -72.7537 20.447453
25.623135 -24.025434 -19.182236
22.766232 -26.5767 -17.513321
23.364931 -25.837326 -22.574051
29.832621 -27.706776 -20.84918
26.771204 -24.121502 -26.025059
14.027849 -61.293129 24.412434
17.82089 -57.527264 22.904818
20.404465 -56.558216 19.025869
21.002569 -57.842937 14.198097
14.751999 -54.769653 17.602177
8.928433 -55.341347 12.760157
38.218868 -75.343849 34.570911
39.609516 -78.102699 28.17536
22.817862 -17.204058 -25.141388
37.349922 -34.952141 -19.242279
7.812427 -44.9258 10.486582
11.30185 -45.442802 2.832091
37.727783 -64.766342 18.05735
20.215361 -36.322536 -6.926482
18.910124 -34.361561 -10.071421
19.727774 -35.020332 -13.127113
24.365004 -36.112587 -13.867815
21.668087 -31.125286 -17.231981
30.358181 -35.397133 -14.312248
34.26062 -33.069283 -15.56447
36.83242 -29.733557 -17.985167
37.798668 -26.833172 -21.527674
33.499023 -40.893829 -9.652136
9.017256 -52.749573 8.633128
12.42085 -53.957813 9.397523
10.152719 -52.188629 7.728609
11.043007 -51.70591 6.680908
8.464163 -49.519753 7.408335
42.329197 -58.810448 17.623871
42.132946 -74.057152 22.852024
24.391701 -20.823765 -22.29372
23.359055 -22.324135 -21.146698
22.578047 -24.071692 -20.45006
22.631418 -23.410349 -23.083115
24.972897 -25.127897 -24.477964
23.57424 -22.606701 -25.227671
33.378731 -35.111992 -21.94408
33.306507 -33.237862 -23.921862
35.52021 -30.323895 -25.468588
9.200392 -62.540977 24.757515
11.024843 -58.031067 21.627832
13.172262 -58.482952 23.444157
15.356035 -56.894947 22.131811
19.637728 -56.902672 21.178404
16.930595 -55.839607 20.430971
17.683094 -55.348339 18.701828
14.034248 -55.461201 19.172167
8.445727 -56.621674 13.997396
6.221244 -56.244194 11.140276
7.030441 -54.839947 9.972349
37.204918 -76.395287 36.951996
37.714367 -79.46685 30.10586
23.083088 -15.274037 -26.287674
21.544506 -15.010015 -26.86842
37.014397 -40.309258 -15.469287
35.994179 -38.774654 -17.729876
37.92189 -36.377678 -16.88559
18.787113 -56.339638 14.007036
19.642458 -57.674583 11.401866
12.839496 -49.890213 5.006682
16.449591 -50.393578 5.125993
13.46418 -48.956169 3.946243
13.656782 -47.746845 2.849056
10.812885 -46.437302 3.653892
39.060333 -68.667526 24.552504
40.872608 -67.869019 26.645275
40.210815 -66.009399 24.883381
39.510933 -64.630547 22.657057
38.678928 -63.27116 20.4482
38.369457 -66.034195 20.224405
19.45644 -34.953773 -8.420074
20.394043 -32.625507 -11.25006
19.931393 -32.506569 -13.121668
21.871426 -35.703346 -13.696718
20.486279 -32.855869 -14.818213
22.701 -28.688541 -19.837299
21.773035 -28.630314 -17.442673
23.832029 -31.270086 -18.853672
25.360458 -33.369385 -16.858576
28.297947 -32.554794 -17.115026
32.527218 -34.436977 -14.810064
30.576294 -31.496098 -17.558384
31.342083 -26.155094 -21.642254
33.596119 -28.455566 -19.003071
34.742165 -26.671692 -19.893816
37.508316 -28.143169 -19.554127
35.668873 -24.951969 -21.052126
9.21224 -58.259239 18.936314
10.352776 -56.990765 17.971449
35.921906 -78.367691 36.017124
37.127464 -38.97456 -12.418284
23.508032 -60.833424 21.717461
13.792429 -54.442207 12.342566
17.262196 -56.436745 11.148818
14.781728 -55.354836 10.618611
16.057953 -55.168568 8.892954
17.355618 -54.123405 7.895642
18.729618 -52.954918 6.785901
14.528563 -52.543377 7.196072
11.917595 -50.810143 5.901734
9.728884 -48.192108 5.396641
44.736248 -57.616127 14.54772
40.68227 -74.209572 26.829519
39.984814 -71.527512 27.68565
40.727337 -72.973083 25.106031
40.191761 -71.519218 23.463604
39.806572 -70.106941 21.390491
39.511539 -68.907021 19.223068
41.267113 -71.695938 18.193066
24.014938 -25.044193 -18.134007
22.3328 -26.19895 -20.136641
24.601759 -28.270269 -21.684032
28.227427 -29.239222 -20.356339
26.464886 -27.481796 -22.97909
28.311014 -26.217514 -23.984985
29.842236 -24.699022 -24.84646
17.887697 -59.783897 24.693729
11.213771 -60.59214 24.265917
15.836719 -59.206337 23.909367
20.139042 -58.553223 23.577772
22.109928 -58.211987 21.737633
22.988548 -58.505684 19.246841
22.924305 -59.00832 16.53396
20.840277 -56.8843 16.774393
18.312412 -55.414318 16.466068
15.510565 -54.479042 15.513718
11.076328 -55.881844 16.947151
11.643618 -54.833153 15.60712
12.544168 -54.070961 14.043289
9.902411 -54.231853 11.726377
7.927279 -53.615074 9.215248
7.120302 -50.898052 9.412683
38.706287 -73.849319 32.171951
37.14753 -77.864273 33.719997
37.712292 -76.676239 30.908655
39.08268 -75.440651 28.589722
41.519264 -76.620247 26.390091
25.361935 -19.591112 -23.693548
22.569609 -19.169537 -24.303408
22.526281 -20.031132 -25.813156
21.935505 -17.566925 -26.186594
34.600712 -37.093258 -19.973291
36.273186 -33.336845 -21.521688
28.244068 -41.986233 -8.958269
13.187021 -42.222893 4.018456
8.59878 -48.239365 10.929898
8.134946 -45.676929 11.903818
9.114322 -47.579201 9.770806
9.445632 -46.968269 8.665296
9.823265 -46.304104 7.585251
10.239431 -45.643745 6.630769
10.786875 -44.923298 5.757866
11.473431 -44.129955 5.045249
12.160226 -43.164146 4.408278
11.71806 -44.200016 2.145194
40.494377 -61.148872 20.490177
38.249977 -61.822327 18.378456
21.112867 -38.119637 -5.461558
19.024134 -37.362755 -11.547037
21.354513 -33.694252 -9.786921
18.792997 -34.425678 -11.793041
20.913517 -38.169132 -11.818542
23.238565 -38.756683 -11.369137
25.598934 -39.078075 -11.212531
28.183685 -39.148312 -11.319459
24.550653 -27.958126 -15.46933
22.474552 -28.955593 -14.950251
20.858795 -30.692011 -14.964447
22.514816 -33.542889 -16.283134
27.315701 -36.023815 -14.049716
31.229061 -38.58955 -11.577894
33.54137 -37.672089 -12.015864
35.511513 -36.438831 -12.968059
36.941917 -35.137493 -14.452649
32.225513 -30.091587 -18.250637
35.719643 -31.518091 -16.593576
37.904903 -33.635605 -16.341166
38.232258 -32.182533 -18.406071
38.001167 -30.716267 -20.7181
37.213306 -29.34399 -23.058325
31.864589 -42.803818 -8.379064
30.249405 -43.083023 -8.188738
32.173541 -41.276046 -9.380903
33.190071 -42.4216 -8.650297
31.864589 -42.803818 -8.379064
7.044485 -62.663839 24.117142
8.095745 -63.324131 25.010686
5.845833 -55.146339 11.919493
5.853783 -56.774313 11.879448
6.006492 -54.735787 11.196576
5.845833 -55.146339 11.919493
36.549398 -76.297081 37.961366
37.462711 -75.313831 38.386252
23.381916 -14.473716 -26.931629
25.082951 -16.11088 -26.42935
22.283683 -13.982733 -26.898943
23.381916 -14.473716 -26.931629
37.44039 -39.025137 -14.986628
37.169348 -40.970202 -14.209691
37.595341 -39.686081 -13.727032
22.095914 -61.907449 23.909867
20.69293 -60.434715 24.966395
40.286822 -71.451046 30.064306
40.131378 -72.205509 31.13702
20.851391 -31.758578 -12.909343
21.615982 -32.51278 -12.213369
22.53598 -31.764788 -12.001044
7.280266 -58.886086 18.101914
8.171337 -59.089188 19.270497
7.926971 -58.52907 17.479462
7.280266 -58.886086 18.101914
36.153256 -41.329315 -10.680225
35.376167 -41.695257 -9.772967
36.357597 -39.506006 -11.57291
36.923123 -40.797869 -11.525599
36.153256 -41.329315 -10.680225
23.799912 -62.848307 19.727256
23.896397 -61.08675 20.352618
44.75853 -58.133238 15.749512
46.097185 -58.100209 15.497121
43.496105 -57.752177 14.743403
44.75853 -58.133238 15.749512
40.129964 -59.183487 16.781067
41.242298 -58.779587 16.509702
41.216864 -59.214348 17.895235
39.261074 -60.083374 16.90514
40.129964 -59.183487 16.781067
27.767415 -24.954828 -19.23214
26.380542 -23.565669 -19.930557
26.851998 -25.350885 -18.599564
27.767415 -24.954828 -19.23214
24.819037 -24.534813 -18.658122
26.047899 -25.860264 -18.075449
26.851998 -25.350885 -18.599564
14.8218 -61.249403 25.085415
12.847319 -62.194508 24.993039
15.957773 -60.538513 24.553082
16.751724 -60.494787 25.226063
14.8218 -61.249403 25.085415
10.005126 -60.318933 23.278238
8.994241 -61.338636 23.466997
7.785596 -61.06543 22.479318
7.197875 -52.770378 9.760743
7.47886 -54.227511 9.593799
6.749455 -53.382815 10.139294
6.794386 -51.411867 9.859461
7.523791 -52.256563 9.313966
7.197875 -52.770378 9.760743
39.454399 -74.29665 34.680231
38.636437 -74.519375 35.850921
38.462578 -74.596584 33.371431
39.698109 -73.549385 33.480751
39.454399 -74.29665 34.680231
24.089899 -18.397585 -24.417468
25.784765 -18.933284 -24.434001
24.512729 -17.739756 -25.157921
21.758974 -15.434064 -27.582562
21.410578 -14.165948 -27.786052
26.963436 -42.006932 -8.962833
27.523277 -43.463721 -8.137733
13.676141 -41.012988 4.227689
12.648858 -41.101536 4.486574
8.620796 -47.332211 12.122474
8.271755 -48.534748 11.479271
7.973686 -45.301365 11.1952
6.453027 -44.793729 11.72877
6.291768 -44.418165 11.020153
8.981517 -44.832249 7.786378
8.818091 -45.227768 8.384734
9.1896 -44.50207 7.309138
10.031348 -45.973925 7.10801
8.981517 -44.832249 7.786378
10.285365 -43.348417 5.988071
9.82967 -43.758989 6.382187
10.628642 -42.951746 5.631762
11.130153 -44.526627 5.401558
10.285365 -43.348417 5.988071
12.135461 -41.572163 4.681485
11.506653 -42.065037 4.980806
12.648858 -41.101536 4.486574
12.673623 -42.69352 4.213367
12.135461 -41.572163 4.681485
21.774614 -59.526906 12.633527
21.834781 -58.913559 14.045081
20.1389 -57.282709 8.92725
19.258038 -57.2804 10.011354
18.143058 -56.439054 10.064714
17.633826 -51.698645 6.009992
19.22672 -52.467693 6.251037
17.136724 -52.185869 6.544856
18.312828 -50.697182 4.806404
16.686083 -49.891394 4.458171
12.507883 -45.952613 2.242308
13.685349 -47.104635 2.25079
12.479316 -46.594824 2.840574
11.509955 -44.821409 2.488643
12.715988 -45.331221 1.898859
12.507883 -45.952613 2.242308
40.484503 -69.818245 27.267936
40.666727 -70.432594 28.027482
39.802589 -70.913162 26.926105
42.28793 -68.045361 26.953186
42.000611 -67.215813 26.075623
40.951875 -62.026336 21.298409
41.998274 -61.329273 21.134625
37.635971 -64.118786 16.850305
37.897068 -62.646778 17.010858
37.98888 -63.294334 18.217903
39.269981 -68.425992 18.280297
40.16857 -69.774685 17.820982
20.664114 -37.221086 -6.19402
22.761018 -39.007835 -5.62667
22.312265 -38.109285 -6.359132
19.054775 -36.395992 -7.068337
19.503529 -37.294542 -6.335875
20.664114 -37.221086 -6.19402
19.044249 -36.254312 -7.933003
19.054775 -36.395992 -7.068337
18.434666 -35.450316 -10.267429
18.707825 -35.746421 -9.441755
19.183282 -34.657667 -9.245748
18.967129 -35.862158 -10.809229
18.491672 -36.950913 -11.005237
18.434666 -35.450316 -10.267429
23.07114 -34.224404 -10.040662
23.690697 -35.347501 -9.47389
23.658442 -27.267413 -16.491326
25.462854 -27.614439 -16.034705
24.570643 -26.923726 -17.0567
23.752119 -20.731004 -26.553774
22.909708 -19.345672 -26.909844
34.331813 -42.123446 -9.235267
33.190071 -42.4216 -8.650297
34.543377 -40.465641 -10.189836
35.376167 -41.695257 -9.772967
34.331813 -42.123446 -9.235267
43.899936 -59.329391 18.252347
43.555004 -58.730398 17.287587
42.61579 -59.413147 18.728006
43.899936 -59.329391 18.252347
41.503456 -59.817047 18.999371
41.216864 -59.214348 17.895235
42.61579 -59.413147 18.728006
42.575947 -75.192372 22.479206
42.233352 -74.654324 23.675873
42.676354 -75.789543 23.303055
42.806755 -74.540295 21.289783
42.575947 -75.192372 22.479206
42.645427 -73.888569 20.087498
41.971618 -73.405426 21.649738
42.806755 -74.540295 21.289783
42.701944 -73.413441 19.012805
42.645427 -73.888569 20.087498
25.764825 -21.964835 -21.4863
26.439421 -21.489677 -22.231075
25.248502 -22.715019 -20.912788
25.764825 -21.964835 -21.4863
23.875378 -21.57395 -21.720209
24.491095 -23.174785 -20.164467
26.380542 -23.565669 -19.930557
25.248502 -22.715019 -20.912788
32.307326 -35.834554 -21.995235
32.552904 -36.810655 -20.986708
32.271214 -34.897489 -22.984127
32.307326 -35.834554 -21.995235
33.342619 -34.174927 -22.932971
32.765824 -34.417286 -23.773541
32.271214 -34.897489 -22.984127
33.929072 -32.968682 -24.518248
32.765824 -34.417286 -23.773541
35.035923 -31.511698 -25.291611
33.929072 -32.968682 -24.518248
34.413359 -31.780879 -24.695225
36.389166 -30.107303 -25.718535
35.035923 -31.511698 -25.291611
10.43359 -62.818432 25.165579
8.095745 -63.324131 25.010686
11.614121 -61.917053 24.584975
12.847319 -62.194508 24.993039
10.43359 -62.818432 25.165579
6.966024 -56.963053 13.308008
8.048613 -57.172116 14.515833
6.56891 -57.513495 13.826446
7.333486 -56.432934 12.568836
6.966024 -56.963053 13.308008
5.853783 -56.774313 11.879448
6.41109 -54.033663 10.612613
6.625843 -55.542071 10.556313
6.006492 -54.735787 11.196576
6.749455 -53.382815 10.139294
6.41109 -54.033663 10.612613
38.129461 -75.045094 37.041464
37.462711 -75.313831 38.386252
37.711893 -75.869568 35.761454
38.636437 -74.519375 35.850921
38.129461 -75.045094 37.041464
37.412987 -80.353931 29.687671
36.972205 -79.654625 31.166755
36.670824 -80.541707 30.748566
38.396913 -80.045002 28.808446
37.412987 -80.353931 29.687671
39.344488 -79.362927 27.843196
38.661941 -78.784774 29.14061
38.396913 -80.045002 28.808446
40.302871 -78.482456 26.923892
39.344488 -79.362927 27.843196
24.645342 -16.774746 -25.731064
25.082951 -16.11088 -26.42935
22.950475 -16.239047 -25.714531
24.512729 -17.739756 -25.157921
24.645342 -16.774746 -25.731064
21.514392 -13.850721 -27.189316
22.313797 -15.142026 -26.578047
22.283683 -13.982733 -26.898943
21.410578 -14.165948 -27.786052
21.514392 -13.850721 -27.189316
36.521342 -42.243773 -14.508032
37.169348 -40.970202 -14.209691
35.895691 -41.448397 -15.695975
36.521342 -42.243773 -14.508032
36.504288 -39.541956 -16.599581
35.385582 -40.681095 -16.82627
35.895691 -41.448397 -15.695975
6.106588 -43.993949 10.070732
6.291768 -44.418165 11.020153
7.812672 -44.538616 9.8354
6.106588 -43.993949 10.070732
20.123421 -57.808357 12.644889
21.231148 -58.560007 12.74042
19.894841 -57.091287 14.102567
20.551093 -58.47583 11.342304
20.123421 -57.808357 12.644889
19.214786 -57.00711 12.704451
21.163038 -58.883598 10.070875
20.551093 -58.47583 11.342304
20.991252 -57.172562 8.307148
19.805487 -56.079599 8.33782
15.193378 -49.17269 3.868296
16.686083 -49.891394 4.458171
14.956886 -49.674874 4.536118
13.560481 -48.351507 3.397649
15.289678 -48.568027 3.319703
15.193378 -49.17269 3.868296
41.669714 -66.286003 25.194676
42.000611 -67.215813 26.075623
40.541711 -66.939209 25.764328
41.185623 -65.314827 24.339567
41.669714 -66.286003 25.194676
40.835682 -64.625401 23.226405
41.185623 -65.314827 24.339567
39.860874 -65.319973 23.770219
40.460154 -63.767174 22.381848
40.835682 -64.625401 23.226405
39.094931 -63.950854 21.552628
40.044151 -63.08748 21.27742
40.460154 -63.767174 22.381848
21.857644 -36.986485 -7.119437
22.312265 -38.109285 -6.359132
21.478184 -36.302103 -7.866233
19.835901 -35.638154 -7.673278
21.857644 -36.986485 -7.119437
20.916432 -35.186647 -8.457769
21.478184 -36.302103 -7.866233
20.643275 -34.890541 -9.283442
19.183282 -34.657667 -9.245748
20.916432 -35.186647 -8.457769
21.847307 -32.572249 -11.277565
22.590905 -33.690031 -10.772232
20.162718 -32.566038 -12.185864
21.847307 -32.572249 -11.277565
21.615982 -32.51278 -12.213369
6.898336 -60.635183 21.314234
7.785596 -61.06543 22.479318
7.963458 -59.982432 20.947619
6.898336 -60.635183 21.314234
9.077639 -58.975102 20.616256
9.910663 -59.038397 21.959195
7.963458 -59.982432 20.947619
10.118541 -58.145153 20.282073
9.077639 -58.975102 20.616256
8.171337 -59.089188 19.270497
8.497239 -57.894833 16.99703
9.782508 -57.625002 18.453882
7.926971 -58.52907 17.479462
7.1466 -58.260729 15.528441
9.002137 -57.356661 16.50286
8.497239 -57.894833 16.99703
6.223072 -57.711037 14.679237
7.1466 -58.260729 15.528441
6.56891 -57.513495 13.826446
6.223072 -57.711037 14.679237
35.345779 -77.500111 36.625679
35.907893 -77.283283 37.493931
35.450943 -78.466457 34.876154
35.345779 -77.500111 36.625679
35.605011 -79.203812 32.981417
36.075974 -79.105045 34.122387
35.450943 -78.466457 34.876154
35.918259 -79.894215 31.252379
35.605011 -79.203812 32.981417
36.670824 -80.541707 30.748566
35.918259 -79.894215 31.252379
37.225881 -40.302853 -12.68419
36.923123 -40.797869 -11.525599
37.496924 -38.357788 -13.461126
37.595341 -39.686081 -13.727032
37.225881 -40.302853 -12.68419
23.574942 -62.573908 21.309626
22.721137 -62.363468 22.456338
22.654227 -60.622984 22.864173
23.574942 -62.573908 21.309626
23.799912 -62.848307 19.727256
18.322504 -55.443201 8.293992
19.805487 -56.079599 8.33782
17.540937 -55.804966 8.936782
18.971336 -54.92062 7.795336
18.322504 -55.443201 8.293992
16.706786 -54.645986 8.394298
19.634492 -54.491289 7.391465
18.971336 -54.92062 7.795336
18.042618 -53.539161 7.340771
20.321492 -53.907045 6.836595
19.634492 -54.491289 7.391465
46.042298 -57.532179 14.531883
46.097185 -58.100209 15.497121
45.097681 -57.326828 13.317285
46.042298 -57.532179 14.531883
43.892 -57.539574 13.303705
45.097681 -57.326828 13.317285
43.892 -57.539574 13.303705
43.496105 -57.752177 14.743403
42.29258 -58.349337 16.281479
43.555004 -58.730398 17.287587
42.29258 -58.349337 16.281479
41.242298 -58.779587 16.509702
41.046357 -71.169143 17.305981
40.16857 -69.774685 17.820982
40.389326 -70.301479 18.708067
42.430355 -72.884559 17.885611
41.538702 -72.224819 19.320259
42.701944 -73.413441 19.012805
42.168221 -72.371395 17.016876
42.430355 -72.884559 17.885611
41.046357 -71.169143 17.305981
42.168221 -72.371395 17.016876
24.057711 -32.192589 -12.447465
22.53598 -31.764788 -12.001044
25.194997 -26.157473 -17.367044
26.047899 -25.860264 -18.075449
23.390585 -25.810446 -17.823664
24.570643 -26.923726 -17.0567
25.194997 -26.157473 -17.367044
18.736567 -60.120391 25.307817
16.751724 -60.494787 25.226063
19.84406 -60.09822 24.352307
20.69293 -60.434715 24.966395
18.736567 -60.120391 25.307817
7.987552 -62.313055 23.712796
7.044485 -62.663839 24.117142
10.207082 -61.566558 24.511716
7.987552 -62.313055 23.712796
8.994241 -61.338636 23.466997
23.197344 -59.776032 20.362704
23.896397 -61.08675 20.352618
22.80898 -59.522706 21.727547
23.636654 -59.92288 19.117308
23.197344 -59.776032 20.362704
22.549238 -58.358835 20.492237
23.522013 -60.178135 17.653804
23.636654 -59.92288 19.117308
23.489891 -60.429453 16.297364
23.522013 -60.178135 17.653804
22.956426 -58.757002 17.8904
23.091902 -60.733897 14.885375
23.489891 -60.429453 16.297364
22.795648 -59.49625 15.213013
23.091902 -60.733897 14.885375
21.753635 -58.43424 15.333229
22.795648 -59.49625 15.213013
21.882291 -57.94631 16.654176
20.921423 -57.363619 15.486245
21.834781 -58.913559 14.045081
21.753635 -58.43424 15.333229
39.868189 -72.920234 32.349682
39.698109 -73.549385 33.480751
38.969476 -73.134593 30.95929
40.131378 -72.205509 31.13702
39.868189 -72.920234 32.349682
36.563412 -77.381489 36.48456
36.549398 -76.297081 37.961366
35.907893 -77.283283 37.493931
41.257745 -77.74123 26.031258
40.56439 -77.361473 27.282726
40.302871 -78.482456 26.923892
42.005768 -77.132351 24.983682
41.257745 -77.74123 26.031258
42.413015 -76.447975 24.038497
41.926512 -75.935871 25.444907
42.005768 -77.132351 24.983682
42.676354 -75.789543 23.303055
42.413015 -76.447975 24.038497
27.585243 -20.32009 -23.583954
25.784765 -18.933284 -24.434001
26.924538 -20.873351 -22.930989
27.585243 -20.32009 -23.583954
24.876818 -20.207439 -22.993634
26.439421 -21.489677 -22.231075
26.924538 -20.873351 -22.930989
22.61432 -18.113569 -27.096562
22.909708 -19.345672 -26.909844
22.230893 -18.799028 -25.999875
21.954473 -16.712519 -27.241649
21.740005 -16.28847 -26.527507
21.758974 -15.434064 -27.582562
22.61432 -18.113569 -27.096562
21.954473 -16.712519 -27.241649
34.514887 -39.750873 -17.907409
35.385582 -40.681095 -16.82627
33.818154 -38.910176 -19.029117
34.514887 -39.750873 -17.907409
35.297446 -37.933956 -18.851584
33.163894 -37.801288 -20.001314
33.818154 -38.910176 -19.029117
33.989722 -36.102625 -20.958686
32.552904 -36.810655 -20.986708
33.163894 -37.801288 -20.001314
28.947409 -43.247007 -8.113038
27.523277 -43.463721 -8.137733
29.546063 -41.822249 -9.033969
30.249405 -43.083023 -8.188738
28.947409 -43.247007 -8.113038
13.92004 -42.008861 3.595902
12.876254 -42.585121 2.902729
13.92004 -42.008861 3.595902
13.676141 -41.012988 4.227689
7.532516 -49.864092 10.720664
6.794386 -51.411867 9.859461
7.859541 -49.568708 10.17129
7.532516 -49.864092 10.720664
8.271755 -48.534748 11.479271
6.73507 -45.085714 12.697742
6.453027 -44.793729 11.72877
8.388879 -46.050992 12.609434
6.73507 -45.085714 12.697742
8.366863 -46.958147 11.416858
8.620796 -47.332211 12.122474
8.388879 -46.050992 12.609434
8.629274 -45.55985 8.924757
8.629029 -45.947035 9.575939
7.812672 -44.538616 9.8354
9.634448 -46.636187 8.125274
8.629274 -45.55985 8.924757
8.818091 -45.227768 8.384734
9.555948 -44.119213 6.818639
9.1896 -44.50207 7.309138
10.513153 -45.283522 6.194318
9.555948 -44.119213 6.818639
9.82967 -43.758989 6.382187
11.163255 -42.547941 5.299291
10.628642 -42.951746 5.631762
11.816828 -43.647051 4.726764
11.163255 -42.547941 5.299291
11.506653 -42.065037 4.980806
12.876254 -42.585121 2.902729
12.141774 -43.573683 1.966098
12.45254 -43.211455 3.081825
22.095914 -61.907449 23.909867
22.721137 -62.363468 22.456338
21.774614 -59.526906 12.633527
21.231148 -58.560007 12.74042
20.448169 -57.899318 10.137878
18.452327 -57.055664 11.275342
19.258038 -57.2804 10.011354
21.163038 -58.883598 10.070875
20.448169 -57.899318 10.137878
20.1389 -57.282709 8.92725
20.991252 -57.172562 8.307148
20.862998 -53.485149 6.36386
20.321492 -53.907045 6.836595
20.862998 -53.485149 6.36386
19.22672 -52.467693 6.251037
18.086706 -51.187023 5.421083
17.633826 -51.698645 6.009992
15.996711 -50.905199 5.714901
18.086706 -51.187023 5.421083
18.312828 -50.697182 4.806404
15.293698 -48.024244 2.585504
15.289678 -48.568027 3.319703
15.293698 -48.024244 2.585504
13.685349 -47.104635 2.25079
12.516664 -44.568716 1.334531
12.715988 -45.331221 1.898859
12.141774 -43.573683 1.966098
12.516664 -44.568716 1.334531
40.662896 -71.004868 29.033817
40.286822 -71.451046 30.064306
39.60874 -71.97369 28.716139
40.662896 -71.004868 29.033817
40.666727 -70.432594 28.027482
41.110624 -68.603348 27.507295
40.484503 -69.818245 27.267936
40.246487 -69.083916 26.405917
41.110624 -68.603348 27.507295
42.28793 -68.045361 26.953186
41.69838 -60.582359 20.16116
41.998274 -61.329273 21.134625
40.299453 -60.38356 19.328388
41.503456 -59.817047 18.999371
41.69838 -60.582359 20.16116
39.586652 -62.210016 20.469189
40.951875 -62.026336 21.298409
40.044151 -63.08748 21.27742
38.333798 -61.185413 17.011068
39.261074 -60.083374 16.90514
39.177253 -60.720287 18.272528
38.333798 -61.185413 17.011068
37.897068 -62.646778 17.010858
38.69894 -66.989578 18.780966
38.940498 -67.470608 19.723737
39.269981 -68.425992 18.280297
38.378103 -66.355652 17.697438
38.04862 -65.400268 19.140878
38.69894 -66.989578 18.780966
38.150238 -65.667614 16.695874
38.378103 -66.355652 17.697438
37.635971 -64.118786 16.850305
38.150238 -65.667614 16.695874
22.892388 -39.660105 -4.571801
22.761018 -39.007835 -5.62667
21.427011 -39.005054 -4.680289
22.892388 -39.660105 -4.571801
19.533085 -37.708839 -5.579732
21.427011 -39.005054 -4.680289
19.533085 -37.708839 -5.579732
19.503529 -37.294542 -6.335875
18.664789 -35.569931 -8.679799
19.044249 -36.254312 -7.933003
19.835901 -35.638154 -7.673278
18.664789 -35.569931 -8.679799
18.707825 -35.746421 -9.441755
19.348055 -39.132885 -10.939115
18.491672 -36.950913 -11.005237
20.243782 -39.523465 -10.843254
19.348055 -39.132885 -10.939115
21.865469 -34.556887 -9.141192
23.690697 -35.347501 -9.47389
20.132319 -34.027907 -9.929171
20.643275 -34.890541 -9.283442
21.865469 -34.556887 -9.141192
20.874278 -33.15988 -10.51849
23.07114 -34.224404 -10.040662
22.590905 -33.690031 -10.772232
21.188474 -39.926653 -10.979007
20.243782 -39.523465 -10.843254
19.968826 -37.765943 -11.68279
22.147944 -40.093736 -10.608798
21.188474 -39.926653 -10.979007
23.310468 -40.387512 -10.384096
22.147944 -40.093736 -10.608798
22.076041 -38.462908 -11.59384
24.460684 -40.392156 -10.168267
23.310468 -40.387512 -10.384096
25.640869 -40.552853 -10.089965
24.460684 -40.392156 -10.168267
24.41875 -38.917379 -11.290834
26.921501 -40.532154 -10.0854
26.963436 -42.006932 -8.962833
25.640869 -40.552853 -10.089965
23.084899 -30.833923 -12.950883
24.057711 -32.192589 -12.447465
26.664957 -29.10686 -15.609376
25.462854 -27.614439 -16.034705
25.601168 -29.268626 -14.967691
26.664957 -29.10686 -15.609376
24.563117 -29.767359 -14.708151
25.601168 -29.268626 -14.967691
23.512602 -28.45686 -15.209791
23.436481 -29.806427 -14.0775
24.563117 -29.767359 -14.708151
22.628602 -30.674636 -14.084598
23.436481 -29.806427 -14.0775
21.666674 -29.823802 -14.957349
21.315092 -30.851298 -13.830732
23.084899 -30.833923 -12.950883
22.628602 -30.674636 -14.084598
24.276098 -22.018788 -26.261032
23.050261 -21.318917 -25.520414
23.752119 -20.731004 -26.553774
25.874581 -22.776189 -26.659726
25.172722 -23.364102 -25.626365
24.276098 -22.018788 -26.261032
27.640618 -23.461533 -26.661338
25.874581 -22.776189 -26.659726
29.176133 -23.750293 -26.072038
28.30672 -24.410262 -25.435759
27.640618 -23.461533 -26.661338
30.546436 -23.811219 -25.334006
29.176133 -23.750293 -26.072038
31.942402 -23.704318 -24.201663
31.238201 -24.592121 -23.714117
30.546436 -23.811219 -25.334006
33.213751 -23.505997 -23.092018
31.942402 -23.704318 -24.201663
34.731104 -23.739372 -22.327194
34.15152 -24.718595 -21.81695
33.213751 -23.505997 -23.092018
36.168411 -24.16482 -21.855066
34.731104 -23.739372 -22.327194
37.233309 -25.105421 -22.09284
36.73377 -25.89257 -21.2899
36.168411 -24.16482 -21.855066
37.778755 -26.322549 -22.754885
37.233309 -25.105421 -22.09284
37.486074 -27.577958 -23.52021
37.505987 -28.088581 -22.293
37.778755 -26.322549 -22.754885
36.97222 -28.800775 -24.210441
37.486074 -27.577958 -23.52021
36.017516 -29.868724 -24.543588
36.258602 -30.41194 -23.391472
36.97222 -28.800775 -24.210441
36.125671 -29.290727 -25.415572
35.412054 -30.901892 -24.596604
36.017516 -29.868724 -24.543588
36.691154 -28.825397 -26.06479
36.125671 -29.290727 -25.415572
36.389166 -30.107303 -25.718535
36.691154 -28.825397 -26.06479
3 0 212 213
3 0 214 216
3 214 54 215
3 214 215 216
3 1 57 55
3 1 59 57
3 2 63 62
3 2 65 63
3 2 67 65
3 3 69 68
3 3 70 69
3 217 71 218
3 5 74 72
3 5 76 74
3 5 78 76
3 219 80 220
3 222 221 80
3 223 82 224
3 225 84 226
3 228 227 84
3 8 229 231
3 229 86 230
3 229 230 231
3 8 88 86
3 4 232 233
3 6 90 89
3 9 93 91
3 9 95 93
3 7 234 235
3 10 98 96
3 10 99 98
3 10 101 99
3 11 236 238
3 236 104 237
3 236 237 238
3 11 106 104
3 12 109 107
3 12 111 109
3 12 113 111
3 13 116 114
3 13 118 116
3 239 119 240
3 242 241 119
3 17 243 244
3 17 245 247
3 245 122 246
3 245 246 247
3 249 248 123
3 18 126 124
3 20 127 56
3 20 128 127
3 20 130 128
3 22 131 58
3 22 132 131
3 250 133 251
3 253 252 133
3 23 254 256
3 256 255 60
3 254 255 256
3 23 257 258
3 24 136 134
3 26 137 61
3 26 138 137
3 26 140 138
3 27 259 260
3 27 261 262
3 27 263 265
3 263 141 264
3 263 264 265
3 29 142 64
3 29 143 142
3 29 145 143
3 31 146 66
3 31 147 146
3 32 266 267
3 32 268 270
3 268 148 269
3 268 269 270
3 14 271 273
3 271 149 272
3 271 272 273
3 33 150 73
3 33 151 150
3 33 152 151
3 34 153 75
3 34 154 153
3 34 155 154
3 36 156 77
3 36 157 156
3 15 158 120
3 37 159 79
3 37 160 159
3 37 161 160
3 274 162 275
3 276 275 81
3 274 275 276
3 277 163 278
3 279 278 162
3 277 278 279
3 38 280 281
3 38 282 284
3 282 164 283
3 282 283 284
3 16 165 121
3 39 166 83
3 39 167 166
3 39 168 167
3 40 285 287
3 285 169 286
3 285 286 287
3 40 170 169
3 40 172 170
3 289 288 85
3 41 173 87
3 41 174 173
3 290 175 291
3 293 292 176
3 294 177 295
3 42 296 298
3 296 178 297
3 296 297 298
3 42 179 178
3 42 180 179
3 299 181 300
3 301 182 302
3 303 302 181
3 301 302 303
3 304 183 305
3 306 184 307
3 308 307 183
3 306 307 308
3 309 185 310
3 311 176 312
3 313 312 185
3 311 312 313
3 35 314 315
3 19 316 318
3 318 317 125
3 316 317 318
3 21 319 321
3 321 320 129
3 319 320 321
3 323 322 92
3 43 324 326
3 326 325 94
3 324 325 326
3 43 327 329
3 327 186 328
3 327 328 329
3 25 330 332
3 332 331 135
3 330 331 332
3 334 333 97
3 335 187 336
3 44 188 100
3 44 337 339
3 339 338 188
3 337 338 339
3 341 340 139
3 45 342 344
3 342 189 343
3 342 343 344
3 45 345 347
3 347 346 189
3 345 346 347
3 45 348 349
3 46 350 352
3 352 351 102
3 350 351 352
3 46 353 355
3 353 190 354
3 353 354 355
3 356 191 357
3 47 192 103
3 47 193 192
3 47 194 193
3 48 195 105
3 48 196 195
3 28 358 360
3 358 197 359
3 358 359 360
3 49 198 108
3 49 199 198
3 49 200 199
3 50 201 110
3 50 202 201
3 50 203 202
3 51 204 112
3 51 205 204
3 30 206 144
3 52 207 115
3 52 208 207
3 52 209 208
3 53 210 117
3 53 211 210
3 362 361 171
3 54 363 364
3 54 365 367
3 365 17 366
3 365 366 367
3 55 56 18
3 57 56 55
3 57 20 56
3 57 58 20
3 59 58 57
3 59 22 58
3 368 60 369
3 370 60 371
3 372 23 373
3 374 373 60
3 372 373 374
3 375 61 376
3 377 376 24
3 375 376 377
3 378 61 379
3 380 26 381
3 382 381 61
3 380 381 382
3 384 383 26
3 62 385 386
3 63 387 389
3 389 388 62
3 387 388 389
3 63 390 392
3 390 27 391
3 390 391 392
3 63 64 27
3 65 64 63
3 65 29 64
3 65 66 29
3 67 66 65
3 67 31 66
3 68 393 394
3 69 395 397
3 397 396 68
3 395 396 397
3 69 398 399
3 69 400 401
3 70 402 404
3 404 403 69
3 402 403 404
3 70 405 406
3 71 407 408
3 71 409 411
3 409 32 410
3 409 410 411
3 72 73 14
3 74 73 72
3 74 33 73
3 74 75 33
3 76 75 74
3 76 34 75
3 76 77 34
3 78 77 76
3 78 36 77
3 412 79 413
3 414 413 15
3 412 413 414
3 80 415 417
3 415 79 416
3 415 416 417
3 80 37 79
3 80 81 37
3 418 81 419
3 420 419 80
3 418 419 420
3 422 421 81
3 82 423 424
3 82 425 427
3 425 38 426
3 425 426 427
3 428 83 429
3 430 429 16
3 428 429 430
3 431 83 432
3 433 39 434
3 435 434 83
3 433 434 435
3 437 436 39
3 84 438 439
3 84 440 442
3 440 40 441
3 440 441 442
3 84 85 40
3 443 85 444
3 445 444 84
3 443 444 445
3 447 446 85
3 86 448 449
3 86 450 451
3 86 452 454
3 452 87 453
3 452 453 454
3 88 87 86
3 88 41 87
3 455 42 456
3 458 457 42
3 89 459 461
3 461 460 35
3 459 460 461
3 90 462 464
3 464 463 89
3 462 463 464
3 90 465 466
3 468 467 19
3 91 92 21
3 93 92 91
3 93 469 471
3 471 470 92
3 469 470 471
3 93 472 474
3 472 94 473
3 472 473 474
3 95 94 93
3 95 43 94
3 96 97 25
3 98 97 96
3 98 475 477
3 477 476 97
3 475 476 477
3 98 478 479
3 99 480 482
3 482 481 98
3 480 481 482
3 99 483 484
3 99 485 487
3 485 100 486
3 485 486 487
3 101 100 99
3 101 44 100
3 488 45 489
3 490 102 491
3 492 491 45
3 490 491 492
3 493 102 494
3 495 46 496
3 497 496 102
3 495 496 497
3 498 103 499
3 104 500 502
3 500 103 501
3 500 501 502
3 104 47 103
3 104 105 47
3 106 105 104
3 106 48 105
3 107 108 28
3 109 108 107
3 109 49 108
3 109 110 49
3 111 110 109
3 111 50 110
3 111 112 50
3 113 112 111
3 113 51 112
3 114 115 30
3 116 115 114
3 116 52 115
3 116 117 52
3 118 117 116
3 118 53 117
3 503 14 504
3 505 14 506
3 507 72 508
3 509 508 14
3 507 508 509
3 119 510 512
3 510 72 511
3 510 511 512
3 119 5 72
3 119 120 5
3 513 120 514
3 515 514 119
3 513 514 515
3 516 15 517
3 518 517 120
3 516 517 518
3 519 15 520
3 522 521 15
3 523 121 524
3 525 121 526
3 527 16 528
3 529 528 121
3 527 528 529
3 530 16 531
3 533 532 16
3 122 534 535
3 122 536 538
3 536 8 537
3 536 537 538
3 123 539 541
3 541 540 4
3 539 540 541
3 543 542 123
3 124 125 6
3 126 125 124
3 126 19 125
3 56 126 18
3 127 126 56
3 127 19 126
3 127 544 546
3 546 545 19
3 544 545 546
3 128 547 549
3 549 548 127
3 547 548 549
3 128 550 551
3 128 552 554
3 552 129 553
3 552 553 554
3 130 129 128
3 130 21 129
3 58 130 20
3 131 130 58
3 131 21 130
3 131 91 21
3 132 91 131
3 132 9 91
3 133 555 556
3 133 557 558
3 133 559 560
3 562 561 133
3 60 563 564
3 566 565 60
3 134 135 7
3 136 135 134
3 136 25 135
3 61 136 24
3 137 136 61
3 137 25 136
3 137 96 25
3 138 96 137
3 138 10 96
3 138 139 10
3 140 139 138
3 140 567 569
3 569 568 139
3 567 568 569
3 570 140 571
3 572 571 26
3 570 571 572
3 573 140 574
3 576 575 140
3 577 11 578
3 141 579 580
3 141 581 583
3 581 28 582
3 581 582 583
3 64 141 27
3 142 141 64
3 142 28 141
3 142 107 28
3 143 107 142
3 143 12 107
3 143 144 12
3 145 144 143
3 145 30 144
3 66 145 29
3 146 145 66
3 146 30 145
3 146 114 30
3 147 114 146
3 147 13 114
3 148 584 585
3 148 586 588
3 586 4 587
3 586 587 588
3 589 71 590
3 149 591 593
3 591 71 592
3 591 592 593
3 149 32 71
3 73 149 14
3 150 149 73
3 150 32 149
3 150 148 32
3 151 148 150
3 151 4 148
3 151 123 4
3 152 123 151
3 152 594 596
3 596 595 123
3 594 595 596
3 75 152 33
3 153 152 75
3 153 597 599
3 599 598 152
3 597 598 599
3 153 600 601
3 154 602 604
3 604 603 153
3 602 603 604
3 154 605 606
3 154 607 608
3 155 609 611
3 611 610 154
3 609 610 611
3 155 612 614
3 612 35 613
3 612 613 614
3 77 155 34
3 156 155 77
3 156 35 155
3 156 89 35
3 157 89 156
3 157 6 89
3 120 78 5
3 158 78 120
3 158 36 78
3 79 158 15
3 159 158 79
3 159 36 158
3 159 157 36
3 160 157 159
3 160 6 157
3 160 124 6
3 161 124 160
3 161 18 124
3 81 161 37
3 162 161 81
3 162 18 161
3 162 55 18
3 163 55 162
3 163 1 55
3 164 615 616
3 164 617 619
3 617 7 618
3 617 618 619
3 121 620 622
3 620 82 621
3 620 621 622
3 165 82 121
3 165 38 82
3 83 165 16
3 166 165 83
3 166 38 165
3 166 164 38
3 167 164 166
3 167 7 164
3 167 134 7
3 168 134 167
3 168 24 134
3 623 168 624
3 625 624 39
3 623 624 625
3 626 168 627
3 628 24 629
3 630 629 168
3 628 629 630
3 632 631 24
3 169 633 634
3 169 635 636
3 169 637 639
3 637 62 638
3 637 638 639
3 170 62 169
3 170 2 62
3 170 171 2
3 172 171 170
3 172 640 642
3 642 641 171
3 640 641 642
3 85 172 40
3 643 172 644
3 645 644 85
3 643 644 645
3 647 646 172
3 87 648 649
3 173 650 652
3 652 651 87
3 650 651 652
3 173 653 654
3 173 655 657
3 655 68 656
3 655 656 657
3 174 68 173
3 174 3 68
3 175 658 659
3 175 660 662
3 660 0 661
3 660 661 662
3 176 663 664
3 666 665 176
3 667 163 668
3 177 669 671
3 669 163 670
3 669 670 671
3 177 1 163
3 178 672 673
3 178 674 675
3 178 676 678
3 676 177 677
3 676 677 678
3 179 177 178
3 179 1 177
3 179 59 1
3 180 59 179
3 180 22 59
3 679 180 680
3 681 680 42
3 679 680 681
3 181 682 684
3 682 180 683
3 682 683 684
3 181 22 180
3 181 132 22
3 182 132 181
3 182 9 132
3 685 182 686
3 183 687 689
3 687 182 688
3 687 688 689
3 183 9 182
3 183 95 9
3 184 95 183
3 184 43 95
3 690 184 691
3 185 692 694
3 692 184 693
3 692 693 694
3 185 43 184
3 185 186 43
3 176 186 185
3 176 695 697
3 697 696 186
3 695 696 697
3 699 698 4
3 701 700 35
3 125 90 6
3 702 90 703
3 704 703 125
3 702 703 704
3 706 705 90
3 708 707 19
3 129 709 710
3 712 711 129
3 92 713 715
3 715 714 21
3 713 714 715
3 717 716 92
3 94 718 719
3 721 720 94
3 186 722 723
3 186 724 725
3 135 726 728
3 728 727 7
3 726 727 728
3 730 729 135
3 97 731 733
3 733 732 25
3 731 732 733
3 735 734 97
3 187 736 737
3 187 738 740
3 738 23 739
3 738 739 740
3 100 741 743
3 741 187 742
3 741 742 743
3 188 187 100
3 188 23 187
3 188 744 746
3 746 745 23
3 744 745 746
3 748 747 188
3 139 101 10
3 749 101 750
3 751 750 139
3 749 750 751
3 752 44 753
3 754 753 101
3 752 753 754
3 755 44 756
3 758 757 44
3 189 759 760
3 189 761 762
3 189 763 764
3 766 765 189
3 102 767 769
3 769 768 45
3 767 768 769
3 771 770 102
3 190 772 773
3 190 774 775
3 191 776 777
3 191 778 780
3 778 46 779
3 778 779 780
3 103 781 783
3 781 191 782
3 781 782 783
3 192 191 103
3 192 46 191
3 192 190 46
3 193 190 192
3 193 784 786
3 786 785 190
3 784 785 786
3 193 787 788
3 194 789 791
3 791 790 193
3 789 790 791
3 194 792 793
3 105 194 47
3 195 194 105
3 195 794 796
3 796 795 194
3 794 795 796
3 195 797 799
3 797 175 798
3 797 798 799
3 196 175 195
3 196 0 175
3 800 11 801
3 197 802 803
3 197 804 805
3 108 197 28
3 198 197 108
3 198 806 808
3 808 807 197
3 806 807 808
3 198 809 810
3 199 811 813
3 813 812 198
3 811 812 813
3 199 814 816
3 814 11 815
3 814 815 816
3 199 106 11
3 200 106 199
3 200 48 106
3 110 200 49
3 201 200 110
3 201 48 200
3 201 196 48
3 202 196 201
3 202 0 196
3 202 54 0
3 203 54 202
3 203 17 54
3 112 203 50
3 204 203 112
3 204 17 203
3 204 122 17
3 205 122 204
3 205 8 122
3 144 113 12
3 206 113 144
3 206 51 113
3 115 206 30
3 207 206 115
3 207 51 206
3 207 205 51
3 208 205 207
3 208 8 205
3 208 88 8
3 209 88 208
3 209 41 88
3 117 209 52
3 210 209 117
3 210 41 209
3 210 174 41
3 211 174 210
3 211 3 174
3 171 67 2
3 817 67 818
3 819 818 171
3 817 818 819
3 820 31 821
3 822 821 67
3 820 821 822
3 823 31 824
3 825 147 826
3 827 826 31
3 825 826 827
3 828 147 829
3 830 13 831
3 832 831 147
3 830 831 832
3 833 13 834
3 835 118 836
3 837 836 13
3 835 836 837
3 838 118 839
3 840 53 841
3 842 841 118
3 840 841 842
3 843 53 844
3 845 211 846
3 847 846 53
3 845 846 847
3 848 211 849
3 850 3 851
3 852 851 211
3 850 851 852
3 853 70 854
3 855 854 3
3 853 854 855
3 856 70 857
3 859 858 70
