ply
format ascii 1.0
element vertex 814
property float x
property float y
property float z
element face 1020
property list uchar int vertex_index
end_header
-35.546673 -23.495075 -23.119621
-26.812128 6.137237 -35.881371
-43.848503 12.565462 -25.575697
-31.484568 -4.788224 -33.733284
-38.992455 -0.463291 -39.144894
-45.071728 -18.124628 -30.889538
-35.010441 13.263557 -34.421978
-30.371887 8.690527 -39.230827
-32.873718 -2.383291 -43.127495
-26.968506 1.940394 -39.756062
-49.644699 -30.772684 -26.353893
-53.544533 -18.87282 -34.913872
-48.844116 3.120717 -17.216066
-39.652531 3.086146 -25.913898
-33.516651 3.100632 -27.944775
-21.529686 -7.869424 -30.919458
-22.388355 -15.287626 -30.475567
-33.491241 -14.685613 -31.242321
-43.61039 -9.558275 -41.804718
-37.252754 -8.069107 -34.639336
-40.782822 -17.265039 -23.380718
-42.937439 -30.965521 -20.791815
-35.573425 -32.639359 -25.752552
-29.579212 10.56983 -35.577923
-29.97497 14.909136 -38.375053
-26.176006 9.454101 -39.557098
-27.979465 5.045961 -41.390205
-25.126413 4.293904 -38.805893
-55.311035 -24.505392 -31.204981
-36.706871 3.998753 -27.762842
-24.466166 -6.17644 -31.539057
-25.632477 -19.526798 -29.720098
-46.874962 8.359943 -21.063139
-36.933983 6.205673 -36.128273
-42.341991 1.440822 -34.936363
-43.286125 -3.584273 -38.010597
-46.81953 -8.398522 -40.041714
-41.546406 -4.373875 -42.453835
-32.687157 -3.478176 -39.185555
-34.534584 -6.810571 -40.53413
-33.620613 -7.890225 -36.325691
-35.1516 -11.999159 -33.562641
-32.413521 -9.518183 -32.015053
-47.827511 -24.026163 -28.533951
-46.626568 -30.173309 -22.956493
-45.383549 -23.490978 -24.542442
-42.602112 -24.609995 -21.571085
-43.34623 -16.518225 -26.440739
-39.686268 13.967183 -30.18166
-41.874199 17.685726 -30.269558
-36.17297 17.581215 -35.497337
-33.70668 12.795405 -38.923996
-34.375221 4.035792 -38.831215
-36.479179 -0.779887 -43.274803
-32.478645 2.479408 -41.088203
-30.638809 0.611017 -42.15731
-30.090628 -0.554875 -37.09922
-49.964153 -36.873341 -26.029272
-53.269653 -31.209858 -28.976612
-51.682213 -24.545792 -31.28299
-48.995316 -18.312004 -34.039761
-46.132084 -1.344043 -19.768621
-45.010609 3.559341 -23.238733
-41.651039 -0.440822 -23.798889
-42.275581 7.582498 -26.73299
-38.542973 8.634268 -30.229883
-34.650486 7.466402 -32.538185
-30.534054 4.778882 -32.299599
-32.125362 0.704349 -24.66556
-28.682745 1.283578 -27.730179
-25.479692 0.504212 -30.625311
-24.038502 -0.854971 -33.674583
-24.431902 -3.770107 -34.945908
-25.29154 -7.219474 -34.571968
-23.48753 -13.455729 -28.69923
-20.637075 -11.043344 -30.382471
-26.919018 -11.071783 -33.131065
-28.706198 -14.777331 -31.063824
-31.206842 -18.976126 -28.924368
-35.115372 -19.01379 -29.096634
-32.792213 -22.510342 -25.614796
-50.923458 -13.592901 -36.202564
-48.501019 -13.796679 -38.944862
-43.810184 -14.147141 -36.593483
-37.528584 -5.65294 -43.444481
-39.998905 -8.76829 -38.532482
-42.003838 -11.501798 -31.986328
-39.023663 -11.012857 -28.298611
-36.68383 -15.05324 -28.059778
-38.655777 -19.978867 -23.452383
-46.504677 -35.838142 -24.362251
-43.179768 -36.031525 -22.596031
-39.493263 -32.13969 -23.504766
-39.985172 -26.524902 -22.674417
-37.690712 -27.785862 -25.729095
-27.500452 8.597174 -35.829147
-26.750275 11.00804 -37.565453
-25.595951 8.197855 -38.127239
-25.381744 6.931567 -39.687733
-25.540157 5.482764 -37.524734
-45.508873 10.47281 -23.079475
-46.607296 13.499639 -22.039759
-44.937061 15.099066 -24.746582
-37.537598 2.29272 -37.039768
-39.487785 3.303199 -35.169205
-40.224789 0.045097 -36.521858
-42.500069 -0.958507 -36.43858
-41.493969 -2.144256 -38.601749
-42.815788 -3.944228 -40.341026
-40.373222 -2.641523 -41.070557
-32.929642 -3.790626 -36.618153
-33.330273 -5.692943 -37.806156
-33.314465 -6.093416 -35.0765
-33.40062 -8.56105 -34.125278
-31.877802 -7.172788 -32.675503
-46.68615 -20.797102 -29.74078
-46.476067 -23.67872 -26.657446
-45.422768 -20.406973 -27.614298
-44.409538 -20.072054 -25.445827
-44.248245 -17.165546 -28.651657
-37.447487 13.833845 -32.627052
-37.836998 16.921013 -32.695004
-35.005493 16.394722 -34.980282
-29.615545 12.509183 -39.811733
-31.801926 14.741017 -39.171303
-31.980701 11.072918 -39.505569
-33.81942 8.54778 -38.612671
-32.431957 6.711237 -38.619286
-33.324001 3.050696 -39.786572
-31.171677 5.070086 -39.081329
-27.148342 3.68485 -41.829346
-29.508356 2.896236 -42.240967
-28.752085 1.619648 -42.071075
-30.361444 -0.107023 -40.554192
-28.651093 0.928263 -38.797131
-53.826893 -35.078938 -28.208624
-55.090668 -31.349789 -29.312845
-54.517876 -21.593319 -33.104019
-53.842628 -24.467258 -31.918432
-52.769341 -21.62447 -33.476448
-50.744743 -21.129959 -32.523071
-51.548523 -18.660618 -35.195339
-45.7864 1.219333 -21.57905
-44.196476 -1.027198 -22.293365
-40.800423 1.514014 -24.899765
-42.496555 3.549102 -25.23328
-41.083786 5.155918 -26.616993
-40.37711 8.494689 -28.45927
-39.41729 6.107418 -27.93475
-35.158043 3.675109 -28.190884
-36.008156 5.803843 -30.400553
-34.116894 4.99853 -30.808151
-32.410339 6.403037 -32.74757
-32.287758 3.834415 -30.322529
-30.376942 1.110994 -26.336477
-27.10902 -1.319661 -27.668848
-25.565372 -1.763645 -29.247494
-24.546198 0.019466 -32.199471
-24.383163 -2.281967 -30.785635
-22.886652 -7.089215 -31.322254
-22.992945 -4.559144 -32.749371
-22.729061 -6.148573 -33.107155
-24.795593 -5.494007 -34.876301
-22.269802 -7.689448 -33.101665
-20.896622 -12.939931 -30.24791
-23.141687 -11.566957 -33.018208
-24.494753 -13.587828 -32.675941
-27.746231 -12.89342 -32.125641
-25.748684 -15.438222 -31.880619
-27.23374 -21.514637 -28.418697
-28.589703 -19.282566 -29.518839
-29.831421 -21.226423 -28.015202
-32.215256 -20.920702 -27.596466
-30.684393 -23.045559 -26.401999
-50.309631 5.964294 -15.377917
-40.508442 16.822834 -33.214069
-48.246895 -11.390035 -35.502602
-45.649902 -8.899907 -41.651627
-47.749825 -10.952585 -40.102814
-45.979897 -11.522922 -40.699596
-45.934235 -14.327451 -38.316002
-43.884705 -11.935529 -39.648273
-34.451462 -1.379259 -44.062687
-36.931843 -3.370002 -44.180965
-34.927773 -4.180427 -43.524803
-35.975704 -7.629987 -37.766766
-37.177071 -7.157283 -39.258854
-38.527447 -8.051695 -36.521248
-41.037987 -9.945165 -35.425869
-39.762432 -8.999998 -33.024517
-40.674644 -10.794239 -29.804043
-38.237953 -9.075306 -31.441433
-34.140385 -13.659871 -32.692524
-36.135185 -13.331927 -31.094666
-35.404305 -15.995995 -31.309107
-36.416679 -17.309195 -29.018421
-34.329182 -17.173243 -30.408072
-50.120064 -33.881763 -25.903549
-48.349937 -36.399147 -24.936533
-48.685402 -33.788689 -24.378958
-45.063423 -30.576687 -21.380108
-44.978741 -33.450848 -22.221464
-43.280861 -33.68972 -21.75812
-41.385502 -36.315468 -22.016895
-41.188103 -34.126945 -22.360859
-39.291294 -34.651985 -23.493053
-40.990631 -31.677881 -21.92931
-41.953537 -20.765945 -22.225155
-40.979492 -25.478798 -21.638708
-40.546135 -21.877859 -22.009459
-39.72892 -22.947857 -22.619457
-39.436058 -18.628635 -22.899101
-36.669353 -30.051029 -25.9708
-32.159096 12.211708 -35.405022
-31.77739 15.254474 -36.507271
-28.973776 13.521891 -37.091274
-27.65485 12.329234 -39.061195
-27.996658 9.685989 -39.969822
-28.872599 6.61068 -39.777767
-26.790264 7.520041 -40.522469
-25.881464 5.257655 -40.878159
-25.552649 3.040447 -39.69648
-55.500111 -27.946558 -29.752735
-54.542267 -18.986134 -33.570076
-38.214832 3.808204 -26.770618
-36.903915 2.282593 -24.670359
-35.604912 2.708378 -25.035761
-34.280041 2.733517 -25.040897
-23.321758 -9.777712 -30.521173
-21.252781 -17.074129 -28.382114
-24.061649 -17.503904 -30.462688
-22.542667 -19.222038 -28.513439
-24.184221 -21.442398 -28.098461
-48.034142 5.868832 -19.167934
-49.202293 8.926926 -17.418365
-48.083477 11.438326 -19.544687
-48.247936 14.461607 -20.919653
-37.859486 10.162798 -37.08976
-39.941433 7.21565 -36.330891
-42.55249 4.6035 -35.745968
-44.039993 -3.079358 -34.907806
-45.331795 -5.618867 -36.628647
-46.435951 -8.47096 -37.559303
-45.196831 -5.911988 -39.369499
-44.332169 -6.13934 -41.509262
-42.738441 -6.853843 -43.016212
-32.250816 -3.160065 -41.443218
-33.387062 -4.92365 -42.148941
-33.135811 -5.481457 -40.114494
-33.891533 -7.655061 -38.575878
-35.060341 -8.923772 -36.479023
-36.053852 -9.531241 -33.639057
-34.121468 -10.100727 -34.838554
-33.645214 -11.071666 -33.391773
-32.919281 -12.036033 -31.617609
-48.812054 -27.514277 -27.288095
-48.182884 -30.451813 -24.705526
-47.208466 -27.205761 -25.705896
-45.943424 -26.948895 -23.647543
-44.595131 -27.245829 -21.865673
-42.758373 -27.993256 -21.020512
-44.173141 -23.80418 -22.608883
-43.324158 -20.14204 -23.513708
-42.134712 -16.519735 -24.515335
-41.86628 13.620952 -27.957952
-42.843876 16.286037 -27.568045
-40.320671 16.966358 -30.058277
-38.94978 17.957432 -32.934105
-37.684593 16.606472 -35.935192
-32.856709 16.744175 -37.333767
-34.606133 16.318764 -37.890472
-36.296467 13.735797 -37.967701
-35.275429 9.494074 -37.74017
-35.42725 5.158891 -37.692158
-36.792637 1.757337 -39.415565
-37.876694 -0.534118 -41.440533
-35.577785 1.442277 -41.117271
-34.121986 1.109598 -42.490791
-32.842659 0.6329 -43.135738
-30.360586 3.780222 -40.690025
-31.525156 1.735826 -42.040962
-31.928665 -0.614832 -42.270416
-31.567114 -1.467086 -40.801525
-31.866278 -1.881384 -38.424202
-30.981384 -2.642843 -35.113708
-51.846386 -37.493919 -27.308781
-51.900188 -34.488548 -27.370417
-51.241199 -31.042871 -27.943516
-54.502827 -28.053308 -30.547466
-52.639019 -27.864544 -29.92075
-50.508579 -27.699921 -28.894703
-49.581604 -24.302128 -30.109655
-48.431938 -20.676657 -31.133001
-46.77589 -18.306326 -32.713234
-47.51125 0.8237 -18.543152
-46.954033 3.507774 -20.470112
-46.037621 5.957778 -22.274204
-44.746754 8.119882 -24.063717
-43.583931 1.381793 -23.895359
-43.798668 5.83364 -24.87027
-43.122871 9.983 -26.263605
-41.137901 11.11717 -28.363489
-39.181908 11.254496 -30.460714
-37.099823 11.014653 -32.400604
-37.684669 6.141639 -29.27116
-36.660648 8.36391 -31.726154
-34.790592 10.39145 -33.781731
-32.314785 9.234205 -34.298653
-30.038055 7.737559 -34.299419
-28.525097 5.759043 -34.103226
-33.429111 1.848168 -23.77088
-33.415512 0.460696 -22.377415
-32.389027 2.127345 -26.465357
-31.101892 2.422176 -28.623892
-29.604767 2.66651 -30.387272
-28.029978 2.987015 -32.220467
-28.885265 -0.953288 -26.4587
-26.980988 0.999947 -29.091059
-26.593212 2.990541 -34.080975
-25.671259 2.474619 -35.322834
-25.315104 1.57147 -36.546741
-25.747534 0.550891 -37.248844
-23.420425 -3.295092 -31.996037
-24.143354 -2.085047 -34.652882
-26.653896 -0.596008 -36.709087
-27.508823 -2.189632 -35.726727
-28.090771 -3.987634 -34.624794
-28.546305 -5.851719 -33.638512
-21.817614 -10.451089 -29.493862
-20.774992 -11.140831 -28.451767
-20.814184 -9.230633 -30.638103
-22.307425 -9.615814 -33.01897
-26.051357 -9.185848 -33.992393
-29.105505 -7.824171 -32.648075
-29.689407 -9.818769 -31.722357
-30.625244 -12.039531 -30.98679
-31.472931 -14.267157 -30.361191
-27.08544 -17.292709 -30.69405
-29.848206 -16.848354 -30.045908
-32.434803 -16.698698 -29.817673
-33.502525 -19.004604 -28.99757
-34.002388 -20.481789 -27.296881
-35.816662 -20.447693 -27.509512
-34.276245 -22.29068 -24.948675
-52.989738 -16.059526 -36.019222
-48.662853 -10.926758 -38.199745
-50.387428 -13.384455 -38.227779
-51.296307 -16.075821 -37.12566
-48.719589 -16.380093 -36.879993
-46.292347 -16.346003 -35.585552
-44.417854 -16.1766 -33.776558
-38.905041 -2.843688 -43.294647
-39.662376 -5.085667 -43.822681
-40.611546 -7.634074 -42.753365
-35.665417 -5.995465 -41.872211
-38.967426 -7.395216 -40.903358
-41.593651 -9.639689 -40.175545
-42.13427 -11.506842 -37.781757
-42.688808 -13.03774 -34.49538
-43.503597 -14.856659 -31.444202
-42.774197 -13.719991 -29.1115
-41.520073 -13.352402 -27.008518
-39.89859 -13.756704 -25.558691
-36.755165 -10.712576 -30.784214
-37.466099 -12.555795 -27.869633
-38.424564 -14.984991 -25.008574
-37.484711 -16.946959 -25.326813
-37.121391 -18.851234 -26.352777
-38.249374 -21.208569 -23.754789
-46.663979 -33.395096 -23.114105
-44.640762 -35.726158 -24.165657
-37.326828 -35.173706 -24.430628
-37.82452 -32.585762 -25.008615
-40.974705 -28.876398 -21.764629
-39.649826 -29.370808 -23.241444
-38.392944 -29.722378 -24.745476
-39.204929 -27.174774 -24.077808
-39.29644 -24.45747 -23.47414
-38.178581 -25.841181 -25.177597
-37.003521 -27.684586 -24.048222
-36.805981 -25.196211 -22.294521
-55.387827 -31.23298 -28.90851
-55.228527 -33.092586 -28.686379
-55.525686 -32.975777 -28.282044
-43.168348 -2.798208 -21.533306
-44.295774 -2.191791 -21.471897
-40.226477 2.30008 -25.406831
-39.91923 0.890579 -24.166242
-39.345284 1.676645 -24.673309
-26.408177 -2.9068 -29.720546
-27.196228 -2.593003 -28.873199
-25.817073 -3.165961 -30.489617
-24.974267 -2.022806 -30.016565
-26.408177 -2.9068 -29.720546
-21.642488 -14.113778 -30.361739
-20.587919 -13.896127 -29.152273
-21.333786 -15.069975 -29.266102
-29.05615 -22.350867 -27.487514
-28.532581 -21.37053 -28.216949
-27.757309 -22.494974 -27.689262
-29.482636 -23.260435 -26.680913
-30.257907 -22.135991 -27.2086
-29.05615 -22.350867 -27.487514
-49.576874 4.542505 -16.296992
-49.680883 3.014551 -15.326786
-48.948126 1.592763 -16.24586
-40.984488 15.306728 -33.35359
-39.728195 15.344428 -34.768387
-47.306397 -9.998109 -34.993897
-47.994163 -11.476007 -33.879936
-34.811166 -32.118736 -25.580089
-34.082518 -33.423253 -25.363077
-36.121389 -31.345194 -25.861676
-35.35913 -30.824571 -25.689214
-34.811166 -32.118736 -25.580089
-54.367276 -18.895108 -32.522391
-54.890629 -20.245122 -32.617659
-36.933254 1.964425 -22.870254
-37.518496 1.906948 -24.443357
-35.132264 2.640597 -23.317345
-35.71413 2.571396 -23.191665
-34.469828 2.653166 -23.319913
-34.942476 2.720948 -25.038329
-35.132264 2.640597 -23.317345
-25.231059 -10.803078 -30.149467
-24.325722 -9.463624 -30.704846
-21.017772 -17.971493 -27.29808
-20.99655 -17.004276 -27.362427
-21.662716 -19.045447 -27.363743
-21.897724 -18.148083 -28.447777
-21.017772 -17.971493 -27.29808
-23.47219 -22.240749 -27.162804
-22.851134 -21.193944 -27.195438
-24.926441 -22.504559 -27.675189
-23.47219 -22.240749 -27.162804
-47.426226 15.093347 -22.562638
-47.427616 13.980623 -21.479706
-46.605905 14.612363 -23.122691
-48.210138 14.521653 -22.288203
-47.426226 15.093347 -22.562638
-43.7479 2.075022 -34.68099
-43.85315 3.656361 -35.085792
-42.44724 3.022161 -35.341166
-43.538507 0.778041 -34.683254
-43.7479 2.075022 -34.68099
-52.806871 -37.656097 -27.41399
-51.481211 -38.867998 -26.798725
-46.143743 -2.717404 -18.949455
-45.187002 -3.533662 -19.441422
-46.821667 -0.260172 -19.155887
-46.833326 -1.633532 -18.33672
-46.143743 -2.717404 -18.949455
-40.703812 -1.739424 -22.39392
-40.625864 -0.912865 -23.094434
-41.871216 -1.498402 -23.077791
-40.703812 -1.739424 -22.39392
-42.617485 0.470486 -23.847124
-42.837662 -0.587095 -23.126026
-41.871216 -1.498402 -23.077791
-33.555082 1.353203 -21.453825
-33.661282 1.929466 -22.160002
-32.770437 0.582523 -23.521487
-33.475537 -0.211525 -21.472007
-32.830461 -0.089699 -22.616079
-29.559063 -1.948068 -26.55341
-30.229539 -1.785438 -25.47079
-23.943296 -4.735766 -31.767547
-24.652303 -4.141974 -31.60426
-25.175173 -5.582648 -31.37577
-24.398138 -13.167265 -29.135644
-25.578525 -14.42935 -28.348091
-22.652572 -11.953409 -29.096546
-23.56318 -11.664945 -29.53296
-24.398138 -13.167265 -29.135644
-20.706034 -11.092087 -29.417119
-20.465598 -11.941968 -28.318924
-20.396639 -11.893224 -29.284276
-50.008733 9.93461 -16.46797
-49.416317 10.875026 -17.781886
-43.22036 17.171359 -28.75038
-43.705199 16.471514 -27.399623
-42.359037 16.985881 -28.918802
-51.929477 -14.905147 -35.023336
-50.580934 -13.79431 -34.822321
-51.956598 -14.826214 -36.110893
-52.962618 -16.138459 -34.931666
-51.929477 -14.905147 -35.023336
-48.6766 -37.673453 -25.673693
-49.45401 -38.1077 -25.907083
-46.178778 -36.962913 -24.508052
-47.101408 -37.243416 -24.795192
-47.427307 -36.118645 -24.649392
-45.625853 -36.746977 -23.998646
-46.178778 -36.962913 -24.508052
-43.331679 -36.864218 -22.745256
-44.062176 -36.711534 -23.530069
-43.910265 -35.878842 -23.380844
-42.456929 -37.078043 -22.558974
-43.331679 -36.864218 -22.745256
-40.667997 -37.845177 -22.356922
-40.300684 -36.696734 -22.170002
-37.347116 -27.735224 -24.888658
-36.321005 -28.643914 -24.630406
-36.6646 -28.694552 -25.470842
-36.868561 -26.096288 -21.770112
-35.687712 -24.591151 -22.327796
-45.770788 15.412077 -24.476102
-46.605905 14.612363 -23.122691
-45.772178 14.299353 -23.393171
-54.596639 -34.957161 -28.134268
-53.797125 -36.448606 -27.863912
-54.566871 -36.32683 -27.789555
-54.458781 -33.214364 -28.760734
-54.596639 -34.957161 -28.134268
-55.228527 -33.092586 -28.686379
-45.263578 -2.350214 -20.209525
-45.187002 -3.533662 -19.441422
-45.090736 -1.068526 -21.114739
-45.959242 -0.062355 -20.673835
-45.263578 -2.350214 -20.209525
-44.991438 0.096067 -21.936208
-45.090736 -1.068526 -21.114739
-44.295774 -2.191791 -21.471897
-40.200556 0.064553 -23.644872
-39.91923 0.890579 -24.166242
-41.225731 0.536596 -24.349327
-40.625864 -0.912865 -23.094434
-40.200556 0.064553 -23.644872
-32.420652 -0.113994 -23.983829
-32.830461 -0.089699 -22.616079
-31.546442 0.089329 -24.819287
-31.251152 0.907671 -25.501019
-32.420652 -0.113994 -23.983829
-30.706581 0.136171 -25.71967
-31.546442 0.089329 -24.819287
-29.859482 0.222463 -26.416521
-29.529843 1.197286 -27.033328
-30.706581 0.136171 -25.71967
-27.968052 -2.371011 -28.083877
-28.670941 -2.131255 -27.158485
-26.337196 -1.541653 -28.458171
-27.968052 -2.371011 -28.083877
-27.196228 -2.593003 -28.873199
-24.655777 -14.943362 -28.156683
-25.578525 -14.42935 -28.348091
-20.526413 -12.841518 -29.216996
-20.587919 -13.896127 -29.152273
-20.766849 -11.991637 -30.31519
-20.396639 -11.893224 -29.284276
-20.526413 -12.841518 -29.216996
-50.420506 4.377483 -14.400938
-49.680883 3.014551 -15.326786
-51.032821 7.179369 -14.307416
-50.420506 4.377483 -14.400938
-41.992613 16.559421 -31.741956
-42.675491 16.990868 -30.2697
-41.191321 17.25428 -31.741813
-41.992613 16.559421 -31.741956
-40.984488 15.306728 -33.35359
-49.242653 -12.692877 -34.47234
-47.994163 -11.476007 -33.879936
-49.585177 -12.491468 -35.852583
-50.580934 -13.79431 -34.822321
-49.242653 -12.692877 -34.47234
-40.201984 -35.602472 -22.341984
-40.300684 -36.696734 -22.170002
-41.286803 -35.221207 -22.188877
-40.239699 -34.389465 -22.926956
-39.25358 -35.864992 -22.908081
-40.201984 -35.602472 -22.341984
-36.153921 -29.827135 -25.591695
-35.35913 -30.824571 -25.689214
-37.180032 -28.918446 -25.849947
-36.6646 -28.694552 -25.470842
-36.153921 -29.827135 -25.591695
-55.232361 -27.717464 -28.971578
-55.592548 -29.531365 -29.128455
-55.404715 -26.183232 -29.63166
-55.232361 -27.717464 -28.971578
-55.310177 -24.462649 -30.357782
-55.405573 -26.225975 -30.478858
-55.404715 -26.183232 -29.63166
-55.275013 -23.004751 -31.435111
-55.310177 -24.462649 -30.357782
-54.878433 -21.548715 -32.38463
-54.914456 -23.049356 -32.1545
-55.275013 -23.004751 -31.435111
-54.530072 -20.289727 -33.337047
-54.878433 -21.548715 -32.38463
-54.890629 -20.245122 -32.617659
-38.892803 2.308724 -25.065126
-39.345284 1.676645 -24.673309
-38.173954 2.669754 -25.493486
-38.933682 3.447175 -26.342258
-38.892803 2.308724 -25.065126
-37.559373 3.045399 -25.720489
-38.173954 2.669754 -25.493486
-37.518496 1.906948 -24.443357
-36.363632 2.358503 -23.008964
-36.933254 1.964425 -22.870254
-36.254413 2.495486 -24.85306
-36.363632 2.358503 -23.008964
-35.71413 2.571396 -23.191665
-25.851796 -7.155361 -31.128276
-25.175173 -5.582648 -31.37577
-24.897927 -7.662988 -31.213788
-25.851796 -7.155361 -31.128276
-24.10817 -8.119376 -31.105387
-23.676409 -6.632828 -31.430656
-24.897927 -7.662988 -31.213788
-23.104205 -8.433464 -30.921714
-24.10817 -8.119376 -31.105387
-24.325722 -9.463624 -30.704846
-20.765999 -15.963226 -28.219375
-20.99655 -17.004276 -27.362427
-21.820568 -16.180878 -29.42884
-21.333786 -15.069975 -29.266102
-20.765999 -15.963226 -28.219375
-22.030357 -20.083764 -27.402926
-21.662716 -19.045447 -27.363743
-23.363444 -20.332218 -28.30595
-22.030357 -20.083764 -27.402926
-22.851134 -21.193944 -27.195438
-26.4512 -22.540678 -27.835307
-25.708981 -21.478518 -28.258579
-24.926441 -22.504559 -27.675189
-27.757309 -22.494974 -27.689262
-26.4512 -22.540678 -27.835307
-48.856909 12.130726 -18.845047
-49.416317 10.875026 -17.781886
-48.642885 10.182626 -18.481526
-48.939138 13.642367 -19.53253
-48.856909 12.130726 -18.845047
-48.165706 12.949967 -20.23217
-49.021997 14.028171 -20.661361
-49.7132 13.20893 -19.274238
-48.939138 13.642367 -19.53253
-49.021997 14.028171 -20.661361
-48.210138 14.521653 -22.288203
-39.259909 10.348481 -36.885893
-38.403717 12.01441 -36.706232
-40.300883 8.874906 -36.506459
-39.259909 10.348481 -36.885893
-38.900459 8.689224 -36.710325
-41.417322 7.638608 -36.706093
-40.300883 8.874906 -36.506459
-42.72285 6.332533 -36.413631
-41.417322 7.638608 -36.706093
-41.246961 5.909575 -36.038429
-43.933166 5.109963 -35.934782
-42.72285 6.332533 -36.413631
-43.933166 5.109963 -35.934782
-43.85315 3.656361 -35.085792
-43.617546 -0.421623 -35.434363
-43.538507 0.778041 -34.683254
-42.42103 0.241158 -35.687472
-44.387508 -1.482049 -34.668976
-43.617546 -0.421623 -35.434363
-43.270031 -2.018933 -35.673193
-45.041472 -2.89644 -33.953331
-44.387508 -1.482049 -34.668976
-44.817274 -4.292975 -34.122622
-45.041472 -2.89644 -33.953331
-45.463175 -5.56273 -34.983042
-44.817274 -4.292975 -34.122622
-44.685894 -4.349113 -35.768226
-45.848847 -7.112526 -35.556919
-45.463175 -5.56273 -34.983042
-45.883873 -7.044913 -37.093975
-46.400925 -8.538572 -36.022247
-45.848847 -7.112526 -35.556919
-35.126169 -33.919537 -25.383518
-34.082518 -33.423253 -25.363077
-38.316271 15.236247 -36.128948
-39.728195 15.344428 -34.768387
-39.096518 16.714653 -34.57463
-37.622208 13.800909 -37.145202
-38.316271 15.236247 -36.128948
-36.99053 15.171135 -36.951447
-37.077976 11.949298 -37.52873
-38.403717 12.01441 -36.706232
-37.622208 13.800909 -37.145202
-50.395127 -38.417989 -26.546837
-51.481211 -38.867998 -26.798725
-50.90527 -37.18363 -26.669027
-49.45401 -38.1077 -25.907083
-50.395127 -38.417989 -26.546837
-52.83664 -36.286428 -27.758702
-52.806871 -37.656097 -27.41399
-53.797125 -36.448606 -27.863912
-55.295389 -29.648173 -29.53279
-55.387827 -31.23298 -28.90851
-55.592548 -29.531365 -29.128455
-48.22299 0.495445 -16.963418
-48.948126 1.592763 -16.24586
-47.556557 -0.653064 -17.626961
-46.833326 -1.633532 -18.33672
-48.177683 1.972209 -17.879609
-48.22299 0.495445 -16.963418
-47.556557 -0.653064 -17.626961
-43.143935 -1.79159 -22.325029
-43.168348 -2.798208 -21.533306
-43.890203 0.177297 -23.094362
-43.143935 -1.79159 -22.325029
-42.837662 -0.587095 -23.126026
-34.086747 2.37214 -22.795011
-34.469828 2.653166 -23.319913
-33.854576 2.290843 -24.405888
-34.086747 2.37214 -22.795011
-33.661282 1.929466 -22.160002
-33.334906 0.205632 -19.928531
-33.475537 -0.211525 -21.472007
-33.548282 0.659466 -20.757092
-33.334906 0.205632 -19.928531
-33.422311 1.154432 -23.074147
-33.555082 1.353203 -21.453825
-33.548282 0.659466 -20.757092
-29.960742 -0.89597 -25.780781
-30.229539 -1.785438 -25.47079
-28.784005 0.165145 -27.09444
-29.859482 0.222463 -26.416521
-29.960742 -0.89597 -25.780781
-27.997143 -1.136475 -27.063774
-29.559063 -1.948068 -26.55341
-28.670941 -2.131255 -27.158485
-25.133671 -3.635412 -30.999059
-25.817073 -3.165961 -30.489617
-23.901794 -2.78853 -31.390836
-25.133671 -3.635412 -30.999059
-24.652303 -4.141974 -31.60426
-24.315252 -11.328257 -30.046616
-25.231059 -10.803078 -30.149467
-22.569686 -10.1144 -30.007517
-24.315252 -11.328257 -30.046616
-23.56318 -11.664945 -29.53296
-22.784068 -13.789165 -28.091045
-24.655777 -14.943362 -28.156683
-21.427799 -12.631716 -27.967314
-20.465598 -11.941968 -28.318924
-22.131261 -12.29828 -28.575499
-22.784068 -13.789165 -28.091045
-21.427799 -12.631716 -27.967314
-50.562403 8.453293 -15.447747
-49.755962 7.44561 -16.398141
-50.008733 9.93461 -16.46797
-51.032821 7.179369 -14.307416
-50.562403 8.453293 -15.447747
-44.751791 15.878029 -25.988892
-43.890468 15.692552 -26.157314
-43.705199 16.471514 -27.399623
-45.770788 15.412077 -24.476102
-44.751791 15.878029 -25.988892
-43.22036 17.171359 -28.75038
-42.675491 16.990868 -30.2697
-53.738882 -17.601763 -33.707093
-54.367276 -18.895108 -32.522391
-53.766002 -17.52283 -34.794649
-53.738882 -17.601763 -33.707093
-52.962618 -16.138459 -34.931666
-47.341423 -9.930497 -36.530952
-47.306397 -9.998109 -34.993897
-46.400925 -8.538572 -36.022247
-47.869491 -37.436356 -25.127323
-48.6766 -37.673453 -25.673693
-49.157045 -36.636244 -25.482903
-47.869491 -37.436356 -25.127323
-47.101408 -37.243416 -24.795192
-44.693895 -36.690984 -23.900349
-45.625853 -36.746977 -23.998646
-45.57272 -35.78215 -24.263954
-44.693895 -36.690984 -23.900349
-44.062176 -36.711534 -23.530069
-41.559795 -37.220015 -22.269406
-42.456929 -37.078043 -22.558974
-42.282635 -36.173496 -22.306463
-41.559795 -37.220015 -22.269406
-40.667997 -37.845177 -22.356922
-38.266812 -36.173933 -23.495186
-39.25358 -35.864992 -22.908081
-37.284578 -36.434793 -23.963974
-38.266812 -36.173933 -23.495186
-38.309061 -34.912846 -23.961841
-35.973987 -36.637653 -24.116152
-37.284578 -36.434793 -23.963974
-36.002871 -35.186711 -24.722556
-35.973987 -36.637653 -24.116152
-36.251717 -33.892739 -25.01155
-36.002871 -35.186711 -24.722556
-37.575674 -33.879734 -24.719621
-36.698972 -32.612561 -25.380584
-35.126169 -33.919537 -25.383518
-36.251717 -33.892739 -25.01155
-36.902075 -28.64934 -23.264478
-36.321005 -28.643914 -24.630406
-36.967331 -27.340476 -22.646963
-36.902075 -28.64934 -23.264478
-36.904751 -26.440399 -23.171371
-36.868561 -26.096288 -21.770112
-36.967331 -27.340476 -22.646963
-30.386558 -23.954332 -25.526575
-29.482636 -23.260435 -26.680913
-31.461562 -23.594593 -24.95137
-30.386558 -23.954332 -25.526575
-32.515472 -23.326985 -24.557769
-31.738303 -22.777951 -26.008398
-31.461562 -23.594593 -24.95137
-33.680828 -23.248216 -23.987933
-32.515472 -23.326985 -24.557769
-34.422844 -23.138385 -23.654873
-33.534229 -22.400511 -25.281735
-33.680828 -23.248216 -23.987933
-35.541113 -23.743445 -23.621598
-34.422844 -23.138385 -23.654873
-35.687712 -24.591151 -22.327796
3 1 97 95
3 1 99 97
3 2 102 100
3 4 105 103
3 4 107 105
3 4 109 107
3 3 112 110
3 3 114 112
3 5 117 115
3 5 119 117
3 6 122 120
3 7 125 123
3 7 127 125
3 7 129 127
3 9 132 130
3 9 134 132
3 381 136 382
3 381 382 383
3 11 139 137
3 11 141 139
3 384 143 385
3 13 386 388
3 386 144 387
3 386 387 388
3 13 146 144
3 13 148 146
3 14 151 149
3 14 153 151
3 389 156 390
3 391 158 392
3 393 392 156
3 391 392 393
3 15 161 159
3 15 163 161
3 16 394 396
3 394 164 395
3 394 395 396
3 16 166 164
3 16 168 166
3 397 171 398
3 399 398 169
3 397 398 399
3 400 173 401
3 402 401 171
3 400 401 402
3 12 403 405
3 403 174 404
3 403 404 405
3 407 406 175
3 408 176 409
3 18 179 177
3 18 181 179
3 8 184 182
3 19 187 185
3 19 189 187
3 19 191 189
3 17 194 192
3 17 196 194
3 10 199 197
3 21 202 200
3 21 204 202
3 21 206 204
3 20 209 207
3 20 211 209
3 22 410 411
3 22 412 414
3 412 212 413
3 412 413 414
3 23 215 213
3 25 216 96
3 25 217 216
3 25 219 217
3 27 220 98
3 27 221 220
3 415 223 416
3 417 225 418
3 419 226 420
3 421 227 422
3 423 422 226
3 421 422 423
3 424 228 425
3 426 229 427
3 428 231 429
3 430 429 229
3 428 429 430
3 431 232 432
3 434 433 232
3 32 235 233
3 435 236 436
3 437 436 101
3 435 436 437
3 439 438 236
3 33 238 237
3 34 239 104
3 34 440 442
3 442 441 239
3 440 441 442
3 34 443 444
3 35 240 106
3 35 241 240
3 35 243 241
3 37 244 108
3 37 245 244
3 38 248 246
3 40 249 111
3 40 250 249
3 40 252 250
3 42 253 113
3 42 254 253
3 43 257 255
3 45 258 116
3 45 259 258
3 45 261 259
3 47 262 118
3 47 263 262
3 48 266 264
3 50 267 121
3 50 268 267
3 24 269 214
3 51 270 124
3 51 271 270
3 51 272 271
3 52 273 126
3 52 274 273
3 52 276 274
3 54 277 128
3 54 278 277
3 26 279 218
3 55 280 131
3 55 281 280
3 55 282 281
3 56 283 133
3 56 284 283
3 445 285 446
3 58 286 135
3 58 287 286
3 28 288 222
3 59 289 138
3 59 290 289
3 59 291 290
3 60 292 140
3 60 293 292
3 61 447 448
3 61 449 451
3 449 294 450
3 449 450 451
3 61 295 294
3 62 296 142
3 62 297 296
3 63 452 453
3 63 454 455
3 63 456 458
3 456 298 457
3 456 457 458
3 64 299 145
3 64 300 299
3 64 301 300
3 65 302 147
3 65 303 302
3 29 304 224
3 66 305 150
3 66 306 305
3 66 307 306
3 67 308 152
3 67 309 308
3 459 310 460
3 68 461 463
3 461 311 462
3 461 462 463
3 68 312 311
3 68 313 312
3 69 314 154
3 69 315 314
3 464 316 465
3 70 317 155
3 70 318 317
3 70 319 318
3 71 320 157
3 71 321 320
3 30 466 468
3 466 322 467
3 466 467 468
3 72 323 160
3 72 324 323
3 72 325 324
3 73 326 162
3 73 327 326
3 74 469 470
3 74 471 473
3 471 328 472
3 471 472 473
3 75 474 476
3 474 329 475
3 474 475 476
3 75 330 329
3 75 331 330
3 76 332 165
3 76 333 332
3 76 334 333
3 77 335 167
3 77 336 335
3 31 337 230
3 78 338 170
3 78 339 338
3 78 340 339
3 80 341 172
3 80 343 341
3 478 477 234
3 49 479 481
3 481 480 265
3 479 480 481
3 81 482 483
3 81 484 486
3 484 344 485
3 484 485 486
3 36 345 242
3 82 346 178
3 82 347 346
3 82 348 347
3 83 349 180
3 83 350 349
3 53 351 275
3 84 352 183
3 84 353 352
3 39 354 247
3 85 355 186
3 85 356 355
3 85 357 356
3 86 358 188
3 86 359 358
3 86 360 359
3 87 361 190
3 87 362 361
3 41 363 251
3 88 364 193
3 88 365 364
3 88 366 365
3 79 367 195
3 79 342 367
3 57 487 488
3 90 489 491
3 491 490 198
3 489 490 491
3 90 492 493
3 44 369 256
3 91 370 201
3 91 494 496
3 496 495 370
3 494 495 496
3 91 497 498
3 500 499 203
3 92 371 205
3 92 372 371
3 46 373 260
3 93 374 208
3 93 375 374
3 93 376 375
3 89 377 210
3 89 368 377
3 94 501 503
3 501 379 502
3 501 502 503
3 94 378 379
3 504 380 505
3 95 96 23
3 97 96 95
3 97 25 96
3 97 98 25
3 99 98 97
3 99 27 98
3 100 101 32
3 102 101 100
3 102 506 508
3 508 507 101
3 506 507 508
3 103 104 33
3 105 104 103
3 105 34 104
3 105 106 34
3 107 106 105
3 107 35 106
3 107 108 35
3 109 108 107
3 109 37 108
3 110 111 38
3 112 111 110
3 112 40 111
3 112 113 40
3 114 113 112
3 114 42 113
3 115 116 43
3 117 116 115
3 117 45 116
3 117 118 45
3 119 118 117
3 119 47 118
3 120 121 48
3 122 121 120
3 122 50 121
3 123 124 24
3 125 124 123
3 125 51 124
3 125 126 51
3 127 126 125
3 127 52 126
3 127 128 52
3 129 128 127
3 129 54 128
3 130 131 26
3 132 131 130
3 132 55 131
3 132 133 55
3 134 133 132
3 134 56 133
3 509 135 510
3 509 510 511
3 136 512 514
3 512 135 513
3 512 513 514
3 136 58 135
3 137 138 28
3 139 138 137
3 139 59 138
3 139 140 59
3 141 140 139
3 141 60 140
3 515 61 516
3 517 142 518
3 519 518 61
3 517 518 519
3 143 520 522
3 520 142 521
3 520 521 522
3 143 62 142
3 144 523 524
3 144 525 527
3 525 63 526
3 525 526 527
3 144 145 63
3 146 145 144
3 146 64 145
3 146 147 64
3 148 147 146
3 148 65 147
3 149 150 29
3 151 150 149
3 151 66 150
3 151 152 66
3 153 152 151
3 153 67 152
3 528 68 529
3 530 154 531
3 532 531 68
3 530 531 532
3 533 154 534
3 535 69 536
3 537 536 154
3 535 536 537
3 538 155 539
3 156 540 542
3 540 155 541
3 540 541 542
3 156 70 155
3 156 157 70
3 158 157 156
3 158 71 157
3 159 160 30
3 161 160 159
3 161 72 160
3 161 162 72
3 163 162 161
3 163 73 162
3 543 74 544
3 164 545 546
3 164 547 549
3 547 75 548
3 547 548 549
3 164 165 75
3 166 165 164
3 166 76 165
3 166 167 76
3 168 167 166
3 168 77 167
3 169 170 31
3 171 170 169
3 171 78 170
3 171 172 78
3 173 172 171
3 173 80 172
3 174 550 551
3 174 552 553
3 175 554 556
3 556 555 49
3 554 555 556
3 558 557 175
3 176 559 560
3 176 561 563
3 561 81 562
3 561 562 563
3 177 178 36
3 179 178 177
3 179 82 178
3 179 180 82
3 181 180 179
3 181 83 180
3 182 183 53
3 184 183 182
3 184 84 183
3 185 186 39
3 187 186 185
3 187 85 186
3 187 188 85
3 189 188 187
3 189 86 188
3 189 190 86
3 191 190 189
3 191 87 190
3 192 193 41
3 194 193 192
3 194 88 193
3 194 195 88
3 196 195 194
3 196 79 195
3 197 198 57
3 199 198 197
3 199 90 198
3 200 201 44
3 202 201 200
3 202 91 201
3 202 203 91
3 204 203 202
3 204 564 566
3 566 565 203
3 564 565 566
3 204 567 569
3 567 205 568
3 567 568 569
3 206 205 204
3 206 92 205
3 207 208 46
3 209 208 207
3 209 93 208
3 209 210 93
3 211 210 209
3 211 89 210
3 212 570 571
3 212 572 574
3 572 94 573
3 572 573 574
3 213 214 6
3 215 214 213
3 215 24 214
3 96 215 23
3 216 215 96
3 216 24 215
3 216 123 24
3 217 123 216
3 217 7 123
3 217 218 7
3 219 218 217
3 219 26 218
3 98 219 25
3 220 219 98
3 220 26 219
3 220 130 26
3 221 130 220
3 221 9 130
3 575 222 576
3 577 222 578
3 579 28 580
3 581 580 222
3 579 580 581
3 582 28 583
3 584 137 585
3 586 585 28
3 584 585 586
3 223 587 589
3 587 137 588
3 587 588 589
3 223 11 137
3 590 13 591
3 592 224 593
3 594 593 13
3 592 593 594
3 225 595 597
3 595 224 596
3 595 596 597
3 225 29 224
3 598 225 599
3 226 600 602
3 600 225 601
3 600 601 602
3 226 29 225
3 226 149 29
3 227 149 226
3 227 14 149
3 603 30 604
3 605 30 606
3 607 159 608
3 609 608 30
3 607 608 609
3 228 610 612
3 610 159 611
3 610 611 612
3 228 15 159
3 229 613 614
3 229 615 617
3 615 16 616
3 615 616 617
3 229 230 16
3 231 230 229
3 231 31 230
3 618 231 619
3 232 620 622
3 620 231 621
3 620 621 622
3 232 31 231
3 232 169 31
3 623 169 624
3 625 624 232
3 623 624 625
3 627 626 169
3 233 234 12
3 235 234 233
3 235 628 630
3 630 629 234
3 628 629 630
3 101 235 32
3 236 235 101
3 236 631 633
3 633 632 235
3 631 632 633
3 236 634 636
3 634 635 636
3 638 637 236
3 237 639 640
3 238 641 643
3 643 642 237
3 641 642 643
3 238 644 645
3 104 238 33
3 239 238 104
3 239 646 648
3 648 647 238
3 646 647 648
3 239 649 650
3 652 651 239
3 106 653 655
3 655 654 34
3 653 654 655
3 240 656 658
3 658 657 106
3 656 657 658
3 240 659 660
3 240 661 662
3 241 663 665
3 665 664 240
3 663 664 665
3 241 666 667
3 241 668 670
3 668 242 669
3 668 669 670
3 243 242 241
3 243 36 242
3 108 243 35
3 244 243 108
3 244 36 243
3 244 177 36
3 245 177 244
3 245 18 177
3 246 247 8
3 248 247 246
3 248 39 247
3 111 248 38
3 249 248 111
3 249 39 248
3 249 185 39
3 250 185 249
3 250 19 185
3 250 251 19
3 252 251 250
3 252 41 251
3 113 252 40
3 253 252 113
3 253 41 252
3 253 192 41
3 254 192 253
3 254 17 192
3 255 256 10
3 257 256 255
3 257 44 256
3 116 257 43
3 258 257 116
3 258 44 257
3 258 200 44
3 259 200 258
3 259 21 200
3 259 260 21
3 261 260 259
3 261 46 260
3 118 261 45
3 262 261 118
3 262 46 261
3 262 207 46
3 263 207 262
3 263 20 207
3 671 22 672
3 264 265 2
3 266 265 264
3 266 49 265
3 121 266 48
3 267 266 121
3 267 49 266
3 267 175 49
3 268 175 267
3 268 673 675
3 675 674 175
3 673 674 675
3 214 122 6
3 269 122 214
3 269 50 122
3 124 269 24
3 270 269 124
3 270 50 269
3 270 268 50
3 271 268 270
3 271 676 678
3 678 677 268
3 676 677 678
3 271 679 681
3 679 237 680
3 679 680 681
3 272 237 271
3 272 33 237
3 126 272 51
3 273 272 126
3 273 33 272
3 273 103 33
3 274 103 273
3 274 4 103
3 274 275 4
3 276 275 274
3 276 53 275
3 128 276 52
3 277 276 128
3 277 53 276
3 277 182 53
3 278 182 277
3 278 8 182
3 218 129 7
3 279 129 218
3 279 54 129
3 131 279 26
3 280 279 131
3 280 54 279
3 280 278 54
3 281 278 280
3 281 8 278
3 281 246 8
3 282 246 281
3 282 38 246
3 133 282 55
3 283 282 133
3 283 38 282
3 283 110 38
3 284 110 283
3 284 3 110
3 285 682 683
3 285 684 686
3 684 57 685
3 684 685 686
3 135 687 689
3 687 285 688
3 687 688 689
3 286 285 135
3 286 57 285
3 286 197 57
3 287 197 286
3 287 10 197
3 222 690 692
3 690 136 691
3 690 691 692
3 288 136 222
3 288 58 136
3 138 288 28
3 289 288 138
3 289 58 288
3 289 287 58
3 290 287 289
3 290 10 287
3 290 255 10
3 291 255 290
3 291 43 255
3 140 291 59
3 292 291 140
3 292 43 291
3 292 115 43
3 293 115 292
3 293 5 115
3 693 12 694
3 294 695 696
3 294 697 699
3 697 12 698
3 697 698 699
3 294 233 12
3 295 233 294
3 295 32 233
3 142 295 61
3 296 295 142
3 296 32 295
3 296 100 32
3 297 100 296
3 297 2 100
3 700 143 701
3 298 702 704
3 702 143 703
3 702 703 704
3 298 62 143
3 145 298 63
3 299 298 145
3 299 62 298
3 299 297 62
3 300 297 299
3 300 2 297
3 300 264 2
3 301 264 300
3 301 48 264
3 147 301 64
3 302 301 147
3 302 48 301
3 302 120 48
3 303 120 302
3 303 6 120
3 224 148 13
3 304 148 224
3 304 65 148
3 150 304 29
3 305 304 150
3 305 65 304
3 305 303 65
3 306 303 305
3 306 6 303
3 306 213 6
3 307 213 306
3 307 23 213
3 152 307 66
3 308 307 152
3 308 23 307
3 308 95 23
3 309 95 308
3 309 1 95
3 705 227 706
3 310 707 709
3 707 227 708
3 707 708 709
3 310 14 227
3 311 710 711
3 311 712 713
3 311 714 716
3 714 310 715
3 714 715 716
3 312 310 311
3 312 14 310
3 312 153 14
3 313 153 312
3 313 67 153
3 154 313 68
3 314 313 154
3 314 67 313
3 314 309 67
3 315 309 314
3 315 1 309
3 316 717 718
3 316 719 721
3 719 69 720
3 719 720 721
3 155 722 724
3 722 316 723
3 722 723 724
3 317 316 155
3 317 69 316
3 317 315 69
3 318 315 317
3 318 1 315
3 318 99 1
3 319 99 318
3 319 27 99
3 157 319 70
3 320 319 157
3 320 27 319
3 320 221 27
3 321 221 320
3 321 9 221
3 725 158 726
3 322 727 729
3 727 158 728
3 727 728 729
3 322 71 158
3 160 322 30
3 323 322 160
3 323 71 322
3 323 321 71
3 324 321 323
3 324 9 321
3 324 134 9
3 325 134 324
3 325 56 134
3 162 325 72
3 326 325 162
3 326 56 325
3 326 284 56
3 327 284 326
3 327 3 284
3 730 228 731
3 328 732 734
3 732 228 733
3 732 733 734
3 328 15 228
3 735 74 736
3 329 737 738
3 329 739 741
3 739 74 740
3 739 740 741
3 329 328 74
3 330 328 329
3 330 15 328
3 330 163 15
3 331 163 330
3 331 73 163
3 165 331 75
3 332 331 165
3 332 73 331
3 332 327 73
3 333 327 332
3 333 3 327
3 333 114 3
3 334 114 333
3 334 42 114
3 167 334 76
3 335 334 167
3 335 42 334
3 335 254 42
3 336 254 335
3 336 17 254
3 230 168 16
3 337 168 230
3 337 77 168
3 170 337 31
3 338 337 170
3 338 77 337
3 338 336 77
3 339 336 338
3 339 17 336
3 339 196 17
3 340 196 339
3 340 79 196
3 172 340 78
3 341 340 172
3 341 79 340
3 341 342 79
3 343 342 341
3 343 0 342
3 234 174 12
3 742 174 743
3 744 743 234
3 742 743 744
3 746 745 174
3 265 102 2
3 747 102 748
3 749 748 265
3 747 748 749
3 751 750 102
3 753 752 49
3 754 223 755
3 344 756 758
3 756 223 757
3 756 757 758
3 344 11 223
3 242 759 761
3 759 176 760
3 759 760 761
3 345 176 242
3 345 81 176
3 178 345 36
3 346 345 178
3 346 81 345
3 346 344 81
3 347 344 346
3 347 11 344
3 347 141 11
3 348 141 347
3 348 60 141
3 180 348 82
3 349 348 180
3 349 60 348
3 349 293 60
3 350 293 349
3 350 5 293
3 275 109 4
3 351 109 275
3 351 37 109
3 183 351 53
3 352 351 183
3 352 37 351
3 352 245 37
3 353 245 352
3 353 18 245
3 247 184 8
3 354 184 247
3 354 84 184
3 186 354 39
3 355 354 186
3 355 84 354
3 355 353 84
3 356 353 355
3 356 18 353
3 356 181 18
3 357 181 356
3 357 83 181
3 188 357 85
3 358 357 188
3 358 83 357
3 358 350 83
3 359 350 358
3 359 5 350
3 359 119 5
3 360 119 359
3 360 47 119
3 190 360 86
3 361 360 190
3 361 47 360
3 361 263 47
3 362 263 361
3 362 20 263
3 251 191 19
3 363 191 251
3 363 87 191
3 193 363 41
3 364 363 193
3 364 87 363
3 364 362 87
3 365 362 364
3 365 20 362
3 365 211 20
3 366 211 365
3 366 89 211
3 195 366 88
3 367 366 195
3 367 89 366
3 367 368 89
3 342 368 367
3 342 0 368
3 198 762 764
3 764 763 57
3 762 763 764
3 766 765 198
3 256 199 10
3 369 199 256
3 369 90 199
3 201 369 44
3 370 369 201
3 370 90 369
3 370 767 769
3 769 768 90
3 767 768 769
3 771 770 370
3 203 772 774
3 774 773 91
3 772 773 774
3 776 775 203
3 205 777 778
3 371 779 781
3 781 780 205
3 779 780 781
3 371 782 783
3 371 784 785
3 372 786 788
3 788 787 371
3 786 787 788
3 372 789 791
3 789 22 790
3 789 790 791
3 260 206 21
3 373 206 260
3 373 92 206
3 208 373 46
3 374 373 208
3 374 92 373
3 374 372 92
3 375 372 374
3 375 22 372
3 375 212 22
3 376 212 375
3 376 94 212
3 210 376 93
3 377 376 210
3 377 94 376
3 377 378 94
3 368 378 377
3 368 0 378
3 379 792 793
3 379 794 795
3 379 796 798
3 796 380 797
3 796 797 798
3 378 380 379
3 378 0 380
3 799 173 800
3 801 173 802
3 803 80 804
3 805 804 173
3 803 804 805
3 806 80 807
3 808 343 809
3 810 809 80
3 808 809 810
3 380 811 813
3 811 343 812
3 811 812 813
3 380 0 343
