ply
format ascii 1.0
element vertex 768
property float x
property float y
property float z
element face 934
property list uchar int vertex_index
end_header
14.360376 25.501125 -15.843188
15.177922 43.336872 -21.935612
23.454927 20.217979 -19.518486
5.464002 33.989296 -21.724279
10.321595 14.639826 -16.572701
17.215708 12.224379 -14.885304
19.572563 52.235329 -13.988111
10.041341 65.66243 -3.775565
12.249221 58.168079 -13.634946
8.874428 54.440666 -21.155708
6.892338 20.982344 -13.370844
25.344246 12.089085 -17.626568
12.859137 34.279846 -24.521381
14.016848 20.432837 -25.072342
19.975519 29.692205 -20.009312
27.338497 28.319067 -13.245999
7.077578 45.952354 -16.809587
8.762087 42.806091 -20.754354
7.090416 30.010288 -24.341557
5.399967 17.276627 -21.216257
20.44327 11.663499 -18.96204
11.18086 21.10931 -15.445384
13.299037 13.586924 -14.024777
15.42547 19.698627 -14.154549
23.862864 56.476635 -13.053187
15.905172 57.386879 -7.273089
20.541666 59.324837 -11.674495
17.152735 58.254444 -15.202298
12.84066 39.174789 -25.973572
14.475754 31.741962 -26.109119
17.211761 35.865303 -21.1276
33.515884 28.462687 -17.476959
7.966302 51.366402 -14.214073
12.664859 49.06469 -23.010754
9.072016 48.325127 -20.637333
11.928828 44.155766 -23.689743
13.113131 39.560966 -20.06992
5.533392 26.681355 -17.942659
6.62318 20.041058 -17.661413
4.476878 25.713068 -23.517899
5.241596 23.464329 -25.515015
4.362687 32.132572 -26.111988
17.979668 19.038282 -21.304356
16.059265 15.043073 -23.004843
20.363811 14.67765 -22.449982
16.464649 47.322098 -16.145754
19.23192 40.695225 -16.118992
15.739993 65.220459 -0.098287
16.119436 62.31361 -4.169105
10.039023 63.518513 -8.949997
6.541988 60.70034 -13.563454
6.230219 56.658863 -17.725309
10.159478 58.484444 -18.222473
13.536855 53.540447 -17.7516
6.231806 15.690994 -8.124268
5.902244 22.101133 -9.886492
7.897255 27.138809 -14.240202
5.485424 34.024837 -16.647404
28.044983 21.078949 -21.50452
24.82066 16.433603 -22.145725
26.232279 17.815495 -19.121624
14.9537 30.171646 -19.816074
14.388384 23.394705 -21.439468
12.929262 27.014629 -25.742752
16.477667 25.203964 -23.767363
19.796423 24.02363 -16.540091
23.13069 35.132286 -17.090092
20.9771 28.995205 -12.766292
24.908955 24.880873 -16.013079
30.43549 25.02866 -20.023531
6.128155 40.357647 -19.674503
5.534717 50.591831 -20.487614
4.973102 45.099144 -22.014971
4.680457 39.398701 -24.603062
7.858774 37.08865 -22.620502
12.374718 34.481667 -18.55699
11.035445 28.450836 -18.135845
7.457227 13.660306 -10.742586
7.564851 11.652743 -13.48842
8.379488 8.882819 -14.918859
7.52738 15.508287 -21.209393
8.297449 22.578047 -21.79356
15.856949 18.545477 -19.264263
18.948988 12.96979 -16.929913
22.902641 11.907351 -18.572193
12.538159 23.595282 -15.002403
13.21462 20.564075 -13.749365
14.840311 22.683762 -14.898829
25.955292 58.025887 -11.759245
26.599728 54.75721 -11.913204
29.109156 57.053123 -10.915833
22.414516 57.10865 -9.504091
24.46101 58.953522 -10.877184
22.605936 59.209675 -12.635221
13.848948 41.363064 -24.895737
14.988652 37.753555 -24.704046
16.220186 39.679688 -21.67654
13.911711 46.272839 -22.973278
11.886881 46.77932 -24.577124
12.774256 44.014294 -25.07317
12.145502 41.655754 -25.277473
6.570859 30.219349 -19.732925
5.837429 26.556934 -20.808891
4.853947 30.089634 -23.034882
4.04431 28.909519 -25.458019
4.237978 33.290047 -24.486725
20.40642 19.033928 -19.090763
18.811855 16.325813 -22.112354
21.481689 17.222576 -21.004915
10.435072 10.610041 -16.04295
15.302961 13.082626 -14.063344
14.931539 9.237804 -15.476483
16.887241 8.602242 -15.658743
18.350143 7.770569 -15.768649
17.755066 49.783089 -14.544576
18.924347 46.049377 -14.171674
20.017467 48.406303 -12.430826
13.579412 57.484619 -10.095123
13.094922 60.668236 -8.01317
10.348578 60.680016 -10.597557
7.500322 62.740334 -11.110788
8.821652 59.835621 -13.824615
7.867018 59.229572 -16.544933
11.479906 59.204884 -16.124166
18.264433 55.248558 -14.439516
14.846756 55.69701 -15.798688
16.392481 52.971153 -15.36252
15.043718 50.615337 -17.021427
5.520266 19.871059 -7.489085
5.382374 22.934469 -8.197374
8.340579 27.217243 -11.730539
8.343641 30.199688 -13.84746
5.713829 30.42547 -15.694392
29.530407 20.924463 -20.713215
27.79303 19.323391 -21.077961
14.202011 32.212181 -21.993578
13.366081 28.527781 -23.620621
12.71346 30.479816 -25.517178
17.170277 30.378464 -22.778576
15.411713 28.455082 -24.926746
18.586294 27.280605 -21.660387
18.699842 24.584217 -19.761993
19.323324 26.979527 -17.846149
21.992575 39.931938 -14.832822
21.205313 37.880615 -16.916262
23.773916 28.353373 -11.773804
22.731174 26.275 -13.313324
25.918415 26.761837 -14.470694
27.700495 25.673092 -18.528708
28.971249 27.590931 -17.375656
12.722305 65.704926 -1.684348
12.343478 65.717422 0.939649
10.116098 66.022644 -0.663351
8.001602 43.066917 -16.032101
7.797781 40.058674 -17.176781
6.675941 43.12199 -18.18429
6.775411 55.953602 -20.113234
6.091496 53.718819 -19.371656
6.333982 53.070301 -21.247879
8.953547 45.524006 -20.373272
6.046619 46.839573 -21.991461
5.860577 44.278019 -22.933674
4.727109 42.543762 -23.486439
5.649213 41.519295 -24.06534
5.567691 38.337555 -24.929127
8.246448 40.077507 -21.673023
13.607648 37.094444 -22.062351
12.923744 37.043541 -19.127655
14.292401 34.825851 -20.079121
14.203699 32.526806 -18.599092
6.654263 18.301752 -10.537812
6.934821 14.543315 -9.376238
7.25294 17.789661 -12.105475
5.897327 18.845209 -19.667896
7.174833 16.165567 -15.639819
6.637319 15.079761 -17.236031
7.772591 10.354208 -14.439891
6.81179 13.696118 -18.292885
7.866469 12.574066 -18.388885
6.140386 16.186598 -21.838013
5.667903 26.563858 -25.884735
6.474266 22.552259 -24.796486
7.727376 26.20068 -23.130013
9.606066 25.868338 -19.687258
9.387998 29.478552 -20.749592
13.193253 21.692469 -24.443689
14.871767 20.908306 -20.435482
13.741765 18.958267 -23.377714
18.111061 13.305623 -21.617197
17.168934 14.713468 -20.321352
19.486637 12.43379 -18.254354
24.393354 14.628856 -19.963039
23.277315 14.10343 -20.662642
24.132053 12.001698 -17.979723
10.468275 18.245848 -16.279554
11.562145 14.305102 -14.872122
11.950182 17.775837 -13.979357
14.05863 17.136663 -13.249476
16.155603 16.282993 -14.05258
21.545666 54.340202 -13.581415
22.164339 50.541557 -12.357178
24.577967 52.272316 -12.682421
17.723339 56.179832 -10.19966
16.209324 58.242516 -12.679842
15.093771 59.757252 -14.876416
18.580439 59.910686 -13.655864
20.259649 57.863991 -13.779724
12.407381 36.843338 -25.916943
12.823982 32.908783 -26.470531
13.537535 35.513847 -26.472818
16.027582 33.904873 -23.980301
19.065142 32.526665 -20.717457
28.880423 29.610361 -11.673554
30.630371 28.864496 -16.016102
32.213951 29.825577 -13.898143
8.109757 64.845131 -5.710832
8.362955 65.101028 -2.534789
11.167613 51.852741 -22.225941
8.974787 51.48576 -21.152943
11.141683 49.043522 -22.778095
11.379232 46.574821 -21.581665
11.543673 44.019829 -20.084156
11.180008 41.412552 -19.577618
12.719632 41.849865 -21.687689
12.500177 39.3955 -24.050619
6.174016 23.58275 -16.111691
7.017128 20.680605 -15.388596
6.322618 23.543125 -18.34107
5.496568 22.86372 -20.99762
4.570196 21.57102 -23.152088
4.972344 20.425375 -24.234055
4.388097 24.446512 -25.320017
4.537591 27.608969 -26.237305
5.133145 30.874836 -26.390768
16.028519 19.525318 -24.133041
14.792099 17.341284 -24.124226
16.653461 16.489597 -23.491158
18.00131 14.411588 -22.871117
19.934301 12.640679 -21.91942
15.742071 45.178688 -18.569952
16.497517 41.616478 -18.304098
17.789978 43.921085 -16.160442
20.114553 42.802174 -14.347282
19.124207 64.186935 -0.481743
15.872406 63.536213 -2.062578
12.573486 63.616505 -4.330734
16.070574 60.550232 -5.798059
13.103104 62.829857 -6.680262
9.949844 64.535767 -6.934235
7.346067 64.199203 -8.741096
6.033868 61.996746 -10.385254
5.768665 59.266289 -12.505371
6.309841 56.767006 -14.220335
6.071037 58.880974 -15.722609
7.18595 58.111137 -18.741777
9.153943 56.737804 -19.944315
13.724141 58.549999 -16.630819
11.853533 56.341164 -18.248011
11.356297 54.339081 -20.248041
12.996226 51.476246 -20.140289
14.351575 48.143627 -19.475031
6.120763 18.959248 -8.966599
6.697717 21.446293 -11.532403
6.110412 25.103113 -10.346701
7.551348 24.375422 -11.878833
7.451643 23.96731 -14.090899
5.932748 26.953608 -16.079401
5.37648 30.256104 -17.5581
6.982705 33.926624 -18.734243
25.864105 21.07765 -21.209316
24.257849 18.50481 -21.954651
26.420944 18.847401 -22.199532
25.997311 17.042528 -21.258015
24.861715 15.256216 -18.630424
25.38715 15.400452 -16.702692
26.43865 12.303856 -17.020348
14.948753 27.981686 -17.694433
15.495433 24.894104 -17.754559
14.890913 26.785076 -20.605734
13.031392 24.90144 -24.362507
13.372676 23.793262 -25.558723
13.398807 29.411459 -26.392578
14.017824 26.095947 -25.92392
14.814095 22.832407 -25.163759
17.487524 22.27206 -22.247318
18.998068 21.652237 -18.65885
21.395182 21.559875 -17.028843
17.86018 37.965832 -18.049145
20.241129 35.138268 -18.638912
21.155737 32.481602 -18.13645
20.848753 32.296234 -14.370418
19.723251 29.726995 -15.91527
20.266171 26.528683 -14.616379
22.015528 23.951269 -15.063787
24.342054 22.63949 -17.756819
26.800751 23.517668 -19.940649
29.308594 23.003473 -20.859308
31.09959 22.664005 -20.402836
31.721363 26.923618 -18.933327
32.548866 24.299601 -20.050091
7.208237 37.10656 -18.191189
5.751932 37.26038 -20.813421
6.953758 54.187599 -16.060711
6.54959 51.164379 -17.597012
5.927559 48.265705 -18.455067
6.296879 49.633026 -21.577061
5.241771 47.662952 -21.01441
5.363113 45.72839 -19.399803
4.885686 43.127445 -21.056879
4.514398 40.167637 -22.640659
4.401575 36.916996 -23.847
4.569835 35.928001 -25.563148
5.404895 34.733696 -25.876419
7.485074 33.622517 -23.597557
10.758703 38.719074 -19.58827
10.248242 35.974659 -19.993826
9.802335 32.860817 -20.373672
11.66895 31.658142 -18.337646
13.506701 29.998005 -17.451946
12.705374 27.214344 -16.42873
7.462686 17.093222 -13.797958
7.552302 12.708878 -12.246017
9.163492 11.805414 -17.390842
9.070899 15.390592 -19.072796
5.991888 19.327045 -24.065556
7.55916 18.889538 -22.594555
9.19104 19.023212 -19.285925
9.89024 22.325418 -18.173458
11.021948 25.04015 -16.971233
15.820025 22.204571 -16.916971
16.414349 19.487455 -16.231968
17.201864 16.546572 -15.762212
14.968534 16.473719 -22.015261
17.355808 16.073792 -18.154764
18.249651 12.735971 -15.62009
19.343433 8.486072 -15.829477
22.686098 15.679468 -21.906761
21.79705 13.223478 -21.361835
21.682747 11.479147 -18.994846
28.42053 57.648387 -10.35259
27.532224 57.539505 -11.337539
26.843598 58.134769 -10.774297
26.096457 58.598587 -10.333266
25.100943 57.804257 -9.776001
26.843598 58.134769 -10.774297
25.208151 58.489705 -11.318214
26.096457 58.598587 -10.333266
11.041007 12.480994 -15.977014
11.097746 10.466102 -15.712139
10.378334 12.624934 -16.307825
5.381191 23.349172 -7.245101
5.153075 21.815083 -7.063662
8.596024 31.883642 -13.623019
8.852227 30.149786 -12.651946
7.187305 32.014567 -14.383125
8.596024 31.883642 -13.623019
28.716978 20.281931 -19.828032
29.601187 20.946166 -19.589787
23.816496 37.893526 -14.22707
23.000422 38.58889 -15.103586
22.80865 39.236574 -13.956307
25.556207 28.33622 -12.509901
24.464702 29.235847 -11.010216
26.246992 29.218694 -11.746313
7.53959 44.509636 -16.420844
8.046569 44.530071 -15.304814
7.584557 45.97279 -15.693558
20.911996 10.389785 -17.606029
20.43368 10.77493 -17.252187
19.964954 12.048644 -18.608197
26.954567 52.975443 -11.637487
28.194952 54.217173 -11.541868
29.415785 30.420732 -10.694472
27.692804 30.778862 -10.262944
28.228165 31.589233 -9.283862
31.082549 30.52834 -11.806766
30.547187 29.717969 -12.785849
29.415785 30.420732 -10.694472
8.05754 63.78394 -4.944515
7.473928 63.761612 -6.578659
8.275927 50.012467 -13.637211
8.664544 51.240332 -12.908954
7.808882 49.957493 -14.902911
8.275927 50.012467 -13.637211
13.286238 11.707588 -14.609666
12.417791 12.066678 -15.033338
12.430591 13.946013 -14.448449
15.067508 7.324384 -15.104545
15.846809 7.105451 -15.204362
20.413217 43.730886 -13.154635
19.51945 44.425776 -14.259478
19.818114 45.354488 -13.066831
21.07746 42.07882 -13.337647
20.413217 43.730886 -13.154635
22.416369 48.673019 -11.739686
23.626425 49.657722 -11.923878
20.601369 62.953442 -0.242932
20.527442 63.350859 0.895515
15.995921 62.924911 -3.115842
17.615519 63.01066 -2.170161
17.739033 62.399358 -3.223425
15.987873 58.968556 -6.535574
17.2441 58.981058 -5.326037
17.161399 57.399382 -6.063551
6.567721 26.588132 -10.18165
5.516917 25.551164 -9.603285
26.493628 13.954887 -16.432842
25.867077 15.275308 -15.892621
27.019379 12.406588 -16.59167
25.9129 13.852154 -16.86152
26.493628 13.954887 -16.432842
27.53141 10.800387 -16.621037
27.019379 12.406588 -16.59167
20.912926 30.645719 -13.568355
21.488735 31.775088 -12.870795
21.552909 30.124573 -12.068732
33.127906 24.035592 -19.275517
33.418394 25.100693 -19.609536
32.171014 23.307172 -19.318013
33.127906 24.035592 -19.275517
15.005561 64.44956 0.951739
17.035674 64.234532 0.873699
11.949917 65.185822 2.452685
11.22045 65.340519 1.60025
8.835068 64.607403 -1.243536
8.490766 63.407512 -2.206686
6.300807 13.296093 -8.026992
6.004791 13.889758 -7.431999
7.068786 11.555259 -9.910517
6.807583 11.996764 -9.227343
7.196024 14.10181 -10.059412
7.221305 10.792977 -10.461465
7.068786 11.555259 -9.910517
7.441961 8.962913 -12.395573
7.435686 9.49098 -11.774372
7.558577 12.18081 -12.867218
7.687111 8.343035 -12.919443
7.441961 8.962913 -12.395573
8.521121 6.343382 -13.930896
8.217673 7.079077 -13.691412
8.07604 9.618513 -14.679375
9.183244 5.740384 -14.03093
8.521121 6.343382 -13.930896
8.903229 8.097525 -14.962221
9.183244 5.740384 -14.03093
29.449666 55.365129 -11.043183
28.194952 54.217173 -11.541868
27.854442 55.905166 -11.414518
24.077695 56.881821 -9.089454
22.663617 55.673059 -8.436235
23.437763 58.031086 -10.190638
24.077695 56.881821 -9.089454
25.100943 57.804257 -9.776001
7.809535 52.619252 -13.387105
8.664544 51.240332 -12.908954
11.327009 8.322187 -15.395414
10.649831 8.299341 -15.353099
11.327009 8.322187 -15.395414
11.097746 10.466102 -15.712139
16.82466 6.78767 -15.295492
15.846809 7.105451 -15.204362
15.90939 8.920023 -15.567613
17.633916 6.567777 -15.172712
16.82466 6.78767 -15.295492
18.365367 6.15194 -15.227665
17.633916 6.567777 -15.172712
17.618692 8.186405 -15.713696
19.186819 5.858625 -14.946445
18.365367 6.15194 -15.227665
20.364674 46.532951 -12.196407
19.818114 45.354488 -13.066831
19.470907 47.22784 -13.30125
17.63487 61.454785 -3.885484
17.739033 62.399358 -3.223425
5.222022 20.283378 -6.709517
5.113691 18.59191 -6.646278
5.45132 21.402764 -7.843229
5.222022 20.283378 -6.709517
5.153075 21.815083 -7.063662
8.850696 28.658563 -11.593485
7.682804 27.645197 -10.873569
8.34211 28.708465 -12.788999
8.850696 28.658563 -11.593485
8.852227 30.149786 -12.651946
5.872399 32.127457 -15.306591
7.028735 30.312579 -14.770926
7.187305 32.014567 -14.383125
5.758197 33.927141 -15.783097
5.599626 32.225153 -16.170898
5.872399 32.127457 -15.306591
27.848289 19.481395 -20.010404
28.661718 20.123927 -20.895588
28.716978 20.281931 -19.828032
27.067914 18.727447 -19.032236
27.012655 18.569443 -20.099792
27.848289 19.481395 -20.010404
22.606791 37.563229 -16.145305
21.598944 38.906277 -15.874542
23.000422 38.58889 -15.103586
23.569479 36.189064 -16.232221
22.168002 36.50645 -17.003177
22.606791 37.563229 -16.145305
22.951317 29.803657 -11.572488
24.464702 29.235847 -11.010216
22.375508 28.674289 -12.270048
21.552909 30.124573 -12.068732
22.951317 29.803657 -11.572488
33.901903 27.182236 -18.322971
34.788394 27.805532 -17.702364
10.10676 65.49313 0.79875
11.22045 65.340519 1.60025
11.229788 65.870033 0.138149
8.793924 42.817581 -14.851859
8.046569 44.530071 -15.304814
8.148259 41.392227 -15.408466
8.793924 42.817581 -14.851859
7.899691 41.562796 -16.604441
8.046349 39.888106 -15.980806
8.148259 41.392227 -15.408466
19.926655 10.677007 -17.120229
19.65783 10.945006 -16.458008
19.217813 12.70179 -17.592133
19.926655 10.677007 -17.120229
20.43368 10.77493 -17.252187
24.83324 50.523102 -12.086499
23.626425 49.657722 -11.923878
23.371153 51.406937 -12.519799
25.943686 51.732996 -12.022095
25.588847 53.514763 -12.297812
26.954567 52.975443 -11.637487
24.83324 50.523102 -12.086499
25.943686 51.732996 -12.022095
17.653146 56.286493 -7.474178
17.161399 57.399382 -6.063551
20.907818 56.147379 -8.589679
22.663617 55.673059 -8.436235
18.562229 55.68297 -8.937463
20.907818 56.147379 -8.589679
20.068928 56.644241 -9.851876
16.814256 56.783355 -8.736375
17.653146 56.286493 -7.474178
18.562229 55.68297 -8.937463
27.017955 29.864341 -10.96009
27.692804 30.778862 -10.262944
28.10946 28.964714 -12.459777
26.246992 29.218694 -11.746313
27.017955 29.864341 -10.96009
32.580307 30.644506 -12.749275
31.082549 30.52834 -11.806766
33.573334 29.933962 -14.833036
32.580307 30.644506 -12.749275
33.93969 30.752892 -13.684168
34.2243 29.252517 -16.622444
32.864918 29.144132 -15.687551
33.573334 29.933962 -14.833036
34.788394 27.805532 -17.702364
34.2243 29.252517 -16.622444
8.184138 63.911888 -3.356494
8.236356 64.973079 -4.12281
8.05754 63.78394 -4.944515
8.490766 63.407512 -2.206686
8.184138 63.911888 -3.356494
7.36452 47.250469 -16.200668
7.584557 45.97279 -15.693558
25.844425 10.553756 -16.776041
26.450346 10.573457 -16.913306
11.661282 12.313633 -15.126725
11.041007 12.480994 -15.977014
10.94187 14.472464 -15.722411
11.661282 12.313633 -15.126725
12.417791 12.066678 -15.033338
14.102488 9.533029 -15.335519
13.286238 11.707588 -14.609666
14.115288 11.412364 -14.75063
14.102488 9.533029 -15.335519
15.067508 7.324384 -15.104545
22.016471 40.643702 -13.580417
21.053564 41.367056 -14.590052
21.07746 42.07882 -13.337647
22.80865 39.236574 -13.956307
22.016471 40.643702 -13.580417
21.342934 47.605393 -11.776511
21.090903 49.47393 -12.394002
22.416369 48.673019 -11.739686
20.364674 46.532951 -12.196407
21.342934 47.605393 -11.776511
18.727781 63.71777 0.681971
20.131016 62.881693 2.059229
20.527442 63.350859 0.895515
17.4321 64.703697 -0.290015
17.035674 64.234532 0.873699
18.727781 63.71777 0.681971
19.241419 63.336021 -1.379744
20.601369 62.953442 -0.242932
17.498306 63.861574 -1.27216
19.241419 63.336021 -1.379744
17.615519 63.01066 -2.170161
17.610439 60.573096 -4.699961
17.2441 58.981058 -5.326037
16.095005 61.431921 -4.983582
17.63487 61.454785 -3.885484
17.610439 60.573096 -4.699961
7.092083 63.438648 -8.093791
7.473928 63.761612 -6.578659
7.727912 64.522167 -7.225964
6.435983 62.337419 -8.91587
7.092083 63.438648 -8.093791
6.689967 63.097974 -9.563175
6.361139 60.645654 -9.758741
6.435983 62.337419 -8.91587
6.228537 59.280426 -10.818799
6.361139 60.645654 -9.758741
5.901267 60.631518 -11.445312
6.478801 57.808523 -11.716762
6.228537 59.280426 -10.818799
6.039253 58.016648 -13.362853
6.749389 56.558882 -12.574244
6.478801 57.808523 -11.716762
5.867134 16.043326 -7.554657
6.004791 13.889758 -7.431999
5.511364 18.133358 -7.237065
5.113691 18.59191 -6.646278
5.811613 17.677453 -7.975822
5.511364 18.133358 -7.237065
5.820514 19.415153 -8.227842
6.176284 17.325121 -8.545434
5.867134 16.043326 -7.554657
5.811613 17.677453 -7.975822
5.152899 24.466842 -8.528621
5.381191 23.349172 -7.245101
5.746393 24.018791 -9.272037
5.152899 24.466842 -8.528621
5.516917 25.551164 -9.603285
7.225496 26.160178 -11.03862
6.567721 26.588132 -10.18165
7.682804 27.645197 -10.873569
26.015183 17.907585 -17.870894
27.067914 18.727447 -19.032236
25.592618 16.700064 -16.661428
25.867077 15.275308 -15.892621
25.809714 16.607973 -17.912158
26.015183 17.907585 -17.870894
25.592618 16.700064 -16.661428
26.997548 10.680842 -16.610197
26.450346 10.573457 -16.913306
25.891448 12.196471 -17.323458
26.997548 10.680842 -16.610197
27.53141 10.800387 -16.621037
22.996557 34.69574 -15.215209
23.569479 36.189064 -16.232221
21.855588 33.277714 -13.855372
21.488735 31.775088 -12.870795
21.989722 33.71426 -15.730255
22.996557 34.69574 -15.215209
21.855588 33.277714 -13.855372
30.385779 21.815937 -19.434598
29.601187 20.946166 -19.589787
30.314999 21.794234 -20.558025
33.004643 26.412702 -19.051154
32.618623 27.693153 -18.205143
33.901903 27.182236 -18.322971
32.135115 25.61161 -19.491709
33.004643 26.412702 -19.051154
33.418394 25.100693 -19.609536
31.446376 22.489374 -19.494386
31.824228 23.481803 -20.226464
32.171014 23.307172 -19.318013
30.385779 21.815937 -19.434598
31.446376 22.489374 -19.494386
30.198138 57.095901 -10.056202
28.42053 57.648387 -10.35259
30.905984 56.433166 -10.806119
30.198138 57.095901 -10.056202
29.449666 55.365129 -11.043183
30.905984 56.433166 -10.806119
13.307303 64.698042 1.470708
15.005561 64.44956 0.951739
14.041735 65.468941 0.420681
13.307303 64.698042 1.470708
11.949917 65.185822 2.452685
9.711639 65.06821 -0.307817
9.239527 65.561836 -1.59907
8.835068 64.607403 -1.243536
10.10676 65.49313 0.79875
9.711639 65.06821 -0.307817
6.130496 35.507825 -16.214419
5.758197 33.927141 -15.783097
7.286674 38.524744 -16.479107
8.046349 39.888106 -15.980806
6.991902 37.048687 -16.986311
7.286674 38.524744 -16.479107
7.503009 38.582617 -17.683985
6.34683 35.565698 -17.419297
6.130496 35.507825 -16.214419
6.991902 37.048687 -16.986311
6.981305 55.319553 -13.390236
6.749389 56.558882 -12.574244
7.303263 54.02985 -14.310424
6.981305 55.319553 -13.390236
6.631799 55.477303 -15.140523
7.46003 52.777 -15.137392
7.809535 52.619252 -13.387105
7.303263 54.02985 -14.310424
7.100526 49.856482 -16.59438
7.808882 49.957493 -14.902911
7.257946 51.26539 -15.905542
6.789511 48.407145 -17.023408
7.100526 49.856482 -16.59438
6.238575 49.715042 -18.026039
6.502568 47.109029 -17.632327
7.36452 47.250469 -16.200668
6.789511 48.407145 -17.023408
6.652314 12.722253 -8.652977
6.300807 13.296093 -8.026992
6.583314 15.117154 -8.750253
6.652314 12.722253 -8.652977
6.807583 11.996764 -9.227343
7.268842 10.317263 -11.213181
7.221305 10.792977 -10.461465
7.504765 13.184592 -11.494301
7.268842 10.317263 -11.213181
7.435686 9.49098 -11.774372
7.790981 7.693768 -13.395179
7.687111 8.343035 -12.919443
7.668721 11.003476 -13.964156
7.790981 7.693768 -13.395179
8.217673 7.079077 -13.691412
8.646719 9.943149 -16.697233
8.903229 8.097525 -14.962221
8.122979 10.728442 -16.653872
9.295231 9.558823 -16.198212
8.646719 9.943149 -16.697233
8.514981 12.18974 -17.889863
10.014041 8.897028 -16.027045
9.295231 9.558823 -16.198212
9.799282 11.207728 -16.716896
10.649831 8.299341 -15.353099
10.014041 8.897028 -16.027045
19.683464 6.216376 -14.976859
19.186819 5.858625 -14.946445
18.846788 8.128321 -15.799063
19.855053 8.703148 -15.907791
19.146211 10.727931 -16.379695
19.65783 10.945006 -16.458008
20.205952 6.496518 -14.992463
19.855053 8.703148 -15.907791
19.683464 6.216376 -14.976859
20.205952 6.496518 -14.992463
25.238329 10.510063 -16.952618
24.738149 12.045392 -17.803145
25.844425 10.553756 -16.776041
24.586559 10.588686 -16.915205
25.238329 10.510063 -16.952618
23.971853 10.541512 -17.21144
23.517347 11.954524 -18.275958
24.586559 10.588686 -16.915205
23.342372 10.537218 -17.31541
23.971853 10.541512 -17.21144
22.732425 10.323116 -17.526737
22.292694 11.693249 -18.783519
23.342372 10.537218 -17.31541
22.076166 10.255191 -17.563728
22.732425 10.323116 -17.526737
21.456427 10.347367 -17.547325
21.063008 11.571323 -18.978443
22.076166 10.255191 -17.563728
20.911996 10.389785 -17.606029
21.456427 10.347367 -17.547325
3 0 87 85
3 339 90 340
3 341 340 88
3 339 340 341
3 342 92 343
3 344 88 345
3 346 345 92
3 344 345 346
3 1 96 94
3 1 99 97
3 1 94 99
3 3 103 101
3 3 105 103
3 2 108 106
3 4 347 349
3 349 348 109
3 347 348 349
3 5 112 110
3 5 113 112
3 6 116 114
3 8 119 117
3 8 121 119
3 8 123 121
3 6 126 124
3 6 114 126
3 350 129 351
3 352 131 353
3 355 354 131
3 357 356 133
3 12 137 135
3 14 140 138
3 14 142 140
3 360 359 143
3 358 359 360
3 15 361 363
3 361 145 362
3 361 362 363
3 15 147 145
3 15 149 147
3 7 152 150
3 16 364 366
3 364 153 365
3 364 365 366
3 16 155 153
3 9 158 156
3 17 161 159
3 17 163 161
3 17 165 163
3 12 168 166
3 12 135 168
3 10 172 170
3 19 175 173
3 19 177 175
3 19 179 177
3 18 182 180
3 18 184 182
3 13 187 185
3 20 190 188
3 20 367 369
3 369 368 190
3 367 368 369
3 11 193 191
3 21 196 194
3 23 197 86
3 23 198 197
3 24 201 199
3 371 370 89
3 26 202 91
3 26 203 202
3 26 205 203
3 24 206 93
3 24 199 206
3 28 209 207
3 30 210 95
3 30 211 210
3 372 212 373
3 372 373 374
3 375 214 376
3 377 376 212
3 375 376 377
3 379 378 215
3 32 380 381
3 32 382 383
3 33 219 217
3 35 220 98
3 35 221 220
3 35 223 221
3 28 224 100
3 28 207 224
3 37 227 225
3 39 228 102
3 39 229 228
3 39 231 229
3 41 232 104
3 41 233 232
3 42 236 234
3 44 237 107
3 44 238 237
3 22 384 386
3 386 385 195
3 384 385 386
3 388 387 111
3 45 241 239
3 389 242 390
3 391 390 115
3 389 390 391
3 393 392 242
3 395 394 200
3 396 243 397
3 48 398 400
3 398 244 399
3 398 399 400
3 48 245 244
3 25 401 403
3 401 246 402
3 401 402 403
3 49 247 118
3 49 248 247
3 49 249 248
3 50 250 120
3 50 251 250
3 50 253 251
3 52 254 122
3 52 255 254
3 27 256 204
3 53 257 125
3 53 258 257
3 53 259 258
3 45 260 127
3 45 239 260
3 55 261 128
3 55 262 261
3 404 263 405
3 56 264 130
3 56 265 264
3 56 266 265
3 57 267 132
3 57 268 267
3 58 271 269
3 60 272 134
3 60 273 272
3 406 274 407
3 408 275 409
3 410 409 274
3 408 409 410
3 412 411 275
3 61 278 276
3 63 279 136
3 63 280 279
3 29 281 208
3 64 282 139
3 64 283 282
3 64 284 283
3 65 285 141
3 65 286 285
3 46 287 240
3 66 288 144
3 66 289 288
3 67 413 415
3 413 290 414
3 413 414 415
3 67 291 290
3 67 292 291
3 68 293 146
3 68 294 293
3 68 295 294
3 69 296 148
3 69 297 296
3 31 298 213
3 416 299 417
3 419 418 299
3 47 420 421
3 423 422 151
3 425 424 216
3 70 300 154
3 70 301 300
3 51 302 252
3 71 303 157
3 71 304 303
3 34 305 218
3 72 306 160
3 72 307 306
3 72 308 307
3 73 309 162
3 73 310 309
3 73 311 310
3 74 312 164
3 74 313 312
3 36 314 222
3 75 315 167
3 75 316 315
3 75 317 316
3 61 318 169
3 61 276 318
3 54 426 427
3 77 428 430
3 430 429 171
3 428 429 430
3 77 431 432
3 38 320 226
3 78 321 174
3 78 433 435
3 435 434 321
3 433 434 435
3 78 436 437
3 79 438 440
3 440 439 176
3 438 439 440
3 79 441 442
3 79 443 444
3 80 322 178
3 80 323 322
3 40 324 230
3 81 325 181
3 81 326 325
3 81 327 326
3 76 328 183
3 76 319 328
3 62 329 277
3 82 330 186
3 82 331 330
3 43 332 235
3 83 333 189
3 83 334 333
3 83 335 334
3 59 336 270
3 84 337 192
3 84 338 337
3 85 86 21
3 87 86 85
3 87 23 86
3 88 89 24
3 90 89 88
3 90 445 447
3 447 446 89
3 445 446 447
3 448 91 449
3 92 450 452
3 450 91 451
3 450 451 452
3 92 26 91
3 92 93 26
3 88 93 92
3 88 24 93
3 94 95 28
3 96 95 94
3 96 30 95
3 453 32 454
3 97 98 33
3 99 98 97
3 99 35 98
3 99 100 35
3 94 100 99
3 94 28 100
3 101 102 37
3 103 102 101
3 103 39 102
3 103 104 39
3 105 104 103
3 105 41 104
3 106 107 42
3 108 107 106
3 108 44 107
3 109 455 456
3 458 457 109
3 110 111 22
3 112 111 110
3 112 459 461
3 461 460 111
3 459 460 461
3 112 462 463
3 113 464 466
3 466 465 112
3 464 465 466
3 113 467 468
3 114 115 45
3 116 115 114
3 116 469 471
3 471 470 115
3 469 470 471
3 472 48 473
3 117 118 25
3 119 118 117
3 119 49 118
3 119 120 49
3 121 120 119
3 121 50 120
3 121 122 50
3 123 122 121
3 123 52 122
3 124 125 27
3 126 125 124
3 126 53 125
3 126 127 53
3 114 127 126
3 114 45 127
3 474 128 475
3 129 476 478
3 476 128 477
3 476 477 478
3 129 55 128
3 479 130 480
3 131 481 483
3 481 130 482
3 481 482 483
3 131 56 130
3 131 132 56
3 484 132 485
3 486 485 131
3 484 485 486
3 487 57 488
3 489 488 132
3 487 488 489
3 133 134 58
3 490 134 491
3 492 491 133
3 490 491 492
3 493 60 494
3 495 494 134
3 493 494 495
3 135 136 61
3 137 136 135
3 137 63 136
3 138 139 29
3 140 139 138
3 140 64 139
3 140 141 64
3 142 141 140
3 142 65 141
3 143 144 46
3 496 144 497
3 498 497 143
3 496 497 498
3 499 66 500
3 501 500 144
3 499 500 501
3 145 502 503
3 145 504 506
3 504 67 505
3 504 505 506
3 145 146 67
3 147 146 145
3 147 68 146
3 147 148 68
3 149 148 147
3 149 69 148
3 508 507 31
3 150 151 47
3 152 151 150
3 152 509 511
3 511 510 151
3 509 510 511
3 153 512 513
3 153 514 515
3 153 516 518
3 516 154 517
3 516 517 518
3 155 154 153
3 155 70 154
3 156 157 51
3 158 157 156
3 158 71 157
3 159 160 34
3 161 160 159
3 161 72 160
3 161 162 72
3 163 162 161
3 163 73 162
3 163 164 73
3 165 164 163
3 165 74 164
3 166 167 36
3 168 167 166
3 168 75 167
3 168 169 75
3 135 169 168
3 135 61 169
3 170 171 54
3 172 171 170
3 172 77 171
3 173 174 38
3 175 174 173
3 175 78 174
3 175 176 78
3 177 176 175
3 177 79 176
3 177 178 79
3 179 178 177
3 179 80 178
3 180 181 40
3 182 181 180
3 182 81 181
3 182 183 81
3 184 183 182
3 184 76 183
3 185 186 62
3 187 186 185
3 187 82 186
3 188 189 43
3 190 189 188
3 190 83 189
3 190 519 521
3 521 520 83
3 519 520 521
3 523 522 190
3 191 192 59
3 193 192 191
3 193 84 192
3 194 195 4
3 196 195 194
3 196 22 195
3 86 196 21
3 197 196 86
3 197 22 196
3 197 110 22
3 198 110 197
3 198 5 110
3 199 200 6
3 201 200 199
3 201 524 526
3 526 525 200
3 524 525 526
3 89 201 24
3 527 201 528
3 529 528 89
3 527 528 529
3 531 530 201
3 532 25 533
3 91 534 535
3 202 536 538
3 538 537 91
3 536 537 538
3 202 539 541
3 539 25 540
3 539 540 541
3 202 117 25
3 203 117 202
3 203 8 117
3 203 204 8
3 205 204 203
3 205 27 204
3 93 205 26
3 206 205 93
3 206 27 205
3 206 124 27
3 199 124 206
3 199 6 124
3 207 208 12
3 209 208 207
3 209 29 208
3 95 209 28
3 210 209 95
3 210 29 209
3 210 138 29
3 211 138 210
3 211 14 138
3 212 542 543
3 212 544 546
3 544 15 545
3 544 545 546
3 212 213 15
3 214 213 212
3 214 31 213
3 547 214 548
3 549 214 550
3 549 550 551
3 552 31 553
3 554 553 214
3 552 553 554
3 556 555 31
3 215 216 7
3 557 216 558
3 559 558 215
3 557 558 559
3 561 560 216
3 562 16 563
3 217 218 9
3 219 218 217
3 219 34 218
3 98 219 33
3 220 219 98
3 220 34 219
3 220 159 34
3 221 159 220
3 221 17 159
3 221 222 17
3 223 222 221
3 223 36 222
3 100 223 35
3 224 223 100
3 224 36 223
3 224 166 36
3 207 166 224
3 207 12 166
3 225 226 10
3 227 226 225
3 227 38 226
3 102 227 37
3 228 227 102
3 228 38 227
3 228 173 38
3 229 173 228
3 229 19 173
3 229 230 19
3 231 230 229
3 231 40 230
3 104 231 39
3 232 231 104
3 232 40 231
3 232 180 40
3 233 180 232
3 233 18 180
3 234 235 13
3 236 235 234
3 236 43 235
3 107 236 42
3 237 236 107
3 237 43 236
3 237 188 43
3 238 188 237
3 238 20 188
3 565 564 11
3 195 566 568
3 568 567 4
3 566 567 568
3 570 569 195
3 111 571 573
3 573 572 22
3 571 572 573
3 575 574 111
3 239 240 1
3 241 240 239
3 241 46 240
3 115 241 45
3 242 241 115
3 242 46 241
3 242 143 46
3 576 143 577
3 578 577 242
3 576 577 578
3 580 579 143
3 200 116 6
3 581 116 582
3 583 582 200
3 581 582 583
3 585 584 116
3 243 586 588
3 586 587 588
3 243 589 591
3 589 47 590
3 589 590 591
3 592 243 593
3 244 594 596
3 594 243 595
3 594 595 596
3 244 47 243
3 244 150 47
3 245 150 244
3 245 7 150
3 246 597 598
3 246 599 601
3 599 48 600
3 599 600 601
3 118 246 25
3 247 246 118
3 247 48 246
3 247 245 48
3 248 245 247
3 248 7 245
3 248 215 7
3 249 215 248
3 249 602 604
3 604 603 215
3 602 603 604
3 120 249 49
3 250 249 120
3 250 605 607
3 607 606 249
3 605 606 607
3 250 608 609
3 251 610 612
3 612 611 250
3 610 611 612
3 251 613 614
3 251 615 617
3 615 252 616
3 615 616 617
3 253 252 251
3 253 51 252
3 122 253 50
3 254 253 122
3 254 51 253
3 254 156 51
3 255 156 254
3 255 9 156
3 204 123 8
3 256 123 204
3 256 52 123
3 125 256 27
3 257 256 125
3 257 52 256
3 257 255 52
3 258 255 257
3 258 9 255
3 258 217 9
3 259 217 258
3 259 33 217
3 127 259 53
3 260 259 127
3 260 33 259
3 260 97 33
3 239 97 260
3 239 1 97
3 618 54 619
3 128 620 621
3 261 622 624
3 624 623 128
3 622 623 624
3 261 625 627
3 625 54 626
3 625 626 627
3 261 170 54
3 262 170 261
3 262 10 170
3 628 129 629
3 263 630 632
3 630 129 631
3 630 631 632
3 263 55 129
3 130 633 635
3 633 263 634
3 633 634 635
3 264 263 130
3 264 55 263
3 264 262 55
3 265 262 264
3 265 10 262
3 265 225 10
3 266 225 265
3 266 37 225
3 132 266 56
3 267 266 132
3 267 37 266
3 267 101 37
3 268 101 267
3 268 3 101
3 269 270 2
3 271 270 269
3 271 59 270
3 134 271 58
3 272 271 134
3 272 59 271
3 272 191 59
3 273 191 272
3 273 11 191
3 636 60 637
3 274 638 639
3 274 640 642
3 640 60 641
3 640 641 642
3 274 273 60
3 275 273 274
3 275 11 273
3 275 643 645
3 645 644 11
3 643 644 645
3 647 646 275
3 276 277 0
3 278 277 276
3 278 62 277
3 136 278 61
3 279 278 136
3 279 62 278
3 279 185 62
3 280 185 279
3 280 13 185
3 208 137 12
3 281 137 208
3 281 63 137
3 139 281 29
3 282 281 139
3 282 63 281
3 282 280 63
3 283 280 282
3 283 13 280
3 283 234 13
3 284 234 283
3 284 42 234
3 141 284 64
3 285 284 141
3 285 42 284
3 285 106 42
3 286 106 285
3 286 2 106
3 240 96 1
3 287 96 240
3 287 30 96
3 144 287 46
3 288 287 144
3 288 30 287
3 288 211 30
3 289 211 288
3 289 14 211
3 648 66 649
3 290 650 651
3 290 652 654
3 652 66 653
3 652 653 654
3 290 289 66
3 291 289 290
3 291 14 289
3 291 142 14
3 292 142 291
3 292 65 142
3 146 292 67
3 293 292 146
3 293 65 292
3 293 286 65
3 294 286 293
3 294 2 286
3 294 269 2
3 295 269 294
3 295 58 269
3 148 295 68
3 296 295 148
3 296 58 295
3 296 133 58
3 297 133 296
3 297 655 657
3 657 656 133
3 655 656 657
3 213 149 15
3 298 149 213
3 298 69 149
3 658 298 659
3 660 659 31
3 658 659 660
3 299 661 663
3 661 298 662
3 661 662 663
3 299 69 298
3 299 297 69
3 664 297 665
3 666 665 299
3 664 665 666
3 668 667 297
3 669 90 670
3 671 90 672
3 674 673 90
3 151 675 677
3 677 676 47
3 675 676 677
3 679 678 151
3 216 152 7
3 680 152 681
3 682 681 216
3 680 681 682
3 684 683 152
3 685 57 686
3 154 687 688
3 300 689 691
3 691 690 154
3 689 690 691
3 300 692 694
3 692 57 693
3 692 693 694
3 300 268 57
3 301 268 300
3 301 3 268
3 252 695 696
3 302 697 699
3 699 698 252
3 697 698 699
3 302 700 702
3 700 32 701
3 700 701 702
3 157 302 51
3 303 302 157
3 303 32 302
3 303 703 705
3 705 704 32
3 703 704 705
3 304 706 708
3 708 707 303
3 706 707 708
3 304 709 711
3 709 16 710
3 709 710 711
3 218 158 9
3 305 158 218
3 305 71 158
3 160 305 34
3 306 305 160
3 306 71 305
3 306 304 71
3 307 304 306
3 307 16 304
3 307 155 16
3 308 155 307
3 308 70 155
3 162 308 72
3 309 308 162
3 309 70 308
3 309 301 70
3 310 301 309
3 310 3 301
3 310 105 3
3 311 105 310
3 311 41 105
3 164 311 73
3 312 311 164
3 312 41 311
3 312 233 41
3 313 233 312
3 313 18 233
3 222 165 17
3 314 165 222
3 314 74 165
3 167 314 36
3 315 314 167
3 315 74 314
3 315 313 74
3 316 313 315
3 316 18 313
3 316 184 18
3 317 184 316
3 317 76 184
3 169 317 75
3 318 317 169
3 318 76 317
3 318 319 76
3 276 319 318
3 276 0 319
3 171 712 714
3 714 713 54
3 712 713 714
3 716 715 171
3 226 172 10
3 320 172 226
3 320 77 172
3 174 320 38
3 321 320 174
3 321 77 320
3 321 717 719
3 719 718 77
3 717 718 719
3 721 720 321
3 176 722 724
3 724 723 78
3 722 723 724
3 726 725 176
3 178 727 729
3 729 728 79
3 727 728 729
3 322 730 732
3 732 731 178
3 730 731 732
3 322 733 734
3 322 735 737
3 735 109 736
3 735 736 737
3 323 109 322
3 323 4 109
3 230 179 19
3 324 179 230
3 324 80 179
3 181 324 40
3 325 324 181
3 325 80 324
3 325 323 80
3 326 323 325
3 326 4 323
3 326 194 4
3 327 194 326
3 327 21 194
3 183 327 81
3 328 327 183
3 328 21 327
3 328 85 21
3 319 85 328
3 319 0 85
3 277 87 0
3 329 87 277
3 329 23 87
3 186 329 62
3 330 329 186
3 330 23 329
3 330 198 23
3 331 198 330
3 331 5 198
3 235 187 13
3 332 187 235
3 332 82 187
3 189 332 43
3 333 332 189
3 333 82 332
3 333 331 82
3 334 331 333
3 334 5 331
3 334 113 5
3 335 113 334
3 335 738 740
3 740 739 113
3 738 739 740
3 741 335 742
3 743 742 83
3 741 742 743
3 744 335 745
3 747 746 335
3 270 108 2
3 336 108 270
3 336 44 108
3 192 336 59
3 337 336 192
3 337 44 336
3 337 238 44
3 338 238 337
3 338 20 238
3 748 193 749
3 750 749 11
3 748 749 750
3 751 193 752
3 753 84 754
3 755 754 193
3 753 754 755
3 756 84 757
3 758 338 759
3 760 759 84
3 758 759 760
3 761 338 762
3 763 20 764
3 765 764 338
3 763 764 765
3 767 766 20
