ply
format ascii 1.0
element vertex 948
property float x
property float y
property float z
element face 905
property list uchar int vertex_index
end_header
-9.795679 -46.759651 6.500587
-20.492023 -61.981457 22.137423
-22.053761 -22.147312 -22.157974
-35.277695 -41.365887 -10.725772
-14.933123 -54.549263 8.208758
-43.342674 -70.458748 22.172649
-20.062887 -41.290447 -10.044857
-24.076029 -37.175339 -14.799502
-11.595513 -44.216808 1.511055
-19.932978 -60.253918 14.71209
-7.667762 -58.383942 10.483903
-28.280878 -23.475311 -26.959827
-29.194996 -42.780151 -18.26861
-36.845158 -31.8971 -18.223808
-26.259991 -30.580145 -20.537716
-44.722652 -72.959106 25.82402
-10.449237 -45.906456 3.859542
-34.010368 -81.021683 33.153503
-32.344368 -81.130783 29.047113
-20.68107 -60.576607 18.443073
-13.56033 -62.49007 23.133381
-14.067508 -60.244263 20.749065
-13.051096 -57.714985 18.26594
-21.167704 -15.290342 -26.703192
-20.782764 -18.868856 -26.214046
-22.76016 -23.039099 -26.227146
-30.511871 -37.144772 -22.960468
-30.573761 -39.314232 -11.583014
-25.25316 -34.080334 -17.488548
-31.839746 -35.012806 -15.029922
-31.991177 -30.444935 -18.032627
-36.683346 -36.783176 -14.886658
-10.868327 -51.293648 5.708243
-14.146353 -50.736561 3.924859
-42.469261 -73.556679 18.175831
-40.983456 -70.219666 16.992697
-41.062561 -67.113388 15.08163
-37.5397 -77.525406 29.096384
-39.930485 -75.485855 26.06513
-41.077732 -74.437294 22.391083
-16.046398 -36.564758 -10.395082
-17.401407 -33.914879 -12.583822
-18.685078 -32.126743 -14.707672
-22.24687 -39.309334 -12.046737
-27.878651 -42.422859 -8.591564
-32.39621 -45.174908 -6.927153
-19.478592 -61.702862 10.475173
-6.564081 -60.158142 14.042358
-13.519847 -57.654274 13.697522
-14.33855 -59.261314 9.874414
-8.640003 -48.564785 8.790149
-8.44182 -53.135387 7.204516
-11.040385 -56.758045 9.417599
-35.254902 -43.155544 -15.075793
-34.733021 -38.03632 -19.751257
-34.960793 -32.013832 -23.481813
-36.931141 -26.996365 -21.245703
-19.680859 -30.273386 -17.210119
-20.77858 -28.482767 -20.158539
-21.936665 -26.204914 -23.18923
-27.245228 -27.295914 -23.992075
-32.216942 -25.965084 -21.484718
-10.061708 -46.420605 5.151874
-35.003544 -82.399612 29.864277
-32.674519 -82.128197 31.606625
-20.820312 -61.273857 20.254698
-21.861332 -63.887524 17.07855
-22.057053 -64.846214 18.929749
-17.184566 -60.906334 23.333786
-14.436358 -61.583118 21.744579
-17.780575 -60.318829 21.615063
-17.689808 -59.296181 20.08363
-23.431534 -21.184763 -22.980413
-21.65416 -19.029472 -24.498363
-20.941814 -20.539118 -24.220903
-21.518047 -20.94549 -26.292414
-20.906473 -22.319492 -24.083698
-33.156536 -40.057091 -10.604841
-31.405762 -37.283409 -13.364705
-34.177227 -37.816299 -12.502515
-34.651295 -35.571682 -14.29287
-36.20536 -39.217606 -12.813013
-12.934255 -52.981121 7.152411
-15.036158 -53.039368 6.048959
-17.41663 -54.755554 6.733613
-41.235027 -71.839378 20.366032
-41.469299 -72.119537 17.388226
-41.455547 -70.11216 19.63106
-41.627296 -65.689232 13.86648
-39.965797 -75.758553 30.135202
-38.99881 -76.015602 27.675364
-41.411846 -74.742104 28.50824
-44.402302 -71.57988 24.047058
-42.206318 -72.835815 24.671902
-41.62656 -72.132713 22.685278
-41.796673 -74.040039 20.330166
-16.422115 -40.000885 -10.489268
-17.04277 -38.469311 -11.360784
-16.707336 -35.085327 -11.476718
-17.939434 -37.358192 -12.457346
-18.709553 -36.589569 -13.588194
-21.203497 -40.194344 -10.966395
-26.22254 -43.967083 -7.43398
-30.272879 -43.607571 -7.425233
-15.35733 -50.036598 2.658578
-41.029659 -80.337204 22.759123
-19.805538 -60.673767 12.488383
-17.095013 -57.8372 16.775267
-12.988238 -57.17461 16.17942
-17.112709 -57.998951 14.556867
-17.077183 -58.940788 12.282904
-7.530115 -50.728935 7.154109
-6.632697 -57.301765 9.331575
-8.191641 -56.256401 8.386775
-9.392912 -57.708748 9.538202
-12.869162 -58.145039 9.615112
-11.28887 -58.652901 10.46726
-20.279217 -14.852324 -28.056637
-20.156204 -12.743104 -28.186081
-33.00172 -46.180668 -14.708551
-32.432308 -43.320774 -16.97459
-35.038059 -40.592575 -17.426111
-31.963146 -40.49424 -19.293123
-32.59161 -34.207146 -24.973602
-32.556206 -34.444546 -23.549299
-34.048908 -31.598114 -25.407627
-35.638489 -29.603241 -25.212589
-20.311312 -35.060123 -16.012548
-19.228203 -31.152872 -15.924591
-21.069157 -34.118141 -17.257597
-25.696466 -32.322281 -18.951519
-22.475771 -31.609497 -19.854849
-23.212688 -30.242184 -21.242702
-21.318996 -27.46969 -21.599672
-23.998257 -28.818771 -22.78343
-24.556757 -27.246485 -24.247559
-26.833654 -28.956446 -22.270983
-34.768303 -30.755457 -17.326181
-32.122356 -28.111902 -19.670904
-34.71394 -28.467447 -18.819998
-34.612438 -25.957409 -20.453686
-36.852936 -29.428036 -19.766945
-16.829315 -56.239983 8.568769
-10.961772 -45.019257 2.618808
-32.260296 -80.796089 35.066231
-31.550003 -80.20372 32.781467
-20.223083 -60.151501 16.650705
-21.422276 -63.379967 15.211408
-10.211156 -62.22459 21.051443
-9.672692 -60.967278 19.712273
-9.50665 -59.837181 18.187794
-13.402298 -58.798779 19.805414
-17.333834 -58.283661 18.675545
-24.216516 -17.222668 -26.625233
-22.787409 -18.002014 -25.41029
-20.74032 -16.934423 -26.342739
-25.668661 -23.566719 -27.251917
-29.370533 -39.966351 -20.657461
-27.606899 -38.428822 -13.042746
-24.818861 -35.839821 -16.153036
-28.375355 -36.669357 -14.702936
-28.688938 -34.569309 -16.175312
-28.955292 -32.36747 -17.594265
-29.209326 -30.368484 -19.144199
-31.959278 -32.678421 -16.501925
-34.796829 -33.192513 -15.878972
-36.893524 -34.448383 -16.669437
-8.938016 -49.042198 5.0238
-10.146426 -48.907604 3.814812
-12.649389 -51.166729 4.926527
-17.075275 -52.574409 5.051675
-41.97953 -68.85891 18.599817
-40.816147 -68.577042 16.271738
-35.90522 -79.811684 30.994205
-36.977928 -81.159027 27.760614
-38.15815 -79.257721 26.229229
-39.529747 -78.316689 24.747156
-40.619881 -77.555069 23.682192
-42.318787 -74.003395 26.538548
-40.451942 -74.738312 24.396168
-41.483498 -76.760155 22.167627
-21.696402 -65.720352 20.764032
-20.920845 -66.199982 22.636257
-15.581897 -38.187805 -6.121695
-16.684668 -37.298645 -7.307515
-15.311383 -37.784077 -9.374662
-17.665833 -36.218739 -8.400392
-18.720625 -35.168049 -9.503866
-19.683397 -34.098167 -10.669642
-20.510977 -32.981758 -11.851048
-21.011372 -32.002617 -12.845167
-18.064121 -33.008556 -13.620874
-19.509348 -35.759502 -14.77226
-23.182673 -38.248817 -13.400516
-23.910103 -42.293564 -9.001379
-25.322477 -41.058098 -10.226194
-26.587101 -39.845882 -11.529776
-29.427555 -40.939262 -9.949997
-31.904028 -41.813694 -8.889996
-34.067741 -43.217178 -8.638515
-11.195305 -48.358982 2.791348
-11.903865 -47.613716 1.732832
-7.237764 -59.167259 12.175932
-9.254347 -58.843269 16.535542
-9.636527 -58.126881 14.397171
-10.706897 -58.384502 12.113852
-13.958181 -58.849922 11.674069
-17.006935 -60.322197 10.247146
-17.84067 -60.20332 8.849836
-9.210055 -47.717121 7.565997
-8.14178 -49.897194 6.101468
-9.670908 -52.056995 6.571622
-11.236376 -53.743378 8.265598
-7.290739 -54.231438 7.637951
-9.706118 -54.989056 8.459328
-13.077655 -55.438408 9.368219
-14.904943 -57.096367 9.428386
-16.44166 -58.62841 9.087743
-22.080606 -14.122602 -27.482861
-35.465485 -44.440624 -10.233926
-35.122017 -45.521202 -12.542497
-36.335297 -42.187412 -12.76136
-36.703979 -40.002556 -15.023077
-36.808922 -37.626095 -17.217041
-36.653503 -35.112274 -19.155294
-31.746876 -37.644753 -21.509731
-34.561539 -35.179516 -21.625683
-36.580536 -32.315422 -20.940077
-36.800629 -29.614094 -22.480734
-22.870981 -23.65073 -20.683472
-21.495136 -30.819225 -13.84597
-21.613752 -29.531925 -15.026378
-21.648144 -28.348904 -16.333946
-21.760666 -32.854668 -18.553989
-20.233313 -29.404846 -18.596205
-21.434383 -27.192327 -17.785046
-21.212391 -26.073856 -19.367191
-21.129892 -25.064545 -21.016911
-20.924946 -23.765158 -22.619699
-22.368443 -24.693249 -24.705349
-25.127575 -25.39941 -25.737421
-27.778757 -25.437916 -25.530764
-29.430593 -28.357983 -20.904657
-29.654858 -26.587337 -22.819685
-30.088724 -24.863106 -24.65115
-32.238731 -24.143627 -23.500742
-34.569443 -23.98609 -22.361071
-9.928693 -46.590128 5.826231
-9.351043 -45.37773 6.047104
-9.218028 -45.547252 6.72146
-34.589607 -82.764175 28.94576
-35.623848 -82.91156 28.21467
-41.115784 -75.360882 30.197983
-39.97093 -75.903485 31.054809
-41.838808 -74.852657 29.384501
-40.688822 -75.250328 29.321721
-41.115784 -75.360882 30.197983
-18.552829 -39.879879 -10.702821
-18.076313 -40.706253 -10.507435
-19.586371 -42.116821 -9.849472
-12.652027 -43.806764 2.136389
-12.128193 -43.938263 2.676213
-11.876297 -43.768369 0.983176
-12.652027 -43.806764 2.136389
-41.31122 -81.093155 21.118049
-41.610941 -79.776879 22.008628
-20.338732 -62.09537 12.873309
-20.275012 -62.305294 11.761456
-19.869258 -60.463842 13.600237
-20.587919 -13.896127 -29.152273
-21.333786 -15.069975 -29.266102
-29.05615 -22.350867 -27.487514
-27.757309 -22.494974 -27.689262
-29.482636 -23.260435 -26.680913
-29.05615 -22.350867 -27.487514
-29.502156 -44.531526 -17.108181
-28.260724 -44.408004 -17.609885
-30.813652 -43.050462 -17.6216
-31.120812 -44.801838 -16.461171
-29.502156 -44.531526 -17.108181
-34.811166 -32.118736 -25.580089
-33.320259 -32.90263 -25.190615
-34.082518 -33.423253 -25.363077
-35.35913 -30.824571 -25.689214
-34.811166 -32.118736 -25.580089
-19.059738 -57.516323 7.95557
-17.709612 -57.220627 8.441945
-10.912195 -44.866467 4.394175
-10.233136 -45.040957 4.936829
-10.705504 -45.462857 3.239175
-11.168463 -44.422867 3.773808
-10.912195 -44.866467 4.394175
-33.135332 -80.908886 34.109867
-33.118807 -80.259991 35.623691
-33.993843 -80.372788 34.667327
-32.062296 -79.73864 29.435837
-31.665114 -79.275109 31.303013
-31.947186 -80.667251 30.91429
-32.572209 -80.167359 27.84101
-32.062296 -79.73864 29.435837
-21.040203 -65.06724 15.244089
-21.223236 -65.334967 16.015672
-11.838928 -63.036396 22.536743
-11.40622 -63.756723 22.971589
-23.813273 -19.231628 -24.746731
-24.649591 -18.934654 -25.28635
-21.017772 -17.971493 -27.29808
-20.99655 -17.004276 -27.362427
-20.761542 -17.90164 -26.278393
-21.662716 -19.045447 -27.363743
-21.017772 -17.971493 -27.29808
-23.47219 -22.240749 -27.162804
-22.851134 -21.193944 -27.195438
-22.139103 -21.992294 -26.25978
-24.21441 -23.302909 -26.739531
-24.926441 -22.504559 -27.675189
-23.47219 -22.240749 -27.162804
-18.292496 -53.565922 5.363613
-16.055717 -52.806888 5.550317
-17.272937 -53.798401 5.862255
-19.058682 -53.428059 4.735392
-18.292496 -53.565922 5.363613
-43.077126 -73.487282 16.980801
-43.410261 -74.140774 17.603395
-41.603626 -71.195843 15.78645
-41.846548 -72.145779 15.984215
-41.226377 -71.169601 17.190461
-40.98599 -70.338311 15.590577
-41.603626 -71.195843 15.78645
-42.984696 -68.666809 18.975636
-42.939341 -69.292103 19.55284
-40.939354 -67.845215 15.676684
-41.480568 -68.150322 16.881273
-41.603775 -67.418495 16.286219
-40.817951 -67.76907 14.315421
-40.694744 -68.500897 14.910475
-40.939354 -67.845215 15.676684
-41.062853 -66.818802 13.849687
-40.817951 -67.76907 14.315421
-41.800573 -65.332939 12.807147
-41.911283 -65.022053 13.317079
-36.72246 -78.668545 30.045295
-36.863703 -78.560231 31.341501
-37.680943 -77.417091 30.392591
-43.520719 -73.481251 26.181284
-43.215025 -74.049881 27.300224
-44.416957 -73.527737 26.94296
-41.82768 -75.24078 21.415265
-42.030563 -76.40221 21.303537
-41.280615 -75.598725 22.279355
-42.820782 -74.480378 18.447483
-42.484488 -74.722058 19.52465
-42.132967 -73.798359 19.252998
-43.410261 -74.140774 17.603395
-42.820782 -74.480378 18.447483
-19.817723 -64.556767 24.185918
-20.301063 -64.381222 23.296314
-15.193186 -38.565366 -7.189687
-15.044154 -39.235323 -6.651194
-15.744571 -38.120787 -7.782597
-16.133282 -37.743225 -6.714605
-15.193186 -38.565366 -7.189687
-24.187926 -43.945898 -7.782428
-23.183087 -42.962278 -8.522609
-14.104995 -48.4836 1.507242
-13.630598 -48.825157 2.195705
-15.831727 -49.695042 1.970114
-12.115681 -47.135469 1.175056
-14.104995 -48.4836 1.507242
-20.392337 -63.084086 9.357935
-19.688988 -61.983745 9.661322
-21.327645 -66.934792 18.736159
-21.281769 -67.467026 19.620936
-5.604614 -59.606039 13.339182
-5.436543 -60.02583 14.233966
-6.900923 -59.6627 13.109145
-5.941456 -59.110597 12.405969
-5.604614 -59.606039 13.339182
-19.688988 -61.983745 9.661322
-18.453159 -61.293413 9.547308
-18.242763 -61.012529 10.361159
-8.173367 -47.334158 9.15222
-8.30432 -47.826517 9.946679
-8.925029 -48.140953 8.178073
-8.458393 -46.910326 8.540144
-8.173367 -47.334158 9.15222
-6.766492 -54.774847 8.244093
-6.911224 -53.424087 8.591658
-20.465598 -11.941968 -28.318924
-20.396639 -11.893224 -29.284276
-35.030417 -46.063011 -10.141728
-34.866423 -45.401968 -9.17308
-36.321005 -28.643914 -24.630406
-36.6646 -28.694552 -25.470842
-23.292117 -24.408353 -19.946978
-24.541227 -24.408687 -20.414502
-36.868561 -26.096288 -21.770112
-35.687712 -24.591151 -22.327796
-35.750292 -25.491228 -21.803387
-10.039371 -45.298031 5.582995
-9.351043 -45.37773 6.047104
-10.255472 -46.163531 4.505708
-10.233136 -45.040957 4.936829
-10.039371 -45.298031 5.582995
-33.425095 -82.628467 29.816934
-33.839031 -82.263904 30.735451
-34.589607 -82.764175 28.94576
-33.260019 -82.129761 28.537178
-32.509444 -81.62949 30.326869
-33.425095 -82.628467 29.816934
-33.16609 -81.449226 27.41083
-33.260019 -82.129761 28.537178
-21.321096 -65.814312 16.941271
-21.223236 -65.334967 16.015672
-21.959193 -64.366869 18.00415
-22.542847 -20.107118 -23.739388
-23.246648 -19.745356 -24.290768
-24.135335 -20.823002 -23.531793
-18.463173 -54.656494 6.204581
-17.272937 -53.798401 5.862255
-16.226394 -53.897461 6.391286
-41.597582 -66.822319 15.641445
-41.603775 -67.418495 16.286219
-41.87995 -66.110241 15.03387
-41.344929 -66.40131 14.474055
-41.597582 -66.822319 15.641445
-41.838766 -65.374306 14.46384
-41.87995 -66.110241 15.03387
-41.911283 -65.022053 13.317079
-41.838766 -65.374306 14.46384
-38.893991 -76.533665 30.912
-39.97093 -75.903485 31.054809
-38.752749 -76.64198 29.615793
-37.680943 -77.417091 30.392591
-38.893991 -76.533665 30.912
-17.765985 -41.47204 -10.071677
-17.313986 -42.339187 -9.973189
-16.732443 -39.235098 -10.925026
-17.765985 -41.47204 -10.071677
-18.076313 -40.706253 -10.507435
-26.257208 -45.719229 -6.560384
-25.344145 -44.782657 -6.998729
-27.280385 -44.730698 -6.866215
-26.257208 -45.719229 -6.560384
-28.108441 -43.958585 -7.445007
-27.050596 -43.194971 -8.012772
-27.280385 -44.730698 -6.866215
-29.305554 -44.550942 -6.861842
-29.075765 -43.015215 -8.008399
-28.108441 -43.958585 -7.445007
-30.331573 -45.290647 -6.632737
-29.305554 -44.550942 -6.861842
-31.393239 -46.074316 -6.383697
-31.334544 -44.391239 -7.176193
-30.331573 -45.290647 -6.632737
-16.924269 -51.064514 3.226637
-14.751841 -50.386579 3.291718
-16.31878 -51.414496 3.859777
-17.485024 -50.805164 2.426462
-16.924269 -51.064514 3.226637
-15.831727 -49.695042 1.970114
-17.485024 -50.805164 2.426462
-40.457798 -81.670536 21.861421
-40.088133 -80.938976 23.321075
-40.457798 -81.670536 21.861421
-41.31122 -81.093155 21.118049
-20.147095 -62.50959 10.775639
-19.983621 -63.024137 9.769034
-19.642065 -61.188315 11.481778
-20.147095 -62.50959 10.775639
-20.275012 -62.305294 11.761456
-6.390453 -60.586597 14.89857
-5.436543 -60.02583 14.233966
-8.355989 -48.953522 9.36467
-8.30432 -47.826517 9.946679
-7.801045 -50.035596 8.54665
-8.085059 -49.64686 7.972129
-8.355989 -48.953522 9.36467
-7.256046 -51.16941 7.720784
-7.801045 -50.035596 8.54665
-7.711899 -52.372636 7.745988
-7.985968 -51.932161 7.179312
-7.256046 -51.16941 7.720784
-7.412169 -56.779083 8.859175
-7.216943 -55.787329 8.618505
-6.437471 -56.310011 9.090905
-20.526413 -12.841518 -29.216996
-20.21771 -13.797714 -28.121359
-20.587919 -13.896127 -29.152273
-20.396639 -11.893224 -29.284276
-20.526413 -12.841518 -29.216996
-31.405518 -46.231785 -15.328152
-31.960694 -47.651104 -14.287458
-32.717014 -44.750721 -15.84157
-31.405518 -46.231785 -15.328152
-31.120812 -44.801838 -16.461171
-36.153921 -29.827135 -25.591695
-34.843699 -30.600677 -25.310108
-35.35913 -30.824571 -25.689214
-36.6646 -28.694552 -25.470842
-36.153921 -29.827135 -25.591695
-18.146769 -56.481173 7.833961
-17.198673 -55.635813 7.653956
-15.881219 -55.394623 8.388763
-18.146769 -56.481173 7.833961
-19.059738 -57.516323 7.95557
-43.620913 -70.092022 21.339256
-44.671239 -70.478688 22.493559
-45.358068 -72.774963 26.580931
-44.416957 -73.527737 26.94296
-45.690126 -72.198017 25.41907
-45.358068 -72.774963 26.580931
-45.529951 -71.508404 24.530589
-44.562477 -72.269493 24.935539
-45.690126 -72.198017 25.41907
-45.201054 -71.039254 23.430764
-45.529951 -71.508404 24.530589
-44.671239 -70.478688 22.493559
-43.872488 -71.019314 23.109853
-45.201054 -71.039254 23.430764
-20.614557 -43.332743 -8.970963
-19.586371 -42.116821 -9.849472
-21.259479 -42.46072 -9.044348
-20.614557 -43.332743 -8.970963
-11.811322 -44.339488 3.23009
-11.168463 -44.422867 3.773808
-11.278643 -44.618032 2.064932
-12.128193 -43.938263 2.676213
-11.811322 -44.339488 3.23009
-32.361273 -79.960258 36.614235
-33.118807 -80.259991 35.623691
-31.97108 -79.873348 35.599821
-32.361273 -79.960258 36.614235
-31.615934 -79.577164 34.457439
-31.97108 -79.873348 35.599821
-31.90515 -80.499904 33.923849
-31.595897 -78.771393 33.235052
-31.615934 -79.577164 34.457439
-31.595897 -78.771393 33.235052
-31.665114 -79.275109 31.303013
-32.572209 -80.167359 27.84101
-33.16609 -81.449226 27.41083
-20.594451 -61.816468 14.955445
-20.449398 -61.867676 13.986137
-20.07803 -60.202709 15.681397
-21.194047 -63.430701 14.235796
-20.594451 -61.816468 14.955445
-20.822679 -61.765734 15.931057
-20.631897 -64.999649 13.218552
-21.194047 -63.430701 14.235796
-20.820675 -64.813462 14.310518
-21.641804 -63.633746 16.144979
-21.040203 -65.06724 15.244089
-20.631897 -64.999649 13.218552
-20.820675 -64.813462 14.310518
-12.276941 -62.58292 21.842342
-11.838928 -63.036396 22.536743
-13.998344 -62.036594 22.43898
-10.164341 -62.903656 21.495773
-12.276941 -62.58292 21.842342
-12.323757 -61.903854 21.398011
-8.06112 -62.957763 20.7864
-10.164341 -62.903656 21.495773
-8.110781 -62.498867 20.056524
-8.06112 -62.957763 20.7864
-7.841549 -61.870211 19.386939
-8.110781 -62.498867 20.056524
-9.941924 -61.595934 20.381858
-7.897601 -61.419577 18.597026
-7.841549 -61.870211 19.386939
-9.589671 -60.40223 18.950033
-7.81458 -60.854529 17.834786
-7.897601 -61.419577 18.597026
-6.104921 -56.587173 10.076127
-6.437471 -56.310011 9.090905
-5.950605 -57.669565 10.140771
-6.104921 -56.587173 10.076127
-6.468137 -58.210653 10.716935
-7.15023 -57.842854 9.907739
-5.950605 -57.669565 10.140771
-25.364145 -18.544981 -25.893821
-26.171197 -18.065055 -26.227882
-23.501962 -17.612341 -26.017761
-25.364145 -18.544981 -25.893821
-24.649591 -18.934654 -25.28635
-22.220785 -18.515743 -24.954327
-23.813273 -19.231628 -24.746731
-23.246648 -19.745356 -24.290768
-20.765999 -15.963226 -28.219375
-20.509768 -15.893373 -27.199688
-20.99655 -17.004276 -27.362427
-21.333786 -15.069975 -29.266102
-20.765999 -15.963226 -28.219375
-22.030357 -20.083764 -27.402926
-21.662716 -19.045447 -27.363743
-21.150405 -19.907173 -26.25323
-22.030357 -20.083764 -27.402926
-22.851134 -21.193944 -27.195438
-26.4512 -22.540678 -27.835307
-24.926441 -22.504559 -27.675189
-26.97477 -23.521015 -27.105872
-27.757309 -22.494974 -27.689262
-26.4512 -22.540678 -27.835307
-28.611274 -42.787662 -18.874928
-28.260724 -44.408004 -17.609885
-28.699042 -41.380763 -20.069354
-29.282764 -41.373251 -19.463036
-28.611274 -42.787662 -18.874928
-29.514421 -39.988024 -21.284331
-28.699042 -41.380763 -20.069354
-30.08509 -38.577235 -22.435834
-29.941202 -38.555562 -21.808965
-29.514421 -39.988024 -21.284331
-31.172072 -37.373709 -23.43714
-30.08509 -38.577235 -22.435834
-32.211941 -35.904896 -24.443706
-31.551741 -35.675959 -23.967035
-31.172072 -37.373709 -23.43714
-33.635261 -34.70343 -24.994043
-32.211941 -35.904896 -24.443706
-34.082518 -33.423253 -25.363077
-33.635261 -34.70343 -24.994043
-17.783241 -52.33342 4.423186
-16.31878 -51.414496 3.859777
-15.610814 -51.655485 4.488267
-17.783241 -52.33342 4.423186
-19.058682 -53.428059 4.735392
-18.440426 -55.738958 6.916383
-16.174876 -54.652408 7.471185
-17.198673 -55.635813 7.653956
-19.538988 -55.682384 6.430549
-18.440426 -55.738958 6.916383
-18.463173 -54.656494 6.204581
-19.538988 -55.682384 6.430549
-42.577145 -72.768711 16.586999
-43.077126 -73.487282 16.980801
-41.96928 -72.838108 17.782028
-42.577145 -72.768711 16.586999
-41.846548 -72.145779 15.984215
-42.677349 -69.918728 20.068462
-42.399111 -70.285454 20.901854
-43.620913 -70.092022 21.339256
-41.717539 -69.485535 19.115439
-42.677349 -69.918728 20.068462
-42.939341 -69.292103 19.55284
-42.062259 -68.291256 18.045313
-42.984696 -68.666809 18.975636
-41.397838 -68.717976 17.435778
-42.062259 -68.291256 18.045313
-41.480568 -68.150322 16.881273
-40.902336 -69.516998 15.230097
-40.98599 -70.338311 15.590577
-40.899801 -69.398354 16.632217
-40.902336 -69.516998 15.230097
-40.694744 -68.500897 14.910475
-41.34522 -66.106724 13.242112
-41.062853 -66.818802 13.849687
-41.344929 -66.40131 14.474055
-41.34522 -66.106724 13.242112
-41.800573 -65.332939 12.807147
-34.891286 -79.918941 33.42503
-33.993843 -80.372788 34.667327
-35.838712 -79.313942 32.345381
-36.863703 -78.560231 31.341501
-34.957794 -80.416684 32.073854
-34.891286 -79.918941 33.42503
-35.838712 -79.313942 32.345381
-36.61104 -82.291268 27.162838
-35.623848 -82.91156 28.21467
-35.990736 -81.779319 28.812446
-37.412895 -81.940808 26.515718
-36.61104 -82.291268 27.162838
-38.003006 -80.990155 25.750026
-37.412895 -81.940808 26.515718
-37.568039 -80.208374 26.994922
-38.652378 -80.399235 25.056128
-38.003006 -80.990155 25.750026
-39.338177 -79.928719 24.315092
-38.652378 -80.399235 25.056128
-38.843948 -78.787205 25.488193
-40.279703 -79.326946 23.753139
-40.088133 -80.938976 23.321075
-39.338177 -79.928719 24.315092
-41.406052 -78.385811 22.470163
-41.610941 -79.776879 22.008628
-40.82477 -78.946136 23.220658
-42.761555 -74.419235 28.28507
-41.838808 -74.852657 29.384501
-41.865316 -74.372749 27.523394
-42.761555 -74.419235 28.28507
-43.215025 -74.049881 27.300224
-41.83786 -77.988354 21.71288
-41.406052 -78.385811 22.470163
-41.051689 -77.157612 22.924909
-42.269279 -77.424473 20.939296
-41.83786 -77.988354 21.71288
-42.269279 -77.424473 20.939296
-42.030563 -76.40221 21.303537
-42.187151 -75.042152 20.384806
-41.82768 -75.24078 21.415265
-41.437202 -74.238666 21.360625
-42.187151 -75.042152 20.384806
-42.484488 -74.722058 19.52465
-20.688841 -64.141407 22.360202
-21.094212 -63.850904 21.450727
-20.086652 -62.271959 23.046897
-21.308623 -65.960167 21.700145
-20.688841 -64.141407 22.360202
-20.301063 -64.381222 23.296314
-20.893991 -67.70684 20.557049
-21.281769 -67.467026 19.620936
-21.308623 -65.960167 21.700145
-20.539904 -66.467381 23.390217
-19.817723 -64.556767 24.185918
-20.759339 -68.188068 21.389726
-20.539904 -66.467381 23.390217
-20.893991 -67.70684 20.557049
-20.759339 -68.188068 21.389726
-12.801621 -63.014622 23.77834
-11.40622 -63.756723 22.971589
-14.809599 -61.948782 24.051961
-12.801621 -63.014622 23.77834
-16.621717 -61.156914 24.152164
-15.372448 -61.698202 23.233584
-14.809599 -61.948782 24.051961
-18.432923 -61.734398 23.645079
-16.621717 -61.156914 24.152164
-20.086652 -62.271959 23.046897
-18.838294 -61.443895 22.735605
-18.432923 -61.734398 23.645079
-25.152377 -21.976855 -22.766774
-24.135335 -20.823002 -23.531793
-24.325998 -22.243177 -22.227018
-25.152377 -21.976855 -22.766774
-23.637112 -22.724451 -21.815798
-22.742648 -21.666038 -22.569193
-24.325998 -22.243177 -22.227018
-14.944672 -38.660538 -5.628236
-15.044154 -39.235323 -6.651194
-17.001146 -39.209006 -5.296762
-14.944672 -38.660538 -5.628236
-17.755215 -39.004429 -5.932005
-17.001146 -39.209006 -5.296762
-18.3066 -38.559849 -6.524915
-17.755215 -39.004429 -5.932005
-16.133282 -37.743225 -6.714605
-18.938251 -38.188969 -7.196636
-18.3066 -38.559849 -6.524915
-16.179776 -40.745701 -9.976039
-17.313986 -42.339187 -9.973189
-15.624409 -39.637297 -9.418737
-16.179776 -40.745701 -9.976039
-15.866749 -38.892481 -9.931965
-15.057928 -38.363503 -8.81617
-15.624409 -39.637297 -9.418737
-15.998025 -37.541361 -8.341089
-15.744571 -38.120787 -7.782597
-15.057928 -38.363503 -8.81617
-19.428834 -37.649016 -7.743075
-18.938251 -38.188969 -7.196636
-17.17525 -36.758692 -7.853954
-20.002681 -37.156906 -8.385112
-19.428834 -37.649016 -7.743075
-20.530077 -36.631562 -8.93685
-20.002681 -37.156906 -8.385112
-18.193229 -35.693394 -8.952129
-21.007238 -36.110006 -9.600648
-20.530077 -36.631562 -8.93685
-21.488625 -35.575065 -10.183535
-21.007238 -36.110006 -9.600648
-19.202011 -34.633108 -10.086754
-21.773635 -34.943933 -10.8876
-21.488625 -35.575065 -10.183535
-22.187425 -34.385729 -11.478303
-21.773635 -34.943933 -10.8876
-20.097187 -33.539963 -11.260345
-22.402974 -33.667059 -12.173957
-22.187425 -34.385729 -11.478303
-20.761175 -32.492188 -12.348108
-22.653171 -33.177488 -12.671017
-22.402974 -33.667059 -12.173957
-21.829783 -41.912668 -9.505118
-20.633192 -40.742396 -10.505626
-21.259479 -42.46072 -9.044348
-22.5568 -41.243954 -9.983887
-21.829783 -41.912668 -9.505118
-23.183087 -42.962278 -8.522609
-25.066322 -43.130324 -8.217679
-24.187926 -43.945898 -7.782428
-25.344145 -44.782657 -6.998729
-11.644634 -45.83824 1.618044
-11.432818 -46.316486 2.17582
-12.115681 -47.135469 1.175056
-11.961505 -45.437016 1.064167
-11.278643 -44.618032 2.064932
-11.644634 -45.83824 1.618044
-12.083665 -44.86729 0.470014
-11.961505 -45.437016 1.064167
-11.876297 -43.768369 0.983176
-12.083665 -44.86729 0.470014
-20.392337 -63.084086 9.357935
-19.983621 -63.024137 9.769034
-20.338732 -62.09537 12.873309
-20.449398 -61.867676 13.986137
-21.507971 -66.497723 17.819018
-21.876728 -65.283283 19.846891
-21.327645 -66.934792 18.736159
-21.321096 -65.814312 16.941271
-21.507971 -66.497723 17.819018
-6.253139 -58.602312 11.56295
-5.941456 -59.110597 12.405969
-7.452763 -58.7756 11.329918
-6.468137 -58.210653 10.716935
-6.253139 -58.602312 11.56295
-7.861738 -60.426117 16.971288
-7.81458 -60.854529 17.834786
-7.735586 -59.929161 16.145162
-7.861738 -60.426117 16.971288
-9.380498 -59.340225 17.361668
-7.909214 -59.500705 15.28895
-6.390453 -60.586597 14.89857
-7.735586 -59.929161 16.145162
-18.870027 -61.233975 8.848654
-17.423803 -60.262759 9.548491
-18.453159 -61.293413 9.547308
-19.396321 -61.08182 8.454697
-18.870027 -61.233975 8.848654
-8.877902 -45.940199 7.311928
-9.218028 -45.547252 6.72146
-8.58509 -46.418934 7.844633
-8.458393 -46.910326 8.540144
-9.502867 -47.238386 7.033292
-8.877902 -45.940199 7.311928
-8.58509 -46.418934 7.844633
-7.136358 -52.920662 7.962706
-6.911224 -53.424087 8.591658
-7.86628 -53.683413 7.421233
-7.711899 -52.372636 7.745988
-7.136358 -52.920662 7.962706
-7.74119 -55.243919 8.012363
-6.766492 -54.774847 8.244093
-7.216943 -55.787329 8.618505
-16.747426 -57.648819 8.871754
-17.709612 -57.220627 8.441945
-15.867129 -56.668175 8.998577
-17.515784 -58.41484 8.701432
-16.747426 -57.648819 8.871754
-15.673301 -57.862389 9.258064
-18.209742 -59.394753 8.536996
-17.515784 -58.41484 8.701432
-18.909247 -60.182208 8.418043
-18.209742 -59.394753 8.536996
-17.141165 -59.415865 8.968789
-19.396321 -61.08182 8.454697
-18.909247 -60.182208 8.418043
-25.02027 -16.826832 -27.119684
-26.171197 -18.065055 -26.227882
-23.952315 -15.276799 -27.548499
-25.02027 -16.826832 -27.119684
-23.148561 -15.672635 -27.054047
-22.784068 -13.789165 -28.091045
-23.952315 -15.276799 -27.548499
-21.427799 -12.631716 -27.967314
-21.118405 -13.432853 -27.834471
-20.465598 -11.941968 -28.318924
-22.784068 -13.789165 -28.091045
-21.427799 -12.631716 -27.967314
-32.447178 -46.689187 -6.738259
-31.393239 -46.074316 -6.383697
-33.331786 -45.76911 -7.519693
-32.447178 -46.689187 -6.738259
-34.167551 -44.790245 -8.375374
-33.231976 -44.196043 -7.782834
-33.331786 -45.76911 -7.519693
-34.766613 -43.828901 -9.436221
-34.167551 -44.790245 -8.375374
-34.866423 -45.401968 -9.17308
-33.227045 -47.359515 -13.483063
-31.960694 -47.651104 -14.287458
-34.287194 -47.029781 -12.400036
-33.227045 -47.359515 -13.483063
-34.061869 -45.850935 -13.625524
-34.858683 -46.6033 -11.296013
-34.287194 -47.029781 -12.400036
-35.293751 -44.980913 -11.388212
-35.030417 -46.063011 -10.141728
-34.858683 -46.6033 -11.296013
-36.902075 -28.64934 -23.264478
-36.219559 -29.608668 -23.846662
-36.321005 -28.643914 -24.630406
-36.967331 -27.340476 -22.646963
-36.865885 -28.30523 -21.863219
-36.902075 -28.64934 -23.264478
-36.868561 -26.096288 -21.770112
-36.967331 -27.340476 -22.646963
-24.045722 -23.47616 -21.078547
-24.541227 -24.408687 -20.414502
-22.462371 -22.899021 -21.420723
-23.637112 -22.724451 -21.815798
-24.045722 -23.47616 -21.078547
-22.859649 -32.550789 -13.241167
-22.653171 -33.177488 -12.671017
-23.101531 -31.959093 -13.741568
-22.859649 -32.550789 -13.241167
-21.253254 -31.410921 -13.345568
-23.252815 -31.305594 -14.273672
-23.101531 -31.959093 -13.741568
-23.312123 -30.661943 -14.863876
-23.252815 -31.305594 -14.273672
-21.554444 -30.175575 -14.436174
-23.340764 -29.839429 -15.380667
-23.312123 -30.661943 -14.863876
-23.35796 -29.247919 -16.034451
-23.340764 -29.839429 -15.380667
-21.630948 -28.940415 -15.680162
-23.264953 -28.437821 -16.553488
-23.35796 -29.247919 -16.034451
-23.158072 -27.859532 -17.279038
-23.264953 -28.437821 -16.553488
-21.541263 -27.770615 -17.059496
-22.977277 -27.011779 -17.830157
-23.158072 -27.859532 -17.279038
-22.866281 -26.452544 -18.621229
-22.977277 -27.011779 -17.830157
-21.323387 -26.633091 -18.576118
-22.462822 -25.619916 -19.288837
-22.866281 -26.452544 -18.621229
-22.421573 -25.11526 -20.113698
-22.462822 -25.619916 -19.288837
-21.171142 -25.569201 -20.192051
-22.000436 -24.357637 -20.850192
-23.292117 -24.408353 -19.946978
-22.421573 -25.11526 -20.113698
-30.386558 -23.954332 -25.526575
-29.482636 -23.260435 -26.680913
-29.184801 -24.169208 -25.805489
-31.461562 -23.594593 -24.95137
-30.386558 -23.954332 -25.526575
-31.163728 -24.503366 -24.075946
-32.515472 -23.326985 -24.557769
-31.461562 -23.594593 -24.95137
-33.680828 -23.248216 -23.987933
-32.515472 -23.326985 -24.557769
-33.404087 -24.064858 -22.930906
-34.422844 -23.138385 -23.654873
-33.680828 -23.248216 -23.987933
-34.422844 -23.138385 -23.654873
-35.687712 -24.591151 -22.327796
3 0 247 249
3 247 62 248
3 247 248 249
3 251 250 63
3 1 67 65
3 1 70 68
3 1 65 70
3 2 74 72
3 2 76 74
3 3 79 77
3 3 81 79
3 4 84 82
3 5 87 85
3 252 89 253
3 254 91 255
3 256 255 89
3 254 255 256
3 5 94 92
3 5 85 94
3 6 257 259
3 257 97 258
3 257 258 259
3 6 99 97
3 6 101 99
3 8 260 261
3 8 262 263
3 265 264 105
3 9 266 268
3 268 267 106
3 266 267 268
3 9 109 107
3 9 106 109
3 10 114 112
3 10 116 114
3 270 269 117
3 11 271 272
3 11 273 274
3 12 275 276
3 12 277 279
3 277 120 278
3 277 278 279
3 12 122 120
3 280 125 281
3 282 281 123
3 280 281 282
3 284 283 125
3 7 129 127
3 14 132 130
3 14 134 132
3 14 136 134
3 13 139 137
3 13 141 139
3 286 285 142
3 16 287 288
3 16 289 291
3 289 143 290
3 289 290 291
3 17 292 294
3 292 144 293
3 292 293 294
3 18 145 64
3 18 295 297
3 297 296 145
3 295 296 297
3 18 298 299
3 19 147 146
3 301 300 66
3 20 302 303
3 21 148 69
3 21 149 148
3 21 151 149
3 19 152 71
3 19 146 152
3 304 154 305
3 24 155 73
3 24 306 308
3 308 307 155
3 306 307 308
3 24 309 310
3 25 311 313
3 313 312 75
3 311 312 313
3 25 314 316
3 314 156 315
3 314 315 316
3 27 160 158
3 29 161 78
3 29 162 161
3 29 164 162
3 31 165 80
3 31 166 165
3 32 169 167
3 317 170 318
3 319 318 83
3 317 318 319
3 321 320 170
3 34 322 323
3 35 324 326
3 326 325 86
3 324 325 326
3 35 327 328
3 329 171 330
3 36 331 333
3 331 172 332
3 331 332 333
3 36 334 336
3 336 335 172
3 334 335 336
3 36 337 338
3 340 339 88
3 37 341 343
3 341 173 342
3 341 342 343
3 37 174 173
3 37 175 174
3 38 176 90
3 38 177 176
3 15 344 346
3 344 178 345
3 344 345 346
3 39 179 93
3 39 180 179
3 39 347 349
3 349 348 180
3 347 348 349
3 34 350 352
3 352 351 95
3 350 351 352
3 34 353 354
3 355 182 356
3 357 183 358
3 359 184 360
3 361 360 183
3 359 360 361
3 40 185 96
3 40 186 185
3 40 187 186
3 41 188 98
3 41 189 188
3 41 191 189
3 43 192 100
3 43 193 192
3 362 194 363
3 44 195 102
3 44 196 195
3 44 197 196
3 45 198 103
3 45 199 198
3 33 200 168
3 364 201 365
3 366 365 104
3 364 365 366
3 368 367 201
3 46 369 370
3 372 371 181
3 47 373 374
3 47 375 377
3 375 202 376
3 375 376 377
3 22 203 150
3 48 204 108
3 48 205 204
3 48 206 205
3 46 207 110
3 46 378 380
3 380 379 207
3 378 379 380
3 50 381 382
3 50 383 385
3 383 209 384
3 383 384 385
3 50 210 209
3 51 211 111
3 51 212 211
3 386 213 387
3 52 214 113
3 52 215 214
3 52 216 215
3 49 217 115
3 49 208 217
3 23 218 153
3 389 388 118
3 390 219 391
3 53 220 119
3 53 221 220
3 53 222 221
3 54 223 121
3 54 224 223
3 26 225 157
3 55 226 124
3 55 227 226
3 55 228 227
3 393 392 126
3 394 229 395
3 42 230 190
3 57 231 128
3 57 232 231
3 28 233 159
3 58 234 131
3 58 235 234
3 58 236 235
3 59 237 133
3 59 238 237
3 59 239 238
3 60 240 135
3 60 241 240
3 30 242 163
3 61 243 138
3 61 244 243
3 61 245 244
3 56 246 140
3 56 396 398
3 398 397 246
3 396 397 398
3 62 399 400
3 62 401 403
3 401 16 402
3 401 402 403
3 63 64 17
3 404 64 405
3 406 405 63
3 404 405 406
3 407 18 408
3 409 408 64
3 407 408 409
3 411 410 18
3 65 66 19
3 67 66 65
3 67 412 414
3 414 413 66
3 412 413 414
3 68 69 20
3 70 69 68
3 70 21 69
3 70 71 21
3 65 71 70
3 65 19 71
3 72 415 417
3 415 73 416
3 415 416 417
3 74 73 72
3 74 24 73
3 74 75 24
3 76 75 74
3 76 25 75
3 77 78 27
3 79 78 77
3 79 29 78
3 79 80 29
3 81 80 79
3 81 31 80
3 82 83 32
3 84 83 82
3 84 418 420
3 420 419 83
3 418 419 420
3 85 86 34
3 87 86 85
3 87 35 86
3 421 36 422
3 423 88 424
3 425 424 36
3 423 424 425
3 426 88 427
3 429 428 88
3 89 430 431
3 89 432 434
3 432 37 433
3 432 433 434
3 89 90 37
3 91 90 89
3 91 38 90
3 92 93 15
3 94 93 92
3 94 39 93
3 94 95 39
3 85 95 94
3 85 34 95
3 435 96 436
3 97 437 439
3 437 96 438
3 437 438 439
3 97 40 96
3 97 98 40
3 99 98 97
3 99 41 98
3 99 100 41
3 101 100 99
3 101 43 100
3 440 102 441
3 442 102 443
3 444 44 445
3 446 445 102
3 444 445 446
3 447 103 448
3 449 448 44
3 447 448 449
3 450 103 451
3 452 45 453
3 454 453 103
3 452 453 454
3 455 104 456
3 457 456 33
3 455 456 457
3 458 104 459
3 461 460 104
3 105 462 463
3 465 464 105
3 106 466 468
3 468 467 46
3 466 467 468
3 470 469 106
3 471 47 472
3 107 108 22
3 109 108 107
3 109 48 108
3 109 110 48
3 106 110 109
3 106 46 110
3 473 50 474
3 475 111 476
3 477 476 50
3 475 476 477
3 478 111 479
3 480 51 481
3 482 481 111
3 480 481 482
3 112 483 485
3 483 113 484
3 483 484 485
3 114 113 112
3 114 52 113
3 114 115 52
3 116 115 114
3 116 49 115
3 117 118 23
3 486 118 487
3 488 487 117
3 486 487 488
3 490 489 118
3 491 119 492
3 120 493 495
3 493 119 494
3 493 494 495
3 120 53 119
3 120 121 53
3 122 121 120
3 122 54 121
3 123 124 26
3 125 124 123
3 125 55 124
3 125 126 55
3 496 126 497
3 498 497 125
3 496 497 498
3 500 499 126
3 127 128 42
3 129 128 127
3 129 57 128
3 130 131 28
3 132 131 130
3 132 58 131
3 132 133 58
3 134 133 132
3 134 59 133
3 134 135 59
3 136 135 134
3 136 60 135
3 137 138 30
3 139 138 137
3 139 61 138
3 139 140 61
3 141 140 139
3 141 56 140
3 142 501 503
3 503 502 4
3 501 502 503
3 505 504 142
3 507 506 5
3 508 15 509
3 510 15 511
3 512 92 513
3 514 513 15
3 512 513 514
3 515 92 516
3 517 5 518
3 519 518 92
3 517 518 519
3 520 6 521
3 523 522 6
3 143 524 525
3 143 526 528
3 526 8 527
3 526 527 528
3 144 529 530
3 144 531 532
3 64 144 17
3 145 144 64
3 145 533 535
3 535 534 144
3 533 534 535
3 145 536 537
3 539 538 145
3 541 540 18
3 146 542 544
3 544 543 9
3 542 543 544
3 147 545 547
3 547 546 146
3 545 546 547
3 147 548 549
3 66 147 19
3 550 147 551
3 552 551 66
3 550 551 552
3 554 553 147
3 69 555 557
3 557 556 20
3 555 556 557
3 148 558 560
3 560 559 69
3 558 559 560
3 148 561 562
3 148 563 564
3 149 565 567
3 567 566 148
3 565 566 567
3 149 568 569
3 149 570 572
3 570 150 571
3 570 571 572
3 151 150 149
3 151 22 150
3 71 151 21
3 152 151 71
3 152 22 151
3 152 107 22
3 146 107 152
3 146 9 107
3 573 112 574
3 575 112 576
3 577 10 578
3 579 578 112
3 577 578 579
3 580 153 581
3 154 582 584
3 582 153 583
3 582 583 584
3 154 23 153
3 73 585 587
3 585 154 586
3 585 586 587
3 155 154 73
3 155 23 154
3 155 117 23
3 588 117 589
3 590 589 155
3 588 589 590
3 592 591 117
3 75 593 595
3 595 594 24
3 593 594 595
3 597 596 75
3 156 598 599
3 156 600 602
3 600 11 601
3 600 601 602
3 603 12 604
3 605 157 606
3 607 606 12
3 605 606 607
3 608 157 609
3 610 26 611
3 612 611 157
3 610 611 612
3 613 26 614
3 615 123 616
3 617 616 26
3 615 616 617
3 618 123 619
3 621 620 123
3 158 159 7
3 160 159 158
3 160 28 159
3 78 160 27
3 161 160 78
3 161 28 160
3 161 130 28
3 162 130 161
3 162 14 130
3 162 163 14
3 164 163 162
3 164 30 163
3 80 164 29
3 165 164 80
3 165 30 164
3 165 137 30
3 166 137 165
3 166 13 137
3 167 168 0
3 169 168 167
3 169 33 168
3 83 169 32
3 170 169 83
3 170 33 169
3 170 622 624
3 624 623 33
3 622 623 624
3 626 625 170
3 627 84 628
3 629 628 4
3 627 628 629
3 630 84 631
3 633 632 84
3 86 634 636
3 636 635 34
3 634 635 636
3 638 637 86
3 639 87 640
3 641 640 5
3 639 640 641
3 171 642 644
3 642 87 643
3 642 643 644
3 171 35 87
3 645 171 646
3 172 647 649
3 647 171 648
3 647 648 649
3 172 35 171
3 172 650 652
3 652 651 35
3 650 651 652
3 654 653 172
3 88 655 657
3 657 656 36
3 655 656 657
3 659 658 88
3 660 17 661
3 173 662 663
3 173 664 666
3 664 17 665
3 664 665 666
3 173 63 17
3 174 63 173
3 174 667 669
3 669 668 63
3 667 668 669
3 174 670 671
3 175 672 674
3 674 673 174
3 672 673 674
3 175 675 676
3 90 175 37
3 176 175 90
3 176 677 679
3 679 678 175
3 677 678 679
3 176 680 682
3 680 105 681
3 680 681 682
3 177 105 176
3 177 683 685
3 685 684 105
3 683 684 685
3 686 91 687
3 178 688 690
3 688 91 689
3 688 689 690
3 178 38 91
3 93 178 15
3 179 178 93
3 179 38 178
3 179 177 38
3 180 177 179
3 180 691 693
3 693 692 177
3 691 692 693
3 180 694 695
3 697 696 180
3 95 698 700
3 700 699 39
3 698 699 700
3 702 701 95
3 703 181 704
3 705 704 1
3 703 704 705
3 182 706 708
3 706 181 707
3 706 707 708
3 182 709 711
3 711 710 181
3 709 710 711
3 712 182 713
3 714 182 715
3 717 716 182
3 718 20 719
3 720 20 721
3 722 68 723
3 724 723 20
3 722 723 724
3 725 68 726
3 727 1 728
3 729 728 68
3 727 728 729
3 730 72 731
3 732 72 733
3 734 2 735
3 736 735 72
3 734 735 736
3 183 737 738
3 183 739 740
3 183 741 742
3 184 743 745
3 745 744 183
3 743 744 745
3 184 746 747
3 96 748 749
3 185 750 752
3 752 751 96
3 750 751 752
3 185 753 754
3 185 755 757
3 755 184 756
3 755 756 757
3 186 184 185
3 186 758 760
3 760 759 184
3 758 759 760
3 186 761 762
3 187 763 765
3 765 764 186
3 763 764 765
3 187 766 767
3 98 187 40
3 188 187 98
3 188 768 770
3 770 769 187
3 768 769 770
3 188 771 772
3 189 773 775
3 775 774 188
3 773 774 775
3 189 776 777
3 189 778 780
3 778 190 779
3 778 779 780
3 191 190 189
3 191 42 190
3 100 191 41
3 192 191 100
3 192 42 191
3 192 127 42
3 193 127 192
3 193 7 127
3 781 101 782
3 783 782 6
3 781 782 783
3 194 784 786
3 784 101 785
3 784 785 786
3 194 43 101
3 102 787 789
3 787 194 788
3 787 788 789
3 195 194 102
3 195 43 194
3 195 193 43
3 196 193 195
3 196 7 193
3 196 158 7
3 197 158 196
3 197 27 158
3 103 197 44
3 198 197 103
3 198 27 197
3 198 77 27
3 199 77 198
3 199 3 77
3 168 62 0
3 200 62 168
3 200 16 62
3 104 200 33
3 201 200 104
3 201 16 200
3 201 143 16
3 790 143 791
3 792 791 201
3 790 791 792
3 793 8 794
3 795 794 143
3 793 794 795
3 796 8 797
3 799 798 8
3 801 800 46
3 803 802 9
3 181 67 1
3 804 67 805
3 806 805 181
3 804 805 806
3 808 807 67
3 202 809 810
3 202 811 813
3 811 10 812
3 811 812 813
3 150 814 815
3 203 816 818
3 818 817 150
3 816 817 818
3 203 819 821
3 819 47 820
3 819 820 821
3 108 203 22
3 204 203 108
3 204 47 203
3 204 202 47
3 205 202 204
3 205 10 202
3 205 116 10
3 206 116 205
3 206 49 116
3 110 206 48
3 207 206 110
3 207 49 206
3 207 208 49
3 822 208 823
3 824 823 207
3 822 823 824
3 826 825 208
3 827 0 828
3 209 829 830
3 209 831 833
3 831 0 832
3 831 832 833
3 209 167 0
3 210 167 209
3 210 32 167
3 111 210 50
3 211 210 111
3 211 32 210
3 211 82 32
3 212 82 211
3 212 4 82
3 213 834 835
3 213 836 838
3 836 51 837
3 836 837 838
3 113 839 841
3 839 213 840
3 839 840 841
3 214 213 113
3 214 51 213
3 214 212 51
3 215 212 214
3 215 4 212
3 215 142 4
3 216 142 215
3 216 842 844
3 844 843 142
3 842 843 844
3 115 216 52
3 217 216 115
3 217 845 847
3 847 846 216
3 845 846 847
3 217 848 849
3 208 850 852
3 852 851 217
3 850 851 852
3 208 853 854
3 153 855 856
3 218 857 859
3 859 858 153
3 857 858 859
3 218 860 861
3 118 218 23
3 862 218 863
3 864 863 118
3 862 863 864
3 866 865 218
3 867 45 868
3 869 45 870
3 871 199 872
3 873 872 45
3 871 872 873
3 219 874 876
3 874 199 875
3 874 875 876
3 219 3 199
3 119 877 878
3 220 879 881
3 881 880 119
3 879 880 881
3 220 882 883
3 220 884 886
3 884 219 885
3 884 885 886
3 221 219 220
3 221 3 219
3 221 81 3
3 222 81 221
3 222 31 81
3 121 222 53
3 223 222 121
3 223 31 222
3 223 166 31
3 224 166 223
3 224 13 166
3 157 122 12
3 225 122 157
3 225 54 122
3 124 225 26
3 226 225 124
3 226 54 225
3 226 224 54
3 227 224 226
3 227 13 224
3 227 141 13
3 228 141 227
3 228 56 141
3 126 228 55
3 887 228 888
3 889 888 126
3 887 888 889
3 890 56 891
3 892 891 228
3 890 891 892
3 894 893 56
3 229 895 896
3 229 897 899
3 897 2 898
3 897 898 899
3 190 900 901
3 230 902 904
3 904 903 190
3 902 903 904
3 230 905 906
3 128 230 42
3 231 230 128
3 231 907 909
3 909 908 230
3 907 908 909
3 231 910 911
3 232 912 914
3 914 913 231
3 912 913 914
3 232 915 916
3 159 129 7
3 233 129 159
3 233 57 129
3 131 233 28
3 234 233 131
3 234 57 233
3 234 232 57
3 235 232 234
3 235 917 919
3 919 918 232
3 917 918 919
3 235 920 921
3 236 922 924
3 924 923 235
3 922 923 924
3 236 925 926
3 133 236 58
3 237 236 133
3 237 927 929
3 929 928 236
3 927 928 929
3 237 930 932
3 930 229 931
3 930 931 932
3 238 229 237
3 238 2 229
3 238 76 2
3 239 76 238
3 239 25 76
3 135 239 59
3 240 239 135
3 240 25 239
3 240 156 25
3 241 156 240
3 241 11 156
3 163 136 14
3 242 136 163
3 242 60 136
3 138 242 30
3 243 242 138
3 243 60 242
3 243 241 60
3 244 241 243
3 244 11 241
3 244 933 935
3 935 934 11
3 933 934 935
3 245 936 938
3 938 937 244
3 936 937 938
3 245 939 940
3 140 245 61
3 246 245 140
3 246 941 943
3 943 942 245
3 941 942 943
3 246 944 945
3 947 946 246
