ply
format ascii 1.0
element vertex 741
property float x
property float y
property float z
element face 890
property list uchar int vertex_index
end_header
-14.369802 27.23912 -21.472563
-16.448395 58.963356 -5.457967
-4.375581 21.274685 -22.255453
-29.844456 22.779324 -20.519169
-3.749428 48.272858 -22.541739
-6.576902 16.799185 -10.435022
-7.227458 64.788834 -3.920778
-6.24568 59.73893 -17.401062
-19.346409 24.22072 -17.067408
-23.787943 14.083369 -21.912395
-16.508059 13.737849 -21.651657
-7.989491 26.354919 -21.435047
-13.17615 14.621597 -14.084213
-8.354994 9.651247 -15.769705
-17.000526 35.417706 -20.691719
-21.026279 57.20121 -13.497386
-12.557821 48.361355 -21.318405
-9.285019 39.159492 -20.429098
-2.762487 35.63327 -26.487619
-8.457907 28.612375 -14.168689
-15.96476 25.586859 -23.080673
-17.868999 19.446407 -21.499983
-14.650465 20.727596 -22.403212
-5.023767 22.826601 -24.841787
-8.349089 19.220364 -19.452036
-6.321117 16.381136 -19.87009
-19.955631 34.294811 -14.594104
-21.535889 39.165852 -16.706238
-17.874537 56.243874 -11.222278
-4.925582 55.51236 -21.350445
-9.185536 55.495739 -20.390131
-8.028776 50.593918 -22.054859
-10.785097 44.162186 -22.272099
-5.405385 43.787594 -23.465611
-4.591501 37.676353 -26.548771
-3.150604 41.934757 -24.601048
-9.816805 34.367409 -14.19895
-6.398424 26.341745 -10.686016
-23.298185 9.932823 -17.247852
-25.447348 10.483641 -16.960682
-6.21451 19.944628 -16.314083
-6.232853 14.41493 -14.863194
-6.270973 10.238241 -9.894945
-12.036378 64.036942 -6.451936
-10.700205 58.116871 -10.793062
-6.114015 63.461426 -10.590624
-24.586102 23.5881 -16.215813
-26.78764 18.316351 -22.920187
-22.30134 18.913448 -18.707935
-19.870905 13.506662 -21.08724
-20.932823 9.474658 -16.800213
-17.582085 62.777153 -2.738252
-11.225153 63.730652 -1.008129
-12.030127 28.26413 -18.157913
-14.687711 22.503321 -16.610304
-11.123999 21.513245 -16.134985
-10.260551 12.584974 -15.782087
-27.325878 28.401806 -15.090811
-21.099422 28.195364 -13.081072
-19.369358 29.992447 -19.036968
-14.435628 31.306599 -24.235538
-27.84108 55.062935 -11.601076
-22.167557 49.984138 -11.60815
-13.754977 58.920494 -16.007275
-15.54921 52.773468 -15.541176
-17.434349 45.331749 -14.712545
-14.463857 41.57671 -21.705029
-12.365213 37.470898 -24.078054
-12.886709 33.886383 -19.763649
-8.217872 33.005699 -21.821014
-4.471598 30.684454 -27.555182
-3.118043 28.032154 -25.912237
-5.778393 38.555916 -19.25786
-5.227363 32.802925 -20.376286
-6.018717 26.171412 -19.072126
-6.585158 23.255596 -13.440509
-6.105325 20.433876 -8.439998
-16.49789 16.138527 -16.568111
-18.369343 8.204206 -16.114113
-14.368179 26.186825 -23.263058
-15.051844 23.21184 -23.253025
-14.474861 24.056162 -22.071009
-4.429999 21.700359 -23.921682
-5.679984 19.430298 -22.588823
-5.319669 18.832134 -21.172686
-22.713709 38.188602 -13.690428
-23.260494 41.018494 -14.592316
-19.504902 54.723705 -8.631506
-15.986302 55.527618 -7.99373
-4.178862 52.108299 -22.04929
-6.000824 53.5919 -22.803797
-5.077495 49.96323 -22.826691
-6.726602 47.180195 -21.639841
-4.279563 46.31963 -24.05505
-3.859457 43.100559 -25.06209
-3.477126 45.156025 -23.421528
-6.834613 18.440559 -13.097025
-6.594832 15.868709 -12.748159
-6.512755 13.972407 -10.133677
-9.199065 65.372932 -5.56147
-8.621733 64.257652 -8.49189
-6.846822 64.606102 -7.203086
-21.566488 23.516277 -15.469068
-23.457806 21.300543 -17.580347
-20.574806 21.232159 -16.786726
-16.660154 16.189087 -22.709349
-18.353994 15.969867 -21.584745
-18.117107 12.933905 -22.070843
-20.227211 11.551442 -19.578585
-18.95575 11.821691 -19.223597
-14.264933 63.257641 -2.173221
-10.03613 27.533176 -19.221176
-11.433612 24.89646 -17.309412
-9.645559 24.144104 -18.707277
-8.324556 15.00815 -17.849924
-9.391199 16.437998 -16.648609
-9.227632 11.350084 -16.33868
-6.747448 10.640197 -13.688914
-27.692322 31.578608 -11.146776
-28.972141 30.202225 -14.247086
-25.631098 29.992977 -12.11974
-24.181936 28.030369 -13.112349
-22.261557 30.367594 -11.612874
-19.869913 34.861046 -18.211142
-19.576971 32.165596 -16.677502
-18.752161 32.829433 -20.326069
-16.999073 30.607464 -22.480042
-15.682836 33.633904 -23.167812
-23.379356 58.950836 -11.532223
-27.145411 58.471119 -10.66799
-24.503307 56.281452 -11.794249
-24.868952 52.241261 -11.12802
-21.675026 53.508465 -12.631346
-8.224172 58.562489 -14.086966
-11.860491 56.953911 -14.127879
-10.036152 58.893921 -17.178432
-11.062231 51.920319 -20.912712
-11.864811 54.177574 -17.687065
-13.4811 50.500591 -17.619087
-16.664383 49.225273 -14.889486
-14.645239 46.79686 -17.719511
-15.685367 43.323227 -17.94076
-13.410153 44.887169 -21.656641
-10.451361 42.013863 -20.250284
-11.578547 40.808384 -23.159225
-12.012066 39.085705 -20.691828
-12.978848 35.93729 -21.79302
-11.195131 36.670181 -19.770824
-10.594162 33.804394 -19.717688
-8.579344 36.212959 -21.246922
-3.451929 36.742474 -27.264105
-4.546048 34.388157 -27.337284
-3.396552 33.408825 -27.752884
-3.459889 29.118076 -27.240717
-2.814837 32.040466 -26.703419
-6.385271 41.425026 -18.08189
-7.147698 39.538979 -15.780031
-9.370035 31.415668 -14.229677
-7.351023 33.701279 -17.088894
-7.47034 30.868214 -17.189075
-5.343239 29.481119 -20.033976
-7.586642 27.58046 -16.733498
-7.327949 24.585983 -15.974733
-7.26721 25.890112 -14.067123
-6.206758 25.207867 -8.282418
-6.458808 23.399191 -9.648058
-5.93713 22.290949 -7.042705
-25.248276 16.201906 -23.004082
-26.805456 15.729465 -23.30505
-25.33049 13.993372 -22.177607
-14.105719 19.02721 -14.541461
-15.572232 19.362066 -16.677389
-15.215734 15.560491 -14.547999
-16.984751 7.469807 -15.982882
-5.554389 15.085055 -8.288926
-18.441717 25.01832 -20.645239
-18.639439 21.969601 -19.096144
-17.143429 22.74633 -22.439989
-15.884906 19.981304 -23.016573
-15.225866 17.189556 -22.225815
-6.137738 24.508402 -24.198292
-7.970706 22.739025 -20.967457
-6.73282 20.833817 -22.705997
-7.167768 17.604332 -20.437155
-7.271988 13.62236 -18.003485
-21.121105 33.180328 -11.309355
-21.358021 35.894234 -12.280214
-21.027742 36.647682 -15.719574
-18.886032 37.230148 -18.131699
-21.671329 57.823658 -10.151073
-19.622869 59.085865 -12.842023
-5.385131 58.343773 -19.486889
-7.794123 58.840218 -19.600534
-6.579442 56.421124 -21.599924
-8.779973 53.230797 -22.566858
-10.234064 49.658272 -23.283844
-11.105428 46.176682 -23.465977
-9.725382 47.484543 -21.813557
-8.577752 44.693916 -20.568773
-7.286761 41.508636 -21.678591
-6.587344 38.444046 -23.120794
-4.854909 40.745811 -25.161829
-3.564188 39.883324 -26.359598
-2.907584 38.736675 -25.620106
-9.352847 32.638367 -11.902549
-7.623635 30.098759 -12.410677
-6.604635 27.457306 -12.416105
-6.529734 29.175104 -11.131859
-23.031727 12.006701 -20.020409
-24.253788 12.152896 -20.032673
-24.390545 10.138985 -17.336145
-12.569771 9.691913 -15.952029
-14.379852 10.744613 -15.538881
-5.495955 20.920826 -19.39938
-5.421887 18.257046 -18.79842
-6.090459 17.198076 -15.849589
-6.578938 12.557677 -12.264257
-14.851568 62.285236 -6.153045
-13.460678 58.611248 -7.807626
-11.178041 61.757759 -8.384227
-8.246424 61.683205 -10.852485
-5.762646 61.183472 -13.596057
-5.835488 62.28883 -8.967982
-4.905242 61.000732 -12.144992
-4.625819 59.476234 -15.879692
-5.194656 56.577534 -17.683369
-5.281527 53.219727 -19.043646
-4.756259 49.610088 -19.911249
-4.54371 46.609863 -20.51215
-27.088934 23.918329 -19.046806
-28.303349 20.757523 -21.890516
-25.803171 21.63698 -20.062466
-24.68927 19.146967 -20.920795
-23.340359 16.749737 -20.952261
-19.30938 18.660152 -18.873362
-20.678226 16.268412 -19.845066
-21.883034 14.085999 -20.779819
-21.664303 11.707018 -19.680826
-22.050488 9.725594 -17.043009
-17.726368 61.680748 -4.515182
-15.038885 63.83305 -4.745953
-11.52686 64.532082 -4.222068
-9.078952 64.914795 -2.52593
-14.00249 28.254681 -18.87154
-14.758438 25.109253 -18.865982
-13.468992 25.435394 -17.209372
-12.951184 22.129932 -15.575331
-12.258859 18.534349 -14.27408
-9.629654 20.636679 -17.630184
-10.652126 17.602428 -15.198488
-11.539255 13.759809 -14.755789
-5.936071 15.585284 -17.777405
-6.631866 12.196154 -16.202751
-32.206097 24.577805 -19.35531
-32.490097 29.912632 -16.584908
-30.742405 28.187748 -17.400766
-29.022638 26.005322 -18.435673
-26.139914 26.031826 -15.860552
-23.027214 25.71727 -14.100098
-20.283894 26.207561 -14.901059
-19.973932 31.293964 -13.319301
-19.392517 29.134338 -15.331815
-19.175732 27.055532 -17.845186
-18.070866 27.820801 -21.395071
-15.087862 28.275793 -23.755962
-13.773053 29.124756 -23.617733
-30.72761 52.928406 -11.912229
-13.781866 55.853161 -11.026845
-15.856476 58.27478 -13.658796
-17.382145 58.587097 -15.078633
-11.382395 57.893555 -18.254211
-14.897611 56.680687 -16.153927
-18.190973 55.067036 -14.816032
-19.184589 51.48822 -13.949771
-20.262066 47.965828 -13.73615
-21.431433 44.398193 -14.214595
-19.208012 42.051952 -15.641052
-17.125504 39.887245 -17.911221
-15.589121 38.359673 -21.487301
-11.975132 42.843697 -24.23291
-12.946884 39.404751 -24.308811
-14.16687 36.659843 -24.139994
-13.369519 34.482777 -24.344868
-13.504476 32.545879 -22.867496
-14.058935 30.698114 -20.504284
-12.478186 31.177124 -18.909216
-10.137232 30.750797 -19.674332
-8.018201 29.746286 -21.905766
-6.123861 35.248516 -24.325891
-5.934952 31.807959 -25.059647
-5.858153 28.135046 -24.977604
-4.490892 26.453638 -26.492737
-3.788094 25.194384 -25.825232
-3.633153 24.467665 -24.347042
-4.314727 43.605034 -21.242134
-3.830741 40.561905 -22.434879
-3.506579 37.410641 -23.505789
-7.434997 36.541649 -16.560223
-5.457948 35.703629 -20.029734
-3.273029 34.214874 -24.307314
-3.461292 30.780228 -23.912029
-3.899922 27.266468 -22.872166
-4.850724 24.069864 -21.32548
-6.410033 23.093006 -18.021046
-6.820654 21.731174 -14.976727
-6.938144 20.17877 -12.049178
-6.604274 24.596306 -11.892521
-6.637028 21.674547 -10.921216
-6.240789 18.622135 -9.501531
-5.439267 17.173504 -7.413651
-28.556065 18.031811 -22.973251
-25.034601 12.809187 -19.158133
-15.249494 21.952353 -19.299845
-15.292139 18.63925 -19.867493
-16.289495 15.536192 -19.527988
-16.172596 11.764131 -15.358197
-17.596535 12.667076 -16.263872
-18.214994 12.538493 -17.94688
-19.650517 8.97693 -16.353361
-23.143754 41.812208 -12.903321
-23.474201 40.429676 -13.111607
-16.217348 57.245487 -6.725848
-17.017097 55.464596 -6.726792
-17.248144 57.182464 -5.45891
-30.133282 21.400002 -21.282246
-30.991446 22.283792 -20.670738
-9.06795 7.354197 -14.787599
-9.504269 8.203615 -15.072087
-8.791313 10.500666 -16.054192
-25.950887 31.809825 -10.610595
-27.09935 32.631856 -10.080709
-24.920275 31.01701 -11.097077
-26.66171 30.785792 -11.633258
-25.950887 31.809825 -10.610595
-23.235504 31.204318 -10.843644
-23.946328 30.180286 -11.866307
-24.920275 31.01701 -11.097077
-8.381007 39.91818 -14.433189
-7.102896 40.972164 -15.305667
-5.814147 23.205979 -6.291444
-6.071944 23.749408 -7.662561
-5.948961 24.664438 -6.9113
-5.260967 21.704078 -6.018833
-5.814147 23.205979 -6.291444
-5.214138 12.43226 -7.470333
-5.159734 14.14789 -7.329645
-22.447359 36.604544 -11.559317
-22.317562 35.322819 -10.995449
-8.378761 32.205236 -11.426185
-9.06743 33.482304 -11.071387
-7.514155 30.935431 -11.680249
-8.488241 31.368563 -12.156613
-8.378761 32.205236 -11.426185
-6.967204 30.473604 -11.04084
-7.076685 29.636932 -11.771268
-7.514155 30.935431 -11.680249
-13.395678 7.723175 -15.402631
-12.791926 7.148867 -14.943205
-6.225247 7.810141 -9.987972
-6.37923 8.969859 -11.172628
-6.424955 11.397959 -11.079601
-6.557453 60.507253 -7.770912
-6.148476 62.251032 -7.191587
-5.257909 59.328527 -12.7652
-5.738411 59.838543 -10.968374
-6.091077 58.166337 -11.588582
-5.118197 58.566278 -14.632551
-4.765531 60.238483 -14.012342
-5.257909 59.328527 -12.7652
-5.402615 57.116928 -15.534389
-4.910238 58.026884 -16.78153
-5.118197 58.566278 -14.632551
-6.07936 51.789803 -17.497701
-6.133922 53.640421 -16.895508
-5.816726 49.984983 -17.931503
-5.018893 51.414907 -19.477448
-6.07936 51.789803 -17.497701
-5.640866 48.489376 -18.288988
-5.816726 49.984983 -17.931503
-21.839582 8.030828 -15.625633
-22.398415 8.156295 -15.747031
-21.491656 9.600126 -16.921611
-18.236951 61.305122 -2.617758
-18.328921 61.87972 -1.771924
-17.654227 62.22895 -3.626717
-18.309092 60.75692 -3.506223
-18.236951 61.305122 -2.617758
-10.829432 10.521897 -15.811934
-11.468784 11.109314 -15.298786
-10.899903 13.172391 -15.268938
-7.204239 8.65952 -14.371771
-6.689657 11.418176 -14.945832
-7.26203 7.881541 -13.114853
-7.281477 9.924862 -15.201783
-7.204239 8.65952 -14.371771
-33.088562 25.589913 -18.997935
-33.320089 23.893821 -19.433108
-31.810483 30.573308 -14.922645
-33.554842 29.645603 -15.946967
-29.148381 55.948845 -11.215215
-28.800547 57.652937 -10.748672
-27.493246 56.767027 -11.134533
-29.284345 53.995671 -11.756653
-30.591646 54.88158 -11.370792
-29.148381 55.948845 -11.215215
-28.026899 52.708365 -11.397561
-29.470163 51.6411 -11.553137
-29.284345 53.995671 -11.756653
-23.70386 49.152 -10.856121
-25.054558 50.280562 -10.616056
-23.518254 51.1127 -11.368085
-22.272896 48.089759 -11.287426
-23.70386 49.152 -10.856121
-5.474013 44.044678 -19.210512
-4.429219 45.107449 -20.877142
-5.588504 45.547092 -18.84552
-8.625901 35.454529 -15.379587
-8.63388 36.901635 -15.191727
-9.824784 35.814515 -14.01109
-27.213582 16.210791 -22.462883
-26.436977 15.2611 -22.11987
-15.867845 9.217403 -15.463207
-15.276224 11.254372 -15.448539
-14.971473 8.707643 -15.553548
-23.200809 39.01473 -12.660664
-23.125203 37.751728 -12.264424
-22.987102 39.603548 -14.141372
-23.200809 39.01473 -12.660664
-23.474201 40.429676 -13.111607
-18.776397 55.062639 -7.04568
-20.279461 54.152584 -7.326896
-19.550956 54.491518 -5.74107
-17.745602 55.125661 -8.312618
-18.776397 55.062639 -7.04568
-17.017097 55.464596 -6.726792
-24.296117 8.682668 -16.038115
-23.68607 8.50842 -15.96413
-17.192184 62.607027 -1.436674
-18.328921 61.87972 -1.771924
-15.533608 62.847271 -1.154158
-15.923509 63.017397 -2.455736
-17.192184 62.607027 -1.436674
-14.053102 62.776995 -0.652405
-15.533608 62.847271 -1.154158
-12.533212 63.0135 -0.06986
-12.745043 63.494146 -1.590675
-14.053102 62.776995 -0.652405
-9.851714 9.080751 -15.641478
-10.368174 9.698196 -15.363182
-9.744091 11.967529 -16.060384
-9.851714 9.080751 -15.641478
-9.504269 8.203615 -15.072087
-6.775564 9.339092 -12.565093
-6.490151 12.527563 -14.276054
-6.518267 11.226459 -13.152233
-6.878951 6.736485 -12.785287
-6.775564 9.339092 -12.565093
-7.26203 7.881541 -13.114853
-6.878951 6.736485 -12.785287
-28.894953 32.111173 -10.618438
-27.09935 32.631856 -10.080709
-29.411596 31.406296 -12.203579
-30.614227 31.938861 -11.675242
-28.894953 32.111173 -10.618438
-28.332231 30.890417 -12.696931
-30.051505 30.718104 -13.753734
-29.411596 31.406296 -12.203579
-25.262383 58.710977 -11.100106
-26.242359 58.402424 -9.732128
-24.359331 58.642283 -10.164245
-6.721683 41.915188 -16.456597
-6.509284 42.954674 -17.63039
-6.845696 43.444836 -16.005097
-6.766485 40.482003 -16.930961
-6.721683 41.915188 -16.456597
-7.102896 40.972164 -15.305667
-5.504143 20.70328 -6.614907
-5.58824 19.774744 -7.313553
-6.021228 21.362413 -7.741351
-5.504143 20.70328 -6.614907
-5.260967 21.704078 -6.018833
-25.699494 14.393054 -21.556148
-26.436977 15.2611 -22.11987
-26.067973 14.861418 -22.741329
-25.971822 10.70505 -16.667314
-26.602934 9.135112 -16.018009
-17.242992 5.41134 -14.681132
-16.273922 7.070241 -15.775549
-17.860534 5.845463 -14.963116
-17.242992 5.41134 -14.681132
-18.55283 6.212662 -15.028731
-17.677047 7.837006 -16.048497
-17.860534 5.845463 -14.963116
-19.23122 6.554587 -15.125085
-18.55283 6.212662 -15.028731
-5.597155 13.455945 -8.192081
-6.108412 14.313009 -9.265129
-6.065645 15.94212 -9.361974
-5.597155 13.455945 -8.192081
-5.214138 12.43226 -7.470333
-6.844461 63.501034 -4.667986
-7.217795 63.528323 -3.121719
-22.199104 33.965866 -10.510019
-22.665278 32.610685 -10.691885
-21.239563 34.537281 -11.794785
-22.199104 33.965866 -10.510019
-22.317562 35.322819 -10.995449
-22.035865 37.041418 -12.985321
-22.447359 36.604544 -11.559317
-23.125203 37.751728 -12.264424
-21.434066 55.333176 -8.213074
-20.279461 54.152584 -7.326896
-22.51728 56.883152 -8.972857
-21.434066 55.333176 -8.213074
-20.588116 56.273682 -9.391289
-23.505318 58.078693 -9.47367
-22.51728 56.883152 -8.972857
-22.525343 58.387247 -10.841648
-24.359331 58.642283 -10.164245
-23.505318 58.078693 -9.47367
-10.183411 34.798928 -12.840837
-9.824784 35.814515 -14.01109
-9.951431 33.934407 -11.692637
-9.06743 33.482304 -11.071387
-9.584826 33.502888 -13.05075
-10.183411 34.798928 -12.840837
-9.951431 33.934407 -11.692637
-6.260445 30.121699 -10.550989
-6.967204 30.473604 -11.04084
-6.104766 28.669667 -10.235257
-6.260445 30.121699 -10.550989
-6.03911 27.252987 -10.012335
-6.464079 27.758425 -10.908938
-6.104766 28.669667 -10.235257
-5.943277 26.686048 -8.810536
-6.302591 25.774806 -9.484217
-6.03911 27.252987 -10.012335
-6.230963 26.173407 -7.526991
-5.943277 26.686048 -8.810536
-5.948961 24.664438 -6.9113
-6.230963 26.173407 -7.526991
-24.842296 8.785749 -16.082262
-23.844365 10.035904 -17.291998
-24.296117 8.682668 -16.038115
-25.500268 8.887148 -16.177118
-24.842296 8.785749 -16.082262
-26.028669 9.059476 -15.989386
-24.918947 10.311313 -17.148413
-25.500268 8.887148 -16.177118
-26.602934 9.135112 -16.018009
-26.028669 9.059476 -15.989386
-14.300718 8.249526 -15.196057
-13.474811 10.218263 -15.745455
-13.395678 7.723175 -15.402631
-14.971473 8.707643 -15.553548
-14.300718 8.249526 -15.196057
-6.69131 10.297833 -11.852764
-6.518267 11.226459 -13.152233
-6.405895 13.486303 -13.563726
-6.69131 10.297833 -11.852764
-6.37923 8.969859 -11.172628
-6.076339 12.899621 -9.114456
-6.544828 15.385796 -10.28435
-6.108412 14.313009 -9.265129
-6.027513 11.010374 -9.156825
-6.076339 12.899621 -9.114456
-5.906621 9.14329 -9.037459
-6.391864 12.105324 -10.014311
-6.027513 11.010374 -9.156825
-5.858586 6.739953 -9.481209
-5.906621 9.14329 -9.037459
-6.225247 7.810141 -9.987972
-5.858586 6.739953 -9.481209
-6.654143 63.409668 -6.30914
-7.03714 64.697468 -5.561932
-6.844461 63.501034 -4.667986
-6.341155 63.447466 -8.085534
-6.654143 63.409668 -6.30914
-6.148476 62.251032 -7.191587
-6.203533 60.482591 -9.379869
-6.557453 60.507253 -7.770912
-5.370365 61.644781 -10.556487
-6.203533 60.482591 -9.379869
-5.738411 59.838543 -10.968374
-6.090487 55.319325 -16.21537
-5.402615 57.116928 -15.534389
-5.238091 54.89863 -18.363507
-6.090487 55.319325 -16.21537
-6.133922 53.640421 -16.895508
-5.534591 46.989263 -18.589438
-4.649985 48.109975 -20.2117
-5.640866 48.489376 -18.288988
-5.588504 45.547092 -18.84552
-5.534591 46.989263 -18.589438
-23.062222 8.404805 -15.861708
-23.68607 8.50842 -15.96413
-22.674337 9.829209 -17.145431
-23.062222 8.404805 -15.861708
-22.398415 8.156295 -15.747031
-17.518463 58.386398 -4.589759
-17.248144 57.182464 -5.45891
-18.318212 56.605507 -4.590701
-18.157449 59.745095 -4.118366
-18.309092 60.75692 -3.506223
-17.087381 60.322052 -4.986574
-17.518463 58.386398 -4.589759
-18.157449 59.745095 -4.118366
-11.060011 63.556998 0.839222
-12.533212 63.0135 -0.06986
-10.140232 63.993447 -0.070748
-11.060011 63.556998 0.839222
-9.067131 64.585518 -0.829648
-10.152052 64.322723 -1.76703
-10.140232 63.993447 -0.070748
-8.301282 64.506927 -1.579211
-9.067131 64.585518 -0.829648
-7.375535 64.443947 -2.276635
-8.153205 64.851814 -3.223354
-8.301282 64.506927 -1.579211
-7.217795 63.528323 -3.121719
-7.375535 64.443947 -2.276635
-11.984042 9.075366 -15.896905
-12.054513 11.725861 -15.353909
-11.468784 11.109314 -15.298786
-12.791926 7.148867 -14.943205
-11.984042 9.075366 -15.896905
-10.829432 10.521897 -15.811934
-10.368174 9.698196 -15.363182
-7.601538 10.637965 -16.10215
-6.951927 12.909257 -17.103118
-7.281477 9.924862 -15.201783
-8.14304 8.652408 -14.98526
-7.813491 11.636803 -16.886595
-7.601538 10.637965 -16.10215
-8.925229 6.195132 -14.145585
-8.14304 8.652408 -14.98526
-9.06795 7.354197 -14.787599
-8.925229 6.195132 -14.145585
-32.172266 23.183033 -20.088809
-33.320089 23.893821 -19.433108
-31.025277 23.678565 -19.93724
-30.991446 22.283792 -20.670738
-32.172266 23.183033 -20.088809
-34.123371 28.508927 -17.064265
-33.554842 29.645603 -15.946967
-33.230562 28.257326 -17.612734
-34.123371 28.508927 -17.064265
-30.731119 30.057429 -15.415997
-31.810483 30.573308 -14.922645
-30.051505 30.718104 -13.753734
-32.356716 27.394884 -18.020663
-33.230562 28.257326 -17.612734
-31.616251 29.05019 -16.992837
-31.474251 26.382776 -18.378038
-33.088562 25.589913 -18.997935
-32.356716 27.394884 -18.020663
-21.691331 31.773961 -11.461115
-23.235504 31.204318 -10.843644
-22.665278 32.610685 -10.691885
-27.927814 57.787245 -9.635296
-26.242359 58.402424 -9.732128
-27.927814 57.787245 -9.635296
-28.800547 57.652937 -10.748672
-31.949464 53.642376 -11.224923
-30.591646 54.88158 -11.370792
-31.575404 51.573531 -11.57715
-31.949464 53.642376 -11.224923
-30.636769 50.291626 -12.266706
-31.575404 51.573531 -11.57715
-30.636769 50.291626 -12.266706
-29.470163 51.6411 -11.553137
-26.540835 51.297528 -11.161032
-28.026899 52.708365 -11.397561
-26.355016 53.652098 -11.364548
-26.540835 51.297528 -11.161032
-25.054558 50.280562 -10.616056
-21.320151 47.080604 -12.351426
-22.272896 48.089759 -11.287426
-21.214811 48.974983 -12.67215
-21.904834 45.296787 -12.590649
-21.320151 47.080604 -12.351426
-20.84675 46.182011 -13.975372
-22.229223 43.502058 -12.71446
-21.904834 45.296787 -12.590649
-22.345963 42.708343 -14.403455
-23.143754 41.812208 -12.903321
-22.229223 43.502058 -12.71446
-5.349999 42.51503 -19.662012
-5.474013 44.044678 -19.210512
-6.509284 42.954674 -17.63039
-8.49023 38.4003 -14.80163
-8.381007 39.91818 -14.433189
-7.291348 38.040314 -16.170127
-8.49023 38.4003 -14.80163
-8.63388 36.901635 -15.191727
-5.102173 15.192115 -6.892008
-5.159734 14.14789 -7.329645
-5.496828 16.12928 -7.851288
-5.255211 18.144558 -6.80038
-5.772296 18.80369 -7.926824
-5.58824 19.774744 -7.313553
-4.93245 16.430339 -6.492805
-5.255211 18.144558 -6.80038
-5.102173 15.192115 -6.892008
-4.93245 16.430339 -6.492805
-29.362729 20.389101 -21.967919
-30.133282 21.400002 -21.282246
-29.073903 21.768423 -21.204843
-29.489086 19.026245 -22.509287
-29.362729 20.389101 -21.967919
-28.429707 19.394667 -22.431884
-29.008956 18.237756 -22.165141
-29.489086 19.026245 -22.509287
-28.088887 17.361964 -22.296984
-27.68076 16.880638 -23.13915
-27.213582 16.210791 -22.462883
-29.008956 18.237756 -22.165141
-28.088887 17.361964 -22.296984
-25.551549 13.800961 -20.046411
-25.699494 14.393054 -21.556148
-25.182545 13.40128 -20.66787
-25.765448 11.867822 -17.76604
-25.240975 11.646414 -18.059407
-25.971822 10.70505 -16.667314
-25.080907 13.191536 -18.266458
-25.765448 11.867822 -17.76604
-25.551549 13.800961 -20.046411
-25.080907 13.191536 -18.266458
-16.578674 9.616969 -15.67054
-15.867845 9.217403 -15.463207
-16.273922 7.070241 -15.775549
-19.871808 6.940949 -15.244709
-19.00993 8.590568 -16.233737
-19.23122 6.554587 -15.125085
-20.520448 7.373171 -15.3198
-19.871808 6.940949 -15.244709
-21.161601 7.622035 -15.543226
-20.29167 9.225794 -16.576787
-20.520448 7.373171 -15.3198
-21.839582 8.030828 -15.625633
-21.161601 7.622035 -15.543226
3 0 81 79
3 2 84 82
3 319 86 320
3 1 321 323
3 321 88 322
3 321 322 323
3 4 91 89
3 4 93 91
3 4 95 93
3 3 324 325
3 5 98 96
3 6 101 99
3 8 104 102
3 10 107 105
3 10 109 107
3 11 113 111
3 13 116 114
3 13 326 328
3 328 327 116
3 326 327 328
3 329 118 330
3 331 120 332
3 333 332 118
3 331 332 333
3 334 122 335
3 336 335 120
3 334 335 336
3 14 125 123
3 14 127 125
3 15 130 128
3 15 132 130
3 7 135 133
3 16 138 136
3 16 140 138
3 16 142 140
3 17 145 143
3 17 147 145
3 17 149 147
3 18 152 150
3 18 154 152
3 337 156 338
3 19 159 157
3 19 161 159
3 19 163 161
3 339 166 340
3 341 340 164
3 339 340 341
3 343 342 166
3 9 169 167
3 12 172 170
3 345 344 174
3 20 177 175
3 22 178 80
3 22 179 178
3 23 182 180
3 25 183 83
3 25 184 183
3 346 186 347
3 27 187 85
3 27 188 187
3 28 189 87
3 28 190 189
3 29 193 191
3 31 194 90
3 31 195 194
3 31 197 195
3 33 198 92
3 33 199 198
3 33 201 199
3 35 202 94
3 35 203 202
3 348 204 349
3 350 205 351
3 352 351 204
3 350 351 352
3 353 207 354
3 355 354 205
3 353 354 355
3 38 210 208
3 357 356 211
3 40 215 213
3 42 216 97
3 42 358 360
3 360 359 216
3 358 359 360
3 43 219 217
3 45 220 100
3 45 221 220
3 361 222 362
3 363 223 364
3 363 364 365
3 366 224 367
3 368 367 223
3 366 367 368
3 369 225 370
3 371 370 224
3 369 370 371
3 372 226 373
3 374 227 375
3 376 375 226
3 374 375 376
3 378 377 227
3 46 231 229
3 48 232 103
3 48 233 232
3 21 234 176
3 49 235 106
3 49 236 235
3 49 237 236
3 50 238 108
3 50 379 381
3 381 380 238
3 379 380 381
3 51 382 383
3 51 384 386
3 384 239 385
3 384 385 386
3 51 240 239
3 52 241 110
3 52 242 241
3 53 245 243
3 55 246 112
3 55 247 246
3 24 248 181
3 56 249 115
3 56 250 249
3 56 387 389
3 389 388 250
3 387 388 389
3 41 251 214
3 390 252 391
3 392 391 117
3 390 391 392
3 394 393 252
3 395 253 396
3 397 254 398
3 57 255 119
3 57 256 255
3 57 257 256
3 58 258 121
3 58 259 258
3 26 260 185
3 59 261 124
3 59 262 261
3 59 263 262
3 60 264 126
3 60 265 264
3 61 399 401
3 401 400 129
3 399 400 401
3 61 402 404
3 402 266 403
3 402 403 404
3 61 405 407
3 407 406 266
3 405 406 407
3 62 408 410
3 410 409 131
3 408 409 410
3 62 411 412
3 44 267 218
3 63 268 134
3 63 269 268
3 30 270 192
3 64 271 137
3 64 272 271
3 64 273 272
3 65 274 139
3 65 275 274
3 65 276 275
3 66 277 141
3 66 278 277
3 32 279 196
3 67 280 144
3 67 281 280
3 67 282 281
3 68 283 146
3 68 284 283
3 68 285 284
3 69 286 148
3 69 287 286
3 34 288 200
3 70 289 151
3 70 290 289
3 70 291 290
3 71 292 153
3 71 293 292
3 413 294 414
3 415 414 228
3 413 414 415
3 72 295 155
3 72 296 295
3 36 416 418
3 416 297 417
3 416 417 418
3 73 298 158
3 73 299 298
3 73 300 299
3 74 301 160
3 74 302 301
3 74 303 302
3 75 304 162
3 75 305 304
3 37 306 206
3 76 307 165
3 76 308 307
3 76 309 308
3 47 310 230
3 420 419 168
3 39 311 209
3 54 312 244
3 77 313 171
3 77 314 313
3 421 315 422
3 423 422 212
3 421 422 423
3 78 316 173
3 78 317 316
3 78 318 317
3 79 80 20
3 81 80 79
3 81 22 80
3 82 83 23
3 84 83 82
3 84 25 83
3 424 85 425
3 86 426 428
3 426 85 427
3 426 427 428
3 86 27 85
3 429 87 430
3 429 430 431
3 88 432 434
3 432 87 433
3 432 433 434
3 88 28 87
3 89 90 29
3 91 90 89
3 91 31 90
3 91 92 31
3 93 92 91
3 93 33 92
3 93 94 33
3 95 94 93
3 95 35 94
3 436 435 38
3 96 97 40
3 98 97 96
3 98 42 97
3 99 100 43
3 101 100 99
3 101 45 100
3 102 103 46
3 104 103 102
3 104 48 103
3 105 106 21
3 107 106 105
3 107 49 106
3 107 108 49
3 109 108 107
3 109 50 108
3 437 51 438
3 439 110 440
3 441 440 51
3 439 440 441
3 442 110 443
3 444 52 445
3 446 445 110
3 444 445 446
3 111 112 53
3 113 112 111
3 113 55 112
3 114 115 24
3 116 115 114
3 116 56 115
3 116 447 449
3 449 448 56
3 447 448 449
3 451 450 116
3 452 117 453
3 454 453 41
3 452 453 454
3 455 117 456
3 458 457 117
3 118 459 460
3 118 461 463
3 461 462 463
3 118 464 466
3 464 119 465
3 464 465 466
3 120 119 118
3 120 57 119
3 120 121 57
3 122 121 120
3 122 58 121
3 123 124 26
3 125 124 123
3 125 59 124
3 125 126 59
3 127 126 125
3 127 60 126
3 128 467 469
3 467 129 468
3 467 468 469
3 130 129 128
3 130 61 129
3 130 131 61
3 132 131 130
3 132 62 131
3 133 134 44
3 135 134 133
3 135 63 134
3 136 137 30
3 138 137 136
3 138 64 137
3 138 139 64
3 140 139 138
3 140 65 139
3 140 141 65
3 142 141 140
3 142 66 141
3 143 144 32
3 145 144 143
3 145 67 144
3 145 146 67
3 147 146 145
3 147 68 146
3 147 148 68
3 149 148 147
3 149 69 148
3 150 151 34
3 152 151 150
3 152 70 151
3 152 153 70
3 154 153 152
3 154 71 153
3 470 155 471
3 470 471 472
3 156 473 475
3 473 155 474
3 473 474 475
3 156 72 155
3 157 158 36
3 159 158 157
3 159 73 158
3 159 160 73
3 161 160 159
3 161 74 160
3 161 162 74
3 163 162 161
3 163 75 162
3 164 165 37
3 166 165 164
3 166 76 165
3 166 476 478
3 478 477 76
3 476 477 478
3 480 479 166
3 167 168 47
3 169 168 167
3 169 481 483
3 483 482 168
3 481 482 483
3 485 484 39
3 170 171 54
3 172 171 170
3 172 77 171
3 486 173 487
3 488 173 489
3 490 78 491
3 492 491 173
3 490 491 492
3 494 493 78
3 174 495 497
3 497 496 5
3 495 496 497
3 499 498 174
3 501 500 6
3 175 176 8
3 177 176 175
3 177 21 176
3 80 177 20
3 178 177 80
3 178 21 177
3 178 105 21
3 179 105 178
3 179 10 105
3 180 181 11
3 182 181 180
3 182 24 181
3 83 182 23
3 183 182 83
3 183 24 182
3 183 114 24
3 184 114 183
3 184 13 114
3 502 185 503
3 186 504 506
3 504 185 505
3 504 505 506
3 186 26 185
3 85 507 509
3 507 186 508
3 507 508 509
3 187 186 85
3 187 26 186
3 187 123 26
3 188 123 187
3 188 14 123
3 87 510 511
3 189 512 514
3 514 513 87
3 512 513 514
3 189 515 516
3 189 517 519
3 517 128 518
3 517 518 519
3 190 128 189
3 190 15 128
3 191 192 7
3 193 192 191
3 193 30 192
3 90 193 29
3 194 193 90
3 194 30 193
3 194 136 30
3 195 136 194
3 195 16 136
3 195 196 16
3 197 196 195
3 197 32 196
3 92 197 31
3 198 197 92
3 198 32 197
3 198 143 32
3 199 143 198
3 199 17 143
3 199 200 17
3 201 200 199
3 201 34 200
3 94 201 33
3 202 201 94
3 202 34 201
3 202 150 34
3 203 150 202
3 203 18 150
3 520 36 521
3 204 522 523
3 204 524 526
3 524 36 525
3 524 525 526
3 204 157 36
3 205 157 204
3 205 19 157
3 205 206 19
3 207 206 205
3 207 37 206
3 527 207 528
3 529 207 530
3 531 37 532
3 533 532 207
3 531 532 533
3 534 164 535
3 536 535 37
3 534 535 536
3 537 164 538
3 540 539 164
3 208 209 9
3 210 209 208
3 210 39 209
3 541 210 542
3 543 542 38
3 541 542 543
3 544 210 545
3 546 39 547
3 548 547 210
3 546 547 548
3 550 549 39
3 211 212 12
3 551 212 552
3 553 552 211
3 551 552 553
3 555 554 212
3 213 214 2
3 215 214 213
3 215 41 214
3 97 215 40
3 216 215 97
3 216 41 215
3 216 556 558
3 558 557 41
3 556 557 558
3 560 559 216
3 561 98 562
3 563 562 5
3 561 562 563
3 564 98 565
3 566 42 567
3 568 567 98
3 566 567 568
3 569 42 570
3 572 571 42
3 217 218 1
3 219 218 217
3 219 44 218
3 100 219 43
3 220 219 100
3 220 44 219
3 220 133 44
3 221 133 220
3 221 7 133
3 573 101 574
3 575 574 6
3 573 574 575
3 222 576 578
3 576 101 577
3 576 577 578
3 222 45 101
3 579 222 580
3 223 581 583
3 581 222 582
3 581 582 583
3 223 45 222
3 223 221 45
3 224 221 223
3 224 7 221
3 224 191 7
3 225 191 224
3 225 29 191
3 584 225 585
3 226 586 588
3 586 225 587
3 586 587 588
3 226 29 225
3 226 89 29
3 227 89 226
3 227 4 89
3 227 228 4
3 589 228 590
3 591 590 227
3 589 590 591
3 593 592 228
3 229 230 3
3 231 230 229
3 231 47 230
3 103 231 46
3 232 231 103
3 232 47 231
3 232 167 47
3 233 167 232
3 233 9 167
3 176 104 8
3 234 104 176
3 234 48 104
3 106 234 21
3 235 234 106
3 235 48 234
3 235 233 48
3 236 233 235
3 236 9 233
3 236 208 9
3 237 208 236
3 237 38 208
3 108 237 49
3 238 237 108
3 238 38 237
3 238 594 596
3 596 595 38
3 594 595 596
3 598 597 238
3 599 1 600
3 599 600 601
3 239 602 603
3 239 604 606
3 604 1 605
3 604 605 606
3 239 217 1
3 240 217 239
3 240 43 217
3 110 240 51
3 241 240 110
3 241 43 240
3 241 99 43
3 242 99 241
3 242 6 99
3 607 52 608
3 609 52 610
3 611 242 612
3 613 612 52
3 611 612 613
3 614 242 615
3 616 6 617
3 618 617 242
3 616 617 618
3 620 619 6
3 243 244 0
3 245 244 243
3 245 54 244
3 112 245 53
3 246 245 112
3 246 54 245
3 246 170 54
3 247 170 246
3 247 12 170
3 181 113 11
3 248 113 181
3 248 55 113
3 115 248 24
3 249 248 115
3 249 55 248
3 249 247 55
3 250 247 249
3 250 12 247
3 250 211 12
3 621 211 622
3 623 622 250
3 621 622 623
3 625 624 211
3 627 626 56
3 214 84 2
3 251 84 214
3 251 25 84
3 117 251 41
3 252 251 117
3 252 25 251
3 252 184 25
3 628 184 629
3 630 629 252
3 628 629 630
3 631 13 632
3 633 632 184
3 631 632 633
3 634 13 635
3 637 636 13
3 253 638 639
3 253 640 642
3 640 3 641
3 640 641 642
3 254 643 644
3 254 645 646
3 119 647 649
3 647 254 648
3 647 648 649
3 255 254 119
3 255 650 652
3 652 651 254
3 650 651 652
3 255 653 655
3 653 253 654
3 653 654 655
3 256 253 255
3 256 3 253
3 256 229 3
3 257 229 256
3 257 46 229
3 121 257 57
3 258 257 121
3 258 46 257
3 258 102 46
3 259 102 258
3 259 8 102
3 185 656 658
3 656 122 657
3 656 657 658
3 260 122 185
3 260 58 122
3 124 260 26
3 261 260 124
3 261 58 260
3 261 259 58
3 262 259 261
3 262 8 259
3 262 175 8
3 263 175 262
3 263 20 175
3 126 263 59
3 264 263 126
3 264 20 263
3 264 79 20
3 265 79 264
3 265 0 79
3 129 659 660
3 662 661 129
3 266 663 664
3 266 665 666
3 266 667 668
3 670 669 266
3 131 671 673
3 673 672 61
3 671 672 673
3 675 674 131
3 218 88 1
3 267 88 218
3 267 28 88
3 134 267 44
3 268 267 134
3 268 28 267
3 268 190 28
3 269 190 268
3 269 15 190
3 192 135 7
3 270 135 192
3 270 63 135
3 137 270 30
3 271 270 137
3 271 63 270
3 271 269 63
3 272 269 271
3 272 15 269
3 272 132 15
3 273 132 272
3 273 62 132
3 139 273 64
3 274 273 139
3 274 62 273
3 274 676 678
3 678 677 62
3 676 677 678
3 275 679 681
3 681 680 274
3 679 680 681
3 275 682 683
3 275 684 686
3 684 86 685
3 684 685 686
3 276 86 275
3 276 27 86
3 141 276 65
3 277 276 141
3 277 27 276
3 277 188 27
3 278 188 277
3 278 14 188
3 196 142 16
3 279 142 196
3 279 66 142
3 144 279 32
3 280 279 144
3 280 66 279
3 280 278 66
3 281 278 280
3 281 14 278
3 281 127 14
3 282 127 281
3 282 60 127
3 146 282 67
3 283 282 146
3 283 60 282
3 283 265 60
3 284 265 283
3 284 0 265
3 284 243 0
3 285 243 284
3 285 53 243
3 148 285 68
3 286 285 148
3 286 53 285
3 286 111 53
3 287 111 286
3 287 11 111
3 200 149 17
3 288 149 200
3 288 69 149
3 151 288 34
3 289 288 151
3 289 69 288
3 289 287 69
3 290 287 289
3 290 11 287
3 290 180 11
3 291 180 290
3 291 23 180
3 153 291 70
3 292 291 153
3 292 23 291
3 292 82 23
3 293 82 292
3 293 2 82
3 228 95 4
3 294 95 228
3 294 35 95
3 155 687 689
3 687 294 688
3 687 688 689
3 295 294 155
3 295 35 294
3 295 203 35
3 296 203 295
3 296 18 203
3 690 156 691
3 297 692 694
3 692 156 693
3 692 693 694
3 297 72 156
3 158 297 36
3 298 297 158
3 298 72 297
3 298 296 72
3 299 296 298
3 299 18 296
3 299 154 18
3 300 154 299
3 300 71 154
3 160 300 73
3 301 300 160
3 301 71 300
3 301 293 71
3 302 293 301
3 302 2 293
3 302 213 2
3 303 213 302
3 303 40 213
3 162 303 74
3 304 303 162
3 304 40 303
3 304 96 40
3 305 96 304
3 305 5 96
3 206 163 19
3 306 163 206
3 306 75 163
3 165 306 37
3 307 306 165
3 307 75 306
3 307 305 75
3 308 305 307
3 308 5 305
3 308 174 5
3 309 174 308
3 309 695 697
3 697 696 174
3 695 696 697
3 698 309 699
3 700 699 76
3 698 699 700
3 701 309 702
3 704 703 309
3 230 705 707
3 707 706 3
3 705 706 707
3 310 708 710
3 710 709 230
3 708 709 710
3 310 711 712
3 168 310 47
3 713 310 714
3 715 714 168
3 713 714 715
3 717 716 310
3 209 169 9
3 311 169 209
3 311 718 720
3 720 719 169
3 718 719 720
3 721 311 722
3 723 722 39
3 721 722 723
3 724 311 725
3 727 726 311
3 244 81 0
3 312 81 244
3 312 22 81
3 171 312 54
3 313 312 171
3 313 22 312
3 313 179 22
3 314 179 313
3 314 10 179
3 212 172 12
3 315 172 212
3 315 77 172
3 173 728 730
3 728 315 729
3 728 729 730
3 316 315 173
3 316 77 315
3 316 314 77
3 317 314 316
3 317 10 314
3 317 109 10
3 318 109 317
3 318 50 109
3 731 318 732
3 733 732 78
3 731 732 733
3 734 318 735
3 736 50 737
3 738 737 318
3 736 737 738
3 740 739 50
