ply
format ascii 1.0
element vertex 972
property float x
property float y
property float z
element face 946
property list uchar int vertex_index
end_header
9.183919 -51.314716 48.16468
5.607928 -9.605791 33.165382
5.996114 -69.184593 40.076283
12.633722 -63.534412 30.034847
9.015331 -58.973289 44.498322
8.269454 -55.041401 52.199013
8.151151 -63.384155 49.132275
27.910971 32.202557 36.131142
6.026608 -37.61301 42.180779
7.124483 -21.061678 29.066259
16.581692 -71.156944 39.856281
8.05856 -68.4953 34.543652
7.459956 -73.763977 45.408455
6.976068 -44.926949 46.24604
4.164752 -23.411373 33.712097
8.202623 -34.131832 29.599802
8.824188 -44.583122 23.441784
8.040562 -55.210106 45.871212
10.328529 -52.385998 44.850677
8.587065 -52.968231 50.312897
6.807402 -57.146729 48.159988
9.252048 -71.843582 39.879894
12.247792 -68.824463 38.020725
6.291512 -70.001404 36.851242
6.696931 -66.378334 43.667313
6.427526 -68.68148 46.110847
6.571715 -71.625511 42.406483
11.292425 -72.968323 42.96703
11.668712 -43.168316 43.767479
6.161713 -46.165398 42.87236
7.529141 -42.654869 42.451263
4.146766 -16.743227 32.555729
5.141089 -27.403616 27.060902
8.826586 -27.877625 29.54096
8.183559 -33.905437 27.204285
9.127485 -39.592434 27.246777
6.865383 -39.329365 24.324493
7.301393 -43.839821 20.596846
16.586834 -64.341934 32.644318
20.553614 -65.30217 28.702881
6.997012 -63.904266 41.59333
5.336218 -61.258099 53.453449
5.686222 -59.369465 50.853756
8.732958 -61.140179 47.020107
6.582352 -33.493282 42.045265
7.097998 -8.170417 31.439411
7.842326 -15.351828 31.686325
5.007092 -14.131757 29.441278
2.136133 -20.362667 27.427927
9.331602 -64.796288 26.543344
16.957609 -61.033764 27.41363
14.44973 -66.730545 35.199348
10.248174 -65.692024 32.553963
7.272361 -65.640541 51.316345
7.298664 -70.492783 48.988018
10.094678 -74.022232 48.414757
13.559878 -74.4272 45.0802
5.707362 -48.264313 50.271393
6.706699 -48.112316 46.805164
9.634983 -48.454643 44.139137
5.912766 -41.715332 40.554256
7.306752 -22.08186 31.516657
5.52351 -28.366512 30.526867
4.086635 -34.022434 30.658405
9.28517 -53.651649 46.946735
9.206625 -53.927074 45.120686
9.896652 -51.925037 46.526531
8.819359 -52.092377 49.144226
8.974777 -54.393944 48.11319
6.749407 -71.362236 39.583588
7.815808 -71.046211 38.364391
5.995387 -69.795067 38.449341
6.401516 -67.701775 41.603615
6.673343 -68.94072 42.861382
6.482687 -70.359566 41.145279
7.122926 -72.533592 40.819324
9.600508 -42.937347 43.105587
11.509539 -41.277416 41.926022
3.779182 -10.540455 33.779839
3.797659 -14.12134 34.224422
4.883963 -13.307486 32.806316
4.120803 -30.633764 26.3195
6.68467 -30.746723 27.132584
5.774289 -33.772968 26.036585
7.475722 -36.596252 25.844284
4.920885 -36.53112 24.849873
14.716189 -63.178902 31.919525
18.752703 -64.294662 30.932968
16.729343 -62.249001 30.396938
9.368698 -61.665455 42.900204
7.880422 -56.147636 53.133888
6.102447 -58.257286 52.513783
6.902746 -57.302582 51.415161
7.041857 -58.163979 46.264721
6.806048 -59.148155 47.600365
9.040004 -60.069683 45.768288
8.949847 -62.918182 43.988708
4.757632 -32.796288 41.948715
4.968474 -30.252941 41.440918
5.24694 -7.53495 30.421957
6.078486 -11.241883 30.477829
3.898463 -10.532539 29.678711
11.666788 -63.095886 25.573643
17.309568 -70.545998 38.420502
10.477727 -68.115105 36.81176
13.424609 -67.693779 36.749268
11.533007 -66.727043 35.785717
12.518175 -65.528748 34.616585
9.109232 -67.137978 33.566841
6.441917 -62.277824 51.46701
6.27456 -63.556896 52.649769
7.627994 -64.564148 50.293816
6.571597 -71.238297 45.470577
6.592409 -69.671906 47.547081
6.89296 -72.450813 47.065735
7.752997 -73.290031 48.790703
8.704817 -74.148361 47.039894
11.768473 -74.121902 46.658096
10.342485 -74.194252 45.604645
14.403275 -71.650696 41.547798
15.371829 -73.071014 42.430763
26.61771 33.228172 33.954338
6.733323 -46.852661 49.667725
5.769588 -49.026428 51.739769
5.903203 -46.354675 46.440857
8.062786 -48.310528 45.546837
6.735046 -47.020683 44.967655
7.009069 -45.977013 41.274975
9.06957 -47.138203 41.820648
8.077417 -38.029823 41.675968
7.079371 -40.05864 41.848133
5.910233 -39.561623 41.16851
7.752614 -18.151335 30.405645
7.752931 -18.763103 31.717743
8.239692 -21.492502 30.457546
9.004637 -31.069647 29.816494
8.227464 -28.142319 30.640509
7.098868 -31.137669 30.177328
4.493215 -31.066101 30.330933
5.483134 -33.865467 29.424799
4.435485 -36.689621 29.457077
6.588493 -36.718884 28.878998
9.040365 -42.290764 25.540913
7.443804 -42.141106 26.65773
7.258672 -44.610184 24.817436
8.169384 -45.777657 18.338665
7.245267 -45.43322 16.791859
19.585438 -60.456886 25.921906
20.991598 -62.684319 26.459036
22.391405 -63.402355 23.808849
7.304115 -57.158592 45.06197
7.982524 -55.462452 44.344486
8.489199 -53.91626 51.32386
7.710603 -56.382671 50.282665
8.627629 -55.412701 49.233963
7.42647 -56.086601 46.984184
34.769653 -76.63253 37.234234
12.886121 -70.628448 40.599922
14.418749 -69.643692 39.185345
10.878504 -70.187012 39.1222
9.284704 -69.627029 37.60844
7.04988 -69.567169 35.624321
7.968439 -65.18251 46.150642
7.306331 -66.20285 47.247639
6.578691 -67.621872 44.867226
6.648863 -70.054924 44.203625
6.783377 -72.788506 43.826408
8.969969 -73.974289 44.16349
7.859994 -73.414375 42.342743
10.225321 -72.369507 41.513306
9.37858 -44.315792 44.971428
5.898139 -45.555397 44.757954
7.22136 -44.286507 44.003708
6.000204 -44.488724 42.747337
5.747482 -44.400696 41.455883
5.496459 -37.100788 40.850525
6.549505 -38.780819 39.665367
3.843172 -20.19075 32.9412
6.150819 -24.154293 27.983313
8.077958 -24.527563 29.240032
7.453873 -27.657074 28.118835
8.688207 -30.925375 28.446299
9.233583 -34.107735 28.662964
8.905493 -36.895763 28.642536
9.169753 -36.83889 27.269344
8.844931 -39.458576 25.73258
8.525068 -41.940228 23.888788
8.60185 -44.232765 21.950836
6.860925 -41.639275 22.679813
18.485718 -66.44175 33.273327
5.756174 -66.461388 40.726551
5.19856 -67.287582 39.457409
5.763546 -59.260529 53.839149
5.409253 -60.226978 52.147022
6.552287 -61.309917 50.27317
6.116762 -58.174236 49.427574
6.564271 -60.203087 48.976471
8.444226 -62.397804 48.051746
8.531076 -64.054276 45.073841
6.775022 -65.043205 42.582329
29.102772 30.819645 37.933723
6.347853 -35.71806 42.466583
4.817207 -35.225105 41.962116
7.372288 -8.859313 32.71566
7.237811 -12.561487 32.740108
7.517627 -11.845035 31.604053
7.020042 -14.762651 30.390467
6.014417 -17.664087 29.186991
3.642758 -17.213184 28.403875
4.987075 -20.763741 27.99966
3.76088 -23.92186 27.163044
11.030523 -64.619156 28.099197
14.481091 -62.301502 28.602854
13.307465 -62.880241 26.923035
15.61575 -61.205677 25.758396
4.070495 -7.422671 33.570087
6.375155 -6.464149 33.318542
7.439682 -5.688488 32.306019
15.492584 -68.759468 37.760326
16.262966 -67.989967 36.170383
17.268101 -67.094681 34.822433
15.396347 -65.557808 33.93148
13.62102 -64.389908 33.240852
11.308019 -64.523453 31.293457
5.092006 -68.181931 37.682655
5.267957 -68.809792 34.099537
5.822385 -68.951866 32.443359
7.132121 -68.271156 31.191845
8.444902 -67.153862 30.156866
9.52731 -65.79052 29.188007
5.416938 -62.499397 54.735821
6.107507 -64.655098 53.689564
7.40518 -66.590256 52.423546
6.897932 -67.300156 48.563755
7.053552 -68.312958 49.943901
7.729785 -68.922073 51.360161
8.245374 -71.309021 50.529121
9.429667 -73.369751 50.245281
12.574961 -73.886765 44.046383
7.192964 -49.761749 49.244465
8.084978 -49.597279 47.638329
5.955904 -48.11557 48.451153
6.109419 -46.365807 47.972404
8.175498 -45.239689 47.564571
7.549402 -52.081799 52.985023
7.188848 -51.285206 51.771576
7.173151 -50.459225 50.528641
9.420341 -49.865856 46.345245
10.630161 -50.213909 44.775158
7.956458 -47.190323 43.38353
10.720826 -48.487095 42.610771
9.280583 -40.729546 41.725937
6.045426 -42.151676 41.801445
6.712055 -43.796284 40.063152
5.004575 -20.040382 39.605785
5.258197 -23.483252 39.966228
5.265706 -26.986053 40.644604
6.474905 -16.015804 32.426582
5.554001 -19.435429 31.912613
4.727657 -22.756226 31.626385
8.450851 -24.864508 30.642406
6.491905 -25.2957 31.046417
4.424955 -25.849747 31.807215
4.363638 -28.824265 32.157921
7.20361 -39.513424 27.943466
8.742559 -46.314301 19.773558
19.031893 -62.203857 28.683435
13.158178 -40.671272 41.244196
12.502212 -41.550493 42.035075
4.231246 -33.766819 25.654657
4.947546 -32.203366 26.178043
3.404503 -32.197217 25.796114
3.804544 -35.145895 25.061301
5.347587 -35.152044 25.443229
4.231246 -33.766819 25.654657
3.632199 -36.504032 24.366994
3.804544 -35.145895 25.061301
9.275426 -59.240539 43.493989
9.452109 -60.586623 42.69493
9.192014 -60.319372 43.699263
5.893885 -29.284841 41.107525
5.780694 -30.666614 41.438656
3.25337 -8.733187 29.64464
4.572701 -9.033745 30.050334
3.927609 -7.234392 30.016263
16.94563 -70.851471 39.138391
17.484935 -71.828392 38.773514
17.120998 -72.133865 39.491404
16.817027 -72.184849 40.209444
15.727818 -72.431725 41.055203
15.492484 -71.40382 40.702039
17.120998 -72.133865 39.491404
16.817027 -72.184849 40.209444
27.26434 32.715364 35.04274
26.442433 32.4887 34.442703
27.089064 31.975893 35.531105
8.776615 -46.394688 40.812683
7.725245 -45.675713 40.671175
4.418474 -23.865158 35.160152
4.162349 -22.195828 34.700927
4.541737 -25.051654 34.024578
4.418474 -23.865158 35.160152
7.593568 -45.584089 22.834897
6.81081 -45.59762 23.522723
8.04143 -44.596653 24.12961
8.463878 -45.615944 22.309036
7.593568 -45.584089 22.834897
5.827163 -44.513103 17.171906
6.509548 -44.576479 17.984213
6.702835 -45.241162 16.034158
5.827163 -44.513103 17.171906
22.095914 -61.907449 23.909867
20.988422 -61.92962 24.865378
20.69293 -60.434715 24.966395
9.89347 -53.239237 44.200766
9.332518 -54.009775 44.33577
9.767577 -53.156536 44.985681
10.628912 -52.472834 44.027275
9.89347 -53.239237 44.200766
34.874816 -77.598877 35.484709
34.584526 -76.242733 35.885165
6.596941 -37.420979 39.482123
5.76804 -36.647955 39.955738
4.009467 -17.234696 33.682852
3.834913 -15.923753 34.517198
3.972213 -15.432284 33.390075
3.994969 -18.466988 32.748464
3.85767 -18.958458 33.875588
4.009467 -17.234696 33.682852
18.16603 -65.888061 31.708623
19.115472 -66.93797 32.023128
17.536276 -65.391842 32.958822
20.598593 -67.059952 28.359195
19.698138 -66.556198 29.474238
19.653158 -64.798416 29.817925
20.750971 -67.739472 26.753163
20.598593 -67.059952 28.359195
6.381425 -64.005832 40.911802
5.761006 -65.284393 40.478413
6.376593 -65.182827 41.159941
6.616399 -58.188508 54.042713
6.489387 -58.64159 54.65549
29.849121 30.226859 38.761707
29.148443 29.997922 38.33831
29.894791 29.405136 39.166294
29.777191 30.818311 38.252655
29.849121 30.226859 38.761707
7.770372 -33.79173 41.357563
7.643699 -32.569285 41.088486
6.465103 -34.605671 42.255924
7.653123 -34.90412 41.568222
7.770372 -33.79173 41.357563
4.804472 -33.578751 40.904854
4.581075 -32.426098 41.101099
2.889445 -18.787926 27.915901
2.286491 -17.00465 28.016434
1.533178 -18.579391 27.528461
14.8218 -61.249403 25.085415
13.641269 -62.150782 25.66602
12.847319 -62.194508 24.993039
16.751724 -60.494787 25.226063
14.8218 -61.249403 25.085415
3.961582 -6.403569 34.387273
3.927633 -7.973327 34.533655
6.727799 -4.964616 33.168064
5.512564 -5.344781 33.35792
7.260063 -4.576785 32.661803
6.907419 -6.076319 32.81228
6.727799 -4.964616 33.168064
5.112218 -66.289036 38.282089
5.145283 -67.734757 38.570032
5.165495 -65.841861 39.169466
5.430763 -67.192109 34.832397
5.310376 -68.656853 34.96855
5.379314 -67.781627 32.148533
5.633805 -67.542153 33.038702
6.034182 -67.441272 31.522776
6.477253 -68.611511 31.817602
5.379314 -67.781627 32.148533
7.217965 -67.038777 29.384763
6.688129 -67.16164 30.109305
7.759169 -66.357106 28.900334
8.986106 -66.472191 29.672436
7.217965 -67.038777 29.384763
8.481873 -65.914509 28.305849
7.759169 -66.357106 28.900334
5.376578 -61.878748 54.094635
5.643992 -61.323593 54.998446
5.603631 -60.702944 54.357259
10.88558 -73.821686 48.953421
10.553075 -73.495445 49.868683
9.762173 -73.695991 49.330019
11.542468 -73.970768 47.864731
10.88558 -73.821686 48.953421
13.894163 -74.423084 45.410972
12.99846 -74.270435 46.199921
12.664175 -74.274551 45.869148
14.58659 -74.593929 44.796665
13.894163 -74.423084 45.410972
15.401764 -73.724442 42.970228
16.15777 -74.00317 42.050285
7.592098 -46.248922 48.458673
6.421371 -46.609234 48.820065
7.90405 -46.49235 49.306333
8.625137 -45.685863 48.254756
7.142459 -45.802748 47.768487
7.592098 -46.248922 48.458673
6.706708 -50.972208 53.179462
6.912061 -51.46093 53.83795
6.526431 -50.573912 52.572738
7.369125 -51.683503 52.378299
6.706708 -50.972208 53.179462
10.576226 -49.470771 43.640991
11.073815 -50.350404 43.959001
10.132572 -49.334276 44.457147
11.430025 -48.463341 41.863641
9.895198 -47.812649 42.21571
10.604397 -47.788895 41.46858
11.693102 -49.591446 42.135086
11.430025 -48.463341 41.863641
9.92016 -39.699188 41.3118
11.016094 -40.022789 41.103199
6.960318 -39.845162 39.417771
7.714556 -39.282831 38.65366
4.621557 -19.398152 38.634981
4.832669 -18.2457 39.387957
4.964898 -24.567895 39.523038
4.750151 -22.761075 39.26011
4.968652 -26.319295 39.862227
5.261952 -25.234652 40.305416
4.964898 -24.567895 39.523038
4.944033 -28.108064 40.159563
4.968652 -26.319295 39.862227
4.295096 -32.878305 31.584447
4.498386 -31.400139 31.420711
4.289925 -32.544267 30.494669
4.463538 -34.290825 31.707253
4.295096 -32.878305 31.584447
4.321923 -35.489889 31.01322
4.463538 -34.290825 31.707253
4.358066 -38.139685 29.926028
4.557032 -37.994026 28.939878
6.158332 -42.040215 27.057817
6.271935 -43.397841 26.378245
8.026844 -46.935585 17.752123
8.445163 -46.759315 17.145117
21.276235 -64.528668 26.175433
21.533978 -64.944859 24.661232
11.547697 -42.380459 42.624857
10.63461 -43.052831 43.436533
12.581799 -42.495943 42.955803
10.555024 -42.107382 42.515805
11.547697 -42.380459 42.624857
12.502212 -41.550493 42.035075
3.78842 -12.330897 34.00213
3.851668 -12.831183 35.197954
3.842429 -11.040741 34.975662
4.82568 -37.835631 24.139615
5.797929 -39.234753 23.876925
5.893134 -37.930243 24.587183
4.82568 -37.835631 24.139615
3.632199 -36.504032 24.366994
8.849113 -61.908554 41.925051
7.66327 -63.02796 41.271614
8.182855 -62.784861 42.246767
8.849113 -61.908554 41.925051
9.452109 -60.586623 42.69493
6.991435 -57.202461 52.823836
6.785849 -57.686886 53.38003
7.674837 -56.632061 53.690083
6.587633 -32.286784 41.74083
7.643699 -32.569285 41.088486
5.675273 -31.938287 41.692554
5.669992 -33.144785 41.99699
6.587633 -32.286784 41.74083
4.863053 -31.524614 41.694817
5.675273 -31.938287 41.692554
5.780694 -30.666614 41.438656
4.686496 -31.154425 40.8472
4.581075 -32.426098 41.101099
4.863053 -31.524614 41.694817
1.2613 -20.234086 26.877876
1.533178 -18.579391 27.528461
1.600097 -22.076854 26.923546
1.2613 -20.234086 26.877876
9.328943 -63.601585 25.41875
10.499195 -63.946087 26.058494
8.16135 -64.451786 25.903601
10.43359 -62.818432 25.165579
9.328943 -63.601585 25.41875
8.095745 -63.324131 25.010686
12.847319 -62.194508 24.993039
10.43359 -62.818432 25.165579
17.922193 -71.642098 37.947108
17.484935 -71.828392 38.773514
17.718778 -70.3168 37.635433
17.922193 -71.642098 37.947108
16.212096 -73.141884 41.496685
14.887552 -72.360855 41.98928
15.727818 -72.431725 41.055203
16.15777 -74.00317 42.050285
16.212096 -73.141884 41.496685
25.745558 33.254732 33.557921
26.442433 32.4887 34.442703
25.822399 34.059822 33.254579
25.745558 33.254732 33.557921
7.142485 -47.293463 50.547953
6.220343 -47.558487 49.969559
6.629504 -47.999289 50.849787
8.188033 -47.087116 50.059201
7.142485 -47.293463 50.547953
7.90405 -46.49235 49.306333
8.188033 -47.087116 50.059201
6.593886 -48.739544 52.366127
5.8168 -49.444523 52.556835
6.660617 -48.380346 51.583975
6.593886 -48.739544 52.366127
6.629504 -47.999289 50.849787
5.738475 -48.64537 51.005581
6.660617 -48.380346 51.583975
9.806865 -46.975283 41.08552
8.03932 -46.557608 41.547811
8.776615 -46.394688 40.812683
10.604397 -47.788895 41.46858
9.806865 -46.975283 41.08552
7.578394 -39.044231 41.762051
8.819553 -39.363735 41.372898
9.318576 -38.349327 41.286816
5.633536 -38.008657 28.650838
4.557032 -37.994026 28.939878
5.511989 -36.704253 29.168038
6.179369 -44.632379 25.458098
6.271935 -43.397841 26.378245
7.351238 -43.375645 25.737583
5.982228 -45.704821 24.239275
6.179369 -44.632379 25.458098
5.982228 -45.704821 24.239275
6.81081 -45.59762 23.522723
6.971607 -44.748697 18.757616
7.735389 -44.808739 19.467755
6.537611 -43.77978 19.886706
7.707326 -45.605438 17.565262
6.971607 -44.748697 18.757616
6.509548 -44.576479 17.984213
7.983105 -46.587097 16.371714
8.445163 -46.759315 17.145117
7.707326 -45.605438 17.565262
8.061077 -46.313385 15.686325
7.983105 -46.587097 16.371714
8.061077 -46.313385 15.686325
6.702835 -45.241162 16.034158
22.233882 -65.303877 23.336138
21.533978 -64.944859 24.661232
21.691502 -63.043337 25.133942
7.813073 -57.327459 44.312027
8.668681 -58.234808 44.030203
8.159723 -58.06594 44.780146
8.152278 -56.479389 43.953285
7.813073 -57.327459 44.312027
7.64332 -56.310522 44.703228
8.340554 -55.580595 43.542417
8.152278 -56.479389 43.953285
8.720468 -54.777464 43.94767
8.594575 -54.694763 44.732586
9.332518 -54.009775 44.33577
8.340554 -55.580595 43.542417
8.720468 -54.777464 43.94767
35.345779 -77.500111 36.625679
35.907893 -77.283283 37.493931
35.331766 -76.415703 38.102486
35.345779 -77.500111 36.625679
34.874816 -77.598877 35.484709
28.171532 32.849279 35.411777
28.671247 32.229067 36.571972
7.094452 -44.887555 40.761629
7.725245 -45.675713 40.671175
6.378275 -45.188855 41.365429
7.123464 -38.260994 38.889544
6.022982 -37.940804 40.257946
6.596941 -37.420979 39.482123
7.714556 -39.282831 38.65366
7.123464 -38.260994 38.889544
4.032197 -14.674422 35.52725
3.851668 -12.831183 35.197954
4.032197 -14.674422 35.52725
3.834913 -15.923753 34.517198
4.001559 -20.585516 34.315479
3.85767 -18.958458 33.875588
4.003962 -21.801062 33.326649
4.162349 -22.195828 34.700927
4.001559 -20.585516 34.315479
5.7957 -40.389708 23.054584
6.863154 -40.48432 23.502153
5.797929 -39.234753 23.876925
5.933755 -41.592972 22.083149
5.7957 -40.389708 23.054584
6.153989 -42.693245 21.041666
7.081159 -42.739548 21.638329
5.933755 -41.592972 22.083149
6.537611 -43.77978 19.886706
6.153989 -42.693245 21.041666
19.208061 -68.807301 31.779005
18.915836 -68.163697 33.07064
19.208061 -68.807301 31.779005
19.115472 -66.93797 32.023128
19.248964 -65.864426 30.852948
18.16603 -65.888061 31.708623
17.669768 -64.318298 31.788643
19.248964 -65.864426 30.852948
19.698138 -66.556198 29.474238
5.4822 -65.697491 39.843841
5.477367 -66.874485 40.09198
5.761006 -65.284393 40.478413
5.165495 -65.841861 39.169466
5.4822 -65.697491 39.843841
6.381425 -64.005832 40.911802
7.66327 -63.02796 41.271614
9.275426 -59.240539 43.493989
8.668681 -58.234808 44.030203
5.817296 -59.704159 54.550109
6.489387 -58.64159 54.65549
5.549882 -60.259314 53.646299
5.603631 -60.702944 54.357259
5.817296 -59.704159 54.550109
5.932996 -58.758907 53.176466
6.616399 -58.188508 54.042713
6.785849 -57.686886 53.38003
27.789949 31.351971 36.536215
27.089064 31.975893 35.531105
28.385849 30.660515 37.437506
29.148443 29.997922 38.33831
28.506872 31.511101 37.032432
27.789949 31.351971 36.536215
28.385849 30.660515 37.437506
29.267148 31.537611 37.473263
28.671247 32.229067 36.571972
28.506872 31.511101 37.032432
29.267148 31.537611 37.473263
29.777191 30.818311 38.252655
9.585307 -37.329926 40.831442
9.318576 -38.349327 41.286816
8.42361 -37.122802 41.415397
9.585307 -37.329926 40.831442
7.398205 -36.914396 41.667803
7.052013 -37.821416 41.928373
8.42361 -37.122802 41.415397
7.558827 -35.966921 41.810705
7.653123 -34.90412 41.568222
6.187231 -36.665535 42.323681
7.398205 -36.914396 41.667803
7.558827 -35.966921 41.810705
5.428414 -35.710113 40.511533
5.76804 -36.647955 39.955738
5.156833 -36.162947 41.40632
4.834259 -34.79316 40.911554
4.78742 -34.010696 41.955416
4.804472 -33.578751 40.904854
5.428414 -35.710113 40.511533
4.834259 -34.79316 40.911554
2.444993 -10.270246 29.180104
3.25337 -8.733187 29.64464
3.021237 -12.028941 29.211276
2.444993 -10.270246 29.180104
3.575551 -13.82855 29.09256
4.452777 -12.332148 29.559995
3.021237 -12.028941 29.211276
2.893384 -15.369263 28.573858
2.286491 -17.00465 28.016434
4.324925 -15.67247 28.922576
3.575551 -13.82855 29.09256
2.893384 -15.369263 28.573858
2.41247 -23.856451 26.791104
2.948506 -22.142263 27.295485
1.600097 -22.076854 26.923546
2.922911 -25.641889 26.755249
2.41247 -23.856451 26.791104
3.613016 -27.382766 26.704178
4.450984 -25.662738 27.111973
2.922911 -25.641889 26.755249
3.102873 -28.99784 26.333477
4.630946 -29.01869 26.690201
3.613016 -27.382766 26.704178
2.596811 -30.658238 25.885264
3.102873 -28.99784 26.333477
3.404503 -32.197217 25.796114
2.596811 -30.658238 25.885264
18.736567 -60.120391 25.307817
17.600594 -60.831282 25.840151
16.751724 -60.494787 25.226063
20.69293 -60.434715 24.966395
18.736567 -60.120391 25.307817
3.781977 -9.532219 34.638531
3.842429 -11.040741 34.975662
3.924838 -8.981563 33.674963
3.781977 -9.532219 34.638531
3.927633 -7.973327 34.533655
4.360234 -5.824042 33.483692
3.961582 -6.403569 34.387273
5.222825 -6.94341 33.444315
4.360234 -5.824042 33.483692
5.512564 -5.344781 33.35792
7.320775 -4.176709 31.926607
7.260063 -4.576785 32.661803
6.900571 -5.389022 31.643096
7.320775 -4.176709 31.926607
6.729729 -6.629986 31.209792
7.26884 -6.929453 31.872715
6.900571 -5.389022 31.643096
5.804201 -6.312252 30.701065
6.172469 -7.852684 30.930684
6.729729 -6.629986 31.209792
4.72154 -5.992066 30.263067
5.804201 -6.312252 30.701065
3.927609 -7.234392 30.016263
4.72154 -5.992066 30.263067
16.810287 -69.423535 37.305346
17.718778 -70.3168 37.635433
16.401076 -69.652733 38.090414
17.195477 -69.038784 36.510374
16.810287 -69.423535 37.305346
15.877775 -68.374718 36.965355
17.595868 -68.897106 35.558683
17.195477 -69.038784 36.510374
18.098436 -68.449463 34.884708
17.595868 -68.897106 35.558683
16.765534 -67.542324 35.496408
18.307027 -68.490162 33.845193
18.098436 -68.449463 34.884708
17.87691 -66.768215 34.04788
18.915836 -68.163697 33.07064
18.307027 -68.490162 33.845193
5.133577 -66.635941 37.439728
5.112218 -66.289036 38.282089
5.2224 -68.342923 36.760109
5.133577 -66.635941 37.439728
5.822153 -69.252659 36.344403
5.691759 -69.091667 37.266948
5.2224 -68.342923 36.760109
6.201337 -69.035541 35.730942
6.670696 -69.784287 36.237781
5.822153 -69.252659 36.344403
6.158919 -69.18848 34.861929
6.201337 -69.035541 35.730942
5.310376 -68.656853 34.96855
5.356592 -67.471115 33.866791
5.430763 -67.192109 34.832397
5.545171 -68.880829 33.271448
5.356592 -67.471115 33.866791
5.633805 -67.542153 33.038702
6.031738 -67.720287 30.626794
6.034182 -67.441272 31.522776
7.788512 -67.712509 30.674356
6.031738 -67.720287 30.626794
6.688129 -67.16164 30.109305
9.233479 -65.328827 27.761444
10.278917 -65.204838 28.643602
8.481873 -65.914509 28.305849
8.384019 -65.417393 26.983518
10.181062 -64.707722 27.321271
9.233479 -65.328827 27.761444
7.409196 -64.681885 26.350261
8.384019 -65.417393 26.983518
8.16135 -64.451786 25.903601
7.409196 -64.681885 26.350261
5.871279 -61.916065 55.641903
5.643992 -61.323593 54.998446
5.664299 -63.091385 55.343142
5.871279 -61.916065 55.641903
6.009583 -64.169235 54.820013
5.664299 -63.091385 55.343142
5.762223 -63.577247 54.212693
6.388592 -65.076535 54.263081
6.009583 -64.169235 54.820013
7.037428 -66.044114 53.630071
6.388592 -65.076535 54.263081
6.756343 -65.622677 53.056555
7.761633 -66.919033 53.003167
7.037428 -66.044114 53.630071
7.923935 -68.084941 52.471474
7.761633 -66.919033 53.003167
7.567482 -67.756164 51.891853
8.10663 -69.166286 51.989739
7.923935 -68.084941 52.471474
8.364425 -70.35976 51.574219
8.10663 -69.166286 51.989739
7.987579 -70.115547 50.944641
8.866001 -71.458194 51.089782
8.364425 -70.35976 51.574219
9.458148 -72.488559 50.947862
8.866001 -71.458194 51.089782
8.837521 -72.339386 50.387201
10.281133 -73.139595 50.780313
9.458148 -72.488559 50.947862
10.281133 -73.139595 50.780313
10.553075 -73.495445 49.868683
12.379365 -74.020603 46.986401
11.542468 -73.970768 47.864731
10.931576 -74.072067 47.536427
12.379365 -74.020603 46.986401
12.99846 -74.270435 46.199921
14.00333 -74.132317 43.778038
13.973395 -73.47889 43.238573
15.401764 -73.724442 42.970228
14.495788 -74.402535 44.294946
13.067419 -74.156982 44.563291
14.00333 -74.132317 43.778038
14.58659 -74.593929 44.796665
14.495788 -74.402535 44.294946
34.7889 -75.800476 38.456614
35.331766 -76.415703 38.102486
34.451344 -75.534629 37.30884
34.7889 -75.800476 38.456614
34.470591 -74.702575 38.531219
34.584526 -76.242733 35.885165
34.451344 -75.534629 37.30884
27.524901 33.362087 34.323375
27.26434 32.715364 35.04274
28.171532 32.849279 35.411777
26.754389 33.766679 33.447694
27.524901 33.362087 34.323375
25.822399 34.059822 33.254579
26.754389 33.766679 33.447694
9.906256 -45.519987 47.665365
8.625137 -45.685863 48.254756
9.427473 -45.039011 46.920459
9.906256 -45.519987 47.665365
8.827758 -44.882641 46.261194
7.575783 -45.083319 46.905305
9.427473 -45.039011 46.920459
10.029014 -44.577062 45.623888
8.177324 -44.62137 45.608734
8.827758 -44.882641 46.261194
11.115575 -44.218672 44.958706
10.029014 -44.577062 45.623888
12.260641 -43.644934 44.356732
10.523646 -43.742054 44.369454
11.115575 -44.218672 44.958706
13.241551 -43.086579 43.554922
12.260641 -43.644934 44.356732
12.581799 -42.495943 42.955803
13.241551 -43.086579 43.554922
8.341504 -55.054952 54.011604
7.674837 -56.632061 53.690083
8.046874 -54.56425 53.524795
8.341504 -55.054952 54.011604
8.24139 -54.011133 53.057358
8.074938 -55.594518 52.66645
8.046874 -54.56425 53.524795
7.881364 -52.531332 53.450363
6.912061 -51.46093 53.83795
7.909428 -53.5616 52.592018
8.24139 -54.011133 53.057358
7.881364 -52.531332 53.450363
6.479218 -50.155817 51.755673
6.526431 -50.573912 52.572738
5.8168 -49.444523 52.556835
10.779728 -51.386789 43.989515
10.628912 -52.472834 44.027275
10.479345 -51.299954 44.812917
10.779728 -51.386789 43.989515
11.073815 -50.350404 43.959001
11.119148 -49.486998 42.876808
10.576226 -49.470771 43.640991
10.177905 -48.470869 43.374954
11.119148 -49.486998 42.876808
11.693102 -49.591446 42.135086
12.130572 -40.296724 41.203242
13.158178 -40.671272 41.244196
10.395061 -41.003481 41.82598
12.130572 -40.296724 41.203242
11.016094 -40.022789 41.103199
8.179977 -40.394093 41.787035
9.92016 -39.699188 41.3118
8.819553 -39.363735 41.372898
7.576738 -44.585348 40.065264
7.094452 -44.887555 40.761629
6.229769 -44.09849 40.759518
6.640681 -40.235563 40.169342
6.229869 -39.171221 40.416939
6.960318 -39.845162 39.417771
6.641948 -41.312418 39.862215
5.911499 -40.638477 40.861383
6.640681 -40.235563 40.169342
7.265873 -42.26382 39.683823
6.641948 -41.312418 39.862215
7.665517 -43.304296 39.438271
6.312411 -42.755808 40.308704
7.265873 -42.26382 39.683823
8.525536 -44.166144 39.454691
7.665517 -43.304296 39.438271
7.576738 -44.585348 40.065264
8.525536 -44.166144 39.454691
5.673179 -18.863871 39.652299
4.832669 -18.2457 39.387957
5.920243 -20.741402 39.618319
5.673179 -18.863871 39.652299
4.62334 -21.03964 39.079889
4.621557 -19.398152 38.634981
5.131386 -21.761817 39.786006
4.62334 -21.03964 39.079889
4.750151 -22.761075 39.26011
6.047054 -22.462837 39.79854
5.920243 -20.741402 39.618319
5.131386 -21.761817 39.786006
6.139655 -24.202652 39.954897
6.047054 -22.462837 39.79854
6.14341 -25.954052 40.294084
6.139655 -24.202652 39.954897
5.261952 -25.234652 40.305416
6.042501 -27.651398 40.709368
6.14341 -25.954052 40.294084
5.11709 -28.619497 41.042761
5.893885 -29.284841 41.107525
6.042501 -27.651398 40.709368
4.795417 -29.741509 40.55772
5.11709 -28.619497 41.042761
4.944033 -28.108064 40.159563
4.686496 -31.154425 40.8472
4.795417 -29.741509 40.55772
4.671839 -26.270841 33.072137
4.541737 -25.051654 34.024578
4.294854 -24.63056 32.759656
4.64118 -27.7581 33.24749
4.671839 -26.270841 33.072137
4.394296 -27.337006 31.982568
4.834493 -29.334447 33.508758
4.64118 -27.7581 33.24749
4.433597 -30.279221 32.334205
4.428427 -29.945183 31.244427
4.498386 -31.400139 31.420711
4.834493 -29.334447 33.508758
4.433597 -30.279221 32.334205
4.496348 -36.823482 30.412557
4.321923 -35.489889 31.01322
4.26106 -35.356027 30.057741
4.496348 -36.823482 30.412557
4.358066 -38.139685 29.926028
5.941095 -39.405928 28.183072
5.633536 -38.008657 28.650838
6.896052 -38.116154 28.411232
6.038235 -40.726374 27.700685
7.323707 -40.827265 27.300598
6.158332 -42.040215 27.057817
5.941095 -39.405928 28.183072
6.038235 -40.726374 27.700685
8.352709 -45.440765 21.563562
8.463878 -45.615944 22.309036
8.713019 -44.407944 22.69631
8.423064 -46.481533 20.474924
8.352709 -45.440765 21.563562
8.672204 -45.273533 20.862197
7.670366 -47.160389 19.005932
8.423064 -46.481533 20.474924
8.313431 -47.203907 18.469569
8.455972 -46.045979 19.056112
8.026844 -46.935585 17.752123
7.670366 -47.160389 19.005932
8.313431 -47.203907 18.469569
20.296382 -64.288437 27.287633
20.011745 -62.444088 27.571236
21.276235 -64.528668 26.175433
21.057243 -65.837593 27.297356
19.792753 -63.753014 28.693158
20.296382 -64.288437 27.287633
20.750971 -67.739472 26.753163
21.057243 -65.837593 27.297356
23.016628 -63.858373 22.35532
22.095914 -61.907449 23.909867
22.455191 -65.650549 21.657683
23.016628 -63.858373 22.35532
22.233882 -65.303877 23.336138
22.455191 -65.650549 21.657683
3 0 66 64
3 0 64 67
3 2 71 69
3 2 74 72
3 2 69 74
3 267 77 268
3 1 80 78
3 269 83 270
3 271 270 81
3 269 270 271
3 272 85 273
3 274 273 83
3 272 273 274
3 276 275 85
3 3 88 86
3 4 277 279
3 279 278 89
3 277 278 279
3 5 92 90
3 4 95 93
3 4 89 95
3 280 98 281
3 282 101 283
3 284 283 99
3 282 283 284
3 10 285 287
3 285 103 286
3 285 286 287
3 11 106 104
3 11 108 106
3 6 111 109
3 12 114 112
3 12 116 114
3 12 118 116
3 10 288 290
3 290 289 119
3 288 289 290
3 10 291 292
3 7 293 295
3 293 121 294
3 293 294 295
3 13 126 124
3 297 296 127
3 8 131 129
3 14 298 299
3 14 300 301
3 9 134 132
3 15 137 135
3 15 139 137
3 15 141 139
3 16 144 142
3 16 302 304
3 304 303 144
3 302 303 304
3 16 305 306
3 307 146 308
3 310 309 146
3 311 149 312
3 313 312 147
3 311 312 313
3 17 151 150
3 18 314 316
3 316 315 65
3 314 315 316
3 18 317 318
3 19 154 152
3 17 155 68
3 17 150 155
3 320 319 156
3 21 159 157
3 23 160 70
3 23 161 160
3 24 164 162
3 26 165 73
3 26 166 165
3 26 168 166
3 21 169 75
3 21 157 169
3 28 172 170
3 30 173 76
3 30 174 173
3 322 321 175
3 31 323 325
3 325 324 79
3 323 324 325
3 31 326 328
3 326 177 327
3 326 327 328
3 32 180 178
3 34 181 82
3 34 182 181
3 34 184 182
3 36 185 84
3 36 186 185
3 36 188 186
3 38 329 331
3 331 330 189
3 329 330 331
3 39 332 334
3 334 333 87
3 332 333 334
3 39 335 336
3 40 337 339
3 339 338 190
3 337 338 339
3 340 192 341
3 42 193 91
3 42 194 193
3 20 195 153
3 43 196 94
3 43 197 196
3 43 198 197
3 40 199 96
3 40 190 199
3 342 200 343
3 342 343 344
3 346 345 200
3 44 347 348
3 44 349 351
3 349 201 350
3 349 350 351
3 44 202 201
3 353 352 97
3 45 205 203
3 47 206 100
3 47 207 206
3 48 354 356
3 354 208 355
3 354 355 356
3 48 209 208
3 48 210 209
3 49 213 211
3 357 214 358
3 359 358 102
3 357 358 359
3 361 360 214
3 362 215 363
3 364 216 365
3 366 217 367
3 368 367 216
3 366 367 368
3 22 218 158
3 51 219 105
3 51 220 219
3 51 221 220
3 52 222 107
3 52 223 222
3 369 224 370
3 371 370 191
3 369 370 371
3 372 225 373
3 374 226 375
3 376 227 377
3 378 377 226
3 376 377 378
3 379 228 380
3 381 229 382
3 383 382 228
3 381 382 383
3 385 384 229
3 41 386 388
3 386 230 387
3 386 387 388
3 53 231 110
3 53 232 231
3 25 233 163
3 54 234 113
3 54 235 234
3 54 236 235
3 55 237 115
3 55 389 391
3 391 390 237
3 389 390 391
3 55 392 393
3 56 394 396
3 396 395 117
3 394 395 396
3 56 397 398
3 27 238 167
3 400 399 120
3 57 241 239
3 401 242 402
3 403 402 122
3 401 402 403
3 404 243 405
3 406 405 242
3 404 405 406
3 407 244 408
3 409 245 410
3 411 410 244
3 409 410 411
3 57 246 123
3 57 239 246
3 58 247 240
3 59 248 125
3 59 412 414
3 414 413 248
3 412 413 414
3 29 249 171
3 415 250 416
3 417 416 128
3 415 416 417
3 419 418 250
3 420 251 421
3 60 252 130
3 60 253 252
3 423 422 176
3 424 254 425
3 426 255 427
3 428 256 429
3 430 429 255
3 428 429 430
3 432 431 256
3 46 257 204
3 61 258 133
3 61 259 258
3 33 260 179
3 62 261 136
3 62 262 261
3 62 263 262
3 63 433 435
3 435 434 138
3 433 434 435
3 63 436 437
3 63 438 439
3 441 440 140
3 35 264 183
3 443 442 143
3 37 265 187
3 445 444 145
3 50 266 212
3 447 446 148
3 64 65 17
3 66 65 64
3 66 18 65
3 67 68 19
3 64 68 67
3 64 17 68
3 69 70 21
3 71 70 69
3 71 23 70
3 72 73 24
3 74 73 72
3 74 26 73
3 74 75 26
3 69 75 74
3 69 21 75
3 448 76 449
3 450 449 28
3 448 449 450
3 77 451 453
3 451 76 452
3 451 452 453
3 77 30 76
3 78 454 456
3 454 79 455
3 454 455 456
3 80 79 78
3 80 31 79
3 81 82 32
3 83 82 81
3 83 34 82
3 83 84 34
3 85 84 83
3 85 36 84
3 85 457 459
3 459 458 36
3 457 458 459
3 461 460 85
3 86 87 38
3 88 87 86
3 88 39 87
3 89 462 464
3 464 463 40
3 462 463 464
3 466 465 89
3 90 467 469
3 467 91 468
3 467 468 469
3 92 91 90
3 92 42 91
3 93 94 20
3 95 94 93
3 95 43 94
3 95 96 43
3 89 96 95
3 89 40 96
3 470 44 471
3 472 97 473
3 474 473 44
3 472 473 474
3 98 475 477
3 475 97 476
3 475 476 477
3 98 478 480
3 480 479 97
3 478 479 480
3 99 100 45
3 101 100 99
3 101 47 100
3 481 48 482
3 484 483 48
3 485 102 486
3 487 486 49
3 485 486 487
3 488 102 489
3 488 489 490
3 492 491 102
3 103 493 494
3 103 495 496
3 104 105 22
3 106 105 104
3 106 51 105
3 106 107 51
3 108 107 106
3 108 52 107
3 109 110 41
3 111 110 109
3 111 53 110
3 112 113 25
3 114 113 112
3 114 54 113
3 114 115 54
3 116 115 114
3 116 55 115
3 116 117 55
3 118 117 116
3 118 56 117
3 119 120 27
3 497 120 498
3 499 498 119
3 497 498 499
3 501 500 120
3 121 502 503
3 121 504 505
3 506 122 507
3 508 507 57
3 506 507 508
3 509 122 510
3 512 511 122
3 513 123 514
3 515 123 516
3 517 57 518
3 519 518 123
3 517 518 519
3 124 125 58
3 126 125 124
3 126 59 125
3 127 128 29
3 520 128 521
3 522 521 127
3 520 521 522
3 524 523 128
3 129 525 527
3 525 130 526
3 525 526 527
3 131 130 129
3 131 60 130
3 132 133 46
3 134 133 132
3 134 61 133
3 135 136 33
3 137 136 135
3 137 62 136
3 137 138 62
3 139 138 137
3 139 63 138
3 139 140 63
3 141 140 139
3 141 528 530
3 530 529 140
3 528 529 530
3 142 143 35
3 144 143 142
3 144 531 533
3 533 532 143
3 531 532 533
3 144 534 535
3 537 536 144
3 538 145 539
3 540 539 37
3 538 539 540
3 146 541 543
3 541 145 542
3 541 542 543
3 146 544 546
3 546 545 145
3 544 545 546
3 146 547 548
3 550 549 146
3 147 148 50
3 149 148 147
3 149 551 553
3 553 552 148
3 551 552 553
3 150 554 556
3 556 555 4
3 554 555 556
3 151 557 559
3 559 558 150
3 557 558 559
3 151 560 561
3 65 151 17
3 562 151 563
3 564 563 65
3 562 563 564
3 566 565 151
3 152 153 5
3 154 153 152
3 154 20 153
3 68 154 19
3 155 154 68
3 155 20 154
3 155 93 20
3 150 93 155
3 150 4 93
3 156 567 569
3 567 568 569
3 571 570 156
3 157 158 10
3 159 158 157
3 159 22 158
3 70 159 21
3 160 159 70
3 160 22 159
3 160 104 22
3 161 104 160
3 161 11 104
3 162 163 6
3 164 163 162
3 164 25 163
3 73 164 24
3 165 164 73
3 165 25 164
3 165 112 25
3 166 112 165
3 166 12 112
3 166 167 12
3 168 167 166
3 168 27 167
3 75 168 26
3 169 168 75
3 169 27 168
3 169 119 27
3 157 119 169
3 157 10 119
3 573 572 7
3 170 171 13
3 172 171 170
3 172 29 171
3 76 172 28
3 173 172 76
3 173 29 172
3 173 127 29
3 174 127 173
3 174 574 576
3 576 575 127
3 574 575 576
3 175 176 8
3 577 176 578
3 579 578 175
3 577 578 579
3 581 580 176
3 79 582 583
3 585 584 79
3 177 586 587
3 177 588 590
3 588 14 589
3 588 589 590
3 178 179 9
3 180 179 178
3 180 33 179
3 82 180 32
3 181 180 82
3 181 33 180
3 181 135 33
3 182 135 181
3 182 15 135
3 182 183 15
3 184 183 182
3 184 35 183
3 84 184 34
3 185 184 84
3 185 35 184
3 185 142 35
3 186 142 185
3 186 16 142
3 186 187 16
3 188 187 186
3 188 37 187
3 591 188 592
3 593 592 36
3 591 592 593
3 594 188 595
3 596 37 597
3 598 597 188
3 596 597 598
3 600 599 37
3 189 601 602
3 604 603 189
3 87 605 607
3 607 606 38
3 605 606 607
3 609 608 87
3 190 191 2
3 610 191 611
3 612 611 190
3 610 611 612
3 614 613 191
3 616 615 40
3 618 617 4
3 192 619 620
3 192 621 623
3 621 41 622
3 621 622 623
3 91 624 626
3 624 192 625
3 624 625 626
3 193 192 91
3 193 41 192
3 193 109 41
3 194 109 193
3 194 6 109
3 153 92 5
3 195 92 153
3 195 42 92
3 94 195 20
3 196 195 94
3 196 42 195
3 196 194 42
3 197 194 196
3 197 6 194
3 197 162 6
3 198 162 197
3 198 24 162
3 96 198 43
3 199 198 96
3 199 24 198
3 199 72 24
3 190 72 199
3 190 2 72
3 627 7 628
3 200 629 630
3 200 631 633
3 631 7 632
3 631 632 633
3 200 634 636
3 636 635 7
3 634 635 636
3 638 637 200
3 639 129 640
3 641 129 642
3 643 8 644
3 645 644 129
3 643 644 645
3 201 646 647
3 201 648 650
3 648 8 649
3 648 649 650
3 201 175 8
3 202 175 201
3 202 651 653
3 653 652 175
3 651 652 653
3 97 202 44
3 654 202 655
3 656 655 97
3 654 655 656
3 658 657 202
3 203 204 1
3 205 204 203
3 205 46 204
3 100 205 45
3 206 205 100
3 206 46 205
3 206 132 46
3 207 132 206
3 207 9 132
3 659 101 660
3 661 101 662
3 663 47 664
3 665 664 101
3 663 664 665
3 208 666 667
3 208 668 670
3 668 47 669
3 668 669 670
3 208 207 47
3 209 207 208
3 209 9 207
3 209 178 9
3 210 178 209
3 210 32 178
3 671 210 672
3 673 672 48
3 671 672 673
3 674 210 675
3 676 32 677
3 678 677 210
3 676 677 678
3 679 81 680
3 681 680 32
3 679 680 681
3 682 81 683
3 685 684 81
3 211 212 3
3 213 212 211
3 213 50 212
3 102 213 49
3 214 213 102
3 214 50 213
3 214 147 50
3 686 147 687
3 688 687 214
3 686 687 688
3 690 689 147
3 691 78 692
3 215 693 695
3 693 78 694
3 693 694 695
3 215 1 78
3 696 215 697
3 216 698 700
3 698 215 699
3 698 699 700
3 216 1 215
3 216 203 1
3 217 203 216
3 217 45 203
3 701 217 702
3 703 217 704
3 705 45 706
3 707 706 217
3 705 706 707
3 708 99 709
3 710 709 45
3 708 709 710
3 711 99 712
3 714 713 99
3 158 103 10
3 218 103 158
3 218 715 717
3 717 716 103
3 715 716 717
3 105 218 22
3 219 218 105
3 219 718 720
3 720 719 218
3 718 719 720
3 219 721 722
3 220 723 725
3 725 724 219
3 723 724 725
3 220 726 727
3 220 728 730
3 728 189 729
3 728 729 730
3 221 189 220
3 221 38 189
3 107 221 51
3 222 221 107
3 222 38 221
3 222 86 38
3 223 86 222
3 223 3 86
3 191 71 2
3 224 71 191
3 224 23 71
3 731 224 732
3 733 224 734
3 735 23 736
3 737 736 224
3 735 736 737
3 738 161 739
3 740 739 23
3 738 739 740
3 225 741 743
3 741 161 742
3 741 742 743
3 225 11 161
3 744 225 745
3 226 746 748
3 746 225 747
3 746 747 748
3 226 11 225
3 226 108 11
3 227 108 226
3 227 52 108
3 749 227 750
3 228 751 753
3 751 227 752
3 751 752 753
3 228 52 227
3 228 223 52
3 229 223 228
3 229 3 223
3 229 211 3
3 754 211 755
3 756 755 229
3 754 755 756
3 757 49 758
3 759 758 211
3 757 758 759
3 760 49 761
3 763 762 49
3 230 764 765
3 230 766 767
3 110 230 41
3 231 230 110
3 231 768 770
3 770 769 230
3 768 769 770
3 231 771 772
3 232 773 775
3 775 774 231
3 773 774 775
3 232 776 777
3 163 111 6
3 233 111 163
3 233 53 111
3 113 233 25
3 234 233 113
3 234 53 233
3 234 232 53
3 235 232 234
3 235 778 780
3 780 779 232
3 778 779 780
3 235 781 782
3 236 783 785
3 785 784 235
3 783 784 785
3 236 786 787
3 115 236 54
3 237 236 115
3 237 788 790
3 790 789 236
3 788 789 790
3 237 791 792
3 794 793 237
3 117 795 797
3 797 796 55
3 795 796 797
3 799 798 117
3 167 118 12
3 238 118 167
3 238 56 118
3 120 238 27
3 800 238 801
3 802 801 120
3 800 801 802
3 803 56 804
3 805 804 238
3 803 804 805
3 807 806 56
3 808 156 809
3 810 156 811
3 810 811 812
3 814 813 156
3 815 121 816
3 817 816 7
3 815 816 817
3 818 121 819
3 821 820 121
3 239 240 0
3 241 240 239
3 241 58 240
3 122 241 57
3 242 241 122
3 242 58 241
3 242 124 58
3 243 124 242
3 243 13 124
3 822 243 823
3 824 243 825
3 826 13 827
3 828 827 243
3 826 827 828
3 829 170 830
3 831 830 13
3 829 830 831
3 832 170 833
3 834 28 835
3 836 835 170
3 834 835 836
3 837 28 838
3 840 839 28
3 841 90 842
3 843 90 844
3 845 5 846
3 847 846 90
3 845 846 847
3 244 848 849
3 244 850 852
3 850 5 851
3 850 851 852
3 244 152 5
3 245 152 244
3 245 19 152
3 123 853 855
3 853 245 854
3 853 854 855
3 246 245 123
3 246 19 245
3 246 67 19
3 239 67 246
3 239 0 67
3 240 66 0
3 247 66 240
3 247 18 66
3 125 247 58
3 248 247 125
3 248 18 247
3 248 856 858
3 858 857 18
3 856 857 858
3 860 859 248
3 171 126 13
3 249 126 171
3 249 59 126
3 128 249 29
3 250 249 128
3 250 59 249
3 250 861 863
3 863 862 59
3 861 862 863
3 865 864 250
3 866 77 867
3 251 868 870
3 868 77 869
3 868 869 870
3 251 30 77
3 130 871 873
3 871 251 872
3 871 872 873
3 252 251 130
3 252 30 251
3 252 174 30
3 253 174 252
3 253 874 876
3 876 875 174
3 874 875 876
3 176 131 8
3 877 131 878
3 879 878 176
3 877 878 879
3 880 60 881
3 882 881 131
3 880 881 882
3 883 60 884
3 885 253 886
3 887 886 60
3 885 886 887
3 888 253 889
3 891 890 253
3 254 892 893
3 254 894 895
3 896 254 897
3 255 898 900
3 898 254 899
3 898 899 900
3 255 901 903
3 903 902 254
3 901 902 903
3 255 904 905
3 256 906 908
3 908 907 255
3 906 907 908
3 256 909 910
3 256 911 913
3 911 98 912
3 911 912 913
3 914 98 915
3 916 915 256
3 914 915 916
3 918 917 98
3 204 80 1
3 257 80 204
3 257 31 80
3 133 257 46
3 258 257 133
3 258 31 257
3 258 177 31
3 259 177 258
3 259 14 177
3 179 134 9
3 260 134 179
3 260 61 134
3 136 260 33
3 261 260 136
3 261 61 260
3 261 259 61
3 262 259 261
3 262 14 259
3 262 919 921
3 921 920 14
3 919 920 921
3 263 922 924
3 924 923 262
3 922 923 924
3 263 925 926
3 138 263 62
3 927 263 928
3 929 928 138
3 927 928 929
3 931 930 263
3 140 932 934
3 934 933 63
3 932 933 934
3 936 935 140
3 183 141 15
3 264 141 183
3 264 937 939
3 939 938 141
3 937 938 939
3 143 264 35
3 940 264 941
3 942 941 143
3 940 941 942
3 944 943 264
3 187 945 947
3 947 946 16
3 945 946 947
3 265 948 950
3 950 949 187
3 948 949 950
3 265 951 952
3 145 265 37
3 953 265 954
3 955 954 145
3 953 954 955
3 957 956 265
3 212 88 3
3 266 88 212
3 266 39 88
3 148 266 50
3 958 266 959
3 960 959 148
3 958 959 960
3 961 39 962
3 963 962 266
3 961 962 963
3 965 964 39
3 966 149 967
3 968 149 969
3 971 970 149
