ply
format ascii 1.0
element vertex 793
property float x
property float y
property float z
element face 992
property list uchar int vertex_index
end_header
47.736862 -20.401623 -27.536579
31.049847 11.230018 -37.030357
34.467781 -9.653102 -36.609001
47.049847 -5.089583 -38.271751
45.801582 16.660786 -23.561184
38.401463 15.096628 -32.360172
41.646694 13.446199 -36.918404
38.740807 1.089698 -37.225578
23.680744 -13.673395 -27.575583
26.857626 -15.857417 -31.240149
25.087528 -6.34914 -34.370319
37.261063 3.713556 -23.969006
31.322901 6.710496 -32.620712
26.231098 2.672539 -36.622627
31.869328 -0.033768 -41.786507
40.346478 -5.754767 -41.819092
40.147278 -10.117638 -28.271656
48.033226 -13.655563 -37.974426
37.702061 -18.980694 -28.092236
40.308167 -27.333654 -22.59985
44.038601 -35.087078 -20.654581
53.154835 -26.576931 -29.141205
55.934387 -16.328505 -32.953888
43.385559 9.836088 -32.511398
22.103561 -9.322348 -30.195551
24.267775 -6.300821 -32.069885
49.897789 7.945609 -17.22077
40.420815 3.287252 -24.649918
33.221214 16.506273 -36.38274
34.436935 11.340756 -33.831196
28.01969 12.412016 -36.470917
27.259033 6.020612 -34.982204
27.655609 7.646194 -39.60358
29.837589 3.714289 -39.53698
31.531902 5.280822 -41.435009
42.911304 -2.133166 -38.453236
40.482628 -1.973183 -43.869804
45.100056 -5.003535 -43.19965
44.350986 -9.164528 -39.92334
49.607227 -8.709524 -40.915169
32.039131 -12.248479 -31.749567
33.502167 -17.58572 -30.18684
36.284985 -15.25131 -33.001293
38.667667 -15.008448 -27.847061
36.86985 -8.665413 -32.017384
37.258121 -29.890711 -25.968481
56.937519 -21.638823 -32.447609
56.682014 -28.91711 -29.287222
45.15451 9.299971 -24.172251
41.997967 9.88278 -27.263391
41.461788 17.224586 -28.21822
38.746407 18.193798 -34.609741
36.741066 13.643976 -37.953346
35.223694 6.183194 -36.540951
40.521206 7.998955 -37.63728
42.812626 3.690725 -35.820728
44.997784 -0.697563 -33.505997
23.293135 -18.660213 -28.006531
21.276651 -13.321881 -28.703684
24.892178 -11.037512 -32.972595
31.446091 -6.814356 -33.419029
47.585419 9.254433 -20.964594
38.8573 8.318037 -29.608404
35.809948 4.97127 -30.013174
32.827393 2.241545 -26.131107
29.76479 1.399878 -27.926279
26.783228 -0.508207 -28.73555
25.167852 -2.776434 -31.318302
26.246958 -1.503384 -35.316448
31.530981 -1.709933 -36.348946
32.959511 -5.440677 -39.046509
35.028118 1.614956 -43.011902
35.694561 -2.817915 -43.141266
36.839233 -4.212734 -37.138481
40.931892 -6.4976 -34.723591
44.154747 -11.31232 -32.824574
43.761223 -14.426361 -25.926281
47.271435 -16.984392 -31.54804
30.13381 -21.08894 -28.462717
35.048023 -20.71101 -24.792171
37.927956 -24.832968 -26.189579
39.809837 -22.127996 -25.352922
40.890587 -17.703529 -23.403248
42.678917 -23.515232 -20.96265
41.782082 -31.870911 -20.814358
45.820683 -28.251469 -21.293453
53.750511 -35.600044 -26.69483
50.974533 -32.39904 -25.278282
48.490253 -30.199747 -23.473129
49.691891 -23.706333 -27.27832
50.770496 -10.801226 -36.347359
53.338615 -14.674698 -37.591026
51.483959 -18.951471 -32.745491
25.286503 -8.875181 -30.966455
41.934864 2.559743 -24.377666
31.626852 14.770027 -37.384926
30.08843 14.746748 -36.417065
28.771046 12.714936 -37.619591
27.278742 10.391128 -38.014252
29.076534 9.297329 -38.475143
29.619558 6.866088 -40.494572
31.197956 7.215843 -38.236023
45.107994 -3.414349 -38.67775
44.375191 -3.449549 -41.41153
46.910316 -4.807744 -41.066669
47.419098 -6.550772 -42.129108
49.025887 -6.380076 -40.038071
33.436417 -11.523063 -34.520878
34.165508 -14.094083 -33.195087
35.535576 -12.405432 -34.988487
36.698772 -12.066901 -32.531879
35.780739 -9.058645 -34.430634
59.007591 -26.409134 -29.734295
57.422199 -29.356937 -27.646963
44.99651 13.724093 -23.783127
43.351582 13.971395 -25.777973
43.660973 17.069613 -25.995045
41.124722 14.759438 -33.556507
40.888428 17.561985 -32.370777
39.842049 16.286091 -36.029461
37.50782 16.604839 -37.215904
39.548046 13.828074 -38.152359
38.901348 10.932441 -37.886688
41.357841 11.087807 -38.437424
44.282349 6.372924 -37.27877
45.633259 4.308759 -35.28138
43.949715 1.584302 -34.654148
21.484278 -12.691428 -27.510212
23.060957 -7.95534 -32.813442
22.463623 -9.995839 -31.716419
24.828167 -8.702876 -33.804939
27.963755 -9.020097 -32.969868
27.802719 -6.42867 -33.645714
47.048077 4.633375 -21.537439
48.00705 4.191421 -19.964157
35.692497 3.578864 -23.022213
40.025352 12.932195 -29.347723
40.217934 9.40527 -28.436029
38.90345 11.523634 -31.23884
32.646778 9.242273 -33.464539
35.531616 7.815855 -32.475258
33.770317 5.79217 -31.642965
34.115051 3.49755 -28.568958
32.340748 3.719126 -29.981812
31.382019 1.954185 -27.310083
30.469471 3.736674 -31.081793
26.410458 4.378088 -35.919411
27.173498 2.137046 -32.277382
25.771008 1.134794 -32.623775
25.903687 -1.558151 -29.982395
24.891577 -0.077195 -33.397419
24.434885 -1.967994 -33.548897
26.440899 0.780574 -36.226036
31.048162 2.15801 -40.690758
31.165689 1.135487 -37.763157
31.973913 -0.871606 -39.11842
32.354927 -3.843014 -37.968243
32.204811 -3.195946 -40.409843
36.866795 3.660012 -36.827271
35.024788 3.041697 -39.888954
36.899834 0.947639 -40.2085
40.213997 -4.312327 -44.190269
37.973488 -2.508022 -44.465221
38.049629 -4.342658 -42.678772
36.457539 -3.412299 -40.349319
38.698036 -4.718574 -39.630348
39.037014 -4.87065 -35.926258
40.721638 -6.154371 -38.361168
46.09367 -11.145098 -38.72028
44.286495 -10.468132 -36.346294
45.902885 -12.88199 -35.405354
45.866371 -13.749621 -32.215149
47.334641 -15.480093 -35.111782
24.724625 -17.283939 -29.98435
26.648457 -20.011776 -28.77212
28.530371 -18.379017 -29.685551
35.812851 -18.001675 -29.204418
34.115665 -19.247725 -27.830746
36.437981 -19.586918 -26.458218
37.443039 -22.287796 -24.598057
38.228386 -21.546247 -26.644333
39.085487 -23.820353 -26.718786
39.257484 -20.392321 -26.917553
38.895508 -12.281081 -27.357395
39.566837 -15.980753 -25.438066
40.511597 -13.681608 -25.643438
42.068005 -15.725215 -24.197283
41.950691 -12.204783 -26.914921
39.234596 -31.264414 -23.097412
40.248505 -33.376934 -22.178448
40.760509 -29.816654 -21.340149
42.425766 -27.823399 -20.226812
41.236584 -25.458271 -21.193382
52.114388 -38.453671 -23.778574
51.315735 -36.744453 -23.452658
52.349163 -33.861546 -26.281153
50.090191 -34.883003 -22.689373
45.109791 -35.495617 -20.368086
47.702465 -33.220394 -21.592005
46.391209 -32.660107 -21.125986
47.170094 -29.104675 -22.279457
45.070538 -31.878235 -20.596096
50.484291 -11.985527 -33.071178
53.217018 -13.580218 -34.915154
52.959484 -12.428932 -37.709293
55.202942 -15.338951 -35.500439
55.389484 -24.662928 -31.187531
54.323414 -20.286802 -32.778847
53.058258 -22.810474 -30.670605
50.478279 -21.355164 -30.165075
51.300037 -25.148441 -28.205276
42.683636 11.812518 -34.884232
43.545235 11.161205 -37.390251
22.089268 -10.904707 -28.46026
23.420139 -9.855764 -29.744526
23.133459 -7.681888 -31.265408
23.75687 -5.963489 -33.452843
35.607464 16.654409 -34.759354
36.425888 13.369333 -33.690197
32.924519 14.822917 -34.989418
30.618237 12.826864 -34.752666
29.347092 10.251751 -34.459873
28.968512 6.955228 -33.77475
27.328465 9.553461 -36.089409
26.622257 7.652048 -37.539715
26.951365 5.687915 -38.504169
27.883419 3.748334 -38.22089
28.277866 5.886158 -40.227005
29.943569 4.970984 -41.573265
31.465984 3.156008 -42.548054
40.782982 -0.559303 -38.066612
39.60516 -0.698973 -40.971779
41.89373 -2.022392 -41.497169
42.709572 -3.504337 -43.675308
42.375286 -5.843287 -43.528866
42.314991 -7.185668 -40.822224
44.571857 -7.170126 -42.565052
46.81958 -8.954249 -41.279282
49.044361 -11.44816 -40.091362
29.237976 -14.019464 -31.256582
30.452017 -16.570219 -30.156488
32.7118 -14.947113 -30.962292
34.923706 -16.490774 -31.61311
37.07782 -17.18639 -30.525091
38.711372 -17.475986 -28.373398
37.798779 -14.910255 -30.560764
37.631493 -11.831261 -29.880825
38.501995 -8.857754 -29.744091
39.083374 -28.837116 -24.462429
57.396564 -18.674358 -33.222298
58.596882 -22.720381 -31.371067
57.444897 -25.749424 -30.969671
55.107666 -28.003674 -29.650303
44.76516 5.228875 -24.190861
43.347904 6.017152 -25.537045
43.626289 9.858662 -25.877527
41.523632 13.690269 -27.614899
39.71294 16.346121 -30.170288
42.448803 18.044289 -28.985851
40.242786 18.085718 -31.256475
38.141312 17.890276 -33.354347
36.155235 17.767498 -35.951904
34.674541 16.111427 -37.475216
33.787533 12.866984 -37.374321
33.287468 8.821662 -36.452339
36.087807 10.373378 -36.784657
37.91283 7.590356 -36.418713
39.283634 4.739739 -36.128174
42.708199 8.657031 -38.248188
41.622169 5.724587 -37.04266
40.604099 2.385308 -36.085594
42.014088 0.325058 -35.943806
43.492302 -1.489266 -35.989632
45.374626 -3.639183 -35.728996
21.973442 -15.858114 -28.296703
23.189121 -14.619936 -30.466064
21.279488 -11.010799 -29.393112
22.450459 -12.181955 -31.079884
25.714123 -13.43878 -32.22448
28.505829 -11.550734 -32.147839
31.740391 -9.562459 -32.539448
32.715721 -9.033513 -35.972637
45.946068 4.937204 -22.922291
46.335983 9.360149 -22.658861
46.537785 14.016157 -21.921759
48.817131 8.949925 -19.235569
48.127159 13.723419 -20.078909
47.614651 16.043818 -21.770943
41.633678 6.271707 -26.467443
39.88166 6.305799 -26.999401
38.217522 5.779569 -27.400686
37.374172 9.769283 -32.427956
37.498528 6.621066 -30.311382
36.805595 4.504482 -27.295233
35.198524 3.542617 -26.243439
33.806664 2.530344 -24.248417
28.806997 3.113481 -31.976025
28.06835 0.69045 -28.171534
24.772699 -4.481962 -32.082966
24.229235 -4.006332 -33.599056
25.756155 -3.934808 -34.730946
28.811502 1.363328 -36.872654
28.976324 -1.123837 -35.602657
28.576145 -3.640196 -34.270439
31.629009 -4.321279 -34.876431
32.325249 -6.677382 -37.279209
33.786705 -7.363363 -38.156525
33.222221 5.12722 -38.878426
33.244408 3.53544 -42.371746
32.818645 1.276791 -43.612263
37.84203 -0.350213 -43.650536
35.459606 -0.663155 -44.31041
33.251934 -1.613405 -42.839581
34.05373 -3.097216 -40.372406
34.785007 -4.330729 -38.0177
35.340904 -6.373379 -35.927467
36.78968 -5.981483 -34.274437
38.6786 -6.33286 -32.553413
40.700401 -7.722034 -31.049911
42.53603 -8.062102 -37.43932
42.623405 -8.945854 -33.524696
42.42281 -10.054224 -29.882023
44.014076 -12.493219 -29.042877
45.58757 -15.098221 -28.546555
44.641304 -16.315544 -25.343122
46.947796 -18.105204 -28.84226
24.977957 -21.430876 -27.294392
28.510031 -22.801563 -27.297617
31.250637 -22.923416 -25.821552
31.81181 -19.332462 -29.324305
32.594898 -21.001347 -26.82756
33.793335 -22.526775 -23.602262
36.66795 -23.37767 -22.658005
37.758842 -25.811926 -23.982096
36.731133 -28.257559 -25.362556
37.862099 -27.326899 -26.660992
39.334248 -26.220327 -25.731964
40.139088 -24.557323 -23.824306
39.405037 -18.355511 -26.092976
40.100079 -20.034876 -23.935873
40.728939 -22.56592 -22.335979
41.843353 -20.308575 -22.062212
43.404823 -18.425209 -22.859564
44.407158 -22.193712 -21.826904
41.324257 -35.209824 -21.780575
43.068237 -33.784859 -20.531223
43.746632 -30.196564 -20.195116
44.267216 -26.302872 -20.620392
46.152985 -25.829838 -22.164717
55.339794 -32.443813 -27.950928
53.658562 -30.976231 -28.06459
52.217766 -29.527191 -27.232574
48.776413 -33.805794 -22.055965
49.789696 -31.255085 -24.470587
50.429226 -28.015549 -26.358541
49.04224 -26.799686 -25.227179
47.703781 -25.72171 -23.834621
48.346043 -22.627745 -26.154926
45.765556 -3.699554 -32.508244
46.90247 -6.262488 -35.130257
48.451199 -9.162694 -33.874249
49.024487 -7.827349 -37.28709
50.916054 -9.432298 -38.957573
51.540016 -11.653957 -39.509624
50.746292 -13.931082 -38.390419
55.358959 -17.742336 -34.954552
52.498421 -16.938702 -35.823231
49.790401 -16.116796 -35.695473
49.101692 -18.338423 -32.599327
48.733589 -20.15851 -29.551636
42.653768 2.101339 -24.015149
41.492651 1.074645 -23.161875
56.871292 -29.546879 -26.574523
57.894382 -27.986658 -27.603898
47.195251 4.685767 -34.900629
46.439507 5.582695 -35.693062
46.22052 3.356612 -34.461729
47.195251 4.685767 -34.900629
25.381779 -15.310559 -27.073304
25.95252 -14.586893 -27.625295
23.381916 -14.473716 -26.931629
25.381779 -15.310559 -27.073304
22.582511 -13.182412 -27.542898
22.283683 -13.982733 -26.898943
23.381916 -14.473716 -26.931629
47.613865 1.614742 -19.384501
47.241414 1.951077 -20.128638
36.628124 3.849588 -21.931389
37.406425 3.444474 -22.327408
36.47678 3.64621 -23.49561
35.843841 3.782241 -21.457992
36.628124 3.849588 -21.931389
50.028713 -37.300376 -21.716252
50.528385 -38.142698 -21.805699
49.415942 -36.369652 -21.33461
50.702963 -35.813728 -23.071016
50.028713 -37.300376 -21.716252
54.366841 -15.619779 -32.30592
55.826254 -17.212114 -31.60363
54.575703 -14.954362 -33.934521
53.008156 -14.245636 -33.286553
54.366841 -15.619779 -32.30592
42.870498 11.525688 -31.598222
43.890255 10.874054 -30.528831
43.034598 10.824303 -33.697815
42.519537 12.513903 -32.784639
42.870498 11.525688 -31.598222
44.35556 10.030717 -33.980372
44.004599 11.018933 -35.166788
43.034598 10.824303 -33.697815
24.994267 -10.707975 -29.749613
24.152783 -11.206133 -29.295693
39.665194 2.671825 -23.054465
40.241547 2.072931 -23.317409
39.636015 3.442691 -24.562479
39.665194 2.671825 -23.054465
37.199697 -31.126064 -25.314455
35.904879 -31.295106 -25.541557
38.170748 -29.363914 -25.215455
38.112324 -30.599266 -24.561429
37.199697 -31.126064 -25.314455
58.873632 -23.057038 -30.47411
58.42743 -21.389477 -31.173115
42.729442 17.388448 -29.451183
43.601422 17.704763 -27.848394
44.077628 8.797897 -37.820273
43.126717 9.909118 -37.81922
44.496145 10.049984 -37.391304
21.625046 -14.589997 -28.500194
21.758974 -15.434064 -27.582562
21.410578 -14.165948 -27.786052
45.783459 2.693558 -22.309576
45.266594 3.006055 -22.875145
49.35746 8.447767 -18.228169
48.873796 6.140118 -18.708706
49.414125 5.63796 -17.701307
48.835521 14.332812 -20.081765
48.971995 13.390706 -19.191203
48.579268 15.493012 -20.927782
47.870905 14.883619 -20.924926
48.835521 14.332812 -20.081765
49.181629 15.137909 -21.240715
48.217013 15.688716 -22.083876
48.579268 15.493012 -20.927782
33.439463 1.532507 -24.138465
33.929098 1.676907 -23.19712
33.317028 2.385944 -25.189762
33.120346 1.227556 -25.038927
33.439463 1.532507 -24.138465
30.927309 0.56075 -26.587933
31.735923 0.837903 -26.279834
30.573405 1.677032 -27.618181
30.310868 0.203783 -27.153865
30.927309 0.56075 -26.587933
28.376516 -1.245977 -28.19604
29.019076 -0.646648 -27.914032
27.425789 0.091122 -28.453542
28.090952 -1.71172 -28.982822
28.376516 -1.245977 -28.19604
26.853918 -3.446099 -30.976012
27.221836 -2.836957 -30.308059
25.53577 -2.167293 -30.650348
26.34259 -4.233702 -31.376594
26.853918 -3.446099 -30.976012
24.970275 -3.629198 -31.700634
26.145013 -5.086466 -31.758927
26.34259 -4.233702 -31.376594
24.135546 -20.045544 -27.650461
23.752119 -20.731004 -26.553774
22.909708 -19.345672 -26.909844
54.239258 -36.185049 -26.263242
53.421196 -37.611863 -24.805114
52.93245 -37.026857 -25.236702
54.861572 -34.325901 -26.581615
54.239258 -36.185049 -26.263242
54.545153 -34.021929 -27.322879
55.656213 -32.747785 -27.209664
54.861572 -34.325901 -26.581615
47.476134 -34.821038 -21.001808
48.144222 -35.113098 -20.988655
46.425533 -5.323297 -32.070192
46.683723 -3.743387 -31.371304
46.99399 -6.604764 -33.381199
46.334013 -4.981021 -33.81925
46.425533 -5.323297 -32.070192
44.063673 9.207847 -31.246452
43.890255 10.874054 -30.528831
45.114301 9.360615 -32.884573
44.063673 9.207847 -31.246452
26.791601 -9.552046 -30.583317
25.92745 -10.217683 -30.360577
25.98679 -8.213058 -31.20976
26.791601 -9.552046 -30.583317
25.477426 -6.925878 -31.761474
24.777139 -7.588001 -31.51817
25.98679 -8.213058 -31.20976
40.998571 1.709176 -23.181283
41.492651 1.074645 -23.161875
41.177839 2.923497 -24.513792
40.241547 2.072931 -23.317409
40.998571 1.709176 -23.181283
36.389166 -30.107303 -25.718535
35.904879 -31.295106 -25.541557
58.687078 -26.512757 -28.647564
59.078987 -24.901415 -29.655724
58.758474 -25.005038 -28.568993
58.214895 -27.883035 -28.690629
58.687078 -26.512757 -28.647564
57.894382 -27.986658 -27.603898
41.006575 16.160711 -32.963642
41.949255 17.147296 -31.143646
42.067402 15.746023 -31.736511
45.764052 6.614778 -36.691757
44.864703 7.655843 -37.335563
44.957804 5.340841 -36.280075
45.764052 6.614778 -36.691757
46.439507 5.582695 -35.693062
45.378748 1.994383 -34.148113
44.791487 2.946531 -34.967764
46.22052 3.356612 -34.461729
45.902783 0.85345 -33.574038
44.473749 0.44337 -34.080072
45.378748 1.994383 -34.148113
21.514392 -13.850721 -27.189316
22.283683 -13.982733 -26.898943
21.380465 -13.006654 -28.106948
21.410578 -14.165948 -27.786052
21.514392 -13.850721 -27.189316
46.761927 2.172054 -20.915279
46.334463 2.541644 -21.61715
47.527563 4.412398 -20.750798
46.761927 2.172054 -20.915279
47.241414 1.951077 -20.128638
49.857309 10.501801 -17.762134
50.521752 9.889874 -16.858597
35.081527 3.857168 -20.989276
35.843841 3.782241 -21.457992
35.010565 3.356775 -22.352936
35.081527 3.857168 -20.989276
39.741551 -32.320674 -22.63793
39.019652 -33.960085 -22.87705
38.512697 -32.903825 -23.336532
50.927712 -38.997307 -21.968657
51.446964 -39.710901 -22.150141
51.715061 -37.599062 -23.615616
50.927712 -38.997307 -21.968657
50.528385 -38.142698 -21.805699
46.406128 -34.358006 -20.980046
46.93916 -34.528337 -20.769828
45.642823 -35.665949 -20.157868
51.641793 -13.44829 -32.364565
50.710121 -12.578589 -31.417163
51.850655 -12.782872 -33.993166
51.641793 -13.44829 -32.364565
53.008156 -14.245636 -33.286553
45.277811 17.013012 -25.136061
46.315476 16.572868 -23.947593
41.74008 13.987363 -32.120777
42.067402 15.746023 -31.736511
41.904179 13.285978 -34.22037
41.74008 13.987363 -32.120777
42.519537 12.513903 -32.784639
44.435398 10.693276 -36.419798
43.114435 11.486861 -36.137242
44.004599 11.018933 -35.166788
44.496145 10.049984 -37.391304
44.435398 10.693276 -36.419798
44.35556 10.030717 -33.980372
45.114301 9.360615 -32.884573
24.283085 -13.114949 -28.211221
25.95252 -14.586893 -27.625295
23.487347 -11.730605 -28.65356
22.885006 -12.289051 -28.017921
24.283085 -13.114949 -28.211221
22.754703 -10.380236 -29.102393
23.487347 -11.730605 -28.65356
24.152783 -11.206133 -29.295693
24.353321 -9.365472 -30.355491
24.994267 -10.707975 -29.749613
25.92745 -10.217683 -30.360577
49.802597 5.308651 -16.856821
49.414125 5.63796 -17.701307
50.389992 7.531243 -16.252001
49.802597 5.308651 -16.856821
50.521752 9.889874 -16.858597
50.389992 7.531243 -16.252001
38.056139 3.655843 -24.222023
37.406425 3.444474 -22.327408
38.187934 -31.812915 -23.87892
38.512697 -32.903825 -23.336532
39.158985 -30.050765 -23.77992
38.187934 -31.812915 -23.87892
38.112324 -30.599266 -24.561429
44.358187 -36.907427 -20.132459
45.642823 -35.665949 -20.157868
43.912812 -36.578493 -20.623078
44.358187 -36.907427 -20.132459
43.377217 -36.374223 -20.766326
44.574196 -35.291348 -20.511333
43.912812 -36.578493 -20.623078
57.096182 -18.193539 -31.964526
55.826254 -17.212114 -31.60363
57.82727 -19.366466 -32.098731
56.665475 -17.501432 -33.088093
57.096182 -18.193539 -31.964526
57.996723 -20.69737 -32.296683
57.82727 -19.366466 -32.098731
58.42743 -21.389477 -31.173115
58.802236 -24.564757 -30.552681
58.873632 -23.057038 -30.47411
59.078987 -24.901415 -29.655724
44.056532 5.623014 -24.863953
43.360288 3.830044 -24.594839
44.068917 3.435906 -23.921747
44.207507 17.217426 -26.352992
44.731278 16.8652 -24.778115
45.277811 17.013012 -25.136061
43.054888 17.556951 -27.490448
44.207507 17.217426 -26.352992
43.601422 17.704763 -27.848394
41.668616 17.803137 -30.678314
42.729442 17.388448 -29.451183
41.949255 17.147296 -31.143646
43.495274 7.514978 -37.763479
44.077628 8.797897 -37.820273
44.864703 7.655843 -37.335563
22.61432 -18.113569 -27.096562
22.909708 -19.345672 -26.909844
21.954473 -16.712519 -27.241649
21.758974 -15.434064 -27.582562
22.633288 -17.259163 -28.151617
22.61432 -18.113569 -27.096562
21.954473 -16.712519 -27.241649
44.67614 3.151891 -23.50943
44.068917 3.435906 -23.921747
45.355614 5.083039 -23.556576
44.67614 3.151891 -23.50943
45.266594 3.006055 -22.875145
46.497073 4.78529 -22.229865
45.783459 2.693558 -22.309576
46.334463 2.541644 -21.61715
48.468756 3.760865 -19.073
47.613865 1.614742 -19.384501
48.412091 6.570673 -19.599863
48.468756 3.760865 -19.073
48.873796 6.140118 -18.708706
49.31698 11.003959 -18.769533
49.35746 8.447767 -18.228169
49.857309 10.501801 -17.762134
48.472145 11.336672 -19.657239
49.31698 11.003959 -18.769533
48.971995 13.390706 -19.191203
47.22201 16.264384 -23.052473
46.315476 16.572868 -23.947593
46.708117 16.352302 -22.666063
47.22201 16.264384 -23.052473
48.217013 15.688716 -22.083876
42.641384 4.288448 -24.957355
42.653768 2.101339 -24.015149
43.360288 3.830044 -24.594839
39.366438 4.951964 -25.73722
39.636015 3.442691 -24.562479
40.151237 4.796526 -25.824659
38.534368 4.688849 -25.937863
39.366438 4.951964 -25.73722
39.049591 6.042684 -27.200043
37.739293 4.746563 -25.684846
38.056139 3.655843 -24.222023
38.534368 4.688849 -25.937863
34.763578 3.338652 -23.963549
35.010565 3.356775 -22.352936
35.44551 3.56074 -24.632826
34.067648 2.832515 -22.966038
34.763578 3.338652 -23.963549
34.502594 3.03648 -25.245928
33.817196 2.334728 -21.923744
34.067648 2.832515 -22.966038
33.817196 2.334728 -21.923744
33.929098 1.676907 -23.19712
32.39766 1.083876 -25.628415
33.120346 1.227556 -25.038927
32.104706 2.097865 -26.720595
32.39766 1.083876 -25.628415
31.735923 0.837903 -26.279834
29.462647 -0.150931 -27.276492
30.310868 0.203783 -27.153865
28.91657 1.045164 -28.048907
29.462647 -0.150931 -27.276492
29.019076 -0.646648 -27.914032
27.651181 -2.236693 -29.606244
28.090952 -1.71172 -28.982822
26.343457 -1.033179 -29.358973
27.651181 -2.236693 -29.606244
27.221836 -2.836957 -30.308059
25.729888 -6.016449 -31.768015
26.145013 -5.086466 -31.758927
24.520237 -5.391392 -32.076425
25.477426 -6.925878 -31.761474
25.729888 -6.016449 -31.768015
24.276098 -22.018788 -26.261032
23.752119 -20.731004 -26.553774
25.874581 -22.776189 -26.659726
24.276098 -22.018788 -26.261032
27.640618 -23.461533 -26.661338
25.874581 -22.776189 -26.659726
26.743994 -22.116219 -27.296004
29.176133 -23.750293 -26.072038
27.640618 -23.461533 -26.661338
30.546436 -23.811219 -25.334006
29.176133 -23.750293 -26.072038
29.880334 -22.86249 -26.559584
31.942402 -23.704318 -24.201663
30.546436 -23.811219 -25.334006
33.213751 -23.505997 -23.092018
31.942402 -23.704318 -24.201663
32.521986 -22.725096 -24.711907
34.731104 -23.739372 -22.327194
33.213751 -23.505997 -23.092018
36.168411 -24.16482 -21.855066
34.731104 -23.739372 -22.327194
35.230643 -22.952222 -23.130133
37.233309 -25.105421 -22.09284
36.168411 -24.16482 -21.855066
37.778755 -26.322549 -22.754885
37.233309 -25.105421 -22.09284
37.213396 -24.594798 -23.320051
37.486074 -27.577958 -23.52021
37.778755 -26.322549 -22.754885
36.97222 -28.800775 -24.210441
37.486074 -27.577958 -23.52021
37.244988 -27.034743 -24.672326
36.017516 -29.868724 -24.543588
36.97222 -28.800775 -24.210441
36.125671 -29.290727 -25.415572
36.017516 -29.868724 -24.543588
36.691154 -28.825397 -26.06479
36.125671 -29.290727 -25.415572
37.296616 -27.792229 -26.011774
37.56011 -28.608805 -26.314737
36.389166 -30.107303 -25.718535
36.691154 -28.825397 -26.06479
43.081598 -35.917563 -20.947362
43.377217 -36.374223 -20.766326
39.761673 -34.838972 -22.621945
39.019652 -33.960085 -22.87705
40.299549 -35.755417 -22.423009
39.761673 -34.838972 -22.621945
40.786381 -34.293379 -21.979512
40.916343 -36.700514 -22.089321
40.299549 -35.755417 -22.423009
41.724426 -35.978935 -21.510359
40.916343 -36.700514 -22.089321
42.596417 -35.266453 -20.885683
41.724426 -35.978935 -21.510359
42.196247 -34.497341 -21.155899
43.553419 -34.435969 -20.592902
43.081598 -35.917563 -20.947362
42.596417 -35.266453 -20.885683
52.590706 -39.094569 -23.786236
51.446964 -39.710901 -22.150141
53.897514 -38.25276 -24.812776
52.590706 -39.094569 -23.786236
53.421196 -37.611863 -24.805114
56.697416 -31.204347 -27.057681
56.871292 -29.546879 -26.574523
56.380996 -30.900375 -27.798946
56.697416 -31.204347 -27.057681
55.656213 -32.747785 -27.209664
48.801111 -35.651703 -21.305359
49.415942 -36.369652 -21.33461
49.433302 -34.344398 -22.372669
48.801111 -35.651703 -21.305359
48.144222 -35.113098 -20.988655
48.239439 -33.513094 -21.823985
47.476134 -34.821038 -21.001808
46.93916 -34.528337 -20.769828
46.008002 -0.534139 -32.599291
45.902783 0.85345 -33.574038
46.391887 -2.035135 -32.100414
46.683723 -3.743387 -31.371304
45.38167 -2.198558 -33.00712
46.008002 -0.534139 -32.599291
46.391887 -2.035135 -32.100414
49.662431 -11.044446 -31.79317
50.710121 -12.578589 -31.417163
48.645886 -9.633029 -32.194705
49.662431 -11.044446 -31.79317
49.467745 -10.57411 -33.472713
47.768355 -8.054867 -32.753195
48.645886 -9.633029 -32.194705
47.676834 -7.712591 -34.502253
46.99399 -6.604764 -33.381199
47.768355 -8.054867 -32.753195
3 370 94 371
3 1 97 95
3 1 99 97
3 1 101 99
3 3 104 102
3 3 106 104
3 2 109 107
3 2 111 109
3 372 113 373
3 4 116 114
3 6 119 117
3 6 121 119
3 6 123 121
3 374 125 375
3 377 376 125
3 8 378 379
3 8 380 381
3 8 382 384
3 382 127 383
3 382 383 384
3 10 130 128
3 10 132 130
3 385 134 386
3 11 387 388
3 11 389 391
3 389 135 390
3 389 390 391
3 5 138 136
3 12 141 139
3 12 143 141
3 12 145 143
3 13 148 146
3 13 150 148
3 13 152 150
3 14 155 153
3 14 157 155
3 7 160 158
3 15 163 161
3 15 165 163
3 15 167 165
3 17 170 168
3 17 172 170
3 9 175 173
3 18 178 176
3 18 180 178
3 18 182 180
3 16 185 183
3 16 187 185
3 19 190 188
3 19 192 190
3 392 194 393
3 394 196 395
3 396 395 194
3 394 395 396
3 20 199 197
3 20 201 199
3 22 397 398
3 22 399 401
3 399 203 400
3 399 400 401
3 22 205 203
3 21 208 206
3 21 210 208
3 23 402 403
3 23 404 406
3 404 211 405
3 404 405 406
3 23 407 409
3 409 408 211
3 407 408 409
3 410 214 411
3 25 215 93
3 25 216 215
3 27 412 413
3 27 414 415
3 28 219 217
3 30 220 96
3 30 221 220
3 30 223 221
3 32 224 98
3 32 225 224
3 32 227 225
3 34 228 100
3 34 229 228
3 35 232 230
3 37 233 103
3 37 234 233
3 37 236 234
3 39 237 105
3 39 238 237
3 40 241 239
3 42 242 108
3 42 243 242
3 42 245 243
3 44 246 110
3 44 247 246
3 45 416 417
3 45 418 420
3 418 248 419
3 418 419 420
3 421 250 422
3 47 251 112
3 47 252 251
3 48 255 253
3 50 256 115
3 50 257 256
3 423 258 424
3 51 259 118
3 51 260 259
3 51 261 260
3 52 262 120
3 52 263 262
3 52 265 263
3 54 266 122
3 54 267 266
3 425 268 426
3 427 426 212
3 425 426 427
3 55 269 124
3 55 270 269
3 55 271 270
3 56 272 126
3 56 273 272
3 58 428 430
3 428 274 429
3 428 429 430
3 58 275 274
3 24 276 213
3 59 277 129
3 59 278 277
3 59 279 278
3 60 280 131
3 60 281 280
3 431 282 432
3 61 283 133
3 61 284 283
3 26 433 435
3 433 285 434
3 433 434 435
3 436 286 437
3 438 287 439
3 440 439 286
3 438 439 440
3 443 442 287
3 441 442 443
3 49 288 254
3 62 289 137
3 62 290 289
3 29 291 218
3 63 292 140
3 63 293 292
3 63 294 293
3 64 295 142
3 64 444 446
3 446 445 295
3 444 445 446
3 64 447 448
3 65 449 451
3 451 450 144
3 449 450 451
3 65 452 453
3 31 296 222
3 66 297 147
3 66 454 456
3 456 455 297
3 454 455 456
3 66 457 458
3 67 459 461
3 461 460 149
3 459 460 461
3 67 462 463
3 67 464 466
3 464 298 465
3 464 465 466
3 68 299 151
3 68 300 299
3 33 301 226
3 69 302 154
3 69 303 302
3 69 304 303
3 70 305 156
3 70 306 305
3 53 307 264
3 71 308 159
3 71 309 308
3 36 310 231
3 72 311 162
3 72 312 311
3 72 313 312
3 73 314 164
3 73 315 314
3 73 316 315
3 74 317 166
3 74 318 317
3 38 319 235
3 75 320 169
3 75 321 320
3 75 322 321
3 77 323 171
3 77 325 323
3 57 467 469
3 467 326 468
3 467 468 469
3 78 327 174
3 78 328 327
3 41 329 240
3 79 330 177
3 79 331 330
3 79 332 331
3 80 333 179
3 80 334 333
3 80 335 334
3 81 336 181
3 81 337 336
3 43 338 244
3 82 339 184
3 82 340 339
3 82 341 340
3 76 342 186
3 76 324 342
3 84 344 189
3 84 345 344
3 84 346 345
3 83 347 191
3 83 343 347
3 86 470 472
3 472 471 193
3 470 471 472
3 86 473 474
3 86 475 477
3 475 349 476
3 475 476 477
3 87 350 195
3 87 351 350
3 478 352 479
3 88 353 198
3 88 354 353
3 88 355 354
3 85 356 200
3 85 348 356
3 480 358 481
3 482 359 483
3 484 483 358
3 482 483 484
3 90 360 202
3 90 361 360
3 90 362 361
3 91 363 204
3 91 364 363
3 46 365 249
3 92 366 207
3 92 367 366
3 92 368 367
3 89 369 209
3 89 357 369
3 485 23 486
3 488 487 23
3 489 93 490
3 491 93 492
3 493 25 494
3 495 494 93
3 493 494 495
3 94 496 497
3 94 498 500
3 498 27 499
3 498 499 500
3 95 96 28
3 97 96 95
3 97 30 96
3 97 98 30
3 99 98 97
3 99 32 98
3 99 100 32
3 101 100 99
3 101 34 100
3 102 103 35
3 104 103 102
3 104 37 103
3 104 105 37
3 106 105 104
3 106 39 105
3 107 108 40
3 109 108 107
3 109 42 108
3 109 110 42
3 111 110 109
3 111 44 110
3 501 45 502
3 503 112 504
3 503 504 505
3 113 506 508
3 506 112 507
3 506 507 508
3 113 47 112
3 114 115 48
3 116 115 114
3 116 50 115
3 117 509 511
3 509 118 510
3 509 510 511
3 119 118 117
3 119 51 118
3 119 120 51
3 121 120 119
3 121 52 120
3 121 122 52
3 123 122 121
3 123 54 122
3 512 124 513
3 125 514 516
3 514 124 515
3 514 515 516
3 125 55 124
3 125 126 55
3 517 126 518
3 519 518 125
3 517 518 519
3 520 56 521
3 522 521 126
3 520 521 522
3 127 523 524
3 127 525 527
3 525 58 526
3 525 526 527
3 128 129 24
3 130 129 128
3 130 59 129
3 130 131 59
3 132 131 130
3 132 60 131
3 528 133 529
3 134 530 532
3 530 133 531
3 530 531 532
3 134 61 133
3 534 533 26
3 135 535 536
3 135 537 538
3 136 137 49
3 138 137 136
3 138 62 137
3 139 140 29
3 141 140 139
3 141 63 140
3 141 142 63
3 143 142 141
3 143 64 142
3 143 144 64
3 145 144 143
3 145 65 144
3 146 147 31
3 148 147 146
3 148 66 147
3 148 149 66
3 150 149 148
3 150 67 149
3 150 151 67
3 152 151 150
3 152 68 151
3 153 154 33
3 155 154 153
3 155 69 154
3 155 156 69
3 157 156 155
3 157 70 156
3 158 159 53
3 160 159 158
3 160 71 159
3 161 162 36
3 163 162 161
3 163 72 162
3 163 164 72
3 165 164 163
3 165 73 164
3 165 166 73
3 167 166 165
3 167 74 166
3 168 169 38
3 170 169 168
3 170 75 169
3 170 171 75
3 172 171 170
3 172 77 171
3 173 174 57
3 175 174 173
3 175 78 174
3 176 177 41
3 178 177 176
3 178 79 177
3 178 179 79
3 180 179 178
3 180 80 179
3 180 181 80
3 182 181 180
3 182 81 181
3 183 184 43
3 185 184 183
3 185 82 184
3 185 186 82
3 187 186 185
3 187 76 186
3 188 539 541
3 539 189 540
3 539 540 541
3 190 189 188
3 190 84 189
3 190 191 84
3 192 191 190
3 192 83 191
3 542 193 543
3 194 544 546
3 544 193 545
3 544 545 546
3 194 86 193
3 194 195 86
3 196 195 194
3 196 87 195
3 197 547 549
3 547 198 548
3 547 548 549
3 199 198 197
3 199 88 198
3 199 200 88
3 201 200 199
3 201 85 200
3 550 202 551
3 203 552 554
3 552 202 553
3 552 553 554
3 203 90 202
3 203 204 90
3 205 204 203
3 205 91 204
3 206 207 46
3 208 207 206
3 208 92 207
3 208 209 92
3 210 209 208
3 210 89 209
3 556 555 4
3 557 117 558
3 211 559 561
3 559 117 560
3 559 560 561
3 211 6 117
3 211 212 6
3 562 212 563
3 564 563 211
3 562 563 564
3 566 565 212
3 568 567 23
3 569 8 570
3 571 213 572
3 573 572 8
3 571 572 573
3 214 574 576
3 574 213 575
3 574 575 576
3 214 24 213
3 93 577 579
3 577 214 578
3 577 578 579
3 215 214 93
3 215 24 214
3 215 128 24
3 216 128 215
3 216 10 128
3 580 26 581
3 582 26 583
3 585 584 26
3 586 11 587
3 217 218 5
3 219 218 217
3 219 29 218
3 96 219 28
3 220 219 96
3 220 29 219
3 220 139 29
3 221 139 220
3 221 12 139
3 221 222 12
3 223 222 221
3 223 31 222
3 98 223 30
3 224 223 98
3 224 31 223
3 224 146 31
3 225 146 224
3 225 13 146
3 225 226 13
3 227 226 225
3 227 33 226
3 100 227 32
3 228 227 100
3 228 33 227
3 228 153 33
3 229 153 228
3 229 14 153
3 230 231 7
3 232 231 230
3 232 36 231
3 103 232 35
3 233 232 103
3 233 36 232
3 233 161 36
3 234 161 233
3 234 15 161
3 234 235 15
3 236 235 234
3 236 38 235
3 105 236 37
3 237 236 105
3 237 38 236
3 237 168 38
3 238 168 237
3 238 17 168
3 239 240 9
3 241 240 239
3 241 41 240
3 108 241 40
3 242 241 108
3 242 41 241
3 242 176 41
3 243 176 242
3 243 18 176
3 243 244 18
3 245 244 243
3 245 43 244
3 110 245 42
3 246 245 110
3 246 43 245
3 246 183 43
3 247 183 246
3 247 16 183
3 588 188 589
3 248 590 592
3 590 188 591
3 590 591 592
3 248 19 188
3 593 197 594
3 595 197 596
3 597 20 598
3 599 598 197
3 597 598 599
3 600 22 601
3 602 249 603
3 604 603 22
3 602 603 604
3 250 605 607
3 605 249 606
3 605 606 607
3 250 46 249
3 112 608 610
3 608 250 609
3 608 609 610
3 251 250 112
3 251 46 250
3 251 206 46
3 252 206 251
3 252 21 206
3 253 611 613
3 611 254 612
3 611 612 613
3 255 254 253
3 255 49 254
3 115 255 48
3 256 255 115
3 256 49 255
3 256 136 49
3 257 136 256
3 257 5 136
3 614 116 615
3 616 615 4
3 614 615 616
3 258 617 619
3 617 116 618
3 617 618 619
3 258 50 116
3 118 620 622
3 620 258 621
3 620 621 622
3 259 258 118
3 259 50 258
3 259 257 50
3 260 257 259
3 260 5 257
3 260 217 5
3 261 217 260
3 261 28 217
3 120 261 51
3 262 261 120
3 262 28 261
3 262 95 28
3 263 95 262
3 263 1 95
3 263 264 1
3 265 264 263
3 265 53 264
3 122 265 52
3 266 265 122
3 266 53 265
3 266 158 53
3 267 158 266
3 267 7 158
3 212 123 6
3 268 123 212
3 268 54 123
3 124 623 625
3 623 268 624
3 623 624 625
3 269 268 124
3 269 54 268
3 269 267 54
3 270 267 269
3 270 7 267
3 270 230 7
3 271 230 270
3 271 35 230
3 126 271 55
3 272 271 126
3 272 35 271
3 272 102 35
3 273 102 272
3 273 3 102
3 626 57 627
3 274 628 629
3 274 630 632
3 630 57 631
3 630 631 632
3 274 173 57
3 275 173 274
3 275 9 173
3 213 127 8
3 276 127 213
3 276 58 127
3 129 276 24
3 277 276 129
3 277 58 276
3 277 275 58
3 278 275 277
3 278 9 275
3 278 239 9
3 279 239 278
3 279 40 239
3 131 279 59
3 280 279 131
3 280 40 279
3 280 107 40
3 281 107 280
3 281 2 107
3 633 253 634
3 282 635 637
3 635 253 636
3 635 636 637
3 282 48 253
3 133 638 640
3 638 282 639
3 638 639 640
3 283 282 133
3 283 48 282
3 283 114 48
3 284 114 283
3 284 4 114
3 641 134 642
3 285 643 645
3 643 134 644
3 643 644 645
3 285 61 134
3 646 285 647
3 648 647 26
3 646 647 648
3 286 649 651
3 649 285 650
3 649 650 651
3 286 61 285
3 286 284 61
3 287 284 286
3 287 4 284
3 287 652 654
3 654 653 4
3 652 653 654
3 656 655 287
3 254 657 659
3 657 94 658
3 657 658 659
3 288 94 254
3 288 27 94
3 137 288 49
3 289 288 137
3 289 27 288
3 289 660 662
3 662 661 27
3 660 661 662
3 290 663 665
3 665 664 289
3 663 664 665
3 290 666 668
3 666 11 667
3 666 667 668
3 218 138 5
3 291 138 218
3 291 62 138
3 140 291 29
3 292 291 140
3 292 62 291
3 292 290 62
3 293 290 292
3 293 11 290
3 293 135 11
3 294 135 293
3 294 669 671
3 671 670 135
3 669 670 671
3 142 294 63
3 295 294 142
3 295 672 674
3 674 673 294
3 672 673 674
3 295 675 676
3 678 677 295
3 144 679 681
3 681 680 64
3 679 680 681
3 683 682 144
3 222 145 12
3 296 145 222
3 296 65 145
3 147 296 31
3 297 296 147
3 297 65 296
3 297 684 686
3 686 685 65
3 684 685 686
3 688 687 297
3 149 689 691
3 691 690 66
3 689 690 691
3 693 692 149
3 298 694 695
3 298 696 698
3 696 25 697
3 696 697 698
3 151 298 67
3 299 298 151
3 299 25 298
3 299 216 25
3 300 216 299
3 300 10 216
3 226 152 13
3 301 152 226
3 301 68 152
3 154 301 33
3 302 301 154
3 302 68 301
3 302 300 68
3 303 300 302
3 303 10 300
3 303 132 10
3 304 132 303
3 304 60 132
3 156 304 69
3 305 304 156
3 305 60 304
3 305 281 60
3 306 281 305
3 306 2 281
3 264 101 1
3 307 101 264
3 307 34 101
3 159 307 53
3 308 307 159
3 308 34 307
3 308 229 34
3 309 229 308
3 309 14 229
3 231 160 7
3 310 160 231
3 310 71 160
3 162 310 36
3 311 310 162
3 311 71 310
3 311 309 71
3 312 309 311
3 312 14 309
3 312 157 14
3 313 157 312
3 313 70 157
3 164 313 72
3 314 313 164
3 314 70 313
3 314 306 70
3 315 306 314
3 315 2 306
3 315 111 2
3 316 111 315
3 316 44 111
3 166 316 73
3 317 316 166
3 317 44 316
3 317 247 44
3 318 247 317
3 318 16 247
3 235 167 15
3 319 167 235
3 319 74 167
3 169 319 38
3 320 319 169
3 320 74 319
3 320 318 74
3 321 318 320
3 321 16 318
3 321 187 16
3 322 187 321
3 322 76 187
3 171 322 75
3 323 322 171
3 323 76 322
3 323 324 76
3 325 324 323
3 325 0 324
3 326 699 700
3 326 701 702
3 174 326 57
3 327 326 174
3 327 703 705
3 705 704 326
3 703 704 705
3 327 706 707
3 328 708 710
3 710 709 327
3 708 709 710
3 328 711 712
3 240 175 9
3 329 175 240
3 329 78 175
3 177 329 41
3 330 329 177
3 330 78 329
3 330 328 78
3 331 328 330
3 331 713 715
3 715 714 328
3 713 714 715
3 331 716 717
3 332 718 720
3 720 719 331
3 718 719 720
3 332 721 722
3 179 332 79
3 333 332 179
3 333 723 725
3 725 724 332
3 723 724 725
3 333 726 727
3 334 728 730
3 730 729 333
3 728 729 730
3 334 731 732
3 334 733 734
3 335 735 737
3 737 736 334
3 735 736 737
3 335 738 740
3 738 45 739
3 738 739 740
3 181 335 80
3 336 335 181
3 336 45 335
3 336 248 45
3 337 248 336
3 337 19 248
3 244 182 18
3 338 182 244
3 338 81 182
3 184 338 43
3 339 338 184
3 339 81 338
3 339 337 81
3 340 337 339
3 340 19 337
3 340 192 19
3 341 192 340
3 341 83 192
3 186 341 82
3 342 341 186
3 342 83 341
3 342 343 83
3 324 343 342
3 324 0 343
3 741 20 742
3 189 743 744
3 344 745 747
3 747 746 189
3 745 746 747
3 344 748 749
3 344 750 751
3 345 752 754
3 754 753 344
3 752 753 754
3 345 755 757
3 755 20 756
3 755 756 757
3 345 201 20
3 346 201 345
3 346 85 201
3 191 346 84
3 347 346 191
3 347 85 346
3 347 348 85
3 343 348 347
3 343 0 348
3 193 758 759
3 762 761 193
3 760 761 762
3 763 113 764
3 349 765 767
3 765 113 766
3 765 766 767
3 349 47 113
3 195 349 86
3 350 349 195
3 350 47 349
3 350 252 47
3 351 252 350
3 351 21 252
3 768 196 769
3 352 770 772
3 770 196 771
3 770 771 772
3 352 87 196
3 198 773 775
3 773 352 774
3 773 774 775
3 353 352 198
3 353 87 352
3 353 351 87
3 354 351 353
3 354 21 351
3 354 210 21
3 355 210 354
3 355 89 210
3 200 355 88
3 356 355 200
3 356 89 355
3 356 357 89
3 348 357 356
3 348 0 357
3 776 56 777
3 358 778 779
3 358 780 782
3 780 56 781
3 780 781 782
3 358 273 56
3 359 273 358
3 359 3 273
3 202 783 784
3 360 785 787
3 787 786 202
3 785 786 787
3 360 788 789
3 360 790 792
3 790 359 791
3 790 791 792
3 361 359 360
3 361 3 359
3 361 106 3
3 362 106 361
3 362 39 106
3 204 362 90
3 363 362 204
3 363 39 362
3 363 238 39
3 364 238 363
3 364 17 238
3 249 205 22
3 365 205 249
3 365 91 205
3 207 365 46
3 366 365 207
3 366 91 365
3 366 364 91
3 367 364 366
3 367 17 364
3 367 172 17
3 368 172 367
3 368 77 172
3 209 368 92
3 369 368 209
3 369 77 368
3 369 325 77
3 357 325 369
3 357 0 325
