ply
format ascii 1.0
element vertex 860
property float x
property float y
property float z
element face 800
property list uchar int vertex_index
end_header
-5.021052 -33.927101 -44.134991
-28.231169 -42.448837 -7.817873
0.5548 -5.926605 -56.475021
6.733288 -21.913244 -57.417297
-25.757992 -66.42749 5.78307
-26.737314 -56.42067 2.631751
-25.242714 -54.099174 -6.452899
16.645842 -74.304939 14.295378
0.38532 -28.850594 -50.804909
-25.853567 -39.158489 -15.450316
20.574669 -72.51284 4.569932
-5.337533 -24.225563 -43.484829
-1.063585 -19.281502 -50.507858
3.276666 -12.904658 -58.049446
-27.506269 -56.934261 7.429695
-28.027819 -50.727699 1.476557
10.867502 -77.118652 17.930565
-2.378853 -31.628777 -47.489765
-26.526525 -48.546951 -7.228508
-24.44108 -52.474934 -10.473188
-25.644426 -46.731396 -11.254107
-24.646072 -44.633011 -14.858837
-27.139229 -40.754791 -11.920429
24.662785 -65.631401 0.201448
15.774867 -77.841156 8.559192
18.786829 -73.720909 9.426918
17.872126 -76.952225 3.711059
-0.993494 -9.481371 -52.675064
-1.829467 -15.735155 -49.787899
0.018994 -12.405716 -53.646061
1.010359 -16.184998 -54.27874
1.822868 -9.245955 -57.461948
-26.806616 -62.055412 9.081034
-25.994301 -61.534626 3.997572
-25.201193 -60.841812 -0.779384
-24.431467 -59.677475 -5.343877
-26.007074 -55.446148 -1.990409
-27.363962 -49.751171 -2.853372
14.086444 -74.201881 18.804699
13.479645 -77.841354 13.400393
0.772224 0.269692 -58.9641
3.416296 -25.558735 -54.17783
-30.055363 -36.052746 -8.423282
-24.474083 -37.103031 -18.702137
22.40696 -70.498367 -0.337894
-12.419728 -32.357655 -34.255943
-9.778469 -31.729252 -37.428913
-7.402918 -30.551376 -40.555077
-5.095305 -28.862911 -43.810589
-3.150345 -22.178856 -46.874313
-2.741199 -26.643578 -47.294666
-0.313185 -23.653267 -50.944824
2.110324 -20.65889 -54.440292
4.820261 -17.243498 -57.919807
-3.727951 -32.854588 -45.798321
-27.35634 -45.478973 -7.568209
-26.104271 -47.614788 -9.338272
-26.860823 -44.770969 -9.600348
-26.374763 -43.894638 -11.49216
-27.69615 -41.721016 -9.89005
25.639484 -63.287445 0.378612
16.80839 -77.529625 6.166628
-0.015407 -4.694543 -55.878014
-0.187276 -7.91672 -54.538074
-0.496717 -10.981037 -53.115528
0.418395 -9.149856 -55.229706
0.903224 -11.004333 -55.503853
1.20045 -7.611361 -57.026817
5.924092 -26.152817 -55.529606
7.669884 -24.310488 -56.989151
8.420417 -20.092274 -58.878487
-27.416929 -59.919292 10.536277
-27.146355 -56.630806 5.028566
-26.681656 -59.375092 5.693918
-26.295324 -59.046486 3.286115
-25.589495 -61.165733 1.500412
-25.923128 -58.583584 0.892518
-25.52301 -58.221195 -1.415281
-26.407217 -55.862247 0.34034
-27.679983 -50.365341 -0.690929
-28.51902 -47.341007 -1.08619
-28.168922 -46.760807 -3.344713
12.805054 -73.792435 20.925533
12.136264 -77.695915 15.575212
0.785864 3.281712 -60.006958
1.565351 2.026477 -60.917099
0.971148 -31.293394 -50.835293
2.553969 -29.582937 -52.443626
1.894538 -27.229998 -52.526093
-24.749502 -56.960247 -5.955163
-24.405689 -56.101437 -7.964967
-25.19582 -41.88834 -15.2371
-24.022171 -43.482483 -16.673548
-24.591988 -40.839539 -16.872663
-23.989252 -39.659531 -18.41157
-25.21361 -38.065289 -17.103437
19.739878 -73.127228 7.026736
20.160234 -71.594513 9.767733
21.04719 -70.952339 7.24958
21.846624 -70.173531 4.972294
22.696543 -69.189064 2.528476
21.562107 -71.407028 2.258693
-11.090792 -32.299232 -35.805538
-7.478789 -28.212496 -40.424713
-6.295749 -27.279675 -42.038826
-6.297534 -29.814312 -42.087658
-5.201573 -26.502409 -43.607555
-1.477997 -17.583488 -50.072868
-2.454705 -19.042572 -48.278233
-2.140401 -20.919077 -48.58535
-2.90076 -24.261385 -47.154205
-1.784299 -22.756624 -48.974686
-1.544715 -25.140055 -49.096497
-0.687689 -21.315855 -50.789398
2.104189 -14.575431 -56.173569
1.487695 -18.462677 -54.328495
2.724533 -16.728132 -56.225857
3.439029 -19.156656 -56.151154
3.994829 -15.186477 -57.963272
-27.681166 -54.028515 4.449567
-27.368944 -53.489162 2.086105
11.176622 -75.129051 20.594982
-1.040462 -30.320833 -49.117676
-25.372591 -66.24662 3.247336
-25.885723 -51.207176 -6.822544
-24.841373 -53.442154 -8.449098
-25.421307 -50.561298 -8.915285
-24.969206 -49.623562 -10.963132
-24.585949 -48.516155 -12.722729
-24.099234 -47.448914 -14.513776
-25.178089 -45.666363 -13.096697
-25.838125 -42.848392 -13.386092
-26.560301 -39.911167 -13.680256
27.318892 -59.640644 -2.074916
16.281033 -75.985771 11.564218
17.801491 -74.123764 11.735315
17.310932 -75.760956 9.185135
18.25819 -75.442413 6.604081
19.323603 -74.641647 4.211111
20.296192 -73.780243 1.742148
18.950768 -76.044121 1.507584
-1.377998 -12.684284 -51.175453
-0.899588 -14.219607 -51.647255
-0.480963 -15.855569 -52.032215
-0.047427 -17.916796 -52.328354
0.498485 -14.361269 -53.961105
1.474319 -12.67296 -55.895691
2.475217 -10.87838 -57.806614
-26.210567 -64.28933 7.36253
-27.072807 -59.590294 8.116837
-26.393017 -61.928436 6.552022
-25.787428 -64.044609 4.652013
-25.42577 -63.644749 2.313702
-25.035368 -63.428429 0.019277
-24.622513 -62.849072 -2.518426
-24.830635 -60.282894 -3.040659
-25.100449 -57.743019 -3.799956
-25.587679 -54.926922 -4.32749
-26.988255 -53.105354 -0.256154
-26.594152 -52.66378 -2.557842
-26.198383 -52.150509 -4.727746
-26.94754 -49.314831 -4.988434
-27.745502 -46.292774 -5.47237
-28.718391 -43.120125 -5.615512
15.41383 -74.358978 16.569731
12.522875 -75.732986 18.301617
13.786672 -76.060036 16.124001
15.082728 -76.254753 13.609574
14.607987 -78.009796 10.975779
0.013434 -1.643433 -56.97023
0.746679 -2.78056 -57.868763
1.387166 -4.405021 -58.402397
1.477161 -1.032351 -59.718678
4.274629 -27.901854 -54.049484
4.993495 -23.817327 -55.781727
-6.199083 -34.804794 -42.581364
-24.058655 -34.304733 -20.387127
-29.627003 -39.930859 -6.029637
-30.522121 -36.805908 -6.374519
-29.112274 -39.308964 -8.171144
-28.590982 -38.465965 -10.208059
-28.015779 -37.714199 -12.046179
-27.232885 -37.052235 -14.035019
-26.532913 -36.180721 -15.782736
-25.766338 -35.429729 -17.416981
-24.973495 -34.67635 -18.950575
-23.792509 -36.152569 -20.075718
23.834297 -66.788391 2.822332
23.563042 -68.031914 0.163398
-13.716691 -32.759987 -32.770737
-9.77703 -34.288868 -37.512875
-8.68283 -28.859293 -38.867172
-8.517778 -31.086393 -39.054737
-8.602911 -33.759052 -39.087196
-7.353154 -33.072819 -40.792984
-6.247518 -32.245003 -42.315331
-5.051833 -31.228228 -43.973289
-2.73509 -16.902384 -48.139992
-3.434168 -20.203009 -46.609863
-4.228986 -23.34951 -45.141541
-4.074644 -25.454817 -45.30817
-3.875439 -27.66745 -45.605007
-3.864786 -30.350607 -45.628448
-2.595378 -29.043751 -47.385132
-1.291693 -27.587633 -49.169716
0.023568 -26.220226 -50.917969
0.441343 -19.838053 -52.652508
0.874867 -22.144991 -52.70406
1.340593 -24.798794 -52.602962
2.711498 -23.288736 -54.272991
4.232501 -21.392334 -56.069374
5.702363 -19.705376 -57.63929
-5.001581 -35.263954 -44.198121
-5.692162 -35.843338 -43.357265
-4.374502 -33.390845 -44.966656
-4.35503 -34.727698 -45.029786
-5.001581 -35.263954 -44.198121
-27.771603 -58.746545 11.36474
-27.606915 -59.952287 11.794539
-29.092315 -46.181535 -0.096317
-28.687595 -47.602497 0.106261
-28.983875 -45.789894 -1.221834
-29.092315 -46.181535 -0.096317
12.090113 -73.478535 22.037846
12.92192 -72.807984 22.178578
0.739185 4.753251 -60.392351
0.395629 3.863291 -59.518147
1.161871 4.213898 -60.944162
0.739185 4.753251 -60.392351
0.678234 -30.071994 -50.820101
0.201358 -32.091537 -50.022717
-0.091556 -30.870137 -50.007525
-25.753209 -67.665177 6.20606
-25.93665 -66.609413 7.067033
17.397827 -73.352668 14.485229
16.839722 -73.384445 15.679306
-5.816641 -25.752619 -42.761827
-6.401154 -26.278261 -41.937697
-5.922046 -24.751206 -42.660698
-28.181845 -52.731209 5.338543
-27.87107 -54.109834 5.64886
-28.019199 -52.592806 4.150404
-28.181845 -52.731209 5.338543
-2.251424 -33.024097 -47.506649
-2.982887 -33.604637 -46.690658
-1.709658 -30.974805 -48.30372
-1.582229 -32.370126 -48.320605
-2.251424 -33.024097 -47.506649
-25.206912 -67.272041 2.376482
-25.168934 -66.086712 1.946819
26.984027 -60.199959 -0.887241
27.393838 -59.088529 -0.843029
26.877742 -60.816254 -2.075398
26.984027 -60.199959 -0.887241
25.07866 -65.015259 -1.059285
25.567009 -63.843281 -0.970703
25.151134 -64.459423 0.29003
24.545805 -66.251644 -1.102925
25.07866 -65.015259 -1.059285
-1.28346 -8.759526 -52.420334
-0.890521 -7.912922 -53.334856
-1.405656 -10.203318 -51.796694
-1.28346 -8.759526 -52.420334
-1.185746 -11.082828 -51.925258
-1.597908 -11.804775 -51.046888
-1.405656 -10.203318 -51.796694
-26.69056 -63.292774 9.445253
-26.972479 -62.251329 10.283206
-26.508592 -63.172371 8.221782
-26.392536 -64.409733 8.586001
-26.69056 -63.292774 9.445253
-27.289538 -58.262277 7.773266
-27.448759 -58.468989 9.009431
-27.66549 -57.140972 8.665859
-28.434245 -44.964796 -4.505422
-27.957212 -46.526791 -4.408542
-28.645955 -45.198813 -3.441594
-28.92069 -43.378472 -4.576994
-28.231946 -44.70645 -5.543941
-28.434245 -44.964796 -4.505422
14.939282 -73.350475 18.973465
14.287148 -73.23877 20.025239
14.750137 -74.280429 17.687215
15.602975 -73.429023 17.855981
14.939282 -73.350475 18.973465
0.392829 -0.68687 -57.967165
0.035703 -0.081791 -57.549074
0.415099 0.874772 -58.546009
1.960942 1.501698 -61.360946
1.982657 3.088017 -61.921594
-6.80394 -35.201673 -41.77037
-6.896116 -36.619018 -41.793663
-24.13427 -33.231275 -20.673536
-24.653716 -33.340643 -19.931258
-30.301459 -38.699417 -5.060567
-29.81152 -40.303812 -4.954506
-30.288742 -36.429327 -7.3989
-30.986565 -35.238384 -6.45464
-30.753186 -34.861803 -7.479021
-28.351365 -36.279305 -12.263442
-28.75134 -36.514385 -11.230809
-27.959918 -35.948323 -13.257862
-27.624332 -37.383217 -13.040599
-28.351365 -36.279305 -12.263442
-26.826745 -34.805011 -15.968695
-27.222707 -35.170902 -15.084761
-26.443458 -34.429516 -16.785818
-26.149625 -35.805225 -16.599858
-26.826745 -34.805011 -15.968695
-25.111136 -33.526452 -19.212982
-25.608116 -33.768198 -18.384936
-24.653716 -33.340643 -19.931258
-24.516075 -34.490541 -19.668851
-25.111136 -33.526452 -19.212982
-24.133421 -60.728459 -6.195507
-24.328254 -60.975739 -5.111413
-24.193872 -53.898842 -10.321463
-24.394019 -54.382452 -9.309418
-24.641227 -52.958544 -9.461143
-24.077846 -45.482294 -15.608988
-23.804427 -46.890246 -15.436457
-24.372653 -46.040963 -14.686307
-23.491138 -44.172089 -17.37446
-23.717992 -42.835076 -17.505414
-23.91266 -37.755455 -19.294633
-23.670244 -39.033705 -19.149349
-24.231668 -38.381281 -18.556854
-24.133296 -36.6278 -19.388928
-23.571872 -37.280224 -19.981423
-23.91266 -37.755455 -19.294633
19.006498 -72.868946 10.8783
18.513828 -73.070373 12.032498
18.29416 -73.922337 10.581117
20.368679 -70.792008 11.147945
20.811399 -70.492253 9.939879
23.456915 -67.292896 3.938939
23.995278 -66.136966 4.079235
22.868645 -69.902386 -1.537074
23.446686 -68.669159 -1.286428
22.985001 -69.265141 -0.087248
20.715139 -73.358757 0.61143
20.085127 -74.541744 0.335058
-13.06821 -32.558821 -33.51334
-13.283941 -31.392305 -33.407394
-12.635459 -31.191139 -34.149997
-12.873474 -33.742144 -33.653904
-13.521956 -33.94331 -32.911301
-13.06821 -32.558821 -33.51334
-12.275778 -33.660894 -34.378838
-12.873474 -33.742144 -33.653904
-10.370417 -33.257976 -36.700693
-11.026579 -33.542967 -35.889005
-10.434631 -32.014242 -36.617226
-9.777749 -33.00906 -37.470894
-10.369698 -34.537785 -36.742674
-10.370417 -33.257976 -36.700693
-8.208427 -27.492977 -39.543039
-8.896828 -27.861194 -38.695351
-2.282278 -16.31877 -48.963946
-2.494247 -15.392375 -48.812613
-2.041435 -14.80876 -49.636566
1.743276 -5.07083 -58.727457
1.801744 -3.350821 -59.421188
-3.657436 -34.217543 -45.844937
-4.35503 -34.727698 -45.029786
-3.053402 -32.241682 -46.644043
-2.982887 -33.604637 -46.690658
-3.657436 -34.217543 -45.844937
25.749151 -62.722793 1.548023
26.144323 -62.023359 0.339523
25.240285 -63.919323 1.614518
25.749151 -62.722793 1.548023
24.751936 -65.091301 1.525936
25.151134 -64.459423 0.29003
25.240285 -63.919323 1.614518
15.971276 -78.62307 5.949362
16.291629 -77.68539 7.36291
15.454515 -78.778835 7.145644
16.522997 -78.38623 4.808896
15.971276 -78.62307 5.949362
17.054865 -78.097531 3.581112
17.340258 -77.240925 4.938843
16.522997 -78.38623 4.808896
17.64529 -77.730144 2.329765
17.054865 -78.097531 3.581112
-0.401477 -5.519509 -54.936331
-0.362041 -4.091874 -55.482811
-0.487411 -7.130597 -54.266361
-0.401477 -5.519509 -54.936331
-0.101342 -6.305632 -55.208044
-0.590385 -8.699046 -53.606569
-0.890521 -7.912922 -53.334856
-0.487411 -7.130597 -54.266361
6.422234 -27.339275 -55.369219
5.510501 -28.366218 -54.614445
7.29513 -26.418111 -56.098991
6.422234 -27.339275 -55.369219
6.796988 -25.231652 -56.259378
8.22346 -25.571039 -56.760945
7.29513 -26.418111 -56.098991
8.530532 -23.415163 -57.659762
8.22346 -25.571039 -56.760945
8.905799 -21.306056 -58.604429
8.530532 -23.415163 -57.659762
8.045151 -22.201381 -57.933819
9.26878 -19.193112 -59.554779
8.905799 -21.306056 -58.604429
-27.277636 -61.183269 11.010828
-27.606915 -59.952287 11.794539
-27.111773 -60.987352 9.808656
-26.972479 -62.251329 10.283206
-27.277636 -61.183269 11.010828
-28.268076 -49.114664 0.303892
-27.853901 -50.54652 0.392814
-28.441994 -49.295843 1.387634
-28.099502 -48.853174 -0.888559
-28.268076 -49.114664 0.303892
-28.687595 -47.602497 0.106261
-28.808826 -45.499794 -2.351096
-28.343971 -47.050907 -2.215451
-28.983875 -45.789894 -1.221834
-28.645955 -45.198813 -3.441594
-28.808826 -45.499794 -2.351096
13.646453 -73.034047 21.085656
12.92192 -72.807984 22.178578
13.445749 -73.997158 19.865116
14.287148 -73.23877 20.025239
13.646453 -73.034047 21.085656
11.247162 -78.426727 15.418628
11.501883 -77.407284 16.752889
10.61278 -78.138095 16.596305
11.919619 -78.645298 14.224365
11.247162 -78.426727 15.418628
12.591309 -78.718018 13.136955
12.807955 -77.768634 14.487803
11.919619 -78.645298 14.224365
13.180386 -78.867546 11.930133
12.591309 -78.718018 13.136955
0.421918 2.380782 -59.067438
0.395629 3.863291 -59.518147
0.779044 1.775702 -59.485529
0.415099 0.874772 -58.546009
0.421918 2.380782 -59.067438
1.551614 3.58628 -61.399233
1.175607 2.654095 -60.462029
1.161871 4.213898 -60.944162
1.982657 3.088017 -61.921594
1.551614 3.58628 -61.399233
0.431083 -33.499515 -49.984821
0.201358 -32.091537 -50.022717
1.270601 -32.670289 -50.760132
0.431083 -33.499515 -49.984821
1.762558 -30.438166 -51.63946
2.062012 -31.815061 -51.564298
1.270601 -32.670289 -50.760132
-30.499711 -34.462475 -8.548964
-30.753186 -34.861803 -7.479021
-29.771133 -35.683658 -9.41936
-30.499711 -34.462475 -8.548964
-24.388146 -57.996491 -6.749154
-24.229128 -59.355104 -6.443511
-24.590485 -58.318861 -5.64952
-24.216239 -57.567085 -7.754056
-24.388146 -57.996491 -6.749154
-24.577596 -56.530842 -6.960065
-24.03799 -57.04369 -8.788666
-24.216239 -57.567085 -7.754056
-23.981755 -53.510687 -11.266499
-24.196082 -52.022781 -11.49237
-24.002901 -41.513604 -17.604971
-23.717992 -42.835076 -17.505414
-24.30708 -42.161011 -16.773105
-24.29062 -40.249535 -17.642117
-23.701532 -40.9236 -18.374425
-24.002901 -41.513604 -17.604971
21.254877 -70.171166 8.680802
20.811399 -70.492253 9.939879
20.603712 -71.273426 8.508657
21.650055 -69.841953 7.418239
21.254877 -70.171166 8.680802
22.049772 -69.452549 6.279596
21.650055 -69.841953 7.418239
21.446907 -70.562935 6.110937
22.463079 -68.985466 5.01392
22.049772 -69.452549 6.279596
22.271583 -69.681297 3.750385
22.888038 -68.493233 3.792011
22.463079 -68.985466 5.01392
-11.940678 -31.130612 -34.904278
-12.635459 -31.191139 -34.149997
-11.27621 -31.101401 -35.679075
-11.75526 -32.328444 -35.030741
-11.940678 -31.130612 -34.904278
-10.58847 -30.867256 -36.476812
-11.27621 -31.101401 -35.679075
-9.932309 -30.582266 -37.2885
-10.434631 -32.014242 -36.617226
-10.58847 -30.867256 -36.476812
-6.992674 -26.744672 -41.13064
-7.606407 -27.169579 -40.32181
-6.887269 -27.746085 -41.231769
-6.992674 -26.744672 -41.13064
-6.401154 -26.278261 -41.937697
-27.928043 -55.744196 8.335976
-27.66549 -57.140972 8.665859
-27.783622 -55.562708 7.138924
-27.928043 -55.744196 8.335976
-27.603665 -55.41098 5.93836
-27.326312 -56.782533 6.229131
-27.783622 -55.562708 7.138924
-27.413761 -55.329661 4.739066
-27.603665 -55.41098 5.93836
-27.87107 -54.109834 5.64886
-27.863088 -52.32313 2.968673
-27.525055 -53.758838 3.267836
-28.019199 -52.592806 4.150404
-28.192526 -50.942398 2.663899
-27.698381 -52.10843 1.781331
-27.863088 -52.32313 2.968673
-28.564395 -49.545681 2.454642
-28.192526 -50.942398 2.663899
-28.441994 -49.295843 1.387634
-28.564395 -49.545681 2.454642
10.483377 -74.760482 21.69335
11.275897 -74.146843 21.87257
10.291969 -75.799019 20.409163
10.483377 -74.760482 21.69335
10.137409 -76.793819 19.076955
11.022062 -76.123852 19.262774
10.291969 -75.799019 20.409163
9.942445 -77.831508 17.731999
10.137409 -76.793819 19.076955
10.61278 -78.138095 16.596305
9.942445 -77.831508 17.731999
-0.804447 -31.605256 -49.163908
-1.582229 -32.370126 -48.320605
-0.327571 -29.585714 -49.961292
-0.091556 -30.870137 -50.007525
-0.804447 -31.605256 -49.163908
-25.383713 -67.517749 3.624686
-25.576414 -67.608184 4.892553
-25.565292 -66.337055 4.515203
-25.383713 -67.517749 3.624686
-25.206912 -67.272041 2.376482
-24.460145 -50.597095 -11.737341
-24.196082 -52.022781 -11.49237
-24.705143 -51.049248 -10.71816
-24.268517 -50.043392 -12.61714
-24.460145 -50.597095 -11.737341
-24.777577 -49.069858 -11.84293
-24.08289 -49.392611 -13.484806
-24.268517 -50.043392 -12.61714
-24.342591 -47.982534 -13.618253
-23.839532 -48.85899 -14.380329
-24.08289 -49.392611 -13.484806
27.7422 -58.44735 -2.113968
27.393838 -59.088529 -0.843029
27.710721 -58.936077 -3.28047
27.7422 -58.44735 -2.113968
27.317009 -60.075884 -3.3537
27.710721 -58.936077 -3.28047
27.317009 -60.075884 -3.3537
26.877742 -60.816254 -2.075398
26.038038 -62.639654 -0.848634
26.144323 -62.023359 0.339523
26.038038 -62.639654 -0.848634
25.567009 -63.843281 -0.970703
19.412416 -75.673684 0.217776
20.085127 -74.541744 0.335058
19.62348 -74.912182 1.624866
18.18461 -77.276093 1.228028
18.411447 -76.498173 2.609322
17.64529 -77.730144 2.329765
18.737395 -76.809285 0.095556
18.18461 -77.276093 1.228028
19.412416 -75.673684 0.217776
18.737395 -76.809285 0.095556
-5.520313 -23.254866 -43.334816
-5.922046 -24.751206 -42.660698
-1.815701 -13.283325 -50.330343
-1.597908 -11.804775 -51.046888
-1.603733 -14.20972 -50.481676
-2.041435 -14.80876 -49.636566
-1.815701 -13.283325 -50.330343
-26.162937 -65.540333 7.856763
-26.392536 -64.409733 8.586001
-25.984279 -65.35841 6.5728
-25.93665 -66.609413 7.067033
-26.162937 -65.540333 7.856763
-27.62082 -58.633488 10.219151
-27.771603 -58.746545 11.36474
-27.244868 -59.754793 9.326557
-27.62082 -58.633488 10.219151
-27.448759 -58.468989 9.009431
-25.195524 -64.785776 1.480003
-25.168934 -66.086712 1.946819
-25.39918 -64.945684 2.780519
-25.000322 -64.677616 0.33279
-25.195524 -64.785776 1.480003
-25.230569 -63.536589 1.16649
-24.807851 -64.420342 -0.883614
-25.000322 -64.677616 0.33279
-24.601424 -64.130663 -2.152465
-24.807851 -64.420342 -0.883614
-24.828941 -63.138751 -1.249574
-24.404401 -63.900667 -3.34984
-24.601424 -64.130663 -2.152465
-24.423777 -62.561537 -3.698688
-24.404401 -63.900667 -3.34984
-24.527839 -61.278448 -3.959804
-24.423777 -62.561537 -3.698688
-24.726574 -61.565983 -2.779542
-24.631051 -59.980185 -4.192268
-24.328254 -60.975739 -5.111413
-24.527839 -61.278448 -3.959804
16.223716 -73.411464 16.816482
15.602975 -73.429023 17.855981
16.029836 -74.331958 15.432555
16.839722 -73.384445 15.679306
16.223716 -73.411464 16.816482
11.990838 -74.460743 20.760258
12.090113 -73.478535 22.037846
11.275897 -74.146843 21.87257
13.744557 -78.951767 10.717826
14.043816 -77.925575 12.188086
13.180386 -78.867546 11.930133
14.367002 -78.884258 9.603993
13.744557 -78.951767 10.717826
14.950443 -78.799938 8.395699
15.191427 -77.925476 9.767485
14.367002 -78.884258 9.603993
15.454515 -78.778835 7.145644
14.950443 -78.799938 8.395699
-0.339691 -0.987804 -56.59293
0.035703 -0.081791 -57.549074
-0.347621 -2.566319 -56.028919
-0.339691 -0.987804 -56.59293
-0.000987 -3.168988 -56.424122
-0.362041 -4.091874 -55.482811
-0.347621 -2.566319 -56.028919
1.846741 -1.664486 -60.079329
1.801744 -3.350821 -59.421188
1.432163 -2.718686 -59.060537
1.916847 -0.027716 -60.761736
1.521256 0.497063 -60.317888
1.960942 1.501698 -61.360946
1.846741 -1.664486 -60.079329
1.916847 -0.027716 -60.761736
2.936603 -30.868144 -52.355669
2.062012 -31.815061 -51.564298
3.796933 -30.027603 -53.158598
2.936603 -30.868144 -52.355669
3.414299 -28.742396 -53.246555
4.68577 -29.240737 -53.874384
3.796933 -30.027603 -53.158598
5.09936 -27.027335 -54.789545
5.510501 -28.366218 -54.614445
4.68577 -29.240737 -53.874384
-6.281177 -36.282184 -42.580452
-6.896116 -36.619018 -41.793663
-5.610067 -34.365948 -43.358177
-5.692162 -35.843338 -43.357265
-6.281177 -36.282184 -42.580452
-23.595841 -34.174753 -21.044064
-23.621167 -34.921976 -20.760303
-23.595841 -34.174753 -21.044064
-24.13427 -33.231275 -20.673536
-29.357214 -41.898445 -4.747444
-28.92069 -43.378472 -4.576994
-29.172697 -41.525492 -5.822574
-29.357214 -41.898445 -4.747444
-29.81152 -40.303812 -4.954506
-31.225991 -35.473913 -5.404453
-30.986565 -35.238384 -6.45464
-30.749018 -37.136942 -5.233008
-31.225991 -35.473913 -5.404453
-30.074562 -38.368384 -6.202078
-30.301459 -38.699417 -5.060567
-30.749018 -37.136942 -5.233008
-29.038942 -36.890268 -10.311749
-29.323172 -37.259355 -9.31567
-29.771133 -35.683658 -9.41936
-28.30338 -38.090082 -11.127119
-29.038942 -36.890268 -10.311749
-28.75134 -36.514385 -11.230809
-27.572693 -35.606659 -14.210902
-27.959918 -35.948323 -13.257862
-26.882899 -36.616478 -14.908877
-27.572693 -35.606659 -14.210902
-27.222707 -35.170902 -15.084761
-26.004538 -34.144887 -17.618139
-26.443458 -34.429516 -16.785818
-25.369917 -35.053039 -18.183778
-26.004538 -34.144887 -17.618139
-25.608116 -33.768198 -18.384936
-23.621167 -34.921976 -20.760303
-23.488093 -35.845894 -20.604598
-23.925582 -35.228651 -20.231423
-25.753209 -67.665177 6.20606
-25.576414 -67.608184 4.892553
-24.133421 -60.728459 -6.195507
-24.229128 -59.355104 -6.443511
-24.176177 -55.712093 -9.067353
-24.623531 -54.771795 -8.207033
-24.394019 -54.382452 -9.309418
-24.03799 -57.04369 -8.788666
-24.176177 -55.712093 -9.067353
-24.193872 -53.898842 -10.321463
-23.981755 -53.510687 -11.266499
-23.577025 -48.367995 -15.262718
-23.839532 -48.85899 -14.380329
-23.577025 -48.367995 -15.262718
-23.804427 -46.890246 -15.436457
-23.765896 -44.90703 -16.516343
-24.077846 -45.482294 -15.608988
-24.334122 -44.057747 -15.766192
-23.765896 -44.90703 -16.516343
-23.491138 -44.172089 -17.37446
-23.404726 -40.257779 -19.116115
-23.701532 -40.9236 -18.374425
-23.404726 -40.257779 -19.116115
-23.670244 -39.033705 -19.149349
-23.278156 -36.69936 -20.606042
-23.571872 -37.280224 -19.981423
-23.488093 -35.845894 -20.604598
-23.278156 -36.69936 -20.606042
17.975651 -73.262081 13.205198
17.397827 -73.352668 14.485229
17.223667 -74.214351 13.015346
17.975651 -73.262081 13.205198
18.513828 -73.070373 12.032498
19.6932 -71.805748 11.048707
19.006498 -72.868946 10.8783
19.473531 -72.657711 9.597326
19.6932 -71.805748 11.048707
20.368679 -70.792008 11.147945
24.337692 -65.669796 2.836378
23.995278 -66.136966 4.079235
24.248541 -66.209896 1.51189
24.751936 -65.091301 1.525936
24.337692 -65.669796 2.836378
23.26542 -67.988728 2.675404
23.456915 -67.292896 3.938939
22.888038 -68.493233 3.792011
23.995933 -67.4519 -1.12195
24.545805 -66.251644 -1.102925
24.112913 -66.831658 0.182423
23.995933 -67.4519 -1.12195
23.446686 -68.669159 -1.286428
21.348096 -72.172149 0.869702
20.92915 -72.593636 2.000421
20.715139 -73.358757 0.61143
21.770522 -71.717819 -0.428592
21.984534 -70.952697 0.9604
21.348096 -72.172149 0.869702
22.252795 -71.150482 -1.619314
21.770522 -71.717819 -0.428592
22.868645 -69.902386 -1.537074
22.252795 -71.150482 -1.619314
-13.988239 -31.468523 -32.663151
-13.283941 -31.392305 -33.407394
-14.347222 -32.708409 -32.088396
-13.988239 -31.468523 -32.663151
-14.185999 -33.976082 -32.130798
-14.347222 -32.708409 -32.088396
-14.185999 -33.976082 -32.130798
-13.521956 -33.94331 -32.911301
-11.61131 -33.631683 -35.153635
-12.275778 -33.660894 -34.378838
-11.75526 -32.328444 -35.030741
-11.61131 -33.631683 -35.153635
-11.026579 -33.542967 -35.889005
-10.361622 -35.751314 -36.839291
-10.369698 -34.537785 -36.742674
-9.791462 -35.553411 -37.61264
-10.361622 -35.751314 -36.839291
-9.38449 -29.147286 -38.007629
-8.896828 -27.861194 -38.695351
-9.230649 -30.294272 -38.148043
-9.932309 -30.582266 -37.2885
-9.38449 -29.147286 -38.007629
-8.080809 -28.535895 -39.645942
-8.208427 -27.492977 -39.543039
-7.606407 -27.169579 -40.32181
-9.204403 -35.288503 -38.399801
-9.791462 -35.553411 -37.61264
-9.189971 -34.02396 -38.300035
-8.60589 -35.014974 -39.213593
-9.204403 -35.288503 -38.399801
-7.981012 -34.671858 -40.066486
-8.60589 -35.014974 -39.213593
-7.978033 -33.415936 -39.94009
-7.380975 -34.335686 -40.876181
-7.981012 -34.671858 -40.066486
-6.828157 -33.921778 -41.637354
-7.380975 -34.335686 -40.876181
-6.800336 -32.658911 -41.554158
-6.223301 -33.524898 -42.448347
-6.80394 -35.201673 -41.77037
-6.828157 -33.921778 -41.637354
-4.912684 -22.781363 -44.211027
-5.520313 -23.254866 -43.334816
-2.971759 -16.074058 -47.953091
-2.494247 -15.392375 -48.812613
-3.257861 -17.62497 -47.246943
-2.971759 -16.074058 -47.953091
-3.6074 -19.275283 -46.481878
-3.257861 -17.62497 -47.246943
-3.084629 -18.552697 -47.374927
-3.961002 -20.770086 -45.773544
-3.6074 -19.275283 -46.481878
-4.35841 -22.343336 -45.039383
-3.961002 -20.770086 -45.773544
-3.831577 -21.77626 -45.875702
-4.783259 -23.787537 -44.313185
-4.912684 -22.781363 -44.211027
-4.35841 -22.343336 -45.039383
1.649919 -6.674001 -58.039667
1.293808 -6.008191 -57.714607
1.743276 -5.07083 -58.727457
1.961127 -7.491297 -58.257233
1.511659 -8.428658 -57.244383
1.649919 -6.674001 -58.039667
2.341278 -8.291736 -58.488501
1.961127 -7.491297 -58.257233
2.667452 -9.107948 -58.660834
2.149042 -10.062168 -57.634281
2.341278 -8.291736 -58.488501
3.026711 -10.01893 -58.749676
2.667452 -9.107948 -58.660834
3.427435 -11.032069 -58.871092
2.875941 -11.891519 -57.92803
3.026711 -10.01893 -58.749676
3.851572 -11.96825 -58.945915
3.427435 -11.032069 -58.871092
4.210654 -13.10916 -58.902828
3.635747 -14.045568 -58.006359
3.851572 -11.96825 -58.945915
4.652181 -14.226869 -58.851526
4.210654 -13.10916 -58.902828
5.064896 -15.25538 -58.829794
4.407545 -16.214987 -57.94154
4.652181 -14.226869 -58.851526
5.551423 -16.462388 -58.704301
5.064896 -15.25538 -58.829794
5.992474 -17.693327 -58.564043
5.261312 -18.474437 -57.779549
5.551423 -16.462388 -58.704301
6.485993 -18.823041 -58.407646
5.992474 -17.693327 -58.564043
7.001456 -19.926975 -58.29665
6.217826 -20.80931 -57.528294
6.485993 -18.823041 -58.407646
7.84502 -19.01649 -59.027245
7.576853 -21.002759 -58.147892
7.001456 -19.926975 -58.29665
8.628482 -18.14844 -59.72934
7.84502 -19.01649 -59.027245
9.26878 -19.193112 -59.554779
8.628482 -18.14844 -59.72934
3 0 212 213
3 0 214 216
3 214 54 215
3 214 215 216
3 1 57 55
3 1 59 57
3 2 63 62
3 2 65 63
3 2 67 65
3 3 69 68
3 3 70 69
3 217 71 218
3 5 74 72
3 5 76 74
3 5 78 76
3 219 80 220
3 222 221 80
3 223 82 224
3 225 84 226
3 228 227 84
3 8 229 231
3 229 86 230
3 229 230 231
3 8 88 86
3 4 232 233
3 6 90 89
3 9 93 91
3 9 95 93
3 7 234 235
3 10 98 96
3 10 99 98
3 10 101 99
3 11 236 238
3 236 104 237
3 236 237 238
3 11 106 104
3 12 109 107
3 12 111 109
3 12 113 111
3 13 116 114
3 13 118 116
3 239 119 240
3 242 241 119
3 17 243 244
3 17 245 247
3 245 122 246
3 245 246 247
3 249 248 123
3 18 126 124
3 20 127 56
3 20 128 127
3 20 130 128
3 22 131 58
3 22 132 131
3 250 133 251
3 253 252 133
3 23 254 256
3 256 255 60
3 254 255 256
3 23 257 258
3 24 136 134
3 26 137 61
3 26 138 137
3 26 140 138
3 27 259 260
3 27 261 262
3 27 263 265
3 263 141 264
3 263 264 265
3 29 142 64
3 29 143 142
3 29 145 143
3 31 146 66
3 31 147 146
3 32 266 267
3 32 268 270
3 268 148 269
3 268 269 270
3 14 271 273
3 271 149 272
3 271 272 273
3 33 150 73
3 33 151 150
3 33 152 151
3 34 153 75
3 34 154 153
3 34 155 154
3 36 156 77
3 36 157 156
3 15 158 120
3 37 159 79
3 37 160 159
3 37 161 160
3 274 162 275
3 276 275 81
3 274 275 276
3 277 163 278
3 279 278 162
3 277 278 279
3 38 280 281
3 38 282 284
3 282 164 283
3 282 283 284
3 16 165 121
3 39 166 83
3 39 167 166
3 39 168 167
3 40 285 287
3 285 169 286
3 285 286 287
3 40 170 169
3 40 172 170
3 289 288 85
3 41 173 87
3 41 174 173
3 290 175 291
3 293 292 176
3 294 177 295
3 42 296 298
3 296 178 297
3 296 297 298
3 42 179 178
3 42 180 179
3 299 181 300
3 301 182 302
3 303 302 181
3 301 302 303
3 304 183 305
3 306 184 307
3 308 307 183
3 306 307 308
3 309 185 310
3 311 176 312
3 313 312 185
3 311 312 313
3 35 314 315
3 19 316 318
3 318 317 125
3 316 317 318
3 21 319 321
3 321 320 129
3 319 320 321
3 323 322 92
3 43 324 326
3 326 325 94
3 324 325 326
3 43 327 329
3 327 186 328
3 327 328 329
3 25 330 332
3 332 331 135
3 330 331 332
3 334 333 97
3 335 187 336
3 44 188 100
3 44 337 339
3 339 338 188
3 337 338 339
3 341 340 139
3 45 342 344
3 342 189 343
3 342 343 344
3 45 345 347
3 347 346 189
3 345 346 347
3 45 348 349
3 46 350 352
3 352 351 102
3 350 351 352
3 46 353 355
3 353 190 354
3 353 354 355
3 356 191 357
3 47 192 103
3 47 193 192
3 47 194 193
3 48 195 105
3 48 196 195
3 28 358 360
3 358 197 359
3 358 359 360
3 49 198 108
3 49 199 198
3 49 200 199
3 50 201 110
3 50 202 201
3 50 203 202
3 51 204 112
3 51 205 204
3 30 206 144
3 52 207 115
3 52 208 207
3 52 209 208
3 53 210 117
3 53 211 210
3 362 361 171
3 54 363 364
3 54 365 367
3 365 17 366
3 365 366 367
3 55 56 18
3 57 56 55
3 57 20 56
3 57 58 20
3 59 58 57
3 59 22 58
3 368 60 369
3 370 60 371
3 372 23 373
3 374 373 60
3 372 373 374
3 375 61 376
3 377 376 24
3 375 376 377
3 378 61 379
3 380 26 381
3 382 381 61
3 380 381 382
3 384 383 26
3 62 385 386
3 63 387 389
3 389 388 62
3 387 388 389
3 63 390 392
3 390 27 391
3 390 391 392
3 63 64 27
3 65 64 63
3 65 29 64
3 65 66 29
3 67 66 65
3 67 31 66
3 68 393 394
3 69 395 397
3 397 396 68
3 395 396 397
3 69 398 399
3 69 400 401
3 70 402 404
3 404 403 69
3 402 403 404
3 70 405 406
3 71 407 408
3 71 409 411
3 409 32 410
3 409 410 411
3 72 73 14
3 74 73 72
3 74 33 73
3 74 75 33
3 76 75 74
3 76 34 75
3 76 77 34
3 78 77 76
3 78 36 77
3 412 79 413
3 414 413 15
3 412 413 414
3 80 415 417
3 415 79 416
3 415 416 417
3 80 37 79
3 80 81 37
3 418 81 419
3 420 419 80
3 418 419 420
3 422 421 81
3 82 423 424
3 82 425 427
3 425 38 426
3 425 426 427
3 428 83 429
3 430 429 16
3 428 429 430
3 431 83 432
3 433 39 434
3 435 434 83
3 433 434 435
3 437 436 39
3 84 438 439
3 84 440 442
3 440 40 441
3 440 441 442
3 84 85 40
3 443 85 444
3 445 444 84
3 443 444 445
3 447 446 85
3 86 448 449
3 86 450 451
3 86 452 454
3 452 87 453
3 452 453 454
3 88 87 86
3 88 41 87
3 455 42 456
3 458 457 42
3 89 459 461
3 461 460 35
3 459 460 461
3 90 462 464
3 464 463 89
3 462 463 464
3 90 465 466
3 468 467 19
3 91 92 21
3 93 92 91
3 93 469 471
3 471 470 92
3 469 470 471
3 93 472 474
3 472 94 473
3 472 473 474
3 95 94 93
3 95 43 94
3 96 97 25
3 98 97 96
3 98 475 477
3 477 476 97
3 475 476 477
3 98 478 479
3 99 480 482
3 482 481 98
3 480 481 482
3 99 483 484
3 99 485 487
3 485 100 486
3 485 486 487
3 101 100 99
3 101 44 100
3 488 45 489
3 490 102 491
3 492 491 45
3 490 491 492
3 493 102 494
3 495 46 496
3 497 496 102
3 495 496 497
3 498 103 499
3 104 500 502
3 500 103 501
3 500 501 502
3 104 47 103
3 104 105 47
3 106 105 104
3 106 48 105
3 107 108 28
3 109 108 107
3 109 49 108
3 109 110 49
3 111 110 109
3 111 50 110
3 111 112 50
3 113 112 111
3 113 51 112
3 114 115 30
3 116 115 114
3 116 52 115
3 116 117 52
3 118 117 116
3 118 53 117
3 503 14 504
3 505 14 506
3 507 72 508
3 509 508 14
3 507 508 509
3 119 510 512
3 510 72 511
3 510 511 512
3 119 5 72
3 119 120 5
3 513 120 514
3 515 514 119
3 513 514 515
3 516 15 517
3 518 517 120
3 516 517 518
3 519 15 520
3 522 521 15
3 523 121 524
3 525 121 526
3 527 16 528
3 529 528 121
3 527 528 529
3 530 16 531
3 533 532 16
3 122 534 535
3 122 536 538
3 536 8 537
3 536 537 538
3 123 539 541
3 541 540 4
3 539 540 541
3 543 542 123
3 124 125 6
3 126 125 124
3 126 19 125
3 56 126 18
3 127 126 56
3 127 19 126
3 127 544 546
3 546 545 19
3 544 545 546
3 128 547 549
3 549 548 127
3 547 548 549
3 128 550 551
3 128 552 554
3 552 129 553
3 552 553 554
3 130 129 128
3 130 21 129
3 58 130 20
3 131 130 58
3 131 21 130
3 131 91 21
3 132 91 131
3 132 9 91
3 133 555 556
3 133 557 558
3 133 559 560
3 562 561 133
3 60 563 564
3 566 565 60
3 134 135 7
3 136 135 134
3 136 25 135
3 61 136 24
3 137 136 61
3 137 25 136
3 137 96 25
3 138 96 137
3 138 10 96
3 138 139 10
3 140 139 138
3 140 567 569
3 569 568 139
3 567 568 569
3 570 140 571
3 572 571 26
3 570 571 572
3 573 140 574
3 576 575 140
3 577 11 578
3 141 579 580
3 141 581 583
3 581 28 582
3 581 582 583
3 64 141 27
3 142 141 64
3 142 28 141
3 142 107 28
3 143 107 142
3 143 12 107
3 143 144 12
3 145 144 143
3 145 30 144
3 66 145 29
3 146 145 66
3 146 30 145
3 146 114 30
3 147 114 146
3 147 13 114
3 148 584 585
3 148 586 588
3 586 4 587
3 586 587 588
3 589 71 590
3 149 591 593
3 591 71 592
3 591 592 593
3 149 32 71
3 73 149 14
3 150 149 73
3 150 32 149
3 150 148 32
3 151 148 150
3 151 4 148
3 151 123 4
3 152 123 151
3 152 594 596
3 596 595 123
3 594 595 596
3 75 152 33
3 153 152 75
3 153 597 599
3 599 598 152
3 597 598 599
3 153 600 601
3 154 602 604
3 604 603 153
3 602 603 604
3 154 605 606
3 154 607 608
3 155 609 611
3 611 610 154
3 609 610 611
3 155 612 614
3 612 35 613
3 612 613 614
3 77 155 34
3 156 155 77
3 156 35 155
3 156 89 35
3 157 89 156
3 157 6 89
3 120 78 5
3 158 78 120
3 158 36 78
3 79 158 15
3 159 158 79
3 159 36 158
3 159 157 36
3 160 157 159
3 160 6 157
3 160 124 6
3 161 124 160
3 161 18 124
3 81 161 37
3 162 161 81
3 162 18 161
3 162 55 18
3 163 55 162
3 163 1 55
3 164 615 616
3 164 617 619
3 617 7 618
3 617 618 619
3 121 620 622
3 620 82 621
3 620 621 622
3 165 82 121
3 165 38 82
3 83 165 16
3 166 165 83
3 166 38 165
3 166 164 38
3 167 164 166
3 167 7 164
3 167 134 7
3 168 134 167
3 168 24 134
3 623 168 624
3 625 624 39
3 623 624 625
3 626 168 627
3 628 24 629
3 630 629 168
3 628 629 630
3 632 631 24
3 169 633 634
3 169 635 636
3 169 637 639
3 637 62 638
3 637 638 639
3 170 62 169
3 170 2 62
3 170 171 2
3 172 171 170
3 172 640 642
3 642 641 171
3 640 641 642
3 85 172 40
3 643 172 644
3 645 644 85
3 643 644 645
3 647 646 172
3 87 648 649
3 173 650 652
3 652 651 87
3 650 651 652
3 173 653 654
3 173 655 657
3 655 68 656
3 655 656 657
3 174 68 173
3 174 3 68
3 175 658 659
3 175 660 662
3 660 0 661
3 660 661 662
3 176 663 664
3 666 665 176
3 667 163 668
3 177 669 671
3 669 163 670
3 669 670 671
3 177 1 163
3 178 672 673
3 178 674 675
3 178 676 678
3 676 177 677
3 676 677 678
3 179 177 178
3 179 1 177
3 179 59 1
3 180 59 179
3 180 22 59
3 679 180 680
3 681 680 42
3 679 680 681
3 181 682 684
3 682 180 683
3 682 683 684
3 181 22 180
3 181 132 22
3 182 132 181
3 182 9 132
3 685 182 686
3 183 687 689
3 687 182 688
3 687 688 689
3 183 9 182
3 183 95 9
3 184 95 183
3 184 43 95
3 690 184 691
3 185 692 694
3 692 184 693
3 692 693 694
3 185 43 184
3 185 186 43
3 176 186 185
3 176 695 697
3 697 696 186
3 695 696 697
3 699 698 4
3 701 700 35
3 125 90 6
3 702 90 703
3 704 703 125
3 702 703 704
3 706 705 90
3 708 707 19
3 129 709 710
3 712 711 129
3 92 713 715
3 715 714 21
3 713 714 715
3 717 716 92
3 94 718 719
3 721 720 94
3 186 722 723
3 186 724 725
3 135 726 728
3 728 727 7
3 726 727 728
3 730 729 135
3 97 731 733
3 733 732 25
3 731 732 733
3 735 734 97
3 187 736 737
3 187 738 740
3 738 23 739
3 738 739 740
3 100 741 743
3 741 187 742
3 741 742 743
3 188 187 100
3 188 23 187
3 188 744 746
3 746 745 23
3 744 745 746
3 748 747 188
3 139 101 10
3 749 101 750
3 751 750 139
3 749 750 751
3 752 44 753
3 754 753 101
3 752 753 754
3 755 44 756
3 758 757 44
3 189 759 760
3 189 761 762
3 189 763 764
3 766 765 189
3 102 767 769
3 769 768 45
3 767 768 769
3 771 770 102
3 190 772 773
3 190 774 775
3 191 776 777
3 191 778 780
3 778 46 779
3 778 779 780
3 103 781 783
3 781 191 782
3 781 782 783
3 192 191 103
3 192 46 191
3 192 190 46
3 193 190 192
3 193 784 786
3 786 785 190
3 784 785 786
3 193 787 788
3 194 789 791
3 791 790 193
3 789 790 791
3 194 792 793
3 105 194 47
3 195 194 105
3 195 794 796
3 796 795 194
3 794 795 796
3 195 797 799
3 797 175 798
3 797 798 799
3 196 175 195
3 196 0 175
3 800 11 801
3 197 802 803
3 197 804 805
3 108 197 28
3 198 197 108
3 198 806 808
3 808 807 197
3 806 807 808
3 198 809 810
3 199 811 813
3 813 812 198
3 811 812 813
3 199 814 816
3 814 11 815
3 814 815 816
3 199 106 11
3 200 106 199
3 200 48 106
3 110 200 49
3 201 200 110
3 201 48 200
3 201 196 48
3 202 196 201
3 202 0 196
3 202 54 0
3 203 54 202
3 203 17 54
3 112 203 50
3 204 203 112
3 204 17 203
3 204 122 17
3 205 122 204
3 205 8 122
3 144 113 12
3 206 113 144
3 206 51 113
3 115 206 30
3 207 206 115
3 207 51 206
3 207 205 51
3 208 205 207
3 208 8 205
3 208 88 8
3 209 88 208
3 209 41 88
3 117 209 52
3 210 209 117
3 210 41 209
3 210 174 41
3 211 174 210
3 211 3 174
3 171 67 2
3 817 67 818
3 819 818 171
3 817 818 819
3 820 31 821
3 822 821 67
3 820 821 822
3 823 31 824
3 825 147 826
3 827 826 31
3 825 826 827
3 828 147 829
3 830 13 831
3 832 831 147
3 830 831 832
3 833 13 834
3 835 118 836
3 837 836 13
3 835 836 837
3 838 118 839
3 840 53 841
3 842 841 118
3 840 841 842
3 843 53 844
3 845 211 846
3 847 846 53
3 845 846 847
3 848 211 849
3 850 3 851
3 852 851 211
3 850 851 852
3 853 70 854
3 855 854 3
3 853 854 855
3 856 70 857
3 859 858 70
