ply
format ascii 1.0
element vertex 955
property float x
property float y
property float z
element face 1102
property list uchar int vertex_index
end_header
34.795044 -36.857624 -13.649459
38.660393 -21.086172 -20.764055
40.073246 -8.05216 -37.091099
31.58814 -51.494995 -13.479476
38.127335 -31.381596 -2.521331
35.68412 13.021398 -40.643482
36.822697 -30.017202 -17.420744
38.071762 -25.470959 -25.247976
35.876553 -35.113304 -20.041637
36.314487 4.436263 -31.36919
27.139935 26.753401 -49.446556
38.699265 -11.912525 -22.589125
39.06052 -4.407369 -30.761827
39.358784 -14.646382 -28.838461
33.449738 -41.561481 -6.668163
33.373386 -42.90332 -13.601711
35.36631 -38.881149 0.518288
36.060295 -34.462444 -9.149208
38.590031 -18.491417 -14.244009
38.27319 -26.724535 -12.04682
35.058037 -42.929989 -21.266586
33.257011 20.920465 -50.398163
39.056801 3.654367 -39.396439
35.709129 -33.89146 -15.439358
36.25494 -32.307251 -18.899992
35.18853 -36.0439 -16.566572
21.144222 69.751343 -18.868103
19.181787 70.756538 -22.565262
38.979164 -16.440439 -21.809299
39.200912 -12.937631 -25.961899
38.987022 -17.896172 -24.853689
37.984051 -28.551113 -26.680132
38.845093 -22.955181 -29.055315
32.756821 -44.025486 -2.000645
32.130287 -45.416927 -5.6668
34.970131 -40.642727 5.493009
33.730171 -42.524506 1.752104
34.241039 -40.388474 -3.139416
38.840374 -27.604895 -3.958109
38.781376 -25.249872 -8.702762
38.142704 -29.332451 -7.420906
37.274574 -30.738085 -10.672098
37.067432 -33.044014 -6.070168
32.514034 -47.054504 -13.291624
34.040043 -43.068382 -17.2066
33.332237 -47.530376 -17.410475
33.186848 16.357342 -40.675858
32.081856 20.481802 -45.632496
34.809586 16.952263 -45.351124
39.689362 -5.626554 -34.194141
39.166794 -0.439111 -35.024719
39.80204 -1.97151 -38.386097
37.868092 -25.734804 -19.164539
38.325089 -22.942066 -23.246016
37.375072 -27.781973 -21.241798
37.036289 -30.51329 -22.662651
36.87178 -33.734352 -23.932892
36.223347 8.682455 -35.931675
24.444733 30.107424 -53.467571
28.016815 27.499903 -54.807323
37.741196 -7.587218 -22.998518
37.891689 -3.79317 -26.985806
38.868446 -8.19951 -26.670033
39.473629 -9.246971 -30.162949
39.733501 -11.464527 -32.766491
38.862869 -20.04495 -27.236816
39.449059 -17.191706 -31.242443
39.998653 -14.239048 -35.312897
34.140701 -39.095764 -10.584177
34.109482 -39.504513 -13.61298
33.100403 -42.560341 -10.006482
32.082386 -46.348438 -9.447665
31.072186 -50.452892 -9.29704
29.590221 -53.695114 -4.74908
29.824432 -54.966801 -9.120174
38.035294 -33.262791 2.720938
36.623726 -37.019833 4.198556
36.895477 -35.157616 -0.931928
35.708157 -36.740723 -4.620338
34.745777 -38.045643 -7.748218
35.257767 -35.756935 -11.700275
38.600147 -15.393791 -18.451145
38.840137 -19.530712 -17.806454
38.701488 -21.524841 -9.684702
38.772884 -22.542479 -13.309687
38.424934 -23.9746 -16.601873
37.535172 -28.265974 -15.061727
36.390568 -32.237465 -13.449734
34.617058 -39.241421 -16.973299
35.477142 -38.756298 -20.649376
34.372074 -47.62191 -21.768732
28.991682 23.039219 -44.991119
30.309902 24.260178 -50.319519
38.032433 0.354752 -31.305647
37.960762 4.618433 -35.609089
37.688942 8.684451 -40.118023
35.203365 -35.537598 -14.429897
35.418777 -34.93618 -16.034906
34.939312 -36.511223 -14.916026
20.690273 67.344292 -19.248234
38.898949 -18.626755 -21.409594
39.015438 -17.069101 -23.441835
38.803974 -19.61915 -22.797113
33.208797 -43.266773 -0.28913
38.537426 -29.597002 -3.257126
38.533005 -28.482582 -5.750499
38.122395 -30.433121 -4.987778
37.658791 -31.153475 -6.801412
37.609257 -32.251472 -4.298222
32.115883 -49.137062 -13.435522
32.928036 -47.180859 -15.389422
32.488434 -49.543736 -15.549121
34.873283 12.644075 -38.348499
33.610828 14.195745 -38.303562
34.513691 14.686526 -40.58057
34.027916 16.761116 -42.916431
35.286999 15.029488 -42.971657
39.889389 -6.72265 -35.639751
39.772346 -3.799506 -36.357098
39.992733 -5.073241 -37.786774
37.367466 -27.927017 -18.249331
37.624691 -26.599373 -20.255714
37.09026 -28.874237 -19.35195
36.037521 -33.661015 -19.474178
36.621544 -31.409046 -20.743166
36.46199 -32.839878 -21.309097
36.938889 -32.050423 -23.290968
36.360657 -34.443771 -21.985744
35.224247 8.380394 -33.713692
36.25148 6.502391 -33.454865
22.255438 71.197891 -16.089308
25.335667 27.941116 -48.726913
24.018782 29.699642 -50.655056
25.779295 28.540768 -51.40139
26.261774 28.852722 -54.177841
27.499695 27.381243 -52.20269
38.283955 -9.759882 -22.708874
38.394009 -7.950801 -24.80813
38.767132 -9.963393 -24.696024
39.305946 -13.665163 -27.421621
39.34132 -11.107085 -28.092665
39.466919 -11.886971 -29.487829
39.628674 -10.184104 -31.598103
39.55019 -12.954573 -30.792892
38.155174 -24.218174 -24.248474
38.580772 -21.511299 -25.200821
38.502285 -22.720503 -26.261049
39.247101 -21.622242 -31.104263
39.188473 -20.093527 -30.249655
39.530563 -18.737577 -32.261539
39.737747 -15.768976 -33.293259
39.839252 -17.409052 -34.236614
33.814663 -40.266315 -8.721615
33.61623 -40.784306 -10.296497
33.210838 -42.091011 -8.274493
31.513727 -47.3419 -5.386721
32.043388 -45.913734 -7.599627
31.478485 -47.914127 -7.34429
31.586897 -48.357826 -9.34177
30.960705 -49.824585 -7.218238
28.899969 -55.843697 -4.553214
29.645582 -54.441776 -6.957314
28.918768 -56.671711 -6.682129
37.883221 -34.213375 5.345655
35.15126 -39.862427 3.016033
35.785599 -38.87582 4.696416
36.021534 -37.913765 2.276955
36.786949 -36.084011 1.570694
36.144768 -37.05088 -0.184023
36.289398 -35.996784 -2.770847
35.576752 -37.744205 -2.154844
33.835949 -40.902573 -4.96288
34.542767 -39.097637 -5.572425
34.130558 -39.699703 -7.176671
34.408234 -38.549168 -9.239786
38.222229 -16.536608 -14.573031
38.205067 -15.031516 -16.570059
38.588722 -16.931231 -16.467796
38.80941 -17.551416 -18.067526
38.781326 -19.13043 -15.930923
38.566353 -25.949528 -10.518477
38.765919 -23.907677 -11.171582
38.597328 -24.572464 -12.883604
38.631142 -23.290468 -15.084424
38.321812 -25.481667 -14.314978
38.031174 -26.115572 -15.882854
37.917114 -27.474802 -13.631995
36.676838 -32.62624 -9.966542
36.830078 -31.411486 -12.22933
36.250137 -33.266335 -11.327658
35.825935 -34.060223 -12.433542
35.58342 -35.239361 -10.440148
33.726524 -41.185062 -13.572376
34.323765 -39.399567 -15.319323
33.998981 -41.149937 -15.398705
34.549812 -42.952297 -19.265934
34.761391 -41.073116 -19.008463
35.319946 -40.655113 -21.045349
36.074314 -38.174141 -22.78797
35.828705 -40.487423 -22.969141
32.711151 20.826969 -47.965885
31.26717 22.414845 -47.969303
31.887993 22.646435 -50.486523
30.810888 24.408564 -52.798141
32.320835 22.635763 -52.855694
38.571499 -4.105939 -28.91596
37.963009 -1.703144 -29.136063
38.605675 -2.010624 -30.950518
39.12801 1.654471 -37.156528
38.659149 2.193056 -35.41048
38.563271 4.292141 -37.520283
37.849144 6.674798 -37.806622
38.455853 6.255133 -39.792427
36.263973 -32.019909 -16.387096
36.526966 -31.061703 -18.298977
35.978252 -33.031269 -17.140909
35.707726 -34.251732 -17.685534
35.463791 -35.684399 -18.156181
20.551809 72.71859 -20.215549
19.607714 73.128105 -22.103445
20.25951 70.234413 -20.601553
19.679983 67.94249 -21.056145
24.718578 27.21603 -46.022583
26.396519 26.119425 -46.656605
38.922375 -14.132987 -22.313416
38.994064 -12.331867 -24.251995
39.07917 -14.664902 -23.881716
39.152298 -15.451954 -25.394253
39.168949 -16.248566 -26.807207
38.002483 -26.91572 -25.905462
38.461452 -24.186743 -27.163952
38.441395 -25.822847 -27.894987
38.892147 -24.56588 -29.917152
33.09943 -42.809177 -4.449766
32.757164 -43.544811 -6.117002
32.402336 -44.699036 -3.842277
31.696793 -46.667633 -3.537965
34.328918 -41.638985 3.654596
34.553768 -40.713512 1.192199
34.801083 -39.600906 -1.398527
33.979748 -41.521832 -0.649508
33.505157 -42.150826 -2.681058
38.9445 -25.803345 -4.616295
38.879215 -24.543865 -6.995698
38.79533 -26.514103 -6.418101
38.543472 -27.234217 -8.210271
38.223141 -28.007998 -9.713978
37.821873 -28.757908 -11.375665
37.7635 -29.844587 -9.241343
37.185005 -31.836205 -8.473094
36.578617 -33.699203 -7.667722
32.945705 -44.910931 -13.389242
33.661594 -43.051765 -15.408386
33.280804 -45.080322 -15.270889
33.729881 -45.20015 -17.349735
34.201775 -45.326469 -19.358442
31.274662 19.729752 -42.881111
32.679634 18.43145 -43.070904
33.485889 18.743303 -45.362541
34.104614 18.980986 -47.839012
39.416431 -5.006894 -32.378754
39.120331 -2.47509 -32.785381
39.501888 -3.062325 -34.635574
39.526165 -1.126144 -36.718086
39.501915 0.905959 -38.929512
38.298359 -23.489765 -20.050932
38.508873 -21.873497 -22.107817
38.099689 -24.274487 -21.295282
37.860794 -25.488867 -22.2701
37.698925 -26.667019 -23.226835
36.836147 -30.063553 -20.116169
37.173988 -29.088446 -21.972216
37.564995 -28.056934 -23.910715
37.532295 -29.371637 -24.722137
37.433105 -31.251705 -25.265486
39.026733 -26.886978 -1.98427
38.867817 -28.765045 -1.39517
38.572803 -30.510246 -0.607373
35.080387 10.547648 -36.014198
35.994194 10.819489 -38.185658
40.236485 -9.514305 -38.339874
40.171494 -6.213918 -39.209961
21.473686 71.918747 -18.142233
37.836491 -5.847726 -24.918547
38.456417 -5.997899 -26.805813
38.974255 -6.348927 -28.706306
39.113323 -10.54634 -26.389301
39.227375 -8.816063 -28.346569
39.319401 -6.840602 -30.329134
39.590675 -7.554633 -32.113312
39.769859 -8.52382 -33.60651
39.923439 -9.634252 -35.009007
38.720242 -20.289082 -24.252766
38.937119 -18.775337 -26.243244
39.158726 -17.341446 -28.185211
38.852261 -21.295588 -28.264751
39.1623 -18.597694 -29.313904
39.409534 -15.68781 -30.211329
39.639648 -14.311999 -32.155441
39.869686 -12.600834 -34.179588
40.065716 -11.054496 -36.186119
40.213413 -12.742361 -37.295944
34.514442 -37.803661 -12.320129
34.495388 -37.951038 -13.650172
34.087154 -39.26313 -12.117823
33.60141 -41.046379 -11.848516
33.135853 -42.89138 -11.677826
32.630596 -43.946789 -7.961556
32.605293 -44.3512 -9.710897
32.696949 -44.722195 -11.491427
32.227291 -46.811134 -11.371207
31.746944 -48.918152 -11.237309
31.255428 -51.096436 -11.331319
30.32128 -52.11837 -7.050738
30.457748 -52.737713 -9.148277
30.719194 -53.261513 -11.41512
38.088314 -32.346115 -0.037897
37.368633 -35.119251 3.241225
37.503803 -34.166 0.746045
37.562366 -33.219868 -1.877612
36.964138 -34.175575 -3.550979
36.419319 -34.951241 -5.137424
35.915268 -35.541737 -6.928796
34.978313 -38.559555 -3.922264
35.228966 -37.324131 -6.283697
35.391304 -36.291389 -8.468713
34.984364 -36.935394 -9.759226
34.705364 -37.381546 -11.111433
34.970646 -36.355473 -12.860964
38.23177 -11.478628 -20.787504
38.197777 -13.28347 -18.66684
38.628239 -13.674539 -20.47822
38.853249 -15.77449 -20.255489
38.897976 -18.032892 -19.79837
38.777336 -20.388376 -19.383179
38.621288 -19.999729 -11.913419
38.826336 -23.29183 -9.343863
38.791271 -21.965832 -11.579908
38.774078 -20.583303 -13.754495
38.791397 -21.232306 -15.551147
38.715446 -21.67263 -17.253586
38.53072 -22.578989 -18.67268
38.152603 -24.816299 -17.992172
37.689419 -27.004026 -17.164463
37.15218 -29.136955 -16.314533
37.394699 -29.52298 -12.895824
36.975624 -30.286966 -14.315654
36.594162 -31.123703 -15.45218
36.026207 -33.028038 -14.495897
35.481094 -34.772797 -13.564829
34.648949 -37.799778 -15.182579
34.890781 -37.580521 -16.762087
35.247875 -37.25861 -18.556471
34.361252 -41.017754 -17.183666
35.026573 -38.991577 -18.824459
35.721539 -36.70295 -20.473467
36.185459 -36.318611 -22.300154
36.74234 -35.716465 -24.346094
32.927887 -49.832092 -17.704081
33.811558 -47.757442 -19.560122
34.781052 -45.191364 -21.580708
35.648449 -42.693424 -23.475861
28.077101 24.924236 -47.07983
30.59458 21.821684 -45.383121
29.767454 23.754198 -47.734127
28.678703 25.59798 -49.838909
29.119646 26.027224 -52.463493
29.58095 26.042662 -55.046715
37.16066 -1.762079 -27.041119
37.226337 0.374337 -29.223364
37.232185 2.406663 -31.238033
38.66357 0.13867 -33.247948
38.024361 2.519563 -33.472557
37.194698 4.598034 -33.430904
37.134815 6.796008 -35.798359
37.027355 8.87444 -38.171623
36.726265 11.040267 -40.449669
39.796055 -0.178334 -40.525814
38.22707 8.310385 -42.066349
36.45153 12.931658 -42.768494
36.00407 14.971145 -45.288967
34.608498 18.852898 -50.088833
35.781244 5.254777 -31.307803
35.776587 4.254034 -30.276281
36.282984 5.469327 -32.412028
35.749741 6.28784 -32.35064
35.781244 5.254777 -31.307803
39.565758 -19.645557 -32.663623
39.388832 -20.17991 -31.682901
39.424026 -21.087889 -32.084986
39.720102 -18.981294 -33.651161
39.684908 -18.073315 -33.249077
39.565758 -19.645557 -32.663623
39.900892 -18.231765 -34.749346
39.720102 -18.981294 -33.651161
31.187919 -48.620642 -6.16048
31.496106 -47.628014 -6.365505
31.20554 -48.334528 -5.181696
30.929029 -49.575871 -6.097454
31.219595 -48.869356 -7.281264
31.187919 -48.620642 -6.16048
28.50126 -57.037604 -4.519619
28.532739 -56.548876 -3.353117
28.510659 -57.451611 -5.584077
28.909368 -56.257704 -5.617672
28.50126 -57.037604 -4.519619
28.554808 -57.81961 -6.805
28.510659 -57.451611 -5.584077
37.829367 -34.512383 6.642746
38.114283 -33.657685 6.257499
19.821305 66.397877 -20.340332
20.185128 67.643391 -20.152189
20.32645 66.098778 -19.436377
19.295827 66.551465 -21.164595
19.821305 66.397877 -20.340332
25.173668 26.24046 -44.963864
24.344184 26.748295 -44.566938
26.012638 25.692158 -45.280874
25.557549 26.667727 -46.339594
25.173668 26.24046 -44.963864
38.91506 -25.492985 -30.328365
38.669148 -26.082043 -29.274448
39.096891 -24.042915 -30.911021
38.91506 -25.492985 -30.328365
31.474908 -47.295956 -2.355516
31.832095 -46.346241 -2.568189
31.366833 -47.625794 -3.253145
31.474908 -47.295956 -2.355516
34.029545 -42.081745 2.70335
33.874292 -42.596697 3.905901
33.574918 -43.039457 2.954655
32.674133 16.042529 -39.497246
32.886123 14.96173 -38.311098
33.398838 15.276543 -39.48971
32.456989 17.048455 -40.594103
32.674133 16.042529 -39.497246
32.933241 17.394396 -41.873381
32.203383 18.08551 -41.791626
32.456989 17.048455 -40.594103
37.133485 -33.421025 -24.945834
37.414148 -32.179701 -25.612131
37.152442 -32.493029 -24.599189
18.851672 72.093018 -23.322733
19.064636 73.278801 -23.091825
19.394751 71.942322 -22.334353
39.063617 -26.473358 -1.003556
39.003143 -25.979348 -2.31062
38.891091 -29.195713 -0.019053
38.979216 -28.323795 -0.452073
38.743583 -30.068313 0.374845
38.72031 -29.637645 -1.001272
38.891091 -29.195713 -0.019053
40.293242 -8.647695 -39.463895
40.314604 -10.309383 -38.934178
21.492732 73.066002 -17.735925
21.118614 73.339821 -18.759659
22.13389 70.06084 -16.527417
22.524311 69.677295 -15.554458
23.581126 30.659653 -53.009873
23.368151 30.455762 -51.603615
24.231758 29.903533 -52.061313
23.722645 30.775389 -54.329424
23.581126 30.659653 -53.009873
24.568811 30.223053 -54.832229
23.722645 30.775389 -54.329424
27.220582 28.281183 -55.873498
26.343061 28.957593 -55.558757
27.139294 28.176313 -54.492582
28.085632 27.528603 -56.103454
27.220582 28.281183 -55.873498
37.788843 -6.717472 -23.958533
37.417633 -5.797731 -23.909909
37.369985 -6.667478 -22.949894
29.609599 -53.300554 -3.660451
29.273214 -54.322042 -3.566944
29.924637 -52.596105 -4.834673
29.609599 -53.300554 -3.660451
29.955751 -52.906742 -5.899909
30.290167 -51.807733 -5.985502
29.924637 -52.596105 -4.834673
29.933358 -55.297277 -10.252202
30.380739 -54.444634 -11.399675
30.271813 -54.114157 -10.267647
38.285927 -32.374659 2.367913
38.250891 -32.802717 3.65532
38.061804 -32.804453 1.34152
38.312437 -31.91632 0.988495
38.285927 -32.374659 2.367913
35.292771 -40.111643 6.426607
34.820251 -41.078522 6.775558
36.538158 -37.402567 5.471801
36.119095 -38.33056 5.720731
36.204662 -37.947826 4.447486
36.923471 -36.496355 5.120588
36.538158 -37.402567 5.471801
36.996179 -36.069542 3.71989
37.295925 -35.546064 4.641922
36.923471 -36.496355 5.120588
37.922019 -11.393966 -19.786072
37.941959 -10.494245 -20.809306
38.533311 -20.600621 -9.825506
38.578957 -21.235665 -8.733132
38.661388 -20.762285 -10.79906
38.493212 -19.838065 -10.939864
38.533311 -20.600621 -9.825506
36.667843 -36.873762 -24.579425
36.408327 -36.945303 -23.567032
36.33383 -38.1026 -23.800363
37.015024 -35.429606 -25.364618
36.667843 -36.873762 -24.579425
32.644447 -51.056646 -17.762746
32.415439 -50.936718 -16.618257
34.091816 -47.689676 -20.664427
33.615813 -48.919961 -19.798983
33.896071 -48.852196 -20.903288
35.891571 -42.675214 -24.479521
35.476614 -43.982903 -23.639142
36.033943 -41.42799 -24.326431
35.891571 -42.675214 -24.479521
28.147791 23.61811 -44.752029
28.526163 22.618601 -43.656971
28.534391 23.981727 -46.035474
27.6905 24.560619 -45.796385
28.147791 23.61811 -44.752029
30.344607 25.203494 -55.150583
30.195919 25.225613 -53.922428
30.959575 24.386445 -54.026297
29.650277 25.990228 -56.299248
30.344607 25.203494 -55.150583
37.526174 -2.777624 -27.013462
37.118817 -2.833689 -25.935671
37.484331 -3.849234 -25.908015
40.103875 -4.637604 -39.642882
40.197451 -5.3397 -40.346233
39.757033 0.757078 -41.732019
39.908749 -0.765575 -41.387411
39.616736 1.312507 -40.885699
39.757033 0.757078 -41.732019
38.450605 7.984739 -43.104836
38.558714 7.056631 -41.932153
36.759977 12.807503 -43.879799
36.948463 11.83158 -42.697357
36.536247 13.827246 -45.140035
36.2278 13.951401 -44.02873
36.759977 12.807503 -43.879799
35.19014 17.802174 -50.103333
35.009046 17.893052 -48.941941
21.144904 67.012215 -18.380439
20.917248 68.547818 -19.058169
21.371879 68.215741 -18.190373
20.818579 65.817059 -18.608546
21.144904 67.012215 -18.380439
20.32645 66.098778 -19.436377
20.818579 65.817059 -18.608546
38.2151 -28.07466 -27.655938
37.959017 -29.541773 -26.992631
32.362109 -45.025168 -1.799529
32.573321 -44.617529 -0.849805
33.319201 -43.426781 1.976203
33.574918 -43.039457 2.954655
33.058514 -43.797915 0.955585
33.469484 -42.89564 0.731487
33.319201 -43.426781 1.976203
32.799308 -44.238173 0.005952
33.058514 -43.797915 0.955585
32.649025 -44.769314 1.250668
32.573321 -44.617529 -0.849805
32.982809 -43.64613 -1.144888
32.799308 -44.238173 0.005952
34.242055 13.41991 -38.326031
33.687789 13.126307 -37.059429
34.319017 12.350472 -37.081897
18.618552 70.797234 -23.490512
18.89067 69.464901 -22.688799
35.236124 7.226842 -32.480054
34.684755 8.099699 -32.621428
35.737864 7.441393 -33.584278
35.236124 7.226842 -32.480054
35.749741 6.28784 -32.35064
22.22646 72.222511 -15.64145
21.883608 72.705574 -16.709463
22.576425 70.711185 -15.103461
22.22646 72.222511 -15.64145
22.524311 69.677295 -15.554458
22.576425 70.711185 -15.103461
24.677225 28.820379 -49.690984
23.777166 29.405716 -49.296089
24.435608 28.526453 -48.332018
39.985963 -16.697882 -35.305056
40.065664 -15.11288 -35.843197
39.918953 -15.82405 -34.774755
39.985963 -16.697882 -35.305056
39.900892 -18.231765 -34.749346
28.928088 -55.396334 -3.469011
28.532739 -56.548876 -3.353117
29.245095 -54.769405 -4.651147
29.273214 -54.322042 -3.566944
28.928088 -55.396334 -3.469011
28.993963 -57.030978 -7.882586
29.446795 -56.178522 -9.101609
29.3716 -55.819256 -7.901152
28.993963 -57.030978 -7.882586
28.554808 -57.81961 -6.805
38.174854 -33.278009 4.967678
38.114283 -33.657685 6.257499
37.959257 -33.738083 4.033296
38.250891 -32.802717 3.65532
38.174854 -33.278009 4.967678
38.213648 -15.784062 -15.571545
37.925007 -14.855674 -15.628633
37.933588 -15.60822 -14.630119
38.735455 -22.150499 -8.462848
38.578957 -21.235665 -8.733132
36.211025 -39.259241 -23.890949
36.33383 -38.1026 -23.800363
35.95151 -39.330782 -22.878556
34.118482 -48.896255 -21.939035
33.896071 -48.852196 -20.903288
29.336422 22.02655 -43.812192
28.526163 22.618601 -43.656971
31.714549 23.500045 -54.055073
30.959575 24.386445 -54.026297
31.565862 23.522163 -52.826918
20.079762 72.923348 -21.159497
19.736949 74.29644 -21.755972
20.208996 74.091683 -20.812024
19.139769 68.057877 -21.934241
18.89067 69.464901 -22.688799
19.430885 69.349514 -21.810704
19.139769 68.057877 -21.934241
19.295827 66.551465 -21.164595
36.291853 3.395248 -30.278839
35.776587 4.254034 -30.276281
23.905036 27.741662 -45.622292
24.344184 26.748295 -44.566938
24.127063 28.16391 -46.979852
23.905036 27.741662 -45.622292
25.027123 27.578573 -47.374748
24.435608 28.526453 -48.332018
24.127063 28.16391 -46.979852
38.443771 -26.710527 -28.263365
38.212723 -27.18698 -27.28756
38.2151 -28.07466 -27.655938
38.666771 -25.194364 -28.90607
38.443771 -26.710527 -28.263365
38.669148 -26.082043 -29.274448
39.274369 -22.571095 -31.504576
39.069624 -23.094061 -30.510708
39.096891 -24.042915 -30.911021
39.424026 -21.087889 -32.084986
39.274369 -22.571095 -31.504576
32.184866 -45.361942 -2.720345
32.579578 -44.362261 -2.921461
32.362109 -45.025168 -1.799529
32.049565 -45.683335 -3.690121
32.184866 -45.361942 -2.720345
31.832095 -46.346241 -2.568189
31.2753 -47.962927 -4.177523
31.60526 -47.004767 -4.462343
31.366833 -47.625794 -3.253145
31.20554 -48.334528 -5.181696
31.2753 -47.962927 -4.177523
34.535061 -41.537211 5.737051
34.820251 -41.078522 6.775558
34.214455 -42.035339 4.817844
33.874292 -42.596697 3.905901
34.649524 -41.140856 4.573803
34.535061 -41.537211 5.737051
34.214455 -42.035339 4.817844
37.962052 -16.406182 -13.53094
37.933588 -15.60822 -14.630119
38.234717 -17.307659 -13.394637
37.962052 -16.406182 -13.53094
38.418618 -18.285064 -13.230125
38.40613 -17.514012 -14.40852
38.234717 -17.307659 -13.394637
38.911857 -25.173605 -5.805997
38.874788 -24.275481 -5.994777
38.907431 -24.905221 -4.805076
33.032501 13.896207 -37.146913
33.687789 13.126307 -37.059429
33.032501 13.896207 -37.146913
32.886123 14.96173 -38.311098
31.500896 18.734661 -41.69673
30.72343 19.345643 -41.562454
31.977148 19.080601 -42.976007
31.500896 18.734661 -41.69673
32.203383 18.08551 -41.791626
37.683544 -30.892069 -26.285308
37.959017 -29.541773 -26.992631
37.708578 -29.901409 -25.972809
37.683544 -30.892069 -26.285308
37.414148 -32.179701 -25.612131
19.209423 74.420017 -22.832472
19.736949 74.29644 -21.755972
19.209423 74.420017 -22.832472
19.064636 73.278801 -23.091825
18.851672 72.093018 -23.322733
18.618552 70.797234 -23.490512
38.962027 -25.437531 -3.626633
38.907431 -24.905221 -4.805076
38.985616 -26.345161 -3.300282
38.962027 -25.437531 -3.626633
39.003143 -25.979348 -2.31062
39.058673 -27.384761 -0.746623
39.063617 -26.473358 -1.003556
38.947275 -27.826011 -1.68972
39.058673 -27.384761 -0.746623
38.979216 -28.323795 -0.452073
31.745566 -51.768169 -14.505954
31.279559 -52.720394 -13.520176
34.631134 9.169749 -33.725584
34.684755 8.099699 -32.621428
34.559204 10.253376 -34.875837
34.631134 9.169749 -33.725584
35.152317 9.464021 -34.863945
34.422569 11.302258 -35.914747
34.559204 10.253376 -34.875837
34.976835 11.595862 -37.181348
34.319017 12.350472 -37.081897
34.422569 11.302258 -35.914747
40.260746 -6.997501 -39.898939
40.20399 -7.864111 -38.774918
40.293242 -8.647695 -39.463895
40.197451 -5.3397 -40.346233
40.260746 -6.997501 -39.898939
20.657675 73.739743 -19.796317
20.208996 74.091683 -20.812024
21.012747 72.318669 -19.178891
20.657675 73.739743 -19.796317
21.118614 73.339821 -18.759659
21.864562 71.558319 -17.11577
21.492732 73.066002 -17.735925
21.883608 72.705574 -16.709463
21.743013 70.421268 -17.553879
21.864562 71.558319 -17.11577
22.13389 70.06084 -16.527417
21.578281 69.337567 -17.916814
21.308954 70.835045 -18.505168
21.743013 70.421268 -17.553879
21.371879 68.215741 -18.190373
21.578281 69.337567 -17.916814
23.229739 30.213773 -50.266072
23.777166 29.405716 -49.296089
23.229739 30.213773 -50.266072
23.368151 30.455762 -51.603615
25.477332 29.595702 -55.187365
24.568811 30.223053 -54.832229
25.353254 29.480073 -53.822706
25.477332 29.595702 -55.187365
26.343061 28.957593 -55.558757
37.456732 -4.876512 -24.874385
37.417633 -5.797731 -23.909909
37.86409 -4.820448 -25.952177
37.484331 -3.849234 -25.908015
37.456732 -4.876512 -24.874385
40.303068 -11.923411 -38.412212
40.314604 -10.309383 -38.934178
40.224949 -11.128333 -37.817909
40.173044 -14.364536 -36.834721
40.106033 -13.490704 -36.30442
40.065664 -15.11288 -35.843197
40.284714 -13.608918 -37.855533
40.173044 -14.364536 -36.834721
40.303068 -11.923411 -38.412212
40.284714 -13.608918 -37.855533
30.609879 -50.660841 -6.069252
30.929029 -49.575871 -6.097454
30.640993 -50.971477 -7.134488
30.609879 -50.660841 -6.069252
30.290167 -51.807733 -5.985502
30.845086 -53.603653 -12.487998
31.279559 -52.720394 -13.520176
31.153667 -52.378254 -12.447298
30.845086 -53.603653 -12.487998
30.380739 -54.444634 -11.399675
29.933358 -55.297277 -10.252202
29.446795 -56.178522 -9.101609
38.554682 -30.998386 0.703758
38.743583 -30.068313 0.374845
38.330558 -31.42818 -0.322635
38.554682 -30.998386 0.703758
38.312437 -31.91632 0.988495
35.700504 -39.228189 6.028311
35.292771 -40.111643 6.426607
35.377865 -39.759273 5.094712
35.700504 -39.228189 6.028311
36.119095 -38.33056 5.720731
37.553219 -35.093126 5.694138
37.829367 -34.512383 6.642746
37.625927 -34.666313 4.29344
37.553219 -35.093126 5.694138
37.295925 -35.546064 4.641922
37.346985 -7.619597 -21.958827
37.369985 -6.667478 -22.949894
37.696673 -8.54854 -21.914813
37.346985 -7.619597 -21.958827
37.968052 -9.634873 -21.769991
38.012575 -8.67355 -22.853696
37.696673 -8.54854 -21.914813
38.257863 -10.619255 -21.748189
37.968052 -9.634873 -21.769991
37.941959 -10.494245 -20.809306
37.934977 -14.094233 -16.669731
37.925007 -14.855674 -15.628633
37.931331 -13.220209 -17.718122
37.934977 -14.094233 -16.669731
38.201422 -14.157493 -17.61845
37.905022 -12.296387 -18.725741
37.931331 -13.220209 -17.718122
38.214773 -12.381049 -19.727172
37.922019 -11.393966 -19.786072
37.905022 -12.296387 -18.725741
38.434246 -19.03922 -12.06483
38.493212 -19.838065 -10.939864
38.60566 -19.245573 -13.078714
38.418618 -18.285064 -13.230125
38.434246 -19.03922 -12.06483
38.824318 -23.660011 -7.118346
38.874788 -24.275481 -5.994777
38.797878 -23.033994 -8.292429
38.824318 -23.660011 -7.118346
38.852775 -23.917848 -8.16978
38.763912 -22.408335 -9.514283
38.735455 -22.150499 -8.462848
38.797878 -23.033994 -8.292429
37.068765 -34.412081 -25.152435
37.133485 -33.421025 -24.945834
36.80706 -34.725409 -24.139493
37.068765 -34.412081 -25.152435
37.015024 -35.429606 -25.364618
32.195713 -50.79254 -15.540776
32.038287 -50.519366 -14.514298
31.745566 -51.768169 -14.505954
32.70816 -49.687914 -16.626601
32.195713 -50.79254 -15.540776
32.415439 -50.936718 -16.618257
33.173977 -49.957287 -18.870962
32.644447 -51.056646 -17.762746
33.369722 -48.794767 -18.632101
33.173977 -49.957287 -18.870962
33.615813 -48.919961 -19.798983
34.629727 -47.641815 -22.932066
34.118482 -48.896255 -21.939035
34.838426 -46.447146 -22.785578
34.629727 -47.641815 -22.932066
35.042916 -45.231873 -22.691566
34.576563 -46.406637 -21.67472
34.838426 -46.447146 -22.785578
35.214751 -43.942394 -22.528284
35.042916 -45.231873 -22.691566
35.476614 -43.982903 -23.639142
36.124071 -40.32499 -24.073071
35.738577 -41.590423 -23.222501
36.033943 -41.42799 -24.326431
36.211025 -39.259241 -23.890949
36.124071 -40.32499 -24.073071
26.850209 25.158213 -45.584772
26.012638 25.692158 -45.280874
27.23681 25.521831 -46.868218
26.850209 25.158213 -45.584772
27.6905 24.560619 -45.796385
30.477912 20.371817 -42.757188
30.72343 19.345643 -41.562454
30.137871 21.417783 -44.008194
30.477912 20.371817 -42.757188
30.934621 20.775718 -44.132116
29.793131 22.430452 -45.18712
29.336422 22.02655 -43.812192
30.137871 21.417783 -44.008194
28.8677 26.799983 -56.223151
28.085632 27.528603 -56.103454
28.798883 26.771282 -54.927019
28.8677 26.799983 -56.223151
29.650277 25.990228 -56.299248
36.658592 -1.865523 -25.930566
37.118817 -2.833689 -25.935671
36.716556 -0.808661 -27.043819
36.658592 -1.865523 -25.930566
36.749395 0.259547 -28.134942
36.716556 -0.808661 -27.043819
37.193499 -0.693871 -28.132241
36.747777 1.364285 -29.205926
36.749395 0.259547 -28.134942
36.750702 2.380448 -30.213261
36.747777 1.364285 -29.205926
37.229261 1.3905 -30.230699
36.773336 3.421463 -31.303612
36.291853 3.395248 -30.278839
36.750702 2.380448 -30.213261
40.014494 -4.067266 -38.931288
40.082114 -5.643579 -38.498368
40.103875 -4.637604 -39.642882
39.919147 -2.5164 -39.23095
39.897386 -3.522376 -38.086436
40.014494 -4.067266 -38.931288
39.916155 -1.619812 -40.300808
39.908749 -0.765575 -41.387411
39.799048 -1.074922 -39.455956
39.919147 -2.5164 -39.23095
39.916155 -1.619812 -40.300808
39.469665 1.854654 -40.087547
39.648985 0.363812 -39.727663
39.616736 1.312507 -40.885699
39.247108 3.228858 -40.321011
39.279358 2.280163 -39.162976
39.469665 1.854654 -40.087547
38.973579 4.728623 -40.597199
39.247108 3.228858 -40.321011
38.673105 6.029006 -40.795192
38.756327 4.95475 -39.594433
38.973579 4.728623 -40.597199
38.341461 7.282759 -40.929388
38.673105 6.029006 -40.795192
38.558714 7.056631 -41.932153
38.08552 9.292206 -43.337834
38.450605 7.984739 -43.104836
37.836233 9.520944 -42.346285
38.08552 9.292206 -43.337834
37.567169 9.707977 -41.372122
37.958006 8.497418 -41.092186
37.836233 9.520944 -42.346285
37.085831 10.885884 -41.537945
37.207603 9.862359 -40.283846
37.567169 9.707977 -41.372122
36.588898 11.985962 -41.609082
37.085831 10.885884 -41.537945
36.948463 11.83158 -42.697357
36.265457 14.82077 -46.352483
36.536247 13.827246 -45.140035
35.706833 15.952176 -46.542007
36.265457 14.82077 -46.352483
35.109591 16.942735 -46.573086
35.406828 15.961704 -45.320045
35.706833 15.952176 -46.542007
34.757104 17.957096 -47.81703
34.4571 17.966625 -46.595068
35.109591 16.942735 -46.573086
34.356556 18.916942 -48.963922
34.757104 17.957096 -47.81703
35.009046 17.893052 -48.941941
34.796667 18.646553 -51.287309
35.19014 17.802174 -50.103333
34.159264 19.748402 -51.382159
34.796667 18.646553 -51.287309
33.48352 20.782186 -51.536823
33.932755 19.886682 -50.243498
34.159264 19.748402 -51.382159
33.015433 21.639834 -52.765589
32.788923 21.778114 -51.626928
33.48352 20.782186 -51.536823
32.45332 22.516754 -53.998385
33.015433 21.639834 -52.765589
31.714549 23.500045 -54.055073
32.45332 22.516754 -53.998385
3 0 98 96
3 1 102 100
3 4 106 104
3 4 108 106
3 3 111 109
3 5 114 112
3 5 116 114
3 2 119 117
3 6 122 120
3 8 125 123
3 8 127 125
3 9 382 383
3 9 384 386
3 384 129 385
3 384 385 386
3 10 133 131
3 10 135 133
3 11 138 136
3 13 141 139
3 13 143 141
3 7 146 144
3 387 149 388
3 389 388 147
3 387 388 389
3 390 151 391
3 392 391 149
3 390 391 392
3 394 393 151
3 14 154 152
3 395 157 396
3 397 396 155
3 395 396 397
3 398 159 399
3 400 399 157
3 398 399 400
3 401 160 402
3 403 162 404
3 405 404 160
3 403 404 405
3 407 406 162
3 408 163 409
3 16 166 164
3 16 168 166
3 16 170 168
3 14 173 171
3 14 152 173
3 18 177 175
3 18 179 177
3 19 182 180
3 19 184 182
3 19 186 184
3 17 189 187
3 17 191 189
3 15 194 192
3 20 197 195
3 20 199 197
3 21 202 200
3 21 204 202
3 12 207 205
3 22 210 208
3 22 212 210
3 23 215 213
3 25 216 97
3 25 217 216
3 26 220 218
3 410 221 411
3 412 411 99
3 410 411 412
3 414 413 221
3 415 222 416
3 417 223 418
3 419 418 222
3 417 418 419
3 28 226 224
3 30 227 101
3 30 228 227
3 31 231 229
3 420 232 421
3 423 422 232
3 33 235 233
3 424 236 425
3 427 426 236
3 36 428 430
3 428 237 429
3 428 429 430
3 36 238 237
3 36 240 238
3 33 241 103
3 33 233 241
3 38 244 242
3 40 245 105
3 40 246 245
3 40 248 246
3 42 249 107
3 42 250 249
3 43 253 251
3 45 254 110
3 45 255 254
3 46 431 433
3 433 432 113
3 431 432 433
3 46 434 435
3 46 436 438
3 436 257 437
3 436 437 438
3 48 258 115
3 48 259 258
3 49 262 260
3 51 263 118
3 51 264 263
3 52 267 265
3 54 268 121
3 54 269 268
3 24 270 214
3 55 271 124
3 55 272 271
3 55 273 272
3 56 274 126
3 56 439 441
3 441 440 274
3 439 440 441
3 27 442 444
3 444 443 219
3 442 443 444
3 445 275 446
3 447 276 448
3 449 277 450
3 451 450 276
3 449 450 451
3 57 278 128
3 57 279 278
3 453 452 280
3 454 282 455
3 457 456 130
3 58 458 460
3 460 459 132
3 458 459 460
3 58 461 462
3 58 463 464
3 59 465 467
3 467 466 134
3 465 466 467
3 59 468 469
3 60 470 472
3 470 283 471
3 470 471 472
3 62 284 137
3 62 285 284
3 29 286 225
3 63 287 140
3 63 288 287
3 63 289 288
3 64 290 142
3 64 291 290
3 53 292 266
3 65 293 145
3 65 294 293
3 32 295 230
3 66 296 148
3 66 297 296
3 66 298 297
3 67 299 150
3 67 300 299
3 67 301 300
3 68 304 302
3 70 305 153
3 70 306 305
3 34 307 234
3 71 308 156
3 71 309 308
3 71 310 309
3 72 311 158
3 72 312 311
3 73 473 474
3 73 475 476
3 73 477 479
3 477 313 478
3 477 478 479
3 74 314 161
3 74 315 314
3 74 480 482
3 482 481 315
3 480 481 482
3 75 483 484
3 75 485 487
3 485 316 486
3 485 486 487
3 35 488 489
3 76 490 492
3 492 491 165
3 490 491 492
3 76 493 494
3 76 495 497
3 495 317 496
3 495 496 497
3 77 318 167
3 77 319 318
3 77 320 319
3 78 321 169
3 78 322 321
3 37 323 239
3 79 324 172
3 79 325 324
3 79 326 325
3 68 327 174
3 68 302 327
3 498 329 499
3 81 330 176
3 81 331 330
3 81 332 331
3 82 333 178
3 82 334 333
3 83 500 501
3 83 502 504
3 502 335 503
3 502 503 504
3 39 336 243
3 84 337 181
3 84 338 337
3 84 339 338
3 85 340 183
3 85 341 340
3 85 342 341
3 86 343 185
3 86 344 343
3 41 345 247
3 87 346 188
3 87 347 346
3 87 348 347
3 80 349 190
3 80 328 349
3 69 350 303
3 88 351 193
3 88 352 351
3 44 353 252
3 89 354 196
3 89 355 354
3 89 356 355
3 505 357 506
3 507 506 198
3 505 506 507
3 509 508 357
3 510 358 511
3 90 512 514
3 512 359 513
3 512 513 514
3 90 360 359
3 515 361 516
3 518 517 361
3 91 519 520
3 91 521 523
3 521 362 522
3 521 522 523
3 47 363 256
3 92 364 201
3 92 365 364
3 92 366 365
3 524 367 525
3 526 525 203
3 524 525 526
3 528 527 367
3 61 529 531
3 529 368 530
3 529 530 531
3 93 369 206
3 93 370 369
3 50 371 261
3 94 372 209
3 94 373 372
3 94 374 373
3 95 375 211
3 95 376 375
3 533 532 281
3 534 377 535
3 537 536 377
3 538 378 539
3 540 379 541
3 542 380 543
3 544 543 379
3 542 543 544
3 545 381 546
3 96 97 23
3 98 97 96
3 98 25 97
3 547 99 548
3 549 548 26
3 547 548 549
3 550 99 551
3 553 552 99
3 100 101 28
3 102 101 100
3 102 30 101
3 555 554 31
3 557 556 33
3 558 36 559
3 560 103 561
3 562 561 36
3 560 561 562
3 563 103 564
3 563 564 565
3 566 33 567
3 568 567 103
3 566 567 568
3 104 105 38
3 106 105 104
3 106 40 105
3 106 107 40
3 108 107 106
3 108 42 107
3 109 110 43
3 111 110 109
3 111 45 110
3 112 569 571
3 569 113 570
3 569 570 571
3 114 113 112
3 114 46 113
3 114 115 46
3 116 115 114
3 116 48 115
3 117 118 49
3 119 118 117
3 119 51 118
3 120 121 52
3 122 121 120
3 122 54 121
3 123 124 24
3 125 124 123
3 125 55 124
3 125 126 55
3 127 126 125
3 127 56 126
3 573 572 27
3 574 128 575
3 129 576 578
3 576 128 577
3 576 577 578
3 129 57 128
3 579 130 580
3 581 130 582
3 584 583 130
3 131 585 587
3 585 132 586
3 585 586 587
3 133 132 131
3 133 58 132
3 133 134 58
3 135 134 133
3 135 59 134
3 136 137 60
3 138 137 136
3 138 62 137
3 139 140 29
3 141 140 139
3 141 63 140
3 141 142 63
3 143 142 141
3 143 64 142
3 144 145 53
3 146 145 144
3 146 65 145
3 147 148 32
3 149 148 147
3 149 66 148
3 149 150 66
3 151 150 149
3 151 67 150
3 151 588 590
3 590 589 67
3 588 589 590
3 592 591 151
3 152 153 68
3 154 153 152
3 154 70 153
3 155 156 34
3 157 156 155
3 157 71 156
3 157 158 71
3 159 158 157
3 159 72 158
3 160 593 594
3 160 595 597
3 595 73 596
3 595 596 597
3 160 161 73
3 162 161 160
3 162 74 161
3 162 598 600
3 600 599 74
3 598 599 600
3 602 601 162
3 163 603 604
3 163 605 607
3 605 75 606
3 605 606 607
3 164 165 35
3 166 165 164
3 166 76 165
3 166 167 76
3 168 167 166
3 168 77 167
3 168 169 77
3 170 169 168
3 170 78 169
3 171 172 37
3 173 172 171
3 173 79 172
3 173 174 79
3 152 174 173
3 152 68 174
3 175 608 610
3 608 176 609
3 608 609 610
3 177 176 175
3 177 81 176
3 177 178 81
3 179 178 177
3 179 82 178
3 611 83 612
3 180 181 39
3 182 181 180
3 182 84 181
3 182 183 84
3 184 183 182
3 184 85 183
3 184 185 85
3 186 185 184
3 186 86 185
3 187 188 41
3 189 188 187
3 189 87 188
3 189 190 87
3 191 190 189
3 191 80 190
3 192 193 69
3 194 193 192
3 194 88 193
3 195 196 44
3 197 196 195
3 197 89 196
3 197 198 89
3 199 198 197
3 199 613 615
3 615 614 198
3 613 614 615
3 616 90 617
3 618 91 619
3 200 201 47
3 202 201 200
3 202 92 201
3 202 203 92
3 204 203 202
3 204 620 622
3 622 621 203
3 620 621 622
3 205 206 61
3 207 206 205
3 207 93 206
3 208 209 50
3 210 209 208
3 210 94 209
3 210 211 94
3 212 211 210
3 212 95 211
3 213 214 6
3 215 214 213
3 215 24 214
3 97 215 23
3 216 215 97
3 216 24 215
3 216 123 24
3 217 123 216
3 217 8 123
3 218 623 625
3 623 219 624
3 623 624 625
3 220 219 218
3 220 27 219
3 99 220 26
3 221 220 99
3 221 27 220
3 221 626 628
3 628 627 27
3 626 627 628
3 630 629 221
3 631 9 632
3 222 633 634
3 222 635 636
3 222 637 639
3 637 131 638
3 637 638 639
3 223 131 222
3 223 10 131
3 224 225 11
3 226 225 224
3 226 29 225
3 101 226 28
3 227 226 101
3 227 29 226
3 227 139 29
3 228 139 227
3 228 13 139
3 229 230 7
3 231 230 229
3 231 32 230
3 640 231 641
3 642 641 31
3 640 641 642
3 232 643 645
3 643 231 644
3 643 644 645
3 232 32 231
3 232 147 32
3 646 147 647
3 648 647 232
3 646 647 648
3 650 649 147
3 233 234 14
3 235 234 233
3 235 34 234
3 651 235 652
3 653 652 33
3 651 652 653
3 236 654 656
3 654 235 655
3 654 655 656
3 236 34 235
3 236 155 34
3 657 155 658
3 659 658 236
3 657 658 659
3 661 660 155
3 662 35 663
3 237 664 665
3 237 666 668
3 666 35 667
3 666 667 668
3 237 164 35
3 238 164 237
3 238 16 164
3 238 239 16
3 240 239 238
3 240 37 239
3 103 240 36
3 241 240 103
3 241 37 240
3 241 171 37
3 233 171 241
3 233 14 171
3 669 175 670
3 671 175 672
3 673 18 674
3 675 674 175
3 673 674 675
3 242 676 678
3 676 243 677
3 676 677 678
3 244 243 242
3 244 39 243
3 105 244 38
3 245 244 105
3 245 39 244
3 245 180 39
3 246 180 245
3 246 19 180
3 246 247 19
3 248 247 246
3 248 41 247
3 107 248 40
3 249 248 107
3 249 41 248
3 249 187 41
3 250 187 249
3 250 17 187
3 251 252 15
3 253 252 251
3 253 44 252
3 110 253 43
3 254 253 110
3 254 44 253
3 254 195 44
3 255 195 254
3 255 20 195
3 113 679 680
3 682 681 113
3 683 256 684
3 257 685 687
3 685 256 686
3 685 686 687
3 257 47 256
3 115 257 46
3 258 257 115
3 258 47 257
3 258 200 47
3 259 200 258
3 259 21 200
3 260 261 12
3 262 261 260
3 262 50 261
3 118 262 49
3 263 262 118
3 263 50 262
3 263 208 50
3 264 208 263
3 264 22 208
3 265 266 1
3 267 266 265
3 267 53 266
3 121 267 52
3 268 267 121
3 268 53 267
3 268 144 53
3 269 144 268
3 269 7 144
3 214 122 6
3 270 122 214
3 270 54 122
3 124 270 24
3 271 270 124
3 271 54 270
3 271 269 54
3 272 269 271
3 272 7 269
3 272 229 7
3 273 229 272
3 273 31 229
3 126 273 55
3 274 273 126
3 274 31 273
3 274 688 690
3 690 689 31
3 688 689 690
3 692 691 274
3 219 693 694
3 696 695 219
3 698 697 27
3 699 242 700
3 275 701 703
3 701 242 702
3 701 702 703
3 275 38 242
3 704 275 705
3 276 706 708
3 706 275 707
3 706 707 708
3 276 38 275
3 276 104 38
3 277 104 276
3 277 4 104
3 710 709 3
3 128 711 712
3 278 713 715
3 715 714 128
3 713 714 715
3 278 716 717
3 278 718 720
3 718 112 719
3 718 719 720
3 279 112 278
3 279 5 112
3 280 281 2
3 721 281 722
3 723 722 280
3 721 722 723
3 725 724 281
3 726 218 727
3 282 728 730
3 728 218 729
3 728 729 730
3 282 26 218
3 130 731 733
3 731 282 732
3 731 732 733
3 734 282 735
3 736 735 130
3 734 735 736
3 737 26 738
3 739 738 282
3 737 738 739
3 741 740 26
3 132 742 743
3 745 744 132
3 134 746 748
3 748 747 58
3 746 747 748
3 750 749 134
3 283 751 752
3 283 753 755
3 753 61 754
3 753 754 755
3 137 283 60
3 284 283 137
3 284 61 283
3 284 205 61
3 285 205 284
3 285 12 205
3 225 138 11
3 286 138 225
3 286 62 138
3 140 286 29
3 287 286 140
3 287 62 286
3 287 285 62
3 288 285 287
3 288 12 285
3 288 260 12
3 289 260 288
3 289 49 260
3 142 289 63
3 290 289 142
3 290 49 289
3 290 117 49
3 291 117 290
3 291 2 117
3 266 102 1
3 292 102 266
3 292 30 102
3 145 292 53
3 293 292 145
3 293 30 292
3 293 228 30
3 294 228 293
3 294 13 228
3 230 146 7
3 295 146 230
3 295 65 146
3 148 295 32
3 296 295 148
3 296 65 295
3 296 294 65
3 297 294 296
3 297 13 294
3 297 143 13
3 298 143 297
3 298 64 143
3 150 298 66
3 299 298 150
3 299 64 298
3 299 291 64
3 300 291 299
3 300 2 291
3 300 280 2
3 301 280 300
3 301 756 758
3 758 757 280
3 756 757 758
3 759 301 760
3 761 760 67
3 759 760 761
3 762 301 763
3 765 764 301
3 302 303 0
3 304 303 302
3 304 69 303
3 153 304 68
3 305 304 153
3 305 69 304
3 305 192 69
3 306 192 305
3 306 15 192
3 234 154 14
3 307 154 234
3 307 70 154
3 156 307 34
3 308 307 156
3 308 70 307
3 308 306 70
3 309 306 308
3 309 15 306
3 309 251 15
3 310 251 309
3 310 43 251
3 158 310 71
3 311 310 158
3 311 43 310
3 311 109 43
3 312 109 311
3 312 3 109
3 766 159 767
3 313 768 770
3 768 159 769
3 768 769 770
3 313 72 159
3 161 313 73
3 314 313 161
3 314 72 313
3 314 312 72
3 315 312 314
3 315 3 312
3 315 771 773
3 773 772 3
3 771 772 773
3 775 774 315
3 777 776 74
3 778 277 779
3 316 780 782
3 780 277 781
3 780 781 782
3 316 4 277
3 165 783 785
3 785 784 35
3 783 784 785
3 787 786 165
3 788 163 789
3 317 790 792
3 790 163 791
3 790 791 792
3 317 75 163
3 167 317 76
3 318 317 167
3 318 75 317
3 318 316 75
3 319 316 318
3 319 4 316
3 319 108 4
3 320 108 319
3 320 42 108
3 169 320 77
3 321 320 169
3 321 42 320
3 321 250 42
3 322 250 321
3 322 17 250
3 239 170 16
3 323 170 239
3 323 78 170
3 172 323 37
3 324 323 172
3 324 78 323
3 324 322 78
3 325 322 324
3 325 17 322
3 325 191 17
3 326 191 325
3 326 80 191
3 174 326 79
3 327 326 174
3 327 80 326
3 327 328 80
3 302 328 327
3 302 0 328
3 793 60 794
3 795 60 796
3 797 136 798
3 799 798 60
3 797 798 799
3 329 800 802
3 800 136 801
3 800 801 802
3 329 11 136
3 176 803 804
3 330 805 807
3 807 806 176
3 805 806 807
3 330 808 809
3 330 810 812
3 810 329 811
3 810 811 812
3 331 329 330
3 331 11 329
3 331 224 11
3 332 224 331
3 332 28 224
3 178 332 81
3 333 332 178
3 333 28 332
3 333 100 28
3 334 100 333
3 334 1 100
3 335 813 814
3 335 815 817
3 815 18 816
3 815 816 817
3 243 818 819
3 336 820 822
3 822 821 243
3 820 821 822
3 336 823 825
3 823 83 824
3 823 824 825
3 181 336 39
3 337 336 181
3 337 83 336
3 337 335 83
3 338 335 337
3 338 18 335
3 338 179 18
3 339 179 338
3 339 82 179
3 183 339 84
3 340 339 183
3 340 82 339
3 340 334 82
3 341 334 340
3 341 1 334
3 341 265 1
3 342 265 341
3 342 52 265
3 185 342 85
3 343 342 185
3 343 52 342
3 343 120 52
3 344 120 343
3 344 6 120
3 247 186 19
3 345 186 247
3 345 86 186
3 188 345 41
3 346 345 188
3 346 86 345
3 346 344 86
3 347 344 346
3 347 6 344
3 347 213 6
3 348 213 347
3 348 23 213
3 190 348 87
3 349 348 190
3 349 23 348
3 349 96 23
3 328 96 349
3 328 0 96
3 303 98 0
3 350 98 303
3 350 25 98
3 193 350 69
3 351 350 193
3 351 25 350
3 351 217 25
3 352 217 351
3 352 8 217
3 252 194 15
3 353 194 252
3 353 88 194
3 196 353 44
3 354 353 196
3 354 88 353
3 354 352 88
3 355 352 354
3 355 8 352
3 355 127 8
3 356 127 355
3 356 56 127
3 198 356 89
3 357 356 198
3 357 56 356
3 357 826 828
3 828 827 56
3 826 827 828
3 830 829 357
3 831 111 832
3 833 832 3
3 831 832 833
3 358 834 836
3 834 111 835
3 834 835 836
3 358 45 111
3 837 358 838
3 359 839 841
3 839 358 840
3 839 840 841
3 359 45 358
3 359 255 45
3 360 255 359
3 360 20 255
3 842 90 843
3 844 90 845
3 846 360 847
3 848 847 90
3 846 847 848
3 361 849 851
3 849 360 850
3 849 850 851
3 361 20 360
3 361 199 20
3 852 199 853
3 854 853 361
3 852 853 854
3 856 855 199
3 857 223 858
3 362 859 861
3 859 223 860
3 859 860 861
3 362 10 223
3 256 862 863
3 363 864 866
3 866 865 256
3 864 865 866
3 363 867 869
3 867 91 868
3 867 868 869
3 201 363 47
3 364 363 201
3 364 91 363
3 364 362 91
3 365 362 364
3 365 10 362
3 365 135 10
3 366 135 365
3 366 59 135
3 203 366 92
3 367 366 203
3 367 59 366
3 367 870 872
3 872 871 59
3 870 871 872
3 874 873 367
3 368 875 876
3 368 877 878
3 206 368 61
3 369 368 206
3 369 879 881
3 881 880 368
3 879 880 881
3 369 882 883
3 370 884 886
3 886 885 369
3 884 885 886
3 370 887 889
3 887 9 888
3 887 888 889
3 261 207 12
3 371 207 261
3 371 93 207
3 209 371 50
3 372 371 209
3 372 93 371
3 372 370 93
3 373 370 372
3 373 9 370
3 373 129 9
3 374 129 373
3 374 57 129
3 211 374 94
3 375 374 211
3 375 57 374
3 375 279 57
3 376 279 375
3 376 5 279
3 281 119 2
3 890 119 891
3 892 891 281
3 890 891 892
3 893 51 894
3 895 894 119
3 893 894 895
3 377 896 897
3 377 898 900
3 898 51 899
3 898 899 900
3 377 264 51
3 901 264 902
3 903 902 377
3 901 902 903
3 904 22 905
3 906 905 264
3 904 905 906
3 907 22 908
3 909 212 910
3 911 910 22
3 909 910 911
3 378 912 914
3 912 212 913
3 912 913 914
3 378 95 212
3 915 378 916
3 917 378 918
3 919 95 920
3 921 920 378
3 919 920 921
3 922 376 923
3 924 923 95
3 922 923 924
3 379 925 927
3 925 376 926
3 925 926 927
3 379 5 376
3 379 116 5
3 380 116 379
3 380 48 116
3 928 380 929
3 930 380 931
3 932 48 933
3 934 933 380
3 932 933 934
3 935 259 936
3 937 936 48
3 935 936 937
3 381 938 940
3 938 259 939
3 938 939 940
3 381 21 259
3 941 381 942
3 943 381 944
3 945 21 946
3 947 946 381
3 945 946 947
3 948 204 949
3 950 949 21
3 948 949 950
3 951 204 952
3 954 953 204
