ply
format ascii 1.0
element vertex 814
property float x
property float y
property float z
element face 1020
property list uchar int vertex_index
end_header
-6.843683 -10.74527 -62.383541
-5.613364 29.445332 -65.26532
-18.978903 31.235666 -55.964214
-6.289782 11.187957 -70.022224
-20.897701 21.215652 -70.901268
-19.28055 -4.713273 -67.623161
-12.573693 32.623173 -62.722458
-12.739565 26.946716 -70.018173
-12.750035 17.574854 -72.861137
-5.624463 21.40056 -69.535439
-24.41132 -18.04439 -62.186375
-27.743507 -2.764247 -66.39164
-22.979025 26.330202 -46.457176
-12.158587 36.035004 -53.208157
-6.081343 35.838528 -58.220505
-0.987009 12.81214 -64.922813
-2.159414 2.618351 -63.907612
-6.76012 -0.361538 -66.780869
-20.565809 9.297992 -71.403191
-12.801277 5.704574 -70.912178
-11.925368 -7.628088 -65.659599
-16.433535 -19.774059 -61.522663
-9.220489 -20.672253 -59.134983
-9.004798 31.590166 -64.582909
-12.680813 30.251247 -66.763519
-8.919678 28.421505 -68.008133
-8.889956 24.448641 -70.466385
-5.532343 25.623814 -67.884689
-30.212141 -9.875698 -63.182724
-9.223415 36.421833 -56.267651
-0.463821 17.815088 -64.416985
-2.571131 -2.880743 -62.286884
-21.283123 29.123161 -51.259705
-20.777428 25.31465 -68.741577
-24.86203 21.43977 -68.166527
-24.942505 16.708841 -69.745407
-24.782305 10.607401 -70.088676
-20.953468 15.600555 -71.806412
-9.186964 14.850807 -71.942596
-12.944426 11.835321 -72.415161
-9.500757 9.080718 -71.096199
-9.549664 2.792621 -69.19696
-6.547618 5.488169 -68.749542
-22.206392 -11.181579 -65.077896
-20.270281 -19.060766 -62.11871
-18.115826 -12.154461 -64.759903
-14.323195 -13.193902 -63.818836
-15.345226 -6.105977 -66.933212
-15.863613 32.509529 -59.865494
-19.703669 30.309891 -61.035988
-16.276468 30.807854 -64.501144
-16.513315 28.152 -68.402946
-16.713011 24.523634 -71.052628
-16.780558 19.832895 -72.539192
-12.681582 22.662584 -72.072296
-9.006163 19.921186 -71.754951
-5.983762 16.48016 -70.338943
-26.252541 -25.218819 -58.987484
-28.516043 -17.599463 -61.26619
-26.329346 -10.377151 -64.576042
-23.558575 -3.571368 -67.490562
-19.582142 29.372225 -46.121399
-17.705412 31.926714 -50.551952
-14.527227 34.722736 -49.632317
-15.367661 33.638031 -54.621101
-12.458892 34.373253 -58.26487
-9.267519 34.117668 -60.625797
-5.706524 32.66906 -62.033184
-2.821368 34.313457 -59.129707
-2.597654 30.445036 -62.140545
-2.496759 26.193531 -64.757339
-2.671069 21.888338 -66.625435
-3.087924 17.303749 -67.769585
-3.384457 12.300944 -67.818115
0.390806 8.129424 -61.821903
-1.609417 7.86278 -64.809166
-3.849951 7.092825 -67.180244
-4.326312 1.641484 -65.827858
-4.647791 -4.043397 -63.830811
-6.850972 -5.937109 -64.513565
-5.003318 -9.456858 -61.766895
-28.325191 4.519611 -67.584152
-24.343576 3.714571 -69.235764
-20.147524 2.560199 -69.922379
-16.663124 14.06714 -72.714348
-16.402689 7.817577 -71.662331
-16.116163 0.972732 -69.633064
-12.505415 -0.959878 -68.54464
-9.40145 -3.326544 -66.758804
-8.864308 -9.341716 -63.934467
-22.002359 -26.064127 -59.332886
-18.035213 -26.700003 -59.047825
-12.654007 -20.124052 -60.543137
-10.916285 -14.121056 -62.532845
-7.965026 -15.035209 -60.989983
-7.352966 30.672647 -65.084328
-8.943569 29.970074 -66.526947
-7.186428 29.008818 -66.648842
-7.218365 27.17724 -68.096611
-5.5672 27.562731 -66.713638
-20.237146 30.276564 -53.75568
-21.963499 29.052063 -54.040504
-20.753042 30.070211 -56.497902
-20.831488 23.294777 -70.040291
-22.740875 23.56275 -68.607918
-22.989962 21.249847 -69.699112
-25.02536 19.170551 -69.048523
-22.850529 18.905573 -70.552299
-23.041756 16.113386 -70.903435
-20.987654 18.419744 -71.544731
-7.720047 12.925487 -71.105476
-9.328588 11.915546 -71.626671
-7.84172 10.107585 -70.668625
-7.947641 7.299314 -70.019516
-6.479364 8.455018 -69.549652
-20.850338 -7.740684 -66.453651
-20.129206 -11.440189 -65.091812
-18.814537 -8.283052 -66.303543
-16.879663 -8.884597 -65.9729
-17.268307 -5.378385 -67.369377
-14.305949 32.703053 -61.365078
-16.169575 31.733356 -62.217945
-14.411837 31.782902 -63.637661
-12.583318 28.692995 -68.550491
-14.509259 29.236872 -67.777687
-14.554895 27.679468 -69.364845
-16.588095 26.495237 -69.866791
-14.664906 25.786995 -70.714844
-14.770402 23.609974 -71.770592
-12.762739 24.88903 -71.222557
-7.238864 23.039619 -70.159256
-9.054275 22.265598 -71.293602
-7.320583 20.682253 -70.815292
-7.423162 18.23859 -71.174164
-5.83343 18.957813 -70.106903
-29.42889 -21.068325 -59.568817
-30.478306 -17.181093 -60.562317
-29.036316 -6.227584 -64.856422
-28.316509 -10.170425 -63.959351
-27.0546 -6.429511 -65.622925
-25.020178 -6.687931 -66.159187
-25.641911 -3.136526 -67.074348
-18.795174 30.693476 -48.562763
-17.106144 32.194191 -47.972828
-13.444411 35.440586 -51.586628
-15.004953 34.127617 -52.181789
-13.740808 34.762047 -54.135967
-13.98726 34.11198 -56.655563
-12.241705 35.248821 -55.766846
-7.749679 36.2658 -57.319202
-9.220572 35.221821 -58.588303
-7.5314 34.965149 -59.390568
-7.453078 33.576668 -61.430126
-5.860105 34.298153 -60.150463
-2.758374 32.393452 -60.719402
-1.211174 26.769709 -63.08247
-1.18924 24.592184 -64.005333
-2.599216 24.143456 -65.804916
-1.284287 22.210264 -64.881927
-0.799357 15.395554 -64.88855
-1.700467 17.558823 -66.106667
-1.955868 15.301744 -66.439163
-3.24408 14.878356 -67.922302
-2.173439 12.766239 -66.501411
-1.899208 5.343213 -64.478088
-2.774404 7.61376 -66.20031
-2.948537 4.898462 -65.604721
-4.12534 4.507435 -66.653198
-3.156741 2.371137 -64.972229
-2.725143 -5.576911 -61.347202
-3.547963 -3.419249 -63.108742
-3.69354 -6.117154 -62.109001
-4.79875 -6.682404 -62.819904
-3.956782 -8.742924 -61.220646
-24.671541 24.942541 -46.663124
-19.95941 29.574038 -63.234303
-28.569187 8.017735 -67.764694
-22.688829 10.030943 -70.889206
-24.7034 7.211983 -69.747269
-22.533005 6.690963 -70.411728
-22.28476 2.998682 -69.646858
-20.475546 5.874117 -70.726677
-14.757195 18.781399 -72.869324
-16.772387 16.937103 -72.79451
-14.760119 15.918777 -72.938942
-12.932677 8.744529 -71.765381
-14.753386 10.001472 -72.177872
-14.639701 6.671329 -71.360023
-16.474913 4.475962 -70.755508
-14.480613 3.253332 -70.313347
-14.220756 -0.07944 -69.129059
-12.628029 2.313453 -69.775253
-8.030794 1.473084 -68.123993
-9.461782 -0.169651 -68.05896
-8.077904 -1.498571 -66.986488
-8.072165 -4.611405 -65.690643
-6.858318 -3.296299 -65.641991
-25.454462 -21.839111 -60.513168
-24.058987 -25.591228 -59.288456
-23.366238 -22.091843 -60.754662
-18.368309 -19.190048 -61.985489
-19.199406 -22.948847 -60.569042
-17.333475 -23.007454 -60.383163
-16.086992 -26.858742 -58.740253
-15.351362 -23.562218 -59.850536
-13.380198 -23.822151 -59.296257
-14.506966 -20.124405 -61.016026
-13.207275 -10.257468 -64.829948
-12.573621 -13.600041 -63.237255
-11.443507 -10.864321 -64.116325
-9.879335 -11.402729 -63.385937
-10.312817 -8.479524 -64.827156
-8.60975 -17.556103 -60.175407
-10.902794 32.170929 -63.934532
-12.658879 31.53684 -64.807098
-10.763557 30.917862 -65.82135
-10.74777 29.439669 -67.591156
-10.875863 27.769714 -69.153633
-10.822744 25.840139 -70.425613
-9.025895 26.606947 -69.386292
-7.291544 25.264931 -69.272079
-5.583963 23.604103 -68.831749
-31.328016 -13.567881 -61.372128
-29.717655 -2.472282 -65.476662
-10.724831 36.34314 -54.90593
-9.384053 37.478176 -54.012856
-7.769883 37.597733 -55.191444
-6.168692 37.361446 -56.242058
0.031372 13.174026 -63.44976
-1.453385 0.360106 -62.134014
-2.32936 -0.133599 -63.094769
-1.656259 -2.40526 -61.332668
-1.852878 -5.151157 -60.478836
-22.235195 27.778261 -48.901733
-23.992796 26.434523 -49.266933
-23.155521 27.735691 -51.623295
-23.757341 27.741024 -54.203449
-20.49354 27.056665 -67.222649
-22.725697 25.414749 -67.030914
-24.613796 23.479828 -66.959877
-27.013178 16.689646 -68.205818
-26.968262 14.075221 -68.732025
-26.880306 10.843429 -68.953255
-24.968615 13.640576 -70.044861
-22.89757 13.227142 -71.058563
-20.799547 12.735209 -71.771904
-10.96317 16.166597 -72.554253
-12.776244 14.85146 -72.782883
-10.964426 13.311333 -72.31134
-11.168496 10.484849 -71.871552
-11.118714 7.582562 -71.153954
-11.081817 4.42388 -70.18895
-9.447683 6.055997 -70.244644
-8.077204 4.386619 -69.179787
-6.749812 2.59266 -67.890617
-23.431381 -14.408346 -63.723282
-22.408682 -18.642641 -62.200397
-21.362452 -15.036819 -63.668415
-19.437899 -15.444736 -63.522804
-17.294174 -15.708885 -63.261028
-15.353804 -16.356434 -62.709679
-16.104992 -12.574626 -64.382065
-14.95495 -9.628344 -65.432465
-13.579924 -6.851366 -66.35582
-17.565969 31.96435 -58.008965
-19.390017 30.850161 -58.604221
-17.876892 31.420053 -60.425117
-17.992445 30.70216 -62.93919
-18.275803 29.677982 -65.117088
-14.553565 30.61414 -65.822937
-16.411142 29.593161 -66.607941
-18.365227 28.499937 -67.005722
-18.567389 26.958275 -68.649895
-18.786346 25.080633 -70.018089
-18.734224 22.911333 -71.175667
-18.972532 20.394535 -71.899139
-16.817423 22.283651 -71.945541
-14.674154 21.333971 -72.473877
-12.8408 20.125566 -72.656624
-10.803935 23.755224 -71.386749
-10.85291 21.289162 -72.113335
-10.904679 18.936874 -72.469185
-9.256043 17.528887 -72.042122
-7.584242 15.804073 -71.287956
-6.083777 13.911029 -70.266907
-28.270746 -24.859789 -58.510128
-27.459614 -21.389191 -60.172451
-26.497824 -17.80958 -61.830261
-29.3932 -13.737508 -62.304523
-27.584814 -13.895411 -62.954777
-25.499245 -14.247893 -63.412498
-24.261589 -10.543338 -65.013672
-22.861313 -7.270419 -66.39859
-21.472439 -4.083535 -67.673813
-21.240883 27.792826 -46.144302
-20.483887 29.204264 -48.647346
-19.499706 30.512426 -51.083267
-18.436855 31.550161 -53.33345
-16.042601 33.334057 -50.194923
-16.695051 32.820965 -52.737755
-17.137104 32.436069 -55.50111
-15.752689 33.057411 -57.290756
-14.060684 33.48555 -59.088245
-12.59411 33.488411 -60.651485
-10.776276 35.353924 -57.327274
-10.947515 34.379139 -59.522717
-10.877607 33.371216 -61.723644
-9.188635 32.93042 -62.644218
-7.342142 32.189598 -63.275566
-5.643952 31.074911 -63.729546
-4.567989 36.895367 -57.008053
-3.073621 36.194904 -57.552059
-4.419457 35.200489 -58.789108
-4.330753 33.483559 -60.551334
-4.091657 31.703722 -62.163853
-3.984968 29.878252 -63.691528
-1.160645 28.832415 -61.933243
-2.62936 28.3508 -63.631386
-4.028709 27.951927 -65.179375
-3.932946 25.998453 -66.306038
-4.082232 23.895779 -67.427719
-4.097815 21.582096 -68.187332
-1.538482 19.825554 -65.681824
-2.867174 19.597662 -67.308289
-4.281282 19.284397 -68.797287
-4.440201 16.881516 -69.11898
-4.61153 14.455147 -69.199745
-4.791679 11.933802 -69.060951
-0.268046 10.53866 -63.4622
-0.540332 8.111807 -63.317223
-1.367032 10.378379 -65.057365
-2.46372 10.138514 -66.427834
-3.707163 9.821133 -67.704483
-4.981862 9.24739 -68.698387
-5.156879 6.664701 -68.169632
-5.337302 3.764224 -67.390007
-5.567104 0.854044 -66.502876
-3.37309 -0.467366 -64.125496
-4.51328 -1.251544 -64.87175
-5.706857 -2.09557 -65.432915
-5.750908 -4.875681 -64.297531
-5.857636 -7.635052 -63.170193
-6.86904 -8.702463 -63.309917
-5.995003 -10.341696 -62.063797
-28.079994 0.886048 -67.087692
-26.568693 7.664855 -68.941177
-26.361372 4.235392 -68.549263
-26.095385 0.441742 -67.862755
-24.065407 -0.088794 -68.386856
-21.853281 -0.516764 -68.753357
-19.836895 -1.124864 -68.825241
-18.840471 17.771967 -72.339432
-18.72513 14.848913 -72.430794
-18.705328 11.901537 -72.183708
-14.736757 12.949386 -72.68779
-16.595766 11.076011 -72.330154
-18.50239 8.740787 -71.681595
-18.356634 5.296368 -70.881439
-18.137667 1.63257 -69.828629
-17.813162 -1.834502 -68.678841
-15.910514 -2.5868 -68.347954
-14.004537 -3.368125 -67.847572
-12.307514 -4.269605 -67.175636
-10.994002 1.043265 -68.978058
-10.907389 -2.14277 -67.711525
-10.639251 -5.376387 -66.281097
-9.194623 -6.529078 -65.30925
-7.931568 -7.52239 -64.358017
-7.703669 -10.111396 -63.095947
-21.197311 -22.581553 -60.728931
-19.984327 -26.262249 -59.315311
-11.64592 -23.797041 -58.792408
-10.89261 -20.702879 -59.752899
-13.522465 -16.667446 -62.186558
-11.803748 -17.151613 -61.511784
-10.193501 -17.575851 -60.797485
-9.39581 -14.555834 -61.80608
-8.528319 -12.065496 -62.57098
-7.328245 -12.475909 -61.840508
-6.677036 -15.049882 -60.344715
-6.232346 -12.478829 -61.247086
-31.398438 -17.157227 -60.042099
-30.927112 -19.086289 -59.599233
-31.847243 -19.062422 -59.079015
-16.728588 32.414282 -46.598305
-17.50629 31.599776 -46.868109
-12.801499 35.737795 -52.397392
-12.669156 36.187624 -51.146335
-12.026245 36.484833 -51.9571
-0.617572 23.573948 -63.59786
-0.561403 24.77805 -63.178047
-0.665095 22.382988 -64.036158
-1.236763 23.401224 -64.44363
-0.617572 23.573948 -63.59786
-2.029311 3.980782 -64.19285
-1.54015 4.130035 -63.577659
-1.670253 2.767604 -63.292422
-3.283474 -7.206767 -61.236818
-3.209341 -5.847033 -61.728102
-2.799276 -6.936646 -60.855919
-3.415095 -8.519652 -60.792641
-3.825161 -7.430039 -61.664823
-3.283474 -7.206767 -61.236818
-23.825283 25.636371 -46.56015
-24.147053 24.807891 -45.278391
-23.300795 25.501722 -45.175417
-20.995069 28.859685 -63.38018
-20.177534 28.998542 -64.261225
-28.667823 9.607905 -67.687336
-29.501298 8.081862 -67.044567
-8.494142 -20.668964 -58.817901
-8.751594 -22.339773 -58.280634
-8.915119 -19.114178 -59.655195
-8.188772 -19.110889 -59.338113
-8.494142 -20.668964 -58.817901
-30.617272 -2.3691 -64.919208
-30.356677 -4.278392 -64.653635
-9.353101 38.103269 -52.820518
-10.006162 37.439933 -53.191299
-7.083296 38.265114 -54.665803
-7.880894 38.247498 -54.085292
-6.282701 38.146971 -55.191111
-6.969288 37.47959 -55.716751
-7.083296 38.265114 -54.665803
0.557474 13.205246 -62.618652
0.201623 14.365894 -63.303693
-1.109905 -0.79365 -61.17622
-0.99894 0.432214 -61.475611
-1.211342 -2.176333 -60.775547
-1.554822 -1.022577 -61.733341
-1.109905 -0.79365 -61.17622
-1.51208 -6.316843 -59.547123
-1.410396 -4.89563 -59.96673
-1.924736 -6.55139 -59.996031
-1.51208 -6.316843 -59.547123
-23.188353 28.26455 -55.45379
-22.86042 28.396543 -54.121977
-22.291432 28.92007 -55.372318
-24.117036 27.574638 -55.413356
-23.188353 28.26455 -55.45379
-25.717304 21.431741 -67.298962
-25.593187 22.45177 -66.695637
-24.737913 22.459799 -67.563202
-25.925335 20.282462 -67.759098
-25.717304 21.431741 -67.298962
-29.21501 -24.881426 -58.100218
-28.510631 -26.733143 -57.639059
-19.878197 28.643713 -44.82065
-19.120599 29.476563 -44.821058
-20.411513 28.582526 -46.132851
-20.707568 27.854014 -44.832102
-19.878197 28.643713 -44.82065
-14.289303 35.053942 -48.270229
-13.808772 35.454718 -49.336499
-15.044324 34.224123 -48.60195
-14.289303 35.053942 -48.270229
-15.284914 34.028396 -49.91362
-15.802011 33.529784 -48.883253
-15.044324 34.224123 -48.60195
-3.89649 37.480715 -56.458338
-4.689236 37.752329 -56.086025
-2.947495 35.254181 -58.340883
-2.289938 35.749949 -57.690942
-2.163812 34.809225 -58.479766
-0.503171 28.073813 -61.645033
-0.468202 29.214398 -61.090931
-1.001151 18.820321 -65.049405
-0.90406 20.009218 -64.812258
-0.366729 19.003985 -64.179839
0.55674 9.426761 -61.866173
0.859527 8.265636 -61.067307
0.06138 9.334042 -62.642052
0.227314 10.631379 -62.686321
0.55674 9.426761 -61.866173
-1.074874 7.987293 -64.063195
-0.69339 6.805865 -63.176914
-1.227933 6.681351 -63.922886
-24.877668 25.702364 -49.250219
-24.447291 26.423305 -50.562957
-20.451574 29.99811 -60.027992
-20.294747 30.268245 -58.812109
-19.546843 30.580026 -59.820104
-29.183088 2.889576 -66.803829
-29.30889 4.619805 -66.936047
-28.202593 2.702829 -67.335922
-29.060489 1.072795 -66.555599
-29.183088 2.889576 -66.803829
-25.524975 -27.222026 -58.354513
-26.584395 -27.025614 -58.163887
-22.357839 -27.820513 -58.623536
-23.386153 -27.584064 -58.60132
-23.030673 -25.827678 -59.310671
-21.316969 -27.990917 -58.630558
-22.357839 -27.820513 -58.623536
-18.291204 -28.57902 -58.370842
-19.265761 -28.360143 -58.504585
-19.00977 -26.481126 -59.181568
-17.264937 -28.612583 -58.258709
-18.291204 -28.57902 -58.370842
-15.338966 -28.858347 -57.883015
-15.118456 -27.040879 -58.480642
-7.321031 -15.042545 -60.667349
-6.931669 -16.441208 -59.871282
-7.575665 -16.433871 -60.193917
-5.882605 -13.698792 -60.489103
-5.71352 -12.342495 -60.971842
-21.686203 29.429144 -56.601017
-22.291432 28.92007 -55.372318
-21.35827 29.561137 -55.269203
-30.402403 -21.029905 -59.102484
-29.794083 -22.985694 -58.629563
-30.767596 -22.947274 -58.163229
-29.953598 -19.124709 -60.065567
-30.402403 -21.029905 -59.102484
-30.927112 -19.086289 -59.599233
-18.744288 30.188794 -45.942394
-19.120599 29.476563 -44.821058
-18.350804 30.849419 -47.163077
-19.188658 30.032851 -47.342081
-18.744288 30.188794 -45.942394
-17.950659 31.443833 -48.267795
-18.350804 30.849419 -47.163077
-17.50629 31.599776 -46.868109
-13.267364 35.813643 -50.313654
-12.669156 36.187624 -51.146335
-13.985819 35.081661 -50.609472
-13.808772 35.454718 -49.336499
-13.267364 35.813643 -50.313654
-2.091897 33.702475 -59.237894
-2.163812 34.809225 -58.479766
-2.0604 32.742472 -60.032742
-2.789871 33.353454 -59.924554
-2.091897 33.702475 -59.237894
-1.983935 31.685847 -60.692452
-2.0604 32.742472 -60.032742
-1.903576 30.711638 -61.403023
-2.678014 31.419244 -61.429974
-1.983935 31.685847 -60.692452
-0.57237 25.866812 -62.716616
-0.528435 27.04246 -62.219646
-1.200207 25.680946 -63.543901
-0.57237 25.866812 -62.716616
-0.561403 24.77805 -63.178047
0.679464 6.964463 -60.978828
0.859527 8.265636 -61.067307
-1.372828 5.421568 -63.757347
-1.54015 4.130035 -63.577659
-1.754313 6.602996 -64.643627
-1.227933 6.681351 -63.922886
-1.372828 5.421568 -63.757347
-24.978943 24.09301 -45.353777
-24.147053 24.807891 -45.278391
-25.53057 24.194354 -46.624396
-24.978943 24.09301 -45.353777
-20.820243 29.303333 -62.279521
-20.692373 29.671259 -61.180363
-19.831539 29.941965 -62.135146
-20.820243 29.303333 -62.279521
-20.995069 28.859685 -63.38018
-29.430888 6.368867 -67.026318
-29.501298 8.081862 -67.044567
-28.447189 6.268673 -67.674423
-29.30889 4.619805 -66.936047
-29.430888 6.368867 -67.026318
-14.750641 -25.392618 -59.035784
-15.118456 -27.040879 -58.480642
-15.719177 -25.21048 -59.295395
-14.36578 -23.692185 -59.573397
-13.765059 -25.522584 -58.758644
-14.750641 -25.392618 -59.035784
-7.898027 -17.694318 -59.786628
-8.188772 -19.110889 -59.338113
-8.287388 -16.295656 -60.582695
-7.575665 -16.433871 -60.193917
-7.898027 -17.694318 -59.786628
-32.220731 -13.452205 -60.825071
-31.823293 -15.35062 -60.447004
-31.723418 -11.59612 -61.746415
-32.220731 -13.452205 -60.825071
-31.165481 -9.750028 -62.651713
-30.770079 -11.721789 -62.277426
-31.723418 -11.59612 -61.746415
-30.60392 -7.9801 -63.506666
-31.165481 -9.750028 -62.651713
-30.016008 -6.156044 -64.343515
-29.624229 -8.051641 -64.019573
-30.60392 -7.9801 -63.506666
-29.376985 -4.349933 -65.166542
-30.016008 -6.156044 -64.343515
-30.356677 -4.278392 -64.653635
-11.393429 36.718348 -52.78895
-12.026245 36.484833 -51.9571
-10.676551 36.872416 -53.637836
-11.441709 36.189072 -54.057043
-11.393429 36.718348 -52.78895
-10.054442 36.910658 -54.459393
-10.676551 36.872416 -53.637836
-10.006162 37.439933 -53.191299
-8.687979 38.18772 -53.495998
-9.353101 38.103269 -52.820518
-8.576968 37.537954 -54.60215
-8.687979 38.18772 -53.495998
-7.880894 38.247498 -54.085292
0.088668 17.95216 -63.610241
-0.366729 19.003985 -64.179839
-0.045974 16.686425 -63.787306
0.088668 17.95216 -63.610241
-0.213742 15.476658 -64.023089
-0.631589 16.605321 -64.652767
-0.045974 16.686425 -63.787306
-0.383993 14.28479 -64.169155
-0.213742 15.476658 -64.023089
0.201623 14.365894 -63.303693
-1.317239 1.638481 -62.405622
-0.99894 0.432214 -61.475611
-1.806399 1.489229 -63.020813
-1.670253 2.767604 -63.292422
-1.317239 1.638481 -62.405622
-1.312086 -3.522682 -60.393646
-1.211342 -2.176333 -60.775547
-1.754568 -3.778209 -60.905752
-1.312086 -3.522682 -60.393646
-1.410396 -4.89563 -59.96673
-2.360869 -6.764266 -60.430214
-2.28901 -5.364034 -60.913019
-1.924736 -6.55139 -59.996031
-2.799276 -6.936646 -60.855919
-2.360869 -6.764266 -60.430214
-24.028654 27.073888 -51.741138
-24.447291 26.423305 -50.562957
-23.574158 27.085107 -50.445114
-24.329564 27.076555 -53.031216
-24.028654 27.073888 -51.741138
-23.456431 27.738357 -52.913372
-24.705612 27.008373 -54.282304
-25.277835 26.343905 -53.110071
-24.329564 27.076555 -53.031216
-24.705612 27.008373 -54.282304
-24.117036 27.574638 -55.413356
-21.432485 26.998333 -66.324944
-20.444599 27.739855 -66.255398
-22.548564 26.177375 -66.229076
-21.432485 26.998333 -66.324944
-21.609618 26.235707 -67.126781
-23.587634 25.315173 -66.12273
-22.548564 26.177375 -66.229076
-24.531683 24.347713 -66.087211
-23.587634 25.315173 -66.12273
-23.669747 24.447288 -66.995396
-25.485886 23.385697 -65.952125
-24.531683 24.347713 -66.087211
-25.485886 23.385697 -65.952125
-25.593187 22.45177 -66.695637
-26.007 19.147852 -68.200096
-25.925335 20.282462 -67.759098
-24.943695 20.30516 -68.607525
-27.000909 17.9074 -67.778743
-26.007 19.147852 -68.200096
-26.019269 17.930098 -68.627171
-27.930447 16.674308 -67.332794
-27.000909 17.9074 -67.778743
-27.990854 15.333527 -67.650222
-27.930447 16.674308 -67.332794
-27.968396 14.026315 -67.913326
-27.990854 15.333527 -67.650222
-26.99072 15.382434 -68.468921
-27.867361 12.636648 -68.171001
-27.968396 14.026315 -67.913326
-26.924284 12.459325 -68.84264
-27.823383 11.020751 -68.281616
-27.867361 12.636648 -68.171001
-9.562625 -22.256595 -58.646681
-8.751594 -22.339773 -58.280634
-19.335731 29.050514 -65.202618
-20.177534 28.998542 -64.261225
-19.117607 29.62601 -64.175695
-19.380443 28.461492 -66.146935
-19.335731 29.050514 -65.202618
-18.320515 29.08896 -66.061405
-19.429384 27.778301 -67.114186
-20.444599 27.739855 -66.255398
-19.380443 28.461492 -66.146935
-27.593497 -26.846099 -57.925209
-28.510631 -26.733143 -57.639059
-27.261643 -25.039304 -58.748806
-26.584395 -27.025614 -58.163887
-27.593497 -26.846099 -57.925209
-28.849818 -22.964057 -59.039473
-29.21501 -24.881426 -58.100218
-29.794083 -22.985694 -58.629563
-30.903161 -15.374487 -60.967222
-31.398438 -17.157227 -60.042099
-31.823293 -15.35062 -60.447004
-22.440451 26.282635 -45.089931
-23.300795 25.501722 -45.175417
-21.571379 27.013947 -44.933495
-20.707568 27.854014 -44.832102
-22.109954 27.061514 -46.300739
-22.440451 26.282635 -45.089931
-21.571379 27.013947 -44.933495
-16.333782 32.959851 -47.772205
-16.728588 32.414282 -46.598305
-16.574373 32.764124 -49.083876
-16.333782 32.959851 -47.772205
-15.802011 33.529784 -48.883253
-5.489588 37.985368 -55.703028
-6.282701 38.146971 -55.191111
-5.368341 37.128406 -56.625056
-5.489588 37.985368 -55.703028
-4.689236 37.752329 -56.086025
-2.405466 36.778307 -56.96821
-2.289938 35.749949 -57.690942
-3.149306 37.130483 -56.730341
-2.405466 36.778307 -56.96821
-3.820805 36.545136 -57.280056
-3.89649 37.480715 -56.458338
-3.149306 37.130483 -56.730341
-1.185071 29.905328 -61.299372
-0.468202 29.214398 -61.090931
-1.87915 29.638725 -62.036894
-1.903576 30.711638 -61.403023
-1.185071 29.905328 -61.299372
-1.185909 27.801062 -62.507857
-0.503171 28.073813 -61.645033
-0.528435 27.04246 -62.219646
-0.776963 21.201573 -64.41231
-0.665095 22.382988 -64.036158
-1.411385 21.017909 -65.281876
-0.776963 21.201573 -64.41231
-0.90406 20.009218 -64.812258
0.377023 11.949061 -62.680101
0.557474 13.205246 -62.618652
-0.118337 11.856343 -63.45598
0.377023 11.949061 -62.680101
0.227314 10.631379 -62.686321
0.235217 6.842406 -61.698753
0.679464 6.964463 -60.978828
-0.230352 6.833597 -62.446413
-0.69339 6.805865 -63.176914
-0.074763 8.120615 -62.569563
0.235217 6.842406 -61.698753
-0.230352 6.833597 -62.446413
-25.21704 24.956373 -47.948315
-24.332169 25.688532 -47.965029
-24.877668 25.702364 -49.250219
-25.53057 24.194354 -46.624396
-25.21704 24.956373 -47.948315
-20.97626 29.87827 -57.758949
-20.07153 30.460186 -57.551062
-20.294747 30.268245 -58.812109
-21.686203 29.429144 -56.601017
-20.97626 29.87827 -57.758949
-20.451574 29.99811 -60.027992
-20.692373 29.671259 -61.180363
-29.87932 -0.60637 -65.750084
-30.617272 -2.3691 -64.919208
-28.898824 -0.793117 -66.282177
-29.87932 -0.60637 -65.750084
-29.060489 1.072795 -66.555599
-27.724747 9.430582 -68.358975
-28.667823 9.607905 -67.687336
-27.823383 11.020751 -68.281616
-24.428198 -27.408231 -58.504999
-25.524975 -27.222026 -58.354513
-25.155764 -25.405023 -59.13797
-24.428198 -27.408231 -58.504999
-23.386153 -27.584064 -58.60132
-20.307953 -28.089978 -58.62177
-21.316969 -27.990917 -58.630558
-20.993343 -26.163188 -59.324099
-20.307953 -28.089978 -58.62177
-19.265761 -28.360143 -58.504585
-16.290827 -28.691953 -58.104923
-17.264937 -28.612583 -58.258709
-17.061102 -26.779373 -58.894039
-16.290827 -28.691953 -58.104923
-15.338966 -28.858347 -57.883015
-12.787402 -25.554217 -58.483431
-13.765059 -25.522584 -58.758644
-11.920264 -25.541662 -58.231507
-12.787402 -25.554217 -58.483431
-12.513059 -23.809596 -59.044332
-10.996593 -25.604125 -57.898472
-11.920264 -25.541662 -58.231507
-10.77534 -23.818989 -58.475393
-10.996593 -25.604125 -57.898472
-10.398685 -22.271908 -58.955639
-10.77534 -23.818989 -58.475393
-11.269265 -22.24996 -59.272654
-10.056549 -20.687566 -59.443941
-9.562625 -22.256595 -58.646681
-10.398685 -22.271908 -58.955639
-6.278076 -16.456117 -59.511526
-6.931669 -16.441208 -59.871282
-6.10495 -14.984319 -60.037918
-6.278076 -16.456117 -59.511526
-6.454691 -13.764356 -60.795901
-5.882605 -13.698792 -60.489103
-6.10495 -14.984319 -60.037918
-3.530778 -9.937253 -60.315428
-3.415095 -8.519652 -60.792641
-4.057842 -10.19888 -60.680731
-3.530778 -9.937253 -60.315428
-4.58111 -10.555847 -60.953856
-4.48005 -9.099891 -61.49377
-4.057842 -10.19888 -60.680731
-5.099006 -10.831509 -61.231746
-4.58111 -10.555847 -60.953856
-5.594849 -11.273928 -61.380198
-5.499161 -9.899277 -61.915346
-5.099006 -10.831509 -61.231746
-6.113675 -11.410262 -61.655442
-5.594849 -11.273928 -61.380198
-5.71352 -12.342495 -60.971842
3 1 97 95
3 1 99 97
3 2 102 100
3 4 105 103
3 4 107 105
3 4 109 107
3 3 112 110
3 3 114 112
3 5 117 115
3 5 119 117
3 6 122 120
3 7 125 123
3 7 127 125
3 7 129 127
3 9 132 130
3 9 134 132
3 381 136 382
3 381 382 383
3 11 139 137
3 11 141 139
3 384 143 385
3 13 386 388
3 386 144 387
3 386 387 388
3 13 146 144
3 13 148 146
3 14 151 149
3 14 153 151
3 389 156 390
3 391 158 392
3 393 392 156
3 391 392 393
3 15 161 159
3 15 163 161
3 16 394 396
3 394 164 395
3 394 395 396
3 16 166 164
3 16 168 166
3 397 171 398
3 399 398 169
3 397 398 399
3 400 173 401
3 402 401 171
3 400 401 402
3 12 403 405
3 403 174 404
3 403 404 405
3 407 406 175
3 408 176 409
3 18 179 177
3 18 181 179
3 8 184 182
3 19 187 185
3 19 189 187
3 19 191 189
3 17 194 192
3 17 196 194
3 10 199 197
3 21 202 200
3 21 204 202
3 21 206 204
3 20 209 207
3 20 211 209
3 22 410 411
3 22 412 414
3 412 212 413
3 412 413 414
3 23 215 213
3 25 216 96
3 25 217 216
3 25 219 217
3 27 220 98
3 27 221 220
3 415 223 416
3 417 225 418
3 419 226 420
3 421 227 422
3 423 422 226
3 421 422 423
3 424 228 425
3 426 229 427
3 428 231 429
3 430 429 229
3 428 429 430
3 431 232 432
3 434 433 232
3 32 235 233
3 435 236 436
3 437 436 101
3 435 436 437
3 439 438 236
3 33 238 237
3 34 239 104
3 34 440 442
3 442 441 239
3 440 441 442
3 34 443 444
3 35 240 106
3 35 241 240
3 35 243 241
3 37 244 108
3 37 245 244
3 38 248 246
3 40 249 111
3 40 250 249
3 40 252 250
3 42 253 113
3 42 254 253
3 43 257 255
3 45 258 116
3 45 259 258
3 45 261 259
3 47 262 118
3 47 263 262
3 48 266 264
3 50 267 121
3 50 268 267
3 24 269 214
3 51 270 124
3 51 271 270
3 51 272 271
3 52 273 126
3 52 274 273
3 52 276 274
3 54 277 128
3 54 278 277
3 26 279 218
3 55 280 131
3 55 281 280
3 55 282 281
3 56 283 133
3 56 284 283
3 445 285 446
3 58 286 135
3 58 287 286
3 28 288 222
3 59 289 138
3 59 290 289
3 59 291 290
3 60 292 140
3 60 293 292
3 61 447 448
3 61 449 451
3 449 294 450
3 449 450 451
3 61 295 294
3 62 296 142
3 62 297 296
3 63 452 453
3 63 454 455
3 63 456 458
3 456 298 457
3 456 457 458
3 64 299 145
3 64 300 299
3 64 301 300
3 65 302 147
3 65 303 302
3 29 304 224
3 66 305 150
3 66 306 305
3 66 307 306
3 67 308 152
3 67 309 308
3 459 310 460
3 68 461 463
3 461 311 462
3 461 462 463
3 68 312 311
3 68 313 312
3 69 314 154
3 69 315 314
3 464 316 465
3 70 317 155
3 70 318 317
3 70 319 318
3 71 320 157
3 71 321 320
3 30 466 468
3 466 322 467
3 466 467 468
3 72 323 160
3 72 324 323
3 72 325 324
3 73 326 162
3 73 327 326
3 74 469 470
3 74 471 473
3 471 328 472
3 471 472 473
3 75 474 476
3 474 329 475
3 474 475 476
3 75 330 329
3 75 331 330
3 76 332 165
3 76 333 332
3 76 334 333
3 77 335 167
3 77 336 335
3 31 337 230
3 78 338 170
3 78 339 338
3 78 340 339
3 80 341 172
3 80 343 341
3 478 477 234
3 49 479 481
3 481 480 265
3 479 480 481
3 81 482 483
3 81 484 486
3 484 344 485
3 484 485 486
3 36 345 242
3 82 346 178
3 82 347 346
3 82 348 347
3 83 349 180
3 83 350 349
3 53 351 275
3 84 352 183
3 84 353 352
3 39 354 247
3 85 355 186
3 85 356 355
3 85 357 356
3 86 358 188
3 86 359 358
3 86 360 359
3 87 361 190
3 87 362 361
3 41 363 251
3 88 364 193
3 88 365 364
3 88 366 365
3 79 367 195
3 79 342 367
3 57 487 488
3 90 489 491
3 491 490 198
3 489 490 491
3 90 492 493
3 44 369 256
3 91 370 201
3 91 494 496
3 496 495 370
3 494 495 496
3 91 497 498
3 500 499 203
3 92 371 205
3 92 372 371
3 46 373 260
3 93 374 208
3 93 375 374
3 93 376 375
3 89 377 210
3 89 368 377
3 94 501 503
3 501 379 502
3 501 502 503
3 94 378 379
3 504 380 505
3 95 96 23
3 97 96 95
3 97 25 96
3 97 98 25
3 99 98 97
3 99 27 98
3 100 101 32
3 102 101 100
3 102 506 508
3 508 507 101
3 506 507 508
3 103 104 33
3 105 104 103
3 105 34 104
3 105 106 34
3 107 106 105
3 107 35 106
3 107 108 35
3 109 108 107
3 109 37 108
3 110 111 38
3 112 111 110
3 112 40 111
3 112 113 40
3 114 113 112
3 114 42 113
3 115 116 43
3 117 116 115
3 117 45 116
3 117 118 45
3 119 118 117
3 119 47 118
3 120 121 48
3 122 121 120
3 122 50 121
3 123 124 24
3 125 124 123
3 125 51 124
3 125 126 51
3 127 126 125
3 127 52 126
3 127 128 52
3 129 128 127
3 129 54 128
3 130 131 26
3 132 131 130
3 132 55 131
3 132 133 55
3 134 133 132
3 134 56 133
3 509 135 510
3 509 510 511
3 136 512 514
3 512 135 513
3 512 513 514
3 136 58 135
3 137 138 28
3 139 138 137
3 139 59 138
3 139 140 59
3 141 140 139
3 141 60 140
3 515 61 516
3 517 142 518
3 519 518 61
3 517 518 519
3 143 520 522
3 520 142 521
3 520 521 522
3 143 62 142
3 144 523 524
3 144 525 527
3 525 63 526
3 525 526 527
3 144 145 63
3 146 145 144
3 146 64 145
3 146 147 64
3 148 147 146
3 148 65 147
3 149 150 29
3 151 150 149
3 151 66 150
3 151 152 66
3 153 152 151
3 153 67 152
3 528 68 529
3 530 154 531
3 532 531 68
3 530 531 532
3 533 154 534
3 535 69 536
3 537 536 154
3 535 536 537
3 538 155 539
3 156 540 542
3 540 155 541
3 540 541 542
3 156 70 155
3 156 157 70
3 158 157 156
3 158 71 157
3 159 160 30
3 161 160 159
3 161 72 160
3 161 162 72
3 163 162 161
3 163 73 162
3 543 74 544
3 164 545 546
3 164 547 549
3 547 75 548
3 547 548 549
3 164 165 75
3 166 165 164
3 166 76 165
3 166 167 76
3 168 167 166
3 168 77 167
3 169 170 31
3 171 170 169
3 171 78 170
3 171 172 78
3 173 172 171
3 173 80 172
3 174 550 551
3 174 552 553
3 175 554 556
3 556 555 49
3 554 555 556
3 558 557 175
3 176 559 560
3 176 561 563
3 561 81 562
3 561 562 563
3 177 178 36
3 179 178 177
3 179 82 178
3 179 180 82
3 181 180 179
3 181 83 180
3 182 183 53
3 184 183 182
3 184 84 183
3 185 186 39
3 187 186 185
3 187 85 186
3 187 188 85
3 189 188 187
3 189 86 188
3 189 190 86
3 191 190 189
3 191 87 190
3 192 193 41
3 194 193 192
3 194 88 193
3 194 195 88
3 196 195 194
3 196 79 195
3 197 198 57
3 199 198 197
3 199 90 198
3 200 201 44
3 202 201 200
3 202 91 201
3 202 203 91
3 204 203 202
3 204 564 566
3 566 565 203
3 564 565 566
3 204 567 569
3 567 205 568
3 567 568 569
3 206 205 204
3 206 92 205
3 207 208 46
3 209 208 207
3 209 93 208
3 209 210 93
3 211 210 209
3 211 89 210
3 212 570 571
3 212 572 574
3 572 94 573
3 572 573 574
3 213 214 6
3 215 214 213
3 215 24 214
3 96 215 23
3 216 215 96
3 216 24 215
3 216 123 24
3 217 123 216
3 217 7 123
3 217 218 7
3 219 218 217
3 219 26 218
3 98 219 25
3 220 219 98
3 220 26 219
3 220 130 26
3 221 130 220
3 221 9 130
3 575 222 576
3 577 222 578
3 579 28 580
3 581 580 222
3 579 580 581
3 582 28 583
3 584 137 585
3 586 585 28
3 584 585 586
3 223 587 589
3 587 137 588
3 587 588 589
3 223 11 137
3 590 13 591
3 592 224 593
3 594 593 13
3 592 593 594
3 225 595 597
3 595 224 596
3 595 596 597
3 225 29 224
3 598 225 599
3 226 600 602
3 600 225 601
3 600 601 602
3 226 29 225
3 226 149 29
3 227 149 226
3 227 14 149
3 603 30 604
3 605 30 606
3 607 159 608
3 609 608 30
3 607 608 609
3 228 610 612
3 610 159 611
3 610 611 612
3 228 15 159
3 229 613 614
3 229 615 617
3 615 16 616
3 615 616 617
3 229 230 16
3 231 230 229
3 231 31 230
3 618 231 619
3 232 620 622
3 620 231 621
3 620 621 622
3 232 31 231
3 232 169 31
3 623 169 624
3 625 624 232
3 623 624 625
3 627 626 169
3 233 234 12
3 235 234 233
3 235 628 630
3 630 629 234
3 628 629 630
3 101 235 32
3 236 235 101
3 236 631 633
3 633 632 235
3 631 632 633
3 236 634 636
3 634 635 636
3 638 637 236
3 237 639 640
3 238 641 643
3 643 642 237
3 641 642 643
3 238 644 645
3 104 238 33
3 239 238 104
3 239 646 648
3 648 647 238
3 646 647 648
3 239 649 650
3 652 651 239
3 106 653 655
3 655 654 34
3 653 654 655
3 240 656 658
3 658 657 106
3 656 657 658
3 240 659 660
3 240 661 662
3 241 663 665
3 665 664 240
3 663 664 665
3 241 666 667
3 241 668 670
3 668 242 669
3 668 669 670
3 243 242 241
3 243 36 242
3 108 243 35
3 244 243 108
3 244 36 243
3 244 177 36
3 245 177 244
3 245 18 177
3 246 247 8
3 248 247 246
3 248 39 247
3 111 248 38
3 249 248 111
3 249 39 248
3 249 185 39
3 250 185 249
3 250 19 185
3 250 251 19
3 252 251 250
3 252 41 251
3 113 252 40
3 253 252 113
3 253 41 252
3 253 192 41
3 254 192 253
3 254 17 192
3 255 256 10
3 257 256 255
3 257 44 256
3 116 257 43
3 258 257 116
3 258 44 257
3 258 200 44
3 259 200 258
3 259 21 200
3 259 260 21
3 261 260 259
3 261 46 260
3 118 261 45
3 262 261 118
3 262 46 261
3 262 207 46
3 263 207 262
3 263 20 207
3 671 22 672
3 264 265 2
3 266 265 264
3 266 49 265
3 121 266 48
3 267 266 121
3 267 49 266
3 267 175 49
3 268 175 267
3 268 673 675
3 675 674 175
3 673 674 675
3 214 122 6
3 269 122 214
3 269 50 122
3 124 269 24
3 270 269 124
3 270 50 269
3 270 268 50
3 271 268 270
3 271 676 678
3 678 677 268
3 676 677 678
3 271 679 681
3 679 237 680
3 679 680 681
3 272 237 271
3 272 33 237
3 126 272 51
3 273 272 126
3 273 33 272
3 273 103 33
3 274 103 273
3 274 4 103
3 274 275 4
3 276 275 274
3 276 53 275
3 128 276 52
3 277 276 128
3 277 53 276
3 277 182 53
3 278 182 277
3 278 8 182
3 218 129 7
3 279 129 218
3 279 54 129
3 131 279 26
3 280 279 131
3 280 54 279
3 280 278 54
3 281 278 280
3 281 8 278
3 281 246 8
3 282 246 281
3 282 38 246
3 133 282 55
3 283 282 133
3 283 38 282
3 283 110 38
3 284 110 283
3 284 3 110
3 285 682 683
3 285 684 686
3 684 57 685
3 684 685 686
3 135 687 689
3 687 285 688
3 687 688 689
3 286 285 135
3 286 57 285
3 286 197 57
3 287 197 286
3 287 10 197
3 222 690 692
3 690 136 691
3 690 691 692
3 288 136 222
3 288 58 136
3 138 288 28
3 289 288 138
3 289 58 288
3 289 287 58
3 290 287 289
3 290 10 287
3 290 255 10
3 291 255 290
3 291 43 255
3 140 291 59
3 292 291 140
3 292 43 291
3 292 115 43
3 293 115 292
3 293 5 115
3 693 12 694
3 294 695 696
3 294 697 699
3 697 12 698
3 697 698 699
3 294 233 12
3 295 233 294
3 295 32 233
3 142 295 61
3 296 295 142
3 296 32 295
3 296 100 32
3 297 100 296
3 297 2 100
3 700 143 701
3 298 702 704
3 702 143 703
3 702 703 704
3 298 62 143
3 145 298 63
3 299 298 145
3 299 62 298
3 299 297 62
3 300 297 299
3 300 2 297
3 300 264 2
3 301 264 300
3 301 48 264
3 147 301 64
3 302 301 147
3 302 48 301
3 302 120 48
3 303 120 302
3 303 6 120
3 224 148 13
3 304 148 224
3 304 65 148
3 150 304 29
3 305 304 150
3 305 65 304
3 305 303 65
3 306 303 305
3 306 6 303
3 306 213 6
3 307 213 306
3 307 23 213
3 152 307 66
3 308 307 152
3 308 23 307
3 308 95 23
3 309 95 308
3 309 1 95
3 705 227 706
3 310 707 709
3 707 227 708
3 707 708 709
3 310 14 227
3 311 710 711
3 311 712 713
3 311 714 716
3 714 310 715
3 714 715 716
3 312 310 311
3 312 14 310
3 312 153 14
3 313 153 312
3 313 67 153
3 154 313 68
3 314 313 154
3 314 67 313
3 314 309 67
3 315 309 314
3 315 1 309
3 316 717 718
3 316 719 721
3 719 69 720
3 719 720 721
3 155 722 724
3 722 316 723
3 722 723 724
3 317 316 155
3 317 69 316
3 317 315 69
3 318 315 317
3 318 1 315
3 318 99 1
3 319 99 318
3 319 27 99
3 157 319 70
3 320 319 157
3 320 27 319
3 320 221 27
3 321 221 320
3 321 9 221
3 725 158 726
3 322 727 729
3 727 158 728
3 727 728 729
3 322 71 158
3 160 322 30
3 323 322 160
3 323 71 322
3 323 321 71
3 324 321 323
3 324 9 321
3 324 134 9
3 325 134 324
3 325 56 134
3 162 325 72
3 326 325 162
3 326 56 325
3 326 284 56
3 327 284 326
3 327 3 284
3 730 228 731
3 328 732 734
3 732 228 733
3 732 733 734
3 328 15 228
3 735 74 736
3 329 737 738
3 329 739 741
3 739 74 740
3 739 740 741
3 329 328 74
3 330 328 329
3 330 15 328
3 330 163 15
3 331 163 330
3 331 73 163
3 165 331 75
3 332 331 165
3 332 73 331
3 332 327 73
3 333 327 332
3 333 3 327
3 333 114 3
3 334 114 333
3 334 42 114
3 167 334 76
3 335 334 167
3 335 42 334
3 335 254 42
3 336 254 335
3 336 17 254
3 230 168 16
3 337 168 230
3 337 77 168
3 170 337 31
3 338 337 170
3 338 77 337
3 338 336 77
3 339 336 338
3 339 17 336
3 339 196 17
3 340 196 339
3 340 79 196
3 172 340 78
3 341 340 172
3 341 79 340
3 341 342 79
3 343 342 341
3 343 0 342
3 234 174 12
3 742 174 743
3 744 743 234
3 742 743 744
3 746 745 174
3 265 102 2
3 747 102 748
3 749 748 265
3 747 748 749
3 751 750 102
3 753 752 49
3 754 223 755
3 344 756 758
3 756 223 757
3 756 757 758
3 344 11 223
3 242 759 761
3 759 176 760
3 759 760 761
3 345 176 242
3 345 81 176
3 178 345 36
3 346 345 178
3 346 81 345
3 346 344 81
3 347 344 346
3 347 11 344
3 347 141 11
3 348 141 347
3 348 60 141
3 180 348 82
3 349 348 180
3 349 60 348
3 349 293 60
3 350 293 349
3 350 5 293
3 275 109 4
3 351 109 275
3 351 37 109
3 183 351 53
3 352 351 183
3 352 37 351
3 352 245 37
3 353 245 352
3 353 18 245
3 247 184 8
3 354 184 247
3 354 84 184
3 186 354 39
3 355 354 186
3 355 84 354
3 355 353 84
3 356 353 355
3 356 18 353
3 356 181 18
3 357 181 356
3 357 83 181
3 188 357 85
3 358 357 188
3 358 83 357
3 358 350 83
3 359 350 358
3 359 5 350
3 359 119 5
3 360 119 359
3 360 47 119
3 190 360 86
3 361 360 190
3 361 47 360
3 361 263 47
3 362 263 361
3 362 20 263
3 251 191 19
3 363 191 251
3 363 87 191
3 193 363 41
3 364 363 193
3 364 87 363
3 364 362 87
3 365 362 364
3 365 20 362
3 365 211 20
3 366 211 365
3 366 89 211
3 195 366 88
3 367 366 195
3 367 89 366
3 367 368 89
3 342 368 367
3 342 0 368
3 198 762 764
3 764 763 57
3 762 763 764
3 766 765 198
3 256 199 10
3 369 199 256
3 369 90 199
3 201 369 44
3 370 369 201
3 370 90 369
3 370 767 769
3 769 768 90
3 767 768 769
3 771 770 370
3 203 772 774
3 774 773 91
3 772 773 774
3 776 775 203
3 205 777 778
3 371 779 781
3 781 780 205
3 779 780 781
3 371 782 783
3 371 784 785
3 372 786 788
3 788 787 371
3 786 787 788
3 372 789 791
3 789 22 790
3 789 790 791
3 260 206 21
3 373 206 260
3 373 92 206
3 208 373 46
3 374 373 208
3 374 92 373
3 374 372 92
3 375 372 374
3 375 22 372
3 375 212 22
3 376 212 375
3 376 94 212
3 210 376 93
3 377 376 210
3 377 94 376
3 377 378 94
3 368 378 377
3 368 0 378
3 379 792 793
3 379 794 795
3 379 796 798
3 796 380 797
3 796 797 798
3 378 380 379
3 378 0 380
3 799 173 800
3 801 173 802
3 803 80 804
3 805 804 173
3 803 804 805
3 806 80 807
3 808 343 809
3 810 809 80
3 808 809 810
3 380 811 813
3 811 343 812
3 811 812 813
3 380 0 343
