ply
format ascii 1.0
element vertex 981
property float x
property float y
property float z
element face 981
property list uchar int vertex_index
end_header
-40.820976 -9.411622 -30.364738
-37.867306 -38.525963 0.187868
-35.71254 5.955745 -33.671429
-39.779053 -25.106714 -17.441034
-35.921806 -44.491837 -14.046764
-32.633911 -50.569016 -3.970092
-36.837421 -41.816082 -6.944328
-39.099323 -34.481323 -16.320889
-38.772934 -32.823277 -8.968333
-35.62368 12.578288 -43.489056
-29.845926 20.081015 -45.774113
-39.240383 -2.015003 -32.002193
-38.312817 -34.029602 6.911961
-40.527443 -16.775082 -24.837408
-31.47887 -54.424015 -11.121252
-35.57563 -47.552517 -20.673944
-36.642517 -42.768669 1.646453
-35.757294 -44.558929 -1.951735
-37.423813 -40.172501 -3.309194
-38.25045 -37.085232 -8.223651
-38.298588 -35.848331 -4.579336
-34.211594 -47.832447 -9.159435
-31.862354 -52.531033 -7.57927
-33.832214 -49.320915 -12.608516
-33.499035 -51.362915 -15.948343
-35.681534 -45.983227 -17.415184
-37.413296 -42.127773 -21.932085
-37.543755 -40.719856 -18.61953
-39.779675 -29.787827 -17.048817
-39.980728 -30.398254 -20.523865
-40.396767 -25.486475 -21.122086
-40.813183 -21.144676 -24.750761
-40.201416 -20.77276 -21.400639
-37.71714 2.026229 -32.794827
-37.850533 5.252274 -37.116966
-24.901787 26.412086 -51.858982
26.194836 34.968636 60.987206
-25.041176 -66.465782 -3.106242
-34.907173 -46.225273 -5.611024
-36.298855 -43.207577 -10.48603
-37.732578 -39.569622 -15.190671
-38.003696 -38.410576 -11.715071
-39.029964 -33.680386 -12.625997
-39.279537 -28.988869 -13.305013
-35.81068 9.522044 -38.487129
-33.331966 13.245205 -39.56628
-32.952892 16.664684 -45.039085
-19.991554 23.261507 39.244797
-17.13463 26.161623 41.68644
-37.525028 -40.539471 5.181339
28.149256 36.0574 58.006821
29.519718 36.241673 54.135689
-40.015949 -8.907515 -27.957867
-40.271809 -6.003226 -31.156153
-38.908882 -5.160671 -28.373888
-38.148464 -38.227379 8.658536
-38.17207 -36.546329 3.638548
-37.890221 -32.363922 2.275804
-38.179752 -34.252388 -1.088033
-38.25008 -31.6614 -5.29475
-39.018612 -20.614367 -17.638075
-39.410736 -16.582912 -21.365679
-39.7216 -12.54559 -24.757908
-40.730236 -12.592896 -27.970728
-27.224144 -61.765274 -4.371099
-29.549377 -57.050438 -5.947886
-29.250834 -59.189922 -9.70512
-31.318205 -56.413811 -14.626274
-33.379097 -53.253422 -19.32214
-35.463818 -49.272774 -24.088095
-37.349274 -43.529549 -25.258387
-39.037483 -35.415951 -19.683119
-41.08601 -16.555708 -28.264498
-26.389599 23.446167 -46.585667
-28.542383 23.231081 -51.411133
-41.007378 -10.615383 -30.674248
-40.922916 -8.832008 -31.568371
-37.35939 -40.683449 1.081506
-37.00853 -41.595707 -0.728382
-37.649948 -39.423054 -1.482701
-37.970013 -37.983379 -3.912624
-38.085239 -37.162586 -2.185062
-35.083755 -46.177391 -11.608525
-33.947487 -48.668701 -10.916031
-34.85994 -46.992928 -13.231608
-34.744446 -47.742161 -14.988701
-35.724926 -45.328278 -15.586422
-36.567497 -43.562798 -17.893488
-36.752281 -42.669315 -16.397671
-39.876022 -27.361605 -17.312048
-40.119289 -27.571556 -19.183876
-40.146278 -25.346004 -19.325855
-40.369179 -23.270765 -21.196177
-40.006676 -23.033178 -19.443058
-36.80022 4.049635 -33.293846
-37.852345 3.643771 -34.963711
-36.9188 5.703595 -35.494644
-36.303894 -43.209198 -4.454928
-35.282276 -45.485676 -3.798261
-35.912544 -44.067715 -6.287361
-35.635113 -44.69384 -8.159985
-36.588806 -42.449215 -8.749285
-37.210102 -40.849243 -11.118021
-37.444736 -40.120644 -9.313884
-38.598507 -34.990582 -8.486881
-38.631302 -35.510231 -10.434476
-38.948002 -33.141628 -10.880483
-39.277145 -31.243759 -13.130168
-39.030315 -30.861397 -11.183345
-30.181252 18.418833 -43.061447
-31.727417 16.736208 -42.641525
-31.474077 18.379986 -45.410995
-32.485943 18.194319 -47.61813
-30.929216 19.993189 -48.09679
-18.638159 24.645802 40.454201
27.267792 35.474579 59.64122
28.054993 32.211483 59.669857
29.400816 32.780636 55.954845
-13.329105 65.981529 -28.137232
-39.292267 -8.756786 -26.373749
-39.468349 -7.03804 -28.043955
-38.621994 -6.817647 -26.51235
-38.484467 -34.753174 9.23592
-38.413391 -36.756435 10.296845
-38.358009 -36.120754 7.743586
-38.178322 -37.406017 6.110194
-38.264214 -35.333164 5.276776
-37.684277 -31.295862 0.06175
-38.053257 -33.356209 0.631082
-37.965092 -32.156586 -1.613181
-38.19717 -32.94096 -3.233292
-39.177277 -18.580116 -19.446619
-38.977234 -12.55352 -23.091497
-39.135464 -10.608086 -24.744057
-39.870163 -10.705076 -26.336912
-31.45109 -52.710964 -3.227919
-31.72308 -53.292042 -9.432466
-30.714506 -54.773899 -6.808947
-30.498817 -55.755482 -8.501895
-29.268639 -58.28627 -7.685504
-30.336708 -56.810436 -10.266831
-30.293507 -57.760975 -12.108358
-31.433958 -55.294388 -12.920373
-34.553684 -49.537491 -18.354401
-33.441826 -52.253677 -17.567581
-34.502491 -50.423134 -20.022093
-34.444359 -51.336449 -21.720293
-35.460522 -48.580826 -22.295874
-36.429035 -46.440403 -24.646891
-36.447803 -45.722897 -22.897539
-38.247631 -39.262615 -22.457726
-38.490231 -37.031258 -15.819268
-38.386166 -37.639942 -17.496233
-39.054104 -35.009518 -17.925163
-40.354725 -28.22187 -22.657505
-39.99921 -30.928967 -22.254335
-40.736206 -18.844652 -24.905783
-40.972786 -18.848156 -26.589046
-40.858849 -16.750599 -26.521662
-40.946201 -14.62976 -28.027925
-40.630192 -14.628054 -26.417492
-39.838665 -4.087892 -31.607931
-40.380497 -4.879296 -32.820217
-39.881004 -2.57876 -33.388493
-35.817028 10.984971 -40.881687
-36.886391 8.948271 -40.239307
-36.708614 10.580544 -42.867329
-26.700317 24.914463 -51.749317
-36.18988 -43.711334 -0.05016
-36.672794 -42.378674 -2.577644
-37.120266 -41.068733 -5.081028
-37.657276 -39.397552 -7.534966
-37.819023 -38.737278 -5.780557
-38.276016 -36.579334 -6.31727
-38.531639 -34.267433 -6.761098
-16.795576 66.273018 -22.40317
-33.371758 -49.319794 -6.541561
-32.209038 -51.548763 -5.876814
-33.110058 -50.059345 -8.365663
-32.86216 -50.922955 -10.074214
-32.638969 -51.884476 -11.707279
-32.576855 -52.701698 -13.52943
-33.656586 -50.261898 -14.223347
-34.616089 -48.663845 -16.656553
-35.584335 -46.84227 -19.007212
-36.543446 -44.836372 -21.408543
-36.586319 -44.082321 -19.733736
-37.43219 -41.502953 -20.193161
-38.239151 -38.813126 -20.709389
-39.52507 -32.032898 -16.673525
-39.543465 -32.590382 -18.405993
-39.910553 -30.05533 -18.836763
-40.271141 -27.850731 -20.950897
-40.550198 -25.701841 -22.750759
-40.783512 -23.534643 -24.587158
-40.627037 -23.288458 -22.973886
-40.565262 -21.026518 -23.064417
-40.360996 -18.766733 -23.10384
-38.528267 -0.05176 -32.306358
-39.32312 -0.430967 -33.991886
-38.638462 1.549098 -34.373512
-38.687191 3.059661 -36.505051
-33.083813 -49.703667 -2.252878
-34.710976 -46.719021 -1.280718
-34.176121 -47.690128 -2.989429
-33.830898 -48.349693 -5.027009
-34.572868 -46.947254 -7.397263
-35.251614 -45.609264 -9.723648
-36.118298 -43.768158 -12.300981
-36.915844 -41.932598 -14.728037
-37.019772 -41.462837 -12.802624
-37.858475 -39.026073 -13.578707
-38.562504 -36.531918 -14.122203
-38.147678 -37.744129 -9.94874
-38.623959 -35.984604 -12.306733
-39.071243 -34.177593 -14.524824
-39.393406 -31.923349 -14.781062
-39.582939 -29.441599 -15.240396
-39.52401 -27.177286 -15.315208
-35.895779 7.668418 -36.067261
-34.641201 9.613635 -36.521893
-34.642422 11.446124 -39.112057
-34.497395 13.118017 -41.56234
-32.004559 14.8902 -40.014107
-33.213245 15.056194 -42.368198
-34.330482 14.684947 -44.262466
-33.898998 16.290949 -46.987915
-21.124275 24.290159 37.359932
-37.677151 -39.656036 2.647775
28.355286 39.426018 56.192577
28.819517 32.499043 57.888336
28.921576 36.180908 56.180981
29.040051 39.806496 54.307301
-40.539391 -9.257705 -29.304991
-40.622204 -7.94486 -30.70755
-40.158463 -7.430519 -29.498936
-39.697853 -5.507413 -29.868782
-39.09882 -3.548468 -30.177135
-38.17041 -3.314109 -28.531826
-38.322792 -1.60382 -30.343061
-37.437901 0.400145 -30.614351
-38.11195 -38.684471 11.064146
-37.86277 -39.407684 6.936963
-37.939056 -38.648987 4.414774
-38.037354 -37.62748 1.976408
-38.113922 -33.314796 4.616249
-38.157425 -34.417007 2.928319
-38.17094 -35.503414 1.261124
-38.148598 -36.331856 -0.465143
-38.257637 -35.07354 -2.729342
-38.384407 -33.812096 -4.858406
-38.534039 -32.125648 -7.114637
-38.707951 -30.524525 -9.279259
-38.899025 -28.69298 -11.454278
-39.110508 -26.829546 -13.585605
-39.293777 -24.808441 -15.608929
-38.87212 -22.634758 -15.781096
-39.505417 -22.798731 -17.623236
-39.680096 -20.666029 -19.529444
-39.844807 -18.693981 -21.255749
-40.047607 -16.603752 -23.15229
-38.797283 -14.497244 -21.392887
-39.584538 -14.53852 -23.124645
-40.177887 -14.54721 -24.79561
-40.305733 -12.633281 -26.354979
-40.407566 -10.783236 -27.830948
-40.786682 -10.746344 -29.303556
-26.112339 -64.086197 -3.595548
-26.999849 -63.088367 -6.25663
-30.962704 -53.863853 -4.906942
-29.803232 -56.032501 -4.097448
-28.35718 -59.437767 -5.130463
-28.185335 -60.604271 -7.107281
-28.015427 -61.777596 -8.78892
-32.425392 -53.816139 -15.16246
-32.39452 -54.798153 -17.017008
-37.415241 -42.688148 -23.517778
-37.607506 -40.201641 -16.986078
-38.343235 -38.079079 -19.145021
-38.946274 -36.135803 -21.254572
-39.583752 -32.870499 -20.252985
-39.569202 -33.356373 -21.870478
-41.000385 -12.49432 -29.465664
-40.710163 -6.985559 -32.162888
-36.960201 7.395923 -37.922604
-37.926498 6.641074 -39.562843
-28.065968 21.849871 -46.215202
-25.762539 24.970205 -49.233505
-27.560192 23.405191 -49.079578
-29.276018 21.705935 -48.534332
-30.231335 21.523579 -50.92799
28.045932 30.226722 60.388903
27.608914 31.951416 60.432344
-12.908107 66.127575 -29.013339
-13.2292 67.429378 -28.936943
-12.967788 64.763162 -28.298908
-12.908107 66.127575 -29.013339
-38.503475 -7.709229 -25.63946
-38.957131 -7.787216 -26.44305
-38.838611 -8.678798 -25.57016
-37.592803 -30.692777 -1.018253
-37.395271 -30.328688 -0.167051
-37.73321 -31.123138 -1.855719
-37.824685 -31.726224 -0.775716
-37.592803 -30.692777 -1.018253
-37.935541 -31.533046 -2.641135
-37.73321 -31.123138 -1.855719
-38.76021 -9.604449 -24.755314
-38.68005 -10.592088 -23.909359
-38.838611 -8.678798 -25.57016
-39.213865 -9.682436 -25.558903
-38.76021 -9.604449 -24.755314
-32.042501 -51.63999 -3.599006
-31.653581 -52.288347 -2.293593
-32.244991 -51.217373 -2.66468
-38.583616 -38.223255 -23.596711
-38.592502 -37.931205 -22.71333
-40.383032 -28.368916 -23.472895
-40.50516 -27.077918 -23.557195
-36.416199 -43.240002 0.798146
-35.953199 -44.326729 1.22039
-36.179518 -43.855396 2.068696
-17.199841 67.407921 -22.206187
-17.237327 65.890224 -21.569412
-38.275904 4.862747 -37.932926
-38.694233 3.76644 -37.626969
-38.268862 4.155968 -36.811008
-24.94352 -67.162045 -4.142758
-24.488591 -67.653896 -2.762042
-25.499893 -65.915897 -4.3868
-24.94352 -67.162045 -4.142758
-33.334806 -49.269011 -1.309477
-32.761421 -50.270113 -0.992829
-35.234135 -45.638975 -1.616227
-34.94636 -46.309244 -0.319032
-35.469519 -45.229198 -0.65454
-33.955435 9.519502 -35.43618
-34.591043 8.698684 -35.309042
-33.987194 12.345664 -39.339168
-34.022046 11.403121 -38.044579
-33.366817 12.302661 -38.27169
-31.236747 15.723386 -40.184801
-31.258139 14.876788 -38.961285
-32.927049 17.937544 -48.628519
-32.185726 18.906807 -48.948679
-20.623603 22.436943 38.704952
-20.033876 21.878767 39.647182
-20.557915 23.775833 38.302364
-21.189963 22.951269 37.76252
-20.623603 22.436943 38.704952
-19.889074 24.621122 38.88069
-20.455435 25.135448 37.938257
-20.557915 23.775833 38.302364
-17.727764 26.805591 40.755985
-18.479529 26.047681 40.139866
-17.886395 25.403712 41.07032
-16.944363 27.644461 41.360095
-17.727764 26.805591 40.755985
-37.305975 -41.151359 4.317316
-37.167484 -41.636248 5.567781
-37.60109 -40.097753 3.914557
-37.382036 -40.709642 3.050534
-37.305975 -41.151359 4.317316
26.285238 36.935652 60.118701
25.629298 36.496096 60.78257
27.790001 37.706667 57.916359
27.349269 37.415256 58.733559
27.708524 35.76599 58.824021
28.252271 37.741709 57.099699
27.893016 39.390976 57.009237
27.790001 37.706667 57.916359
29.094574 30.778775 57.645474
28.788253 30.711781 58.614841
29.577404 37.953038 53.174009
29.33757 39.735449 53.259816
29.279885 38.024085 54.221495
-37.711475 -2.396323 -28.560119
-37.584192 -3.248836 -27.649415
-37.787667 -1.541179 -29.465736
-38.246601 -2.458964 -29.437444
-37.711475 -2.396323 -28.560119
-37.345221 -0.539196 -29.601381
-37.880347 -0.601838 -30.478706
-37.787667 -1.541179 -29.465736
-37.930521 -39.237224 9.073821
-37.912264 -39.465771 10.276626
-38.130207 -38.455925 9.861341
-38.005617 -38.817532 7.79775
-37.787674 -39.827377 8.213034
-37.930521 -39.237224 9.073821
-37.80858 -31.837437 3.12098
-37.640047 -31.362993 1.991808
-38.002071 -32.839359 3.446026
-37.920431 -32.312874 4.291203
-37.80858 -31.837437 3.12098
-38.57345 -29.390614 -9.512
-38.519014 -30.288303 -8.393819
-38.668988 -28.474842 -10.599509
-38.803488 -29.608753 -10.366768
-38.57345 -29.390614 -9.512
-38.906498 -25.765982 -13.640201
-38.838217 -26.645519 -12.69722
-38.998132 -24.755429 -14.651864
-39.202143 -25.818993 -14.597267
-38.906498 -25.765982 -13.640201
-38.945366 -21.624563 -16.709585
-38.566752 -21.675418 -15.754343
-38.639997 -20.665222 -16.682832
-38.406261 -13.524858 -21.352628
-38.300238 -14.585226 -20.405535
-26.668242 -62.925736 -3.983324
-26.227833 -63.453121 -2.623212
-26.783735 -62.292659 -3.010988
-29.078758 -57.697501 -4.658739
-29.205686 -57.188532 -3.733521
-29.676305 -56.54147 -5.022667
-28.953278 -58.244102 -5.539174
-28.48266 -58.891165 -4.250028
-29.078758 -57.697501 -4.658739
-29.176403 -59.802046 -10.590566
-28.558699 -61.095883 -10.132465
-28.633131 -60.483759 -9.24702
-30.744578 -57.698161 -14.274135
-30.23223 -58.371742 -13.015177
-30.805856 -57.087393 -13.367316
-31.279477 -56.971131 -15.531181
-30.744578 -57.698161 -14.274135
-32.831505 -54.604484 -19.05939
-32.339216 -55.37685 -17.906824
-32.886809 -54.025787 -18.169574
-33.376322 -53.674374 -20.237899
-32.831505 -54.604484 -19.05939
-34.926331 -50.757379 -23.831962
-34.416601 -51.789217 -22.648062
-34.954088 -50.304612 -22.904194
-35.395316 -49.772671 -24.971193
-34.926331 -50.757379 -23.831962
-35.90513 -48.293161 -25.300234
-35.395316 -49.772671 -24.971193
-37.320609 -43.903134 -26.126629
-36.860489 -45.358561 -25.820881
-36.889155 -44.984976 -24.952639
-37.759104 -42.367541 -26.42203
-37.320609 -43.903134 -26.126629
-39.807004 -32.247738 -22.904591
-39.784206 -32.14267 -22.062407
-40.022008 -31.034035 -23.09652
-39.555471 -33.614018 -22.634729
-39.807004 -32.247738 -22.904591
-40.897011 -21.205115 -25.624948
-40.882176 -22.400098 -25.543146
-40.798348 -22.339659 -24.668959
-41.107285 -17.684404 -28.263872
-41.050673 -18.830628 -27.426147
-41.029398 -17.701932 -27.426772
-41.156431 -16.5407 -29.079736
-41.107285 -17.684404 -28.263872
-41.119619 -15.464551 -29.005676
-41.156431 -16.5407 -29.079736
-40.584114 -5.499941 -33.31346
-40.407224 -4.322159 -33.679437
-39.655678 -0.945723 -34.639717
-39.379404 0.159384 -34.965961
-37.838915 7.439854 -40.785669
-37.406445 7.794672 -39.901075
-37.318861 8.593452 -41.123901
-38.309044 6.216208 -40.421818
-37.838915 7.439854 -40.785669
-26.656019 22.547151 -45.160376
-25.837972 23.344823 -45.315049
-27.227784 22.648019 -46.400435
-27.494204 21.749002 -44.975144
-26.656019 22.547151 -45.160376
-25.332163 25.691145 -50.546244
-24.877668 25.702364 -49.250219
-24.447291 26.423305 -50.562957
-41.063803 -10.424271 -31.380195
-41.090945 -11.489997 -30.856314
-41.021572 -9.532584 -31.827257
-41.063803 -10.424271 -31.380195
-40.965147 -9.723695 -31.121309
-40.960829 -8.500103 -32.306345
-41.021572 -9.532584 -31.827257
-24.599034 -66.970642 -1.737964
-24.488591 -67.653896 -2.762042
-24.046449 -68.158756 -1.393764
-32.651769 13.16722 -38.461601
-33.366817 12.302661 -38.27169
-30.954335 17.57752 -42.851486
-31.098176 16.64639 -41.49851
-30.325094 17.487702 -41.708471
-31.407362 19.806242 -49.188009
-32.185726 18.906807 -48.948679
-31.70758 19.093754 -47.85746
-19.376004 22.581246 40.227248
-20.033876 21.878767 39.647182
-18.699306 23.273393 40.83195
-19.314857 23.953654 39.849499
-19.376004 22.581246 40.227248
-17.964387 24.034372 41.435805
-18.699306 23.273393 40.83195
-17.212623 24.792283 42.051924
-17.886395 25.403712 41.07032
-17.964387 24.034372 41.435805
-37.40884 -41.025453 6.408389
-37.167484 -41.636248 5.567781
27.215314 33.582964 60.418026
26.731314 35.221607 60.314213
26.678836 33.329992 61.091019
27.661392 33.843031 59.655538
27.215314 33.582964 60.418026
27.608914 31.951416 60.432344
29.602711 30.923367 55.681509
29.385223 30.919571 56.678728
29.634068 32.635652 54.934832
29.602711 30.923367 55.681509
29.69352 34.366171 54.025253
29.460267 34.511155 55.045267
29.634068 32.635652 54.934832
29.746372 36.048815 53.100096
29.69352 34.366171 54.025253
-13.68185 67.13364 -28.000971
-13.2292 67.429378 -28.936943
-13.725832 65.691723 -27.270254
-13.68185 67.13364 -28.000971
-13.340561 64.489739 -27.421289
-13.725832 65.691723 -27.270254
-13.340561 64.489739 -27.421289
-12.967788 64.763162 -28.298908
-38.448929 -35.754805 9.766382
-38.512739 -35.915596 11.007597
-38.548277 -34.913966 10.477135
-37.537076 -30.828963 0.884781
-37.395271 -30.328688 -0.167051
-37.787249 -31.829892 1.168777
-37.640047 -31.362993 1.991808
-37.537076 -30.828963 0.884781
-38.051581 -31.925233 -3.451191
-38.081131 -32.548773 -2.423236
-37.935541 -31.533046 -2.641135
-38.078035 -31.285453 -4.48192
-38.223625 -32.30118 -4.264021
-38.051581 -31.925233 -3.451191
-38.699297 -19.610609 -17.618414
-38.639997 -20.665222 -16.682832
-38.778629 -18.593483 -18.522686
-39.097944 -19.597242 -18.542347
-38.699297 -19.610609 -17.618414
-38.85751 -17.55309 -19.443636
-38.778629 -18.593483 -18.522686
-38.974239 -16.554488 -20.403166
-39.294006 -17.581514 -20.406149
-38.85751 -17.55309 -19.443636
-38.600935 -11.564806 -23.083079
-38.496237 -12.552996 -22.201932
-39.056349 -11.580803 -23.917777
-38.600935 -11.564806 -23.083079
-38.68005 -10.592088 -23.909359
-27.346781 -61.15506 -3.403333
-26.783735 -62.292659 -3.010988
-31.027664 -53.377365 -1.917339
-31.653581 -52.288347 -2.293593
-30.808986 -53.862314 -2.775669
-31.027664 -53.377365 -1.917339
-38.238095 -39.568014 -23.293828
-37.820927 -41.000593 -23.031008
-37.830464 -40.695194 -22.194906
-38.238095 -39.568014 -23.293828
-38.583616 -38.223255 -23.596711
-40.205275 -29.722465 -23.27131
-40.176968 -29.575418 -22.45592
-40.383032 -28.368916 -23.472895
-40.022008 -31.034035 -23.09652
-40.205275 -29.722465 -23.27131
-40.157478 -3.17189 -33.963575
-40.407224 -4.322159 -33.679437
-40.13075 -3.729028 -33.104355
-37.229973 9.409589 -42.437912
-37.318861 8.593452 -41.123901
-36.797503 9.764408 -41.553318
-25.53057 24.194354 -46.624396
-25.837972 23.344823 -45.315049
-26.1771 25.595093 -53.055239
-25.801052 25.663274 -51.804149
-25.277835 26.343905 -53.110071
-27.090021 24.801697 -52.888195
-26.1771 25.595093 -53.055239
-28.011054 23.960006 -52.719103
-27.62135 24.072772 -51.580225
-27.090021 24.801697 -52.888195
-28.900026 23.111688 -52.541912
-28.011054 23.960006 -52.719103
-35.685812 -44.805401 0.296247
-35.953199 -44.326729 1.22039
-35.973587 -44.135131 -1.000948
-35.469519 -45.229198 -0.65454
-35.685812 -44.805401 0.296247
-29.519234 18.323999 -41.889066
-30.325094 17.487702 -41.708471
-29.393845 19.231863 -43.271345
-29.519234 18.323999 -41.889066
-29.226182 20.062954 -44.627678
-30.013589 19.249924 -44.41778
-29.393845 19.231863 -43.271345
-16.715316 64.765467 -21.862038
-17.237327 65.890224 -21.569412
-16.324018 65.326229 -22.711189
-16.715316 64.765467 -21.862038
-38.536879 -33.96357 10.001127
-38.548277 -34.913966 10.477135
-38.421143 -33.73963 8.895074
-38.536879 -33.96357 10.001127
-38.335318 -33.377844 7.733094
-38.398642 -34.391388 8.07394
-38.421143 -33.73963 8.895074
-38.588262 -37.706461 -21.839162
-38.592502 -37.931205 -22.71333
-38.243391 -39.03787 -21.583558
-40.602896 -25.817903 -23.603821
-40.50516 -27.077918 -23.557195
-40.452461 -26.961855 -22.704132
-40.666855 -24.618242 -23.668958
-40.719553 -24.734305 -24.522021
-40.602896 -25.817903 -23.603821
-39.037075 1.149417 -35.156774
-39.379404 0.159384 -34.965961
-38.980791 0.559065 -34.182699
-39.061439 1.904698 -36.222544
-39.037075 1.149417 -35.156774
-38.662826 2.30438 -35.439281
-39.065392 2.593455 -37.312895
-39.061439 1.904698 -36.222544
-39.065392 2.593455 -37.312895
-38.694233 3.76644 -37.626969
-36.077427 12.215944 -44.453312
-35.432057 13.368194 -44.803111
-24.028654 27.073888 -51.741138
-24.447291 26.423305 -50.562957
-24.329564 27.076555 -53.031216
-24.028654 27.073888 -51.741138
-25.277835 26.343905 -53.110071
-24.329564 27.076555 -53.031216
25.550495 34.569187 61.568673
25.629298 36.496096 60.78257
26.114075 32.935699 61.793713
25.550495 34.569187 61.568673
26.678836 33.329992 61.091019
26.114075 32.935699 61.793713
-32.469942 -50.784699 -1.806072
-32.761421 -50.270113 -0.992829
-32.858862 -50.136342 -3.111485
-32.244991 -51.217373 -2.66468
-32.469942 -50.784699 -1.806072
-34.420986 -47.317114 -0.018478
-34.94636 -46.309244 -0.319032
-34.148388 -47.776687 -0.823397
-34.420986 -47.317114 -0.018478
-33.880961 -48.262241 -1.677752
-34.148388 -47.776687 -0.823397
-34.443549 -47.204574 -2.135073
-33.629967 -48.696898 -2.621154
-33.334806 -49.269011 -1.309477
-33.880961 -48.262241 -1.677752
-35.218333 7.726076 -35.081726
-35.804159 6.812081 -34.869345
-35.126713 6.869739 -33.88381
-35.26849 8.641027 -36.294577
-35.218333 7.726076 -35.081726
-34.591043 8.698684 -35.309042
-34.021435 10.486877 -36.749496
-33.955435 9.519502 -35.43618
-34.641812 10.529879 -37.816975
-34.021435 10.486877 -36.749496
-34.022046 11.403121 -38.044579
-31.988065 13.989718 -38.685514
-31.258139 14.876788 -38.961285
-32.668262 14.067702 -39.790194
-32.651769 13.16722 -38.461601
-31.988065 13.989718 -38.685514
-31.865988 15.813204 -41.327816
-31.236747 15.723386 -40.184801
-31.098176 16.64639 -41.49851
-34.785458 14.421523 -45.189816
-35.432057 13.368194 -44.803111
-34.977081 13.631618 -43.875761
-34.569716 15.224524 -46.55254
-34.785458 14.421523 -45.189816
-34.11474 15.487948 -45.625191
-34.308515 15.976162 -47.957521
-34.569716 15.224524 -46.55254
-33.633577 16.985859 -48.313412
-33.19247 17.242634 -47.303022
-32.927049 17.937544 -48.628519
-34.308515 15.976162 -47.957521
-33.633577 16.985859 -48.313412
-21.74454 23.536956 36.784394
-21.189963 22.951269 37.76252
-21.70503 24.838755 36.295797
-21.74454 23.536956 36.784394
-21.011302 25.658145 36.956049
-21.70503 24.838755 36.295797
-21.011302 25.658145 36.956049
-20.455435 25.135448 37.938257
-19.212377 25.31327 39.485391
-19.889074 24.621122 38.88069
-19.314857 23.953654 39.849499
-19.212377 25.31327 39.485391
-18.479529 26.047681 40.139866
-16.434821 25.566448 42.631873
-17.212623 24.792283 42.051924
-16.373908 27.01098 42.206366
-16.434821 25.566448 42.631873
-16.944363 27.644461 41.360095
-16.373908 27.01098 42.206366
-36.469942 -43.290447 2.861064
-36.179518 -43.855396 2.068696
-36.864719 -42.265958 2.549872
-36.469942 -43.290447 2.861064
-37.223156 -41.223349 2.267399
-37.000953 -41.726059 1.36398
-36.864719 -42.265958 2.549872
-37.51827 -40.169742 1.864641
-37.223156 -41.223349 2.267399
-37.382036 -40.709642 3.050534
26.821717 37.188623 59.445707
26.285238 36.935652 60.118701
26.731314 35.221607 60.314213
26.821717 37.188623 59.445707
27.349269 37.415256 58.733559
27.998475 41.265776 56.02029
27.893016 39.390976 57.009237
28.441676 41.269077 55.172583
27.998475 41.265776 56.02029
28.405991 30.568001 59.505602
28.045932 30.226722 60.388903
28.437255 32.355263 58.779097
28.405991 30.568001 59.505602
28.788253 30.711781 58.614841
29.110166 32.63984 56.921591
29.094574 30.778775 57.645474
29.385223 30.919571 56.678728
28.784059 41.459316 54.229945
28.441676 41.269077 55.172583
28.697668 39.616257 55.249939
29.132756 41.469733 53.255291
28.784059 41.459316 54.229945
29.132756 41.469733 53.255291
29.33757 39.735449 53.259816
29.577404 37.953038 53.174009
29.746372 36.048815 53.100096
-16.780199 67.801246 -23.041846
-17.199841 67.407921 -22.206187
-16.359773 66.805382 -23.32351
-16.780199 67.801246 -23.041846
-16.324018 65.326229 -22.711189
-16.359773 66.805382 -23.32351
-38.127688 -6.807663 -25.694822
-38.503475 -7.709229 -25.63946
-38.261385 -5.917473 -26.594575
-38.127688 -6.807663 -25.694822
-38.404829 -5.088985 -27.525344
-38.765438 -5.989159 -27.443119
-38.261385 -5.917473 -26.594575
-38.035593 -4.165704 -27.604313
-37.584192 -3.248836 -27.649415
-38.539646 -4.23739 -28.452857
-38.404829 -5.088985 -27.525344
-38.035593 -4.165704 -27.604313
-36.880976 0.435797 -29.786494
-37.345221 -0.539196 -29.601381
-36.973278 1.372666 -30.814534
-36.880976 0.435797 -29.786494
-37.112898 2.185707 -31.904772
-37.57752 1.213187 -31.704589
-36.973278 1.372666 -30.814534
-36.654438 3.197411 -32.154282
-37.25868 3.037932 -33.044337
-37.112898 2.185707 -31.904772
-36.140631 4.116779 -32.353878
-36.654438 3.197411 -32.154282
-35.59679 5.069835 -32.54267
-36.25638 5.00269 -33.482638
-36.140631 4.116779 -32.353878
-35.058293 5.934559 -32.747931
-35.59679 5.069835 -32.54267
-35.126713 6.869739 -33.88381
-35.058293 5.934559 -32.747931
-38.408631 -36.951723 11.518785
-38.512739 -35.915596 11.007597
-38.25791 -37.915741 11.902436
-38.408631 -36.951723 11.518785
-38.26267 -37.720453 10.680495
-38.038908 -38.951204 12.276217
-38.25791 -37.915741 11.902436
-37.838527 -39.71652 11.549179
-38.038908 -38.951204 12.276217
-37.838527 -39.71652 11.549179
-37.912264 -39.465771 10.276626
-37.577711 -40.45956 7.2862
-37.787674 -39.827377 8.213034
-37.693899 -39.973578 6.059151
-37.40884 -41.025453 6.408389
-37.577711 -40.45956 7.2862
-38.186523 -33.046261 6.61838
-38.335318 -33.377844 7.733094
-38.087076 -32.688858 5.470524
-37.920431 -32.312874 4.291203
-38.213369 -33.672199 5.764105
-38.186523 -33.046261 6.61838
-38.087076 -32.688858 5.470524
-38.068815 -30.585356 -5.54463
-38.078035 -31.285453 -4.48192
-38.290079 -30.856741 -6.401565
-38.068815 -30.585356 -5.54463
-38.432058 -31.088865 -7.311509
-38.39206 -31.893524 -6.204693
-38.290079 -30.856741 -6.401565
-38.620995 -31.325086 -8.196948
-38.432058 -31.088865 -7.311509
-38.519014 -30.288303 -8.393819
-38.732475 -27.577236 -11.631557
-38.668988 -28.474842 -10.599509
-39.004767 -27.761263 -12.519941
-38.732475 -27.577236 -11.631557
-38.838217 -26.645519 -12.69722
-38.488001 -22.585794 -14.824496
-38.566752 -21.675418 -15.754343
-38.787304 -23.668588 -14.737947
-38.488001 -22.585794 -14.824496
-39.082949 -23.721599 -15.695013
-38.998132 -24.755429 -14.651864
-38.787304 -23.668588 -14.737947
-38.667513 -15.511654 -20.41677
-38.300238 -14.585226 -20.405535
-39.10401 -15.540078 -21.379283
-38.974239 -16.554488 -20.403166
-38.667513 -15.511654 -20.41677
-38.887259 -13.525382 -22.242192
-38.406261 -13.524858 -21.352628
-38.496237 -12.552996 -22.201932
-25.154535 -65.790138 -2.095556
-24.599034 -66.970642 -1.737964
-24.712392 -66.294998 -0.727278
-25.690116 -64.600346 -2.340209
-26.227833 -63.453121 -2.623212
-25.576757 -65.27599 -3.350895
-25.154535 -65.790138 -2.095556
-25.690116 -64.600346 -2.340209
-26.035475 -64.726105 -4.631453
-25.499893 -65.915897 -4.3868
-25.576757 -65.27599 -3.350895
-26.47923 -64.22719 -5.961994
-26.035475 -64.726105 -4.631453
-26.556094 -63.587282 -4.926089
-26.955213 -63.69681 -7.314626
-26.47923 -64.22719 -5.961994
-30.564793 -54.438758 -3.615181
-30.808986 -53.862314 -2.775669
-31.206897 -53.287408 -4.067431
-29.985057 -55.523083 -3.210433
-30.564793 -54.438758 -3.615181
-30.382968 -54.948177 -4.502195
-29.385885 -56.611179 -2.779158
-29.985057 -55.523083 -3.210433
-29.385885 -56.611179 -2.779158
-29.205686 -57.188532 -3.733521
-27.913299 -59.991307 -3.783015
-28.48266 -58.891165 -4.250028
-27.790662 -60.60152 -4.750781
-27.346781 -61.15506 -3.403333
-27.913299 -59.991307 -3.783015
-27.463001 -63.041424 -8.58077
-26.955213 -63.69681 -7.314626
-27.507638 -62.432981 -7.522775
-27.986619 -62.348622 -9.799676
-27.463001 -63.041424 -8.58077
-27.986619 -62.348622 -9.799676
-28.558699 -61.095883 -10.132465
-29.697739 -59.087572 -11.792185
-29.176403 -59.802046 -10.590566
-29.772171 -58.475448 -10.906739
-29.697739 -59.087572 -11.792185
-30.23223 -58.371742 -13.015177
-31.817635 -56.163302 -16.726548
-31.279477 -56.971131 -15.531181
-31.856362 -55.605982 -15.821641
-31.817635 -56.163302 -16.726548
-32.339216 -55.37685 -17.906824
-33.908953 -52.715887 -21.436976
-33.376322 -53.674374 -20.237899
-33.911728 -52.294936 -20.521217
-33.908953 -52.715887 -21.436976
-34.416601 -51.789217 -22.648062
-36.387739 -46.876976 -25.579632
-35.90513 -48.293161 -25.300234
-35.946427 -47.856589 -24.367493
-36.387739 -46.876976 -25.579632
-36.860489 -45.358561 -25.820881
-37.8219 -41.28078 -23.823854
-37.414269 -42.407961 -22.724932
-37.820927 -41.000593 -23.031008
-37.787069 -41.672863 -24.600352
-37.8219 -41.28078 -23.823854
-37.754086 -42.093564 -25.470656
-37.382258 -43.108849 -24.388082
-37.787069 -41.672863 -24.600352
-37.759104 -42.367541 -26.42203
-37.754086 -42.093564 -25.470656
-38.941824 -36.3678 -22.111753
-38.588262 -37.706461 -21.839162
-38.592713 -37.474464 -20.98198
-39.244007 -35.003732 -22.326776
-39.257738 -34.746088 -21.562525
-39.555471 -33.614018 -22.634729
-38.941824 -36.3678 -22.111753
-39.244007 -35.003732 -22.326776
-40.835131 -23.698185 -25.454507
-40.719553 -24.734305 -24.522021
-40.835131 -23.698185 -25.454507
-40.882176 -22.400098 -25.543146
-40.976813 -20.056855 -26.54409
-40.897011 -21.205115 -25.624948
-40.892984 -19.996416 -25.669904
-40.976813 -20.056855 -26.54409
-41.050673 -18.830628 -27.426147
-41.049715 -14.501577 -28.88739
-41.119619 -15.464551 -29.005676
-41.016106 -15.592734 -28.146211
-41.076807 -13.433858 -29.60626
-41.049715 -14.501577 -28.88739
-40.973293 -13.56204 -28.746795
-41.087448 -12.429466 -30.252022
-41.076807 -13.433858 -29.60626
-41.003882 -11.554851 -30.069956
-41.090945 -11.489997 -30.856314
-41.087448 -12.429466 -30.252022
-40.854452 -7.576879 -32.603604
-40.960829 -8.500103 -32.306345
-40.81654 -7.908784 -31.86563
-40.748947 -6.553073 -32.984795
-40.54533 -5.932428 -32.491552
-40.584114 -5.499941 -33.31346
-40.854452 -7.576879 -32.603604
-40.748947 -6.553073 -32.984795
-39.934619 -2.01962 -34.33802
-39.602062 -1.504863 -33.69019
-39.655678 -0.945723 -34.639717
-40.157478 -3.17189 -33.963575
-39.934619 -2.01962 -34.33802
-38.313887 5.557146 -39.155864
-38.275904 4.862747 -37.932926
-37.888515 5.946674 -38.339905
-38.313887 5.557146 -39.155864
-38.309044 6.216208 -40.421818
-36.619894 11.217073 -44.142449
-36.166147 11.579416 -43.178192
-36.077427 12.215944 -44.453312
-37.128068 10.113393 -43.740135
-36.619894 11.217073 -44.142449
-37.229973 9.409589 -42.437912
-37.128068 10.113393 -43.740135
-28.336203 20.947382 -44.848222
-27.494204 21.749002 -44.975144
-28.955947 20.965443 -45.994658
-29.226182 20.062954 -44.627678
-28.336203 20.947382 -44.848222
-25.21704 24.956373 -47.948315
-24.877668 25.702364 -49.250219
-26.076069 24.208186 -47.909586
-25.53057 24.194354 -46.624396
-25.21704 24.956373 -47.948315
-31.058422 20.571437 -50.603609
-31.407362 19.806242 -49.188009
-30.580275 20.758384 -49.51239
-29.744502 22.257938 -52.300341
-29.386859 22.37733 -51.169562
-28.900026 23.111688 -52.541912
-30.62628 21.286883 -51.959248
-29.744502 22.257938 -52.300341
-31.058422 20.571437 -50.603609
-30.62628 21.286883 -51.959248
3 0 76 75
3 1 79 77
3 1 81 79
3 4 84 82
3 4 86 84
3 4 88 86
3 3 91 89
3 3 93 91
3 2 96 94
3 6 99 97
3 6 101 99
3 6 103 101
3 8 106 104
3 8 108 106
3 10 111 109
3 10 113 111
3 291 116 292
3 293 118 294
3 296 295 118
3 297 121 298
3 299 298 119
3 297 298 299
3 12 124 122
3 12 126 124
3 300 127 301
3 302 129 303
3 304 303 127
3 302 303 304
3 306 305 129
3 307 133 308
3 309 119 310
3 311 310 133
3 309 310 311
3 5 312 314
3 312 135 313
3 312 313 314
3 14 138 136
3 14 140 138
3 14 142 140
3 15 145 143
3 15 147 145
3 15 149 147
3 316 315 150
3 7 153 151
3 318 317 154
3 13 158 156
3 13 160 158
3 11 163 161
3 9 166 164
3 16 319 321
3 319 168 320
3 319 320 321
3 18 169 78
3 18 170 169
3 18 172 170
3 20 173 80
3 20 174 173
3 322 175 323
3 21 178 176
3 23 179 83
3 23 180 179
3 23 182 180
3 25 183 85
3 25 184 183
3 25 186 184
3 27 187 87
3 27 188 187
3 28 191 189
3 30 192 90
3 30 193 192
3 30 195 193
3 32 196 92
3 32 197 196
3 33 200 198
3 34 201 95
3 34 324 326
3 326 325 201
3 324 325 326
3 37 327 328
3 37 329 330
3 331 202 332
3 17 333 335
3 333 203 334
3 333 334 335
3 38 204 98
3 38 205 204
3 38 206 205
3 39 207 100
3 39 208 207
3 39 210 208
3 41 211 102
3 41 212 211
3 19 213 171
3 42 214 105
3 42 215 214
3 42 216 215
3 43 217 107
3 43 218 217
3 336 220 337
3 45 338 340
3 338 221 339
3 338 339 340
3 45 222 221
3 341 223 342
3 46 224 110
3 46 225 224
3 46 226 225
3 344 343 112
3 47 345 346
3 47 347 349
3 347 227 348
3 347 348 349
3 47 350 352
3 352 351 227
3 350 351 352
3 48 353 355
3 355 354 114
3 353 354 355
3 48 356 357
3 49 358 359
3 49 360 362
3 360 228 361
3 360 361 362
3 36 363 364
3 50 365 367
3 367 366 115
3 365 366 367
3 50 368 370
3 368 229 369
3 368 369 370
3 371 230 372
3 51 231 117
3 51 232 231
3 51 373 375
3 375 374 232
3 373 374 375
3 52 235 233
3 54 236 120
3 54 237 236
3 376 238 377
3 378 239 379
3 380 379 238
3 378 379 380
3 381 240 382
3 383 382 239
3 381 382 383
3 55 241 123
3 55 384 386
3 386 385 241
3 384 385 386
3 55 387 389
3 387 242 388
3 387 388 389
3 56 243 125
3 56 244 243
3 57 390 391
3 57 392 394
3 392 245 393
3 392 393 394
3 57 246 245
3 58 247 128
3 58 248 247
3 58 249 248
3 59 250 130
3 59 251 250
3 395 252 396
3 397 253 398
3 399 398 252
3 397 398 399
3 400 254 401
3 402 255 403
3 404 403 254
3 402 403 404
3 60 405 407
3 405 256 406
3 405 406 407
3 60 257 256
3 60 258 257
3 61 259 131
3 61 260 259
3 408 261 409
3 62 262 132
3 62 263 262
3 62 264 263
3 52 265 134
3 52 233 265
3 64 410 412
3 410 267 411
3 410 411 412
3 64 268 267
3 22 269 177
3 65 270 137
3 65 413 415
3 415 414 270
3 413 414 415
3 65 416 418
3 416 271 417
3 416 417 418
3 66 272 139
3 66 273 272
3 66 419 421
3 421 420 273
3 419 420 421
3 67 422 424
3 424 423 141
3 422 423 424
3 67 425 426
3 24 274 181
3 68 275 144
3 68 427 429
3 429 428 275
3 427 428 429
3 68 430 431
3 69 432 434
3 434 433 146
3 432 433 434
3 69 435 436
3 69 437 438
3 70 439 441
3 441 440 148
3 439 440 441
3 70 442 443
3 26 276 185
3 40 277 209
3 71 278 152
3 71 279 278
3 29 280 190
3 444 281 445
3 446 445 155
3 444 445 446
3 448 447 281
3 31 449 451
3 451 450 194
3 449 450 451
3 72 452 454
3 454 453 157
3 452 453 454
3 72 455 456
3 72 457 458
3 63 282 159
3 63 266 282
3 53 283 234
3 460 459 162
3 462 461 199
3 44 284 219
3 463 285 464
3 465 464 165
3 463 464 465
3 467 466 285
3 73 468 469
3 73 470 472
3 470 286 471
3 470 471 472
3 35 473 475
3 473 287 474
3 473 474 475
3 74 288 167
3 74 289 288
3 74 290 289
3 75 476 477
3 76 478 480
3 480 479 75
3 478 479 480
3 76 481 482
3 77 78 16
3 79 78 77
3 79 18 78
3 79 80 18
3 81 80 79
3 81 20 80
3 82 83 21
3 84 83 82
3 84 23 83
3 84 85 23
3 86 85 84
3 86 25 85
3 86 87 25
3 88 87 86
3 88 27 87
3 89 90 28
3 91 90 89
3 91 30 90
3 91 92 30
3 93 92 91
3 93 32 92
3 94 95 33
3 96 95 94
3 96 34 95
3 483 37 484
3 483 484 485
3 97 98 17
3 99 98 97
3 99 38 98
3 99 100 38
3 101 100 99
3 101 39 100
3 101 102 39
3 103 102 101
3 103 41 102
3 104 105 19
3 106 105 104
3 106 42 105
3 106 107 42
3 108 107 106
3 108 43 107
3 486 45 487
3 109 488 490
3 488 110 489
3 488 489 490
3 111 110 109
3 111 46 110
3 111 112 46
3 113 112 111
3 113 491 493
3 493 492 112
3 491 492 493
3 494 47 495
3 496 114 497
3 498 497 47
3 496 497 498
3 499 114 500
3 501 48 502
3 503 502 114
3 501 502 503
3 504 49 505
3 506 115 507
3 508 507 36
3 506 507 508
3 116 509 511
3 509 115 510
3 509 510 511
3 116 50 115
3 512 117 513
3 514 117 515
3 516 51 517
3 518 517 117
3 516 517 518
3 520 519 51
3 118 521 522
3 118 523 524
3 118 525 526
3 528 527 118
3 119 120 52
3 121 120 119
3 121 54 120
3 122 529 531
3 529 123 530
3 529 530 531
3 124 123 122
3 124 55 123
3 124 125 55
3 126 125 124
3 126 56 125
3 127 532 533
3 127 534 536
3 534 57 535
3 534 535 536
3 127 128 57
3 129 128 127
3 129 58 128
3 129 130 58
3 537 130 538
3 539 538 129
3 537 538 539
3 540 59 541
3 542 541 130
3 540 541 542
3 543 60 544
3 545 131 546
3 547 546 60
3 545 546 547
3 548 131 549
3 550 61 551
3 552 551 131
3 550 551 552
3 553 132 554
3 133 555 557
3 555 132 556
3 555 556 557
3 133 62 132
3 133 134 62
3 119 134 133
3 119 52 134
3 558 64 559
3 135 560 561
3 135 562 563
3 136 137 22
3 138 137 136
3 138 65 137
3 138 139 65
3 140 139 138
3 140 66 139
3 140 141 66
3 142 141 140
3 142 67 141
3 143 144 24
3 145 144 143
3 145 68 144
3 145 146 68
3 147 146 145
3 147 69 146
3 147 148 69
3 149 148 147
3 149 70 148
3 150 564 566
3 566 565 26
3 564 565 566
3 568 567 150
3 151 152 40
3 153 152 151
3 153 71 152
3 154 155 29
3 569 155 570
3 571 570 154
3 569 570 571
3 573 572 155
3 156 157 31
3 158 157 156
3 158 72 157
3 158 159 72
3 160 159 158
3 160 63 159
3 161 162 53
3 163 162 161
3 163 574 576
3 576 575 162
3 574 575 576
3 164 165 44
3 166 165 164
3 166 577 579
3 579 578 165
3 577 578 579
3 580 73 581
3 582 167 583
3 584 583 35
3 582 583 584
3 585 167 586
3 587 74 588
3 589 588 167
3 587 588 589
3 591 590 74
3 168 592 593
3 168 594 596
3 594 17 595
3 594 595 596
3 78 168 16
3 169 168 78
3 169 17 168
3 169 97 17
3 170 97 169
3 170 6 97
3 170 171 6
3 172 171 170
3 172 19 171
3 80 172 18
3 173 172 80
3 173 19 172
3 173 104 19
3 174 104 173
3 174 8 104
3 597 109 598
3 599 109 600
3 601 10 602
3 603 602 109
3 601 602 603
3 175 604 605
3 175 606 607
3 608 122 609
3 610 122 611
3 612 12 613
3 614 613 122
3 612 613 614
3 176 177 5
3 178 177 176
3 178 22 177
3 83 178 21
3 179 178 83
3 179 22 178
3 179 136 22
3 180 136 179
3 180 14 136
3 180 181 14
3 182 181 180
3 182 24 181
3 85 182 23
3 183 182 85
3 183 24 182
3 183 143 24
3 184 143 183
3 184 15 143
3 184 185 15
3 186 185 184
3 186 26 185
3 87 186 25
3 187 186 87
3 187 26 186
3 187 150 26
3 188 150 187
3 188 615 617
3 617 616 150
3 615 616 617
3 189 190 7
3 191 190 189
3 191 29 190
3 90 191 28
3 192 191 90
3 192 29 191
3 192 154 29
3 193 154 192
3 193 618 620
3 620 619 154
3 618 619 620
3 193 621 623
3 621 194 622
3 621 622 623
3 195 194 193
3 195 31 194
3 92 195 30
3 196 195 92
3 196 31 195
3 196 156 31
3 197 156 196
3 197 13 156
3 198 199 11
3 200 199 198
3 200 624 626
3 626 625 199
3 624 625 626
3 95 200 33
3 201 200 95
3 201 627 629
3 629 628 200
3 627 628 629
3 201 630 631
3 633 632 201
3 635 634 9
3 636 35 637
3 638 35 639
3 641 640 35
3 642 36 643
3 644 36 645
3 647 646 36
3 202 648 649
3 202 650 652
3 650 5 651
3 650 651 652
3 203 653 654
3 203 655 656
3 98 203 17
3 204 203 98
3 204 657 659
3 659 658 203
3 657 658 659
3 204 660 662
3 660 202 661
3 660 661 662
3 205 202 204
3 205 5 202
3 205 176 5
3 206 176 205
3 206 21 176
3 100 206 38
3 207 206 100
3 207 21 206
3 207 82 21
3 208 82 207
3 208 4 82
3 208 209 4
3 210 209 208
3 210 40 209
3 102 210 39
3 211 210 102
3 211 40 210
3 211 151 40
3 212 151 211
3 212 7 151
3 171 103 6
3 213 103 171
3 213 41 103
3 105 213 19
3 214 213 105
3 214 41 213
3 214 212 41
3 215 212 214
3 215 7 212
3 215 189 7
3 216 189 215
3 216 28 189
3 107 216 42
3 217 216 107
3 217 28 216
3 217 89 28
3 218 89 217
3 218 3 89
3 663 219 664
3 665 664 2
3 663 664 665
3 220 666 668
3 666 219 667
3 666 667 668
3 220 44 219
3 669 220 670
3 221 671 673
3 671 220 672
3 671 672 673
3 221 44 220
3 221 164 44
3 222 164 221
3 222 9 164
3 223 674 675
3 223 676 678
3 676 45 677
3 676 677 678
3 110 679 681
3 679 223 680
3 679 680 681
3 224 223 110
3 224 45 223
3 224 222 45
3 225 222 224
3 225 9 222
3 225 682 684
3 684 683 9
3 682 683 684
3 226 685 687
3 687 686 225
3 685 686 687
3 226 688 689
3 112 226 46
3 690 226 691
3 692 691 112
3 690 691 692
3 694 693 226
3 227 695 696
3 227 697 698
3 227 699 700
3 702 701 227
3 114 703 705
3 705 704 47
3 703 704 705
3 707 706 114
3 708 48 709
3 710 48 711
3 713 712 48
3 714 16 715
3 716 16 717
3 718 77 719
3 720 719 16
3 718 719 720
3 228 721 723
3 721 77 722
3 721 722 723
3 228 1 77
3 115 724 726
3 726 725 36
3 724 725 726
3 728 727 115
3 229 729 730
3 229 731 732
3 733 116 734
3 230 735 737
3 735 116 736
3 735 736 737
3 230 50 116
3 117 738 740
3 738 230 739
3 738 739 740
3 231 230 117
3 231 50 230
3 231 229 50
3 232 229 231
3 232 741 743
3 743 742 229
3 741 742 743
3 232 744 745
3 747 746 232
3 749 748 51
3 750 175 751
3 752 175 753
3 755 754 175
3 233 234 0
3 235 234 233
3 235 53 234
3 120 235 52
3 236 235 120
3 236 53 235
3 236 161 53
3 237 161 236
3 237 11 161
3 756 121 757
3 758 121 759
3 760 54 761
3 762 761 121
3 760 761 762
3 238 763 764
3 238 765 767
3 765 54 766
3 765 766 767
3 238 237 54
3 239 237 238
3 239 11 237
3 239 198 11
3 240 198 239
3 240 33 198
3 768 240 769
3 770 240 771
3 772 33 773
3 774 773 240
3 772 773 774
3 775 94 776
3 777 776 33
3 775 776 777
3 778 94 779
3 780 2 781
3 782 781 94
3 780 781 782
3 783 2 784
3 786 785 2
3 123 787 788
3 241 789 791
3 791 790 123
3 789 790 791
3 241 792 793
3 241 794 795
3 797 796 241
3 242 798 799
3 242 800 802
3 800 49 801
3 800 801 802
3 125 242 55
3 243 242 125
3 243 49 242
3 243 228 49
3 244 228 243
3 244 1 228
3 803 12 804
3 245 805 806
3 245 807 809
3 807 12 808
3 807 808 809
3 245 126 12
3 246 126 245
3 246 56 126
3 128 246 57
3 247 246 128
3 247 56 246
3 247 244 56
3 248 244 247
3 248 1 244
3 248 81 1
3 249 81 248
3 249 20 81
3 130 249 58
3 250 249 130
3 250 20 249
3 250 174 20
3 251 174 250
3 251 8 174
3 810 59 811
3 812 59 813
3 814 251 815
3 816 815 59
3 814 815 816
3 252 817 819
3 817 251 818
3 817 818 819
3 252 8 251
3 252 108 8
3 253 108 252
3 253 43 108
3 820 253 821
3 254 822 824
3 822 253 823
3 822 823 824
3 254 43 253
3 254 218 43
3 255 218 254
3 255 3 218
3 256 825 826
3 256 827 828
3 256 829 831
3 829 255 830
3 829 830 831
3 257 255 256
3 257 3 255
3 257 93 3
3 258 93 257
3 258 32 93
3 131 258 60
3 259 258 131
3 259 32 258
3 259 197 32
3 260 197 259
3 260 13 197
3 261 832 833
3 261 834 836
3 834 61 835
3 834 835 836
3 132 837 839
3 837 261 838
3 837 838 839
3 262 261 132
3 262 61 261
3 262 260 61
3 263 260 262
3 263 13 260
3 263 160 13
3 264 160 263
3 264 63 160
3 134 264 62
3 265 264 134
3 265 63 264
3 265 266 63
3 233 266 265
3 233 0 266
3 840 37 841
3 840 841 842
3 267 843 844
3 267 845 847
3 845 37 846
3 845 846 847
3 267 848 850
3 850 849 37
3 848 849 850
3 268 851 853
3 853 852 267
3 851 852 853
3 268 854 855
3 177 135 5
3 269 135 177
3 269 856 858
3 858 857 135
3 856 857 858
3 137 269 22
3 270 269 137
3 270 859 861
3 861 860 269
3 859 860 861
3 270 862 863
3 865 864 270
3 271 866 867
3 271 868 870
3 868 64 869
3 868 869 870
3 139 271 65
3 272 271 139
3 272 64 271
3 272 268 64
3 273 268 272
3 273 871 873
3 873 872 268
3 871 872 873
3 273 874 875
3 877 876 273
3 141 878 880
3 880 879 66
3 878 879 880
3 882 881 141
3 181 142 14
3 274 142 181
3 274 67 142
3 144 274 24
3 275 274 144
3 275 67 274
3 275 883 885
3 885 884 67
3 883 884 885
3 887 886 275
3 146 888 890
3 890 889 68
3 888 889 890
3 892 891 146
3 148 893 895
3 895 894 69
3 893 894 895
3 897 896 148
3 185 149 15
3 276 149 185
3 276 70 149
3 898 276 899
3 900 899 26
3 898 899 900
3 901 276 902
3 903 70 904
3 905 904 276
3 903 904 905
3 907 906 70
3 209 88 4
3 277 88 209
3 277 27 88
3 152 277 40
3 278 277 152
3 278 27 277
3 278 188 27
3 279 188 278
3 279 908 910
3 910 909 188
3 908 909 910
3 190 153 7
3 280 153 190
3 280 71 153
3 155 280 29
3 281 280 155
3 281 71 280
3 281 279 71
3 911 279 912
3 913 912 281
3 911 912 913
3 915 914 279
3 194 916 917
3 919 918 194
3 157 920 922
3 922 921 31
3 920 921 922
3 924 923 157
3 159 925 927
3 927 926 72
3 925 926 927
3 282 928 930
3 930 929 159
3 928 929 930
3 282 931 932
3 282 933 935
3 933 75 934
3 933 934 935
3 266 75 282
3 266 0 75
3 234 76 0
3 283 76 234
3 283 936 938
3 938 937 76
3 936 937 938
3 162 283 53
3 939 283 940
3 941 940 162
3 939 940 941
3 943 942 283
3 199 163 11
3 944 163 945
3 946 945 199
3 944 945 946
3 948 947 163
3 219 96 2
3 284 96 219
3 284 34 96
3 165 284 44
3 285 284 165
3 285 34 284
3 285 949 951
3 951 950 34
3 949 950 951
3 953 952 285
3 954 166 955
3 956 955 9
3 954 955 956
3 957 166 958
3 960 959 166
3 286 961 962
3 286 963 965
3 963 10 964
3 963 964 965
3 287 966 967
3 287 968 970
3 968 73 969
3 968 969 970
3 167 287 35
3 288 287 167
3 288 73 287
3 288 286 73
3 289 286 288
3 289 10 286
3 289 113 10
3 290 113 289
3 290 971 973
3 973 972 113
3 971 972 973
3 974 290 975
3 976 975 74
3 974 975 976
3 977 290 978
3 980 979 290
