ply
format ascii 1.0
element vertex 884
property float x
property float y
property float z
element face 863
property list uchar int vertex_index
end_header
27.714834 -72.507332 22.778091
24.286526 -71.609108 42.028896
37.624447 10.544029 18.289042
28.945545 -28.682827 36.169899
25.263338 -62.508976 51.216633
27.412006 -70.543121 13.062035
36.028435 -6.34866 20.218523
38.860489 -3.581702 11.502884
36.584541 -19.749786 12.602581
34.187229 -32.794403 3.863836
26.680336 -73.189728 32.563766
28.407644 -43.19997 47.939796
27.834448 -53.673588 50.338791
27.722185 -63.710159 41.981747
27.743368 -71.547562 17.988255
27.183891 -76.84726 18.158243
28.257017 -68.030876 27.363279
28.324148 -67.326286 22.463676
28.166286 -66.154556 17.680223
35.04092 -14.470881 20.673992
36.592594 -13.051272 16.618452
35.382965 -21.024178 16.931101
35.064598 -27.582048 12.72595
25.681789 -72.774918 37.222168
24.846321 -77.120102 32.403664
23.304192 -76.120277 36.762051
27.56798 -48.878056 54.170975
26.675606 -53.468975 55.069038
24.913929 -67.165825 46.775677
26.739248 -63.246151 46.769405
26.33005 -68.156731 42.116184
27.339298 -68.443413 37.334591
30.295212 -19.907303 31.567774
29.838181 -27.1752 32.175602
28.732792 -48.110203 44.358139
28.699644 -42.503819 42.979282
39.089962 11.955677 13.647869
32.148197 -38.313004 -0.512878
22.479637 -70.25695 46.032742
23.075033 -65.933945 50.74984
26.828699 -69.162819 8.32395
27.72868 -64.945511 12.662663
36.918377 1.750181 19.392809
38.51786 3.662129 14.908507
37.607395 -5.061646 15.995049
37.812187 -12.193052 12.140688
37.306957 -18.964251 7.964729
35.783794 -26.365383 8.231239
34.03297 -33.631683 8.427565
27.376463 -72.999916 27.772379
26.784288 -77.556808 22.937258
25.959841 -77.775291 27.685669
28.305798 -48.627792 49.285706
28.522139 -53.71851 45.426003
26.859201 -58.316387 51.048435
27.921341 -58.594204 46.291359
28.561804 -58.557541 41.407265
27.90407 -68.599739 32.416153
35.891235 8.304079 22.595407
35.152084 -0.16879 23.39883
34.314442 -8.517431 23.879028
30.941992 -12.383764 30.981758
28.33551 -37.792732 46.222034
28.555483 -36.726521 41.650471
27.785528 -71.940094 20.470724
27.493624 -74.128632 18.1068
27.446394 -74.593628 20.561893
27.981812 -70.340004 25.131062
28.316702 -67.740898 24.874815
28.043243 -69.969566 22.731548
28.053967 -69.338737 20.323252
34.538067 -18.34815 20.77087
35.274223 -17.809429 18.846045
34.692825 -21.749527 18.908791
34.73103 -24.898167 16.96513
24.98608 -72.391205 39.579639
24.620121 -74.522942 37.075699
23.840202 -73.913193 39.363663
24.619848 -69.472687 44.394302
25.682417 -67.605728 44.621712
25.395712 -69.962967 42.175507
25.963625 -70.566513 39.805344
29.033983 -25.249914 35.646721
29.508404 -24.508762 33.657639
29.360149 -27.902363 34.086304
38.414841 11.465608 15.958531
22.942799 -68.058113 48.398029
27.141903 -69.89386 10.633625
26.762018 -71.943413 8.196752
27.071428 -72.614098 10.744187
27.807405 -68.159996 15.377547
27.989412 -65.488487 15.223612
27.575174 -67.670181 13.002362
27.272427 -67.099434 10.530944
36.519794 -2.231184 19.773752
37.360729 -1.626348 17.576582
36.850452 -5.786882 18.123135
36.668915 -16.519329 14.627357
37.2668 -12.634413 14.349133
37.237011 -16.156733 12.232774
37.669376 -15.635006 9.992383
36.977856 -19.569475 10.24658
36.553646 -22.781061 8.198047
36.255363 -23.172352 10.584237
34.679066 -30.474985 10.570134
27.068974 -73.195366 30.126804
26.749966 -75.398102 27.850327
26.314598 -75.529846 30.098759
23.622629 -78.937874 31.950346
24.382702 -79.352196 29.897579
27.691601 -51.300526 52.415611
27.98625 -48.833172 51.765785
28.116327 -51.116455 49.950459
28.437021 -51.091862 47.335972
28.23024 -53.651379 47.885414
25.290047 -60.084316 53.397079
26.130737 -58.063416 53.280041
26.147215 -60.467514 51.206535
27.31741 -63.403099 44.397038
27.384182 -61.020126 46.663071
27.857027 -61.14856 44.174286
28.27607 -58.772209 43.767483
28.204493 -61.189163 41.786865
28.069023 -63.679211 39.660591
26.966612 -70.948082 35.125805
27.655256 -68.541573 34.95528
27.345997 -70.974586 32.607273
27.648724 -70.791229 30.143713
35.588245 4.089708 22.948879
33.858635 -12.534002 24.092846
30.552004 -9.936952 32.401005
28.388472 -40.568913 47.068855
28.641617 -39.609077 42.155006
28.720123 -35.885578 39.26778
38.700939 -0.182735 13.379071
39.136292 4.044271 12.620554
27.634056 -70.922333 15.590124
27.299255 -73.083023 13.181357
27.424364 -73.741058 15.487224
28.305191 -66.529747 20.197311
27.970797 -68.749069 17.833529
35.548183 -10.457225 20.473856
36.368538 -9.688763 18.458696
35.845146 -13.73609 18.682959
36.014523 -17.027275 16.808023
36.026768 -20.309496 14.842434
35.84901 -23.669178 12.725397
35.340073 -24.210604 14.869024
34.640163 -27.89234 14.850358
26.216026 -73.050072 34.946735
25.837784 -75.322212 32.457912
25.283312 -74.965332 34.796513
24.102518 -76.695366 34.647915
27.183386 -51.332848 54.635117
27.340254 -53.767235 52.594093
25.136112 -64.995247 48.858097
26.044601 -62.837547 49.178532
25.925777 -65.232697 46.876442
26.5767 -65.673866 44.510601
27.1105 -65.857735 42.277912
27.523054 -66.164787 39.803696
26.872868 -68.354156 39.825356
26.580921 -70.578445 37.601952
29.653927 -20.929121 33.465733
30.036818 -23.640734 31.863588
28.582672 -45.71854 46.125069
28.562073 -42.928059 45.414673
28.745733 -45.367607 43.573475
33.239834 -36.181519 3.735108
33.23756 -35.520096 1.552463
23.402464 -71.019966 44.078362
23.003269 -73.071487 41.651382
22.068514 -72.326141 43.549217
24.333054 -62.077751 53.175335
24.282867 -64.320137 51.003143
24.086519 -66.501152 48.881466
23.839714 -68.788689 46.452255
26.431377 -68.591309 5.857347
28.657692 -29.644958 38.124798
27.431355 -64.311081 10.212433
26.902924 -66.564674 8.035624
37.30534 6.073011 18.897108
38.112263 6.804276 16.650806
37.755436 2.623369 17.183393
38.079365 -0.801874 15.505771
38.26162 -4.42381 13.835085
37.134258 -9.078538 16.306681
37.806602 -8.445017 14.121718
38.389191 -7.965984 11.739535
35.932827 -26.006802 5.873126
35.076248 -29.608335 5.951861
35.454254 -27.067793 10.472225
34.896698 -30.17745 8.222679
34.147388 -33.241547 6.058037
33.252544 -36.559887 6.121084
27.595676 -72.758392 25.239506
27.31609 -74.929398 23.018444
27.087708 -75.25589 25.297344
26.457298 -77.631538 25.329838
25.429712 -77.6147 29.949814
22.469343 -75.261581 38.976089
27.865543 -46.493271 53.336388
28.173002 -46.269787 50.949505
28.391289 -45.913567 48.664898
28.541145 -48.365376 46.850014
28.682125 -50.824818 44.815487
28.753481 -53.50156 43.062057
26.053839 -55.729103 55.20673
26.820015 -55.906693 53.004513
27.420404 -56.132057 50.681976
26.850355 -60.667114 49.017159
27.415514 -58.489223 48.866985
27.894262 -56.205181 48.361614
28.269634 -56.289055 45.915871
28.556826 -56.223564 43.506905
28.800938 -55.918354 40.967556
27.908291 -66.057983 37.328983
28.138306 -68.24939 29.836685
27.832354 -70.742462 27.602472
37.011692 13.972909 19.938313
35.577694 15.728464 23.445679
36.209389 12.78537 21.964367
36.743946 9.484996 20.586048
36.450951 5.077491 21.00316
36.096584 0.986935 21.357466
35.660236 -3.235806 21.731068
34.718185 -4.339013 23.723812
35.182095 -7.412165 22.083214
34.728619 -11.332889 22.303534
34.241215 -15.307996 22.489481
27.045923 -77.154572 20.677631
30.575157 -16.110685 31.345572
28.508135 -40.033371 44.608753
28.438694 -37.264427 43.833488
28.346588 -34.193577 43.210648
28.478846 -33.530991 40.944912
28.667789 -32.72438 38.732731
28.934444 -32.059151 36.561703
29.263309 -31.221903 34.547543
38.82325 7.838205 14.394766
33.074371 -35.082874 -0.702487
34.33358 -22.023974 19.897725
34.615446 -20.048839 19.83983
34.256201 -20.323285 20.828764
34.398361 -23.56694 18.946187
34.33358 -22.023974 19.897725
28.989764 -26.966371 35.90831
28.849645 -25.703804 36.664248
28.805425 -27.42026 36.925837
38.019644 11.004818 17.123787
38.13732 13.258242 16.767836
37.742123 12.797452 17.933091
23.408006 -80.015598 30.620102
22.928646 -79.71775 31.632781
28.398058 -41.884442 47.504326
28.320853 -40.715576 48.324326
28.330438 -42.031105 48.759796
39.07123 -1.647455 11.196008
38.991455 0.052028 12.134101
38.780714 -1.882219 12.440977
34.18968 -32.479092 2.794718
34.670702 -30.930372 3.831184
27.211832 -76.551056 16.897723
27.366698 -75.191742 16.872001
27.338757 -75.487946 18.132521
27.084801 -77.93644 16.905929
27.211832 -76.551056 16.897723
28.426451 -66.643093 27.239511
28.388189 -66.793937 28.564101
28.463987 -66.167111 23.554033
28.460263 -66.374416 24.759602
28.320425 -67.533592 23.669246
28.458852 -65.8536 22.346994
28.463987 -66.167111 23.554033
28.31467 -66.928016 21.330493
28.449374 -65.45533 21.213811
28.458852 -65.8536 22.346994
34.379903 -28.113798 15.888153
34.685597 -26.395254 15.907744
34.425337 -26.616711 16.945539
34.259153 -29.714269 14.911885
34.379903 -28.113798 15.888153
23.040623 -77.222279 35.40032
23.439786 -77.509823 34.343252
23.703355 -76.407822 35.704983
26.929496 -52.400911 54.852078
26.856238 -51.192753 55.774388
26.602348 -52.260817 55.991348
29.414942 -21.381385 34.321051
29.502994 -19.549896 34.15052
30.121595 -26.704363 31.229605
30.220913 -24.93713 31.073598
29.9375 -25.407967 32.019595
39.179769 14.297679 13.247429
38.854168 13.911859 14.422613
39.378412 12.544007 12.485938
39.179769 14.297679 13.247429
32.736841 -37.556799 2.654953
32.790512 -37.739384 3.770499
23.842826 -61.774974 54.074276
24.326498 -60.844946 54.276375
23.143884 -64.830349 51.856875
22.528595 -65.508995 51.709576
23.67895 -65.127041 50.876492
23.747802 -64.023445 51.983526
23.143884 -64.830349 51.856875
26.619309 -70.111592 7.0842
26.420648 -69.825837 5.850898
26.630038 -68.877064 7.090649
26.627719 -72.847015 7.086714
26.785177 -73.229699 8.304434
27.164504 -74.180999 11.964223
27.234068 -74.443623 13.10692
28.538288 -29.961498 39.234616
28.537849 -28.46117 38.881971
28.275352 -64.748487 17.542936
28.345081 -64.97685 18.759746
27.960095 -63.842172 13.752489
28.09046 -64.113661 15.032964
27.859046 -65.216999 13.943137
27.842042 -63.596901 12.561733
27.960095 -63.842172 13.752489
27.580018 -64.628296 11.437548
27.693379 -63.279686 11.336618
27.842042 -63.596901 12.561733
38.048029 -11.815136 11.021508
38.336531 -9.701602 10.820932
38.100689 -10.079518 11.940112
37.664152 -16.898808 7.867982
37.845361 -15.234186 8.881809
37.488166 -17.299629 8.978556
37.394035 -18.750109 6.820818
37.664152 -16.898808 7.867982
37.009063 -20.701402 6.890165
37.394035 -18.750109 6.820818
25.834734 -78.813381 26.431465
26.083463 -78.741505 25.253549
26.20857 -77.703415 26.507753
24.715205 -79.618184 28.643061
24.190126 -80.50832 28.495745
22.004723 -74.822186 39.96903
22.736306 -74.166534 40.313735
22.271687 -73.727138 41.306676
27.716761 -47.685664 53.753681
27.648578 -46.521362 54.566805
27.499797 -47.713755 54.984099
25.659958 -56.680844 55.322819
25.596636 -55.493809 56.284289
28.668444 -58.535612 40.161118
28.788011 -57.216019 39.941263
28.681371 -57.237948 41.18741
28.040796 -67.332276 33.552851
27.91639 -67.303192 34.822414
27.779663 -68.570656 33.685716
28.13145 -67.287342 32.349273
28.040796 -67.332276 33.552851
28.021188 -68.424565 31.126419
28.248568 -67.112167 31.059539
28.13145 -67.287342 32.349273
36.709682 15.662792 20.641314
37.127442 16.212058 19.512002
36.825432 17.901941 20.215003
35.159935 15.127958 24.434251
35.27289 17.218453 24.126779
36.050312 10.544725 22.279887
35.785049 12.311563 22.962947
35.625973 10.070917 23.278467
34.516313 -6.428222 23.80142
34.278877 -4.843003 24.616802
34.077005 -6.932212 24.69441
33.800039 -15.742039 23.460424
34.049925 -13.920999 23.291164
33.60875 -14.355042 24.262106
33.998201 -17.195636 22.563361
33.800039 -15.742039 23.460424
31.112653 -10.373152 30.890508
30.917659 -9.149746 31.600132
30.746998 -11.160358 31.691381
31.322717 -11.800506 30.148203
31.112653 -10.373152 30.890508
30.435184 -18.008994 31.456673
30.238424 -16.645117 32.234956
30.098451 -18.543426 32.346057
28.262862 -36.547241 47.005085
28.287222 -37.933605 47.414179
28.295868 -36.285521 45.847876
28.262862 -36.547241 47.005085
28.79835 -33.918701 37.92707
28.693956 -34.304979 39.000256
28.824517 -35.4993 38.194595
28.931677 -33.586087 36.841556
28.801116 -32.391765 37.647217
28.79835 -33.918701 37.92707
29.40826 -32.570025 33.739199
29.231116 -32.937211 34.813091
29.477691 -30.970903 33.50383
29.40826 -32.570025 33.739199
39.307024 6.360077 12.259998
39.402884 4.38631 11.435539
34.417463 -25.14126 17.974356
34.711928 -23.323847 17.93696
34.398361 -23.56694 18.946187
34.425337 -26.616711 16.945539
34.417463 -25.14126 17.974356
26.267293 -53.34576 56.181169
26.602348 -52.260817 55.991348
28.886926 -24.048634 36.414408
28.849645 -25.703804 36.664248
29.10497 -23.541781 35.411545
28.886926 -24.048634 36.414408
29.271193 -24.879338 34.65218
29.34218 -23.171205 34.417004
29.10497 -23.541781 35.411545
28.817673 -47.994552 43.086224
28.803132 -49.394461 43.345757
38.516608 13.666825 15.577944
38.13732 13.258242 16.767836
38.752402 11.710642 14.8032
38.854168 13.911859 14.422613
38.516608 13.666825 15.577944
21.774019 -70.854485 45.694525
21.989488 -69.765472 47.026457
22.465163 -66.5555 50.569378
22.528595 -65.508995 51.709576
22.399046 -67.617584 49.393473
23.008916 -66.996029 49.573935
22.465163 -66.5555 50.569378
22.221069 -68.666054 48.209101
22.399046 -67.617584 49.393473
21.989488 -69.765472 47.026457
22.711218 -69.157532 47.215385
22.221069 -68.666054 48.209101
26.939882 -73.565041 9.578152
26.785177 -73.229699 8.304434
26.916723 -72.278756 9.47047
34.479732 -30.84192 11.652555
34.871832 -29.028517 11.648042
34.672499 -29.395452 12.730463
34.239778 -32.33381 10.529583
34.479732 -30.84192 11.652555
33.91673 -33.912159 9.458298
34.356018 -32.053334 9.498849
34.239778 -32.33381 10.529583
33.580544 -35.376749 8.345047
33.91673 -33.912159 9.458298
23.788042 -80.222759 29.593719
24.002665 -79.145035 30.923963
23.408006 -80.015598 30.620102
24.190126 -80.50832 28.495745
23.788042 -80.222759 29.593719
25.710392 -59.073866 53.33856
25.698407 -57.848 54.359474
25.278062 -58.85845 54.417993
28.345174 -61.130581 40.565973
28.523829 -59.81477 40.376173
28.383148 -59.873352 41.597065
28.277439 -62.375605 39.502836
28.345174 -61.130581 40.565973
28.136758 -62.434187 40.723728
28.204176 -63.69361 38.378088
28.277439 -62.375605 39.502836
35.46994 7.877099 23.533922
35.625973 10.070917 23.278467
35.318445 5.769913 23.710658
35.73974 6.196893 22.772143
35.46994 7.877099 23.533922
35.1205 3.619358 23.949352
35.318445 5.769913 23.710658
34.90242 1.490109 24.174328
35.370165 1.960459 23.173855
35.1205 3.619358 23.949352
33.880106 -8.869573 24.790851
34.077005 -6.932212 24.69441
33.652203 -10.877858 24.897759
34.086539 -10.525716 23.985937
33.880106 -8.869573 24.790851
33.430441 -12.811015 25.027452
33.652203 -10.877858 24.897759
33.60875 -14.355042 24.262106
33.430441 -12.811015 25.027452
26.677574 -78.584801 21.781153
26.469729 -78.772953 22.883705
30.236313 -10.296804 33.241878
30.382555 -8.544712 33.119648
30.375999 -11.740604 32.59128
30.236313 -10.296804 33.241878
30.570992 -12.96401 31.881656
30.746998 -11.160358 31.691381
30.375999 -11.740604 32.59128
30.642705 -19.370944 30.675829
30.493728 -21.2602 30.772526
28.313703 -39.321696 47.837589
28.320853 -40.715576 48.324326
28.361991 -39.180823 46.645444
28.287222 -37.933605 47.414179
28.313703 -39.321696 47.837589
28.737537 -40.780928 41.395741
28.670631 -41.056448 42.567144
28.76655 -42.228299 41.807879
28.710003 -39.245428 41.009094
28.737537 -40.780928 41.395741
28.666936 -37.80415 40.756827
28.59855 -38.167799 41.902738
28.710003 -39.245428 41.009094
28.749256 -37.383679 39.565481
28.637803 -36.30605 40.459125
28.666936 -37.80415 40.756827
28.845503 -37.172562 38.412249
28.749256 -37.383679 39.565481
28.824517 -35.4993 38.194595
28.845503 -37.172562 38.412249
39.209131 2.165532 11.754843
38.918616 1.930768 12.999813
38.991455 0.052028 12.134101
39.402884 4.38631 11.435539
39.209131 2.165532 11.754843
32.012538 -38.109042 -1.691324
31.529459 -39.722037 -1.615318
27.296622 -74.77264 14.259853
27.234068 -74.443623 13.10692
27.361809 -73.41204 14.33429
27.332068 -74.997955 15.562213
27.458994 -73.934845 16.797012
27.366698 -75.191742 16.872001
27.296622 -74.77264 14.259853
27.332068 -74.997955 15.562213
28.456293 -66.498104 25.995279
28.426451 -66.643093 27.239511
28.286859 -67.885887 26.119047
28.456293 -66.498104 25.995279
28.460263 -66.374416 24.759602
28.414534 -65.164446 20.01829
28.449374 -65.45533 21.213811
28.235739 -66.342151 18.938767
28.345081 -64.97685 18.759746
28.414534 -65.164446 20.01829
34.460281 -29.550598 13.792667
34.672499 -29.395452 12.730463
34.85238 -27.737194 13.788154
34.460281 -29.550598 13.792667
34.259153 -29.714269 14.911885
23.199841 -78.631077 32.994467
23.862573 -77.81662 33.29913
23.439786 -77.509823 34.343252
22.928646 -79.71775 31.632781
23.199841 -78.631077 32.994467
27.313356 -48.825798 55.284289
27.499797 -47.713755 54.984099
27.121059 -50.053194 55.51636
26.856238 -51.192753 55.774388
27.375683 -50.105452 54.403046
27.313356 -48.825798 55.284289
27.121059 -50.053194 55.51636
29.777809 -19.054336 33.295036
29.502994 -19.549896 34.15052
29.97457 -20.418212 32.516754
30.098451 -18.543426 32.346057
29.777809 -19.054336 33.295036
29.581165 -22.718941 33.561686
29.414942 -21.381385 34.321051
29.34218 -23.171205 34.417004
30.364531 -23.126916 30.920433
30.493728 -21.2602 30.772526
30.166015 -21.774018 31.715681
30.364531 -23.126916 30.920433
30.220913 -24.93713 31.073598
28.824144 -46.623255 42.693891
28.739263 -46.738905 43.965807
28.817673 -47.994552 43.086224
28.818413 -45.127157 42.341582
28.824144 -46.623255 42.693891
28.795368 -43.695263 42.044485
28.722689 -43.935713 43.276378
28.818413 -45.127157 42.341582
28.76655 -42.228299 41.807879
28.795368 -43.695263 42.044485
39.081837 -3.505248 10.215836
38.852404 -5.397651 10.506811
32.735704 -37.226088 1.56363
33.238697 -35.850808 2.643785
32.736841 -37.556799 2.654953
32.191023 -38.622541 0.53096
32.692879 -36.91655 0.519792
32.735704 -37.226088 1.56363
31.621913 -39.994867 -0.563289
32.191023 -38.622541 0.53096
31.529459 -39.722037 -1.615318
31.621913 -39.994867 -0.563289
21.804309 -73.354466 42.255594
22.271687 -73.727138 41.306676
22.535891 -72.698814 42.600299
21.568458 -71.88908 44.452762
22.274076 -71.291546 44.790979
21.774019 -70.854485 45.694525
21.354165 -72.856571 43.189036
21.568458 -71.88908 44.452762
21.804309 -73.354466 42.255594
21.354165 -72.856571 43.189036
24.804994 -59.848229 54.387247
25.278062 -58.85845 54.417993
24.811551 -61.081034 53.286207
24.804994 -59.848229 54.387247
24.326498 -60.844946 54.276375
23.772895 -62.902252 53.069622
23.842826 -61.774974 54.074276
24.307961 -63.198944 52.089239
23.772895 -62.902252 53.069622
23.747802 -64.023445 51.983526
26.215916 -69.482681 4.674632
26.231222 -68.19067 4.729475
26.215916 -69.482681 4.674632
26.420648 -69.825837 5.850898
26.585968 -71.501889 7.020601
26.619309 -70.111592 7.0842
26.795358 -70.553116 8.260351
26.585968 -71.501889 7.020601
26.627719 -72.847015 7.086714
27.05059 -73.946537 10.745638
27.185341 -72.84856 11.962772
27.164504 -74.180999 11.964223
26.939882 -73.565041 9.578152
27.05059 -73.946537 10.745638
28.661499 -27.901326 37.903286
28.537849 -28.46117 38.881971
28.801619 -29.163892 37.147348
28.805425 -27.42026 36.925837
28.661499 -27.901326 37.903286
28.186915 -64.415453 16.31463
28.275352 -64.748487 17.542936
28.077849 -65.821522 16.451918
28.186915 -64.415453 16.31463
28.09046 -64.113661 15.032964
27.582472 -62.914061 10.243994
27.693379 -63.279686 11.336618
27.282961 -63.980114 9.122692
27.434078 -62.583094 9.154253
27.582472 -62.914061 10.243994
27.018746 -65.10691 8.034287
27.282961 -63.980114 9.122692
27.167139 -65.437877 9.124029
26.724743 -66.20396 6.919754
27.018746 -65.10691 8.034287
26.48897 -67.217277 5.830616
26.724743 -66.20396 6.919754
26.66715 -67.577991 6.946485
26.231222 -68.19067 4.729475
26.48897 -67.217277 5.830616
38.616754 -7.589792 10.625136
38.852404 -5.397651 10.506811
38.62484 -5.773843 11.621209
38.616754 -7.589792 10.625136
38.336531 -9.701602 10.820932
37.976624 -13.536113 9.947356
38.048029 -11.815136 11.021508
37.740781 -13.914029 11.066536
37.976624 -13.536113 9.947356
37.845361 -15.234186 8.881809
36.632408 -22.609807 7.006824
37.009063 -20.701402 6.890165
36.930301 -20.872656 8.081388
36.321999 -24.222677 5.844363
36.632408 -22.609807 7.006824
36.243237 -24.393932 7.035587
35.956238 -25.79498 4.742071
36.321999 -24.222677 5.844363
35.543501 -27.536572 4.835829
35.956238 -25.79498 4.742071
35.115212 -29.337338 4.875196
35.543501 -27.536572 4.835829
35.504537 -27.807569 5.912494
34.631738 -31.201369 4.907849
34.670702 -30.930372 3.831184
35.115212 -29.337338 4.875196
32.796867 -37.928568 4.963487
32.790512 -37.739384 3.770499
33.246189 -36.370703 4.928096
33.190331 -36.840851 7.191807
33.642757 -35.095785 7.274324
33.580544 -35.376749 8.345047
32.772829 -38.260618 6.065275
33.190331 -36.840851 7.191807
32.796867 -37.928568 4.963487
32.772829 -38.260618 6.065275
26.306234 -78.810318 24.079995
26.469729 -78.772953 22.883705
26.620793 -77.594173 24.133548
26.306234 -78.810318 24.079995
26.083463 -78.741505 25.253549
25.23871 -78.749436 28.669178
24.906207 -78.483448 29.923696
24.715205 -79.618184 28.643061
25.503775 -78.829731 27.537106
25.694776 -77.694996 28.817742
25.23871 -78.749436 28.669178
25.834734 -78.813381 26.431465
25.503775 -78.829731 27.537106
21.75984 -75.838566 38.613834
22.004723 -74.822186 39.96903
22.203339 -76.354393 37.568335
21.75984 -75.838566 38.613834
22.620763 -76.783741 36.461315
22.886767 -75.690929 37.86907
22.203339 -76.354393 37.568335
23.040623 -77.222279 35.40032
22.620763 -76.783741 36.461315
28.321914 -43.381548 49.151356
28.330438 -42.031105 48.759796
27.777463 -45.256664 54.293793
27.648578 -46.521362 54.566805
27.934787 -45.184158 53.084978
27.777463 -45.256664 54.293793
28.088517 -45.072417 51.891537
27.934787 -45.184158 53.084978
28.019272 -46.381529 52.142947
28.204594 -44.916456 50.65621
28.088517 -45.072417 51.891537
28.313737 -44.738346 49.513907
28.204594 -44.916456 50.65621
28.282145 -46.091677 49.807202
28.399467 -44.556769 48.302347
28.321914 -43.381548 49.151356
28.313737 -44.738346 49.513907
28.777798 -50.751768 43.57443
28.803132 -49.394461 43.345757
28.707459 -49.467511 44.586813
28.813477 -52.090139 42.697716
28.777798 -50.751768 43.57443
28.717803 -52.163189 43.938772
28.848973 -53.395905 41.810167
28.813477 -52.090139 42.697716
25.956409 -54.475825 56.250016
25.596636 -55.493809 56.284289
26.364722 -54.599039 55.137884
26.267293 -53.34576 56.181169
25.956409 -54.475825 56.250016
26.092288 -56.896259 54.243386
25.659958 -56.680844 55.322819
25.698407 -57.848 54.359474
28.872701 -54.604302 40.762917
28.848973 -53.395905 41.810167
28.777209 -54.709957 42.014807
28.890215 -55.85446 39.683832
28.872701 -54.604302 40.762917
28.890215 -55.85446 39.683832
28.788011 -57.216019 39.941263
28.668444 -58.535612 40.161118
28.523829 -59.81477 40.376173
28.12381 -64.882995 37.212284
28.204176 -63.69361 38.378088
27.988657 -64.868597 38.494787
28.042907 -66.061397 36.009265
27.781773 -67.299778 36.142132
27.91639 -67.303192 34.822414
28.12381 -64.882995 37.212284
28.042907 -66.061397 36.009265
28.328834 -66.903195 29.800804
28.248568 -67.112167 31.059539
28.197662 -68.140133 28.599982
28.388189 -66.793937 28.564101
28.328834 -66.903195 29.800804
37.435745 14.511892 18.757727
37.551495 16.75104 18.331416
37.127442 16.212058 19.512002
37.31807 12.258469 19.113678
37.742123 12.797452 17.933091
37.435745 14.511892 18.757727
35.664818 17.886394 23.123581
35.27289 17.218453 24.126779
35.992683 16.54057 22.394997
36.079808 18.698499 22.072899
35.664818 17.886394 23.123581
35.469202 13.78311 23.703603
35.159935 15.127958 24.434251
35.893541 14.256917 22.705023
35.469202 13.78311 23.703603
35.785049 12.311563 22.962947
36.308531 15.069023 21.654341
35.992683 16.54057 22.394997
35.893541 14.256917 22.705023
36.61054 13.37914 20.95134
36.709682 15.662792 20.641314
36.308531 15.069023 21.654341
34.674177 -0.678655 24.389209
34.90242 1.490109 24.174328
34.457228 -2.763766 24.5517
34.278877 -4.843003 24.616802
34.935135 -2.253901 23.561321
34.674177 -0.678655 24.389209
34.457228 -2.763766 24.5517
34.146627 -18.715713 21.704055
34.389641 -16.828073 21.630175
33.998201 -17.195636 22.563361
34.256201 -20.323285 20.828764
34.146627 -18.715713 21.704055
26.808391 -78.383682 20.651339
26.915105 -77.35569 21.807445
26.677574 -78.584801 21.781153
26.929147 -78.313541 19.45111
26.808391 -78.383682 20.651339
26.998131 -78.159886 18.191416
27.114907 -77.000916 19.417937
26.929147 -78.313541 19.45111
27.084801 -77.93644 16.905929
26.998131 -78.159886 18.191416
30.721581 -7.92036 32.298102
30.382555 -8.544712 33.119648
30.721581 -7.92036 32.298102
30.917659 -9.149746 31.600132
30.387575 -14.827471 32.063564
30.238424 -16.645117 32.234956
30.758575 -14.247224 31.163665
30.570992 -12.96401 31.881656
30.387575 -14.827471 32.063564
30.782677 -17.472635 30.564728
30.435184 -18.008994 31.456673
30.642705 -19.370944 30.675829
30.948749 -15.64996 30.452823
30.782677 -17.472635 30.564728
31.132167 -13.7865 30.270916
30.758575 -14.247224 31.163665
30.948749 -15.64996 30.452823
31.322717 -11.800506 30.148203
31.132167 -13.7865 30.270916
28.34746 -36.021368 44.653603
28.295868 -36.285521 45.847876
28.387102 -37.528579 45.027761
28.301407 -34.485943 44.342182
28.34746 -36.021368 44.653603
28.392641 -35.729002 43.522068
28.263061 -32.921856 43.933687
28.301407 -34.485943 44.342182
28.311336 -32.644313 42.843592
28.263061 -32.921856 43.933687
28.377465 -32.31302 41.710724
28.311336 -32.644313 42.843592
28.412717 -33.862284 42.07778
28.448865 -31.904514 40.644672
28.377465 -32.31302 41.710724
28.543336 -31.501209 39.538582
28.448865 -31.904514 40.644672
28.573318 -33.127685 39.838822
28.66274 -31.184669 38.428764
28.538288 -29.961498 39.234616
28.543336 -31.501209 39.538582
29.066683 -33.355835 35.820172
28.931677 -33.586087 36.841556
29.098876 -31.640527 35.554623
29.066683 -33.355835 35.820172
29.231116 -32.937211 34.813091
29.526111 -29.311132 33.27321
29.311729 -29.562133 34.316924
29.477691 -30.970903 33.50383
29.765127 -28.947551 32.317859
29.599165 -27.538781 33.130953
29.526111 -29.311132 33.27321
30.001579 -28.417825 31.390502
29.765127 -28.947551 32.317859
30.121595 -26.704363 31.229605
30.001579 -28.417825 31.390502
39.150503 8.257044 13.147104
38.979771 5.941238 13.50766
39.307024 6.360077 12.259998
39.283859 10.31578 12.773655
38.956606 9.896941 14.021318
39.150503 8.257044 13.147104
39.378412 12.544007 12.485938
39.283859 10.31578 12.773655
39.07123 -1.647455 11.196008
39.081837 -3.505248 10.215836
33.714846 -33.841938 1.639031
34.18968 -32.479092 2.794718
33.712395 -34.15725 2.70815
33.633251 -33.623327 0.511556
33.714846 -33.841938 1.639031
33.155966 -35.301485 0.424988
33.514457 -33.502798 -0.713801
33.633251 -33.623327 0.511556
32.475625 -36.493977 -1.786129
32.611284 -36.697939 -0.607682
32.012538 -38.109042 -1.691324
32.954313 -34.852075 -1.801329
32.475625 -36.493977 -1.786129
33.514457 -33.502798 -0.713801
32.954313 -34.852075 -1.801329
3 0 66 64
3 0 69 67
3 0 64 69
3 241 73 242
3 243 242 71
3 241 242 243
3 245 244 73
3 1 77 75
3 1 80 78
3 1 75 80
3 3 246 248
3 246 82 247
3 246 247 248
3 3 84 82
3 2 249 251
3 249 85 250
3 249 250 251
3 5 89 87
3 5 92 90
3 5 87 92
3 6 96 94
3 8 99 97
3 8 101 99
3 8 103 101
3 10 107 105
3 253 252 108
3 12 112 110
3 12 114 112
3 4 117 115
3 13 120 118
3 13 122 120
3 13 123 122
3 10 126 124
3 10 105 126
3 11 254 256
3 254 131 255
3 254 255 256
3 7 257 259
3 259 258 134
3 257 258 259
3 9 260 261
3 14 138 136
3 15 262 264
3 264 263 65
3 262 263 264
3 15 265 266
3 16 267 268
3 17 269 271
3 271 270 68
3 269 270 271
3 17 272 273
3 17 274 276
3 274 139 275
3 274 275 276
3 14 140 70
3 14 136 140
3 19 143 141
3 21 144 72
3 21 145 144
3 21 147 145
3 277 148 278
3 279 278 74
3 277 278 279
3 281 280 148
3 23 151 149
3 25 152 76
3 25 282 284
3 284 283 152
3 282 283 284
3 27 285 287
3 285 153 286
3 285 286 287
3 27 154 153
3 28 157 155
3 30 158 79
3 30 159 158
3 30 161 159
3 23 162 81
3 23 149 162
3 288 163 289
3 33 164 83
3 33 290 292
3 292 291 164
3 290 291 292
3 34 167 165
3 36 293 294
3 36 295 296
3 298 297 168
3 38 172 170
3 299 173 300
3 39 301 302
3 39 303 305
3 303 174 304
3 303 304 305
3 39 175 174
3 38 176 86
3 38 170 176
3 40 306 308
3 308 307 177
3 306 307 308
3 310 309 88
3 312 311 137
3 313 178 314
3 18 315 316
3 41 317 319
3 319 318 91
3 317 318 319
3 41 320 321
3 41 322 324
3 322 179 323
3 322 323 324
3 40 180 93
3 40 177 180
3 42 183 181
3 44 184 95
3 44 185 184
3 20 186 142
3 45 187 98
3 45 188 187
3 45 325 327
3 327 326 188
3 325 326 327
3 46 328 330
3 330 329 100
3 328 329 330
3 46 331 332
3 46 333 334
3 47 189 102
3 47 190 189
3 22 191 146
3 48 192 104
3 48 193 192
3 48 194 193
3 49 197 195
3 51 198 106
3 51 335 337
3 337 336 198
3 335 336 337
3 24 199 150
3 339 338 109
3 340 200 341
3 342 341 171
3 340 341 342
3 26 343 345
3 343 201 344
3 343 344 345
3 52 202 111
3 52 203 202
3 52 204 203
3 53 205 113
3 53 206 205
3 346 207 347
3 54 208 116
3 54 209 208
3 29 210 156
3 55 211 119
3 55 212 211
3 55 213 212
3 56 214 121
3 56 215 214
3 56 348 350
3 350 349 215
3 348 349 350
3 31 216 160
3 57 351 353
3 353 352 125
3 351 352 353
3 57 354 355
3 57 356 358
3 356 217 357
3 356 357 358
3 49 218 127
3 49 195 218
3 359 219 360
3 359 360 361
3 362 220 363
3 58 364 366
3 364 221 365
3 364 365 366
3 58 222 221
3 58 223 222
3 59 224 128
3 59 225 224
3 60 367 369
3 367 226 368
3 367 368 369
3 60 227 226
3 60 228 227
3 370 229 371
3 372 371 129
3 370 371 372
3 374 373 229
3 50 230 196
3 61 375 377
3 377 376 130
3 375 376 377
3 61 378 379
3 32 380 382
3 380 231 381
3 380 381 382
3 62 383 384
3 62 385 386
3 35 232 166
3 63 233 132
3 63 234 233
3 63 235 234
3 387 236 388
3 389 388 133
3 387 388 389
3 390 237 391
3 392 391 236
3 390 391 392
3 393 238 394
3 396 395 238
3 43 239 182
3 398 397 135
3 37 240 169
3 64 65 14
3 66 65 64
3 66 15 65
3 67 68 16
3 69 68 67
3 69 17 68
3 69 70 17
3 64 70 69
3 64 14 70
3 71 72 19
3 73 72 71
3 73 21 72
3 73 74 21
3 399 74 400
3 401 400 73
3 399 400 401
3 403 402 74
3 75 76 23
3 77 76 75
3 77 25 76
3 404 27 405
3 78 79 28
3 80 79 78
3 80 30 79
3 80 81 30
3 75 81 80
3 75 23 81
3 82 406 407
3 82 408 409
3 82 410 412
3 410 83 411
3 410 411 412
3 84 83 82
3 84 33 83
3 414 413 34
3 85 415 416
3 85 417 419
3 417 36 418
3 417 418 419
3 421 420 38
3 422 39 423
3 424 86 425
3 426 425 39
3 424 425 426
3 427 86 428
3 429 38 430
3 431 430 86
3 429 430 431
3 87 88 40
3 89 88 87
3 89 432 434
3 434 433 88
3 432 433 434
3 90 91 18
3 92 91 90
3 92 41 91
3 92 93 41
3 87 93 92
3 87 40 93
3 94 95 42
3 96 95 94
3 96 44 95
3 97 98 20
3 99 98 97
3 99 45 98
3 99 100 45
3 101 100 99
3 101 46 100
3 101 102 46
3 103 102 101
3 103 47 102
3 435 104 436
3 437 436 22
3 435 436 437
3 438 104 439
3 440 48 441
3 442 441 104
3 440 441 442
3 444 443 48
3 105 106 49
3 107 106 105
3 107 51 106
3 108 109 24
3 445 109 446
3 447 446 108
3 445 446 447
3 449 448 109
3 110 111 26
3 112 111 110
3 112 52 111
3 112 113 52
3 114 113 112
3 114 53 113
3 115 450 452
3 450 116 451
3 450 451 452
3 117 116 115
3 117 54 116
3 118 119 29
3 120 119 118
3 120 55 119
3 120 121 55
3 122 121 120
3 122 56 121
3 122 453 455
3 455 454 56
3 453 454 455
3 123 456 458
3 458 457 122
3 456 457 458
3 123 459 460
3 124 125 31
3 126 125 124
3 126 57 125
3 126 127 57
3 105 127 126
3 105 49 127
3 461 58 462
3 463 128 464
3 465 464 58
3 463 464 465
3 466 128 467
3 468 59 469
3 470 469 128
3 468 469 470
3 471 60 472
3 473 129 474
3 475 474 60
3 473 474 475
3 476 129 477
3 479 478 129
3 481 480 50
3 482 130 483
3 484 130 485
3 486 61 487
3 488 487 130
3 486 487 488
3 490 489 32
3 131 491 492
3 131 493 495
3 493 62 494
3 493 494 495
3 496 132 497
3 498 497 35
3 496 497 498
3 499 132 500
3 501 63 502
3 503 502 132
3 501 502 503
3 504 133 505
3 506 505 63
3 504 505 506
3 507 133 508
3 510 509 133
3 134 135 43
3 511 135 512
3 513 512 134
3 511 512 513
3 515 514 135
3 517 516 37
3 136 137 5
3 138 137 136
3 138 518 520
3 520 519 137
3 518 519 520
3 65 138 14
3 521 138 522
3 523 522 65
3 521 522 523
3 525 524 138
3 68 526 528
3 528 527 16
3 526 527 528
3 530 529 68
3 139 531 532
3 139 533 535
3 533 18 534
3 533 534 535
3 70 139 17
3 140 139 70
3 140 18 139
3 140 90 18
3 136 90 140
3 136 5 90
3 141 142 6
3 143 142 141
3 143 20 142
3 72 143 19
3 144 143 72
3 144 20 143
3 144 97 20
3 145 97 144
3 145 8 97
3 145 146 8
3 147 146 145
3 147 22 146
3 74 147 21
3 148 147 74
3 148 22 147
3 148 536 538
3 538 537 22
3 536 537 538
3 540 539 148
3 149 150 10
3 151 150 149
3 151 24 150
3 76 151 23
3 152 151 76
3 152 24 151
3 152 108 24
3 541 108 542
3 543 542 152
3 541 542 543
3 545 544 108
3 546 26 547
3 153 548 549
3 153 550 552
3 550 26 551
3 550 551 552
3 153 110 26
3 154 110 153
3 154 12 110
3 155 156 4
3 157 156 155
3 157 29 156
3 79 157 28
3 158 157 79
3 158 29 157
3 158 118 29
3 159 118 158
3 159 13 118
3 159 160 13
3 161 160 159
3 161 31 160
3 81 161 30
3 162 161 81
3 162 31 161
3 162 124 31
3 149 124 162
3 149 10 124
3 163 553 554
3 163 555 557
3 555 32 556
3 555 556 557
3 83 558 560
3 558 163 559
3 558 559 560
3 164 163 83
3 164 32 163
3 164 561 563
3 563 562 32
3 561 562 563
3 565 564 164
3 165 166 11
3 167 166 165
3 167 35 166
3 566 167 567
3 568 567 34
3 566 567 568
3 569 167 570
3 571 35 572
3 573 572 167
3 571 572 573
3 575 574 35
3 577 576 7
3 168 169 9
3 578 169 579
3 580 579 168
3 578 579 580
3 581 37 582
3 583 582 169
3 581 582 583
3 584 37 585
3 587 586 37
3 170 171 1
3 172 171 170
3 172 588 590
3 590 589 171
3 588 589 590
3 591 172 592
3 593 592 38
3 591 592 593
3 594 172 595
3 597 596 172
3 598 115 599
3 173 600 602
3 600 115 601
3 600 601 602
3 173 4 115
3 603 173 604
3 174 605 607
3 605 173 606
3 605 606 607
3 174 4 173
3 174 155 4
3 175 155 174
3 175 28 155
3 86 175 39
3 176 175 86
3 176 28 175
3 176 78 28
3 170 78 176
3 170 1 78
3 177 608 609
3 611 610 177
3 88 612 614
3 614 613 40
3 612 613 614
3 616 615 88
3 137 89 5
3 617 89 618
3 619 618 137
3 617 618 619
3 621 620 89
3 178 622 623
3 178 624 626
3 624 3 625
3 624 625 626
3 91 627 629
3 629 628 18
3 627 628 629
3 631 630 91
3 179 632 633
3 179 634 636
3 634 635 636
3 93 179 41
3 180 179 93
3 180 637 639
3 639 638 179
3 637 638 639
3 180 640 641
3 177 642 644
3 644 643 180
3 642 643 644
3 177 645 646
3 181 182 2
3 183 182 181
3 183 43 182
3 95 183 42
3 184 183 95
3 184 43 183
3 184 134 43
3 185 134 184
3 185 7 134
3 142 96 6
3 186 96 142
3 186 44 96
3 98 186 20
3 187 186 98
3 187 44 186
3 187 185 44
3 188 185 187
3 188 7 185
3 188 647 649
3 649 648 7
3 647 648 649
3 651 650 188
3 100 652 654
3 654 653 45
3 652 653 654
3 656 655 100
3 102 657 659
3 659 658 46
3 657 658 659
3 189 660 662
3 662 661 102
3 660 661 662
3 189 663 664
3 189 665 666
3 190 667 669
3 669 668 189
3 667 668 669
3 190 670 672
3 670 9 671
3 670 671 672
3 146 103 8
3 191 103 146
3 191 47 103
3 104 191 22
3 192 191 104
3 192 47 191
3 192 190 47
3 193 190 192
3 193 9 190
3 193 168 9
3 194 168 193
3 194 673 675
3 675 674 168
3 673 674 675
3 676 194 677
3 678 677 48
3 676 677 678
3 679 194 680
3 682 681 194
3 195 196 0
3 197 196 195
3 197 50 196
3 106 197 49
3 198 197 106
3 198 50 197
3 198 683 685
3 685 684 50
3 683 684 685
3 687 686 198
3 150 107 10
3 199 107 150
3 199 51 107
3 109 199 24
3 688 199 689
3 690 689 109
3 688 689 690
3 691 51 692
3 693 692 199
3 691 692 693
3 695 694 51
3 171 77 1
3 200 77 171
3 200 25 77
3 696 200 697
3 698 200 699
3 700 25 701
3 702 701 200
3 700 701 702
3 704 703 25
3 705 11 706
3 201 707 708
3 201 709 710
3 111 201 26
3 202 201 111
3 202 711 713
3 713 712 201
3 711 712 713
3 202 714 715
3 203 716 718
3 718 717 202
3 716 717 718
3 203 719 721
3 719 11 720
3 719 720 721
3 203 165 11
3 204 165 203
3 204 34 165
3 113 204 52
3 205 204 113
3 205 34 204
3 205 722 724
3 724 723 34
3 722 723 724
3 206 725 727
3 727 726 205
3 725 726 727
3 206 728 729
3 207 730 731
3 207 732 734
3 732 27 733
3 732 733 734
3 116 735 737
3 735 207 736
3 735 736 737
3 208 207 116
3 208 27 207
3 208 154 27
3 209 154 208
3 209 12 154
3 156 117 4
3 210 117 156
3 210 54 117
3 119 210 29
3 211 210 119
3 211 54 210
3 211 209 54
3 212 209 211
3 212 12 209
3 212 114 12
3 213 114 212
3 213 53 114
3 121 213 55
3 214 213 121
3 214 53 213
3 214 206 53
3 215 206 214
3 215 738 740
3 740 739 206
3 738 739 740
3 215 741 742
3 744 743 215
3 746 745 56
3 160 123 13
3 216 123 160
3 216 747 749
3 749 748 123
3 747 748 749
3 125 216 31
3 750 216 751
3 752 751 125
3 750 751 752
3 754 753 216
3 217 755 756
3 217 757 759
3 757 16 758
3 757 758 759
3 127 217 57
3 218 217 127
3 218 16 217
3 218 67 16
3 195 67 218
3 195 0 67
3 219 760 762
3 760 761 762
3 219 763 765
3 763 2 764
3 763 764 765
3 220 766 767
3 220 768 770
3 768 769 770
3 771 220 772
3 221 773 775
3 773 220 774
3 773 774 775
3 221 776 778
3 778 777 220
3 776 777 778
3 221 779 781
3 779 219 780
3 779 780 781
3 222 219 221
3 222 2 219
3 222 181 2
3 223 181 222
3 223 42 181
3 128 223 58
3 224 223 128
3 224 42 223
3 224 94 42
3 225 94 224
3 225 6 94
3 782 59 783
3 226 784 785
3 226 786 788
3 786 59 787
3 786 787 788
3 226 225 59
3 227 225 226
3 227 6 225
3 227 141 6
3 228 141 227
3 228 19 141
3 129 228 60
3 229 228 129
3 229 19 228
3 229 71 19
3 789 71 790
3 791 790 229
3 789 790 791
3 793 792 71
3 196 66 0
3 230 66 196
3 230 15 66
3 794 230 795
3 796 795 50
3 794 795 796
3 797 230 798
3 799 15 800
3 801 800 230
3 799 800 801
3 803 802 15
3 130 804 805
3 807 806 130
3 231 808 809
3 231 810 812
3 810 61 811
3 810 811 812
3 813 231 814
3 815 814 32
3 813 814 815
3 816 231 817
3 818 61 819
3 820 819 231
3 818 819 820
3 822 821 61
3 166 131 11
3 232 131 166
3 232 62 131
3 132 232 35
3 233 232 132
3 233 62 232
3 233 823 825
3 825 824 62
3 823 824 825
3 234 826 828
3 828 827 233
3 826 827 828
3 234 829 830
3 234 831 832
3 235 833 835
3 835 834 234
3 833 834 835
3 235 836 837
3 133 235 63
3 236 235 133
3 236 838 840
3 840 839 235
3 838 839 840
3 236 841 843
3 841 178 842
3 841 842 843
3 237 178 236
3 237 3 178
3 844 237 845
3 238 846 848
3 846 237 847
3 846 847 848
3 238 3 237
3 238 84 3
3 849 84 850
3 851 850 238
3 849 850 851
3 852 33 853
3 854 853 84
3 852 853 854
3 855 33 856
3 858 857 33
3 182 85 2
3 239 85 182
3 239 36 85
3 135 239 43
3 859 239 860
3 861 860 135
3 859 860 861
3 862 36 863
3 864 863 239
3 862 863 864
3 866 865 36
3 868 867 7
3 169 869 871
3 871 870 9
3 869 870 871
3 240 872 874
3 874 873 169
3 872 873 874
3 240 875 876
3 877 240 878
3 879 878 37
3 877 878 879
3 880 240 881
3 883 882 240
