ply
format ascii 1.0
element vertex 741
property float x
property float y
property float z
element face 890
property list uchar int vertex_index
end_header
17.165039 62.778118 -51.248756
12.588191 105.789536 -27.833925
30.994955 54.374344 -45.654152
0.428223 62.079052 -47.410851
25.632113 89.413521 -42.811924
35.545082 47.15015 -39.475239
21.892311 105.857269 -24.42738
19.729342 100.79081 -36.641636
8.540997 63.255203 -50.456841
3.89147 50.611832 -51.221378
11.230453 48.556496 -52.163887
24.82262 60.057564 -49.763691
17.9678 45.193554 -51.349934
24.343889 40.110817 -48.778278
12.8407 77.410286 -49.363594
9.3248 98.898705 -38.125401
16.534964 90.682693 -45.302849
22.192945 77.413986 -48.906933
29.439291 73.700485 -45.47966
34.398579 66.808807 -39.205219
12.955297 63.173347 -51.139145
10.150247 56.249138 -51.45237
14.147142 55.742004 -51.677143
28.110184 57.738396 -48.044163
24.915897 49.992142 -49.442528
28.023546 47.360214 -47.536873
8.038297 76.455521 -48.535767
9.787875 83.392479 -47.374176
11.170377 102.871704 -33.568802
22.829159 95.744423 -40.258305
18.371193 96.243958 -41.549103
21.477091 90.56929 -44.494705
19.665134 84.51371 -47.581322
24.075443 83.840958 -46.441017
26.109947 75.874786 -47.629223
27.91448 81.965805 -44.419552
33.143242 75.788567 -38.430576
36.178795 62.327629 -35.637371
4.939553 44.421417 -52.864002
1.669123 45.258793 -52.312992
33.503757 51.229603 -42.696972
30.814995 44.391586 -45.072807
33.287678 41.019852 -42.080727
17.612066 106.482368 -26.575649
16.391996 104.017227 -32.65955
20.844637 103.924156 -31.065535
4.374492 62.968815 -49.228149
2.407654 56.58334 -49.430809
6.403233 56.612938 -50.766125
7.560699 49.784714 -51.964203
8.307718 42.809219 -52.973595
13.905029 107.424782 -21.618961
18.616478 107.674088 -19.998938
21.214096 61.589405 -50.79995
17.949324 54.369869 -51.459755
21.533321 52.553974 -50.746738
21.145306 42.764221 -50.338455
1.968162 68.288681 -47.405254
6.146541 69.685287 -48.985294
10.779076 70.376343 -50.104755
15.383924 70.827072 -50.568146
3.82324 96.562225 -37.766983
7.675148 93.81398 -41.953545
14.928373 100.281105 -37.932785
13.173433 95.469955 -42.175282
11.458139 89.683609 -45.356598
14.863297 84.293373 -47.86274
17.670345 78.048195 -49.468719
19.783756 70.293678 -50.445625
23.860268 69.095352 -49.643829
27.460667 66.965721 -48.12368
30.610626 64.266983 -45.756851
30.816219 79.340439 -41.743805
32.144554 70.433952 -42.731743
33.12397 60.763588 -42.924797
35.225212 57.209541 -39.582165
36.937683 52.896965 -36.164242
14.643045 47.172108 -51.944386
11.307005 40.779366 -52.67683
15.06919 63.478512 -51.231594
13.728921 59.580128 -51.449574
15.753196 59.335384 -51.477226
29.563812 56.010357 -46.95565
28.142725 52.577671 -47.85471
29.599045 51.182896 -46.717831
7.283359 82.55114 -46.939156
8.041951 85.97612 -46.078285
9.071972 103.503822 -31.185469
11.865109 104.496346 -30.763054
24.421047 92.742065 -41.551613
22.199924 93.332428 -42.478287
23.632814 90.317558 -43.675503
22.809784 87.613541 -45.483536
24.786673 86.938141 -44.758392
25.997536 83.190941 -45.542343
26.741947 85.835358 -43.793594
34.594498 49.269203 -41.078224
33.502506 46.117702 -42.404476
34.49271 44.131592 -40.908718
19.986107 106.284775 -25.660662
19.385883 105.353096 -28.921421
21.530464 104.929199 -28.01405
6.499353 62.96479 -49.959423
5.317925 59.803925 -50.007427
7.389494 59.807594 -50.587509
10.875859 52.734257 -51.822826
9.011549 52.889877 -51.684776
9.463299 49.489925 -52.094902
8.000921 46.495533 -52.469219
9.63097 45.6231 -52.513123
16.389408 107.693611 -21.168833
23.058401 60.620899 -50.366348
21.421886 57.076668 -50.831066
23.225677 55.969437 -50.322517
24.681082 45.261635 -49.176758
23.117804 46.637821 -49.943901
22.737225 41.496101 -49.638958
29.076736 40.882362 -46.034321
0.935283 74.258408 -46.022064
0.478861 70.934067 -46.230518
2.535097 71.862312 -47.198895
3.922356 69.103958 -48.214756
4.896991 72.377853 -48.151958
10.39942 77.000694 -49.016449
9.621163 73.604095 -49.418224
11.999143 73.969505 -49.822144
13.085855 70.794601 -50.398693
14.254725 74.301788 -50.044601
7.298891 99.955025 -35.906097
4.478444 98.679283 -35.761742
6.528544 97.620369 -38.219666
5.666492 95.322441 -39.948814
8.566114 96.567184 -40.119774
17.952484 102.635765 -34.687275
15.484035 102.305481 -35.396034
17.440857 100.708763 -37.343697
17.525867 93.456894 -43.662441
15.826352 95.955452 -42.00098
14.976637 93.271469 -43.837879
12.161475 92.686913 -43.87851
14.131002 90.339096 -45.409489
13.359569 87.361961 -46.644241
15.862379 87.555275 -46.729485
20.985474 80.997055 -48.367168
18.672007 81.405151 -48.631306
20.009626 77.785126 -49.287769
18.979261 74.331573 -50.017651
21.207558 73.874168 -49.759262
21.873627 69.796425 -50.129803
23.119493 73.509895 -49.337795
27.890471 74.709412 -46.661285
26.971066 71.59964 -47.885418
28.599699 70.30751 -46.901653
29.128727 65.877716 -46.993347
30.116743 69.338753 -45.632694
29.999653 83.387375 -41.024494
31.345325 81.679131 -39.418293
33.797474 71.264023 -38.982922
32.706898 73.172417 -40.78112
33.309353 68.588928 -41.114609
32.703964 65.683716 -42.885899
33.890446 63.688347 -41.172451
34.221581 59.052189 -41.300606
34.84066 61.943539 -39.546837
36.957729 59.846523 -33.8386
36.641998 57.445164 -35.928757
37.414169 55.164314 -34.056297
3.241642 53.629696 -50.355186
1.470138 53.705803 -49.632935
2.162569 50.770496 -50.671871
18.161507 49.967972 -51.420113
16.244865 50.794983 -51.701271
16.375538 46.352188 -51.689243
12.868988 39.783485 -52.372967
36.435947 45.65023 -37.807835
10.738596 63.452293 -50.850136
9.428241 59.71788 -51.008495
11.526132 59.83041 -51.277443
12.188331 56.050789 -51.620441
12.679976 51.901436 -51.89986
26.467558 58.791035 -49.01778
25.02733 55.202999 -49.635536
26.644598 53.911701 -48.810814
26.53229 48.700047 -48.551121
26.196281 43.808392 -48.264935
5.6514 75.894768 -47.869003
6.442631 79.2911 -47.473331
8.987713 79.934113 -48.079395
11.443811 80.602898 -48.455406
8.225972 101.878937 -33.646107
10.216945 101.115303 -35.806828
21.329954 98.49604 -38.518932
19.211565 98.592033 -39.262142
20.720018 96.258957 -40.888069
19.911621 93.578156 -43.147858
19.037836 90.897644 -44.94384
18.320171 87.911064 -46.470192
20.551247 87.84404 -46.120361
21.954992 84.548866 -47.028275
23.107527 80.689171 -47.840897
24.235041 76.564171 -48.40163
25.146719 79.89183 -47.165707
27.003448 79.201065 -46.179169
28.680634 78.055885 -45.06205
34.126347 73.585579 -36.683132
34.817635 69.180954 -36.957321
35.321682 64.503387 -37.514629
35.674328 66.62825 -35.293503
4.494641 47.624859 -52.043613
2.789159 47.801216 -51.694054
3.32355 44.872189 -52.663437
17.697323 40.734245 -51.220325
16.092119 41.693829 -51.661697
32.315887 52.643478 -44.210903
30.956474 49.24614 -45.416641
32.318535 47.643089 -43.920433
32.072376 42.59103 -43.636356
15.130195 106.283897 -27.345306
14.568471 105.085083 -30.387762
17.048246 105.38475 -29.751913
18.720436 104.106354 -31.989363
20.414314 102.456688 -33.973618
22.965105 103.283493 -30.077606
22.506435 102.021278 -33.040485
21.969336 100.228447 -36.122536
23.457481 97.918961 -37.688511
24.88242 95.20105 -39.116322
26.158886 92.035446 -40.506947
27.386852 88.497841 -41.633953
2.34351 62.481956 -48.409122
1.471908 59.395813 -48.454041
3.398034 59.614597 -49.331532
4.330126 56.595242 -50.172081
5.230478 53.56218 -50.956295
8.245755 56.315083 -51.184509
7.063345 53.083477 -51.408825
5.717938 50.250023 -51.661701
6.188073 46.783661 -52.384338
6.662555 43.707813 -52.976051
13.227603 106.752792 -24.801723
15.770249 107.161621 -24.186796
18.224152 107.200233 -23.473938
20.257277 106.956154 -22.379871
19.240147 62.381611 -51.093239
17.809189 58.658913 -51.387508
19.619259 57.868408 -51.179447
19.825928 53.502277 -51.156521
19.828234 48.715607 -51.051674
23.296026 51.555119 -50.169823
21.546947 47.821487 -50.549229
19.684755 44.102001 -50.875591
29.402214 45.70153 -46.392567
27.528822 41.895893 -47.244884
-0.708805 64.583618 -46.301495
-1.451218 69.993248 -45.104664
-0.074422 67.779205 -46.302536
1.221365 65.096603 -47.43853
3.284893 65.675865 -48.397457
5.351889 66.251617 -49.15834
7.508834 66.73381 -49.789162
7.212125 73.208107 -48.831486
8.421195 70.351181 -49.58078
9.672305 66.790909 -50.309887
11.948254 67.047005 -50.671349
14.090514 67.166206 -50.880527
16.449327 66.899994 -50.977127
1.0037 95.031097 -37.347298
13.799642 103.601845 -33.165607
12.985301 101.749649 -35.839367
12.10609 99.773903 -38.056664
16.660528 98.478241 -39.803806
14.063397 98.13575 -40.058891
11.347649 97.264771 -40.364998
10.404963 94.89267 -42.03965
9.530905 91.943611 -43.728783
8.603617 89.106705 -44.950279
10.639567 86.651993 -46.476181
12.465988 84.109276 -47.665737
13.777616 80.999077 -48.697304
17.237043 84.722961 -47.757648
16.353613 81.368675 -48.748978
15.23005 77.769081 -49.517792
16.633537 74.475143 -50.110813
17.606625 70.833992 -50.566978
18.578606 66.718094 -50.897068
20.623388 65.982803 -50.692924
22.653254 65.412933 -50.29285
24.478035 64.582169 -49.761036
25.132185 72.711441 -48.702583
25.786932 68.408546 -48.925125
26.193184 63.576321 -49.061352
27.853582 62.367455 -48.153023
29.4877 60.898407 -46.995319
30.873806 59.22863 -45.782345
28.479362 84.655067 -42.539288
29.434788 80.95491 -43.102791
30.230057 76.618881 -43.717335
32.069187 77.40097 -40.243378
31.593531 74.850716 -42.274044
30.921377 72.157349 -44.098663
31.411654 67.45533 -44.429688
31.900808 62.687412 -44.42625
32.1292 57.796497 -44.444763
33.352173 56.28949 -42.890327
34.42284 54.363033 -41.322582
35.463936 52.38184 -39.567337
35.780922 59.815563 -37.750633
36.156891 55.028019 -37.821484
36.325054 50.438694 -37.937187
37.171982 48.440914 -36.148109
0.7273 56.37286 -48.637569
1.148381 47.981361 -51.195103
16.117533 55.308929 -51.619453
14.605371 51.600723 -51.834366
12.978714 47.968597 -52.094391
14.540187 42.93829 -52.004429
12.934725 43.802963 -52.264648
11.303583 44.704418 -52.43927
9.806533 41.73098 -52.885117
7.056914 86.988231 -45.346025
6.729787 85.457855 -45.818112
12.22665 105.142941 -29.29849
10.834367 104.698655 -29.543429
11.195908 105.345249 -28.078864
0.072367 60.492153 -47.459345
-0.481522 61.723297 -46.846724
23.270634 38.32465 -49.036512
22.467301 39.017292 -49.466852
23.540557 40.803459 -49.208618
2.134127 74.719383 -46.542122
1.241767 75.86055 -45.912987
2.934034 73.521335 -47.130538
1.73519 73.06036 -46.610479
2.134127 74.719383 -46.542122
4.114981 73.779106 -47.607069
3.716044 72.120082 -47.675427
2.934034 73.521335 -47.130538
31.476368 82.816006 -38.239965
30.839158 83.700012 -39.133337
37.572492 56.077924 -32.968508
37.185949 57.505418 -33.947449
37.344273 58.419029 -32.85966
37.766361 53.881319 -33.144344
37.572492 56.077924 -32.968508
36.430343 43.313192 -37.674574
36.847642 44.825907 -36.960144
5.54014 80.487336 -46.855209
5.202856 78.89352 -47.093498
34.59018 72.356777 -35.74334
34.2456 74.53146 -35.443941
34.935823 70.154465 -35.880434
34.471991 71.383266 -36.820227
34.59018 72.356777 -35.74334
35.36417 68.878113 -35.048525
35.245981 67.904602 -36.125412
34.935823 70.154465 -35.880434
16.773349 39.082971 -51.385864
17.500104 38.321228 -51.112232
32.509202 39.202269 -42.625603
31.901551 39.987858 -43.403418
32.680027 41.805441 -42.858542
23.880961 102.846397 -29.424563
23.188798 103.784157 -28.396535
23.276365 100.856136 -33.980312
23.470629 101.586803 -32.563141
24.240558 100.421661 -33.502967
23.007815 99.959721 -35.521338
22.237885 101.124863 -34.58151
23.276365 100.856136 -33.980312
23.751888 98.804978 -36.304325
22.713408 99.073704 -36.905524
23.007815 99.959721 -35.521338
25.826463 94.639152 -38.522465
25.152575 96.109344 -37.869074
26.464696 93.05635 -39.217777
25.520653 93.618248 -39.811634
25.826463 94.639152 -38.522465
27.016524 91.489182 -39.839626
26.464696 93.05635 -39.217777
7.563478 41.593142 -53.278164
6.740897 42.042439 -53.279392
7.485136 43.258516 -52.974823
12.666108 107.111618 -21.975856
13.096017 107.369903 -20.41424
13.566316 107.088787 -23.210342
12.327395 106.775623 -23.567237
12.666108 107.111618 -21.975856
20.188883 41.005093 -50.503414
19.458607 41.673983 -50.771982
20.415031 43.433111 -50.607023
27.395375 39.478342 -46.977758
28.302779 41.389128 -46.639602
28.169331 38.971576 -46.372476
26.643462 40.196078 -47.538887
27.395375 39.478342 -46.977758
-1.33502 65.697842 -45.701441
-1.567728 64.149242 -45.701514
-1.291218 71.605675 -45.013609
-2.170779 71.023842 -44.451531
2.790125 96.879909 -36.65424
3.117726 97.938438 -35.651619
4.150842 97.620754 -36.764363
2.41347 95.796661 -37.557141
1.380355 96.114345 -36.444397
2.790125 96.879909 -36.65424
3.341929 95.269142 -38.654803
1.932159 94.503578 -38.44496
2.41347 95.796661 -37.557141
6.298846 93.316864 -41.72625
5.294519 94.071095 -40.723884
6.67082 94.56821 -40.951179
7.175458 92.407409 -42.650671
6.298846 93.316864 -41.72625
28.687356 86.012058 -41.430439
27.933107 86.576454 -42.08662
28.141101 87.933445 -40.977772
32.606215 76.594769 -39.336977
32.263704 78.62535 -39.006649
32.800731 77.819149 -38.100248
0.61078 53.548069 -49.228043
0.966271 52.229979 -49.813881
14.434981 40.69667 -52.006449
15.316153 42.31606 -51.833063
15.210947 40.07444 -51.835083
6.350491 83.745365 -46.248547
5.960504 82.117356 -46.588121
7.662655 84.26363 -46.50872
6.350491 83.745365 -46.248547
6.729787 85.457855 -45.818112
9.437798 104.202393 -29.754636
8.082387 103.649288 -29.90439
8.448214 104.347859 -28.473557
10.46854 104.000084 -30.974262
9.437798 104.202393 -29.754636
10.834367 104.698655 -29.543429
4.319954 43.224695 -53.209816
5.093454 42.836212 -53.248956
14.346354 107.621525 -20.071492
13.096017 107.369903 -20.41424
15.588544 107.75594 -19.846428
15.147219 107.559196 -21.393897
14.346354 107.621525 -20.071492
16.680732 107.838413 -19.352137
15.588544 107.75594 -19.846428
17.794268 107.828652 -18.767189
17.502943 107.68385 -20.583886
16.680732 107.838413 -19.352137
21.734797 39.748638 -49.841566
20.938837 40.382698 -50.191315
21.941266 42.130161 -49.988707
21.734797 39.748638 -49.841566
22.467301 39.017292 -49.466852
29.769445 40.063547 -45.350876
29.945866 42.636974 -45.553564
30.638575 41.818159 -44.870119
28.828609 38.135622 -45.770861
29.769445 40.063547 -45.350876
28.169331 38.971576 -46.372476
28.828609 38.135622 -45.770861
0.139863 75.249386 -45.401832
1.241767 75.86055 -45.912987
-0.097968 73.738255 -45.472309
-0.893388 74.729233 -44.852078
0.139863 75.249386 -45.401832
0.707072 72.596238 -46.126291
-0.326179 72.076085 -45.576536
-0.097968 73.738255 -45.472309
5.888668 99.317154 -35.83392
4.862775 99.650234 -34.653664
6.272998 100.288105 -34.725842
30.166322 84.554135 -39.936437
29.447502 85.378212 -40.673042
29.614171 86.544972 -39.584986
30.672489 82.533253 -40.221393
30.166322 84.554135 -39.936437
30.839158 83.700012 -39.133337
37.549637 52.937798 -34.230635
37.311394 51.804123 -35.284607
37.175926 54.030639 -35.11027
37.549637 52.937798 -34.230635
37.766361 53.881319 -33.144344
1.312486 50.762325 -50.333349
0.966271 52.229979 -49.813881
1.816353 52.23815 -50.152403
0.822572 45.433866 -52.032269
1.041989 44.207033 -52.64402
12.745717 37.70314 -52.406405
13.599381 39.119268 -52.190718
12.054077 38.330656 -52.612498
12.745717 37.70314 -52.406405
11.273086 38.828597 -52.764429
12.087996 40.281425 -52.524899
12.054077 38.330656 -52.612498
10.56313 39.481949 -52.927595
11.273086 38.828597 -52.764429
35.961731 44.051002 -38.532076
35.516298 44.800962 -39.365778
35.990515 46.40019 -38.641537
35.961731 44.051002 -38.532076
36.430343 43.313192 -37.674574
22.652401 105.071045 -25.571422
22.821786 105.403225 -23.910725
4.80724 77.195355 -47.291334
4.492185 75.537564 -47.465592
6.047016 77.592934 -47.671167
4.80724 77.195355 -47.291334
5.202856 78.89352 -47.093498
6.862995 80.92112 -47.206243
5.54014 80.487336 -46.855209
5.960504 82.117356 -46.588121
7.668073 102.916236 -31.241903
8.082387 103.649288 -29.90439
7.245073 102.103794 -32.472223
7.668073 102.916236 -31.241903
8.648972 102.691379 -32.415788
6.736539 101.250061 -33.595847
7.245073 102.103794 -32.472223
7.762431 100.916981 -34.776102
6.272998 100.288105 -34.725842
6.736539 101.250061 -33.595847
33.298452 76.838173 -37.184778
32.800731 77.819149 -38.100248
33.790005 75.736679 -36.311056
34.2456 74.53146 -35.443941
33.634794 74.687073 -37.556854
33.298452 76.838173 -37.184778
33.790005 75.736679 -36.311056
35.76733 67.672981 -34.100195
35.36417 68.878113 -35.048525
36.087557 65.454212 -34.257711
35.76733 67.672981 -34.100195
36.33979 63.303902 -34.429645
35.926562 64.477939 -35.465437
36.087557 65.454212 -34.257711
36.729258 62.063349 -33.53026
36.568262 61.087076 -34.737986
36.33979 63.303902 -34.429645
37.10523 60.653807 -32.617432
36.729258 62.063349 -33.53026
37.344273 58.419029 -32.85966
37.10523 60.653807 -32.617432
3.511953 43.450081 -53.109533
4.131552 44.646803 -52.76372
4.319954 43.224695 -53.209816
2.712862 43.687455 -53.034941
3.511953 43.450081 -53.109533
1.885649 43.880756 -52.859718
2.496336 45.065491 -52.488214
2.712862 43.687455 -53.034941
1.041989 44.207033 -52.64402
1.885649 43.880756 -52.859718
15.970747 39.562764 -51.60655
16.894721 41.214037 -51.441011
16.773349 39.082971 -51.385864
15.210947 40.07444 -51.835083
15.970747 39.562764 -51.60655
31.267265 40.917881 -44.151893
30.638575 41.818159 -44.870119
31.443686 43.491308 -44.354581
31.267265 40.917881 -44.151893
31.901551 39.987858 -43.403418
34.990112 43.291683 -40.082518
35.018896 45.640871 -40.191979
35.516298 44.800962 -39.365778
34.425886 41.68444 -40.684618
34.990112 43.291683 -40.082518
33.82337 40.12857 -41.270623
33.890194 42.575722 -41.494723
34.425886 41.68444 -40.684618
33.088875 38.589067 -41.896215
33.82337 40.12857 -41.270623
32.509202 39.202269 -42.625603
33.088875 38.589067 -41.896215
22.471477 104.60701 -27.364757
21.711388 105.393234 -26.220715
22.652401 105.071045 -25.571422
22.247785 104.106346 -29.045828
22.471477 104.60701 -27.364757
23.188798 103.784157 -28.396535
23.699964 102.217911 -31.081701
23.880961 102.846397 -29.424563
22.73577 102.652386 -31.559045
23.699964 102.217911 -31.081701
23.470629 101.586803 -32.563141
24.440106 97.4683 -37.155169
23.751888 98.804978 -36.304325
24.16995 96.560005 -38.402417
24.440106 97.4683 -37.155169
25.152575 96.109344 -37.869074
27.630508 89.720379 -40.403129
26.772869 90.266643 -41.07045
27.016524 91.489182 -39.839626
28.141101 87.933445 -40.977772
27.630508 89.720379 -40.403129
5.954956 42.47941 -53.304981
5.093454 42.836212 -53.248956
5.801054 44.064615 -52.920026
5.954956 42.47941 -53.304981
6.740897 42.042439 -53.279392
11.631808 105.90274 -26.613295
11.195908 105.345249 -28.078864
10.239524 105.458454 -26.858235
11.951514 106.384368 -25.097195
12.327395 106.775623 -23.567237
12.907897 106.271164 -26.317824
11.631808 105.90274 -26.613295
11.951514 106.384368 -25.097195
18.859912 107.746285 -18.120525
17.794268 107.828652 -18.767189
19.653426 107.468235 -19.480793
18.859912 107.746285 -18.120525
20.473825 107.109268 -20.67126
19.436878 107.315121 -21.189405
19.653426 107.468235 -19.480793
21.318211 106.607216 -21.73591
20.473825 107.109268 -20.67126
22.135728 106.057773 -22.759664
21.074794 106.406712 -23.403626
21.318211 106.607216 -21.73591
22.821786 105.403225 -23.910725
22.135728 106.057773 -22.759664
18.464892 39.990105 -50.944349
18.691039 42.418123 -51.047958
19.458607 41.673983 -50.771982
17.500104 38.321228 -51.112232
18.464892 39.990105 -50.944349
20.188883 41.005093 -50.503414
20.938837 40.382698 -50.191315
25.977191 41.152327 -48.048913
26.862552 42.852142 -47.754909
26.643462 40.196078 -47.538887
25.050995 39.303539 -48.305584
25.270085 41.959604 -48.521607
25.977191 41.152327 -48.048913
23.995545 37.565922 -48.599243
25.050995 39.303539 -48.305584
23.270634 38.32465 -49.036512
23.995545 37.565922 -48.599243
-1.050037 62.97558 -46.292046
-1.567728 64.149242 -45.701514
-0.140291 63.331335 -46.856173
-0.481522 61.723297 -46.846724
-1.050037 62.97558 -46.292046
-2.348686 69.505764 -44.461891
-2.170779 71.023842 -44.451531
-1.706226 68.402657 -45.103026
-2.348686 69.505764 -44.461891
-0.486178 70.463657 -45.667591
-1.291218 71.605675 -45.013609
-0.326179 72.076085 -45.576536
-1.017828 67.295635 -45.701962
-1.706226 68.402657 -45.103026
-0.76282 68.886226 -45.7036
-0.391614 66.181411 -46.302016
-1.33502 65.697842 -45.701441
-1.017828 67.295635 -45.701962
5.274195 74.136311 -48.01048
4.114981 73.779106 -47.607069
4.492185 75.537564 -47.465592
3.538456 98.949742 -34.61137
4.862775 99.650234 -34.653664
3.538456 98.949742 -34.61137
3.117726 97.938438 -35.651619
0.010189 95.340824 -36.156601
1.380355 96.114345 -36.444397
-0.240921 94.230854 -37.108829
0.010189 95.340824 -36.156601
0.589916 93.716175 -38.191544
-0.240921 94.230854 -37.108829
0.589916 93.716175 -38.191544
1.932159 94.503578 -38.44496
4.263555 94.64925 -39.745718
3.341929 95.269142 -38.654803
4.744866 95.942333 -38.857899
4.263555 94.64925 -39.745718
5.294519 94.071095 -40.723884
8.103337 91.472225 -43.53829
7.175458 92.407409 -42.650671
8.603027 92.878795 -42.841164
7.639692 90.053772 -44.149038
8.103337 91.472225 -43.53829
9.067261 90.525158 -44.339531
7.337747 88.553524 -44.782022
7.639692 90.053772 -44.149038
8.322784 87.541413 -45.514282
7.056914 86.988231 -45.346025
7.337747 88.553524 -44.782022
29.239507 84.021221 -41.781891
28.687356 86.012058 -41.430439
29.447502 85.378212 -40.673042
31.901773 80.764431 -38.594106
31.476368 82.816006 -38.239965
31.707256 79.540051 -39.830835
31.901773 80.764431 -38.594106
32.263704 78.62535 -39.006649
37.21566 46.221249 -36.130281
36.847642 44.825907 -36.960144
36.803964 47.045572 -36.977972
37.428543 49.576098 -35.27654
37.054833 50.66894 -36.156176
37.311394 51.804123 -35.284607
37.55173 47.348692 -35.272033
37.428543 49.576098 -35.27654
37.21566 46.221249 -36.130281
37.55173 47.348692 -35.272033
0.59421 59.150533 -47.98094
0.072367 60.492153 -47.459345
0.950066 60.737432 -47.932446
0.221905 57.639057 -48.072704
0.59421 59.150533 -47.98094
1.099604 57.884337 -48.545805
-0.146378 56.208069 -48.129818
0.221905 57.639057 -48.072704
0.239361 54.881597 -48.73036
1.098719 55.039332 -49.135252
0.61078 53.548069 -49.228043
-0.146378 56.208069 -48.129818
0.239361 54.881597 -48.73036
0.805393 49.367757 -50.594965
1.312486 50.762325 -50.333349
1.655475 49.375929 -50.933487
0.562201 46.79515 -51.473324
1.408752 46.620077 -51.754047
0.822572 45.433866 -52.032269
0.322053 48.059649 -50.845263
0.562201 46.79515 -51.473324
0.805393 49.367757 -50.594965
0.322053 48.059649 -50.845263
13.704587 41.360888 -52.188698
14.434981 40.69667 -52.006449
13.599381 39.119268 -52.190718
9.812894 39.957756 -53.031739
10.556769 41.255173 -52.780974
10.56313 39.481949 -52.927595
9.029854 40.423981 -53.180532
9.812894 39.957756 -53.031739
8.280447 40.9631 -53.224772
9.057125 42.2701 -52.929356
9.029854 40.423981 -53.180532
7.563478 41.593142 -53.278164
8.280447 40.9631 -53.224772
3 0 81 79
3 2 84 82
3 319 86 320
3 1 321 323
3 321 88 322
3 321 322 323
3 4 91 89
3 4 93 91
3 4 95 93
3 3 324 325
3 5 98 96
3 6 101 99
3 8 104 102
3 10 107 105
3 10 109 107
3 11 113 111
3 13 116 114
3 13 326 328
3 328 327 116
3 326 327 328
3 329 118 330
3 331 120 332
3 333 332 118
3 331 332 333
3 334 122 335
3 336 335 120
3 334 335 336
3 14 125 123
3 14 127 125
3 15 130 128
3 15 132 130
3 7 135 133
3 16 138 136
3 16 140 138
3 16 142 140
3 17 145 143
3 17 147 145
3 17 149 147
3 18 152 150
3 18 154 152
3 337 156 338
3 19 159 157
3 19 161 159
3 19 163 161
3 339 166 340
3 341 340 164
3 339 340 341
3 343 342 166
3 9 169 167
3 12 172 170
3 345 344 174
3 20 177 175
3 22 178 80
3 22 179 178
3 23 182 180
3 25 183 83
3 25 184 183
3 346 186 347
3 27 187 85
3 27 188 187
3 28 189 87
3 28 190 189
3 29 193 191
3 31 194 90
3 31 195 194
3 31 197 195
3 33 198 92
3 33 199 198
3 33 201 199
3 35 202 94
3 35 203 202
3 348 204 349
3 350 205 351
3 352 351 204
3 350 351 352
3 353 207 354
3 355 354 205
3 353 354 355
3 38 210 208
3 357 356 211
3 40 215 213
3 42 216 97
3 42 358 360
3 360 359 216
3 358 359 360
3 43 219 217
3 45 220 100
3 45 221 220
3 361 222 362
3 363 223 364
3 363 364 365
3 366 224 367
3 368 367 223
3 366 367 368
3 369 225 370
3 371 370 224
3 369 370 371
3 372 226 373
3 374 227 375
3 376 375 226
3 374 375 376
3 378 377 227
3 46 231 229
3 48 232 103
3 48 233 232
3 21 234 176
3 49 235 106
3 49 236 235
3 49 237 236
3 50 238 108
3 50 379 381
3 381 380 238
3 379 380 381
3 51 382 383
3 51 384 386
3 384 239 385
3 384 385 386
3 51 240 239
3 52 241 110
3 52 242 241
3 53 245 243
3 55 246 112
3 55 247 246
3 24 248 181
3 56 249 115
3 56 250 249
3 56 387 389
3 389 388 250
3 387 388 389
3 41 251 214
3 390 252 391
3 392 391 117
3 390 391 392
3 394 393 252
3 395 253 396
3 397 254 398
3 57 255 119
3 57 256 255
3 57 257 256
3 58 258 121
3 58 259 258
3 26 260 185
3 59 261 124
3 59 262 261
3 59 263 262
3 60 264 126
3 60 265 264
3 61 399 401
3 401 400 129
3 399 400 401
3 61 402 404
3 402 266 403
3 402 403 404
3 61 405 407
3 407 406 266
3 405 406 407
3 62 408 410
3 410 409 131
3 408 409 410
3 62 411 412
3 44 267 218
3 63 268 134
3 63 269 268
3 30 270 192
3 64 271 137
3 64 272 271
3 64 273 272
3 65 274 139
3 65 275 274
3 65 276 275
3 66 277 141
3 66 278 277
3 32 279 196
3 67 280 144
3 67 281 280
3 67 282 281
3 68 283 146
3 68 284 283
3 68 285 284
3 69 286 148
3 69 287 286
3 34 288 200
3 70 289 151
3 70 290 289
3 70 291 290
3 71 292 153
3 71 293 292
3 413 294 414
3 415 414 228
3 413 414 415
3 72 295 155
3 72 296 295
3 36 416 418
3 416 297 417
3 416 417 418
3 73 298 158
3 73 299 298
3 73 300 299
3 74 301 160
3 74 302 301
3 74 303 302
3 75 304 162
3 75 305 304
3 37 306 206
3 76 307 165
3 76 308 307
3 76 309 308
3 47 310 230
3 420 419 168
3 39 311 209
3 54 312 244
3 77 313 171
3 77 314 313
3 421 315 422
3 423 422 212
3 421 422 423
3 78 316 173
3 78 317 316
3 78 318 317
3 79 80 20
3 81 80 79
3 81 22 80
3 82 83 23
3 84 83 82
3 84 25 83
3 424 85 425
3 86 426 428
3 426 85 427
3 426 427 428
3 86 27 85
3 429 87 430
3 429 430 431
3 88 432 434
3 432 87 433
3 432 433 434
3 88 28 87
3 89 90 29
3 91 90 89
3 91 31 90
3 91 92 31
3 93 92 91
3 93 33 92
3 93 94 33
3 95 94 93
3 95 35 94
3 436 435 38
3 96 97 40
3 98 97 96
3 98 42 97
3 99 100 43
3 101 100 99
3 101 45 100
3 102 103 46
3 104 103 102
3 104 48 103
3 105 106 21
3 107 106 105
3 107 49 106
3 107 108 49
3 109 108 107
3 109 50 108
3 437 51 438
3 439 110 440
3 441 440 51
3 439 440 441
3 442 110 443
3 444 52 445
3 446 445 110
3 444 445 446
3 111 112 53
3 113 112 111
3 113 55 112
3 114 115 24
3 116 115 114
3 116 56 115
3 116 447 449
3 449 448 56
3 447 448 449
3 451 450 116
3 452 117 453
3 454 453 41
3 452 453 454
3 455 117 456
3 458 457 117
3 118 459 460
3 118 461 463
3 461 462 463
3 118 464 466
3 464 119 465
3 464 465 466
3 120 119 118
3 120 57 119
3 120 121 57
3 122 121 120
3 122 58 121
3 123 124 26
3 125 124 123
3 125 59 124
3 125 126 59
3 127 126 125
3 127 60 126
3 128 467 469
3 467 129 468
3 467 468 469
3 130 129 128
3 130 61 129
3 130 131 61
3 132 131 130
3 132 62 131
3 133 134 44
3 135 134 133
3 135 63 134
3 136 137 30
3 138 137 136
3 138 64 137
3 138 139 64
3 140 139 138
3 140 65 139
3 140 141 65
3 142 141 140
3 142 66 141
3 143 144 32
3 145 144 143
3 145 67 144
3 145 146 67
3 147 146 145
3 147 68 146
3 147 148 68
3 149 148 147
3 149 69 148
3 150 151 34
3 152 151 150
3 152 70 151
3 152 153 70
3 154 153 152
3 154 71 153
3 470 155 471
3 470 471 472
3 156 473 475
3 473 155 474
3 473 474 475
3 156 72 155
3 157 158 36
3 159 158 157
3 159 73 158
3 159 160 73
3 161 160 159
3 161 74 160
3 161 162 74
3 163 162 161
3 163 75 162
3 164 165 37
3 166 165 164
3 166 76 165
3 166 476 478
3 478 477 76
3 476 477 478
3 480 479 166
3 167 168 47
3 169 168 167
3 169 481 483
3 483 482 168
3 481 482 483
3 485 484 39
3 170 171 54
3 172 171 170
3 172 77 171
3 486 173 487
3 488 173 489
3 490 78 491
3 492 491 173
3 490 491 492
3 494 493 78
3 174 495 497
3 497 496 5
3 495 496 497
3 499 498 174
3 501 500 6
3 175 176 8
3 177 176 175
3 177 21 176
3 80 177 20
3 178 177 80
3 178 21 177
3 178 105 21
3 179 105 178
3 179 10 105
3 180 181 11
3 182 181 180
3 182 24 181
3 83 182 23
3 183 182 83
3 183 24 182
3 183 114 24
3 184 114 183
3 184 13 114
3 502 185 503
3 186 504 506
3 504 185 505
3 504 505 506
3 186 26 185
3 85 507 509
3 507 186 508
3 507 508 509
3 187 186 85
3 187 26 186
3 187 123 26
3 188 123 187
3 188 14 123
3 87 510 511
3 189 512 514
3 514 513 87
3 512 513 514
3 189 515 516
3 189 517 519
3 517 128 518
3 517 518 519
3 190 128 189
3 190 15 128
3 191 192 7
3 193 192 191
3 193 30 192
3 90 193 29
3 194 193 90
3 194 30 193
3 194 136 30
3 195 136 194
3 195 16 136
3 195 196 16
3 197 196 195
3 197 32 196
3 92 197 31
3 198 197 92
3 198 32 197
3 198 143 32
3 199 143 198
3 199 17 143
3 199 200 17
3 201 200 199
3 201 34 200
3 94 201 33
3 202 201 94
3 202 34 201
3 202 150 34
3 203 150 202
3 203 18 150
3 520 36 521
3 204 522 523
3 204 524 526
3 524 36 525
3 524 525 526
3 204 157 36
3 205 157 204
3 205 19 157
3 205 206 19
3 207 206 205
3 207 37 206
3 527 207 528
3 529 207 530
3 531 37 532
3 533 532 207
3 531 532 533
3 534 164 535
3 536 535 37
3 534 535 536
3 537 164 538
3 540 539 164
3 208 209 9
3 210 209 208
3 210 39 209
3 541 210 542
3 543 542 38
3 541 542 543
3 544 210 545
3 546 39 547
3 548 547 210
3 546 547 548
3 550 549 39
3 211 212 12
3 551 212 552
3 553 552 211
3 551 552 553
3 555 554 212
3 213 214 2
3 215 214 213
3 215 41 214
3 97 215 40
3 216 215 97
3 216 41 215
3 216 556 558
3 558 557 41
3 556 557 558
3 560 559 216
3 561 98 562
3 563 562 5
3 561 562 563
3 564 98 565
3 566 42 567
3 568 567 98
3 566 567 568
3 569 42 570
3 572 571 42
3 217 218 1
3 219 218 217
3 219 44 218
3 100 219 43
3 220 219 100
3 220 44 219
3 220 133 44
3 221 133 220
3 221 7 133
3 573 101 574
3 575 574 6
3 573 574 575
3 222 576 578
3 576 101 577
3 576 577 578
3 222 45 101
3 579 222 580
3 223 581 583
3 581 222 582
3 581 582 583
3 223 45 222
3 223 221 45
3 224 221 223
3 224 7 221
3 224 191 7
3 225 191 224
3 225 29 191
3 584 225 585
3 226 586 588
3 586 225 587
3 586 587 588
3 226 29 225
3 226 89 29
3 227 89 226
3 227 4 89
3 227 228 4
3 589 228 590
3 591 590 227
3 589 590 591
3 593 592 228
3 229 230 3
3 231 230 229
3 231 47 230
3 103 231 46
3 232 231 103
3 232 47 231
3 232 167 47
3 233 167 232
3 233 9 167
3 176 104 8
3 234 104 176
3 234 48 104
3 106 234 21
3 235 234 106
3 235 48 234
3 235 233 48
3 236 233 235
3 236 9 233
3 236 208 9
3 237 208 236
3 237 38 208
3 108 237 49
3 238 237 108
3 238 38 237
3 238 594 596
3 596 595 38
3 594 595 596
3 598 597 238
3 599 1 600
3 599 600 601
3 239 602 603
3 239 604 606
3 604 1 605
3 604 605 606
3 239 217 1
3 240 217 239
3 240 43 217
3 110 240 51
3 241 240 110
3 241 43 240
3 241 99 43
3 242 99 241
3 242 6 99
3 607 52 608
3 609 52 610
3 611 242 612
3 613 612 52
3 611 612 613
3 614 242 615
3 616 6 617
3 618 617 242
3 616 617 618
3 620 619 6
3 243 244 0
3 245 244 243
3 245 54 244
3 112 245 53
3 246 245 112
3 246 54 245
3 246 170 54
3 247 170 246
3 247 12 170
3 181 113 11
3 248 113 181
3 248 55 113
3 115 248 24
3 249 248 115
3 249 55 248
3 249 247 55
3 250 247 249
3 250 12 247
3 250 211 12
3 621 211 622
3 623 622 250
3 621 622 623
3 625 624 211
3 627 626 56
3 214 84 2
3 251 84 214
3 251 25 84
3 117 251 41
3 252 251 117
3 252 25 251
3 252 184 25
3 628 184 629
3 630 629 252
3 628 629 630
3 631 13 632
3 633 632 184
3 631 632 633
3 634 13 635
3 637 636 13
3 253 638 639
3 253 640 642
3 640 3 641
3 640 641 642
3 254 643 644
3 254 645 646
3 119 647 649
3 647 254 648
3 647 648 649
3 255 254 119
3 255 650 652
3 652 651 254
3 650 651 652
3 255 653 655
3 653 253 654
3 653 654 655
3 256 253 255
3 256 3 253
3 256 229 3
3 257 229 256
3 257 46 229
3 121 257 57
3 258 257 121
3 258 46 257
3 258 102 46
3 259 102 258
3 259 8 102
3 185 656 658
3 656 122 657
3 656 657 658
3 260 122 185
3 260 58 122
3 124 260 26
3 261 260 124
3 261 58 260
3 261 259 58
3 262 259 261
3 262 8 259
3 262 175 8
3 263 175 262
3 263 20 175
3 126 263 59
3 264 263 126
3 264 20 263
3 264 79 20
3 265 79 264
3 265 0 79
3 129 659 660
3 662 661 129
3 266 663 664
3 266 665 666
3 266 667 668
3 670 669 266
3 131 671 673
3 673 672 61
3 671 672 673
3 675 674 131
3 218 88 1
3 267 88 218
3 267 28 88
3 134 267 44
3 268 267 134
3 268 28 267
3 268 190 28
3 269 190 268
3 269 15 190
3 192 135 7
3 270 135 192
3 270 63 135
3 137 270 30
3 271 270 137
3 271 63 270
3 271 269 63
3 272 269 271
3 272 15 269
3 272 132 15
3 273 132 272
3 273 62 132
3 139 273 64
3 274 273 139
3 274 62 273
3 274 676 678
3 678 677 62
3 676 677 678
3 275 679 681
3 681 680 274
3 679 680 681
3 275 682 683
3 275 684 686
3 684 86 685
3 684 685 686
3 276 86 275
3 276 27 86
3 141 276 65
3 277 276 141
3 277 27 276
3 277 188 27
3 278 188 277
3 278 14 188
3 196 142 16
3 279 142 196
3 279 66 142
3 144 279 32
3 280 279 144
3 280 66 279
3 280 278 66
3 281 278 280
3 281 14 278
3 281 127 14
3 282 127 281
3 282 60 127
3 146 282 67
3 283 282 146
3 283 60 282
3 283 265 60
3 284 265 283
3 284 0 265
3 284 243 0
3 285 243 284
3 285 53 243
3 148 285 68
3 286 285 148
3 286 53 285
3 286 111 53
3 287 111 286
3 287 11 111
3 200 149 17
3 288 149 200
3 288 69 149
3 151 288 34
3 289 288 151
3 289 69 288
3 289 287 69
3 290 287 289
3 290 11 287
3 290 180 11
3 291 180 290
3 291 23 180
3 153 291 70
3 292 291 153
3 292 23 291
3 292 82 23
3 293 82 292
3 293 2 82
3 228 95 4
3 294 95 228
3 294 35 95
3 155 687 689
3 687 294 688
3 687 688 689
3 295 294 155
3 295 35 294
3 295 203 35
3 296 203 295
3 296 18 203
3 690 156 691
3 297 692 694
3 692 156 693
3 692 693 694
3 297 72 156
3 158 297 36
3 298 297 158
3 298 72 297
3 298 296 72
3 299 296 298
3 299 18 296
3 299 154 18
3 300 154 299
3 300 71 154
3 160 300 73
3 301 300 160
3 301 71 300
3 301 293 71
3 302 293 301
3 302 2 293
3 302 213 2
3 303 213 302
3 303 40 213
3 162 303 74
3 304 303 162
3 304 40 303
3 304 96 40
3 305 96 304
3 305 5 96
3 206 163 19
3 306 163 206
3 306 75 163
3 165 306 37
3 307 306 165
3 307 75 306
3 307 305 75
3 308 305 307
3 308 5 305
3 308 174 5
3 309 174 308
3 309 695 697
3 697 696 174
3 695 696 697
3 698 309 699
3 700 699 76
3 698 699 700
3 701 309 702
3 704 703 309
3 230 705 707
3 707 706 3
3 705 706 707
3 310 708 710
3 710 709 230
3 708 709 710
3 310 711 712
3 168 310 47
3 713 310 714
3 715 714 168
3 713 714 715
3 717 716 310
3 209 169 9
3 311 169 209
3 311 718 720
3 720 719 169
3 718 719 720
3 721 311 722
3 723 722 39
3 721 722 723
3 724 311 725
3 727 726 311
3 244 81 0
3 312 81 244
3 312 22 81
3 171 312 54
3 313 312 171
3 313 22 312
3 313 179 22
3 314 179 313
3 314 10 179
3 212 172 12
3 315 172 212
3 315 77 172
3 173 728 730
3 728 315 729
3 728 729 730
3 316 315 173
3 316 77 315
3 316 314 77
3 317 314 316
3 317 10 314
3 317 109 10
3 318 109 317
3 318 50 109
3 731 318 732
3 733 732 78
3 731 732 733
3 734 318 735
3 736 50 737
3 738 737 318
3 736 737 738
3 740 739 50
