ply
format ascii 1.0
element vertex 972
property float x
property float y
property float z
element face 946
property list uchar int vertex_index
end_header
-30.25631 -47.579952 43.311703
-36.23748 9.134612 22.224791
-28.602507 -65.920486 36.229939
-27.10483 -67.478142 16.068674
-30.183189 -55.922695 40.520325
-30.144936 -51.654709 48.997383
-28.787457 -61.92807 45.882385
-0.616333 75.333694 28.217207
-30.513762 -25.0196 31.954317
-37.786121 -5.02439 15.402042
-25.805563 -75.150398 30.607677
-28.03867 -67.500488 26.213343
-25.530487 -71.182884 40.819328
-29.609426 -39.194122 41.523518
-34.725315 -7.571092 23.840374
-35.602772 -20.777082 16.563877
-33.866611 -33.575588 8.662981
-30.362463 -51.368496 42.145111
-30.267128 -47.834332 40.105358
-30.304245 -49.540039 45.868557
-30.224943 -54.232349 44.906944
-27.254704 -70.736298 33.502243
-27.186232 -71.533005 28.54269
-28.358358 -66.904778 31.189766
-28.794918 -64.116425 41.209087
-27.365702 -66.726562 43.638107
-27.450619 -68.836082 38.652119
-25.669622 -73.511909 35.689827
-29.314665 -33.885502 40.290981
-29.766075 -38.396061 37.520943
-29.611273 -32.627914 36.429089
-35.50106 0.74876 23.321304
-37.813496 -12.045122 11.886278
-36.761177 -12.980636 16.233282
-36.602573 -19.558672 12.450837
-35.07333 -27.442982 12.743294
-35.576469 -26.558393 8.401858
-33.860035 -32.84024 4.315682
-26.733471 -72.109802 18.019768
-26.309904 -71.871307 12.713911
-29.602507 -60.966717 38.415878
-28.646709 -58.853306 50.731953
-29.709036 -56.876617 47.733742
-29.717545 -59.292084 43.195126
-30.978519 -18.118658 31.488857
-37.775749 10.77282 17.798691
-37.148602 2.135204 19.017345
-38.578583 3.749203 14.401203
-38.88126 -3.684152 10.769385
-27.495924 -62.643124 14.008441
-26.442709 -67.008507 10.765595
-27.011244 -72.024323 23.33754
-27.640337 -67.697929 21.258211
-27.156559 -63.751041 48.706894
-25.262922 -68.29998 45.836895
-22.883074 -72.427246 42.484241
-23.352295 -75.392448 37.391472
-30.046663 -44.9575 45.943802
-29.979677 -43.939426 42.580624
-30.0249 -43.461861 38.873859
-30.237602 -31.53974 32.532894
-36.339832 -6.114251 19.843159
-35.37492 -14.186156 20.383707
-34.325211 -21.748318 20.748053
-30.333302 -49.242241 42.779156
-30.335917 -49.628315 41.022503
-30.263813 -47.717602 41.96595
-30.290636 -48.414486 44.395828
-30.353584 -50.44109 43.97818
-27.952379 -68.373123 35.005302
-27.867884 -68.901192 32.527355
-28.474863 -66.551651 33.750736
-28.709627 -65.111176 38.793655
-28.15036 -66.5504 40.027294
-28.10721 -67.402405 37.564877
-27.380623 -69.78875 36.160297
-29.421467 -33.23727 38.381706
-29.379889 -30.247162 37.831554
-35.402538 7.960333 24.353237
-35.094261 4.144715 24.786983
-35.959099 4.940047 22.644814
-37.625942 -15.293484 9.921744
-37.23801 -15.88939 12.128123
-36.897842 -19.467447 10.249481
-36.175629 -23.166845 10.480657
-36.395481 -22.806618 8.170152
-26.940302 -69.719925 17.068439
-26.535654 -72.099159 15.409951
-26.642878 -69.809082 14.371812
-29.952072 -58.386257 39.558891
-29.910723 -52.904644 50.494785
-29.6222 -55.525887 50.018375
-29.985214 -54.358036 48.40509
-30.217972 -55.188141 42.665703
-30.037193 -56.653946 44.107307
-29.993259 -57.745651 41.890869
-29.687147 -60.161186 40.777538
-31.62397 -17.615129 29.687527
-31.953028 -13.798199 29.555073
-38.487514 11.649628 15.392035
-38.195587 7.320016 16.22994
-38.846668 7.980533 13.838536
-27.138342 -62.447247 11.485378
-25.961351 -75.578758 27.928917
-27.670776 -69.536629 27.495474
-27.127031 -71.757034 26.03393
-27.532621 -69.739754 24.867619
-27.337755 -69.985413 22.210352
-27.839197 -67.747047 23.763311
-28.776846 -60.339012 48.348656
-27.970818 -61.348274 49.785313
-28.066473 -62.87923 47.437378
-26.537905 -68.934959 42.28474
-26.443089 -67.481247 44.938541
-25.48942 -69.767761 43.283867
-24.192715 -70.396027 44.19281
-24.291119 -71.900208 41.812126
-23.191874 -73.878952 40.033314
-24.493496 -73.293114 39.18861
-25.713755 -74.439308 33.170269
-24.766788 -75.597748 34.140316
-2.033124 78.178596 26.713396
-29.874851 -42.810604 45.597618
-30.103762 -45.906937 47.612614
-29.797785 -41.680805 42.015568
-29.991016 -43.690304 40.715023
-29.820967 -41.305984 40.167805
-29.923029 -38.02906 35.498386
-29.995195 -40.760483 36.157059
-30.061857 -25.877007 33.684944
-29.938995 -29.128216 34.099121
-30.358683 -28.479147 32.176743
-37.518654 -1.518917 17.247429
-36.800365 -1.935486 19.392408
-37.081745 -5.329041 17.777405
-36.163795 -17.076633 16.495277
-36.095798 -13.570411 18.345694
-35.520538 -17.522486 18.630461
-34.856617 -18.194395 20.51557
-35.003426 -21.184126 18.679302
-34.383114 -25.014132 18.85804
-34.924133 -24.47003 16.92919
-34.547058 -30.605764 10.756207
-34.319214 -30.903509 12.927932
-33.740959 -33.97316 10.878396
-32.726215 -35.905838 2.144089
-32.541813 -35.309177 -0.122747
-26.115307 -66.791336 8.350996
-26.061766 -69.389748 9.226228
-25.748426 -68.902863 6.629049
-30.316832 -53.533024 41.33992
-30.347885 -51.804626 40.182812
-30.262135 -50.659782 47.408707
-30.197443 -53.161434 46.964973
-30.317732 -51.869362 45.419331
-30.329931 -52.821808 43.505791
9.790133 -74.391914 22.791718
-26.534666 -72.959213 32.146915
-26.556456 -73.493111 29.477661
-27.213539 -71.239037 31.006371
-27.80196 -69.164452 29.982622
-28.209944 -67.223579 28.685516
-28.821056 -63.13007 43.41647
-28.136206 -64.297234 44.93417
-28.156054 -65.537857 42.47316
-27.416162 -67.920746 41.093758
-26.552547 -70.223785 39.706352
-25.620424 -72.398727 38.279945
-26.570711 -71.24482 37.243465
-26.553862 -72.147499 34.811256
-29.451815 -36.653717 40.828156
-29.664007 -38.818283 39.543297
-29.524313 -36.100918 38.916233
-29.665274 -35.538692 36.943779
-29.883945 -35.287708 34.9655
-31.073849 -24.502691 30.053064
-30.834949 -27.863527 30.327185
-35.174362 -3.455963 23.494326
-37.925381 -8.319608 13.541162
-37.310215 -8.793183 15.902531
-37.353878 -12.309558 14.105537
-36.718754 -16.554165 14.419988
-36.097767 -20.507984 14.453678
-35.405663 -24.292044 14.653295
-35.849663 -23.616879 12.617841
-35.400803 -26.802679 10.74834
-34.771572 -29.964445 8.594901
-33.942795 -33.08746 6.628521
-34.860798 -29.534946 6.429333
-26.4706 -74.491005 19.142654
-29.163788 -63.400738 37.445541
-29.046408 -63.994637 34.975864
-29.117754 -56.578499 51.477676
-29.259174 -57.942425 49.251369
-29.307812 -59.367317 46.984295
-30.034285 -55.562275 46.252338
-29.736725 -58.10981 45.527504
-29.330214 -60.617458 44.633774
-29.326223 -61.637291 42.292782
-29.251083 -62.645981 39.910995
0.66948 72.349106 29.762285
-30.710302 -21.595123 31.752584
-31.323296 -21.13204 29.881159
-37.035564 9.996158 20.026669
-36.695507 5.698514 20.723604
-37.481785 6.244594 18.469662
-37.912785 2.849533 16.700842
-38.183182 -0.632514 15.08495
-38.795494 -0.151855 12.611951
-38.405285 -4.187432 13.083847
-38.388954 -7.826348 11.378254
-27.300743 -65.053291 15.115637
-26.78689 -67.312317 13.467674
-26.917917 -64.911522 12.349843
-26.574505 -64.530136 9.809471
-35.675121 12.315855 23.801481
-36.45636 13.346634 21.68523
-37.269493 14.388973 19.31628
-26.572725 -73.854897 26.939716
-26.562105 -74.144814 24.441723
-26.547974 -74.27076 21.709572
-26.874857 -72.177559 20.597673
-27.165051 -69.917183 19.763887
-27.386251 -67.665489 18.70187
-28.877802 -64.615341 32.615101
-28.547903 -65.205307 27.664165
-28.362129 -65.268654 25.071623
-28.150269 -65.235474 22.545858
-27.863617 -65.430779 20.047216
-27.609507 -65.189278 17.596529
-27.806604 -59.768177 52.067539
-26.976286 -62.121475 51.094059
-26.101 -64.454834 49.716686
-27.282763 -65.26255 46.273514
-26.320345 -66.004326 47.342014
-25.065826 -66.659531 48.287601
-23.944139 -68.828072 46.601543
-22.756718 -70.644844 45.044254
-24.613525 -74.575928 36.6008
-30.16828 -46.456112 44.445995
-30.143206 -45.989388 42.939182
-30.010063 -44.453358 44.260212
-29.816442 -42.147861 43.815514
-29.613148 -39.70005 43.401485
-30.171989 -49.212856 49.350105
-30.215942 -48.195698 47.668877
-30.201982 -47.217491 46.004543
-30.145416 -45.847256 41.237717
-30.165064 -45.818546 39.348103
-29.88401 -40.981415 38.230385
-30.078224 -43.18602 36.90226
-29.617123 -29.3908 35.942303
-29.8722 -32.14727 34.566132
-30.141809 -34.53545 33.084301
-33.077763 -2.083049 28.907782
-32.70652 -5.990943 29.131945
-32.300385 -10.070514 29.383553
-36.341282 1.222127 21.183586
-35.985363 -2.566291 21.548225
-35.533501 -6.735352 21.929586
-36.630192 -9.41777 18.059393
-35.83765 -10.104767 20.270731
-35.051994 -11.009907 22.204809
-34.598415 -14.952834 22.358053
-34.716797 -27.750952 14.890108
-32.89856 -36.275684 4.531454
-26.366873 -69.476738 11.776113
-29.280598 -29.02225 38.567117
-29.299723 -30.610589 38.838375
-37.038539 -19.166469 9.064233
-37.261892 -17.380465 10.085612
-37.40259 -17.079487 8.900365
-36.787359 -20.836054 8.024569
-36.646661 -21.137033 9.209816
-37.038539 -19.166469 9.064233
-36.459297 -22.575359 6.95352
-36.787359 -20.836054 8.024569
-30.152864 -56.22732 39.358255
-30.037306 -57.459101 38.877538
-30.06763 -57.154476 40.039608
-31.763685 -12.301865 30.364013
-31.604539 -14.132077 30.455011
-38.991312 9.951121 13.329258
-38.667091 9.815081 14.615285
-38.811735 11.785668 14.106007
-25.883457 -75.364578 29.268297
-25.562833 -76.410743 28.371581
-25.484939 -76.196563 29.710961
-25.389538 -75.819213 31.034562
-25.343634 -75.463668 32.315858
-25.759659 -74.794853 31.888973
-25.484939 -76.196563 29.710961
-25.389538 -75.819213 31.034562
-1.324728 76.756145 27.465301
-2.289219 77.058643 27.951226
-1.580823 75.636192 28.703131
-30.029201 -39.215891 34.785753
-30.027691 -37.854669 34.483164
-34.308628 -8.011918 24.786788
-34.518175 -5.932894 24.663191
-34.512346 -9.630543 23.923114
-34.308628 -8.011918 24.786788
-33.42157 -35.275772 8.768755
-33.358744 -35.474558 9.876463
-33.803785 -33.774374 9.770689
-33.425092 -35.091995 7.719221
-33.42157 -35.275772 8.768755
-33.070444 -33.499018 -0.179364
-33.156021 -33.787422 0.928527
-32.453169 -34.899506 -1.179679
-33.070444 -33.499018 -0.179364
-25.753209 -67.665177 6.20606
-25.931866 -67.847099 7.490023
-25.93665 -66.609413 7.067033
-30.298476 -48.949864 39.633228
-30.33287 -49.846855 40.091801
-30.301522 -48.731324 40.56393
-30.271222 -47.951319 39.20027
-30.298476 -48.949864 39.633228
9.598724 -75.430451 21.507531
8.932375 -74.981395 22.633877
-31.205968 -26.088155 29.279096
-31.351169 -24.339022 29.181646
-35.117186 0.30186 24.220143
-34.913786 1.999838 24.952982
-35.297661 2.446737 24.054144
-35.337711 -1.353602 23.407815
-34.953837 -1.800501 24.306654
-35.117186 0.30186 24.220143
-26.553187 -73.327877 17.268082
-26.421751 -74.518479 17.829525
-26.602035 -73.300404 18.581211
-26.283399 -73.056725 13.272393
-26.396273 -73.17065 14.620413
-26.422779 -71.985233 14.061931
-26.207468 -72.987297 12.030054
-26.283399 -73.056725 13.272393
-29.553894 -61.242267 37.281771
-29.334534 -62.459278 36.796602
-29.383147 -62.183728 37.930709
-29.322184 -55.294344 51.781134
-29.061998 -55.665102 52.588593
1.30658 70.883533 30.425379
0.419102 71.143081 30.928012
1.056202 69.677509 31.591105
1.607722 71.991661 29.270664
1.30658 70.883533 30.425379
-30.6954 -18.52553 32.336323
-30.813338 -16.784563 32.258319
-30.84441 -19.85689 31.62072
-30.561291 -20.263762 32.468186
-30.6954 -18.52553 32.336323
-31.808134 -19.046938 28.862659
-31.970675 -17.163784 28.827056
-38.838377 -1.918003 11.690668
-39.037048 0.097014 11.38479
-39.079932 -1.669135 10.463507
-26.69056 -63.292774 9.445253
-26.856423 -63.488692 10.647424
-26.972479 -62.251329 10.283206
-26.392536 -64.409733 8.586001
-26.69056 -63.292774 9.445253
-35.415869 14.097365 24.4585
-35.29936 11.852999 24.77476
-36.56995 15.499142 21.247661
-36.181513 15.023581 22.369287
-36.976517 16.020311 20.063185
-36.862927 13.867804 20.500755
-36.56995 15.499142 21.247661
-29.108382 -63.405367 33.143656
-28.962105 -64.304989 33.795483
-29.192685 -63.095015 34.324038
-28.791089 -63.976837 28.266829
-28.652082 -64.985832 28.888753
-28.492822 -64.145332 24.496645
-28.611184 -64.046524 25.765864
-28.386893 -64.128743 23.233762
-28.256199 -65.252064 23.80874
-28.492822 -64.145332 24.496645
-28.002417 -64.142735 19.565856
-28.123946 -64.219927 20.749001
-27.875363 -64.021985 18.340513
-27.736562 -65.310029 18.821872
-28.002417 -64.142735 19.565856
-27.730683 -63.922785 17.076454
-27.875363 -64.021985 18.340513
-28.226657 -59.310742 51.399746
-28.123686 -58.547518 52.552608
-28.543739 -58.090083 51.884816
-22.170767 -72.499794 42.776309
-22.107589 -71.608593 44.056316
-22.819896 -71.536045 43.764247
-22.29813 -73.386028 41.473073
-22.170767 -72.499794 42.776309
-22.697918 -75.642849 37.668747
-22.617708 -74.886101 38.989668
-23.272084 -74.6357 38.712393
-22.808562 -76.387943 36.389283
-22.697918 -75.642849 37.668747
-24.187588 -76.089764 34.529972
-24.364312 -76.551258 33.300356
-29.745344 -41.28239 44.525137
-29.845647 -42.479232 44.706566
-29.774549 -41.613762 45.416189
-29.643697 -40.058485 44.318123
-29.714795 -40.923955 43.6085
-29.745344 -41.28239 44.525137
-30.146436 -48.017992 49.358955
-30.121326 -48.458752 50.252292
-30.168412 -47.509413 48.518341
-30.193965 -48.704277 48.509491
-30.146436 -48.017992 49.358955
-30.103451 -44.53351 38.181547
-30.173534 -45.711853 38.418669
-30.094982 -44.640203 39.110981
-30.123059 -43.131701 35.846021
-30.03671 -41.973252 36.529659
-30.081544 -41.918932 35.473421
-30.149287 -44.397785 36.236452
-30.123059 -43.131701 35.846021
-29.640628 -27.8137 35.773083
-29.492168 -28.285148 36.729645
-30.731324 -29.475803 30.520027
-30.949933 -29.363002 29.59314
-33.479805 -1.461751 28.010334
-33.271204 0.132854 28.778084
-32.886265 -7.629318 28.370555
-33.098921 -5.560715 28.235827
-32.683197 -9.669103 28.496359
-32.503452 -8.030728 29.257749
-32.886265 -7.629318 28.370555
-32.517483 -11.646461 28.508088
-32.683197 -9.669103 28.496359
-34.240265 -20.088408 21.635416
-34.505968 -18.311446 21.519174
-34.590914 -19.971356 20.631811
-33.974921 -22.015165 21.757515
-34.240265 -20.088408 21.635416
-34.061523 -23.513047 20.833174
-33.974921 -22.015165 21.757515
-34.062269 -26.77404 19.039079
-34.309683 -26.658341 17.957547
-34.149161 -31.10761 14.032523
-33.930806 -32.62617 12.993174
-32.274581 -37.491672 2.364574
-32.159053 -37.229286 1.170283
-26.06729 -70.615426 9.729463
-25.93918 -70.45131 8.439637
-29.320512 -32.105643 39.113451
-29.368066 -33.561386 39.336343
-29.267111 -32.429759 40.068089
-29.400678 -31.742216 38.10663
-29.320512 -32.105643 39.113451
-29.299723 -30.610589 38.838375
-35.2484 6.052524 24.57011
-34.837904 5.691581 25.590512
-34.992042 7.59939 25.373639
-36.038809 -24.470537 7.155299
-35.629303 -26.346424 7.271152
-35.985975 -24.682505 8.286005
-36.038809 -24.470537 7.155299
-36.459297 -22.575359 6.95352
-29.90759 -58.716683 38.404623
-29.732807 -60.006912 37.833117
-29.77729 -59.676487 38.987385
-29.90759 -58.716683 38.404623
-30.037306 -57.459101 38.877538
-29.766461 -54.215266 50.25658
-29.574407 -54.768038 51.051483
-29.718669 -53.457416 51.289688
-31.117284 -16.292306 31.421903
-30.813338 -16.784563 32.258319
-31.44001 -16.040542 30.521237
-31.301244 -17.866893 30.588192
-31.117284 -16.292306 31.421903
-31.788499 -15.706664 29.6213
-31.44001 -16.040542 30.521237
-31.604539 -14.132077 30.455011
-32.135204 -15.25532 28.760829
-31.970675 -17.163784 28.827056
-31.788499 -15.706664 29.6213
-39.0655 -3.459236 9.54282
-39.079932 -1.669135 10.463507
-38.823889 -5.471177 9.941361
-39.0655 -3.459236 9.54282
-27.467622 -61.216265 12.269089
-27.317133 -62.545186 12.74691
-27.646413 -61.314204 13.530621
-27.277636 -61.183269 11.010828
-27.467622 -61.216265 12.269089
-27.606915 -59.952287 11.794539
-26.972479 -62.251329 10.283206
-27.277636 -61.183269 11.010828
-25.669179 -76.670612 27.10915
-25.562833 -76.410743 28.371581
-25.983299 -75.858253 26.665726
-25.669179 -76.670612 27.10915
-24.870151 -76.042889 32.800882
-25.240271 -75.018528 33.655293
-25.343634 -75.463668 32.315858
-24.364312 -76.551258 33.300356
-24.870151 -76.042889 32.800882
-3.079087 78.511402 27.215851
-2.289219 77.058643 27.951226
-2.787208 79.604298 25.902226
-3.079087 78.511402 27.215851
-29.910079 -43.186433 46.543604
-29.960757 -43.884052 45.77071
-29.995985 -44.259882 46.716696
-29.817886 -41.977614 46.409185
-29.910079 -43.186433 46.543604
-29.774549 -41.613762 45.416189
-29.817886 -41.977614 46.409185
-30.052343 -45.124794 48.499111
-30.112322 -46.365032 48.490209
-30.024535 -44.7346 47.551102
-30.052343 -45.124794 48.499111
-29.995985 -44.259882 46.716696
-30.075212 -45.432219 46.778208
-30.024535 -44.7346 47.551102
-30.065284 -40.581602 35.115089
-29.959112 -39.394772 35.827723
-30.029201 -39.215891 34.785753
-30.081544 -41.918932 35.473421
-30.065284 -40.581602 35.115089
-30.000426 -27.502612 33.892032
-29.801564 -27.682409 34.851492
-29.862995 -26.056804 34.644403
-34.580192 -26.38629 16.993122
-34.309683 -26.658341 17.957547
-34.653623 -24.742081 17.893615
-33.641678 -34.160995 11.968406
-33.930806 -32.62617 12.993174
-34.030086 -32.438334 11.903164
-33.322437 -35.6558 10.985119
-33.641678 -34.160995 11.968406
-33.322437 -35.6558 10.985119
-33.358744 -35.474558 9.876463
-33.248222 -34.085752 2.061945
-33.293125 -34.373039 3.229885
-33.815132 -32.552954 3.147741
-32.634014 -35.607507 1.010671
-33.248222 -34.085752 2.061945
-33.156021 -33.787422 0.928527
-32.066851 -36.930955 0.036865
-32.159053 -37.229286 1.170283
-32.634014 -35.607507 1.010671
-31.924147 -36.660612 -1.079395
-32.066851 -36.930955 0.036865
-31.924147 -36.660612 -1.079395
-32.453169 -34.899506 -1.179679
-25.782511 -70.207867 7.141047
-25.93918 -70.45131 8.439637
-25.905096 -69.146305 7.927639
-30.298687 -53.814794 40.270046
-30.231865 -55.00963 39.860248
-30.250011 -54.727859 40.930122
-30.314214 -52.950595 39.691492
-30.298687 -53.814794 40.270046
-30.332359 -52.668825 40.761366
-30.33348 -52.049368 39.173094
-30.314214 -52.950595 39.691492
-30.338854 -50.935011 39.671955
-30.341901 -50.71647 40.602657
-30.33287 -49.846855 40.091801
-30.33348 -52.049368 39.173094
-30.338854 -50.935011 39.671955
10.483377 -74.760482 21.69335
11.275897 -74.146843 21.87257
10.582653 -73.778275 22.970938
10.483377 -74.760482 21.69335
9.598724 -75.430451 21.507531
-0.349614 76.452065 26.955396
0.28339 74.987377 27.7823
-30.008149 -36.483993 34.216721
-30.027691 -37.854669 34.483164
-29.903487 -36.658384 35.231943
-31.086518 -27.768574 29.416156
-30.954399 -26.183109 30.190124
-31.205968 -26.088155 29.279096
-30.949933 -29.363002 29.59314
-31.086518 -27.768574 29.416156
-34.703587 3.644513 25.705962
-34.837904 5.691581 25.590512
-34.703587 3.644513 25.705962
-34.913786 1.999838 24.952982
-34.742699 -3.87533 24.490167
-34.953837 -1.800501 24.306654
-34.949838 -5.513528 23.66735
-34.518175 -5.932894 24.663191
-34.742699 -3.87533 24.490167
-35.271467 -27.834701 6.28489
-35.218634 -28.04667 7.415596
-35.629303 -26.346424 7.271152
-34.842918 -29.374706 5.290936
-35.271467 -27.834701 6.28489
-34.342537 -31.027353 4.23411
-34.360416 -31.187593 5.372507
-34.842918 -29.374706 5.290936
-33.815132 -32.552954 3.147741
-34.342537 -31.027353 4.23411
-26.304561 -75.634068 18.377937
-26.315441 -75.485092 19.708869
-26.304561 -75.634068 18.377937
-26.421751 -74.518479 17.829525
-26.454278 -73.322555 15.963173
-26.553187 -73.327877 17.268082
-26.634563 -72.10448 16.714859
-26.454278 -73.322555 15.963173
-26.396273 -73.17065 14.620413
-29.275844 -62.756227 35.561763
-29.105098 -63.697688 36.210702
-29.334534 -62.459278 36.796602
-29.192685 -63.095015 34.324038
-29.275844 -62.756227 35.561763
-29.553894 -61.242267 37.281771
-29.732807 -60.006912 37.833117
-30.152864 -56.22732 39.358255
-30.231865 -55.00963 39.860248
-28.779262 -56.952679 52.257677
-29.061998 -55.665102 52.588593
-28.882232 -57.715902 51.104815
-28.543739 -58.090083 51.884816
-28.779262 -56.952679 52.257677
-29.369977 -56.052193 50.748025
-29.322184 -55.294344 51.781134
-29.574407 -54.768038 51.051483
-0.934817 74.174224 29.468787
-1.580823 75.636192 28.703131
-0.29191 72.68193 30.241325
0.419102 71.143081 30.928012
0.026573 73.8414 28.989746
-0.934817 74.174224 29.468787
-0.29191 72.68193 30.241325
0.926297 73.495083 28.554839
0.28339 74.987377 27.7823
0.026573 73.8414 28.989746
0.926297 73.495083 28.554839
1.607722 71.991661 29.270664
-29.919304 -24.536915 34.43058
-29.862995 -26.056804 34.644403
-30.124471 -24.065221 33.606537
-29.919304 -24.536915 34.43058
-30.350423 -23.636518 32.741223
-30.28781 -25.448304 32.819631
-30.124471 -24.065221 33.606537
-30.448693 -21.924279 32.640357
-30.561291 -20.263762 32.468186
-30.612032 -23.307361 31.853451
-30.350423 -23.636518 32.741223
-30.448693 -21.924279 32.640357
-31.475893 -22.653697 29.095693
-31.351169 -24.339022 29.181646
-31.198572 -22.817366 29.967112
-31.657797 -20.805394 28.959475
-31.473633 -19.373584 29.784343
-31.808134 -19.046938 28.862659
-31.475893 -22.653697 29.095693
-31.657797 -20.805394 28.959475
-39.146619 8.147569 12.486355
-38.991312 9.951121 13.329258
-38.995798 6.082972 12.91331
-39.146619 8.147569 12.486355
-38.861756 3.967307 13.194644
-38.712626 5.864868 14.11987
-38.995798 6.082972 12.91331
-38.970211 2.016777 12.300017
-39.037048 0.097014 11.38479
-38.687038 1.798674 13.506577
-38.861756 3.967307 13.194644
-38.970211 2.016777 12.300017
-38.577736 -7.542276 10.245795
-38.635107 -5.75525 11.073819
-38.823889 -5.471177 9.941361
-38.312853 -9.561956 10.455487
-38.577736 -7.542276 10.245795
-38.025124 -11.671343 10.709499
-38.101225 -9.935735 11.632266
-38.312853 -9.561956 10.455487
-37.931347 -13.295524 9.727232
-37.719719 -13.669303 10.904011
-38.025124 -11.671343 10.709499
-37.758506 -15.066468 8.715334
-37.931347 -13.295524 9.727232
-37.40259 -17.079487 8.900365
-37.758506 -15.066468 8.715334
-26.162937 -65.540333 7.856763
-26.344906 -65.660736 9.080234
-26.392536 -64.409733 8.586001
-25.93665 -66.609413 7.067033
-26.162937 -65.540333 7.856763
-35.163069 9.675238 25.050638
-34.992042 7.59939 25.373639
-35.538829 10.138094 24.077359
-35.163069 9.675238 25.050638
-35.29936 11.852999 24.77476
-35.790893 14.508192 23.427413
-35.415869 14.097365 24.4585
-36.06574 12.831245 22.743355
-35.790893 14.508192 23.427413
-36.181513 15.023581 22.369287
-37.345146 16.454149 18.920364
-36.976517 16.020311 20.063185
-37.647888 14.739451 18.103746
-37.345146 16.454149 18.920364
-37.901016 12.931375 17.344952
-37.522621 12.580896 18.557485
-37.647888 14.739451 18.103746
-38.256898 13.369778 16.141624
-38.131631 11.211224 16.595363
-37.901016 12.931375 17.344952
-38.614315 13.688012 14.842896
-38.256898 13.369778 16.141624
-38.811735 11.785668 14.106007
-38.614315 13.688012 14.842896
-26.288986 -74.996323 26.171126
-25.983299 -75.858253 26.665726
-26.267038 -74.716827 27.434317
-26.283676 -75.141281 24.92213
-26.288986 -74.996323 26.171126
-26.567415 -73.999855 25.69072
-26.33778 -75.224903 23.631954
-26.283676 -75.141281 24.92213
-26.330714 -75.287876 22.265878
-26.33778 -75.224903 23.631954
-26.555039 -74.207787 23.075648
-26.354128 -75.374969 20.992328
-26.330714 -75.287876 22.265878
-26.509287 -74.380882 20.426113
-26.315441 -75.485092 19.708869
-26.354128 -75.374969 20.992328
-29.031687 -63.595667 31.93609
-29.108382 -63.405367 33.143656
-28.817032 -64.690849 31.364221
-29.031687 -63.595667 31.93609
-28.55731 -65.835567 30.651553
-28.61808 -65.760059 31.902434
-28.817032 -64.690849 31.364221
-28.483103 -65.994968 29.399428
-28.284151 -67.064178 29.937641
-28.55731 -65.835567 30.651553
-28.378923 -66.214443 28.174841
-28.483103 -65.994968 29.399428
-28.652082 -64.985832 28.888753
-28.704071 -64.01485 27.062136
-28.791089 -63.976837 28.266829
-28.455016 -65.236981 26.367894
-28.704071 -64.01485 27.062136
-28.611184 -64.046524 25.765864
-28.267271 -64.122275 21.998321
-28.386893 -64.128743 23.233762
-28.006943 -65.333126 21.296537
-28.267271 -64.122275 21.998321
-28.123946 -64.219927 20.749001
-27.576301 -63.854792 15.836008
-27.455125 -65.121285 16.356083
-27.730683 -63.922785 17.076454
-27.673891 -62.649708 15.28241
-27.398333 -63.848208 14.562039
-27.576301 -63.854792 15.836008
-27.791801 -61.479954 14.75587
-27.673891 -62.649708 15.28241
-27.646413 -61.314204 13.530621
-27.791801 -61.479954 14.75587
-27.711402 -58.85344 53.231785
-28.123686 -58.547518 52.552608
-27.315151 -60.084549 52.671489
-27.711402 -58.85344 53.231785
-26.899992 -61.261198 52.18475
-27.315151 -60.084549 52.671489
-27.391445 -60.944826 51.580799
-26.409066 -62.487354 51.530929
-26.899992 -61.261198 52.18475
-25.971423 -63.654034 50.842243
-26.409066 -62.487354 51.530929
-26.538643 -63.288155 50.405372
-25.439611 -64.690666 50.218777
-25.971423 -63.654034 50.842243
-24.922024 -65.793014 49.504234
-25.439611 -64.690666 50.218777
-25.583413 -65.557183 49.002144
-24.349831 -66.835099 48.713175
-24.922024 -65.793014 49.504234
-23.788987 -67.919369 47.870145
-24.349831 -66.835099 48.713175
-24.504983 -67.743802 47.444572
-23.246103 -68.87294 47.000938
-23.788987 -67.919369 47.870145
-22.652392 -69.781327 46.222294
-23.246103 -68.87294 47.000938
-23.350428 -69.736458 45.822899
-21.954277 -70.687992 45.314561
-22.652392 -69.781327 46.222294
-21.954277 -70.687992 45.314561
-22.107589 -71.608593 44.056316
-22.45253 -74.111881 40.24761
-22.29813 -73.386028 41.473073
-23.037474 -73.153099 41.258777
-22.45253 -74.111881 40.24761
-22.617708 -74.886101 38.989668
-24.110957 -75.578854 35.760214
-24.690157 -75.086838 35.370558
-24.187588 -76.089764 34.529972
-23.480342 -75.987113 36.15555
-23.98291 -74.984188 36.996136
-24.110957 -75.578854 35.760214
-22.808562 -76.387943 36.389283
-23.480342 -75.987113 36.15555
9.908865 -73.359383 24.038872
10.582653 -73.778275 22.970938
9.111974 -73.962799 23.837008
9.908865 -73.359383 24.038872
9.230705 -72.930267 25.084162
8.932375 -74.981395 22.633877
9.111974 -73.962799 23.837008
-1.058009 77.874516 26.20349
-1.324728 76.756145 27.465301
-0.349614 76.452065 26.955396
-1.74778 79.191547 25.47267
-1.058009 77.874516 26.20349
-2.787208 79.604298 25.902226
-1.74778 79.191547 25.47267
-29.53932 -38.740417 44.111113
-29.643697 -40.058485 44.318123
-29.517345 -38.394786 43.144964
-29.53932 -38.740417 44.111113
-29.515484 -38.141823 42.205981
-29.611287 -39.447086 42.462502
-29.517345 -38.394786 43.144964
-29.436678 -36.87162 41.8583
-29.53062 -37.923919 41.175837
-29.515484 -38.141823 42.205981
-29.359061 -35.5096 41.512953
-29.436678 -36.87162 41.8583
-29.290487 -34.125492 41.244366
-29.38324 -35.26961 40.559568
-29.359061 -35.5096 41.512953
-29.227891 -32.661772 41.038879
-29.290487 -34.125492 41.244366
-29.267111 -32.429759 40.068089
-29.227891 -32.661772 41.038879
-29.853359 -52.158333 51.503838
-29.718669 -53.457416 51.289688
-29.976458 -51.588442 50.752517
-29.853359 -52.158333 51.503838
-30.093564 -50.963474 50.003816
-30.02783 -52.279676 49.746084
-29.976458 -51.588442 50.752517
-30.10709 -49.742548 50.180177
-30.121326 -48.458752 50.252292
-30.158462 -50.433782 49.173744
-30.093564 -50.963474 50.003816
-30.10709 -49.742548 50.180177
-30.159852 -47.051317 47.640746
-30.168412 -47.509413 48.518341
-30.112322 -46.365032 48.490209
-30.22019 -46.943426 38.821642
-30.271222 -47.951319 39.20027
-30.216096 -46.826439 39.726731
-30.22019 -46.943426 38.821642
-30.173534 -45.711853 38.418669
-30.130114 -44.39559 37.195747
-30.103451 -44.53351 38.181547
-30.051562 -43.32394 37.888059
-30.130114 -44.39559 37.195747
-30.149287 -44.397785 36.236452
-29.373551 -28.713328 37.67427
-29.280598 -29.02225 38.567117
-29.498506 -29.818981 36.886928
-29.373551 -28.713328 37.67427
-29.492168 -28.285148 36.729645
-29.778059 -29.259508 35.020712
-29.640628 -27.8137 35.773083
-29.801564 -27.682409 34.851492
-30.137081 -36.107864 33.276121
-30.008149 -36.483993 34.216721
-30.012877 -34.911579 34.024901
-30.493191 -29.783613 31.444806
-30.596816 -28.171337 31.251964
-30.731324 -29.475803 30.520027
-30.432651 -31.31391 31.622882
-30.298142 -30.009443 32.354819
-30.493191 -29.783613 31.444806
-30.35389 -32.827196 31.847663
-30.432651 -31.31391 31.622882
-30.305994 -34.325051 32.123367
-30.189705 -33.037595 32.808598
-30.35389 -32.827196 31.847663
-30.256242 -35.868913 32.334131
-30.305994 -34.325051 32.123367
-30.137081 -36.107864 33.276121
-30.256242 -35.868913 32.334131
-32.89854 -0.400148 29.660231
-33.271204 0.132854 28.778084
-32.708775 -2.489087 29.78971
-32.89854 -0.400148 29.660231
-33.284543 -3.606768 28.123745
-33.479805 -1.461751 28.010334
-32.892141 -4.036996 29.019863
-33.284543 -3.606768 28.123745
-33.098921 -5.560715 28.235827
-32.523153 -4.443034 29.901791
-32.708775 -2.489087 29.78971
-32.892141 -4.036996 29.019863
-32.332964 -6.491848 30.008672
-32.523153 -4.443034 29.901791
-32.129897 -8.531633 30.134476
-32.332964 -6.491848 30.008672
-32.503452 -8.030728 29.257749
-31.937363 -10.438022 30.278253
-32.129897 -8.531633 30.134476
-32.126706 -11.934356 29.469313
-31.763685 -12.301865 30.364013
-31.937363 -10.438022 30.278253
-32.343804 -13.510303 28.593849
-32.126706 -11.934356 29.469313
-32.517483 -11.646461 28.508088
-32.135204 -15.25532 28.760829
-32.343804 -13.510303 28.593849
-34.675686 -11.349951 23.105331
-34.512346 -9.630543 23.923114
-34.888655 -9.290499 23.022592
-34.448896 -13.321414 23.181953
-34.675686 -11.349951 23.105331
-34.825204 -12.981371 22.281431
-34.201622 -15.176521 23.361232
-34.448896 -13.321414 23.181953
-34.376867 -16.690666 22.440416
-34.727516 -16.573614 21.436812
-34.505968 -18.311446 21.519174
-34.201622 -15.176521 23.361232
-34.376867 -16.690666 22.440416
-34.090475 -25.145953 19.888168
-34.061523 -23.513047 20.833174
-34.354163 -23.381225 19.803047
-34.090475 -25.145953 19.888168
-34.062269 -26.77404 19.039079
-34.476524 -28.02675 15.973581
-34.580192 -26.38629 16.993122
-34.820465 -26.110491 15.909649
-34.347952 -29.531331 15.013611
-34.518006 -29.32723 13.90902
-34.149161 -31.10761 14.032523
-34.476524 -28.02675 15.973581
-34.347952 -29.531331 15.013611
-33.463184 -34.847931 6.701992
-33.425092 -35.091995 7.719221
-33.904703 -33.331524 7.645751
-32.941067 -36.442043 5.653458
-33.463184 -34.847931 6.701992
-33.420677 -34.681572 5.579987
-32.437451 -37.904358 4.714322
-32.941067 -36.442043 5.653458
-32.360754 -37.676595 3.558257
-32.812387 -36.090761 3.337772
-32.274581 -37.491672 2.364574
-32.437451 -37.904358 4.714322
-32.360754 -37.676595 3.558257
-26.219843 -70.65892 11.004405
-26.214319 -69.433243 10.501171
-26.06729 -70.615426 9.729463
-26.191358 -71.856205 11.473304
-26.338389 -70.674023 12.245012
-26.219843 -70.65892 11.004405
-26.207468 -72.987297 12.030054
-26.191358 -71.856205 11.473304
-25.571631 -68.845871 5.315543
-25.753209 -67.665177 6.20606
-25.640953 -70.098843 5.849484
-25.571631 -68.845871 5.315543
-25.782511 -70.207867 7.141047
-25.640953 -70.098843 5.849484
3 0 66 64
3 0 64 67
3 2 71 69
3 2 74 72
3 2 69 74
3 267 77 268
3 1 80 78
3 269 83 270
3 271 270 81
3 269 270 271
3 272 85 273
3 274 273 83
3 272 273 274
3 276 275 85
3 3 88 86
3 4 277 279
3 279 278 89
3 277 278 279
3 5 92 90
3 4 95 93
3 4 89 95
3 280 98 281
3 282 101 283
3 284 283 99
3 282 283 284
3 10 285 287
3 285 103 286
3 285 286 287
3 11 106 104
3 11 108 106
3 6 111 109
3 12 114 112
3 12 116 114
3 12 118 116
3 10 288 290
3 290 289 119
3 288 289 290
3 10 291 292
3 7 293 295
3 293 121 294
3 293 294 295
3 13 126 124
3 297 296 127
3 8 131 129
3 14 298 299
3 14 300 301
3 9 134 132
3 15 137 135
3 15 139 137
3 15 141 139
3 16 144 142
3 16 302 304
3 304 303 144
3 302 303 304
3 16 305 306
3 307 146 308
3 310 309 146
3 311 149 312
3 313 312 147
3 311 312 313
3 17 151 150
3 18 314 316
3 316 315 65
3 314 315 316
3 18 317 318
3 19 154 152
3 17 155 68
3 17 150 155
3 320 319 156
3 21 159 157
3 23 160 70
3 23 161 160
3 24 164 162
3 26 165 73
3 26 166 165
3 26 168 166
3 21 169 75
3 21 157 169
3 28 172 170
3 30 173 76
3 30 174 173
3 322 321 175
3 31 323 325
3 325 324 79
3 323 324 325
3 31 326 328
3 326 177 327
3 326 327 328
3 32 180 178
3 34 181 82
3 34 182 181
3 34 184 182
3 36 185 84
3 36 186 185
3 36 188 186
3 38 329 331
3 331 330 189
3 329 330 331
3 39 332 334
3 334 333 87
3 332 333 334
3 39 335 336
3 40 337 339
3 339 338 190
3 337 338 339
3 340 192 341
3 42 193 91
3 42 194 193
3 20 195 153
3 43 196 94
3 43 197 196
3 43 198 197
3 40 199 96
3 40 190 199
3 342 200 343
3 342 343 344
3 346 345 200
3 44 347 348
3 44 349 351
3 349 201 350
3 349 350 351
3 44 202 201
3 353 352 97
3 45 205 203
3 47 206 100
3 47 207 206
3 48 354 356
3 354 208 355
3 354 355 356
3 48 209 208
3 48 210 209
3 49 213 211
3 357 214 358
3 359 358 102
3 357 358 359
3 361 360 214
3 362 215 363
3 364 216 365
3 366 217 367
3 368 367 216
3 366 367 368
3 22 218 158
3 51 219 105
3 51 220 219
3 51 221 220
3 52 222 107
3 52 223 222
3 369 224 370
3 371 370 191
3 369 370 371
3 372 225 373
3 374 226 375
3 376 227 377
3 378 377 226
3 376 377 378
3 379 228 380
3 381 229 382
3 383 382 228
3 381 382 383
3 385 384 229
3 41 386 388
3 386 230 387
3 386 387 388
3 53 231 110
3 53 232 231
3 25 233 163
3 54 234 113
3 54 235 234
3 54 236 235
3 55 237 115
3 55 389 391
3 391 390 237
3 389 390 391
3 55 392 393
3 56 394 396
3 396 395 117
3 394 395 396
3 56 397 398
3 27 238 167
3 400 399 120
3 57 241 239
3 401 242 402
3 403 402 122
3 401 402 403
3 404 243 405
3 406 405 242
3 404 405 406
3 407 244 408
3 409 245 410
3 411 410 244
3 409 410 411
3 57 246 123
3 57 239 246
3 58 247 240
3 59 248 125
3 59 412 414
3 414 413 248
3 412 413 414
3 29 249 171
3 415 250 416
3 417 416 128
3 415 416 417
3 419 418 250
3 420 251 421
3 60 252 130
3 60 253 252
3 423 422 176
3 424 254 425
3 426 255 427
3 428 256 429
3 430 429 255
3 428 429 430
3 432 431 256
3 46 257 204
3 61 258 133
3 61 259 258
3 33 260 179
3 62 261 136
3 62 262 261
3 62 263 262
3 63 433 435
3 435 434 138
3 433 434 435
3 63 436 437
3 63 438 439
3 441 440 140
3 35 264 183
3 443 442 143
3 37 265 187
3 445 444 145
3 50 266 212
3 447 446 148
3 64 65 17
3 66 65 64
3 66 18 65
3 67 68 19
3 64 68 67
3 64 17 68
3 69 70 21
3 71 70 69
3 71 23 70
3 72 73 24
3 74 73 72
3 74 26 73
3 74 75 26
3 69 75 74
3 69 21 75
3 448 76 449
3 450 449 28
3 448 449 450
3 77 451 453
3 451 76 452
3 451 452 453
3 77 30 76
3 78 454 456
3 454 79 455
3 454 455 456
3 80 79 78
3 80 31 79
3 81 82 32
3 83 82 81
3 83 34 82
3 83 84 34
3 85 84 83
3 85 36 84
3 85 457 459
3 459 458 36
3 457 458 459
3 461 460 85
3 86 87 38
3 88 87 86
3 88 39 87
3 89 462 464
3 464 463 40
3 462 463 464
3 466 465 89
3 90 467 469
3 467 91 468
3 467 468 469
3 92 91 90
3 92 42 91
3 93 94 20
3 95 94 93
3 95 43 94
3 95 96 43
3 89 96 95
3 89 40 96
3 470 44 471
3 472 97 473
3 474 473 44
3 472 473 474
3 98 475 477
3 475 97 476
3 475 476 477
3 98 478 480
3 480 479 97
3 478 479 480
3 99 100 45
3 101 100 99
3 101 47 100
3 481 48 482
3 484 483 48
3 485 102 486
3 487 486 49
3 485 486 487
3 488 102 489
3 488 489 490
3 492 491 102
3 103 493 494
3 103 495 496
3 104 105 22
3 106 105 104
3 106 51 105
3 106 107 51
3 108 107 106
3 108 52 107
3 109 110 41
3 111 110 109
3 111 53 110
3 112 113 25
3 114 113 112
3 114 54 113
3 114 115 54
3 116 115 114
3 116 55 115
3 116 117 55
3 118 117 116
3 118 56 117
3 119 120 27
3 497 120 498
3 499 498 119
3 497 498 499
3 501 500 120
3 121 502 503
3 121 504 505
3 506 122 507
3 508 507 57
3 506 507 508
3 509 122 510
3 512 511 122
3 513 123 514
3 515 123 516
3 517 57 518
3 519 518 123
3 517 518 519
3 124 125 58
3 126 125 124
3 126 59 125
3 127 128 29
3 520 128 521
3 522 521 127
3 520 521 522
3 524 523 128
3 129 525 527
3 525 130 526
3 525 526 527
3 131 130 129
3 131 60 130
3 132 133 46
3 134 133 132
3 134 61 133
3 135 136 33
3 137 136 135
3 137 62 136
3 137 138 62
3 139 138 137
3 139 63 138
3 139 140 63
3 141 140 139
3 141 528 530
3 530 529 140
3 528 529 530
3 142 143 35
3 144 143 142
3 144 531 533
3 533 532 143
3 531 532 533
3 144 534 535
3 537 536 144
3 538 145 539
3 540 539 37
3 538 539 540
3 146 541 543
3 541 145 542
3 541 542 543
3 146 544 546
3 546 545 145
3 544 545 546
3 146 547 548
3 550 549 146
3 147 148 50
3 149 148 147
3 149 551 553
3 553 552 148
3 551 552 553
3 150 554 556
3 556 555 4
3 554 555 556
3 151 557 559
3 559 558 150
3 557 558 559
3 151 560 561
3 65 151 17
3 562 151 563
3 564 563 65
3 562 563 564
3 566 565 151
3 152 153 5
3 154 153 152
3 154 20 153
3 68 154 19
3 155 154 68
3 155 20 154
3 155 93 20
3 150 93 155
3 150 4 93
3 156 567 569
3 567 568 569
3 571 570 156
3 157 158 10
3 159 158 157
3 159 22 158
3 70 159 21
3 160 159 70
3 160 22 159
3 160 104 22
3 161 104 160
3 161 11 104
3 162 163 6
3 164 163 162
3 164 25 163
3 73 164 24
3 165 164 73
3 165 25 164
3 165 112 25
3 166 112 165
3 166 12 112
3 166 167 12
3 168 167 166
3 168 27 167
3 75 168 26
3 169 168 75
3 169 27 168
3 169 119 27
3 157 119 169
3 157 10 119
3 573 572 7
3 170 171 13
3 172 171 170
3 172 29 171
3 76 172 28
3 173 172 76
3 173 29 172
3 173 127 29
3 174 127 173
3 174 574 576
3 576 575 127
3 574 575 576
3 175 176 8
3 577 176 578
3 579 578 175
3 577 578 579
3 581 580 176
3 79 582 583
3 585 584 79
3 177 586 587
3 177 588 590
3 588 14 589
3 588 589 590
3 178 179 9
3 180 179 178
3 180 33 179
3 82 180 32
3 181 180 82
3 181 33 180
3 181 135 33
3 182 135 181
3 182 15 135
3 182 183 15
3 184 183 182
3 184 35 183
3 84 184 34
3 185 184 84
3 185 35 184
3 185 142 35
3 186 142 185
3 186 16 142
3 186 187 16
3 188 187 186
3 188 37 187
3 591 188 592
3 593 592 36
3 591 592 593
3 594 188 595
3 596 37 597
3 598 597 188
3 596 597 598
3 600 599 37
3 189 601 602
3 604 603 189
3 87 605 607
3 607 606 38
3 605 606 607
3 609 608 87
3 190 191 2
3 610 191 611
3 612 611 190
3 610 611 612
3 614 613 191
3 616 615 40
3 618 617 4
3 192 619 620
3 192 621 623
3 621 41 622
3 621 622 623
3 91 624 626
3 624 192 625
3 624 625 626
3 193 192 91
3 193 41 192
3 193 109 41
3 194 109 193
3 194 6 109
3 153 92 5
3 195 92 153
3 195 42 92
3 94 195 20
3 196 195 94
3 196 42 195
3 196 194 42
3 197 194 196
3 197 6 194
3 197 162 6
3 198 162 197
3 198 24 162
3 96 198 43
3 199 198 96
3 199 24 198
3 199 72 24
3 190 72 199
3 190 2 72
3 627 7 628
3 200 629 630
3 200 631 633
3 631 7 632
3 631 632 633
3 200 634 636
3 636 635 7
3 634 635 636
3 638 637 200
3 639 129 640
3 641 129 642
3 643 8 644
3 645 644 129
3 643 644 645
3 201 646 647
3 201 648 650
3 648 8 649
3 648 649 650
3 201 175 8
3 202 175 201
3 202 651 653
3 653 652 175
3 651 652 653
3 97 202 44
3 654 202 655
3 656 655 97
3 654 655 656
3 658 657 202
3 203 204 1
3 205 204 203
3 205 46 204
3 100 205 45
3 206 205 100
3 206 46 205
3 206 132 46
3 207 132 206
3 207 9 132
3 659 101 660
3 661 101 662
3 663 47 664
3 665 664 101
3 663 664 665
3 208 666 667
3 208 668 670
3 668 47 669
3 668 669 670
3 208 207 47
3 209 207 208
3 209 9 207
3 209 178 9
3 210 178 209
3 210 32 178
3 671 210 672
3 673 672 48
3 671 672 673
3 674 210 675
3 676 32 677
3 678 677 210
3 676 677 678
3 679 81 680
3 681 680 32
3 679 680 681
3 682 81 683
3 685 684 81
3 211 212 3
3 213 212 211
3 213 50 212
3 102 213 49
3 214 213 102
3 214 50 213
3 214 147 50
3 686 147 687
3 688 687 214
3 686 687 688
3 690 689 147
3 691 78 692
3 215 693 695
3 693 78 694
3 693 694 695
3 215 1 78
3 696 215 697
3 216 698 700
3 698 215 699
3 698 699 700
3 216 1 215
3 216 203 1
3 217 203 216
3 217 45 203
3 701 217 702
3 703 217 704
3 705 45 706
3 707 706 217
3 705 706 707
3 708 99 709
3 710 709 45
3 708 709 710
3 711 99 712
3 714 713 99
3 158 103 10
3 218 103 158
3 218 715 717
3 717 716 103
3 715 716 717
3 105 218 22
3 219 218 105
3 219 718 720
3 720 719 218
3 718 719 720
3 219 721 722
3 220 723 725
3 725 724 219
3 723 724 725
3 220 726 727
3 220 728 730
3 728 189 729
3 728 729 730
3 221 189 220
3 221 38 189
3 107 221 51
3 222 221 107
3 222 38 221
3 222 86 38
3 223 86 222
3 223 3 86
3 191 71 2
3 224 71 191
3 224 23 71
3 731 224 732
3 733 224 734
3 735 23 736
3 737 736 224
3 735 736 737
3 738 161 739
3 740 739 23
3 738 739 740
3 225 741 743
3 741 161 742
3 741 742 743
3 225 11 161
3 744 225 745
3 226 746 748
3 746 225 747
3 746 747 748
3 226 11 225
3 226 108 11
3 227 108 226
3 227 52 108
3 749 227 750
3 228 751 753
3 751 227 752
3 751 752 753
3 228 52 227
3 228 223 52
3 229 223 228
3 229 3 223
3 229 211 3
3 754 211 755
3 756 755 229
3 754 755 756
3 757 49 758
3 759 758 211
3 757 758 759
3 760 49 761
3 763 762 49
3 230 764 765
3 230 766 767
3 110 230 41
3 231 230 110
3 231 768 770
3 770 769 230
3 768 769 770
3 231 771 772
3 232 773 775
3 775 774 231
3 773 774 775
3 232 776 777
3 163 111 6
3 233 111 163
3 233 53 111
3 113 233 25
3 234 233 113
3 234 53 233
3 234 232 53
3 235 232 234
3 235 778 780
3 780 779 232
3 778 779 780
3 235 781 782
3 236 783 785
3 785 784 235
3 783 784 785
3 236 786 787
3 115 236 54
3 237 236 115
3 237 788 790
3 790 789 236
3 788 789 790
3 237 791 792
3 794 793 237
3 117 795 797
3 797 796 55
3 795 796 797
3 799 798 117
3 167 118 12
3 238 118 167
3 238 56 118
3 120 238 27
3 800 238 801
3 802 801 120
3 800 801 802
3 803 56 804
3 805 804 238
3 803 804 805
3 807 806 56
3 808 156 809
3 810 156 811
3 810 811 812
3 814 813 156
3 815 121 816
3 817 816 7
3 815 816 817
3 818 121 819
3 821 820 121
3 239 240 0
3 241 240 239
3 241 58 240
3 122 241 57
3 242 241 122
3 242 58 241
3 242 124 58
3 243 124 242
3 243 13 124
3 822 243 823
3 824 243 825
3 826 13 827
3 828 827 243
3 826 827 828
3 829 170 830
3 831 830 13
3 829 830 831
3 832 170 833
3 834 28 835
3 836 835 170
3 834 835 836
3 837 28 838
3 840 839 28
3 841 90 842
3 843 90 844
3 845 5 846
3 847 846 90
3 845 846 847
3 244 848 849
3 244 850 852
3 850 5 851
3 850 851 852
3 244 152 5
3 245 152 244
3 245 19 152
3 123 853 855
3 853 245 854
3 853 854 855
3 246 245 123
3 246 19 245
3 246 67 19
3 239 67 246
3 239 0 67
3 240 66 0
3 247 66 240
3 247 18 66
3 125 247 58
3 248 247 125
3 248 18 247
3 248 856 858
3 858 857 18
3 856 857 858
3 860 859 248
3 171 126 13
3 249 126 171
3 249 59 126
3 128 249 29
3 250 249 128
3 250 59 249
3 250 861 863
3 863 862 59
3 861 862 863
3 865 864 250
3 866 77 867
3 251 868 870
3 868 77 869
3 868 869 870
3 251 30 77
3 130 871 873
3 871 251 872
3 871 872 873
3 252 251 130
3 252 30 251
3 252 174 30
3 253 174 252
3 253 874 876
3 876 875 174
3 874 875 876
3 176 131 8
3 877 131 878
3 879 878 176
3 877 878 879
3 880 60 881
3 882 881 131
3 880 881 882
3 883 60 884
3 885 253 886
3 887 886 60
3 885 886 887
3 888 253 889
3 891 890 253
3 254 892 893
3 254 894 895
3 896 254 897
3 255 898 900
3 898 254 899
3 898 899 900
3 255 901 903
3 903 902 254
3 901 902 903
3 255 904 905
3 256 906 908
3 908 907 255
3 906 907 908
3 256 909 910
3 256 911 913
3 911 98 912
3 911 912 913
3 914 98 915
3 916 915 256
3 914 915 916
3 918 917 98
3 204 80 1
3 257 80 204
3 257 31 80
3 133 257 46
3 258 257 133
3 258 31 257
3 258 177 31
3 259 177 258
3 259 14 177
3 179 134 9
3 260 134 179
3 260 61 134
3 136 260 33
3 261 260 136
3 261 61 260
3 261 259 61
3 262 259 261
3 262 14 259
3 262 919 921
3 921 920 14
3 919 920 921
3 263 922 924
3 924 923 262
3 922 923 924
3 263 925 926
3 138 263 62
3 927 263 928
3 929 928 138
3 927 928 929
3 931 930 263
3 140 932 934
3 934 933 63
3 932 933 934
3 936 935 140
3 183 141 15
3 264 141 183
3 264 937 939
3 939 938 141
3 937 938 939
3 143 264 35
3 940 264 941
3 942 941 143
3 940 941 942
3 944 943 264
3 187 945 947
3 947 946 16
3 945 946 947
3 265 948 950
3 950 949 187
3 948 949 950
3 265 951 952
3 145 265 37
3 953 265 954
3 955 954 145
3 953 954 955
3 957 956 265
3 212 88 3
3 266 88 212
3 266 39 88
3 148 266 50
3 958 266 959
3 960 959 148
3 958 959 960
3 961 39 962
3 963 962 266
3 961 962 963
3 965 964 39
3 966 149 967
3 968 149 969
3 971 970 149
