ply
format ascii 1.0
element vertex 768
property float x
property float y
property float z
element face 934
property list uchar int vertex_index
end_header
-20.597038 56.571087 -52.50872
-16.595654 83.526215 -49.506371
-6.765751 57.933113 -51.214153
-30.611696 69.632652 -46.147949
-22.337431 46.181484 -51.025429
-15.656381 44.229809 -52.352444
-11.170296 94.5709 -43.564941
-19.8785 106.40094 -24.944153
-15.78131 102.652748 -36.086388
-21.332802 93.462311 -44.220913
-33.795647 56.244007 -41.198788
-2.205631 46.025127 -52.721394
-20.012562 69.454704 -52.144062
-14.560674 57.515198 -52.515133
-11.762963 71.395676 -51.023964
-2.588588 69.591805 -47.832043
-28.706581 86.888481 -42.093388
-25.055664 79.681992 -49.069157
-25.850475 62.889072 -50.949558
-28.943462 50.868393 -47.705826
-8.926097 44.747826 -52.946301
-21.577196 52.104603 -51.983803
-19.109072 44.969933 -51.817654
-18.617989 50.932861 -52.412769
-8.08468 98.08506 -39.607094
-13.043454 105.180893 -30.8752
-10.569942 102.141289 -35.742069
-13.638537 99.088394 -40.331062
-18.638378 76.660782 -51.205383
-15.996691 70.912514 -51.843071
-14.241638 77.431602 -50.645477
1.459051 67.766273 -45.625999
-26.991142 93.517403 -39.120998
-19.110708 88.902191 -47.415741
-23.522257 86.866959 -47.134373
-21.012814 82.302345 -49.673672
-22.671362 74.920593 -51.055756
-32.42952 63.566265 -43.809952
-31.657909 53.53941 -44.877621
-30.280018 60.490906 -47.194698
-27.666294 57.595451 -49.557453
-28.404991 66.675323 -49.020493
-10.802977 58.12912 -52.037537
-11.826715 51.072067 -52.550327
-8.055686 51.529736 -52.235268
-14.247037 89.571785 -46.991291
-11.767893 83.697906 -48.662773
-17.111832 107.651215 -18.909557
-15.270865 107.01149 -25.316885
-17.907278 105.147476 -30.911139
-20.71277 101.779076 -35.843704
-23.249777 96.923592 -40.110111
-18.676067 98.734833 -40.557354
-16.452955 94.610764 -44.293018
-34.873878 48.132446 -38.215523
-35.321484 58.492195 -36.699036
-34.001522 65.843948 -39.480652
-32.269669 72.866165 -42.119499
-2.77343 57.507832 -49.964939
-4.419386 51.644806 -51.651707
-0.663879 51.397968 -50.684605
-20.68285 62.491962 -52.508183
-18.054266 57.040169 -52.658085
-17.41732 63.821037 -52.496895
-13.417173 64.719086 -52.013199
-9.249566 64.486679 -51.137939
-9.468635 77.632179 -49.4104
-7.233221 70.844696 -49.713158
-4.837725 63.73138 -49.765312
-0.89635 62.946926 -47.997246
-30.016071 78.717819 -44.45285
-25.562683 90.640617 -43.494026
-27.206093 83.300789 -46.130955
-28.182354 75.359734 -47.9063
-25.863533 71.487724 -50.358673
-23.283575 67.167809 -51.824818
-23.079561 59.685081 -52.059589
-32.640152 45.786072 -42.243858
-29.77965 43.362221 -45.494568
-26.397219 40.976101 -47.930923
-25.895142 48.411285 -49.641113
-24.643322 54.417309 -51.110401
-15.302791 51.102924 -52.604153
-12.358906 44.517128 -52.71669
-5.509336 45.429459 -52.966743
-21.11426 54.738537 -52.313644
-20.133144 51.60804 -52.252316
-19.71702 54.120792 -52.486156
-6.565625 99.591782 -37.164726
-5.20122 97.385757 -38.785698
-3.585411 98.538216 -36.441719
-8.941618 103.16851 -33.155777
-7.754945 101.548775 -35.194767
-9.124689 100.29982 -37.633614
-17.703928 80.101288 -50.471878
-16.419544 77.287651 -50.970776
-15.440136 80.587608 -50.176067
-17.890198 86.257317 -48.620796
-20.09494 85.710426 -48.649761
-18.944002 82.881767 -49.726387
-19.79674 79.563545 -50.563419
-31.577841 66.644127 -45.045513
-31.404972 61.827423 -45.670513
-30.552885 65.232376 -46.748466
-29.485106 63.615936 -48.097626
-29.551622 68.24826 -47.719936
-8.854052 57.915665 -51.70216
-9.372482 54.745644 -52.085327
-7.464293 54.656776 -51.781967
-22.704422 42.891777 -50.36858
-17.329863 44.579933 -52.124805
-17.542717 41.377914 -51.783585
-15.798517 40.951012 -52.109165
-14.018003 40.713737 -52.422291
-12.603254 92.252396 -45.335529
-11.595066 89.381859 -46.545349
-9.880106 91.858109 -44.834846
-14.470529 104.100708 -33.549335
-15.539567 105.367554 -30.869761
-16.923794 104.087448 -33.514896
-19.380089 103.700714 -33.331123
-18.270729 102.446083 -36.008266
-19.793867 100.508171 -38.156315
-17.27553 100.8964 -38.37886
-12.318698 97.043877 -41.974586
-15.01938 97.131622 -42.300606
-13.905245 94.855202 -43.93668
-15.225194 92.284286 -45.708687
-35.966171 54.620663 -34.937447
-35.905712 59.553169 -33.968266
-34.518795 66.985619 -37.162266
-33.681412 70.661423 -38.744751
-33.156902 69.159531 -41.030712
-0.850833 56.864525 -49.247398
-1.838057 54.337364 -50.298935
-20.51082 65.98732 -52.372585
-19.204786 63.52113 -52.547768
-18.746387 66.951729 -52.365822
-13.913664 71.373062 -51.481392
-14.792461 67.752106 -51.988842
-12.589473 67.984802 -51.583038
-11.233508 64.362076 -51.627773
-10.473772 67.957306 -51.093121
-9.198647 83.295815 -48.014793
-10.562094 80.665657 -49.114197
-4.952454 70.354095 -48.856533
-6.001964 67.312637 -49.726002
-3.85927 66.930542 -48.866806
-2.902917 63.516415 -48.951756
-1.675629 66.032867 -47.906422
-18.592743 107.213753 -22.065153
-19.350254 107.267334 -18.802067
-20.687073 106.62429 -21.447056
-30.142876 84.170174 -41.155159
-30.755745 80.010902 -42.406883
-29.452816 82.9328 -43.336586
-22.311386 95.365593 -42.255848
-24.555365 93.867325 -41.886459
-23.506897 92.304016 -43.93277
-24.209164 83.406372 -48.273109
-25.43652 85.156822 -46.79446
-26.166262 81.65609 -47.712025
-27.828863 79.51149 -47.026817
-26.731749 77.809975 -48.526932
-27.162319 73.579201 -49.179077
-25.608418 75.594452 -49.787273
-21.256119 72.265289 -51.724701
-23.052486 70.927223 -51.534691
-21.791897 68.428589 -52.051323
-22.002832 64.836464 -52.242771
-34.353283 52.212273 -39.777328
-33.859699 47.287411 -40.324253
-33.359783 51.035824 -41.765717
-30.303427 52.015213 -46.454716
-30.843588 48.212837 -45.219345
-29.411924 47.13538 -46.625824
-28.156557 42.225521 -46.811428
-27.788309 45.887436 -47.85984
-26.118477 44.713097 -48.863369
-27.439455 49.706005 -48.791588
-26.836586 60.294838 -50.306664
-26.137745 55.924522 -50.458809
-25.388365 58.749348 -51.084885
-24.00839 57.364517 -51.628372
-24.500025 61.359173 -51.584633
-16.463722 57.499294 -52.629559
-16.736147 54.21265 -52.63261
-15.060726 54.326794 -52.605286
-10.317771 48.069504 -52.6726
-12.079716 47.917114 -52.669704
-10.663384 44.708912 -52.842239
-3.271542 48.723854 -52.092716
-5.020429 48.700668 -52.323765
-3.848085 45.791393 -52.873352
-22.036623 49.441422 -51.560146
-20.702631 45.310886 -51.448853
-20.414408 48.658459 -51.917789
-18.854639 48.045109 -52.165565
-17.155005 47.761784 -52.373627
-9.574767 96.497841 -41.634228
-8.388419 94.134415 -42.93713
-6.616509 95.764893 -40.978249
-11.727486 103.776726 -33.437042
-13.297431 102.573509 -35.952209
-14.703261 100.962479 -38.360954
-12.096566 100.834015 -38.044739
-10.821947 98.83873 -39.909782
-19.454309 73.165588 -51.749004
-18.007521 70.331665 -52.066078
-17.39435 73.825668 -51.613766
-15.109642 74.331345 -51.293175
-12.894659 74.575089 -50.851902
-1.370771 72.234001 -46.742443
-0.511213 68.755745 -46.783844
0.777063 71.206596 -45.557487
-21.272257 105.127174 -27.813042
-21.98761 105.520851 -24.582285
-20.265886 91.250801 -45.978428
-22.430431 90.285347 -45.815041
-21.435217 88.13504 -47.318184
-22.24263 84.809906 -48.5163
-23.097467 81.217133 -49.474411
-23.885691 77.43206 -50.179352
-21.931053 78.844131 -50.428631
-20.797884 76.183769 -51.175865
-33.133934 59.662987 -42.609592
-32.836365 54.718456 -43.078747
-32.177246 58.52346 -44.411606
-31.028494 56.986603 -46.074013
-29.819754 56.030151 -47.457172
-28.428303 54.349796 -48.631424
-29.044476 58.864475 -48.460003
-28.277042 62.035664 -49.263485
-27.147003 64.775856 -50.114426
-12.703854 58.076931 -52.308228
-13.120691 54.46204 -52.497578
-11.283476 54.665516 -52.32531
-9.949242 51.505085 -52.413765
-8.644605 48.232346 -52.62648
-15.497743 86.701103 -48.348122
-14.216624 83.63652 -49.19973
-12.940061 86.681808 -47.95298
-10.208656 86.449806 -47.337894
-14.778327 107.648026 -19.307344
-16.147934 107.489075 -22.185415
-17.55088 106.967392 -24.907179
-14.062482 106.258865 -28.092289
-16.556877 106.271347 -28.155016
-18.942123 105.926758 -28.006252
-20.34606 104.578529 -30.620634
-21.644857 102.881653 -33.087387
-22.874008 100.711655 -35.600418
-24.138033 98.190254 -37.751072
-21.983004 99.486519 -38.165245
-20.999273 98.112167 -40.357063
-20.145819 96.195175 -42.522987
-16.212727 99.074623 -40.524075
-17.751139 96.693954 -42.628643
-18.91604 94.121338 -44.429047
-17.876764 91.734528 -46.05962
-16.618853 89.411392 -47.282467
-35.222416 53.224716 -37.526497
-34.615643 57.237495 -39.110779
-35.25922 63.284641 -35.534424
-34.696388 62.077545 -38.153152
-33.958977 61.173302 -40.554428
-33.265236 64.722099 -41.82132
-32.374424 68.388268 -43.19455
-31.477873 71.563553 -44.273594
-4.744949 57.6731 -50.659588
-5.581295 54.71954 -51.36887
-3.641996 54.516178 -50.873699
-2.55652 51.512772 -51.238144
-1.411326 48.80175 -51.725319
0.283063 48.538754 -51.37915
-0.499456 46.1339 -52.50248
-20.693769 59.257397 -52.546005
-19.528019 56.859062 -52.608227
-19.387884 59.997948 -52.63105
-17.786699 60.42408 -52.627686
-15.93224 60.771633 -52.522594
-16.816013 67.202805 -52.257717
-15.50826 64.194756 -52.328018
-14.092633 61.208294 -52.322781
-12.106563 61.350842 -52.031597
-10.08689 61.230938 -51.656273
-7.971127 61.218315 -51.144226
-13.016424 80.621109 -49.753033
-11.855907 77.53775 -50.11554
-10.538908 74.371239 -50.290375
-8.288783 74.223595 -49.602375
-9.409351 71.038704 -50.423927
-8.212267 67.651649 -50.467121
-7.001198 64.352554 -50.476158
-5.831938 60.820461 -50.5476
-3.739344 60.518024 -49.819103
-1.803137 60.214417 -48.999966
0.073874 59.767139 -48.069016
0.347067 65.481926 -46.778484
1.025079 62.423561 -46.893536
-31.255253 75.833107 -43.312508
-30.436171 74.330063 -45.33255
-25.256083 95.369896 -39.691845
-26.362024 92.229599 -41.334232
-27.189426 88.999664 -42.853165
-24.546358 88.903976 -45.449787
-26.350424 87.074554 -45.037495
-27.971298 85.25827 -44.24707
-28.701893 81.325821 -45.289219
-29.175785 76.996353 -46.324474
-29.49456 72.511276 -47.109055
-28.424501 71.041679 -48.533184
-27.253 69.452614 -49.720451
-26.008495 67.115936 -50.721592
-24.320526 73.254951 -50.812355
-24.655886 69.056564 -51.210629
-24.613167 65.261009 -51.484943
-23.394396 63.319344 -51.967876
-21.971491 61.288757 -52.345383
-21.735699 57.949486 -52.357056
-32.149155 49.742466 -43.664944
-31.182667 44.486938 -44.083187
-24.493193 43.954697 -49.692688
-24.081144 47.186356 -50.435101
-26.866133 53.019619 -49.671776
-25.240274 51.435596 -50.459206
-23.615648 50.338448 -51.091991
-23.154848 53.490417 -51.631927
-22.482819 55.892414 -52.056259
-18.354422 54.032494 -52.586632
-17.035984 51.080112 -52.544601
-15.586492 47.777466 -52.5168
-13.599918 51.173706 -52.600082
-13.879304 47.696445 -52.615723
-14.069263 44.323055 -52.549976
-12.453017 41.038631 -52.69096
-6.137774 51.605961 -51.96748
-6.773894 48.332733 -52.530323
-7.271711 45.035702 -52.990875
-4.199165 99.538006 -35.545002
-5.075518 99.064999 -36.803223
-5.689272 100.064789 -35.906506
-6.283931 101.043285 -34.921526
-6.913996 101.92733 -33.914952
-5.689272 100.064789 -35.906506
-7.160285 100.570279 -36.179747
-6.283931 101.043285 -34.921526
-21.619493 44.026673 -50.964733
-21.802989 42.381819 -50.636308
-22.520927 44.536631 -50.697005
-36.128616 59.848886 -32.580202
-36.20747 57.577168 -33.172072
-33.511383 72.862465 -38.085448
-33.916369 71.170941 -37.429056
-33.270308 72.345405 -39.325786
-33.511383 72.862465 -38.085448
-0.426773 55.408171 -49.434259
0.012346 56.685191 -48.826593
-7.364489 81.582031 -47.778379
-8.612547 81.740571 -48.199647
-7.950588 83.137276 -47.593525
-3.770521 69.97295 -48.344288
-4.311144 71.698535 -48.351536
-3.129211 71.31739 -47.839291
-29.424729 85.529327 -41.624274
-29.780531 86.059704 -40.458601
-29.062383 87.418858 -40.927715
-9.090191 43.193602 -53.043295
-9.958835 43.174145 -52.991264
-9.79474 44.728369 -52.89427
-4.586305 96.093105 -39.550783
-3.799371 96.825916 -38.411951
-0.703002 73.415031 -46.144956
-1.824307 73.888401 -46.724697
-1.156538 75.069432 -46.12721
0.370915 72.901329 -45.552478
-0.296854 71.720299 -46.149965
-0.703002 73.415031 -46.144956
-22.258102 104.623253 -27.46288
-21.931235 104.362644 -28.991403
-27.759328 92.584111 -38.589292
-27.3131 94.062859 -37.783911
-27.512696 91.886314 -39.829416
-27.759328 92.584111 -38.589292
-19.157091 43.304062 -51.607473
-19.95387 43.474539 -51.423073
-19.905852 45.14041 -51.633253
-17.537843 39.654485 -51.586058
-16.710021 39.565259 -51.794052
-9.531339 87.796238 -46.58057
-10.901861 87.915832 -46.941621
-10.224543 89.262265 -46.184297
-8.918738 86.255691 -46.961401
-9.531339 87.796238 -46.58057
-7.782559 92.703549 -43.544583
-6.999835 93.642578 -42.646353
-13.512588 107.466152 -19.301329
-14.05957 107.525467 -17.689263
-15.709399 107.250282 -23.75115
-14.882814 107.415562 -22.237136
-14.44428 107.17677 -23.802871
-13.552968 105.719879 -29.483745
-12.745593 106.043419 -28.138863
-12.236079 105.504433 -29.530318
-35.088211 65.724112 -35.042679
-35.451346 63.773363 -34.257174
0.740468 47.344477 -51.771853
1.133922 48.514742 -51.079407
0.349208 46.14205 -52.333517
-0.108197 47.336327 -51.940815
0.740468 47.344477 -51.771853
0.02587 44.890245 -52.98375
0.349208 46.14205 -52.333517
-7.761002 72.534145 -49.657767
-7.155432 73.895699 -49.218746
-6.627651 72.206249 -49.274137
1.928005 61.864929 -46.333061
1.643297 63.456752 -46.238932
1.423067 60.690638 -47.008358
1.928005 61.864929 -46.333061
-17.515487 107.591813 -17.254545
-16.330007 107.6465 -17.449672
-19.665796 107.168949 -17.020895
-20.373244 106.897167 -18.49917
-22.359357 105.537991 -22.928509
-22.963891 104.895207 -24.225546
-34.532465 45.680227 -38.5968
-35.093397 46.127561 -37.428209
-32.810488 43.942431 -41.591328
-33.420261 44.6931 -40.631525
-33.249926 46.536741 -41.284056
-32.116594 43.29397 -42.482123
-32.810488 43.942431 -41.591328
-29.946426 41.531363 -44.890119
-30.647934 42.093721 -44.184429
-30.481158 43.92458 -44.788877
-29.11381 40.920975 -45.590706
-29.946426 41.531363 -44.890119
-26.54578 39.269836 -47.439199
-27.425449 39.894547 -46.879452
-27.276888 41.600811 -47.371175
-25.587436 38.66433 -47.964862
-26.54578 39.269836 -47.439199
-25.564653 40.581785 -48.387332
-25.587436 38.66433 -47.964862
-2.991467 97.402146 -37.239961
-3.799371 96.825916 -38.411951
-4.393315 97.961986 -37.613709
-7.507333 102.737198 -32.895457
-8.154898 103.515713 -31.758752
-8.348282 102.358643 -34.175272
-7.507333 102.737198 -32.895457
-6.913996 101.92733 -33.914952
-26.483284 95.027352 -38.187914
-27.3131 94.062859 -37.783911
-21.916856 40.735807 -50.330179
-22.84798 41.167834 -49.999312
-21.916856 40.735807 -50.330179
-21.802989 42.381819 -50.636308
-15.837921 39.351809 -51.956842
-16.710021 39.565259 -51.794052
-16.670617 41.164463 -51.946375
-14.996171 39.223129 -52.148724
-15.837921 39.351809 -51.956842
-14.105915 39.104492 -52.305287
-14.996171 39.223129 -52.148724
-14.90826 40.832375 -52.265728
-13.231177 39.11216 -52.506726
-14.105915 39.104492 -52.305287
-9.367064 90.500389 -45.329046
-10.224543 89.262265 -46.184297
-10.737586 90.619984 -45.690098
-13.949115 106.882847 -25.312627
-14.44428 107.17677 -23.802871
-36.2377 55.110914 -33.656662
-36.23041 52.535607 -34.154385
-35.935941 57.086916 -34.452856
-36.2377 55.110914 -33.656662
-36.20747 57.577168 -33.172072
-34.33506 69.333039 -36.637814
-34.717999 67.574601 -35.8566
-34.100104 68.823521 -37.953508
-34.33506 69.333039 -36.637814
-33.916369 71.170941 -37.429056
-33.008053 71.594459 -40.468767
-33.419157 69.910477 -39.887732
-33.270308 72.345405 -39.325786
-32.564436 73.447777 -41.01316
-32.713285 71.012848 -41.575105
-33.008053 71.594459 -40.468767
-0.920385 54.14459 -49.960027
-1.344445 55.600944 -49.773167
-0.426773 55.408171 -49.434259
-0.333296 52.674892 -50.152862
-1.250968 52.867666 -50.49177
-0.920385 54.14459 -49.960027
-9.294271 80.425491 -48.749349
-9.88037 81.980736 -48.564495
-8.612547 81.740571 -48.199647
-8.747542 78.908752 -48.897451
-10.015365 79.148918 -49.262298
-9.294271 80.425491 -48.749349
-5.487267 71.960949 -48.845825
-4.311144 71.698535 -48.351536
-6.092837 70.599395 -49.284846
-6.627651 72.206249 -49.274137
-5.487267 71.960949 -48.845825
1.860283 66.128108 -45.605164
2.368572 67.269489 -44.992266
-21.041653 106.575645 -19.821665
-20.373244 106.897167 -18.49917
-20.018664 106.945812 -20.124561
-30.420741 84.662198 -39.998838
-29.780531 86.059704 -40.458601
-30.763677 82.669571 -40.605762
-30.420741 84.662198 -39.998838
-30.449311 82.090538 -41.781021
-31.070112 80.589935 -41.231624
-30.763677 82.669571 -40.605762
-10.759965 43.039236 -52.886404
-11.607727 42.943344 -52.823629
-11.511145 44.61302 -52.779465
-10.759965 43.039236 -52.886404
-9.958835 43.174145 -52.991264
-6.11388 94.457818 -41.666912
-6.999835 93.642578 -42.646353
-7.502464 94.949654 -41.95769
-5.29395 95.282673 -40.647058
-5.908864 96.575325 -39.881974
-4.586305 96.093105 -39.550783
-6.11388 94.457818 -41.666912
-5.29395 95.282673 -40.647058
-11.623224 104.913379 -30.812714
-12.236079 105.504433 -29.530318
-9.572306 103.907188 -31.953002
-8.154898 103.515713 -31.758752
-10.96524 104.211296 -32.093635
-9.572306 103.907188 -31.953002
-10.334552 103.472618 -33.296409
-12.38547 104.478809 -32.156121
-11.623224 104.913379 -30.812714
-10.96524 104.211296 -32.093635
-2.520302 72.638488 -47.294491
-1.824307 73.888401 -46.724697
-1.97968 70.912903 -47.287243
-3.129211 71.31739 -47.839291
-2.520302 72.638488 -47.294491
1.474897 72.288239 -44.894363
0.370915 72.901329 -45.552478
1.784882 70.620678 -44.906837
1.474897 72.288239 -44.894363
2.482716 71.702321 -44.243713
2.125876 68.900517 -44.941093
1.118057 69.486435 -45.591743
1.784882 70.620678 -44.906837
2.368572 67.269489 -44.992266
2.125876 68.900517 -44.941093
-22.615779 104.820091 -25.847502
-21.629933 105.324012 -26.197663
-22.258102 104.623253 -27.46288
-22.963891 104.895207 -24.225546
-22.615779 104.820091 -25.847502
-28.370416 88.571854 -41.315611
-29.062383 87.418858 -40.927715
-2.436481 44.587263 -53.164766
-1.656972 44.840723 -53.108931
-20.802093 43.591374 -51.176445
-21.619493 44.026673 -50.964733
-21.520031 45.746185 -51.237141
-20.802093 43.591374 -51.176445
-19.95387 43.474539 -51.423073
-18.373913 41.508052 -51.590439
-19.157091 43.304062 -51.607473
-18.325895 43.173924 -51.800619
-18.373913 41.508052 -51.590439
-17.537843 39.654485 -51.586058
-8.413733 84.678696 -47.29985
-9.703651 84.87281 -47.676344
-8.918738 86.255691 -46.961401
-7.950588 83.137276 -47.593525
-8.413733 84.678696 -47.29985
-8.528403 91.565395 -44.49344
-9.134263 92.996262 -43.885988
-7.782559 92.703549 -43.544583
-9.367064 90.500389 -45.329046
-8.528403 91.565395 -44.49344
-15.163255 107.644905 -17.648566
-14.444498 107.522346 -16.030485
-14.05957 107.525467 -17.689263
-15.94508 107.64962 -19.108451
-16.330007 107.6465 -17.449672
-15.163255 107.644905 -17.648566
-14.198011 107.495037 -20.798101
-13.512588 107.466152 -19.301329
-15.463131 107.568551 -20.746379
-14.198011 107.495037 -20.798101
-14.882814 107.415562 -22.237136
-13.344923 106.506535 -26.700329
-12.745593 106.043419 -28.138863
-14.666673 106.635177 -26.704587
-13.949115 106.882847 -25.312627
-13.344923 106.506535 -26.700329
-21.468137 104.088322 -30.395199
-21.931235 104.362644 -28.991403
-20.809159 104.852851 -29.216838
-22.117535 103.239883 -31.628576
-21.468137 104.088322 -30.395199
-20.995458 103.730091 -31.854011
-22.711062 102.226295 -32.951732
-22.117535 103.239883 -31.628576
-23.325637 101.141296 -34.208248
-22.711062 102.226295 -32.951732
-22.259432 101.796654 -34.343902
-23.9014 99.951866 -35.38172
-23.325637 101.141296 -34.208248
-23.50602 99.450954 -36.675745
-24.533412 98.691166 -36.457047
-23.9014 99.951866 -35.38172
-35.314217 48.76045 -37.063806
-35.093397 46.127561 -37.428209
-35.860363 52.004559 -35.424768
-36.23041 52.535607 -34.154385
-35.488486 51.306585 -36.719293
-35.860363 52.004559 -35.424768
-35.594294 53.92269 -36.231972
-35.048147 50.678581 -37.87101
-35.314217 48.76045 -37.063806
-35.488486 51.306585 -36.719293
-35.774591 61.907627 -33.474094
-36.128616 59.848886 -32.580202
-35.582466 61.418905 -34.751345
-35.774591 61.907627 -33.474094
-35.451346 63.773363 -34.257174
-34.889007 65.13513 -36.348345
-35.088211 65.724112 -35.042679
-34.717999 67.574601 -35.8566
0.149198 51.215101 -50.420908
-0.333296 52.674892 -50.152862
0.622669 49.785494 -50.76818
1.133922 48.514742 -51.079407
-0.190408 49.968361 -51.031878
0.149198 51.215101 -50.420908
0.622669 49.785494 -50.76818
-0.803885 44.89511 -52.999474
-1.656972 44.840723 -53.108931
-1.352543 46.079513 -52.611937
-0.803885 44.89511 -52.999474
0.02587 44.890245 -52.98375
-8.202025 77.273663 -49.024227
-8.747542 78.908752 -48.897451
-7.612099 75.56937 -49.120215
-7.155432 73.895699 -49.218746
-8.878709 75.927887 -49.506388
-8.202025 77.273663 -49.024227
-7.612099 75.56937 -49.120215
0.474699 58.136498 -48.237402
0.012346 56.685191 -48.826593
-0.388479 58.315832 -48.658207
1.304291 64.985935 -46.181406
0.903059 66.624099 -46.202241
1.860283 66.128108 -45.605164
0.686073 63.952743 -46.83601
1.304291 64.985935 -46.181406
1.643297 63.456752 -46.238932
0.947464 59.362426 -47.596098
0.549477 61.09535 -47.481276
1.423067 60.690638 -47.008358
0.474699 58.136498 -48.237402
0.947464 59.362426 -47.596098
-2.731054 98.900307 -35.213403
-4.199165 99.538006 -35.545002
-2.160744 97.913395 -36.023573
-2.731054 98.900307 -35.213403
-2.991467 97.402146 -37.239961
-2.160744 97.913395 -36.023573
-18.634698 107.399872 -17.2008
-17.515487 107.591813 -17.254545
-18.231043 107.459274 -18.855812
-18.634698 107.399872 -17.2008
-19.665796 107.168949 -17.020895
-21.709089 106.08971 -21.360895
-21.337342 106.07257 -23.014671
-22.359357 105.537991 -22.928509
-21.041653 106.575645 -19.821665
-21.709089 106.08971 -21.360895
-32.089929 74.99939 -41.620964
-32.564436 73.447777 -41.01316
-31.332967 78.571758 -41.764656
-31.070112 80.589935 -41.231624
-31.582721 76.482861 -42.217468
-31.332967 78.571758 -41.764656
-31.005499 77.922004 -42.859696
-31.762461 74.349636 -42.716003
-32.089929 74.99939 -41.620964
-31.582721 76.482861 -42.217468
-25.056729 97.363777 -37.50295
-24.533412 98.691166 -36.457047
-25.615755 95.953598 -38.473337
-25.056729 97.363777 -37.50295
-24.697058 96.780075 -38.721458
-26.123613 94.443649 -39.406422
-26.483284 95.027352 -38.187914
-25.615755 95.953598 -38.473337
-27.198137 91.242413 -40.936033
-27.512696 91.886314 -39.829416
-26.676583 92.873501 -40.227615
-27.611838 89.627445 -41.695499
-27.198137 91.242413 -40.936033
-26.775725 90.614632 -42.093699
-27.948003 87.944073 -42.473276
-28.370416 88.571854 -41.315611
-27.611838 89.627445 -41.695499
-34.025375 45.25771 -39.651165
-34.532465 45.680227 -38.5968
-34.366788 47.709929 -39.269888
-34.025375 45.25771 -39.651165
-33.420261 44.6931 -40.631525
-31.387851 42.644403 -43.401787
-32.116594 43.29397 -42.482123
-31.911409 45.136505 -43.163522
-31.387851 42.644403 -43.401787
-30.647934 42.093721 -44.184429
-28.302263 40.352625 -46.249136
-29.11381 40.920975 -45.590706
-28.968103 42.793871 -46.152998
-28.302263 40.352625 -46.249136
-27.425449 39.894547 -46.879452
-25.425283 42.450283 -48.853555
-25.564653 40.581785 -48.387332
-26.257848 42.844599 -48.397146
-24.612641 42.071083 -49.268215
-25.425283 42.450283 -48.853555
-25.305835 44.333897 -49.278028
-23.742366 41.699294 -49.661366
-24.612641 42.071083 -49.268215
-23.598807 43.423237 -50.030634
-22.84798 41.167834 -49.999312
-23.742366 41.699294 -49.661366
-12.448683 39.274607 -52.64106
-13.231177 39.11216 -52.506726
-13.23551 40.876184 -52.556625
-11.654782 41.204096 -52.810764
-12.405962 42.777879 -52.703825
-11.607727 42.943344 -52.823629
-11.717347 39.502117 -52.808721
-11.654782 41.204096 -52.810764
-12.448683 39.274607 -52.64106
-11.717347 39.502117 -52.808721
-3.257708 44.470396 -53.240746
-3.026858 45.90826 -52.797373
-2.436481 44.587263 -53.164766
-4.026841 44.237173 -53.237276
-3.257708 44.470396 -53.240746
-4.857466 44.056206 -53.283971
-4.678711 45.610426 -52.920047
-4.026841 44.237173 -53.237276
-5.66653 43.846178 -53.236408
-4.857466 44.056206 -53.283971
-6.547717 43.649299 -53.248474
-6.390524 45.23258 -52.978809
-5.66653 43.846178 -53.236408
-7.407058 43.430756 -53.170771
-6.547717 43.649299 -53.248474
-8.234251 43.286817 -53.148483
-8.098904 44.891764 -52.968588
-7.407058 43.430756 -53.170771
-9.090191 43.193602 -53.043295
-8.234251 43.286817 -53.148483
3 0 87 85
3 339 90 340
3 341 340 88
3 339 340 341
3 342 92 343
3 344 88 345
3 346 345 92
3 344 345 346
3 1 96 94
3 1 99 97
3 1 94 99
3 3 103 101
3 3 105 103
3 2 108 106
3 4 347 349
3 349 348 109
3 347 348 349
3 5 112 110
3 5 113 112
3 6 116 114
3 8 119 117
3 8 121 119
3 8 123 121
3 6 126 124
3 6 114 126
3 350 129 351
3 352 131 353
3 355 354 131
3 357 356 133
3 12 137 135
3 14 140 138
3 14 142 140
3 360 359 143
3 358 359 360
3 15 361 363
3 361 145 362
3 361 362 363
3 15 147 145
3 15 149 147
3 7 152 150
3 16 364 366
3 364 153 365
3 364 365 366
3 16 155 153
3 9 158 156
3 17 161 159
3 17 163 161
3 17 165 163
3 12 168 166
3 12 135 168
3 10 172 170
3 19 175 173
3 19 177 175
3 19 179 177
3 18 182 180
3 18 184 182
3 13 187 185
3 20 190 188
3 20 367 369
3 369 368 190
3 367 368 369
3 11 193 191
3 21 196 194
3 23 197 86
3 23 198 197
3 24 201 199
3 371 370 89
3 26 202 91
3 26 203 202
3 26 205 203
3 24 206 93
3 24 199 206
3 28 209 207
3 30 210 95
3 30 211 210
3 372 212 373
3 372 373 374
3 375 214 376
3 377 376 212
3 375 376 377
3 379 378 215
3 32 380 381
3 32 382 383
3 33 219 217
3 35 220 98
3 35 221 220
3 35 223 221
3 28 224 100
3 28 207 224
3 37 227 225
3 39 228 102
3 39 229 228
3 39 231 229
3 41 232 104
3 41 233 232
3 42 236 234
3 44 237 107
3 44 238 237
3 22 384 386
3 386 385 195
3 384 385 386
3 388 387 111
3 45 241 239
3 389 242 390
3 391 390 115
3 389 390 391
3 393 392 242
3 395 394 200
3 396 243 397
3 48 398 400
3 398 244 399
3 398 399 400
3 48 245 244
3 25 401 403
3 401 246 402
3 401 402 403
3 49 247 118
3 49 248 247
3 49 249 248
3 50 250 120
3 50 251 250
3 50 253 251
3 52 254 122
3 52 255 254
3 27 256 204
3 53 257 125
3 53 258 257
3 53 259 258
3 45 260 127
3 45 239 260
3 55 261 128
3 55 262 261
3 404 263 405
3 56 264 130
3 56 265 264
3 56 266 265
3 57 267 132
3 57 268 267
3 58 271 269
3 60 272 134
3 60 273 272
3 406 274 407
3 408 275 409
3 410 409 274
3 408 409 410
3 412 411 275
3 61 278 276
3 63 279 136
3 63 280 279
3 29 281 208
3 64 282 139
3 64 283 282
3 64 284 283
3 65 285 141
3 65 286 285
3 46 287 240
3 66 288 144
3 66 289 288
3 67 413 415
3 413 290 414
3 413 414 415
3 67 291 290
3 67 292 291
3 68 293 146
3 68 294 293
3 68 295 294
3 69 296 148
3 69 297 296
3 31 298 213
3 416 299 417
3 419 418 299
3 47 420 421
3 423 422 151
3 425 424 216
3 70 300 154
3 70 301 300
3 51 302 252
3 71 303 157
3 71 304 303
3 34 305 218
3 72 306 160
3 72 307 306
3 72 308 307
3 73 309 162
3 73 310 309
3 73 311 310
3 74 312 164
3 74 313 312
3 36 314 222
3 75 315 167
3 75 316 315
3 75 317 316
3 61 318 169
3 61 276 318
3 54 426 427
3 77 428 430
3 430 429 171
3 428 429 430
3 77 431 432
3 38 320 226
3 78 321 174
3 78 433 435
3 435 434 321
3 433 434 435
3 78 436 437
3 79 438 440
3 440 439 176
3 438 439 440
3 79 441 442
3 79 443 444
3 80 322 178
3 80 323 322
3 40 324 230
3 81 325 181
3 81 326 325
3 81 327 326
3 76 328 183
3 76 319 328
3 62 329 277
3 82 330 186
3 82 331 330
3 43 332 235
3 83 333 189
3 83 334 333
3 83 335 334
3 59 336 270
3 84 337 192
3 84 338 337
3 85 86 21
3 87 86 85
3 87 23 86
3 88 89 24
3 90 89 88
3 90 445 447
3 447 446 89
3 445 446 447
3 448 91 449
3 92 450 452
3 450 91 451
3 450 451 452
3 92 26 91
3 92 93 26
3 88 93 92
3 88 24 93
3 94 95 28
3 96 95 94
3 96 30 95
3 453 32 454
3 97 98 33
3 99 98 97
3 99 35 98
3 99 100 35
3 94 100 99
3 94 28 100
3 101 102 37
3 103 102 101
3 103 39 102
3 103 104 39
3 105 104 103
3 105 41 104
3 106 107 42
3 108 107 106
3 108 44 107
3 109 455 456
3 458 457 109
3 110 111 22
3 112 111 110
3 112 459 461
3 461 460 111
3 459 460 461
3 112 462 463
3 113 464 466
3 466 465 112
3 464 465 466
3 113 467 468
3 114 115 45
3 116 115 114
3 116 469 471
3 471 470 115
3 469 470 471
3 472 48 473
3 117 118 25
3 119 118 117
3 119 49 118
3 119 120 49
3 121 120 119
3 121 50 120
3 121 122 50
3 123 122 121
3 123 52 122
3 124 125 27
3 126 125 124
3 126 53 125
3 126 127 53
3 114 127 126
3 114 45 127
3 474 128 475
3 129 476 478
3 476 128 477
3 476 477 478
3 129 55 128
3 479 130 480
3 131 481 483
3 481 130 482
3 481 482 483
3 131 56 130
3 131 132 56
3 484 132 485
3 486 485 131
3 484 485 486
3 487 57 488
3 489 488 132
3 487 488 489
3 133 134 58
3 490 134 491
3 492 491 133
3 490 491 492
3 493 60 494
3 495 494 134
3 493 494 495
3 135 136 61
3 137 136 135
3 137 63 136
3 138 139 29
3 140 139 138
3 140 64 139
3 140 141 64
3 142 141 140
3 142 65 141
3 143 144 46
3 496 144 497
3 498 497 143
3 496 497 498
3 499 66 500
3 501 500 144
3 499 500 501
3 145 502 503
3 145 504 506
3 504 67 505
3 504 505 506
3 145 146 67
3 147 146 145
3 147 68 146
3 147 148 68
3 149 148 147
3 149 69 148
3 508 507 31
3 150 151 47
3 152 151 150
3 152 509 511
3 511 510 151
3 509 510 511
3 153 512 513
3 153 514 515
3 153 516 518
3 516 154 517
3 516 517 518
3 155 154 153
3 155 70 154
3 156 157 51
3 158 157 156
3 158 71 157
3 159 160 34
3 161 160 159
3 161 72 160
3 161 162 72
3 163 162 161
3 163 73 162
3 163 164 73
3 165 164 163
3 165 74 164
3 166 167 36
3 168 167 166
3 168 75 167
3 168 169 75
3 135 169 168
3 135 61 169
3 170 171 54
3 172 171 170
3 172 77 171
3 173 174 38
3 175 174 173
3 175 78 174
3 175 176 78
3 177 176 175
3 177 79 176
3 177 178 79
3 179 178 177
3 179 80 178
3 180 181 40
3 182 181 180
3 182 81 181
3 182 183 81
3 184 183 182
3 184 76 183
3 185 186 62
3 187 186 185
3 187 82 186
3 188 189 43
3 190 189 188
3 190 83 189
3 190 519 521
3 521 520 83
3 519 520 521
3 523 522 190
3 191 192 59
3 193 192 191
3 193 84 192
3 194 195 4
3 196 195 194
3 196 22 195
3 86 196 21
3 197 196 86
3 197 22 196
3 197 110 22
3 198 110 197
3 198 5 110
3 199 200 6
3 201 200 199
3 201 524 526
3 526 525 200
3 524 525 526
3 89 201 24
3 527 201 528
3 529 528 89
3 527 528 529
3 531 530 201
3 532 25 533
3 91 534 535
3 202 536 538
3 538 537 91
3 536 537 538
3 202 539 541
3 539 25 540
3 539 540 541
3 202 117 25
3 203 117 202
3 203 8 117
3 203 204 8
3 205 204 203
3 205 27 204
3 93 205 26
3 206 205 93
3 206 27 205
3 206 124 27
3 199 124 206
3 199 6 124
3 207 208 12
3 209 208 207
3 209 29 208
3 95 209 28
3 210 209 95
3 210 29 209
3 210 138 29
3 211 138 210
3 211 14 138
3 212 542 543
3 212 544 546
3 544 15 545
3 544 545 546
3 212 213 15
3 214 213 212
3 214 31 213
3 547 214 548
3 549 214 550
3 549 550 551
3 552 31 553
3 554 553 214
3 552 553 554
3 556 555 31
3 215 216 7
3 557 216 558
3 559 558 215
3 557 558 559
3 561 560 216
3 562 16 563
3 217 218 9
3 219 218 217
3 219 34 218
3 98 219 33
3 220 219 98
3 220 34 219
3 220 159 34
3 221 159 220
3 221 17 159
3 221 222 17
3 223 222 221
3 223 36 222
3 100 223 35
3 224 223 100
3 224 36 223
3 224 166 36
3 207 166 224
3 207 12 166
3 225 226 10
3 227 226 225
3 227 38 226
3 102 227 37
3 228 227 102
3 228 38 227
3 228 173 38
3 229 173 228
3 229 19 173
3 229 230 19
3 231 230 229
3 231 40 230
3 104 231 39
3 232 231 104
3 232 40 231
3 232 180 40
3 233 180 232
3 233 18 180
3 234 235 13
3 236 235 234
3 236 43 235
3 107 236 42
3 237 236 107
3 237 43 236
3 237 188 43
3 238 188 237
3 238 20 188
3 565 564 11
3 195 566 568
3 568 567 4
3 566 567 568
3 570 569 195
3 111 571 573
3 573 572 22
3 571 572 573
3 575 574 111
3 239 240 1
3 241 240 239
3 241 46 240
3 115 241 45
3 242 241 115
3 242 46 241
3 242 143 46
3 576 143 577
3 578 577 242
3 576 577 578
3 580 579 143
3 200 116 6
3 581 116 582
3 583 582 200
3 581 582 583
3 585 584 116
3 243 586 588
3 586 587 588
3 243 589 591
3 589 47 590
3 589 590 591
3 592 243 593
3 244 594 596
3 594 243 595
3 594 595 596
3 244 47 243
3 244 150 47
3 245 150 244
3 245 7 150
3 246 597 598
3 246 599 601
3 599 48 600
3 599 600 601
3 118 246 25
3 247 246 118
3 247 48 246
3 247 245 48
3 248 245 247
3 248 7 245
3 248 215 7
3 249 215 248
3 249 602 604
3 604 603 215
3 602 603 604
3 120 249 49
3 250 249 120
3 250 605 607
3 607 606 249
3 605 606 607
3 250 608 609
3 251 610 612
3 612 611 250
3 610 611 612
3 251 613 614
3 251 615 617
3 615 252 616
3 615 616 617
3 253 252 251
3 253 51 252
3 122 253 50
3 254 253 122
3 254 51 253
3 254 156 51
3 255 156 254
3 255 9 156
3 204 123 8
3 256 123 204
3 256 52 123
3 125 256 27
3 257 256 125
3 257 52 256
3 257 255 52
3 258 255 257
3 258 9 255
3 258 217 9
3 259 217 258
3 259 33 217
3 127 259 53
3 260 259 127
3 260 33 259
3 260 97 33
3 239 97 260
3 239 1 97
3 618 54 619
3 128 620 621
3 261 622 624
3 624 623 128
3 622 623 624
3 261 625 627
3 625 54 626
3 625 626 627
3 261 170 54
3 262 170 261
3 262 10 170
3 628 129 629
3 263 630 632
3 630 129 631
3 630 631 632
3 263 55 129
3 130 633 635
3 633 263 634
3 633 634 635
3 264 263 130
3 264 55 263
3 264 262 55
3 265 262 264
3 265 10 262
3 265 225 10
3 266 225 265
3 266 37 225
3 132 266 56
3 267 266 132
3 267 37 266
3 267 101 37
3 268 101 267
3 268 3 101
3 269 270 2
3 271 270 269
3 271 59 270
3 134 271 58
3 272 271 134
3 272 59 271
3 272 191 59
3 273 191 272
3 273 11 191
3 636 60 637
3 274 638 639
3 274 640 642
3 640 60 641
3 640 641 642
3 274 273 60
3 275 273 274
3 275 11 273
3 275 643 645
3 645 644 11
3 643 644 645
3 647 646 275
3 276 277 0
3 278 277 276
3 278 62 277
3 136 278 61
3 279 278 136
3 279 62 278
3 279 185 62
3 280 185 279
3 280 13 185
3 208 137 12
3 281 137 208
3 281 63 137
3 139 281 29
3 282 281 139
3 282 63 281
3 282 280 63
3 283 280 282
3 283 13 280
3 283 234 13
3 284 234 283
3 284 42 234
3 141 284 64
3 285 284 141
3 285 42 284
3 285 106 42
3 286 106 285
3 286 2 106
3 240 96 1
3 287 96 240
3 287 30 96
3 144 287 46
3 288 287 144
3 288 30 287
3 288 211 30
3 289 211 288
3 289 14 211
3 648 66 649
3 290 650 651
3 290 652 654
3 652 66 653
3 652 653 654
3 290 289 66
3 291 289 290
3 291 14 289
3 291 142 14
3 292 142 291
3 292 65 142
3 146 292 67
3 293 292 146
3 293 65 292
3 293 286 65
3 294 286 293
3 294 2 286
3 294 269 2
3 295 269 294
3 295 58 269
3 148 295 68
3 296 295 148
3 296 58 295
3 296 133 58
3 297 133 296
3 297 655 657
3 657 656 133
3 655 656 657
3 213 149 15
3 298 149 213
3 298 69 149
3 658 298 659
3 660 659 31
3 658 659 660
3 299 661 663
3 661 298 662
3 661 662 663
3 299 69 298
3 299 297 69
3 664 297 665
3 666 665 299
3 664 665 666
3 668 667 297
3 669 90 670
3 671 90 672
3 674 673 90
3 151 675 677
3 677 676 47
3 675 676 677
3 679 678 151
3 216 152 7
3 680 152 681
3 682 681 216
3 680 681 682
3 684 683 152
3 685 57 686
3 154 687 688
3 300 689 691
3 691 690 154
3 689 690 691
3 300 692 694
3 692 57 693
3 692 693 694
3 300 268 57
3 301 268 300
3 301 3 268
3 252 695 696
3 302 697 699
3 699 698 252
3 697 698 699
3 302 700 702
3 700 32 701
3 700 701 702
3 157 302 51
3 303 302 157
3 303 32 302
3 303 703 705
3 705 704 32
3 703 704 705
3 304 706 708
3 708 707 303
3 706 707 708
3 304 709 711
3 709 16 710
3 709 710 711
3 218 158 9
3 305 158 218
3 305 71 158
3 160 305 34
3 306 305 160
3 306 71 305
3 306 304 71
3 307 304 306
3 307 16 304
3 307 155 16
3 308 155 307
3 308 70 155
3 162 308 72
3 309 308 162
3 309 70 308
3 309 301 70
3 310 301 309
3 310 3 301
3 310 105 3
3 311 105 310
3 311 41 105
3 164 311 73
3 312 311 164
3 312 41 311
3 312 233 41
3 313 233 312
3 313 18 233
3 222 165 17
3 314 165 222
3 314 74 165
3 167 314 36
3 315 314 167
3 315 74 314
3 315 313 74
3 316 313 315
3 316 18 313
3 316 184 18
3 317 184 316
3 317 76 184
3 169 317 75
3 318 317 169
3 318 76 317
3 318 319 76
3 276 319 318
3 276 0 319
3 171 712 714
3 714 713 54
3 712 713 714
3 716 715 171
3 226 172 10
3 320 172 226
3 320 77 172
3 174 320 38
3 321 320 174
3 321 77 320
3 321 717 719
3 719 718 77
3 717 718 719
3 721 720 321
3 176 722 724
3 724 723 78
3 722 723 724
3 726 725 176
3 178 727 729
3 729 728 79
3 727 728 729
3 322 730 732
3 732 731 178
3 730 731 732
3 322 733 734
3 322 735 737
3 735 109 736
3 735 736 737
3 323 109 322
3 323 4 109
3 230 179 19
3 324 179 230
3 324 80 179
3 181 324 40
3 325 324 181
3 325 80 324
3 325 323 80
3 326 323 325
3 326 4 323
3 326 194 4
3 327 194 326
3 327 21 194
3 183 327 81
3 328 327 183
3 328 21 327
3 328 85 21
3 319 85 328
3 319 0 85
3 277 87 0
3 329 87 277
3 329 23 87
3 186 329 62
3 330 329 186
3 330 23 329
3 330 198 23
3 331 198 330
3 331 5 198
3 235 187 13
3 332 187 235
3 332 82 187
3 189 332 43
3 333 332 189
3 333 82 332
3 333 331 82
3 334 331 333
3 334 5 331
3 334 113 5
3 335 113 334
3 335 738 740
3 740 739 113
3 738 739 740
3 741 335 742
3 743 742 83
3 741 742 743
3 744 335 745
3 747 746 335
3 270 108 2
3 336 108 270
3 336 44 108
3 192 336 59
3 337 336 192
3 337 44 336
3 337 238 44
3 338 238 337
3 338 20 238
3 748 193 749
3 750 749 11
3 748 749 750
3 751 193 752
3 753 84 754
3 755 754 193
3 753 754 755
3 756 84 757
3 758 338 759
3 760 759 84
3 758 759 760
3 761 338 762
3 763 20 764
3 765 764 338
3 763 764 765
3 767 766 20
