ply
format ascii 1.0
element vertex 948
property float x
property float y
property float z
element face 905
property list uchar int vertex_index
end_header
27.849581 -41.851936 -12.872649
26.031067 -67.790031 3.601604
0.444677 -7.06246 -56.196083
1.06962 -31.75075 -48.935802
24.975054 -53.520039 -11.647998
-18.85857 -77.224236 3.743697
9.896015 -36.803749 -38.542763
4.474018 -28.330954 -45.362991
24.56238 -39.256119 -20.639332
24.341116 -64.688133 -4.545337
26.188572 -55.039642 -4.454307
-2.873408 -8.296381 -60.364635
-4.264316 -33.963917 -52.170731
-3.623931 -20.480474 -56.128201
0.303506 -18.365683 -52.774372
-17.042963 -78.0084 8.755372
26.425766 -40.592293 -16.819839
-9.736647 -79.295883 17.786531
-6.23589 -81.360313 17.294996
25.191818 -66.193169 -0.598374
27.134567 -63.649147 8.03295
26.425909 -62.500351 3.625637
25.686102 -61.236702 -0.56544
-0.225295 3.019233 -61.22147
-0.766425 -1.947405 -60.218426
-1.171281 -7.482529 -58.61541
-7.051416 -27.35829 -55.643158
2.972758 -30.315971 -47.140476
2.176239 -23.441504 -49.057457
0.55762 -24.648371 -50.906559
-1.489678 -19.40382 -54.623848
-1.582843 -25.898825 -52.691551
26.37813 -47.975124 -12.204312
25.373251 -46.833282 -15.951728
-17.995033 -80.628281 -1.194451
-20.604429 -75.891136 -1.407728
-22.825748 -71.328384 -2.093705
-12.020826 -81.035355 13.240738
-14.099521 -81.784157 8.573771
-16.18434 -81.516594 3.589798
11.448619 -34.12759 -36.592968
8.582203 -30.703056 -39.91106
5.929104 -26.74507 -43.39579
7.130352 -33.014774 -41.797718
5.591346 -35.092548 -43.753754
3.943786 -37.333996 -45.444675
23.713406 -63.121479 -7.709377
26.722076 -56.146263 -0.661412
24.999043 -59.96138 -4.416683
24.493254 -58.73534 -7.669718
28.899755 -42.872055 -8.89602
27.158449 -48.855785 -8.468848
25.574558 -54.265606 -8.171091
-1.398603 -33.27002 -50.595955
-4.035622 -26.768621 -54.203163
-6.255561 -20.72658 -57.71521
-5.532864 -14.918756 -59.731121
3.605855 -22.09244 -47.097912
1.748684 -17.30127 -50.84745
0.256323 -12.588025 -54.572708
-1.361066 -13.222135 -56.654175
-3.288549 -14.150818 -58.33934
27.163055 -41.378143 -14.843853
-9.169416 -81.525337 15.28721
-7.978746 -80.417358 17.497725
25.594769 -67.038483 1.366195
25.132839 -68.900864 -0.737081
25.587225 -69.71373 1.365887
26.546562 -65.843246 5.803885
26.747183 -63.26152 5.691831
26.146656 -65.071938 3.50967
25.740622 -64.392258 1.345937
0.583619 -4.28968 -57.012108
0.082975 -1.91109 -58.832207
-0.147483 -4.460351 -58.221821
-0.967914 -4.640103 -59.454624
-0.336235 -7.159232 -57.480095
2.037019 -30.847561 -48.121201
1.652712 -27.496544 -49.081059
0.734063 -28.094727 -49.976421
-0.448227 -25.311844 -51.814434
-0.313894 -28.915182 -50.794243
25.680393 -50.792095 -11.862713
25.330063 -50.200436 -13.644832
24.669336 -53.087967 -13.347469
-18.439632 -78.941025 1.26365
-19.360601 -78.345985 -1.518396
-19.648674 -76.840691 1.024181
-23.936007 -68.84201 -2.417841
-13.721192 -79.384262 13.528535
-13.109643 -81.426582 11.065588
-14.620116 -79.85746 11.147508
-17.95426 -77.699455 6.309853
-16.592569 -79.762817 6.311508
-17.549658 -79.396095 3.813675
-17.112434 -81.10865 1.246755
12.06302 -37.118362 -35.980076
10.57549 -35.518318 -37.635612
9.976767 -32.418808 -38.255642
9.174673 -33.576511 -39.238201
7.774426 -31.62042 -40.932674
8.497135 -34.905781 -40.150379
7.117887 -37.484047 -41.974739
4.901145 -36.340462 -44.513298
24.777792 -46.160824 -17.745737
-11.933471 -85.395096 5.75528
24.004902 -63.835236 -6.203253
24.979809 -62.885078 -2.601972
25.350544 -60.429611 -2.573598
24.622284 -62.189617 -4.440406
24.296209 -61.570026 -6.147343
28.032038 -45.88628 -8.684818
26.912741 -52.49329 -4.570746
26.625528 -52.02039 -6.527701
25.935457 -54.489799 -6.29235
25.025408 -56.524788 -7.787255
25.243828 -57.125488 -6.136866
-1.181093 2.916857 -62.677231
-0.846448 5.499922 -63.036606
-1.241956 -36.769386 -49.690746
-2.819561 -33.577686 -51.445652
-2.800595 -29.899485 -52.442337
-4.107867 -30.397272 -53.107018
-8.282699 -24.007294 -57.426285
-6.681116 -23.853331 -56.726383
-7.767795 -20.665674 -58.50082
-7.186303 -17.832533 -59.39785
5.148866 -27.300068 -44.465477
4.693485 -24.333055 -45.265633
4.01611 -25.224817 -46.199638
1.177889 -20.8957 -50.935265
1.932117 -20.310045 -49.948269
1.027333 -17.698555 -51.895523
1.019333 -14.790228 -52.668514
0.254368 -15.323114 -53.718365
-0.567769 -12.820652 -55.740295
-0.529652 -15.943672 -54.63063
-2.465732 -19.961924 -55.371304
-2.409589 -16.640142 -56.535023
-3.487518 -17.255354 -57.261753
-4.38977 -14.511329 -59.103313
-4.678249 -17.630632 -58.009796
24.423147 -55.948299 -11.22771
25.590096 -39.868164 -18.698154
-8.439875 -78.184906 19.921852
-6.783738 -79.041985 19.755249
24.735079 -65.469055 -2.698227
24.701426 -67.904427 -2.619664
27.138014 -60.459095 5.814732
26.824003 -59.891079 3.686486
26.496077 -59.210457 1.488867
26.068192 -61.891445 1.553664
25.339413 -63.70892 -0.705453
0.657796 3.271454 -59.807003
0.30153 0.726419 -59.478928
-0.544495 0.504323 -60.817207
-1.996595 -7.951622 -59.513226
-5.688683 -30.941902 -53.796352
3.730483 -29.231882 -46.298523
3.280348 -25.801311 -47.207577
2.56385 -26.783707 -48.062122
1.48949 -24.386539 -49.825985
0.407917 -21.546257 -51.812611
-0.519716 -18.871481 -53.700672
-0.564704 -21.956118 -52.847744
-1.554357 -22.694452 -53.626385
-2.640972 -23.050808 -54.454205
27.063635 -45.088772 -12.591047
26.57453 -44.282005 -14.490727
25.905823 -47.36409 -14.14996
24.804016 -49.951862 -15.509103
-20.898453 -74.385269 0.905352
-21.766212 -73.589355 -1.781114
-10.896426 -80.257706 15.578413
-10.263785 -82.515793 12.941604
-11.393857 -83.16468 10.630816
-12.437106 -83.487488 8.49643
-13.557265 -83.683075 5.934038
-15.600857 -79.932877 8.789106
-15.165697 -81.816093 5.967841
-14.570761 -83.650391 3.487957
26.000454 -70.374054 3.491918
26.409918 -71.060364 5.844449
15.352971 -35.365559 -32.414837
13.81737 -34.095699 -34.068417
12.937631 -35.625832 -34.962631
12.239736 -32.67281 -35.768799
10.690056 -31.036295 -37.485748
9.30476 -29.352339 -39.092964
7.985895 -27.706898 -40.711697
6.658536 -25.812624 -42.471973
7.221211 -28.751331 -41.634155
6.416376 -29.724216 -42.685398
5.749111 -30.73403 -43.574879
7.845899 -36.306568 -41.040562
6.371161 -34.150986 -42.792042
5.024193 -31.779104 -44.501469
4.260169 -32.648827 -45.416012
3.424856 -33.767197 -46.281246
2.475583 -34.816647 -47.12923
25.869738 -43.650383 -16.520096
25.108717 -43.010796 -18.400393
26.490856 -55.464546 -2.560739
26.115044 -58.74572 -0.678356
25.837782 -58.008774 -2.618954
25.50663 -57.603027 -4.480554
24.717676 -59.390434 -6.085328
24.045977 -60.877499 -7.663431
23.808561 -60.367496 -9.106874
28.426571 -42.382648 -10.863597
27.581997 -45.493073 -10.652847
26.783024 -48.431049 -10.37763
25.988726 -51.282478 -10.148618
27.478479 -49.309689 -6.535113
26.30698 -51.670593 -8.372715
25.283615 -53.87989 -9.914827
24.695171 -56.258755 -9.587012
24.222437 -58.382217 -9.255693
0.079628 5.555388 -61.575603
1.326275 -35.482399 -48.061417
0.189342 -36.320454 -48.798466
-0.097388 -32.614124 -49.770565
-1.494761 -29.625389 -51.589207
-2.762808 -26.368622 -53.473381
-3.836855 -23.56082 -55.161739
-5.473346 -27.277382 -54.871563
-5.161162 -23.751949 -55.936134
-4.852588 -20.710621 -56.893307
-5.879116 -17.862352 -58.678337
1.023195 -9.522343 -54.289791
5.43125 -23.603191 -44.272083
4.310408 -21.395643 -46.103458
3.330577 -19.141735 -47.923927
2.936696 -22.747971 -48.047783
2.652445 -19.713293 -48.919056
2.46703 -17.009069 -49.716976
1.695849 -14.509713 -51.605099
0.932048 -12.001531 -53.636917
0.289281 -9.714567 -55.497681
-0.463858 -10.016495 -56.598957
-1.281738 -10.206438 -57.697277
-2.08922 -10.792953 -58.469547
-1.437495 -16.255955 -55.648624
-2.284882 -13.682994 -57.541992
-3.104773 -11.131582 -59.41021
-4.158901 -11.654835 -60.140816
-5.194695 -12.20616 -60.696598
27.506318 -41.61504 -13.858251
27.878197 -39.953485 -14.029474
28.22146 -40.190382 -13.043872
-8.264451 -82.145023 15.093708
-8.841542 -82.699119 13.922728
-14.454976 -78.652729 13.50335
-13.928113 -78.387955 14.783818
-14.904438 -78.889328 12.312837
-14.170654 -79.620861 12.338021
-14.454976 -78.652729 13.50335
10.235753 -36.161034 -38.089188
10.998411 -37.12644 -37.241514
10.658674 -37.769155 -37.69509
24.689744 -37.660023 -20.897368
25.26466 -38.000616 -19.898953
24.035558 -38.842888 -21.547752
24.689744 -37.660023 -20.897368
-11.513963 -86.465053 4.374645
-12.373446 -85.550465 4.529489
24.099894 -65.446872 -5.423094
23.931787 -65.020424 -6.252052
24.173009 -64.261685 -5.374295
-1.54015 4.130035 -63.577659
-1.670253 2.767604 -63.292422
-3.283474 -7.206767 -61.236818
-2.799276 -6.936646 -60.855919
-3.415095 -8.519652 -60.792641
-3.283474 -7.206767 -61.236818
-3.474095 -35.650401 -51.30102
-4.259647 -35.922033 -51.654955
-3.541939 -33.770802 -51.808192
-2.751718 -35.457285 -50.93848
-3.474095 -35.650401 -51.30102
-8.494142 -20.668964 -58.817901
-8.025247 -22.336484 -57.963552
-8.751594 -22.339773 -58.280634
-8.188772 -19.110889 -59.338113
-8.494142 -20.668964 -58.817901
24.073425 -56.957279 -11.788293
24.177772 -57.081446 -11.057756
26.689754 -39.029587 -16.993452
27.11493 -39.320488 -16.027669
26.007931 -40.230228 -17.758997
26.271918 -38.667523 -17.932609
26.689754 -39.029587 -16.993452
-9.088261 -78.740395 18.854191
-9.304203 -77.711673 19.972282
-9.95259 -78.267162 18.904622
-5.666448 -80.738147 18.288756
-5.940371 -79.578983 19.518883
-6.509814 -80.201149 18.525123
-5.304994 -81.885052 17.121681
-5.666448 -80.738147 18.288756
24.94825 -69.705342 -1.769401
25.186274 -70.143238 -0.753008
27.275946 -62.318314 7.938358
27.434078 -62.583094 9.154253
0.574757 -0.450664 -58.533015
0.69871 0.738756 -58.780358
-1.109905 -0.79365 -61.17622
-0.99894 0.432214 -61.475611
-0.65546 -0.721541 -60.517817
-1.211342 -2.176333 -60.775547
-1.109905 -0.79365 -61.17622
-1.51208 -6.316843 -59.547123
-1.410396 -4.89563 -59.96673
-1.069597 -6.061316 -59.035017
-1.583938 -7.717075 -59.064318
-1.924736 -6.55139 -59.996031
-1.51208 -6.316843 -59.547123
24.562866 -51.322502 -15.268432
25.067039 -50.076149 -14.576967
24.825889 -51.446789 -14.336296
24.345643 -51.125743 -16.158347
24.562866 -51.322502 -15.268432
-18.387567 -80.437031 -2.526943
-17.706793 -81.573605 -2.521914
-20.39371 -76.773315 -2.650405
-19.771796 -78.00074 -2.705738
-19.982515 -77.118561 -1.463062
-20.988185 -75.61425 -2.758896
-20.39371 -76.773315 -2.650405
-21.03311 -73.630455 2.107834
-20.465905 -74.751144 2.213137
-22.29598 -72.458869 -1.93741
-21.903025 -72.795803 -0.558229
-22.432792 -71.665318 -0.714524
-22.706312 -72.081669 -3.264102
-22.176544 -73.212154 -3.107807
-22.29598 -72.458869 -1.93741
-23.292048 -70.809272 -3.44424
-22.706312 -72.081669 -3.264102
-24.390935 -68.350158 -3.798558
-24.488591 -67.653896 -2.762042
-11.458626 -80.64653 14.409575
-11.733137 -79.569572 15.697321
-12.295336 -79.958397 14.528483
-16.32191 -78.970639 8.772239
-15.901342 -78.938515 10.009127
-16.622395 -77.976276 9.99226
-15.882417 -82.470081 2.26693
-15.075628 -83.53698 2.21601
-15.37755 -82.583493 3.538877
-17.286936 -81.768574 -1.278641
-16.845637 -82.008758 -0.058038
-17.553733 -80.868465 0.026152
-17.706793 -81.573605 -2.521914
-17.286936 -81.768574 -1.278641
26.619309 -70.111592 7.0842
26.420648 -69.825837 5.850898
14.86137 -36.325375 -32.912142
15.602308 -36.89069 -32.096698
14.09357 -35.690445 -33.738932
14.585171 -34.730629 -33.241627
14.86137 -36.325375 -32.912142
8.227415 -38.12668 -40.691033
8.56037 -37.33034 -40.233448
24.572986 -44.24046 -19.007511
24.943255 -44.58581 -18.073065
24.407524 -45.815473 -18.680183
24.677156 -42.71634 -19.313265
24.572986 -44.24046 -19.007511
23.495382 -63.646849 -8.502948
23.613232 -62.661164 -8.380562
25.849738 -71.2994 2.431579
26.054455 -71.616066 3.545613
27.10804 -54.787759 -0.552129
27.229278 -55.032246 0.445515
26.606466 -55.805404 -1.611075
26.99243 -54.446901 -1.501793
27.10804 -54.787759 -0.552129
23.613232 -62.661164 -8.380562
23.779518 -61.539174 -8.357589
23.879691 -61.999489 -7.686404
29.356455 -41.217327 -9.01058
29.541272 -41.604405 -7.976825
28.663163 -42.627352 -9.879808
29.119864 -40.972623 -9.994369
29.356455 -41.217327 -9.01058
27.623295 -49.533424 -5.554512
28.091942 -48.073656 -5.563949
-0.69339 6.805865 -63.176914
-1.227933 6.681351 -63.922886
1.55353 -37.485256 -47.569611
2.119791 -37.036569 -47.169811
-6.931669 -16.441208 -59.871282
-7.575665 -16.433871 -60.193917
1.34652 -10.604817 -53.366113
1.375938 -9.323063 -53.731006
-5.882605 -13.698792 -60.489103
-5.71352 -12.342495 -60.971842
-5.363779 -13.562458 -60.213859
27.483574 -39.713413 -15.039675
27.878197 -39.953485 -14.029474
26.79441 -40.985218 -15.831846
27.11493 -39.320488 -16.027669
27.483574 -39.713413 -15.039675
-7.669116 -81.591033 16.198966
-8.574081 -80.971347 16.392467
-8.264451 -82.145023 15.093708
-6.797688 -82.062511 16.097601
-7.107318 -80.888835 17.396361
-7.669116 -81.591033 16.198966
-5.851925 -82.565544 16.014184
-6.797688 -82.062511 16.097601
25.413467 -70.549671 0.298477
25.186274 -70.143238 -0.753008
25.360032 -69.307297 0.314403
0.333297 -3.100385 -57.922157
0.465479 -1.769419 -58.209654
0.715801 -2.958714 -57.299605
24.495526 -52.890555 -14.187615
24.825889 -51.446789 -14.336296
24.999699 -51.644202 -13.49615
-22.961062 -70.537929 -0.92845
-22.432792 -71.665318 -0.714524
-23.516191 -69.294742 -1.090518
-23.380878 -70.085197 -2.255773
-22.961062 -70.537929 -0.92845
-24.046449 -68.158756 -1.393764
-23.516191 -69.294742 -1.090518
-24.488591 -67.653896 -2.762042
-24.046449 -68.158756 -1.393764
-13.145519 -79.132851 14.672382
-13.928113 -78.387955 14.783818
-12.871009 -80.209809 13.384636
-12.295336 -79.958397 14.528483
-13.145519 -79.132851 14.672382
11.742176 -37.926462 -36.413746
12.491723 -38.768774 -35.589037
11.319255 -36.31834 -36.807844
11.742176 -37.926462 -36.413746
10.998411 -37.12644 -37.241514
7.501901 -39.341694 -41.604696
7.863409 -38.71542 -41.158121
6.748782 -38.182813 -42.409981
7.501901 -39.341694 -41.604696
5.985512 -36.987064 -43.299488
6.354616 -36.288297 -42.864247
6.748782 -38.182813 -42.409981
5.640411 -37.611021 -43.67926
5.246245 -35.716505 -44.133526
5.985512 -36.987064 -43.299488
5.203385 -38.233671 -44.130287
5.640411 -37.611021 -43.67926
4.724705 -38.730438 -44.595975
4.422465 -36.837229 -44.978986
5.203385 -38.233671 -44.130287
24.537748 -47.785705 -17.521135
25.075522 -46.497053 -16.848732
24.835478 -48.121934 -16.624131
24.266248 -47.352093 -18.41039
24.537748 -47.785705 -17.521135
24.407524 -45.815473 -18.680183
24.266248 -47.352093 -18.41039
-11.023379 -86.295551 5.546755
-11.329626 -85.350563 6.816766
-11.023379 -86.295551 5.546755
-11.513963 -86.465053 4.374645
23.758089 -64.601304 -7.067385
23.612341 -64.244425 -7.820447
23.859154 -63.478358 -6.956315
23.758089 -64.601304 -7.067385
23.931787 -65.020424 -6.252052
26.890515 -56.344324 0.396323
27.229278 -55.032246 0.445515
29.092854 -43.17557 -7.830901
29.541272 -41.604405 -7.976825
28.658995 -44.682682 -7.7253
28.465896 -44.379168 -8.790419
29.092854 -43.17557 -7.830901
28.215543 -46.128366 -7.655851
28.658995 -44.682682 -7.7253
27.778748 -47.613119 -7.547866
27.595244 -47.371032 -8.576833
28.215543 -46.128366 -7.655851
26.769134 -52.25684 -5.549224
27.196819 -50.888775 -5.550806
27.340426 -51.125225 -4.572328
-1.372828 5.421568 -63.757347
-1.01377 4.20839 -62.856918
-1.54015 4.130035 -63.577659
-1.227933 6.681351 -63.922886
-1.372828 5.421568 -63.757347
-1.962916 -37.053135 -50.061027
-1.068585 -38.739647 -49.179474
-2.030759 -35.173536 -50.568199
-1.962916 -37.053135 -50.061027
-2.751718 -35.457285 -50.93848
-7.898027 -17.694318 -59.786628
-7.477049 -19.249104 -58.949335
-8.188772 -19.110889 -59.338113
-7.575665 -16.433871 -60.193917
-7.898027 -17.694318 -59.786628
24.272327 -55.839405 -12.072452
24.548281 -54.625275 -12.282596
24.699101 -54.734169 -11.437854
24.272327 -55.839405 -12.072452
24.073425 -56.957279 -11.788293
-19.445963 -76.170628 3.632309
-19.061087 -76.364186 4.967249
-17.311511 -77.037979 9.969064
-16.622395 -77.976276 9.99226
-17.738847 -76.965091 8.676336
-17.311511 -77.037979 9.969064
-18.194496 -76.810619 7.453576
-17.498612 -77.853927 7.532612
-17.738847 -76.965091 8.676336
-18.608933 -76.601795 6.250326
-18.194496 -76.810619 7.453576
-19.061087 -76.364186 4.967249
-18.406415 -77.461846 5.026775
-18.608933 -76.601795 6.250326
10.344583 -38.559 -38.149277
10.658674 -37.769155 -37.69509
9.585427 -37.57893 -38.984549
10.344583 -38.559 -38.149277
25.778518 -38.306639 -18.928365
26.271918 -38.667523 -17.932609
25.076238 -39.562141 -19.668743
25.26466 -38.000616 -19.898953
25.778518 -38.306639 -18.928365
-8.777035 -77.02858 21.053697
-9.304203 -77.711673 19.972282
-7.926898 -77.431397 21.01579
-8.777035 -77.02858 21.053697
-7.098829 -77.859936 20.932488
-7.926898 -77.431397 21.01579
-7.611807 -78.613445 19.838551
-6.231053 -78.361019 20.750243
-7.098829 -77.859936 20.932488
-6.231053 -78.361019 20.750243
-5.940371 -79.578983 19.518883
-5.304994 -81.885052 17.121681
-5.851925 -82.565544 16.014184
24.492775 -66.359261 -3.631384
24.295794 -65.968799 -4.554939
24.538097 -65.078594 -3.621782
24.475949 -67.576946 -3.592103
24.492775 -66.359261 -3.631384
24.718252 -66.686741 -2.658946
24.512901 -68.767162 -3.60427
24.475949 -67.576946 -3.592103
24.732543 -69.207123 -2.710693
24.917133 -68.402646 -1.678373
24.94825 -69.705342 -1.769401
24.512901 -68.767162 -3.60427
24.732543 -69.207123 -2.710693
27.082254 -62.1245 6.767798
27.275946 -62.318314 7.938358
26.940875 -63.455333 6.862391
27.27767 -60.723287 6.829249
27.082254 -62.1245 6.767798
26.942598 -61.860307 5.753281
27.498689 -59.368282 6.887544
27.27767 -60.723287 6.829249
27.364338 -59.14604 5.813126
27.498689 -59.368282 6.887544
27.207332 -58.862032 4.749003
27.364338 -59.14604 5.813126
26.981009 -60.175087 4.750609
27.08313 -58.547262 3.693442
27.207332 -58.862032 4.749003
26.66004 -59.550768 2.587676
26.919167 -58.206951 2.594632
27.08313 -58.547262 3.693442
27.479233 -51.314175 -3.609471
27.340426 -51.125225 -4.572328
27.077349 -52.655991 -3.568017
27.479233 -51.314175 -3.609471
26.715264 -53.929167 -3.509797
26.550657 -53.766466 -4.512526
27.077349 -52.655991 -3.568017
0.876843 2.011273 -58.944395
1.072306 3.284782 -59.083071
0.479663 1.998936 -59.642966
0.876843 2.011273 -58.944395
0.69871 0.738756 -58.780358
0.192252 -0.592335 -59.155568
0.574757 -0.450664 -58.533015
0.465479 -1.769419 -58.209654
-1.317239 1.638481 -62.405622
-0.862794 1.71059 -61.747219
-0.99894 0.432214 -61.475611
-1.670253 2.767604 -63.292422
-1.317239 1.638481 -62.405622
-1.312086 -3.522682 -60.393646
-1.211342 -2.176333 -60.775547
-0.86717 -3.293754 -59.836525
-1.312086 -3.522682 -60.393646
-1.410396 -4.89563 -59.96673
-2.360869 -6.764266 -60.430214
-1.924736 -6.55139 -59.996031
-2.435001 -8.124002 -59.93893
-2.799276 -6.936646 -60.855919
-2.360869 -6.764266 -60.430214
-5.043379 -34.174803 -52.505723
-4.259647 -35.922033 -51.654955
-5.755562 -32.663795 -53.318533
-4.9765 -32.45291 -52.983542
-5.043379 -34.174803 -52.505723
-6.526511 -30.984557 -54.181299
-5.755562 -32.663795 -53.318533
-7.207878 -29.192751 -55.104702
-6.37005 -29.150096 -54.719755
-6.526511 -30.984557 -54.181299
-7.856317 -27.500044 -55.953001
-7.207878 -29.192751 -55.104702
-8.471959 -25.824546 -56.844565
-7.667057 -25.682792 -56.534722
-7.856317 -27.500044 -55.953001
-9.093729 -23.924115 -57.792332
-8.471959 -25.824546 -56.844565
-8.751594 -22.339773 -58.280634
-9.093729 -23.924115 -57.792332
24.55086 -49.681224 -16.402819
24.835478 -48.121934 -16.624131
25.088634 -48.392572 -15.730415
24.55086 -49.681224 -16.402819
24.345643 -51.125743 -16.158347
24.395422 -54.409239 -13.132331
24.822195 -53.304003 -12.497733
24.548281 -54.625275 -12.282596
24.266038 -54.229754 -13.923825
24.395422 -54.409239 -13.132331
24.495526 -52.890555 -14.187615
24.266038 -54.229754 -13.923825
-19.070352 -79.295883 -2.688916
-18.387567 -80.437031 -2.526943
-18.677817 -79.487133 -1.356424
-19.070352 -79.295883 -2.688916
-19.771796 -78.00074 -2.705738
-19.841015 -75.978856 2.272551
-19.253622 -77.032464 2.383939
-19.445963 -76.170628 3.632309
-20.273564 -75.61298 0.964767
-19.841015 -75.978856 2.272551
-20.465905 -74.751144 2.213137
-21.469145 -73.19376 0.785005
-21.03311 -73.630455 2.107834
-21.332332 -73.987312 -0.437881
-21.469145 -73.19376 0.785005
-21.903025 -72.795803 -0.558229
-21.569077 -74.463359 -2.945589
-20.988185 -75.61425 -2.758896
-21.18532 -74.740246 -1.594421
-21.569077 -74.463359 -2.945589
-22.176544 -73.212154 -3.107807
-23.847177 -69.566085 -3.606308
-23.292048 -70.809272 -3.44424
-23.380878 -70.085197 -2.255773
-23.847177 -69.566085 -3.606308
-24.390935 -68.350158 -3.798558
-10.55568 -78.712879 17.906289
-9.95259 -78.267162 18.904622
-11.135569 -79.193791 16.80223
-11.733137 -79.569572 15.697321
-10.316536 -79.776794 16.682472
-10.55568 -78.712879 17.906289
-11.135569 -79.193791 16.80223
-9.388727 -83.194347 12.749924
-8.841542 -82.699119 13.922728
-9.716601 -82.020565 14.114407
-9.936418 -83.624234 11.586531
-9.388727 -83.194347 12.749924
-10.501454 -83.948677 10.431137
-9.936418 -83.624234 11.586531
-10.828821 -82.840237 11.78621
-11.059819 -84.235355 9.254535
-10.501454 -83.948677 10.431137
-11.581443 -84.396759 8.187342
-11.059819 -84.235355 9.254535
-11.915482 -83.326084 9.563623
-12.185289 -84.441292 7.125855
-11.329626 -85.350563 6.816766
-11.581443 -84.396759 8.187342
-13.185343 -84.694454 4.618868
-12.373446 -85.550465 4.529489
-12.745368 -84.539085 5.844659
-15.410972 -78.900807 11.188328
-14.904438 -78.889328 12.312837
-15.110487 -79.895169 9.968307
-15.410972 -78.900807 11.188328
-15.901342 -78.938515 10.009127
-13.69209 -84.678112 3.395827
-13.185343 -84.694454 4.618868
-14.064013 -83.666733 4.710998
-14.235767 -84.60643 2.177167
-13.69209 -84.678112 3.395827
-14.235767 -84.60643 2.177167
-15.075628 -83.53698 2.21601
-16.346464 -82.266109 1.095409
-15.882417 -82.470081 2.26693
-16.648387 -81.312622 2.418277
-16.346464 -82.266109 1.095409
-16.845637 -82.008758 -0.058038
26.215916 -69.482681 4.674632
26.01576 -69.082043 3.546761
26.231222 -68.19067 4.729475
26.205186 -70.717209 4.668183
26.215916 -69.482681 4.674632
26.420648 -69.825837 5.850898
26.259187 -71.959221 4.721878
26.054455 -71.616066 3.545613
26.205186 -70.717209 4.668183
26.585968 -71.501889 7.020601
26.619309 -70.111592 7.0842
26.451669 -72.405491 5.910562
26.585968 -71.501889 7.020601
26.259187 -71.959221 4.721878
26.451669 -72.405491 5.910562
27.282961 -63.980114 9.122692
27.434078 -62.583094 9.154253
27.018746 -65.10691 8.034287
27.282961 -63.980114 9.122692
26.724743 -66.20396 6.919754
26.840564 -64.746196 6.918418
27.018746 -65.10691 8.034287
26.48897 -67.217277 5.830616
26.724743 -66.20396 6.919754
26.231222 -68.19067 4.729475
26.288815 -66.816638 4.702744
26.48897 -67.217277 5.830616
0.959776 -4.143668 -56.392361
0.715801 -2.958714 -57.299605
0.869101 -5.466492 -56.047835
0.959776 -4.143668 -56.392361
0.799631 -6.852882 -55.639822
0.514148 -5.67607 -56.604095
0.869101 -5.466492 -56.047835
16.093604 -35.980372 -31.596578
15.602308 -36.89069 -32.096698
15.874554 -34.473703 -31.946506
16.093604 -35.980372 -31.596578
15.065571 -33.88912 -32.816248
15.874554 -34.473703 -31.946506
14.297771 -33.25419 -33.643038
15.065571 -33.88912 -32.816248
14.585171 -34.730629 -33.241627
13.502549 -32.586619 -34.493095
14.297771 -33.25419 -33.643038
12.840461 -38.002439 -35.132532
12.491723 -38.768774 -35.589037
13.277767 -37.256175 -34.62381
12.840461 -38.002439 -35.132532
12.500325 -36.372097 -35.471353
13.6537 -36.455512 -34.186039
13.277767 -37.256175 -34.62381
13.377501 -34.860765 -34.515524
14.09357 -35.690445 -33.738932
13.6537 -36.455512 -34.186039
12.713732 -31.875174 -35.343287
13.502549 -32.586619 -34.493095
13.028553 -33.384254 -34.918608
11.948029 -31.241414 -36.16516
12.713732 -31.875174 -35.343287
11.173189 -30.423157 -37.023634
11.948029 -31.241414 -36.16516
11.464896 -31.854552 -36.627274
10.440863 -29.557439 -37.855372
11.173189 -30.423157 -37.023634
9.748216 -28.715461 -38.65898
10.440863 -29.557439 -37.855372
9.997408 -30.194317 -38.289356
9.048644 -27.971037 -39.482181
9.748216 -28.715461 -38.65898
8.389212 -27.148316 -40.291548
9.048644 -27.971037 -39.482181
8.645328 -28.529618 -39.902331
7.713614 -26.213239 -41.160048
8.389212 -27.148316 -40.291548
7.322216 -26.759761 -41.591835
7.049934 -25.266102 -42.040185
7.713614 -26.213239 -41.160048
8.885987 -36.629946 -39.788356
9.196575 -35.854765 -39.346571
9.585427 -37.57893 -38.984549
8.171517 -35.606174 -40.595471
8.885987 -36.629946 -39.788356
8.56037 -37.33034 -40.233448
7.481893 -36.895308 -41.50765
8.227415 -38.12668 -40.691033
7.863409 -38.71542 -41.158121
24.917846 -41.145024 -19.462145
25.349407 -41.43948 -18.549273
24.677156 -42.71634 -19.313265
24.403988 -40.839001 -20.432735
25.076238 -39.562141 -19.668743
24.917846 -41.145024 -19.462145
23.920333 -40.404812 -21.359077
24.403988 -40.839001 -20.432735
24.035558 -38.842888 -21.547752
23.920333 -40.404812 -21.359077
23.495382 -63.646849 -8.502948
23.612341 -64.244425 -7.820447
24.099894 -65.446872 -5.423094
24.295794 -65.968799 -4.554939
25.643124 -70.969238 1.368563
25.79384 -70.043892 2.428902
25.849738 -71.2994 2.431579
25.413467 -70.549671 0.298477
25.643124 -70.969238 1.368563
26.866407 -54.141618 -2.563013
26.99243 -54.446901 -1.501793
26.339714 -55.252094 -3.507523
26.715264 -53.929167 -3.509797
26.866407 -54.141618 -2.563013
26.777515 -57.876421 1.471463
26.919167 -58.206951 2.594632
26.586999 -57.644053 0.387852
26.777515 -57.876421 1.471463
26.30556 -58.978088 0.405255
26.41856 -57.445991 -0.669884
26.890515 -56.344324 0.396323
26.586999 -57.644053 0.387852
23.660809 -61.284172 -9.079311
23.927269 -60.622498 -8.385153
23.779518 -61.539174 -8.357589
23.596072 -60.97234 -9.597738
23.660809 -61.284172 -9.079311
28.487877 -40.642955 -12.060381
28.22146 -40.190382 -13.043872
28.776372 -40.908311 -11.055855
29.119864 -40.972623 -9.994369
28.138076 -42.117292 -11.868123
28.487877 -40.642955 -12.060381
28.776372 -40.908311 -11.055855
27.938764 -47.840071 -6.580999
28.091942 -48.073656 -5.563949
27.318464 -49.082737 -7.501981
27.778748 -47.613119 -7.547866
27.938764 -47.840071 -6.580999
27.052003 -50.665039 -6.531407
27.623295 -49.533424 -5.554512
27.196819 -50.888775 -5.550806
24.313784 -57.236674 -10.237407
24.177772 -57.081446 -11.057756
24.559159 -56.103527 -10.407361
24.077417 -58.298405 -10.071748
24.313784 -57.236674 -10.237407
24.458804 -57.320486 -9.421353
23.91288 -59.231554 -9.841921
24.077417 -58.298405 -10.071748
23.705942 -60.224193 -9.767511
23.91288 -59.231554 -9.841921
24.015499 -59.374856 -9.181283
23.596072 -60.97234 -9.597738
23.705942 -60.224193 -9.767511
0.81296 4.535478 -59.971379
1.072306 3.284782 -59.083071
0.523875 5.677445 -60.855678
0.81296 4.535478 -59.971379
0.368712 4.413421 -60.691303
0.235217 6.842406 -61.698753
0.523875 5.677445 -60.855678
-0.230352 6.833597 -62.446413
-0.38341 5.527655 -62.306105
-0.69339 6.805865 -63.176914
0.235217 6.842406 -61.698753
-0.230352 6.833597 -62.446413
4.225305 -39.239563 -45.043469
4.724705 -38.730438 -44.595975
3.428546 -37.962368 -45.861441
4.225305 -39.239563 -45.043469
2.694445 -36.703693 -46.703718
3.209684 -36.075322 -46.286952
3.428546 -37.962368 -45.861441
1.900929 -35.149523 -47.595323
2.694445 -36.703693 -46.703718
2.119791 -37.036569 -47.169811
-0.408898 -38.417164 -48.822595
-1.068585 -38.739647 -49.179474
0.306752 -38.192697 -48.376455
-0.408898 -38.417164 -48.822595
-0.526307 -36.54492 -49.244606
0.985063 -37.904283 -47.938136
0.306752 -38.192697 -48.376455
0.757809 -35.901426 -48.429941
1.55353 -37.485256 -47.569611
0.985063 -37.904283 -47.938136
-6.278076 -16.456117 -59.511526
-6.532709 -17.847442 -59.038094
-6.931669 -16.441208 -59.871282
-6.10495 -14.984319 -60.037918
-5.70599 -16.390554 -59.204729
-6.278076 -16.456117 -59.511526
-5.882605 -13.698792 -60.489103
-6.10495 -14.984319 -60.037918
1.08889 -8.082824 -54.686676
1.375938 -9.323063 -53.731006
0.733936 -8.292402 -55.242937
0.799631 -6.852882 -55.639822
1.08889 -8.082824 -54.686676
6.426831 -24.274496 -42.919485
7.049934 -25.266102 -42.040185
5.813188 -23.169779 -43.81954
6.426831 -24.274496 -42.919485
6.044893 -24.707907 -43.372028
5.246178 -22.114841 -44.710184
5.813188 -23.169779 -43.81954
4.685757 -21.011067 -45.625872
5.246178 -22.114841 -44.710184
4.870829 -22.499417 -45.18777
4.181645 -20.087701 -46.491144
4.685757 -21.011067 -45.625872
3.69173 -18.960746 -47.401378
4.181645 -20.087701 -46.491144
3.820492 -20.268689 -47.013693
3.242812 -17.798803 -48.317217
3.69173 -18.960746 -47.401378
2.811038 -16.73247 -49.213741
3.242812 -17.798803 -48.317217
2.898803 -18.075402 -48.820452
2.412431 -15.579249 -50.139042
2.811038 -16.73247 -49.213741
2.026841 -14.329571 -51.083103
2.412431 -15.579249 -50.139042
2.08144 -15.759391 -50.661038
1.682847 -13.098502 -52.023768
2.026841 -14.329571 -51.083103
1.300946 -11.844411 -53.039676
1.682847 -13.098502 -52.023768
1.313948 -13.255622 -52.621008
0.977622 -10.761937 -53.963354
1.34652 -10.604817 -53.366113
1.300946 -11.844411 -53.039676
-3.530778 -9.937253 -60.315428
-3.415095 -8.519652 -60.792641
-2.98909 -9.713981 -59.887422
-4.057842 -10.19888 -60.680731
-3.530778 -9.937253 -60.315428
-3.631837 -11.393209 -59.775513
-4.58111 -10.555847 -60.953856
-4.057842 -10.19888 -60.680731
-5.099006 -10.831509 -61.231746
-4.58111 -10.555847 -60.953856
-4.676798 -11.930498 -60.418707
-5.594849 -11.273928 -61.380198
-5.099006 -10.831509 -61.231746
-5.594849 -11.273928 -61.380198
-5.71352 -12.342495 -60.971842
3 0 247 249
3 247 62 248
3 247 248 249
3 251 250 63
3 1 67 65
3 1 70 68
3 1 65 70
3 2 74 72
3 2 76 74
3 3 79 77
3 3 81 79
3 4 84 82
3 5 87 85
3 252 89 253
3 254 91 255
3 256 255 89
3 254 255 256
3 5 94 92
3 5 85 94
3 6 257 259
3 257 97 258
3 257 258 259
3 6 99 97
3 6 101 99
3 8 260 261
3 8 262 263
3 265 264 105
3 9 266 268
3 268 267 106
3 266 267 268
3 9 109 107
3 9 106 109
3 10 114 112
3 10 116 114
3 270 269 117
3 11 271 272
3 11 273 274
3 12 275 276
3 12 277 279
3 277 120 278
3 277 278 279
3 12 122 120
3 280 125 281
3 282 281 123
3 280 281 282
3 284 283 125
3 7 129 127
3 14 132 130
3 14 134 132
3 14 136 134
3 13 139 137
3 13 141 139
3 286 285 142
3 16 287 288
3 16 289 291
3 289 143 290
3 289 290 291
3 17 292 294
3 292 144 293
3 292 293 294
3 18 145 64
3 18 295 297
3 297 296 145
3 295 296 297
3 18 298 299
3 19 147 146
3 301 300 66
3 20 302 303
3 21 148 69
3 21 149 148
3 21 151 149
3 19 152 71
3 19 146 152
3 304 154 305
3 24 155 73
3 24 306 308
3 308 307 155
3 306 307 308
3 24 309 310
3 25 311 313
3 313 312 75
3 311 312 313
3 25 314 316
3 314 156 315
3 314 315 316
3 27 160 158
3 29 161 78
3 29 162 161
3 29 164 162
3 31 165 80
3 31 166 165
3 32 169 167
3 317 170 318
3 319 318 83
3 317 318 319
3 321 320 170
3 34 322 323
3 35 324 326
3 326 325 86
3 324 325 326
3 35 327 328
3 329 171 330
3 36 331 333
3 331 172 332
3 331 332 333
3 36 334 336
3 336 335 172
3 334 335 336
3 36 337 338
3 340 339 88
3 37 341 343
3 341 173 342
3 341 342 343
3 37 174 173
3 37 175 174
3 38 176 90
3 38 177 176
3 15 344 346
3 344 178 345
3 344 345 346
3 39 179 93
3 39 180 179
3 39 347 349
3 349 348 180
3 347 348 349
3 34 350 352
3 352 351 95
3 350 351 352
3 34 353 354
3 355 182 356
3 357 183 358
3 359 184 360
3 361 360 183
3 359 360 361
3 40 185 96
3 40 186 185
3 40 187 186
3 41 188 98
3 41 189 188
3 41 191 189
3 43 192 100
3 43 193 192
3 362 194 363
3 44 195 102
3 44 196 195
3 44 197 196
3 45 198 103
3 45 199 198
3 33 200 168
3 364 201 365
3 366 365 104
3 364 365 366
3 368 367 201
3 46 369 370
3 372 371 181
3 47 373 374
3 47 375 377
3 375 202 376
3 375 376 377
3 22 203 150
3 48 204 108
3 48 205 204
3 48 206 205
3 46 207 110
3 46 378 380
3 380 379 207
3 378 379 380
3 50 381 382
3 50 383 385
3 383 209 384
3 383 384 385
3 50 210 209
3 51 211 111
3 51 212 211
3 386 213 387
3 52 214 113
3 52 215 214
3 52 216 215
3 49 217 115
3 49 208 217
3 23 218 153
3 389 388 118
3 390 219 391
3 53 220 119
3 53 221 220
3 53 222 221
3 54 223 121
3 54 224 223
3 26 225 157
3 55 226 124
3 55 227 226
3 55 228 227
3 393 392 126
3 394 229 395
3 42 230 190
3 57 231 128
3 57 232 231
3 28 233 159
3 58 234 131
3 58 235 234
3 58 236 235
3 59 237 133
3 59 238 237
3 59 239 238
3 60 240 135
3 60 241 240
3 30 242 163
3 61 243 138
3 61 244 243
3 61 245 244
3 56 246 140
3 56 396 398
3 398 397 246
3 396 397 398
3 62 399 400
3 62 401 403
3 401 16 402
3 401 402 403
3 63 64 17
3 404 64 405
3 406 405 63
3 404 405 406
3 407 18 408
3 409 408 64
3 407 408 409
3 411 410 18
3 65 66 19
3 67 66 65
3 67 412 414
3 414 413 66
3 412 413 414
3 68 69 20
3 70 69 68
3 70 21 69
3 70 71 21
3 65 71 70
3 65 19 71
3 72 415 417
3 415 73 416
3 415 416 417
3 74 73 72
3 74 24 73
3 74 75 24
3 76 75 74
3 76 25 75
3 77 78 27
3 79 78 77
3 79 29 78
3 79 80 29
3 81 80 79
3 81 31 80
3 82 83 32
3 84 83 82
3 84 418 420
3 420 419 83
3 418 419 420
3 85 86 34
3 87 86 85
3 87 35 86
3 421 36 422
3 423 88 424
3 425 424 36
3 423 424 425
3 426 88 427
3 429 428 88
3 89 430 431
3 89 432 434
3 432 37 433
3 432 433 434
3 89 90 37
3 91 90 89
3 91 38 90
3 92 93 15
3 94 93 92
3 94 39 93
3 94 95 39
3 85 95 94
3 85 34 95
3 435 96 436
3 97 437 439
3 437 96 438
3 437 438 439
3 97 40 96
3 97 98 40
3 99 98 97
3 99 41 98
3 99 100 41
3 101 100 99
3 101 43 100
3 440 102 441
3 442 102 443
3 444 44 445
3 446 445 102
3 444 445 446
3 447 103 448
3 449 448 44
3 447 448 449
3 450 103 451
3 452 45 453
3 454 453 103
3 452 453 454
3 455 104 456
3 457 456 33
3 455 456 457
3 458 104 459
3 461 460 104
3 105 462 463
3 465 464 105
3 106 466 468
3 468 467 46
3 466 467 468
3 470 469 106
3 471 47 472
3 107 108 22
3 109 108 107
3 109 48 108
3 109 110 48
3 106 110 109
3 106 46 110
3 473 50 474
3 475 111 476
3 477 476 50
3 475 476 477
3 478 111 479
3 480 51 481
3 482 481 111
3 480 481 482
3 112 483 485
3 483 113 484
3 483 484 485
3 114 113 112
3 114 52 113
3 114 115 52
3 116 115 114
3 116 49 115
3 117 118 23
3 486 118 487
3 488 487 117
3 486 487 488
3 490 489 118
3 491 119 492
3 120 493 495
3 493 119 494
3 493 494 495
3 120 53 119
3 120 121 53
3 122 121 120
3 122 54 121
3 123 124 26
3 125 124 123
3 125 55 124
3 125 126 55
3 496 126 497
3 498 497 125
3 496 497 498
3 500 499 126
3 127 128 42
3 129 128 127
3 129 57 128
3 130 131 28
3 132 131 130
3 132 58 131
3 132 133 58
3 134 133 132
3 134 59 133
3 134 135 59
3 136 135 134
3 136 60 135
3 137 138 30
3 139 138 137
3 139 61 138
3 139 140 61
3 141 140 139
3 141 56 140
3 142 501 503
3 503 502 4
3 501 502 503
3 505 504 142
3 507 506 5
3 508 15 509
3 510 15 511
3 512 92 513
3 514 513 15
3 512 513 514
3 515 92 516
3 517 5 518
3 519 518 92
3 517 518 519
3 520 6 521
3 523 522 6
3 143 524 525
3 143 526 528
3 526 8 527
3 526 527 528
3 144 529 530
3 144 531 532
3 64 144 17
3 145 144 64
3 145 533 535
3 535 534 144
3 533 534 535
3 145 536 537
3 539 538 145
3 541 540 18
3 146 542 544
3 544 543 9
3 542 543 544
3 147 545 547
3 547 546 146
3 545 546 547
3 147 548 549
3 66 147 19
3 550 147 551
3 552 551 66
3 550 551 552
3 554 553 147
3 69 555 557
3 557 556 20
3 555 556 557
3 148 558 560
3 560 559 69
3 558 559 560
3 148 561 562
3 148 563 564
3 149 565 567
3 567 566 148
3 565 566 567
3 149 568 569
3 149 570 572
3 570 150 571
3 570 571 572
3 151 150 149
3 151 22 150
3 71 151 21
3 152 151 71
3 152 22 151
3 152 107 22
3 146 107 152
3 146 9 107
3 573 112 574
3 575 112 576
3 577 10 578
3 579 578 112
3 577 578 579
3 580 153 581
3 154 582 584
3 582 153 583
3 582 583 584
3 154 23 153
3 73 585 587
3 585 154 586
3 585 586 587
3 155 154 73
3 155 23 154
3 155 117 23
3 588 117 589
3 590 589 155
3 588 589 590
3 592 591 117
3 75 593 595
3 595 594 24
3 593 594 595
3 597 596 75
3 156 598 599
3 156 600 602
3 600 11 601
3 600 601 602
3 603 12 604
3 605 157 606
3 607 606 12
3 605 606 607
3 608 157 609
3 610 26 611
3 612 611 157
3 610 611 612
3 613 26 614
3 615 123 616
3 617 616 26
3 615 616 617
3 618 123 619
3 621 620 123
3 158 159 7
3 160 159 158
3 160 28 159
3 78 160 27
3 161 160 78
3 161 28 160
3 161 130 28
3 162 130 161
3 162 14 130
3 162 163 14
3 164 163 162
3 164 30 163
3 80 164 29
3 165 164 80
3 165 30 164
3 165 137 30
3 166 137 165
3 166 13 137
3 167 168 0
3 169 168 167
3 169 33 168
3 83 169 32
3 170 169 83
3 170 33 169
3 170 622 624
3 624 623 33
3 622 623 624
3 626 625 170
3 627 84 628
3 629 628 4
3 627 628 629
3 630 84 631
3 633 632 84
3 86 634 636
3 636 635 34
3 634 635 636
3 638 637 86
3 639 87 640
3 641 640 5
3 639 640 641
3 171 642 644
3 642 87 643
3 642 643 644
3 171 35 87
3 645 171 646
3 172 647 649
3 647 171 648
3 647 648 649
3 172 35 171
3 172 650 652
3 652 651 35
3 650 651 652
3 654 653 172
3 88 655 657
3 657 656 36
3 655 656 657
3 659 658 88
3 660 17 661
3 173 662 663
3 173 664 666
3 664 17 665
3 664 665 666
3 173 63 17
3 174 63 173
3 174 667 669
3 669 668 63
3 667 668 669
3 174 670 671
3 175 672 674
3 674 673 174
3 672 673 674
3 175 675 676
3 90 175 37
3 176 175 90
3 176 677 679
3 679 678 175
3 677 678 679
3 176 680 682
3 680 105 681
3 680 681 682
3 177 105 176
3 177 683 685
3 685 684 105
3 683 684 685
3 686 91 687
3 178 688 690
3 688 91 689
3 688 689 690
3 178 38 91
3 93 178 15
3 179 178 93
3 179 38 178
3 179 177 38
3 180 177 179
3 180 691 693
3 693 692 177
3 691 692 693
3 180 694 695
3 697 696 180
3 95 698 700
3 700 699 39
3 698 699 700
3 702 701 95
3 703 181 704
3 705 704 1
3 703 704 705
3 182 706 708
3 706 181 707
3 706 707 708
3 182 709 711
3 711 710 181
3 709 710 711
3 712 182 713
3 714 182 715
3 717 716 182
3 718 20 719
3 720 20 721
3 722 68 723
3 724 723 20
3 722 723 724
3 725 68 726
3 727 1 728
3 729 728 68
3 727 728 729
3 730 72 731
3 732 72 733
3 734 2 735
3 736 735 72
3 734 735 736
3 183 737 738
3 183 739 740
3 183 741 742
3 184 743 745
3 745 744 183
3 743 744 745
3 184 746 747
3 96 748 749
3 185 750 752
3 752 751 96
3 750 751 752
3 185 753 754
3 185 755 757
3 755 184 756
3 755 756 757
3 186 184 185
3 186 758 760
3 760 759 184
3 758 759 760
3 186 761 762
3 187 763 765
3 765 764 186
3 763 764 765
3 187 766 767
3 98 187 40
3 188 187 98
3 188 768 770
3 770 769 187
3 768 769 770
3 188 771 772
3 189 773 775
3 775 774 188
3 773 774 775
3 189 776 777
3 189 778 780
3 778 190 779
3 778 779 780
3 191 190 189
3 191 42 190
3 100 191 41
3 192 191 100
3 192 42 191
3 192 127 42
3 193 127 192
3 193 7 127
3 781 101 782
3 783 782 6
3 781 782 783
3 194 784 786
3 784 101 785
3 784 785 786
3 194 43 101
3 102 787 789
3 787 194 788
3 787 788 789
3 195 194 102
3 195 43 194
3 195 193 43
3 196 193 195
3 196 7 193
3 196 158 7
3 197 158 196
3 197 27 158
3 103 197 44
3 198 197 103
3 198 27 197
3 198 77 27
3 199 77 198
3 199 3 77
3 168 62 0
3 200 62 168
3 200 16 62
3 104 200 33
3 201 200 104
3 201 16 200
3 201 143 16
3 790 143 791
3 792 791 201
3 790 791 792
3 793 8 794
3 795 794 143
3 793 794 795
3 796 8 797
3 799 798 8
3 801 800 46
3 803 802 9
3 181 67 1
3 804 67 805
3 806 805 181
3 804 805 806
3 808 807 67
3 202 809 810
3 202 811 813
3 811 10 812
3 811 812 813
3 150 814 815
3 203 816 818
3 818 817 150
3 816 817 818
3 203 819 821
3 819 47 820
3 819 820 821
3 108 203 22
3 204 203 108
3 204 47 203
3 204 202 47
3 205 202 204
3 205 10 202
3 205 116 10
3 206 116 205
3 206 49 116
3 110 206 48
3 207 206 110
3 207 49 206
3 207 208 49
3 822 208 823
3 824 823 207
3 822 823 824
3 826 825 208
3 827 0 828
3 209 829 830
3 209 831 833
3 831 0 832
3 831 832 833
3 209 167 0
3 210 167 209
3 210 32 167
3 111 210 50
3 211 210 111
3 211 32 210
3 211 82 32
3 212 82 211
3 212 4 82
3 213 834 835
3 213 836 838
3 836 51 837
3 836 837 838
3 113 839 841
3 839 213 840
3 839 840 841
3 214 213 113
3 214 51 213
3 214 212 51
3 215 212 214
3 215 4 212
3 215 142 4
3 216 142 215
3 216 842 844
3 844 843 142
3 842 843 844
3 115 216 52
3 217 216 115
3 217 845 847
3 847 846 216
3 845 846 847
3 217 848 849
3 208 850 852
3 852 851 217
3 850 851 852
3 208 853 854
3 153 855 856
3 218 857 859
3 859 858 153
3 857 858 859
3 218 860 861
3 118 218 23
3 862 218 863
3 864 863 118
3 862 863 864
3 866 865 218
3 867 45 868
3 869 45 870
3 871 199 872
3 873 872 45
3 871 872 873
3 219 874 876
3 874 199 875
3 874 875 876
3 219 3 199
3 119 877 878
3 220 879 881
3 881 880 119
3 879 880 881
3 220 882 883
3 220 884 886
3 884 219 885
3 884 885 886
3 221 219 220
3 221 3 219
3 221 81 3
3 222 81 221
3 222 31 81
3 121 222 53
3 223 222 121
3 223 31 222
3 223 166 31
3 224 166 223
3 224 13 166
3 157 122 12
3 225 122 157
3 225 54 122
3 124 225 26
3 226 225 124
3 226 54 225
3 226 224 54
3 227 224 226
3 227 13 224
3 227 141 13
3 228 141 227
3 228 56 141
3 126 228 55
3 887 228 888
3 889 888 126
3 887 888 889
3 890 56 891
3 892 891 228
3 890 891 892
3 894 893 56
3 229 895 896
3 229 897 899
3 897 2 898
3 897 898 899
3 190 900 901
3 230 902 904
3 904 903 190
3 902 903 904
3 230 905 906
3 128 230 42
3 231 230 128
3 231 907 909
3 909 908 230
3 907 908 909
3 231 910 911
3 232 912 914
3 914 913 231
3 912 913 914
3 232 915 916
3 159 129 7
3 233 129 159
3 233 57 129
3 131 233 28
3 234 233 131
3 234 57 233
3 234 232 57
3 235 232 234
3 235 917 919
3 919 918 232
3 917 918 919
3 235 920 921
3 236 922 924
3 924 923 235
3 922 923 924
3 236 925 926
3 133 236 58
3 237 236 133
3 237 927 929
3 929 928 236
3 927 928 929
3 237 930 932
3 930 229 931
3 930 931 932
3 238 229 237
3 238 2 229
3 238 76 2
3 239 76 238
3 239 25 76
3 135 239 59
3 240 239 135
3 240 25 239
3 240 156 25
3 241 156 240
3 241 11 156
3 163 136 14
3 242 136 163
3 242 60 136
3 138 242 30
3 243 242 138
3 243 60 242
3 243 241 60
3 244 241 243
3 244 11 241
3 244 933 935
3 935 934 11
3 933 934 935
3 245 936 938
3 938 937 244
3 936 937 938
3 245 939 940
3 140 245 61
3 246 245 140
3 246 941 943
3 943 942 245
3 941 942 943
3 246 944 945
3 947 946 246
