ply
format ascii 1.0
element vertex 793
property float x
property float y
property float z
element face 992
property list uchar int vertex_index
end_header
19.607821 -9.392749 -65.605782
12.40216 29.470182 -69.584229
9.554511 8.075827 -70.306602
25.885391 12.901059 -70.331955
21.461481 32.598507 -57.033588
14.160055 34.945221 -62.1563
20.862814 30.432262 -66.592545
19.218931 23.310106 -72.269218
0.692506 6.22479 -60.777744
4.192447 1.464197 -64.315552
4.485586 14.074 -67.914154
8.721534 39.164883 -55.98106
6.652677 33.162342 -63.365078
5.193264 24.683403 -67.696266
10.864136 20.285072 -72.447449
17.200987 12.291487 -72.650742
15.264122 -0.494245 -68.806
22.898739 1.457074 -69.116684
8.444925 -5.943151 -64.610107
13.444701 -14.923699 -62.546486
18.9021 -22.793791 -60.080601
25.727671 -12.853556 -63.383682
30.48975 -1.073428 -65.342247
24.841261 29.23443 -63.631645
2.446621 10.212641 -64.662262
2.406734 15.91398 -65.41259
23.535549 29.11179 -47.937122
12.026461 38.521164 -54.48978
13.170174 32.682095 -66.374016
10.324112 34.595055 -63.22625
9.363743 31.342848 -66.810081
5.876871 29.188263 -66.081619
8.503469 27.561768 -69.146927
7.805839 22.812798 -70.49559
11.487254 25.177601 -71.647552
22.542471 18.77574 -71.88781
18.293835 18.186838 -73.109123
21.403652 13.221372 -72.132568
20.324045 7.077155 -71.174805
24.37088 7.073595 -70.170547
6.537355 5.13424 -67.67247
6.177349 -2.114428 -64.755943
8.979717 1.260642 -67.753761
11.687537 -3.086766 -67.057777
12.4468 4.107905 -69.988068
10.117143 -18.293949 -60.231071
28.288628 -7.03097 -64.677353
28.830105 -14.950172 -61.546738
18.174948 34.692867 -54.702488
14.703304 36.343483 -57.331875
17.871748 34.290966 -60.122261
17.311832 32.951874 -64.818291
16.473003 30.520536 -68.696678
15.732861 26.872883 -71.493164
20.002258 27.557709 -70.059341
23.614697 23.210972 -70.383331
26.940033 18.080448 -69.445061
2.216322 -2.296621 -60.43998
2.399963 4.149558 -62.92609
4.38378 7.966296 -66.592293
6.877362 11.333016 -69.608589
21.105536 32.249378 -51.638092
11.215096 36.88549 -59.112465
7.717324 36.479256 -59.964401
4.33689 34.947739 -60.201073
3.503626 30.835701 -62.701019
2.84094 26.296265 -64.370979
2.620105 21.305305 -65.465645
4.844291 19.568981 -68.420563
7.315032 17.244371 -70.659836
10.216121 14.571643 -71.984024
14.843111 22.177109 -73.008018
13.973381 16.75271 -73.140541
13.206937 10.791758 -72.094757
16.160059 6.120474 -71.138039
19.002815 0.968042 -69.462723
17.751371 -5.157186 -67.219872
21.11084 -4.583806 -67.361458
3.881884 -5.460009 -61.390991
5.750049 -9.19916 -61.632618
7.778534 -13.745371 -61.080441
10.916636 -10.413039 -63.747574
14.284958 -7.527386 -65.832588
16.96113 -11.658252 -64.498337
16.020559 -19.132427 -61.28178
19.495026 -15.325809 -63.141148
28.707493 -23.474199 -58.148159
25.632677 -20.553526 -60.325909
22.468559 -18.006666 -61.901386
22.292202 -10.866738 -64.822174
28.552561 6.129224 -68.059029
26.763741 0.452781 -67.652771
24.713245 -5.416555 -66.441727
1.41134 13.951179 -63.712711
13.622409 37.866772 -53.434055
12.819632 31.105801 -68.210014
11.228525 32.109867 -66.763069
10.771897 30.406878 -68.312378
8.933672 29.466097 -68.180473
10.468771 28.553232 -69.601471
9.853015 26.487207 -70.457901
11.846415 27.431023 -70.758453
24.217447 15.891437 -71.25914
22.116257 16.039993 -72.122536
23.643719 13.232411 -71.392044
22.943487 10.353755 -71.266449
25.108635 10.102015 -70.419189
8.0249 6.475955 -69.068947
7.794404 3.257789 -67.860863
9.354028 4.651549 -69.147461
10.673654 2.726273 -68.988991
10.917172 6.120985 -70.228783
30.321888 -11.895532 -62.00779
30.490187 -16.137774 -60.317783
19.77137 33.657955 -55.924847
17.993196 34.640892 -57.482471
19.690882 33.605919 -58.493752
21.069075 31.384092 -64.652138
19.264261 32.647991 -63.756256
18.905462 31.819551 -65.875343
16.874022 31.852654 -66.924843
18.68676 30.612694 -67.796036
18.232042 29.184244 -69.486504
20.444698 29.082575 -68.550247
23.965036 25.253073 -69.149048
25.630735 23.021351 -69.017525
25.255157 20.827904 -70.074203
1.537877 5.146084 -61.881367
3.377861 12.09609 -66.312279
3.367403 8.98342 -65.647995
4.455795 10.946624 -67.375572
5.571274 9.674022 -68.190063
5.65862 12.701612 -68.883423
19.520361 33.279083 -50.283253
20.826921 31.768414 -48.764004
7.037131 39.107323 -56.521713
14.374416 35.766014 -59.811626
12.931535 36.724903 -58.412979
12.612229 35.82621 -60.842857
8.468931 33.829262 -63.63483
8.966242 35.450104 -61.667107
7.280224 34.849251 -61.865929
6.070855 35.849709 -60.202492
5.471135 33.989834 -61.774342
3.887911 32.903316 -61.568604
5.090261 31.990429 -63.27515
5.53549 27.073992 -67.008179
4.27 27.703016 -65.368317
3.967481 25.464836 -66.051239
2.64557 23.762403 -64.968193
3.755447 23.107164 -66.562958
3.65845 20.414907 -66.953957
4.999506 22.270979 -68.183655
9.221377 21.485275 -71.599068
7.569617 20.17709 -70.74926
8.882803 18.921959 -71.63134
8.69834 15.990751 -71.439857
10.420907 17.503395 -72.324684
17.401596 25.209332 -72.052246
15.163807 24.641239 -72.421852
16.943966 22.896322 -72.802017
17.706259 15.273244 -73.035255
16.07946 17.664856 -73.290001
15.537998 14.6678 -73.038788
13.499143 13.659451 -72.712097
15.155934 11.655742 -72.511459
14.607234 8.547564 -71.720741
16.61862 9.472047 -72.062286
21.689037 4.353676 -70.209328
19.712488 4.08278 -70.414299
20.983828 1.413973 -69.435036
20.133587 -1.629363 -68.500046
21.932076 -1.605262 -68.308235
3.149287 -0.463107 -62.391533
3.034404 -3.895882 -60.985645
4.054132 -2.051349 -62.865501
7.292809 -4.068388 -64.737686
5.946186 -5.674436 -63.17345
7.051794 -7.766675 -63.087414
6.617887 -11.627822 -61.270111
8.208015 -9.972773 -62.825352
9.387981 -12.095975 -62.482315
9.734975 -8.125635 -64.279411
13.381606 -1.463587 -68.128799
12.980823 -5.151319 -66.547867
14.679812 -3.811411 -67.43058
16.010542 -6.296233 -66.612495
16.575172 -2.989737 -67.982727
12.915442 -18.960501 -60.768799
14.202544 -21.045616 -60.21114
14.753943 -16.991606 -61.949707
16.494299 -15.100729 -63.000267
15.222467 -13.234303 -63.593697
28.379372 -27.481709 -56.598316
26.784445 -26.289219 -57.654633
27.158607 -21.931217 -59.342041
25.405973 -24.779827 -58.650532
20.240353 -24.694677 -59.335796
22.19533 -21.965256 -60.320168
20.625593 -20.488239 -61.016075
20.941641 -16.703972 -62.554642
19.223537 -18.788105 -61.705647
30.365316 5.838687 -66.807907
29.580635 2.719475 -66.794373
27.612946 3.23903 -67.988892
28.747688 -0.374093 -66.522072
27.116428 -9.888318 -64.104568
26.492752 -6.049039 -65.697884
25.306492 -9.116512 -64.932793
23.523939 -8.176571 -65.680847
23.929554 -11.928989 -64.143974
22.898943 29.957058 -65.220886
22.481474 28.788553 -67.371223
1.510337 8.154598 -62.701817
1.445093 11.017087 -63.275806
2.325157 12.973505 -64.991356
3.400791 15.018707 -66.71579
13.635941 33.973907 -64.328018
12.138146 34.898861 -62.840172
11.663157 33.612778 -64.915573
9.751546 33.069759 -65.113197
7.942637 32.1633 -65.198753
6.309108 31.190796 -64.934319
7.536217 30.260632 -66.641418
7.115584 28.384626 -67.659943
6.807665 26.2131 -68.581329
6.444367 23.733667 -69.198982
8.060308 25.124588 -69.980171
9.572066 24.084385 -71.215691
11.039246 22.782238 -72.168518
20.931973 20.99007 -72.235733
18.692289 20.966219 -72.863876
20.370443 18.505741 -72.659012
19.890051 15.681136 -72.733261
19.264727 12.785802 -72.525658
18.859592 9.892452 -72.038788
20.890469 10.090434 -71.75795
22.346956 7.179839 -70.796684
23.69669 4.158694 -69.688644
5.33193 3.177706 -66.037338
5.157576 -0.082036 -64.69735
6.478463 1.576932 -66.388847
7.532007 -0.42677 -66.330643
8.725087 -2.221824 -66.269264
9.991348 -4.330706 -65.966614
10.34918 -0.630186 -67.59919
11.988064 0.549106 -68.581657
13.79915 1.719429 -69.416504
11.776877 -16.582741 -61.442326
29.487879 -3.963211 -65.106041
29.914116 -7.938358 -63.60688
28.669271 -11.076525 -63.078331
27.280945 -13.743756 -62.584877
16.555622 35.835896 -53.410309
15.036654 36.725086 -54.594097
16.494011 35.626175 -56.203762
16.235331 35.303505 -58.841282
15.954402 34.798359 -61.178581
19.550989 33.254902 -61.233509
17.565735 33.771809 -62.558285
15.705811 33.961227 -63.605129
15.318619 32.929985 -65.763153
14.741143 31.732271 -67.576225
14.519094 30.069538 -69.330322
13.894685 28.234507 -70.684509
16.103783 28.797726 -70.270462
17.925014 27.342192 -70.909714
19.677979 25.5063 -71.343193
22.206472 27.277985 -69.023392
21.82028 25.535286 -70.382034
21.445377 23.458736 -71.435089
23.047222 21.228451 -71.287651
24.667879 18.631979 -70.854576
26.321981 15.765289 -70.104721
2.356532 0.976919 -61.804794
3.266929 2.66871 -63.646534
2.386391 7.18167 -63.8139
3.356908 5.936368 -64.806267
4.261058 4.704139 -65.493065
5.339029 6.420121 -67.097672
6.678727 8.22253 -68.707405
8.190425 9.906129 -70.115952
18.050156 34.703033 -52.04068
19.604113 33.615543 -53.083702
21.304331 32.533337 -54.34753
22.440695 30.727903 -49.877087
22.71752 31.211882 -52.552174
23.000557 31.443354 -55.191277
13.423029 37.323723 -55.943264
11.635878 37.799961 -56.795284
9.863041 37.986641 -57.495743
10.75631 35.847855 -61.213875
9.431326 36.819286 -59.613049
8.178365 37.905441 -58.015503
6.467839 37.574013 -58.365643
4.75338 36.890324 -58.64267
4.640653 29.881056 -64.444366
3.054019 28.526157 -63.589901
2.459088 18.73555 -65.502724
3.510202 17.694641 -66.9524
4.708848 16.839224 -68.357475
6.274857 21.144217 -69.618706
6.06612 18.47094 -69.673103
5.887183 15.655773 -69.449387
7.149692 14.395432 -70.317337
8.454092 12.992461 -70.915245
9.820934 11.402649 -71.260742
13.564878 26.313061 -71.6707
13.103064 23.788528 -72.47612
12.756059 21.28813 -72.873337
16.593758 20.325466 -73.208191
14.364849 19.696732 -73.22686
12.357868 18.475513 -72.93972
12.005651 15.68692 -72.69294
11.597817 12.632896 -72.122688
11.283685 9.559198 -71.33812
12.674148 7.654695 -71.167068
14.195891 5.378591 -70.734406
15.61688 2.816735 -70.036163
18.178402 6.866772 -71.338684
17.645729 3.522296 -70.347931
17.037081 0.259995 -69.222221
18.352209 -2.096395 -68.397041
19.471348 -4.691329 -67.42141
18.846392 -7.597072 -66.305588
20.385851 -7.411275 -66.356758
2.099387 -5.73664 -59.052517
2.859688 -7.337517 -59.515053
3.578204 -9.159481 -59.692738
5.013029 -3.787439 -63.144722
4.749162 -7.263549 -61.558277
4.426479 -11.031843 -59.842384
5.309532 -13.267262 -59.73978
6.282584 -15.681278 -59.488796
7.269623 -17.940706 -59.176003
8.836547 -16.204605 -60.580193
10.497057 -14.3471 -61.963619
12.12452 -12.723837 -63.139534
11.341002 -6.665893 -65.465897
12.573281 -8.974834 -64.839996
13.922001 -11.152685 -64.230782
15.66815 -9.80503 -65.109627
17.292837 -8.488846 -65.85128
18.449503 -10.364349 -65.169319
15.570946 -23.24168 -59.58844
17.411747 -21.276392 -60.585995
17.77096 -17.200422 -62.270393
18.130806 -13.523439 -63.827457
19.587528 -11.849392 -64.591675
28.895578 -19.244892 -59.8134
27.292568 -17.769354 -60.991299
25.783278 -16.625029 -61.874847
23.7742 -23.605106 -59.45351
24.096712 -19.255665 -61.16785
24.212074 -15.46303 -62.67749
22.513399 -14.430454 -63.355141
20.988541 -13.112321 -64.03154
20.825848 -9.853436 -65.370132
28.411558 15.165916 -68.65892
27.933945 12.350042 -69.080772
29.105152 9.121027 -68.089653
27.224487 9.583654 -69.312004
26.492895 6.721782 -69.242821
25.608347 3.969526 -69.017921
24.910152 1.056279 -68.475304
27.63847 -3.217019 -66.208427
25.775747 -2.512399 -67.115738
23.866495 -1.894935 -67.842773
22.869965 -4.853596 -67.02784
21.896641 -7.571875 -66.159561
14.389717 37.425316 -52.723402
13.748326 38.050506 -52.079517
31.301879 -16.619179 -59.66292
31.19987 -14.556987 -60.509337
26.611551 22.774721 -68.213325
25.843172 23.956122 -68.274155
26.459018 21.732596 -68.806721
26.611551 22.774721 -68.213325
0.34895 5.33483 -59.90354
0.289694 6.810075 -60.257562
0.739185 4.753251 -60.392351
0.34895 5.33483 -59.90354
1.115191 5.685437 -61.329555
1.161871 4.213898 -60.944162
0.739185 4.753251 -60.392351
20.612345 31.463307 -47.278652
20.003633 32.362797 -48.137736
8.152764 39.812123 -55.306486
8.966155 39.719143 -54.942905
7.879333 39.136103 -56.251386
7.310562 39.783343 -55.576813
8.152764 39.812123 -55.306486
25.812373 -27.704894 -57.332304
26.579697 -28.407996 -56.841248
25.123137 -26.950198 -57.830253
26.095209 -25.534523 -58.152582
25.812373 -27.704894 -57.332304
30.882714 0.429389 -65.407677
31.306645 -1.576948 -64.644602
30.035193 0.823024 -66.06831
30.428157 2.325841 -66.133739
30.882714 0.429389 -65.407677
23.965052 30.004492 -63.316979
24.885831 29.571416 -62.445492
23.870102 29.595744 -64.426265
22.993893 30.365806 -64.111599
23.965052 30.004492 -63.316979
24.715301 28.764634 -64.671486
23.744142 29.125948 -65.466106
23.870102 29.595744 -64.426265
1.009356 11.552181 -62.659687
1.035736 10.037097 -62.366035
11.405504 39.218237 -53.687055
12.168671 38.858719 -53.239481
11.213334 38.754851 -54.868089
11.405504 39.218237 -53.687055
10.656988 -19.516602 -59.918884
9.754162 -20.406894 -59.280721
10.94701 -17.438345 -60.836698
11.486855 -18.660998 -60.524512
10.656988 -19.516602 -59.918884
30.782723 -8.363287 -62.965326
30.550412 -6.47192 -63.707543
20.41147 32.661507 -61.818895
20.444924 32.896382 -60.473512
23.258172 27.095872 -68.318089
22.343973 28.033269 -68.197307
23.395673 27.851156 -67.492004
2.378248 2.563238 -62.365442
1.960942 1.501698 -61.360946
1.982657 3.088017 -61.921594
17.956285 34.640417 -50.62488
17.322672 35.273527 -51.326477
22.988122 29.919846 -48.907105
22.196724 30.417533 -48.416718
22.744151 29.609476 -47.446735
23.581126 30.659653 -53.009873
23.368151 30.455762 -51.603615
23.722645 30.775389 -54.329424
22.859039 31.327618 -53.871725
23.581126 30.659653 -53.009873
24.568811 30.223053 -54.832229
23.846723 30.891018 -55.694083
23.722645 30.775389 -54.329424
3.756755 35.624872 -59.341811
3.965 36.596165 -58.562609
4.545135 35.919032 -59.421872
3.562136 34.513824 -60.03805
3.756755 35.624872 -59.341811
2.932993 31.357111 -61.833793
3.125135 32.390918 -61.267586
3.695768 31.869508 -62.134811
2.781668 30.27047 -62.294101
2.932993 31.357111 -61.833793
2.321152 26.769005 -63.541769
2.427691 27.883951 -63.15123
2.94748 27.411211 -63.98044
2.243874 25.471315 -63.88014
2.321152 26.769005 -63.541769
2.058233 21.627782 -64.620672
2.070966 22.85633 -64.371947
2.632837 22.533854 -65.216919
2.030254 20.357132 -64.717848
2.058233 21.627782 -64.620672
2.539597 20.020428 -65.484184
1.949745 19.072254 -64.736388
2.030254 20.357132 -64.717848
2.157855 -4.01663 -59.746249
1.743276 -5.07083 -58.727457
1.801744 -3.350821 -59.421188
29.52204 -23.994837 -57.560805
29.35798 -25.998593 -56.785883
28.543433 -25.477954 -57.373238
29.602773 -21.916056 -58.385818
29.52204 -23.994837 -57.560805
28.801535 -21.359545 -58.980779
29.696815 -19.801403 -59.218439
29.602773 -21.916056 -58.385818
22.780538 -24.931665 -59.042564
23.551219 -25.794798 -58.60526
29.090143 13.58922 -68.177993
29.400386 14.753037 -67.823135
28.851337 12.181283 -68.38892
28.172752 13.757979 -68.869846
29.090143 13.58922 -68.177993
25.716121 28.808077 -62.663505
24.885831 29.571416 -62.445492
25.726928 28.355552 -63.727407
25.716121 28.808077 -62.663505
0.940337 14.442645 -63.009603
0.99248 13.019227 -62.87814
1.417828 15.32815 -63.839872
0.940337 14.442645 -63.009603
1.915525 16.30955 -64.689811
1.909037 14.932579 -64.56265
1.417828 15.32815 -63.839872
12.966645 38.531523 -52.711619
13.748326 38.050506 -52.079517
12.824435 38.193968 -53.961917
12.168671 38.858719 -53.239481
12.966645 38.531523 -52.711619
9.26878 -19.193112 -59.554779
9.754162 -20.406894 -59.280721
31.115721 -12.435865 -61.35434
30.98661 -10.341874 -62.165781
31.780442 -10.882207 -61.512331
30.406038 -14.016653 -61.162786
31.115721 -12.435865 -61.35434
31.19987 -14.556987 -60.509337
20.166668 32.016042 -64.204197
20.268106 32.358051 -63.080269
21.170513 31.726101 -63.52821
25.010323 25.071984 -68.339916
24.137454 26.083416 -68.380916
24.797885 24.137212 -69.083286
25.010323 25.071984 -68.339916
25.843172 23.956122 -68.274155
26.27123 20.635872 -69.33506
25.442946 21.924627 -69.545864
26.459018 21.732596 -68.806721
27.113667 19.262144 -69.020489
26.097595 19.454176 -69.759632
26.27123 20.635872 -69.33506
1.551614 3.58628 -61.399233
1.161871 4.213898 -60.944162
1.96892 4.647821 -62.403728
1.982657 3.088017 -61.921594
1.551614 3.58628 -61.399233
19.350354 33.118132 -48.89736
18.691387 33.928442 -49.746167
20.173641 32.523748 -49.523629
19.350354 33.118132 -48.89736
20.003633 32.362797 -48.137736
23.777166 29.405716 -49.296089
24.435608 28.526453 -48.332018
6.471909 39.796547 -55.827252
7.310562 39.783343 -55.576813
6.194353 38.94006 -56.724039
6.471909 39.796547 -55.827252
13.558993 -20.003059 -60.48997
13.307386 -22.045483 -59.624398
12.663836 -21.002926 -59.903227
27.377161 -29.004241 -56.31309
28.189435 -29.627237 -55.767048
27.581909 -26.885464 -57.126475
27.377161 -29.004241 -56.31309
26.579697 -28.407996 -56.841248
21.217841 -23.329966 -59.827982
21.991104 -24.11174 -59.475893
21.013615 -25.47645 -58.983707
30.820498 3.885447 -66.140507
31.216584 5.263921 -66.033249
29.972976 4.279081 -66.80114
30.820498 3.885447 -66.140507
30.428157 2.325841 -66.133739
21.400171 32.568184 -58.373552
22.241965 32.091549 -57.521907
22.07896 31.079322 -63.827225
21.170513 31.726101 -63.52821
21.984009 30.670575 -64.936512
22.07896 31.079322 -63.827225
22.993893 30.365806 -64.111599
23.535408 28.541695 -66.541275
22.690208 29.372805 -66.296054
23.744142 29.125948 -65.466106
23.395673 27.851156 -67.492004
23.535408 28.541695 -66.541275
24.715301 28.764634 -64.671486
25.726928 28.355552 -63.727407
0.659442 7.640949 -61.117004
0.289694 6.810075 -60.257562
1.068358 8.605853 -62.07904
1.101422 7.189694 -61.73978
0.659442 7.640949 -61.117004
1.477715 9.585843 -62.988811
1.068358 8.605853 -62.07904
1.035736 10.037097 -62.366035
1.428216 12.484133 -63.494259
1.009356 11.552181 -62.659687
0.99248 13.019227 -62.87814
23.313522 28.689542 -46.579561
22.744151 29.609476 -47.446735
24.127063 28.16391 -46.979852
23.313522 28.689542 -46.579561
24.435608 28.526453 -48.332018
24.127063 28.16391 -46.979852
9.560871 39.07671 -55.613729
8.966155 39.719143 -54.942905
12.056138 -19.849877 -60.187748
12.663836 -21.002926 -59.903227
12.34616 -17.771621 -61.105563
12.056138 -19.849877 -60.187748
11.486855 -18.660998 -60.524512
20.019809 -26.86776 -58.493891
21.013615 -25.47645 -58.983707
19.270164 -25.842831 -58.875845
20.019809 -26.86776 -58.493891
18.601038 -24.892388 -59.248248
19.571227 -23.744234 -59.708199
19.270164 -25.842831 -58.875845
30.838229 -3.039455 -64.575226
31.306645 -1.576948 -64.644602
30.337294 -4.484347 -64.457123
29.988815 -2.51832 -65.224144
30.838229 -3.039455 -64.575226
29.700997 -5.950785 -64.35646
30.337294 -4.484347 -64.457123
30.550412 -6.47192 -63.707543
30.118002 -9.916945 -62.807335
30.782723 -8.363287 -62.965326
30.98661 -10.341874 -62.165781
15.796138 36.280491 -54.002203
15.09684 36.854473 -53.303423
15.856324 36.409878 -52.711529
20.514871 33.07189 -59.103634
20.576181 33.102213 -57.76367
21.400171 32.568184 -58.373552
19.620936 33.430411 -59.86363
20.514871 33.07189 -59.103634
20.444924 32.896382 -60.473512
19.407625 32.951447 -62.494883
20.41147 32.661507 -61.818895
20.268106 32.358051 -63.080269
23.085754 26.265529 -69.08622
23.258172 27.095872 -68.318089
24.137454 26.083416 -68.380916
1.846741 -1.664486 -60.079329
1.801744 -3.350821 -59.421188
1.916847 -0.027716 -60.761736
1.960942 1.501698 -61.360946
2.286427 -0.659851 -61.122387
1.846741 -1.664486 -60.079329
1.916847 -0.027716 -60.761736
16.575405 35.839958 -52.011291
15.856324 36.409878 -52.711529
17.302889 35.269464 -52.725494
16.575405 35.839958 -52.011291
17.322672 35.273527 -51.326477
18.785259 33.991058 -51.161967
17.956285 34.640417 -50.62488
18.691387 33.928442 -49.746167
21.389837 30.937788 -47.860176
20.612345 31.463307 -47.278652
21.633808 31.248159 -49.320546
21.389837 30.937788 -47.860176
22.196724 30.417533 -48.416718
23.229739 30.213773 -50.266072
22.988122 29.919846 -48.907105
23.777166 29.405716 -49.296089
22.579107 30.969893 -51.21463
23.229739 30.213773 -50.266072
23.368151 30.455762 -51.603615
23.011502 31.513973 -56.600752
22.241965 32.091549 -57.521907
22.231019 32.02093 -56.112432
23.011502 31.513973 -56.600752
23.846723 30.891018 -55.694083
14.329531 37.295929 -54.014076
14.389717 37.425316 -52.723402
15.09684 36.854473 -53.303423
11.018043 38.394249 -56.020842
11.213334 38.754851 -54.868089
11.831169 38.160562 -55.642532
10.131625 38.487589 -56.371071
11.018043 38.394249 -56.020842
10.74946 37.893301 -57.145513
9.292288 38.575762 -56.738401
9.560871 39.07671 -55.613729
10.131625 38.487589 -56.371071
5.909707 38.173405 -57.646004
6.194353 38.94006 -56.724039
6.752485 38.340668 -57.443678
5.052478 37.83156 -57.784517
5.909707 38.173405 -57.646004
5.610609 37.232169 -58.504157
4.217268 37.628172 -57.838059
5.052478 37.83156 -57.784517
4.217268 37.628172 -57.838059
3.965 36.596165 -58.562609
3.337646 33.491613 -60.721816
3.562136 34.513824 -60.03805
4.1124 33.925528 -60.884839
3.337646 33.491613 -60.721816
3.125135 32.390918 -61.267586
2.556864 29.115698 -62.738542
2.781668 30.27047 -62.294101
3.278822 29.680929 -63.14546
2.556864 29.115698 -62.738542
2.427691 27.883951 -63.15123
2.146189 24.204384 -64.178747
2.243874 25.471315 -63.88014
2.743255 25.029334 -64.669586
2.146189 24.204384 -64.178747
2.070966 22.85633 -64.371947
1.941701 17.720335 -64.734879
1.949745 19.072254 -64.736388
2.432911 17.324765 -65.457657
1.915525 16.30955 -64.689811
1.941701 17.720335 -64.734879
1.649919 -6.674001 -58.039667
1.743276 -5.07083 -58.727457
1.961127 -7.491297 -58.257233
1.649919 -6.674001 -58.039667
2.341278 -8.291736 -58.488501
1.961127 -7.491297 -58.257233
2.479538 -6.537078 -59.283785
2.667452 -9.107948 -58.660834
2.341278 -8.291736 -58.488501
3.026711 -10.01893 -58.749676
2.667452 -9.107948 -58.660834
3.218946 -8.248499 -59.603896
3.427435 -11.032069 -58.871092
3.026711 -10.01893 -58.749676
3.851572 -11.96825 -58.945915
3.427435 -11.032069 -58.871092
4.002341 -10.095662 -59.767561
4.210654 -13.10916 -58.902828
3.851572 -11.96825 -58.945915
4.652181 -14.226869 -58.851526
4.210654 -13.10916 -58.902828
4.868005 -12.149553 -59.791082
5.064896 -15.25538 -58.829794
4.652181 -14.226869 -58.851526
5.551423 -16.462388 -58.704301
5.064896 -15.25538 -58.829794
5.796058 -14.47427 -59.614288
5.992474 -17.693327 -58.564043
5.551423 -16.462388 -58.704301
6.485993 -18.823041 -58.407646
5.992474 -17.693327 -58.564043
6.776103 -16.810992 -59.3324
7.001456 -19.926975 -58.29665
6.485993 -18.823041 -58.407646
7.84502 -19.01649 -59.027245
7.001456 -19.926975 -58.29665
8.628482 -18.14844 -59.72934
7.84502 -19.01649 -59.027245
8.053085 -17.072655 -59.878098
9.476845 -17.249277 -60.405632
9.26878 -19.193112 -59.554779
8.628482 -18.14844 -59.72934
17.937148 -24.061331 -59.519417
18.601038 -24.892388 -59.248248
13.947644 -23.103184 -59.369194
13.307386 -22.045483 -59.624398
14.631845 -24.201215 -59.057844
13.947644 -23.103184 -59.369194
14.886745 -22.143648 -59.89979
15.264145 -25.251695 -58.781757
14.631845 -24.201215 -59.057844
16.271572 -24.285275 -59.273336
15.264145 -25.251695 -58.781757
17.191972 -23.302632 -59.772114
16.271572 -24.285275 -59.273336
16.491346 -22.259036 -60.087217
18.156923 -22.035092 -60.333298
17.937148 -24.061331 -59.519417
17.191972 -23.302632 -59.772114
29.124852 -28.170006 -55.974424
28.189435 -29.627237 -55.767048
30.10346 -26.686889 -56.161991
29.124852 -28.170006 -55.974424
29.35798 -25.998593 -56.785883
30.49412 -18.247844 -59.47063
31.301879 -16.619179 -59.66292
29.692882 -17.691333 -60.065591
30.49412 -18.247844 -59.47063
29.696815 -19.801403 -59.218439
24.367106 -26.382158 -58.203772
25.123137 -26.950198 -57.830253
24.590086 -24.192467 -59.052021
24.367106 -26.382158 -58.203772
23.551219 -25.794798 -58.60526
22.984765 -22.785181 -59.886839
22.780538 -24.931665 -59.042564
21.991104 -24.11174 -59.475893
27.951461 17.816762 -68.6391
27.113667 19.262144 -69.020489
28.687224 16.359496 -68.246029
29.400386 14.753037 -67.823135
27.675795 16.623182 -69.05199
27.951461 17.816762 -68.6391
28.687224 16.359496 -68.246029
30.712734 7.131083 -66.653118
31.216584 5.263921 -66.033249
30.082652 8.772253 -67.293991
30.712734 7.131083 -66.653118
29.735234 7.479857 -67.44878
29.43694 10.566776 -67.89336
30.082652 8.772253 -67.293991
28.519548 10.735534 -68.585212
28.851337 12.181283 -68.38892
29.43694 10.566776 -67.89336
3 370 94 371
3 1 97 95
3 1 99 97
3 1 101 99
3 3 104 102
3 3 106 104
3 2 109 107
3 2 111 109
3 372 113 373
3 4 116 114
3 6 119 117
3 6 121 119
3 6 123 121
3 374 125 375
3 377 376 125
3 8 378 379
3 8 380 381
3 8 382 384
3 382 127 383
3 382 383 384
3 10 130 128
3 10 132 130
3 385 134 386
3 11 387 388
3 11 389 391
3 389 135 390
3 389 390 391
3 5 138 136
3 12 141 139
3 12 143 141
3 12 145 143
3 13 148 146
3 13 150 148
3 13 152 150
3 14 155 153
3 14 157 155
3 7 160 158
3 15 163 161
3 15 165 163
3 15 167 165
3 17 170 168
3 17 172 170
3 9 175 173
3 18 178 176
3 18 180 178
3 18 182 180
3 16 185 183
3 16 187 185
3 19 190 188
3 19 192 190
3 392 194 393
3 394 196 395
3 396 395 194
3 394 395 396
3 20 199 197
3 20 201 199
3 22 397 398
3 22 399 401
3 399 203 400
3 399 400 401
3 22 205 203
3 21 208 206
3 21 210 208
3 23 402 403
3 23 404 406
3 404 211 405
3 404 405 406
3 23 407 409
3 409 408 211
3 407 408 409
3 410 214 411
3 25 215 93
3 25 216 215
3 27 412 413
3 27 414 415
3 28 219 217
3 30 220 96
3 30 221 220
3 30 223 221
3 32 224 98
3 32 225 224
3 32 227 225
3 34 228 100
3 34 229 228
3 35 232 230
3 37 233 103
3 37 234 233
3 37 236 234
3 39 237 105
3 39 238 237
3 40 241 239
3 42 242 108
3 42 243 242
3 42 245 243
3 44 246 110
3 44 247 246
3 45 416 417
3 45 418 420
3 418 248 419
3 418 419 420
3 421 250 422
3 47 251 112
3 47 252 251
3 48 255 253
3 50 256 115
3 50 257 256
3 423 258 424
3 51 259 118
3 51 260 259
3 51 261 260
3 52 262 120
3 52 263 262
3 52 265 263
3 54 266 122
3 54 267 266
3 425 268 426
3 427 426 212
3 425 426 427
3 55 269 124
3 55 270 269
3 55 271 270
3 56 272 126
3 56 273 272
3 58 428 430
3 428 274 429
3 428 429 430
3 58 275 274
3 24 276 213
3 59 277 129
3 59 278 277
3 59 279 278
3 60 280 131
3 60 281 280
3 431 282 432
3 61 283 133
3 61 284 283
3 26 433 435
3 433 285 434
3 433 434 435
3 436 286 437
3 438 287 439
3 440 439 286
3 438 439 440
3 443 442 287
3 441 442 443
3 49 288 254
3 62 289 137
3 62 290 289
3 29 291 218
3 63 292 140
3 63 293 292
3 63 294 293
3 64 295 142
3 64 444 446
3 446 445 295
3 444 445 446
3 64 447 448
3 65 449 451
3 451 450 144
3 449 450 451
3 65 452 453
3 31 296 222
3 66 297 147
3 66 454 456
3 456 455 297
3 454 455 456
3 66 457 458
3 67 459 461
3 461 460 149
3 459 460 461
3 67 462 463
3 67 464 466
3 464 298 465
3 464 465 466
3 68 299 151
3 68 300 299
3 33 301 226
3 69 302 154
3 69 303 302
3 69 304 303
3 70 305 156
3 70 306 305
3 53 307 264
3 71 308 159
3 71 309 308
3 36 310 231
3 72 311 162
3 72 312 311
3 72 313 312
3 73 314 164
3 73 315 314
3 73 316 315
3 74 317 166
3 74 318 317
3 38 319 235
3 75 320 169
3 75 321 320
3 75 322 321
3 77 323 171
3 77 325 323
3 57 467 469
3 467 326 468
3 467 468 469
3 78 327 174
3 78 328 327
3 41 329 240
3 79 330 177
3 79 331 330
3 79 332 331
3 80 333 179
3 80 334 333
3 80 335 334
3 81 336 181
3 81 337 336
3 43 338 244
3 82 339 184
3 82 340 339
3 82 341 340
3 76 342 186
3 76 324 342
3 84 344 189
3 84 345 344
3 84 346 345
3 83 347 191
3 83 343 347
3 86 470 472
3 472 471 193
3 470 471 472
3 86 473 474
3 86 475 477
3 475 349 476
3 475 476 477
3 87 350 195
3 87 351 350
3 478 352 479
3 88 353 198
3 88 354 353
3 88 355 354
3 85 356 200
3 85 348 356
3 480 358 481
3 482 359 483
3 484 483 358
3 482 483 484
3 90 360 202
3 90 361 360
3 90 362 361
3 91 363 204
3 91 364 363
3 46 365 249
3 92 366 207
3 92 367 366
3 92 368 367
3 89 369 209
3 89 357 369
3 485 23 486
3 488 487 23
3 489 93 490
3 491 93 492
3 493 25 494
3 495 494 93
3 493 494 495
3 94 496 497
3 94 498 500
3 498 27 499
3 498 499 500
3 95 96 28
3 97 96 95
3 97 30 96
3 97 98 30
3 99 98 97
3 99 32 98
3 99 100 32
3 101 100 99
3 101 34 100
3 102 103 35
3 104 103 102
3 104 37 103
3 104 105 37
3 106 105 104
3 106 39 105
3 107 108 40
3 109 108 107
3 109 42 108
3 109 110 42
3 111 110 109
3 111 44 110
3 501 45 502
3 503 112 504
3 503 504 505
3 113 506 508
3 506 112 507
3 506 507 508
3 113 47 112
3 114 115 48
3 116 115 114
3 116 50 115
3 117 509 511
3 509 118 510
3 509 510 511
3 119 118 117
3 119 51 118
3 119 120 51
3 121 120 119
3 121 52 120
3 121 122 52
3 123 122 121
3 123 54 122
3 512 124 513
3 125 514 516
3 514 124 515
3 514 515 516
3 125 55 124
3 125 126 55
3 517 126 518
3 519 518 125
3 517 518 519
3 520 56 521
3 522 521 126
3 520 521 522
3 127 523 524
3 127 525 527
3 525 58 526
3 525 526 527
3 128 129 24
3 130 129 128
3 130 59 129
3 130 131 59
3 132 131 130
3 132 60 131
3 528 133 529
3 134 530 532
3 530 133 531
3 530 531 532
3 134 61 133
3 534 533 26
3 135 535 536
3 135 537 538
3 136 137 49
3 138 137 136
3 138 62 137
3 139 140 29
3 141 140 139
3 141 63 140
3 141 142 63
3 143 142 141
3 143 64 142
3 143 144 64
3 145 144 143
3 145 65 144
3 146 147 31
3 148 147 146
3 148 66 147
3 148 149 66
3 150 149 148
3 150 67 149
3 150 151 67
3 152 151 150
3 152 68 151
3 153 154 33
3 155 154 153
3 155 69 154
3 155 156 69
3 157 156 155
3 157 70 156
3 158 159 53
3 160 159 158
3 160 71 159
3 161 162 36
3 163 162 161
3 163 72 162
3 163 164 72
3 165 164 163
3 165 73 164
3 165 166 73
3 167 166 165
3 167 74 166
3 168 169 38
3 170 169 168
3 170 75 169
3 170 171 75
3 172 171 170
3 172 77 171
3 173 174 57
3 175 174 173
3 175 78 174
3 176 177 41
3 178 177 176
3 178 79 177
3 178 179 79
3 180 179 178
3 180 80 179
3 180 181 80
3 182 181 180
3 182 81 181
3 183 184 43
3 185 184 183
3 185 82 184
3 185 186 82
3 187 186 185
3 187 76 186
3 188 539 541
3 539 189 540
3 539 540 541
3 190 189 188
3 190 84 189
3 190 191 84
3 192 191 190
3 192 83 191
3 542 193 543
3 194 544 546
3 544 193 545
3 544 545 546
3 194 86 193
3 194 195 86
3 196 195 194
3 196 87 195
3 197 547 549
3 547 198 548
3 547 548 549
3 199 198 197
3 199 88 198
3 199 200 88
3 201 200 199
3 201 85 200
3 550 202 551
3 203 552 554
3 552 202 553
3 552 553 554
3 203 90 202
3 203 204 90
3 205 204 203
3 205 91 204
3 206 207 46
3 208 207 206
3 208 92 207
3 208 209 92
3 210 209 208
3 210 89 209
3 556 555 4
3 557 117 558
3 211 559 561
3 559 117 560
3 559 560 561
3 211 6 117
3 211 212 6
3 562 212 563
3 564 563 211
3 562 563 564
3 566 565 212
3 568 567 23
3 569 8 570
3 571 213 572
3 573 572 8
3 571 572 573
3 214 574 576
3 574 213 575
3 574 575 576
3 214 24 213
3 93 577 579
3 577 214 578
3 577 578 579
3 215 214 93
3 215 24 214
3 215 128 24
3 216 128 215
3 216 10 128
3 580 26 581
3 582 26 583
3 585 584 26
3 586 11 587
3 217 218 5
3 219 218 217
3 219 29 218
3 96 219 28
3 220 219 96
3 220 29 219
3 220 139 29
3 221 139 220
3 221 12 139
3 221 222 12
3 223 222 221
3 223 31 222
3 98 223 30
3 224 223 98
3 224 31 223
3 224 146 31
3 225 146 224
3 225 13 146
3 225 226 13
3 227 226 225
3 227 33 226
3 100 227 32
3 228 227 100
3 228 33 227
3 228 153 33
3 229 153 228
3 229 14 153
3 230 231 7
3 232 231 230
3 232 36 231
3 103 232 35
3 233 232 103
3 233 36 232
3 233 161 36
3 234 161 233
3 234 15 161
3 234 235 15
3 236 235 234
3 236 38 235
3 105 236 37
3 237 236 105
3 237 38 236
3 237 168 38
3 238 168 237
3 238 17 168
3 239 240 9
3 241 240 239
3 241 41 240
3 108 241 40
3 242 241 108
3 242 41 241
3 242 176 41
3 243 176 242
3 243 18 176
3 243 244 18
3 245 244 243
3 245 43 244
3 110 245 42
3 246 245 110
3 246 43 245
3 246 183 43
3 247 183 246
3 247 16 183
3 588 188 589
3 248 590 592
3 590 188 591
3 590 591 592
3 248 19 188
3 593 197 594
3 595 197 596
3 597 20 598
3 599 598 197
3 597 598 599
3 600 22 601
3 602 249 603
3 604 603 22
3 602 603 604
3 250 605 607
3 605 249 606
3 605 606 607
3 250 46 249
3 112 608 610
3 608 250 609
3 608 609 610
3 251 250 112
3 251 46 250
3 251 206 46
3 252 206 251
3 252 21 206
3 253 611 613
3 611 254 612
3 611 612 613
3 255 254 253
3 255 49 254
3 115 255 48
3 256 255 115
3 256 49 255
3 256 136 49
3 257 136 256
3 257 5 136
3 614 116 615
3 616 615 4
3 614 615 616
3 258 617 619
3 617 116 618
3 617 618 619
3 258 50 116
3 118 620 622
3 620 258 621
3 620 621 622
3 259 258 118
3 259 50 258
3 259 257 50
3 260 257 259
3 260 5 257
3 260 217 5
3 261 217 260
3 261 28 217
3 120 261 51
3 262 261 120
3 262 28 261
3 262 95 28
3 263 95 262
3 263 1 95
3 263 264 1
3 265 264 263
3 265 53 264
3 122 265 52
3 266 265 122
3 266 53 265
3 266 158 53
3 267 158 266
3 267 7 158
3 212 123 6
3 268 123 212
3 268 54 123
3 124 623 625
3 623 268 624
3 623 624 625
3 269 268 124
3 269 54 268
3 269 267 54
3 270 267 269
3 270 7 267
3 270 230 7
3 271 230 270
3 271 35 230
3 126 271 55
3 272 271 126
3 272 35 271
3 272 102 35
3 273 102 272
3 273 3 102
3 626 57 627
3 274 628 629
3 274 630 632
3 630 57 631
3 630 631 632
3 274 173 57
3 275 173 274
3 275 9 173
3 213 127 8
3 276 127 213
3 276 58 127
3 129 276 24
3 277 276 129
3 277 58 276
3 277 275 58
3 278 275 277
3 278 9 275
3 278 239 9
3 279 239 278
3 279 40 239
3 131 279 59
3 280 279 131
3 280 40 279
3 280 107 40
3 281 107 280
3 281 2 107
3 633 253 634
3 282 635 637
3 635 253 636
3 635 636 637
3 282 48 253
3 133 638 640
3 638 282 639
3 638 639 640
3 283 282 133
3 283 48 282
3 283 114 48
3 284 114 283
3 284 4 114
3 641 134 642
3 285 643 645
3 643 134 644
3 643 644 645
3 285 61 134
3 646 285 647
3 648 647 26
3 646 647 648
3 286 649 651
3 649 285 650
3 649 650 651
3 286 61 285
3 286 284 61
3 287 284 286
3 287 4 284
3 287 652 654
3 654 653 4
3 652 653 654
3 656 655 287
3 254 657 659
3 657 94 658
3 657 658 659
3 288 94 254
3 288 27 94
3 137 288 49
3 289 288 137
3 289 27 288
3 289 660 662
3 662 661 27
3 660 661 662
3 290 663 665
3 665 664 289
3 663 664 665
3 290 666 668
3 666 11 667
3 666 667 668
3 218 138 5
3 291 138 218
3 291 62 138
3 140 291 29
3 292 291 140
3 292 62 291
3 292 290 62
3 293 290 292
3 293 11 290
3 293 135 11
3 294 135 293
3 294 669 671
3 671 670 135
3 669 670 671
3 142 294 63
3 295 294 142
3 295 672 674
3 674 673 294
3 672 673 674
3 295 675 676
3 678 677 295
3 144 679 681
3 681 680 64
3 679 680 681
3 683 682 144
3 222 145 12
3 296 145 222
3 296 65 145
3 147 296 31
3 297 296 147
3 297 65 296
3 297 684 686
3 686 685 65
3 684 685 686
3 688 687 297
3 149 689 691
3 691 690 66
3 689 690 691
3 693 692 149
3 298 694 695
3 298 696 698
3 696 25 697
3 696 697 698
3 151 298 67
3 299 298 151
3 299 25 298
3 299 216 25
3 300 216 299
3 300 10 216
3 226 152 13
3 301 152 226
3 301 68 152
3 154 301 33
3 302 301 154
3 302 68 301
3 302 300 68
3 303 300 302
3 303 10 300
3 303 132 10
3 304 132 303
3 304 60 132
3 156 304 69
3 305 304 156
3 305 60 304
3 305 281 60
3 306 281 305
3 306 2 281
3 264 101 1
3 307 101 264
3 307 34 101
3 159 307 53
3 308 307 159
3 308 34 307
3 308 229 34
3 309 229 308
3 309 14 229
3 231 160 7
3 310 160 231
3 310 71 160
3 162 310 36
3 311 310 162
3 311 71 310
3 311 309 71
3 312 309 311
3 312 14 309
3 312 157 14
3 313 157 312
3 313 70 157
3 164 313 72
3 314 313 164
3 314 70 313
3 314 306 70
3 315 306 314
3 315 2 306
3 315 111 2
3 316 111 315
3 316 44 111
3 166 316 73
3 317 316 166
3 317 44 316
3 317 247 44
3 318 247 317
3 318 16 247
3 235 167 15
3 319 167 235
3 319 74 167
3 169 319 38
3 320 319 169
3 320 74 319
3 320 318 74
3 321 318 320
3 321 16 318
3 321 187 16
3 322 187 321
3 322 76 187
3 171 322 75
3 323 322 171
3 323 76 322
3 323 324 76
3 325 324 323
3 325 0 324
3 326 699 700
3 326 701 702
3 174 326 57
3 327 326 174
3 327 703 705
3 705 704 326
3 703 704 705
3 327 706 707
3 328 708 710
3 710 709 327
3 708 709 710
3 328 711 712
3 240 175 9
3 329 175 240
3 329 78 175
3 177 329 41
3 330 329 177
3 330 78 329
3 330 328 78
3 331 328 330
3 331 713 715
3 715 714 328
3 713 714 715
3 331 716 717
3 332 718 720
3 720 719 331
3 718 719 720
3 332 721 722
3 179 332 79
3 333 332 179
3 333 723 725
3 725 724 332
3 723 724 725
3 333 726 727
3 334 728 730
3 730 729 333
3 728 729 730
3 334 731 732
3 334 733 734
3 335 735 737
3 737 736 334
3 735 736 737
3 335 738 740
3 738 45 739
3 738 739 740
3 181 335 80
3 336 335 181
3 336 45 335
3 336 248 45
3 337 248 336
3 337 19 248
3 244 182 18
3 338 182 244
3 338 81 182
3 184 338 43
3 339 338 184
3 339 81 338
3 339 337 81
3 340 337 339
3 340 19 337
3 340 192 19
3 341 192 340
3 341 83 192
3 186 341 82
3 342 341 186
3 342 83 341
3 342 343 83
3 324 343 342
3 324 0 343
3 741 20 742
3 189 743 744
3 344 745 747
3 747 746 189
3 745 746 747
3 344 748 749
3 344 750 751
3 345 752 754
3 754 753 344
3 752 753 754
3 345 755 757
3 755 20 756
3 755 756 757
3 345 201 20
3 346 201 345
3 346 85 201
3 191 346 84
3 347 346 191
3 347 85 346
3 347 348 85
3 343 348 347
3 343 0 348
3 193 758 759
3 762 761 193
3 760 761 762
3 763 113 764
3 349 765 767
3 765 113 766
3 765 766 767
3 349 47 113
3 195 349 86
3 350 349 195
3 350 47 349
3 350 252 47
3 351 252 350
3 351 21 252
3 768 196 769
3 352 770 772
3 770 196 771
3 770 771 772
3 352 87 196
3 198 773 775
3 773 352 774
3 773 774 775
3 353 352 198
3 353 87 352
3 353 351 87
3 354 351 353
3 354 21 351
3 354 210 21
3 355 210 354
3 355 89 210
3 200 355 88
3 356 355 200
3 356 89 355
3 356 357 89
3 348 357 356
3 348 0 357
3 776 56 777
3 358 778 779
3 358 780 782
3 780 56 781
3 780 781 782
3 358 273 56
3 359 273 358
3 359 3 273
3 202 783 784
3 360 785 787
3 787 786 202
3 785 786 787
3 360 788 789
3 360 790 792
3 790 359 791
3 790 791 792
3 361 359 360
3 361 3 359
3 361 106 3
3 362 106 361
3 362 39 106
3 204 362 90
3 363 362 204
3 363 39 362
3 363 238 39
3 364 238 363
3 364 17 238
3 249 205 22
3 365 205 249
3 365 91 205
3 207 365 46
3 366 365 207
3 366 91 365
3 366 364 91
3 367 364 366
3 367 17 364
3 367 172 17
3 368 172 367
3 368 77 172
3 209 368 92
3 369 368 209
3 369 77 368
3 369 325 77
3 357 325 369
3 357 0 325
